<?xml version="1.0" encoding="utf-8"?>
<!-- Generator: Adobe Illustrator 28.1.0, SVG Export Plug-In . SVG Version: 6.00 Build 0)  -->
<svg version="1.1" id="Layer_1" xmlns="http://www.w3.org/2000/svg" xmlns:xlink="http://www.w3.org/1999/xlink" x="0px" y="0px"
	 viewBox="0 0 340.97 340.97" style="enable-background:new 0 0 340.97 340.97;" xml:space="preserve">
<style type="text/css">
	.st0{fill:#CEB88E;stroke:#221F20;stroke-width:0.25;stroke-miterlimit:10;}
	.st1{fill:#CDB98D;stroke:#221F20;stroke-width:0.25;stroke-miterlimit:10;}
	.st2{fill:#C4B388;stroke:#221F20;stroke-width:0.25;stroke-miterlimit:10;}
	.st3{fill:#A0936A;stroke:#221F20;stroke-width:0.25;stroke-miterlimit:10;}
	.st4{fill:#837B57;stroke:#221F20;stroke-width:0.25;stroke-miterlimit:10;}
	.st5{fill:#8C876A;stroke:#221F20;stroke-width:0.25;stroke-miterlimit:10;}
	.st6{fill:#999781;stroke:#221F20;stroke-width:0.25;stroke-miterlimit:10;}
	.st7{fill:#D6B996;stroke:#221F20;stroke-width:0.25;stroke-miterlimit:10;}
	.st8{fill:#CBB28F;stroke:#221F20;stroke-width:0.25;stroke-miterlimit:10;}
	.st9{fill:#CDBA97;stroke:#221F20;stroke-width:0.25;stroke-miterlimit:10;}
	.st10{fill:#C3B795;stroke:#221F20;stroke-width:0.25;stroke-miterlimit:10;}
	.st11{fill:#9B9477;stroke:#221F20;stroke-width:0.25;stroke-miterlimit:10;}
	.st12{fill:#93917B;stroke:#221F20;stroke-width:0.25;stroke-miterlimit:10;}
	.st13{fill:#777967;stroke:#221F20;stroke-width:0.25;stroke-miterlimit:10;}
	.st14{fill:#B99878;stroke:#221F20;stroke-width:0.25;stroke-miterlimit:10;}
	.st15{fill:#D7BB9B;stroke:#221F20;stroke-width:0.25;stroke-miterlimit:10;}
	.st16{fill:#C7B192;stroke:#221F20;stroke-width:0.25;stroke-miterlimit:10;}
	.st17{fill:#CFC0A3;stroke:#221F20;stroke-width:0.25;stroke-miterlimit:10;}
	.st18{fill:#BBB299;stroke:#221F20;stroke-width:0.25;stroke-miterlimit:10;}
	.st19{fill:#736F5A;stroke:#221F20;stroke-width:0.25;stroke-miterlimit:10;}
	.st20{fill:#6D6D5C;stroke:#221F20;stroke-width:0.25;stroke-miterlimit:10;}
	.st21{fill:#B5926F;stroke:#221F20;stroke-width:0.25;stroke-miterlimit:10;}
	.st22{fill:#B99A7C;stroke:#221F20;stroke-width:0.25;stroke-miterlimit:10;}
	.st23{fill:#D8BEA2;stroke:#221F20;stroke-width:0.25;stroke-miterlimit:10;}
	.st24{fill:#B9A68C;stroke:#221F20;stroke-width:0.25;stroke-miterlimit:10;}
	.st25{fill:#A3947A;stroke:#221F20;stroke-width:0.25;stroke-miterlimit:10;}
	.st26{fill:#AEA488;stroke:#221F20;stroke-width:0.25;stroke-miterlimit:10;}
	.st27{fill:#999279;stroke:#221F20;stroke-width:0.25;stroke-miterlimit:10;}
	.st28{fill:#9A7651;stroke:#221F20;stroke-width:0.25;stroke-miterlimit:10;}
	.st29{fill:#BE9D81;stroke:#221F20;stroke-width:0.25;stroke-miterlimit:10;}
	.st30{fill:#BA9D84;stroke:#221F20;stroke-width:0.25;stroke-miterlimit:10;}
	.st31{fill:#AF967D;stroke:#221F20;stroke-width:0.25;stroke-miterlimit:10;}
	.st32{fill:#BBA78B;stroke:#221F20;stroke-width:0.25;stroke-miterlimit:10;}
	.st33{fill:#D7C6A6;stroke:#221F20;stroke-width:0.25;stroke-miterlimit:10;}
	.st34{fill:#C0B191;stroke:#221F20;stroke-width:0.25;stroke-miterlimit:10;}
	.st35{fill:#573519;stroke:#221F20;stroke-width:0.25;stroke-miterlimit:10;}
	.st36{fill:#967258;stroke:#221F20;stroke-width:0.25;stroke-miterlimit:10;}
	.st37{fill:#93715D;stroke:#221F20;stroke-width:0.25;stroke-miterlimit:10;}
	.st38{fill:#B1927C;stroke:#221F20;stroke-width:0.25;stroke-miterlimit:10;}
	.st39{fill:#D8BCA1;stroke:#221F20;stroke-width:0.25;stroke-miterlimit:10;}
	.st40{fill:#CCB08E;stroke:#221F20;stroke-width:0.25;stroke-miterlimit:10;}
	.st41{fill:#D6BC98;stroke:#221F20;stroke-width:0.25;stroke-miterlimit:10;}
	.st42{fill:#A17D57;stroke:#221F20;stroke-width:0.25;stroke-miterlimit:10;}
	.st43{fill:#2E1410;stroke:#221F20;stroke-width:0.25;stroke-miterlimit:10;}
	.st44{fill:#9D735E;stroke:#221F20;stroke-width:0.25;stroke-miterlimit:10;}
	.st45{fill:#CA9F89;stroke:#221F20;stroke-width:0.25;stroke-miterlimit:10;}
	.st46{fill:#BD9479;stroke:#221F20;stroke-width:0.25;stroke-miterlimit:10;}
	.st47{fill:#E1BB98;stroke:#221F20;stroke-width:0.25;stroke-miterlimit:10;}
	.st48{fill:#CBA783;stroke:#221F20;stroke-width:0.25;stroke-miterlimit:10;}
	.st49{opacity:0.31;}
	.st50{stroke:#000000;stroke-width:2;stroke-linecap:round;stroke-linejoin:round;stroke-miterlimit:10;}
	.st51{fill:#FFFFFF;}
</style>
<g id="pixels">
	<rect class="st0" width="48.71" height="48.71"/>
	<rect y="48.71" class="st1" width="48.71" height="48.71"/>
	<rect y="97.42" class="st2" width="48.71" height="48.71"/>
	<rect y="146.13" class="st3" width="48.71" height="48.71"/>
	<rect y="194.84" class="st4" width="48.71" height="48.71"/>
	<rect y="243.55" class="st5" width="48.71" height="48.71"/>
	<rect y="292.26" class="st6" width="48.71" height="48.71"/>
	<rect x="48.71" class="st7" width="48.71" height="48.71"/>
	<rect x="48.71" y="48.71" class="st8" width="48.71" height="48.71"/>
	<rect x="48.71" y="97.42" class="st9" width="48.71" height="48.71"/>
	<rect x="48.71" y="146.13" class="st10" width="48.71" height="48.71"/>
	<rect x="48.71" y="194.84" class="st11" width="48.71" height="48.71"/>
	<rect x="48.71" y="243.55" class="st12" width="48.71" height="48.71"/>
	<rect x="48.71" y="292.26" class="st13" width="48.71" height="48.71"/>
	<rect x="97.42" class="st14" width="48.71" height="48.71"/>
	<rect x="97.42" y="48.71" class="st15" width="48.71" height="48.71"/>
	<rect x="97.42" y="97.42" class="st16" width="48.71" height="48.71"/>
	<rect x="97.42" y="146.13" class="st17" width="48.71" height="48.71"/>
	<rect x="97.42" y="194.84" class="st18" width="48.71" height="48.71"/>
	<rect x="97.42" y="243.55" class="st19" width="48.71" height="48.71"/>
	<rect x="97.42" y="292.26" class="st20" width="48.71" height="48.71"/>
	<rect x="146.13" class="st21" width="48.71" height="48.71"/>
	<rect x="146.13" y="48.71" class="st22" width="48.71" height="48.71"/>
	<rect x="146.13" y="97.42" class="st23" width="48.71" height="48.71"/>
	<rect x="146.13" y="146.13" class="st24" width="48.71" height="48.71"/>
	<rect x="146.13" y="194.84" class="st25" width="48.71" height="48.71"/>
	<rect x="146.13" y="243.55" class="st26" width="48.71" height="48.71"/>
	<rect x="146.13" y="292.26" class="st27" width="48.71" height="48.71"/>
	<rect x="194.84" class="st28" width="48.71" height="48.71"/>
	<rect x="194.84" y="48.71" class="st29" width="48.71" height="48.71"/>
	<rect x="194.84" y="97.42" class="st30" width="48.71" height="48.71"/>
	<rect x="194.84" y="146.13" class="st31" width="48.71" height="48.71"/>
	<rect x="194.84" y="194.84" class="st32" width="48.71" height="48.71"/>
	<rect x="194.84" y="243.55" class="st33" width="48.71" height="48.71"/>
	<rect x="194.84" y="292.26" class="st34" width="48.71" height="48.71"/>
	<rect x="243.55" class="st35" width="48.71" height="48.71"/>
	<rect x="243.55" y="48.71" class="st36" width="48.71" height="48.71"/>
	<rect x="243.55" y="97.42" class="st37" width="48.71" height="48.71"/>
	<rect x="243.55" y="146.13" class="st38" width="48.71" height="48.71"/>
	<rect x="243.55" y="194.84" class="st39" width="48.71" height="48.71"/>
	<rect x="243.55" y="243.55" class="st40" width="48.71" height="48.71"/>
	<rect x="243.55" y="292.26" class="st41" width="48.71" height="48.71"/>
	<rect x="292.26" class="st42" width="48.71" height="48.71"/>
	<rect x="292.26" y="48.71" class="st43" width="48.71" height="48.71"/>
	<rect x="292.26" y="97.42" class="st44" width="48.71" height="48.71"/>
	<rect x="292.26" y="146.13" class="st45" width="48.71" height="48.71"/>
	<rect x="292.26" y="194.84" class="st46" width="48.71" height="48.71"/>
	<rect x="292.26" y="243.55" class="st47" width="48.71" height="48.71"/>
	<rect x="292.26" y="292.26" class="st48" width="48.71" height="48.71"/>
</g>
<g id="number_shadow" class="st49">
	<g>
		<path class="st50" d="M19.91,24.61c0-4.44,1.84-6.9,5.28-6.9s5.28,2.46,5.28,6.9c0,4.48-1.84,6.94-5.28,6.94
			S19.91,29.1,19.91,24.61z M25.19,30.08c0.94,0,1.68-0.32,2.22-0.9l-5.28-7.58c-0.28,0.82-0.4,1.84-0.4,3.02
			C21.73,28.12,22.83,30.08,25.19,30.08z M23.05,19.99l5.26,7.52c0.22-0.78,0.34-1.76,0.34-2.9c0-3.48-1.12-5.42-3.46-5.42
			C24.31,19.19,23.59,19.47,23.05,19.99z"/>
	</g>
	<g>
		<path class="st50" d="M73.15,29.78v-8.54h-3.56v-1.34c1.92,0,3.52-0.3,4.1-1.94h1.12v11.82h3.2v1.54h-8.42v-1.54H73.15z"/>
	</g>
	<g>
		<path class="st50" d="M117.6,31.32v-1.5c4.72-3.48,7.48-6.02,7.48-8.38c0-1.38-0.92-2.32-2.5-2.32c-1.26,0-2.48,0.62-2.8,2.24
			l-1.68-0.48c0.48-1.94,2.16-3.16,4.52-3.16c2.46,0,4.24,1.26,4.24,3.5c0,3.1-3.26,5.86-7,8.56h7.36v1.54H117.6z"/>
	</g>
	<g>
		<path class="st50" d="M167.98,27.82c0.3,1.4,1.26,2.34,2.96,2.34c1.76,0,3.02-0.92,3.02-2.58c0-2.56-3.06-2.54-4.12-2.54v-1.52
			c1.5,0,3.78-0.12,3.78-2.22c0-1.44-1.18-2.18-2.6-2.18c-1.64,0-2.6,0.92-2.86,2.24l-1.64-0.48c0.48-1.9,2.08-3.16,4.54-3.16
			c2.32,0,4.32,0.92,4.32,3.4c0,1.36-0.78,2.52-2.18,3.1c2,0.62,2.56,1.94,2.56,3.34c0,2.7-2.3,4-4.84,4c-2.7,0-4.14-1.44-4.6-3.26
			L167.98,27.82z"/>
	</g>
	<g>
		<path class="st50" d="M214.27,26.44l6.62-8.48h1.7v8.48h2.44v1.58h-2.44v3.3h-1.68v-3.3h-6.64V26.44z M220.91,26.44v-6.18
			l-4.82,6.18H220.91z"/>
	</g>
	<g>
		<path class="st50" d="M265.23,27.82c0.32,1.46,1.22,2.34,2.96,2.34c1.6,0,2.98-1.16,2.98-3.22c0-2.22-1.56-3.18-3-3.18
			c-1.38,0-2.3,0.82-2.58,1.48l-1.64-0.48l0.82-6.8h7.66v1.62h-6.3l-0.46,3.74c0.7-0.68,1.78-1,2.88-1c2.34,0,4.38,1.66,4.38,4.6
			c0,3.06-2.26,4.64-4.74,4.64c-2.7,0-4.1-1.46-4.6-3.26L265.23,27.82z"/>
	</g>
	<g>
		<path class="st50" d="M312.1,25.11c0-3.78,1.34-7.4,5.22-7.4c1.98,0,3.18,0.94,3.76,2.14l-1.7,0.5c-0.4-0.78-1.2-1.24-2.26-1.24
			c-2.08,0-3.2,2.06-3.28,5.16c0.6-1.04,1.74-1.86,3.52-1.86c2.48,0,4.3,1.86,4.3,4.54c0,2.48-1.84,4.6-4.7,4.6
			C313.62,31.56,312.1,29.24,312.1,25.11z M316.97,30.14c1.76,0,2.9-1.28,2.9-3.12s-1.14-3.12-2.9-3.12c-1.78,0-2.92,1.28-2.92,3.12
			S315.19,30.14,316.97,30.14z"/>
	</g>
	<g>
		<path class="st50" d="M27.93,68.09h-7.36v-1.62h9.22v1.62l-5.56,11.74h-2.1L27.93,68.09z"/>
	</g>
	<g>
		<path class="st50" d="M71.31,72.51c-0.7-0.66-1.14-1.6-1.14-2.66c0-2,1.62-3.62,3.62-3.62c2.02,0,3.64,1.62,3.64,3.62
			c0,1.06-0.44,2-1.14,2.66c1.48,0.6,2.46,1.84,2.46,3.56c0,2.56-2.16,4-4.96,4c-2.78,0-4.94-1.44-4.94-4
			C68.84,74.35,69.82,73.11,71.31,72.51z M73.79,78.59c1.92,0,3.14-0.96,3.14-2.52c0-1.56-1.22-2.58-3.14-2.58
			c-1.9,0-3.12,1.02-3.12,2.58C70.67,77.63,71.89,78.59,73.79,78.59z M73.79,72.01c1.18,0,2.14-0.96,2.14-2.18
			c0-1.18-0.96-2.12-2.14-2.12s-2.14,0.94-2.14,2.12C71.65,71.05,72.61,72.01,73.79,72.01z"/>
	</g>
	<g>
		<path class="st50" d="M117.64,71.01c0-2.62,2.12-4.76,4.78-4.76s4.78,2.1,4.78,4.8c0,0.6-0.12,1.22-0.36,1.82
			c-0.26,0.66-2.02,3.96-4.06,6.96h-2.08c0,0,1.68-2.32,2.78-4.14c-0.34,0.08-0.68,0.12-1.06,0.12
			C119.8,75.81,117.64,73.67,117.64,71.01z M119.36,71.01c0,1.7,1.36,3.08,3.06,3.08c1.72,0,3.1-1.38,3.1-3.08
			c0-1.68-1.38-3.06-3.1-3.06C120.72,67.95,119.36,69.33,119.36,71.01z"/>
	</g>
	<g>
		<path class="st50" d="M163.99,78.29v-8.54h-3.56v-1.34c1.92,0,3.52-0.3,4.1-1.94h1.12v11.82h3.2v1.54h-8.42v-1.54H163.99z"/>
		<path class="st50" d="M172.15,73.13c0-4.44,1.84-6.9,5.28-6.9s5.28,2.46,5.28,6.9c0,4.48-1.84,6.94-5.28,6.94
			S172.15,77.61,172.15,73.13z M177.43,78.59c0.94,0,1.68-0.32,2.22-0.9l-5.28-7.58c-0.28,0.82-0.4,1.84-0.4,3.02
			C173.97,76.63,175.07,78.59,177.43,78.59z M175.29,68.51l5.26,7.52c0.22-0.78,0.34-1.76,0.34-2.9c0-3.48-1.12-5.42-3.46-5.42
			C176.55,67.71,175.83,67.99,175.29,68.51z"/>
	</g>
	<g>
		<path class="st50" d="M212.6,78.29v-8.54h-3.56v-1.34c1.92,0,3.52-0.3,4.1-1.94h1.12v11.82h3.2v1.54h-8.42v-1.54H212.6z"/>
		<path class="st50" d="M225.38,78.29v-8.54h-3.56v-1.34c1.92,0,3.52-0.3,4.1-1.94h1.12v11.82h3.2v1.54h-8.42v-1.54H225.38z"/>
	</g>
	<g>
		<path class="st50" d="M261.22,78.29v-8.54h-3.56v-1.34c1.92,0,3.52-0.3,4.1-1.94h1.12v11.82h3.2v1.54h-8.42v-1.54H261.22z"/>
		<path class="st50" d="M269.84,79.84v-1.5c4.72-3.48,7.48-6.02,7.48-8.38c0-1.38-0.92-2.32-2.5-2.32c-1.26,0-2.48,0.62-2.8,2.24
			l-1.68-0.48c0.48-1.94,2.16-3.16,4.52-3.16c2.46,0,4.24,1.26,4.24,3.5c0,3.1-3.26,5.86-7,8.56h7.36v1.54H269.84z"/>
	</g>
	<g>
		<path class="st50" d="M309.84,78.29v-8.54h-3.56v-1.34c1.92,0,3.52-0.3,4.1-1.94h1.12v11.82h3.2v1.54h-8.42v-1.54H309.84z"/>
		<path class="st50" d="M320.22,76.33c0.3,1.4,1.26,2.34,2.96,2.34c1.76,0,3.02-0.92,3.02-2.58c0-2.56-3.06-2.54-4.12-2.54v-1.52
			c1.5,0,3.78-0.12,3.78-2.22c0-1.44-1.18-2.18-2.6-2.18c-1.64,0-2.6,0.92-2.86,2.24l-1.64-0.48c0.48-1.9,2.08-3.16,4.54-3.16
			c2.32,0,4.32,0.92,4.32,3.4c0,1.36-0.78,2.52-2.18,3.1c2,0.62,2.56,1.94,2.56,3.34c0,2.7-2.3,4-4.84,4c-2.7,0-4.14-1.44-4.6-3.26
			L320.22,76.33z"/>
	</g>
	<g>
		<path class="st50" d="M18.14,126.81v-8.54h-3.56v-1.34c1.92,0,3.52-0.3,4.1-1.94h1.12v11.82H23v1.54h-8.42v-1.54H18.14z"/>
		<path class="st50" d="M26.2,123.47l6.62-8.48h1.7v8.48h2.44v1.58h-2.44v3.3h-1.68v-3.3H26.2V123.47z M32.84,123.47v-6.18
			l-4.82,6.18H32.84z"/>
	</g>
	<g>
		<path class="st50" d="M66.76,126.81v-8.54H63.2v-1.34c1.92,0,3.52-0.3,4.1-1.94h1.12v11.82h3.2v1.54H63.2v-1.54H66.76z"/>
		<path class="st50" d="M77.16,124.85c0.32,1.46,1.22,2.34,2.96,2.34c1.6,0,2.98-1.16,2.98-3.22c0-2.22-1.56-3.18-3-3.18
			c-1.38,0-2.3,0.82-2.58,1.48l-1.64-0.48l0.82-6.8h7.66v1.62h-6.3l-0.46,3.74c0.7-0.68,1.78-1,2.88-1c2.34,0,4.38,1.66,4.38,4.6
			c0,3.06-2.26,4.64-4.74,4.64c-2.7,0-4.1-1.46-4.6-3.26L77.16,124.85z"/>
	</g>
	<g>
		<path class="st50" d="M115.37,126.81v-8.54h-3.56v-1.34c1.92,0,3.52-0.3,4.1-1.94h1.12v11.82h3.2v1.54h-8.42v-1.54H115.37z"/>
		<path class="st50" d="M124.03,122.15c0-3.78,1.34-7.4,5.22-7.4c1.98,0,3.18,0.94,3.76,2.14l-1.7,0.5c-0.4-0.78-1.2-1.24-2.26-1.24
			c-2.08,0-3.2,2.06-3.28,5.16c0.6-1.04,1.74-1.86,3.52-1.86c2.48,0,4.3,1.86,4.3,4.54c0,2.48-1.84,4.6-4.7,4.6
			C125.55,128.59,124.03,126.27,124.03,122.15z M128.89,127.17c1.76,0,2.9-1.28,2.9-3.12s-1.14-3.12-2.9-3.12
			c-1.78,0-2.92,1.28-2.92,3.12S127.11,127.17,128.89,127.17z"/>
	</g>
	<g>
		<path class="st50" d="M163.99,126.81v-8.54h-3.56v-1.34c1.92,0,3.52-0.3,4.1-1.94h1.12v11.82h3.2v1.54h-8.42v-1.54H163.99z"/>
		<path class="st50" d="M180.17,116.61h-7.36v-1.62h9.22v1.62l-5.56,11.74h-2.1L180.17,116.61z"/>
	</g>
	<g>
		<path class="st50" d="M212.6,126.81v-8.54h-3.56v-1.34c1.92,0,3.52-0.3,4.1-1.94h1.12v11.82h3.2v1.54h-8.42v-1.54H212.6z"/>
		<path class="st50" d="M223.54,121.03c-0.7-0.66-1.14-1.6-1.14-2.66c0-2,1.62-3.62,3.62-3.62c2.02,0,3.64,1.62,3.64,3.62
			c0,1.06-0.44,2-1.14,2.66c1.48,0.6,2.46,1.84,2.46,3.56c0,2.56-2.16,4-4.96,4c-2.78,0-4.94-1.44-4.94-4
			C221.08,122.87,222.06,121.63,223.54,121.03z M226.02,127.11c1.92,0,3.14-0.96,3.14-2.52c0-1.56-1.22-2.58-3.14-2.58
			c-1.9,0-3.12,1.02-3.12,2.58C222.9,126.15,224.12,127.11,226.02,127.11z M226.02,120.53c1.18,0,2.14-0.96,2.14-2.18
			c0-1.18-0.96-2.12-2.14-2.12c-1.18,0-2.14,0.94-2.14,2.12C223.88,119.57,224.84,120.53,226.02,120.53z"/>
	</g>
	<g>
		<path class="st50" d="M261.22,126.81v-8.54h-3.56v-1.34c1.92,0,3.52-0.3,4.1-1.94h1.12v11.82h3.2v1.54h-8.42v-1.54H261.22z"/>
		<path class="st50" d="M269.88,119.53c0-2.62,2.12-4.76,4.78-4.76c2.66,0,4.78,2.1,4.78,4.8c0,0.6-0.12,1.22-0.36,1.82
			c-0.26,0.66-2.02,3.96-4.06,6.96h-2.08c0,0,1.68-2.32,2.78-4.14c-0.34,0.08-0.68,0.12-1.06,0.12
			C272.04,124.33,269.88,122.19,269.88,119.53z M271.6,119.53c0,1.7,1.36,3.08,3.06,3.08c1.72,0,3.1-1.38,3.1-3.08
			c0-1.68-1.38-3.06-3.1-3.06C272.96,116.47,271.6,117.85,271.6,119.53z"/>
	</g>
	<g>
		<path class="st50" d="M305.68,128.35v-1.5c4.72-3.48,7.48-6.02,7.48-8.38c0-1.38-0.92-2.32-2.5-2.32c-1.26,0-2.48,0.62-2.8,2.24
			l-1.68-0.48c0.48-1.94,2.16-3.16,4.52-3.16c2.46,0,4.24,1.26,4.24,3.5c0,3.1-3.26,5.86-7,8.56h7.36v1.54H305.68z"/>
		<path class="st50" d="M317.99,121.65c0-4.44,1.84-6.9,5.28-6.9c3.44,0,5.28,2.46,5.28,6.9c0,4.48-1.84,6.94-5.28,6.94
			C319.83,128.59,317.99,126.13,317.99,121.65z M323.28,127.11c0.94,0,1.68-0.32,2.22-0.9l-5.28-7.58c-0.28,0.82-0.4,1.84-0.4,3.02
			C319.82,125.15,320.92,127.11,323.28,127.11z M321.14,117.03l5.26,7.52c0.22-0.78,0.34-1.76,0.34-2.9c0-3.48-1.12-5.42-3.46-5.42
			C322.4,116.23,321.68,116.51,321.14,117.03z"/>
	</g>
	<g>
		<path class="st50" d="M13.98,176.87v-1.5c4.72-3.48,7.48-6.02,7.48-8.38c0-1.38-0.92-2.32-2.5-2.32c-1.26,0-2.48,0.62-2.8,2.24
			l-1.68-0.48c0.48-1.94,2.16-3.16,4.52-3.16c2.46,0,4.24,1.26,4.24,3.5c0,3.1-3.26,5.86-7,8.56h7.36v1.54H13.98z"/>
		<path class="st50" d="M30.92,175.33v-8.54h-3.56v-1.34c1.92,0,3.52-0.3,4.1-1.94h1.12v11.82h3.2v1.54h-8.42v-1.54H30.92z"/>
	</g>
	<g>
		<path class="st50" d="M62.6,176.87v-1.5c4.72-3.48,7.48-6.02,7.48-8.38c0-1.38-0.92-2.32-2.5-2.32c-1.26,0-2.48,0.62-2.8,2.24
			l-1.68-0.48c0.48-1.94,2.16-3.16,4.52-3.16c2.46,0,4.24,1.26,4.24,3.5c0,3.1-3.26,5.86-7,8.56h7.36v1.54H62.6z"/>
		<path class="st50" d="M75.38,176.87v-1.5c4.72-3.48,7.48-6.02,7.48-8.38c0-1.38-0.92-2.32-2.5-2.32c-1.26,0-2.48,0.62-2.8,2.24
			l-1.68-0.48c0.48-1.94,2.16-3.16,4.52-3.16c2.46,0,4.24,1.26,4.24,3.5c0,3.1-3.26,5.86-7,8.56H85v1.54H75.38z"/>
	</g>
	<g>
		<path class="st50" d="M111.21,176.87v-1.5c4.72-3.48,7.48-6.02,7.48-8.38c0-1.38-0.92-2.32-2.5-2.32c-1.26,0-2.48,0.62-2.8,2.24
			l-1.68-0.48c0.48-1.94,2.16-3.16,4.52-3.16c2.46,0,4.24,1.26,4.24,3.5c0,3.1-3.26,5.86-7,8.56h7.36v1.54H111.21z"/>
		<path class="st50" d="M125.75,173.37c0.3,1.4,1.26,2.34,2.96,2.34c1.76,0,3.02-0.92,3.02-2.58c0-2.56-3.06-2.54-4.12-2.54v-1.52
			c1.5,0,3.78-0.12,3.78-2.22c0-1.44-1.18-2.18-2.6-2.18c-1.64,0-2.6,0.92-2.86,2.24l-1.64-0.48c0.48-1.9,2.08-3.16,4.54-3.16
			c2.32,0,4.32,0.92,4.32,3.4c0,1.36-0.78,2.52-2.18,3.1c2,0.62,2.56,1.94,2.56,3.34c0,2.7-2.3,4-4.84,4c-2.7,0-4.14-1.44-4.6-3.26
			L125.75,173.37z"/>
	</g>
	<g>
		<path class="st50" d="M159.83,176.87v-1.5c4.72-3.48,7.48-6.02,7.48-8.38c0-1.38-0.92-2.32-2.5-2.32c-1.26,0-2.48,0.62-2.8,2.24
			l-1.68-0.48c0.48-1.94,2.16-3.16,4.52-3.16c2.46,0,4.24,1.26,4.24,3.5c0,3.1-3.26,5.86-7,8.56h7.36v1.54H159.83z"/>
		<path class="st50" d="M172.05,171.99l6.62-8.48h1.7v8.48h2.44v1.58h-2.44v3.3h-1.68v-3.3h-6.64V171.99z M178.69,171.99v-6.18
			l-4.82,6.18H178.69z"/>
	</g>
	<g>
		<path class="st50" d="M208.44,176.87v-1.5c4.72-3.48,7.48-6.02,7.48-8.38c0-1.38-0.92-2.32-2.5-2.32c-1.26,0-2.48,0.62-2.8,2.24
			l-1.68-0.48c0.48-1.94,2.16-3.16,4.52-3.16c2.46,0,4.24,1.26,4.24,3.5c0,3.1-3.26,5.86-7,8.56h7.36v1.54H208.44z"/>
		<path class="st50" d="M223,173.37c0.32,1.46,1.22,2.34,2.96,2.34c1.6,0,2.98-1.16,2.98-3.22c0-2.22-1.56-3.18-3-3.18
			c-1.38,0-2.3,0.82-2.58,1.48l-1.64-0.48l0.82-6.8h7.66v1.62h-6.3l-0.46,3.74c0.7-0.68,1.78-1,2.88-1c2.34,0,4.38,1.66,4.38,4.6
			c0,3.06-2.26,4.64-4.74,4.64c-2.7,0-4.1-1.46-4.6-3.26L223,173.37z"/>
	</g>
	<g>
		<path class="st50" d="M257.06,176.87v-1.5c4.72-3.48,7.48-6.02,7.48-8.38c0-1.38-0.92-2.32-2.5-2.32c-1.26,0-2.48,0.62-2.8,2.24
			l-1.68-0.48c0.48-1.94,2.16-3.16,4.52-3.16c2.46,0,4.24,1.26,4.24,3.5c0,3.1-3.26,5.86-7,8.56h7.36v1.54H257.06z"/>
		<path class="st50" d="M269.88,170.67c0-3.78,1.34-7.4,5.22-7.4c1.98,0,3.18,0.94,3.76,2.14l-1.7,0.5c-0.4-0.78-1.2-1.24-2.26-1.24
			c-2.08,0-3.2,2.06-3.28,5.16c0.6-1.04,1.74-1.86,3.52-1.86c2.48,0,4.3,1.86,4.3,4.54c0,2.48-1.84,4.6-4.7,4.6
			C271.4,177.11,269.88,174.79,269.88,170.67z M274.74,175.69c1.76,0,2.9-1.28,2.9-3.12s-1.14-3.12-2.9-3.12
			c-1.78,0-2.92,1.28-2.92,3.12S272.96,175.69,274.74,175.69z"/>
	</g>
	<g>
		<path class="st50" d="M305.68,176.87v-1.5c4.72-3.48,7.48-6.02,7.48-8.38c0-1.38-0.92-2.32-2.5-2.32c-1.26,0-2.48,0.62-2.8,2.24
			l-1.68-0.48c0.48-1.94,2.16-3.16,4.52-3.16c2.46,0,4.24,1.26,4.24,3.5c0,3.1-3.26,5.86-7,8.56h7.36v1.54H305.68z"/>
		<path class="st50" d="M326.02,165.13h-7.36v-1.62h9.22v1.62l-5.56,11.74h-2.1L326.02,165.13z"/>
	</g>
	<g>
		<path class="st50" d="M13.98,225.39v-1.5c4.72-3.48,7.48-6.02,7.48-8.38c0-1.38-0.92-2.32-2.5-2.32c-1.26,0-2.48,0.62-2.8,2.24
			l-1.68-0.48c0.48-1.94,2.16-3.16,4.52-3.16c2.46,0,4.24,1.26,4.24,3.5c0,3.1-3.26,5.86-7,8.56h7.36v1.54H13.98z"/>
		<path class="st50" d="M29.08,218.07c-0.7-0.66-1.14-1.6-1.14-2.66c0-2,1.62-3.62,3.62-3.62c2.02,0,3.64,1.62,3.64,3.62
			c0,1.06-0.44,2-1.14,2.66c1.48,0.6,2.46,1.84,2.46,3.56c0,2.56-2.16,4-4.96,4c-2.78,0-4.94-1.44-4.94-4
			C26.62,219.91,27.6,218.67,29.08,218.07z M31.56,224.15c1.92,0,3.14-0.96,3.14-2.52s-1.22-2.58-3.14-2.58
			c-1.9,0-3.12,1.02-3.12,2.58S29.66,224.15,31.56,224.15z M31.56,217.57c1.18,0,2.14-0.96,2.14-2.18c0-1.18-0.96-2.12-2.14-2.12
			c-1.18,0-2.14,0.94-2.14,2.12C29.42,216.61,30.38,217.57,31.56,217.57z"/>
	</g>
	<g>
		<path class="st50" d="M62.6,225.39v-1.5c4.72-3.48,7.48-6.02,7.48-8.38c0-1.38-0.92-2.32-2.5-2.32c-1.26,0-2.48,0.62-2.8,2.24
			l-1.68-0.48c0.48-1.94,2.16-3.16,4.52-3.16c2.46,0,4.24,1.26,4.24,3.5c0,3.1-3.26,5.86-7,8.56h7.36v1.54H62.6z"/>
		<path class="st50" d="M75.41,216.57c0-2.62,2.12-4.76,4.78-4.76s4.78,2.1,4.78,4.8c0,0.6-0.12,1.22-0.36,1.82
			c-0.26,0.66-2.02,3.96-4.06,6.96h-2.08c0,0,1.68-2.32,2.78-4.14c-0.34,0.08-0.68,0.12-1.06,0.12
			C77.58,221.37,75.41,219.23,75.41,216.57z M77.14,216.57c0,1.7,1.36,3.08,3.06,3.08c1.72,0,3.1-1.38,3.1-3.08
			c0-1.68-1.38-3.06-3.1-3.06C78.5,213.51,77.14,214.89,77.14,216.57z"/>
	</g>
	<g>
		<path class="st50" d="M112.97,221.89c0.3,1.4,1.26,2.34,2.96,2.34c1.76,0,3.02-0.92,3.02-2.58c0-2.56-3.06-2.54-4.12-2.54v-1.52
			c1.5,0,3.78-0.12,3.78-2.22c0-1.44-1.18-2.18-2.6-2.18c-1.64,0-2.6,0.92-2.86,2.24l-1.64-0.48c0.48-1.9,2.08-3.16,4.54-3.16
			c2.32,0,4.32,0.92,4.32,3.4c0,1.36-0.78,2.52-2.18,3.1c2,0.62,2.56,1.94,2.56,3.34c0,2.7-2.3,4-4.84,4c-2.7,0-4.14-1.44-4.6-3.26
			L112.97,221.89z"/>
		<path class="st50" d="M123.53,218.69c0-4.44,1.84-6.9,5.28-6.9s5.28,2.46,5.28,6.9c0,4.48-1.84,6.94-5.28,6.94
			S123.53,223.17,123.53,218.69z M128.81,224.15c0.94,0,1.68-0.32,2.22-0.9l-5.28-7.58c-0.28,0.82-0.4,1.84-0.4,3.02
			C125.35,222.19,126.45,224.15,128.81,224.15z M126.67,214.07l5.26,7.52c0.22-0.78,0.34-1.76,0.34-2.9c0-3.48-1.12-5.42-3.46-5.42
			C127.93,213.27,127.21,213.55,126.67,214.07z"/>
	</g>
	<g>
		<path class="st50" d="M161.59,221.89c0.3,1.4,1.26,2.34,2.96,2.34c1.76,0,3.02-0.92,3.02-2.58c0-2.56-3.06-2.54-4.12-2.54v-1.52
			c1.5,0,3.78-0.12,3.78-2.22c0-1.44-1.18-2.18-2.6-2.18c-1.64,0-2.6,0.92-2.86,2.24l-1.64-0.48c0.48-1.9,2.08-3.16,4.54-3.16
			c2.32,0,4.32,0.92,4.32,3.4c0,1.36-0.78,2.52-2.18,3.1c2,0.62,2.56,1.94,2.56,3.34c0,2.7-2.3,4-4.84,4c-2.7,0-4.14-1.44-4.6-3.26
			L161.59,221.89z"/>
		<path class="st50" d="M176.77,223.85v-8.54h-3.56v-1.34c1.92,0,3.52-0.3,4.1-1.94h1.12v11.82h3.2v1.54h-8.42v-1.54H176.77z"/>
	</g>
	<g>
		<path class="st50" d="M210.2,221.89c0.3,1.4,1.26,2.34,2.96,2.34c1.76,0,3.02-0.92,3.02-2.58c0-2.56-3.06-2.54-4.12-2.54v-1.52
			c1.5,0,3.78-0.12,3.78-2.22c0-1.44-1.18-2.18-2.6-2.18c-1.64,0-2.6,0.92-2.86,2.24l-1.64-0.48c0.48-1.9,2.08-3.16,4.54-3.16
			c2.32,0,4.32,0.92,4.32,3.4c0,1.36-0.78,2.52-2.18,3.1c2,0.62,2.56,1.94,2.56,3.34c0,2.7-2.3,4-4.84,4c-2.7,0-4.14-1.44-4.6-3.26
			L210.2,221.89z"/>
		<path class="st50" d="M221.22,225.39v-1.5c4.72-3.48,7.48-6.02,7.48-8.38c0-1.38-0.92-2.32-2.5-2.32c-1.26,0-2.48,0.62-2.8,2.24
			l-1.68-0.48c0.48-1.94,2.16-3.16,4.52-3.16c2.46,0,4.24,1.26,4.24,3.5c0,3.1-3.26,5.86-7,8.56h7.36v1.54H221.22z"/>
	</g>
	<g>
		<path class="st50" d="M258.82,221.89c0.3,1.4,1.26,2.34,2.96,2.34c1.76,0,3.02-0.92,3.02-2.58c0-2.56-3.06-2.54-4.12-2.54v-1.52
			c1.5,0,3.78-0.12,3.78-2.22c0-1.44-1.18-2.18-2.6-2.18c-1.64,0-2.6,0.92-2.86,2.24l-1.64-0.48c0.48-1.9,2.08-3.16,4.54-3.16
			c2.32,0,4.32,0.92,4.32,3.4c0,1.36-0.78,2.52-2.18,3.1c2,0.62,2.56,1.94,2.56,3.34c0,2.7-2.3,4-4.84,4c-2.7,0-4.14-1.44-4.6-3.26
			L258.82,221.89z"/>
		<path class="st50" d="M271.6,221.89c0.3,1.4,1.26,2.34,2.96,2.34c1.76,0,3.02-0.92,3.02-2.58c0-2.56-3.06-2.54-4.12-2.54v-1.52
			c1.5,0,3.78-0.12,3.78-2.22c0-1.44-1.18-2.18-2.6-2.18c-1.64,0-2.6,0.92-2.86,2.24l-1.64-0.48c0.48-1.9,2.08-3.16,4.54-3.16
			c2.32,0,4.32,0.92,4.32,3.4c0,1.36-0.78,2.52-2.18,3.1c2,0.62,2.56,1.94,2.56,3.34c0,2.7-2.3,4-4.84,4c-2.7,0-4.14-1.44-4.6-3.26
			L271.6,221.89z"/>
	</g>
	<g>
		<path class="st50" d="M307.44,221.89c0.3,1.4,1.26,2.34,2.96,2.34c1.76,0,3.02-0.92,3.02-2.58c0-2.56-3.06-2.54-4.12-2.54v-1.52
			c1.5,0,3.78-0.12,3.78-2.22c0-1.44-1.18-2.18-2.6-2.18c-1.64,0-2.6,0.92-2.86,2.24l-1.64-0.48c0.48-1.9,2.08-3.16,4.54-3.16
			c2.32,0,4.32,0.92,4.32,3.4c0,1.36-0.78,2.52-2.18,3.1c2,0.62,2.56,1.94,2.56,3.34c0,2.7-2.3,4-4.84,4c-2.7,0-4.14-1.44-4.6-3.26
			L307.44,221.89z"/>
		<path class="st50" d="M317.89,220.51l6.62-8.48h1.7v8.48h2.44v1.58h-2.44v3.3h-1.68v-3.3h-6.64V220.51z M324.54,220.51v-6.18
			l-4.82,6.18H324.54z"/>
	</g>
	<g>
		<path class="st50" d="M15.74,270.41c0.3,1.4,1.26,2.34,2.96,2.34c1.76,0,3.02-0.92,3.02-2.58c0-2.56-3.06-2.54-4.12-2.54v-1.52
			c1.5,0,3.78-0.12,3.78-2.22c0-1.44-1.18-2.18-2.6-2.18c-1.64,0-2.6,0.92-2.86,2.24l-1.64-0.48c0.48-1.9,2.08-3.16,4.54-3.16
			c2.32,0,4.32,0.92,4.32,3.4c0,1.36-0.78,2.52-2.18,3.1c2,0.62,2.56,1.94,2.56,3.34c0,2.7-2.3,4-4.84,4c-2.7,0-4.14-1.44-4.6-3.26
			L15.74,270.41z"/>
		<path class="st50" d="M28.54,270.41c0.32,1.46,1.22,2.34,2.96,2.34c1.6,0,2.98-1.16,2.98-3.22c0-2.22-1.56-3.18-3-3.18
			c-1.38,0-2.3,0.82-2.58,1.48l-1.64-0.48l0.82-6.8h7.66v1.62h-6.3l-0.46,3.74c0.7-0.68,1.78-1,2.88-1c2.34,0,4.38,1.66,4.38,4.6
			c0,3.06-2.26,4.64-4.74,4.64c-2.7,0-4.1-1.46-4.6-3.26L28.54,270.41z"/>
	</g>
	<g>
		<path class="st50" d="M64.36,270.41c0.3,1.4,1.26,2.34,2.96,2.34c1.76,0,3.02-0.92,3.02-2.58c0-2.56-3.06-2.54-4.12-2.54v-1.52
			c1.5,0,3.78-0.12,3.78-2.22c0-1.44-1.18-2.18-2.6-2.18c-1.64,0-2.6,0.92-2.86,2.24l-1.64-0.48c0.48-1.9,2.08-3.16,4.54-3.16
			c2.32,0,4.32,0.92,4.32,3.4c0,1.36-0.78,2.52-2.18,3.1c2,0.62,2.56,1.94,2.56,3.34c0,2.7-2.3,4-4.84,4c-2.7,0-4.14-1.44-4.6-3.26
			L64.36,270.41z"/>
		<path class="st50" d="M75.41,267.71c0-3.78,1.34-7.4,5.22-7.4c1.98,0,3.18,0.94,3.76,2.14l-1.7,0.5c-0.4-0.78-1.2-1.24-2.26-1.24
			c-2.08,0-3.2,2.06-3.28,5.16c0.6-1.04,1.74-1.86,3.52-1.86c2.48,0,4.3,1.86,4.3,4.54c0,2.48-1.84,4.6-4.7,4.6
			C76.94,274.15,75.41,271.83,75.41,267.71z M80.28,272.73c1.76,0,2.9-1.28,2.9-3.12c0-1.84-1.14-3.12-2.9-3.12
			c-1.78,0-2.92,1.28-2.92,3.12C77.36,271.45,78.5,272.73,80.28,272.73z"/>
	</g>
	<g>
		<path class="st50" d="M112.97,270.41c0.3,1.4,1.26,2.34,2.96,2.34c1.76,0,3.02-0.92,3.02-2.58c0-2.56-3.06-2.54-4.12-2.54v-1.52
			c1.5,0,3.78-0.12,3.78-2.22c0-1.44-1.18-2.18-2.6-2.18c-1.64,0-2.6,0.92-2.86,2.24l-1.64-0.48c0.48-1.9,2.08-3.16,4.54-3.16
			c2.32,0,4.32,0.92,4.32,3.4c0,1.36-0.78,2.52-2.18,3.1c2,0.62,2.56,1.94,2.56,3.34c0,2.7-2.3,4-4.84,4c-2.7,0-4.14-1.44-4.6-3.26
			L112.97,270.41z"/>
		<path class="st50" d="M131.55,262.17h-7.36v-1.62h9.22v1.62l-5.56,11.74h-2.1L131.55,262.17z"/>
	</g>
	<g>
		<path class="st50" d="M161.59,270.41c0.3,1.4,1.26,2.34,2.96,2.34c1.76,0,3.02-0.92,3.02-2.58c0-2.56-3.06-2.54-4.12-2.54v-1.52
			c1.5,0,3.78-0.12,3.78-2.22c0-1.44-1.18-2.18-2.6-2.18c-1.64,0-2.6,0.92-2.86,2.24l-1.64-0.48c0.48-1.9,2.08-3.16,4.54-3.16
			c2.32,0,4.32,0.92,4.32,3.4c0,1.36-0.78,2.52-2.18,3.1c2,0.62,2.56,1.94,2.56,3.34c0,2.7-2.3,4-4.84,4c-2.7,0-4.14-1.44-4.6-3.26
			L161.59,270.41z"/>
		<path class="st50" d="M174.93,266.59c-0.7-0.66-1.14-1.6-1.14-2.66c0-2,1.62-3.62,3.62-3.62c2.02,0,3.64,1.62,3.64,3.62
			c0,1.06-0.44,2-1.14,2.66c1.48,0.6,2.46,1.84,2.46,3.56c0,2.56-2.16,4-4.96,4c-2.78,0-4.94-1.44-4.94-4
			C172.47,268.43,173.45,267.19,174.93,266.59z M177.41,272.67c1.92,0,3.14-0.96,3.14-2.52c0-1.56-1.22-2.58-3.14-2.58
			c-1.9,0-3.12,1.02-3.12,2.58C174.29,271.71,175.51,272.67,177.41,272.67z M177.41,266.09c1.18,0,2.14-0.96,2.14-2.18
			c0-1.18-0.96-2.12-2.14-2.12s-2.14,0.94-2.14,2.12C175.27,265.13,176.23,266.09,177.41,266.09z"/>
	</g>
	<g>
		<path class="st50" d="M210.2,270.41c0.3,1.4,1.26,2.34,2.96,2.34c1.76,0,3.02-0.92,3.02-2.58c0-2.56-3.06-2.54-4.12-2.54v-1.52
			c1.5,0,3.78-0.12,3.78-2.22c0-1.44-1.18-2.18-2.6-2.18c-1.64,0-2.6,0.92-2.86,2.24l-1.64-0.48c0.48-1.9,2.08-3.16,4.54-3.16
			c2.32,0,4.32,0.92,4.32,3.4c0,1.36-0.78,2.52-2.18,3.1c2,0.62,2.56,1.94,2.56,3.34c0,2.7-2.3,4-4.84,4c-2.7,0-4.14-1.44-4.6-3.26
			L210.2,270.41z"/>
		<path class="st50" d="M221.26,265.09c0-2.62,2.12-4.76,4.78-4.76c2.66,0,4.78,2.1,4.78,4.8c0,0.6-0.12,1.22-0.36,1.82
			c-0.26,0.66-2.02,3.96-4.06,6.96h-2.08c0,0,1.68-2.32,2.78-4.14c-0.34,0.08-0.68,0.12-1.06,0.12
			C223.42,269.89,221.26,267.75,221.26,265.09z M222.98,265.09c0,1.7,1.36,3.08,3.06,3.08c1.72,0,3.1-1.38,3.1-3.08
			c0-1.68-1.38-3.06-3.1-3.06C224.34,262.03,222.98,263.41,222.98,265.09z"/>
	</g>
	<g>
		<path class="st50" d="M256.5,269.03l6.62-8.48h1.7v8.48h2.44v1.58h-2.44v3.3h-1.68v-3.3h-6.64V269.03z M263.14,269.03v-6.18
			l-4.82,6.18H263.14z"/>
		<path class="st50" d="M269.38,267.21c0-4.44,1.84-6.9,5.28-6.9c3.44,0,5.28,2.46,5.28,6.9c0,4.48-1.84,6.94-5.28,6.94
			C271.22,274.15,269.38,271.69,269.38,267.21z M274.66,272.67c0.94,0,1.68-0.32,2.22-0.9l-5.28-7.58c-0.28,0.82-0.4,1.84-0.4,3.02
			C271.2,270.71,272.3,272.67,274.66,272.67z M272.52,262.59l5.26,7.52c0.22-0.78,0.34-1.76,0.34-2.9c0-3.48-1.12-5.42-3.46-5.42
			C273.78,261.79,273.06,262.07,272.52,262.59z"/>
	</g>
	<g>
		<path class="st50" d="M305.11,269.03l6.62-8.48h1.7v8.48h2.44v1.58h-2.44v3.3h-1.68v-3.3h-6.64V269.03z M311.76,269.03v-6.18
			l-4.82,6.18H311.76z"/>
		<path class="st50" d="M322.62,272.37v-8.54h-3.56v-1.34c1.92,0,3.52-0.3,4.1-1.94h1.12v11.82h3.2v1.54h-8.42v-1.54H322.62z"/>
	</g>
	<g>
		<path class="st50" d="M13.42,317.55l6.62-8.48h1.7v8.48h2.44v1.58h-2.44v3.3h-1.68v-3.3h-6.64V317.55z M20.06,317.55v-6.18
			l-4.82,6.18H20.06z"/>
		<path class="st50" d="M26.76,322.43v-1.5c4.72-3.48,7.48-6.02,7.48-8.38c0-1.38-0.92-2.32-2.5-2.32c-1.26,0-2.48,0.62-2.8,2.24
			l-1.68-0.48c0.48-1.94,2.16-3.16,4.52-3.16c2.46,0,4.24,1.26,4.24,3.5c0,3.1-3.26,5.86-7,8.56h7.36v1.54H26.76z"/>
	</g>
	<g>
		<path class="st50" d="M62.03,317.55l6.62-8.48h1.7v8.48h2.44v1.58h-2.44v3.3h-1.68v-3.3h-6.64V317.55z M68.68,317.55v-6.18
			l-4.82,6.18H68.68z"/>
		<path class="st50" d="M77.14,318.93c0.3,1.4,1.26,2.34,2.96,2.34c1.76,0,3.02-0.92,3.02-2.58c0-2.56-3.06-2.54-4.12-2.54v-1.52
			c1.5,0,3.78-0.12,3.78-2.22c0-1.44-1.18-2.18-2.6-2.18c-1.64,0-2.6,0.92-2.86,2.24l-1.64-0.48c0.48-1.9,2.08-3.16,4.54-3.16
			c2.32,0,4.32,0.92,4.32,3.4c0,1.36-0.78,2.52-2.18,3.1c2,0.62,2.56,1.94,2.56,3.34c0,2.7-2.3,4-4.84,4c-2.7,0-4.14-1.44-4.6-3.26
			L77.14,318.93z"/>
	</g>
	<g>
		<path class="st50" d="M110.65,317.55l6.62-8.48h1.7v8.48h2.44v1.58h-2.44v3.3h-1.68v-3.3h-6.64V317.55z M117.29,317.55v-6.18
			l-4.82,6.18H117.29z"/>
		<path class="st50" d="M123.43,317.55l6.62-8.48h1.7v8.48h2.44v1.58h-2.44v3.3h-1.68v-3.3h-6.64V317.55z M130.07,317.55v-6.18
			l-4.82,6.18H130.07z"/>
	</g>
	<g>
		<path class="st50" d="M159.27,317.55l6.62-8.48h1.7v8.48h2.44v1.58h-2.44v3.3h-1.68v-3.3h-6.64V317.55z M165.91,317.55v-6.18
			l-4.82,6.18H165.91z"/>
		<path class="st50" d="M174.39,318.93c0.32,1.46,1.22,2.34,2.96,2.34c1.6,0,2.98-1.16,2.98-3.22c0-2.22-1.56-3.18-3-3.18
			c-1.38,0-2.3,0.82-2.58,1.48l-1.64-0.48l0.82-6.8h7.66v1.62h-6.3l-0.46,3.74c0.7-0.68,1.78-1,2.88-1c2.34,0,4.38,1.66,4.38,4.6
			c0,3.06-2.26,4.64-4.74,4.64c-2.7,0-4.1-1.46-4.6-3.26L174.39,318.93z"/>
	</g>
	<g>
		<path class="st50" d="M207.88,317.55l6.62-8.48h1.7v8.48h2.44v1.58h-2.44v3.3h-1.68v-3.3h-6.64V317.55z M214.52,317.55v-6.18
			l-4.82,6.18H214.52z"/>
		<path class="st50" d="M221.26,316.23c0-3.78,1.34-7.4,5.22-7.4c1.98,0,3.18,0.94,3.76,2.14l-1.7,0.5c-0.4-0.78-1.2-1.24-2.26-1.24
			c-2.08,0-3.2,2.06-3.28,5.16c0.6-1.04,1.74-1.86,3.52-1.86c2.48,0,4.3,1.86,4.3,4.54c0,2.48-1.84,4.6-4.7,4.6
			C222.78,322.67,221.26,320.35,221.26,316.23z M226.12,321.25c1.76,0,2.9-1.28,2.9-3.12c0-1.84-1.14-3.12-2.9-3.12
			c-1.78,0-2.92,1.28-2.92,3.12C223.2,319.97,224.34,321.25,226.12,321.25z"/>
	</g>
	<g>
		<path class="st50" d="M256.5,317.55l6.62-8.48h1.7v8.48h2.44v1.58h-2.44v3.3h-1.68v-3.3h-6.64V317.55z M263.14,317.55v-6.18
			l-4.82,6.18H263.14z"/>
		<path class="st50" d="M277.4,310.69h-7.36v-1.62h9.22v1.62l-5.56,11.74h-2.1L277.4,310.69z"/>
	</g>
	<g>
		<path class="st50" d="M305.11,317.55l6.62-8.48h1.7v8.48h2.44v1.58h-2.44v3.3h-1.68v-3.3h-6.64V317.55z M311.76,317.55v-6.18
			l-4.82,6.18H311.76z"/>
		<path class="st50" d="M320.78,315.11c-0.7-0.66-1.14-1.6-1.14-2.66c0-2,1.62-3.62,3.62-3.62c2.02,0,3.64,1.62,3.64,3.62
			c0,1.06-0.44,2-1.14,2.66c1.48,0.6,2.46,1.84,2.46,3.56c0,2.56-2.16,4-4.96,4c-2.78,0-4.94-1.44-4.94-4
			C318.32,316.95,319.29,315.71,320.78,315.11z M323.26,321.19c1.92,0,3.14-0.96,3.14-2.52s-1.22-2.58-3.14-2.58
			c-1.9,0-3.12,1.02-3.12,2.58S321.36,321.19,323.26,321.19z M323.26,314.61c1.18,0,2.14-0.96,2.14-2.18c0-1.18-0.96-2.12-2.14-2.12
			c-1.18,0-2.14,0.94-2.14,2.12C321.11,313.65,322.08,314.61,323.26,314.61z"/>
	</g>
</g>
<g id="numbers">
	<g>
		<path class="st51" d="M19.91,24.11c0-4.44,1.84-6.9,5.28-6.9s5.28,2.46,5.28,6.9c0,4.48-1.84,6.94-5.28,6.94
			S19.91,28.6,19.91,24.11z M25.19,29.58c0.94,0,1.68-0.32,2.22-0.9l-5.28-7.58c-0.28,0.82-0.4,1.84-0.4,3.02
			C21.73,27.62,22.83,29.58,25.19,29.58z M23.05,19.49l5.26,7.52c0.22-0.78,0.34-1.76,0.34-2.9c0-3.48-1.12-5.42-3.46-5.42
			C24.31,18.69,23.59,18.97,23.05,19.49z"/>
	</g>
	<g>
		<path class="st51" d="M73.15,29.28v-8.54h-3.56v-1.34c1.92,0,3.52-0.3,4.1-1.94h1.12v11.82h3.2v1.54h-8.42v-1.54H73.15z"/>
	</g>
	<g>
		<path class="st51" d="M117.6,30.82v-1.5c4.72-3.48,7.48-6.02,7.48-8.38c0-1.38-0.92-2.32-2.5-2.32c-1.26,0-2.48,0.62-2.8,2.24
			l-1.68-0.48c0.48-1.94,2.16-3.16,4.52-3.16c2.46,0,4.24,1.26,4.24,3.5c0,3.1-3.26,5.86-7,8.56h7.36v1.54H117.6z"/>
	</g>
	<g>
		<path class="st51" d="M167.98,27.32c0.3,1.4,1.26,2.34,2.96,2.34c1.76,0,3.02-0.92,3.02-2.58c0-2.56-3.06-2.54-4.12-2.54v-1.52
			c1.5,0,3.78-0.12,3.78-2.22c0-1.44-1.18-2.18-2.6-2.18c-1.64,0-2.6,0.92-2.86,2.24l-1.64-0.48c0.48-1.9,2.08-3.16,4.54-3.16
			c2.32,0,4.32,0.92,4.32,3.4c0,1.36-0.78,2.52-2.18,3.1c2,0.62,2.56,1.94,2.56,3.34c0,2.7-2.3,4-4.84,4c-2.7,0-4.14-1.44-4.6-3.26
			L167.98,27.32z"/>
	</g>
	<g>
		<path class="st51" d="M214.27,25.94l6.62-8.48h1.7v8.48h2.44v1.58h-2.44v3.3h-1.68v-3.3h-6.64V25.94z M220.91,25.94v-6.18
			l-4.82,6.18H220.91z"/>
	</g>
	<g>
		<path class="st51" d="M265.23,27.32c0.32,1.46,1.22,2.34,2.96,2.34c1.6,0,2.98-1.16,2.98-3.22c0-2.22-1.56-3.18-3-3.18
			c-1.38,0-2.3,0.82-2.58,1.48l-1.64-0.48l0.82-6.8h7.66v1.62h-6.3l-0.46,3.74c0.7-0.68,1.78-1,2.88-1c2.34,0,4.38,1.66,4.38,4.6
			c0,3.06-2.26,4.64-4.74,4.64c-2.7,0-4.1-1.46-4.6-3.26L265.23,27.32z"/>
	</g>
	<g>
		<path class="st51" d="M312.1,24.61c0-3.78,1.34-7.4,5.22-7.4c1.98,0,3.18,0.94,3.76,2.14l-1.7,0.5c-0.4-0.78-1.2-1.24-2.26-1.24
			c-2.08,0-3.2,2.06-3.28,5.16c0.6-1.04,1.74-1.86,3.52-1.86c2.48,0,4.3,1.86,4.3,4.54c0,2.48-1.84,4.6-4.7,4.6
			C313.62,31.06,312.1,28.74,312.1,24.61z M316.97,29.64c1.76,0,2.9-1.28,2.9-3.12s-1.14-3.12-2.9-3.12c-1.78,0-2.92,1.28-2.92,3.12
			S315.19,29.64,316.97,29.64z"/>
	</g>
	<g>
		<path class="st51" d="M27.93,67.59h-7.36v-1.62h9.22v1.62l-5.56,11.74h-2.1L27.93,67.59z"/>
	</g>
	<g>
		<path class="st51" d="M71.31,72.01c-0.7-0.66-1.14-1.6-1.14-2.66c0-2,1.62-3.62,3.62-3.62c2.02,0,3.64,1.62,3.64,3.62
			c0,1.06-0.44,2-1.14,2.66c1.48,0.6,2.46,1.84,2.46,3.56c0,2.56-2.16,4-4.96,4c-2.78,0-4.94-1.44-4.94-4
			C68.84,73.85,69.82,72.61,71.31,72.01z M73.79,78.09c1.92,0,3.14-0.96,3.14-2.52c0-1.56-1.22-2.58-3.14-2.58
			c-1.9,0-3.12,1.02-3.12,2.58C70.67,77.13,71.89,78.09,73.79,78.09z M73.79,71.51c1.18,0,2.14-0.96,2.14-2.18
			c0-1.18-0.96-2.12-2.14-2.12s-2.14,0.94-2.14,2.12C71.65,70.55,72.61,71.51,73.79,71.51z"/>
	</g>
	<g>
		<path class="st51" d="M117.64,70.51c0-2.62,2.12-4.76,4.78-4.76s4.78,2.1,4.78,4.8c0,0.6-0.12,1.22-0.36,1.82
			c-0.26,0.66-2.02,3.96-4.06,6.96h-2.08c0,0,1.68-2.32,2.78-4.14c-0.34,0.08-0.68,0.12-1.06,0.12
			C119.8,75.31,117.64,73.17,117.64,70.51z M119.36,70.51c0,1.7,1.36,3.08,3.06,3.08c1.72,0,3.1-1.38,3.1-3.08
			c0-1.68-1.38-3.06-3.1-3.06C120.72,67.45,119.36,68.83,119.36,70.51z"/>
	</g>
	<g>
		<path class="st51" d="M163.99,77.79v-8.54h-3.56v-1.34c1.92,0,3.52-0.3,4.1-1.94h1.12v11.82h3.2v1.54h-8.42v-1.54H163.99z"/>
		<path class="st51" d="M172.15,72.63c0-4.44,1.84-6.9,5.28-6.9s5.28,2.46,5.28,6.9c0,4.48-1.84,6.94-5.28,6.94
			S172.15,77.11,172.15,72.63z M177.43,78.09c0.94,0,1.68-0.32,2.22-0.9l-5.28-7.58c-0.28,0.82-0.4,1.84-0.4,3.02
			C173.97,76.13,175.07,78.09,177.43,78.09z M175.29,68.01l5.26,7.52c0.22-0.78,0.34-1.76,0.34-2.9c0-3.48-1.12-5.42-3.46-5.42
			C176.55,67.21,175.83,67.49,175.29,68.01z"/>
	</g>
	<g>
		<path class="st51" d="M212.6,77.79v-8.54h-3.56v-1.34c1.92,0,3.52-0.3,4.1-1.94h1.12v11.82h3.2v1.54h-8.42v-1.54H212.6z"/>
		<path class="st51" d="M225.38,77.79v-8.54h-3.56v-1.34c1.92,0,3.52-0.3,4.1-1.94h1.12v11.82h3.2v1.54h-8.42v-1.54H225.38z"/>
	</g>
	<g>
		<path class="st51" d="M261.22,77.79v-8.54h-3.56v-1.34c1.92,0,3.52-0.3,4.1-1.94h1.12v11.82h3.2v1.54h-8.42v-1.54H261.22z"/>
		<path class="st51" d="M269.84,79.34v-1.5c4.72-3.48,7.48-6.02,7.48-8.38c0-1.38-0.92-2.32-2.5-2.32c-1.26,0-2.48,0.62-2.8,2.24
			l-1.68-0.48c0.48-1.94,2.16-3.16,4.52-3.16c2.46,0,4.24,1.26,4.24,3.5c0,3.1-3.26,5.86-7,8.56h7.36v1.54H269.84z"/>
	</g>
	<g>
		<path class="st51" d="M309.84,77.79v-8.54h-3.56v-1.34c1.92,0,3.52-0.3,4.1-1.94h1.12v11.82h3.2v1.54h-8.42v-1.54H309.84z"/>
		<path class="st51" d="M320.22,75.83c0.3,1.4,1.26,2.34,2.96,2.34c1.76,0,3.02-0.92,3.02-2.58c0-2.56-3.06-2.54-4.12-2.54v-1.52
			c1.5,0,3.78-0.12,3.78-2.22c0-1.44-1.18-2.18-2.6-2.18c-1.64,0-2.6,0.92-2.86,2.24l-1.64-0.48c0.48-1.9,2.08-3.16,4.54-3.16
			c2.32,0,4.32,0.92,4.32,3.4c0,1.36-0.78,2.52-2.18,3.1c2,0.62,2.56,1.94,2.56,3.34c0,2.7-2.3,4-4.84,4c-2.7,0-4.14-1.44-4.6-3.26
			L320.22,75.83z"/>
	</g>
	<g>
		<path class="st51" d="M18.14,126.31v-8.54h-3.56v-1.34c1.92,0,3.52-0.3,4.1-1.94h1.12v11.82H23v1.54h-8.42v-1.54H18.14z"/>
		<path class="st51" d="M26.2,122.97l6.62-8.48h1.7v8.48h2.44v1.58h-2.44v3.3h-1.68v-3.3H26.2V122.97z M32.84,122.97v-6.18
			l-4.82,6.18H32.84z"/>
	</g>
	<g>
		<path class="st51" d="M66.76,126.31v-8.54H63.2v-1.34c1.92,0,3.52-0.3,4.1-1.94h1.12v11.82h3.2v1.54H63.2v-1.54H66.76z"/>
		<path class="st51" d="M77.16,124.35c0.32,1.46,1.22,2.34,2.96,2.34c1.6,0,2.98-1.16,2.98-3.22c0-2.22-1.56-3.18-3-3.18
			c-1.38,0-2.3,0.82-2.58,1.48l-1.64-0.48l0.82-6.8h7.66v1.62h-6.3l-0.46,3.74c0.7-0.68,1.78-1,2.88-1c2.34,0,4.38,1.66,4.38,4.6
			c0,3.06-2.26,4.64-4.74,4.64c-2.7,0-4.1-1.46-4.6-3.26L77.16,124.35z"/>
	</g>
	<g>
		<path class="st51" d="M115.37,126.31v-8.54h-3.56v-1.34c1.92,0,3.52-0.3,4.1-1.94h1.12v11.82h3.2v1.54h-8.42v-1.54H115.37z"/>
		<path class="st51" d="M124.03,121.65c0-3.78,1.34-7.4,5.22-7.4c1.98,0,3.18,0.94,3.76,2.14l-1.7,0.5c-0.4-0.78-1.2-1.24-2.26-1.24
			c-2.08,0-3.2,2.06-3.28,5.16c0.6-1.04,1.74-1.86,3.52-1.86c2.48,0,4.3,1.86,4.3,4.54c0,2.48-1.84,4.6-4.7,4.6
			C125.55,128.09,124.03,125.77,124.03,121.65z M128.89,126.67c1.76,0,2.9-1.28,2.9-3.12s-1.14-3.12-2.9-3.12
			c-1.78,0-2.92,1.28-2.92,3.12S127.11,126.67,128.89,126.67z"/>
	</g>
	<g>
		<path class="st51" d="M163.99,126.31v-8.54h-3.56v-1.34c1.92,0,3.52-0.3,4.1-1.94h1.12v11.82h3.2v1.54h-8.42v-1.54H163.99z"/>
		<path class="st51" d="M180.17,116.11h-7.36v-1.62h9.22v1.62l-5.56,11.74h-2.1L180.17,116.11z"/>
	</g>
	<g>
		<path class="st51" d="M212.6,126.31v-8.54h-3.56v-1.34c1.92,0,3.52-0.3,4.1-1.94h1.12v11.82h3.2v1.54h-8.42v-1.54H212.6z"/>
		<path class="st51" d="M223.54,120.53c-0.7-0.66-1.14-1.6-1.14-2.66c0-2,1.62-3.62,3.62-3.62c2.02,0,3.64,1.62,3.64,3.62
			c0,1.06-0.44,2-1.14,2.66c1.48,0.6,2.46,1.84,2.46,3.56c0,2.56-2.16,4-4.96,4c-2.78,0-4.94-1.44-4.94-4
			C221.08,122.37,222.06,121.13,223.54,120.53z M226.02,126.61c1.92,0,3.14-0.96,3.14-2.52c0-1.56-1.22-2.58-3.14-2.58
			c-1.9,0-3.12,1.02-3.12,2.58C222.9,125.65,224.12,126.61,226.02,126.61z M226.02,120.03c1.18,0,2.14-0.96,2.14-2.18
			c0-1.18-0.96-2.12-2.14-2.12c-1.18,0-2.14,0.94-2.14,2.12C223.88,119.07,224.84,120.03,226.02,120.03z"/>
	</g>
	<g>
		<path class="st51" d="M261.22,126.31v-8.54h-3.56v-1.34c1.92,0,3.52-0.3,4.1-1.94h1.12v11.82h3.2v1.54h-8.42v-1.54H261.22z"/>
		<path class="st51" d="M269.88,119.03c0-2.62,2.12-4.76,4.78-4.76c2.66,0,4.78,2.1,4.78,4.8c0,0.6-0.12,1.22-0.36,1.82
			c-0.26,0.66-2.02,3.96-4.06,6.96h-2.08c0,0,1.68-2.32,2.78-4.14c-0.34,0.08-0.68,0.12-1.06,0.12
			C272.04,123.83,269.88,121.69,269.88,119.03z M271.6,119.03c0,1.7,1.36,3.08,3.06,3.08c1.72,0,3.1-1.38,3.1-3.08
			c0-1.68-1.38-3.06-3.1-3.06C272.96,115.97,271.6,117.35,271.6,119.03z"/>
	</g>
	<g>
		<path class="st51" d="M305.68,127.85v-1.5c4.72-3.48,7.48-6.02,7.48-8.38c0-1.38-0.92-2.32-2.5-2.32c-1.26,0-2.48,0.62-2.8,2.24
			l-1.68-0.48c0.48-1.94,2.16-3.16,4.52-3.16c2.46,0,4.24,1.26,4.24,3.5c0,3.1-3.26,5.86-7,8.56h7.36v1.54H305.68z"/>
		<path class="st51" d="M317.99,121.15c0-4.44,1.84-6.9,5.28-6.9c3.44,0,5.28,2.46,5.28,6.9c0,4.48-1.84,6.94-5.28,6.94
			C319.83,128.09,317.99,125.63,317.99,121.15z M323.28,126.61c0.94,0,1.68-0.32,2.22-0.9l-5.28-7.58c-0.28,0.82-0.4,1.84-0.4,3.02
			C319.82,124.65,320.92,126.61,323.28,126.61z M321.14,116.53l5.26,7.52c0.22-0.78,0.34-1.76,0.34-2.9c0-3.48-1.12-5.42-3.46-5.42
			C322.4,115.73,321.68,116.01,321.14,116.53z"/>
	</g>
	<g>
		<path class="st51" d="M13.98,176.37v-1.5c4.72-3.48,7.48-6.02,7.48-8.38c0-1.38-0.92-2.32-2.5-2.32c-1.26,0-2.48,0.62-2.8,2.24
			l-1.68-0.48c0.48-1.94,2.16-3.16,4.52-3.16c2.46,0,4.24,1.26,4.24,3.5c0,3.1-3.26,5.86-7,8.56h7.36v1.54H13.98z"/>
		<path class="st51" d="M30.92,174.83v-8.54h-3.56v-1.34c1.92,0,3.52-0.3,4.1-1.94h1.12v11.82h3.2v1.54h-8.42v-1.54H30.92z"/>
	</g>
	<g>
		<path class="st51" d="M62.6,176.37v-1.5c4.72-3.48,7.48-6.02,7.48-8.38c0-1.38-0.92-2.32-2.5-2.32c-1.26,0-2.48,0.62-2.8,2.24
			l-1.68-0.48c0.48-1.94,2.16-3.16,4.52-3.16c2.46,0,4.24,1.26,4.24,3.5c0,3.1-3.26,5.86-7,8.56h7.36v1.54H62.6z"/>
		<path class="st51" d="M75.38,176.37v-1.5c4.72-3.48,7.48-6.02,7.48-8.38c0-1.38-0.92-2.32-2.5-2.32c-1.26,0-2.48,0.62-2.8,2.24
			l-1.68-0.48c0.48-1.94,2.16-3.16,4.52-3.16c2.46,0,4.24,1.26,4.24,3.5c0,3.1-3.26,5.86-7,8.56H85v1.54H75.38z"/>
	</g>
	<g>
		<path class="st51" d="M111.21,176.37v-1.5c4.72-3.48,7.48-6.02,7.48-8.38c0-1.38-0.92-2.32-2.5-2.32c-1.26,0-2.48,0.62-2.8,2.24
			l-1.68-0.48c0.48-1.94,2.16-3.16,4.52-3.16c2.46,0,4.24,1.26,4.24,3.5c0,3.1-3.26,5.86-7,8.56h7.36v1.54H111.21z"/>
		<path class="st51" d="M125.75,172.87c0.3,1.4,1.26,2.34,2.96,2.34c1.76,0,3.02-0.92,3.02-2.58c0-2.56-3.06-2.54-4.12-2.54v-1.52
			c1.5,0,3.78-0.12,3.78-2.22c0-1.44-1.18-2.18-2.6-2.18c-1.64,0-2.6,0.92-2.86,2.24l-1.64-0.48c0.48-1.9,2.08-3.16,4.54-3.16
			c2.32,0,4.32,0.92,4.32,3.4c0,1.36-0.78,2.52-2.18,3.1c2,0.62,2.56,1.94,2.56,3.34c0,2.7-2.3,4-4.84,4c-2.7,0-4.14-1.44-4.6-3.26
			L125.75,172.87z"/>
	</g>
	<g>
		<path class="st51" d="M159.83,176.37v-1.5c4.72-3.48,7.48-6.02,7.48-8.38c0-1.38-0.92-2.32-2.5-2.32c-1.26,0-2.48,0.62-2.8,2.24
			l-1.68-0.48c0.48-1.94,2.16-3.16,4.52-3.16c2.46,0,4.24,1.26,4.24,3.5c0,3.1-3.26,5.86-7,8.56h7.36v1.54H159.83z"/>
		<path class="st51" d="M172.05,171.49l6.62-8.48h1.7v8.48h2.44v1.58h-2.44v3.3h-1.68v-3.3h-6.64V171.49z M178.69,171.49v-6.18
			l-4.82,6.18H178.69z"/>
	</g>
	<g>
		<path class="st51" d="M208.44,176.37v-1.5c4.72-3.48,7.48-6.02,7.48-8.38c0-1.38-0.92-2.32-2.5-2.32c-1.26,0-2.48,0.62-2.8,2.24
			l-1.68-0.48c0.48-1.94,2.16-3.16,4.52-3.16c2.46,0,4.24,1.26,4.24,3.5c0,3.1-3.26,5.86-7,8.56h7.36v1.54H208.44z"/>
		<path class="st51" d="M223,172.87c0.32,1.46,1.22,2.34,2.96,2.34c1.6,0,2.98-1.16,2.98-3.22c0-2.22-1.56-3.18-3-3.18
			c-1.38,0-2.3,0.82-2.58,1.48l-1.64-0.48l0.82-6.8h7.66v1.62h-6.3l-0.46,3.74c0.7-0.68,1.78-1,2.88-1c2.34,0,4.38,1.66,4.38,4.6
			c0,3.06-2.26,4.64-4.74,4.64c-2.7,0-4.1-1.46-4.6-3.26L223,172.87z"/>
	</g>
	<g>
		<path class="st51" d="M257.06,176.37v-1.5c4.72-3.48,7.48-6.02,7.48-8.38c0-1.38-0.92-2.32-2.5-2.32c-1.26,0-2.48,0.62-2.8,2.24
			l-1.68-0.48c0.48-1.94,2.16-3.16,4.52-3.16c2.46,0,4.24,1.26,4.24,3.5c0,3.1-3.26,5.86-7,8.56h7.36v1.54H257.06z"/>
		<path class="st51" d="M269.88,170.17c0-3.78,1.34-7.4,5.22-7.4c1.98,0,3.18,0.94,3.76,2.14l-1.7,0.5c-0.4-0.78-1.2-1.24-2.26-1.24
			c-2.08,0-3.2,2.06-3.28,5.16c0.6-1.04,1.74-1.86,3.52-1.86c2.48,0,4.3,1.86,4.3,4.54c0,2.48-1.84,4.6-4.7,4.6
			C271.4,176.61,269.88,174.29,269.88,170.17z M274.74,175.19c1.76,0,2.9-1.28,2.9-3.12s-1.14-3.12-2.9-3.12
			c-1.78,0-2.92,1.28-2.92,3.12S272.96,175.19,274.74,175.19z"/>
	</g>
	<g>
		<path class="st51" d="M305.68,176.37v-1.5c4.72-3.48,7.48-6.02,7.48-8.38c0-1.38-0.92-2.32-2.5-2.32c-1.26,0-2.48,0.62-2.8,2.24
			l-1.68-0.48c0.48-1.94,2.16-3.16,4.52-3.16c2.46,0,4.24,1.26,4.24,3.5c0,3.1-3.26,5.86-7,8.56h7.36v1.54H305.68z"/>
		<path class="st51" d="M326.02,164.63h-7.36v-1.62h9.22v1.62l-5.56,11.74h-2.1L326.02,164.63z"/>
	</g>
	<g>
		<path class="st51" d="M13.98,224.89v-1.5c4.72-3.48,7.48-6.02,7.48-8.38c0-1.38-0.92-2.32-2.5-2.32c-1.26,0-2.48,0.62-2.8,2.24
			l-1.68-0.48c0.48-1.94,2.16-3.16,4.52-3.16c2.46,0,4.24,1.26,4.24,3.5c0,3.1-3.26,5.86-7,8.56h7.36v1.54H13.98z"/>
		<path class="st51" d="M29.08,217.57c-0.7-0.66-1.14-1.6-1.14-2.66c0-2,1.62-3.62,3.62-3.62c2.02,0,3.64,1.62,3.64,3.62
			c0,1.06-0.44,2-1.14,2.66c1.48,0.6,2.46,1.84,2.46,3.56c0,2.56-2.16,4-4.96,4c-2.78,0-4.94-1.44-4.94-4
			C26.62,219.41,27.6,218.17,29.08,217.57z M31.56,223.65c1.92,0,3.14-0.96,3.14-2.52s-1.22-2.58-3.14-2.58
			c-1.9,0-3.12,1.02-3.12,2.58S29.66,223.65,31.56,223.65z M31.56,217.07c1.18,0,2.14-0.96,2.14-2.18c0-1.18-0.96-2.12-2.14-2.12
			c-1.18,0-2.14,0.94-2.14,2.12C29.42,216.11,30.38,217.07,31.56,217.07z"/>
	</g>
	<g>
		<path class="st51" d="M62.6,224.89v-1.5c4.72-3.48,7.48-6.02,7.48-8.38c0-1.38-0.92-2.32-2.5-2.32c-1.26,0-2.48,0.62-2.8,2.24
			l-1.68-0.48c0.48-1.94,2.16-3.16,4.52-3.16c2.46,0,4.24,1.26,4.24,3.5c0,3.1-3.26,5.86-7,8.56h7.36v1.54H62.6z"/>
		<path class="st51" d="M75.41,216.07c0-2.62,2.12-4.76,4.78-4.76s4.78,2.1,4.78,4.8c0,0.6-0.12,1.22-0.36,1.82
			c-0.26,0.66-2.02,3.96-4.06,6.96h-2.08c0,0,1.68-2.32,2.78-4.14c-0.34,0.08-0.68,0.12-1.06,0.12
			C77.58,220.87,75.41,218.73,75.41,216.07z M77.14,216.07c0,1.7,1.36,3.08,3.06,3.08c1.72,0,3.1-1.38,3.1-3.08
			c0-1.68-1.38-3.06-3.1-3.06C78.5,213.01,77.14,214.39,77.14,216.07z"/>
	</g>
	<g>
		<path class="st51" d="M112.97,221.39c0.3,1.4,1.26,2.34,2.96,2.34c1.76,0,3.02-0.92,3.02-2.58c0-2.56-3.06-2.54-4.12-2.54v-1.52
			c1.5,0,3.78-0.12,3.78-2.22c0-1.44-1.18-2.18-2.6-2.18c-1.64,0-2.6,0.92-2.86,2.24l-1.64-0.48c0.48-1.9,2.08-3.16,4.54-3.16
			c2.32,0,4.32,0.92,4.32,3.4c0,1.36-0.78,2.52-2.18,3.1c2,0.62,2.56,1.94,2.56,3.34c0,2.7-2.3,4-4.84,4c-2.7,0-4.14-1.44-4.6-3.26
			L112.97,221.39z"/>
		<path class="st51" d="M123.53,218.19c0-4.44,1.84-6.9,5.28-6.9s5.28,2.46,5.28,6.9c0,4.48-1.84,6.94-5.28,6.94
			S123.53,222.67,123.53,218.19z M128.81,223.65c0.94,0,1.68-0.32,2.22-0.9l-5.28-7.58c-0.28,0.82-0.4,1.84-0.4,3.02
			C125.35,221.69,126.45,223.65,128.81,223.65z M126.67,213.57l5.26,7.52c0.22-0.78,0.34-1.76,0.34-2.9c0-3.48-1.12-5.42-3.46-5.42
			C127.93,212.77,127.21,213.05,126.67,213.57z"/>
	</g>
	<g>
		<path class="st51" d="M161.59,221.39c0.3,1.4,1.26,2.34,2.96,2.34c1.76,0,3.02-0.92,3.02-2.58c0-2.56-3.06-2.54-4.12-2.54v-1.52
			c1.5,0,3.78-0.12,3.78-2.22c0-1.44-1.18-2.18-2.6-2.18c-1.64,0-2.6,0.92-2.86,2.24l-1.64-0.48c0.48-1.9,2.08-3.16,4.54-3.16
			c2.32,0,4.32,0.92,4.32,3.4c0,1.36-0.78,2.52-2.18,3.1c2,0.62,2.56,1.94,2.56,3.34c0,2.7-2.3,4-4.84,4c-2.7,0-4.14-1.44-4.6-3.26
			L161.59,221.39z"/>
		<path class="st51" d="M176.77,223.35v-8.54h-3.56v-1.34c1.92,0,3.52-0.3,4.1-1.94h1.12v11.82h3.2v1.54h-8.42v-1.54H176.77z"/>
	</g>
	<g>
		<path class="st51" d="M210.2,221.39c0.3,1.4,1.26,2.34,2.96,2.34c1.76,0,3.02-0.92,3.02-2.58c0-2.56-3.06-2.54-4.12-2.54v-1.52
			c1.5,0,3.78-0.12,3.78-2.22c0-1.44-1.18-2.18-2.6-2.18c-1.64,0-2.6,0.92-2.86,2.24l-1.64-0.48c0.48-1.9,2.08-3.16,4.54-3.16
			c2.32,0,4.32,0.92,4.32,3.4c0,1.36-0.78,2.52-2.18,3.1c2,0.62,2.56,1.94,2.56,3.34c0,2.7-2.3,4-4.84,4c-2.7,0-4.14-1.44-4.6-3.26
			L210.2,221.39z"/>
		<path class="st51" d="M221.22,224.89v-1.5c4.72-3.48,7.48-6.02,7.48-8.38c0-1.38-0.92-2.32-2.5-2.32c-1.26,0-2.48,0.62-2.8,2.24
			l-1.68-0.48c0.48-1.94,2.16-3.16,4.52-3.16c2.46,0,4.24,1.26,4.24,3.5c0,3.1-3.26,5.86-7,8.56h7.36v1.54H221.22z"/>
	</g>
	<g>
		<path class="st51" d="M258.82,221.39c0.3,1.4,1.26,2.34,2.96,2.34c1.76,0,3.02-0.92,3.02-2.58c0-2.56-3.06-2.54-4.12-2.54v-1.52
			c1.5,0,3.78-0.12,3.78-2.22c0-1.44-1.18-2.18-2.6-2.18c-1.64,0-2.6,0.92-2.86,2.24l-1.64-0.48c0.48-1.9,2.08-3.16,4.54-3.16
			c2.32,0,4.32,0.92,4.32,3.4c0,1.36-0.78,2.52-2.18,3.1c2,0.62,2.56,1.94,2.56,3.34c0,2.7-2.3,4-4.84,4c-2.7,0-4.14-1.44-4.6-3.26
			L258.82,221.39z"/>
		<path class="st51" d="M271.6,221.39c0.3,1.4,1.26,2.34,2.96,2.34c1.76,0,3.02-0.92,3.02-2.58c0-2.56-3.06-2.54-4.12-2.54v-1.52
			c1.5,0,3.78-0.12,3.78-2.22c0-1.44-1.18-2.18-2.6-2.18c-1.64,0-2.6,0.92-2.86,2.24l-1.64-0.48c0.48-1.9,2.08-3.16,4.54-3.16
			c2.32,0,4.32,0.92,4.32,3.4c0,1.36-0.78,2.52-2.18,3.1c2,0.62,2.56,1.94,2.56,3.34c0,2.7-2.3,4-4.84,4c-2.7,0-4.14-1.44-4.6-3.26
			L271.6,221.39z"/>
	</g>
	<g>
		<path class="st51" d="M307.44,221.39c0.3,1.4,1.26,2.34,2.96,2.34c1.76,0,3.02-0.92,3.02-2.58c0-2.56-3.06-2.54-4.12-2.54v-1.52
			c1.5,0,3.78-0.12,3.78-2.22c0-1.44-1.18-2.18-2.6-2.18c-1.64,0-2.6,0.92-2.86,2.24l-1.64-0.48c0.48-1.9,2.08-3.16,4.54-3.16
			c2.32,0,4.32,0.92,4.32,3.4c0,1.36-0.78,2.52-2.18,3.1c2,0.62,2.56,1.94,2.56,3.34c0,2.7-2.3,4-4.84,4c-2.7,0-4.14-1.44-4.6-3.26
			L307.44,221.39z"/>
		<path class="st51" d="M317.89,220.01l6.62-8.48h1.7v8.48h2.44v1.58h-2.44v3.3h-1.68v-3.3h-6.64V220.01z M324.54,220.01v-6.18
			l-4.82,6.18H324.54z"/>
	</g>
	<g>
		<path class="st51" d="M15.74,269.91c0.3,1.4,1.26,2.34,2.96,2.34c1.76,0,3.02-0.92,3.02-2.58c0-2.56-3.06-2.54-4.12-2.54v-1.52
			c1.5,0,3.78-0.12,3.78-2.22c0-1.44-1.18-2.18-2.6-2.18c-1.64,0-2.6,0.92-2.86,2.24l-1.64-0.48c0.48-1.9,2.08-3.16,4.54-3.16
			c2.32,0,4.32,0.92,4.32,3.4c0,1.36-0.78,2.52-2.18,3.1c2,0.62,2.56,1.94,2.56,3.34c0,2.7-2.3,4-4.84,4c-2.7,0-4.14-1.44-4.6-3.26
			L15.74,269.91z"/>
		<path class="st51" d="M28.54,269.91c0.32,1.46,1.22,2.34,2.96,2.34c1.6,0,2.98-1.16,2.98-3.22c0-2.22-1.56-3.18-3-3.18
			c-1.38,0-2.3,0.82-2.58,1.48l-1.64-0.48l0.82-6.8h7.66v1.62h-6.3l-0.46,3.74c0.7-0.68,1.78-1,2.88-1c2.34,0,4.38,1.66,4.38,4.6
			c0,3.06-2.26,4.64-4.74,4.64c-2.7,0-4.1-1.46-4.6-3.26L28.54,269.91z"/>
	</g>
	<g>
		<path class="st51" d="M64.36,269.91c0.3,1.4,1.26,2.34,2.96,2.34c1.76,0,3.02-0.92,3.02-2.58c0-2.56-3.06-2.54-4.12-2.54v-1.52
			c1.5,0,3.78-0.12,3.78-2.22c0-1.44-1.18-2.18-2.6-2.18c-1.64,0-2.6,0.92-2.86,2.24l-1.64-0.48c0.48-1.9,2.08-3.16,4.54-3.16
			c2.32,0,4.32,0.92,4.32,3.4c0,1.36-0.78,2.52-2.18,3.1c2,0.62,2.56,1.94,2.56,3.34c0,2.7-2.3,4-4.84,4c-2.7,0-4.14-1.44-4.6-3.26
			L64.36,269.91z"/>
		<path class="st51" d="M75.41,267.21c0-3.78,1.34-7.4,5.22-7.4c1.98,0,3.18,0.94,3.76,2.14l-1.7,0.5c-0.4-0.78-1.2-1.24-2.26-1.24
			c-2.08,0-3.2,2.06-3.28,5.16c0.6-1.04,1.74-1.86,3.52-1.86c2.48,0,4.3,1.86,4.3,4.54c0,2.48-1.84,4.6-4.7,4.6
			C76.94,273.65,75.41,271.33,75.41,267.21z M80.28,272.23c1.76,0,2.9-1.28,2.9-3.12c0-1.84-1.14-3.12-2.9-3.12
			c-1.78,0-2.92,1.28-2.92,3.12C77.36,270.95,78.5,272.23,80.28,272.23z"/>
	</g>
	<g>
		<path class="st51" d="M112.97,269.91c0.3,1.4,1.26,2.34,2.96,2.34c1.76,0,3.02-0.92,3.02-2.58c0-2.56-3.06-2.54-4.12-2.54v-1.52
			c1.5,0,3.78-0.12,3.78-2.22c0-1.44-1.18-2.18-2.6-2.18c-1.64,0-2.6,0.92-2.86,2.24l-1.64-0.48c0.48-1.9,2.08-3.16,4.54-3.16
			c2.32,0,4.32,0.92,4.32,3.4c0,1.36-0.78,2.52-2.18,3.1c2,0.62,2.56,1.94,2.56,3.34c0,2.7-2.3,4-4.84,4c-2.7,0-4.14-1.44-4.6-3.26
			L112.97,269.91z"/>
		<path class="st51" d="M131.55,261.67h-7.36v-1.62h9.22v1.62l-5.56,11.74h-2.1L131.55,261.67z"/>
	</g>
	<g>
		<path class="st51" d="M161.59,269.91c0.3,1.4,1.26,2.34,2.96,2.34c1.76,0,3.02-0.92,3.02-2.58c0-2.56-3.06-2.54-4.12-2.54v-1.52
			c1.5,0,3.78-0.12,3.78-2.22c0-1.44-1.18-2.18-2.6-2.18c-1.64,0-2.6,0.92-2.86,2.24l-1.64-0.48c0.48-1.9,2.08-3.16,4.54-3.16
			c2.32,0,4.32,0.92,4.32,3.4c0,1.36-0.78,2.52-2.18,3.1c2,0.62,2.56,1.94,2.56,3.34c0,2.7-2.3,4-4.84,4c-2.7,0-4.14-1.44-4.6-3.26
			L161.59,269.91z"/>
		<path class="st51" d="M174.93,266.09c-0.7-0.66-1.14-1.6-1.14-2.66c0-2,1.62-3.62,3.62-3.62c2.02,0,3.64,1.62,3.64,3.62
			c0,1.06-0.44,2-1.14,2.66c1.48,0.6,2.46,1.84,2.46,3.56c0,2.56-2.16,4-4.96,4c-2.78,0-4.94-1.44-4.94-4
			C172.47,267.93,173.45,266.69,174.93,266.09z M177.41,272.17c1.92,0,3.14-0.96,3.14-2.52c0-1.56-1.22-2.58-3.14-2.58
			c-1.9,0-3.12,1.02-3.12,2.58C174.29,271.21,175.51,272.17,177.41,272.17z M177.41,265.59c1.18,0,2.14-0.96,2.14-2.18
			c0-1.18-0.96-2.12-2.14-2.12s-2.14,0.94-2.14,2.12C175.27,264.63,176.23,265.59,177.41,265.59z"/>
	</g>
	<g>
		<path class="st51" d="M210.2,269.91c0.3,1.4,1.26,2.34,2.96,2.34c1.76,0,3.02-0.92,3.02-2.58c0-2.56-3.06-2.54-4.12-2.54v-1.52
			c1.5,0,3.78-0.12,3.78-2.22c0-1.44-1.18-2.18-2.6-2.18c-1.64,0-2.6,0.92-2.86,2.24l-1.64-0.48c0.48-1.9,2.08-3.16,4.54-3.16
			c2.32,0,4.32,0.92,4.32,3.4c0,1.36-0.78,2.52-2.18,3.1c2,0.62,2.56,1.94,2.56,3.34c0,2.7-2.3,4-4.84,4c-2.7,0-4.14-1.44-4.6-3.26
			L210.2,269.91z"/>
		<path class="st51" d="M221.26,264.59c0-2.62,2.12-4.76,4.78-4.76c2.66,0,4.78,2.1,4.78,4.8c0,0.6-0.12,1.22-0.36,1.82
			c-0.26,0.66-2.02,3.96-4.06,6.96h-2.08c0,0,1.68-2.32,2.78-4.14c-0.34,0.08-0.68,0.12-1.06,0.12
			C223.42,269.39,221.26,267.25,221.26,264.59z M222.98,264.59c0,1.7,1.36,3.08,3.06,3.08c1.72,0,3.1-1.38,3.1-3.08
			c0-1.68-1.38-3.06-3.1-3.06C224.34,261.53,222.98,262.91,222.98,264.59z"/>
	</g>
	<g>
		<path class="st51" d="M256.5,268.53l6.62-8.48h1.7v8.48h2.44v1.58h-2.44v3.3h-1.68v-3.3h-6.64V268.53z M263.14,268.53v-6.18
			l-4.82,6.18H263.14z"/>
		<path class="st51" d="M269.38,266.71c0-4.44,1.84-6.9,5.28-6.9c3.44,0,5.28,2.46,5.28,6.9c0,4.48-1.84,6.94-5.28,6.94
			C271.22,273.65,269.38,271.19,269.38,266.71z M274.66,272.17c0.94,0,1.68-0.32,2.22-0.9l-5.28-7.58c-0.28,0.82-0.4,1.84-0.4,3.02
			C271.2,270.21,272.3,272.17,274.66,272.17z M272.52,262.09l5.26,7.52c0.22-0.78,0.34-1.76,0.34-2.9c0-3.48-1.12-5.42-3.46-5.42
			C273.78,261.29,273.06,261.57,272.52,262.09z"/>
	</g>
	<g>
		<path class="st51" d="M305.11,268.53l6.62-8.48h1.7v8.48h2.44v1.58h-2.44v3.3h-1.68v-3.3h-6.64V268.53z M311.76,268.53v-6.18
			l-4.82,6.18H311.76z"/>
		<path class="st51" d="M322.62,271.87v-8.54h-3.56v-1.34c1.92,0,3.52-0.3,4.1-1.94h1.12v11.82h3.2v1.54h-8.42v-1.54H322.62z"/>
	</g>
	<g>
		<path class="st51" d="M13.42,317.05l6.62-8.48h1.7v8.48h2.44v1.58h-2.44v3.3h-1.68v-3.3h-6.64V317.05z M20.06,317.05v-6.18
			l-4.82,6.18H20.06z"/>
		<path class="st51" d="M26.76,321.93v-1.5c4.72-3.48,7.48-6.02,7.48-8.38c0-1.38-0.92-2.32-2.5-2.32c-1.26,0-2.48,0.62-2.8,2.24
			l-1.68-0.48c0.48-1.94,2.16-3.16,4.52-3.16c2.46,0,4.24,1.26,4.24,3.5c0,3.1-3.26,5.86-7,8.56h7.36v1.54H26.76z"/>
	</g>
	<g>
		<path class="st51" d="M62.03,317.05l6.62-8.48h1.7v8.48h2.44v1.58h-2.44v3.3h-1.68v-3.3h-6.64V317.05z M68.68,317.05v-6.18
			l-4.82,6.18H68.68z"/>
		<path class="st51" d="M77.14,318.43c0.3,1.4,1.26,2.34,2.96,2.34c1.76,0,3.02-0.92,3.02-2.58c0-2.56-3.06-2.54-4.12-2.54v-1.52
			c1.5,0,3.78-0.12,3.78-2.22c0-1.44-1.18-2.18-2.6-2.18c-1.64,0-2.6,0.92-2.86,2.24l-1.64-0.48c0.48-1.9,2.08-3.16,4.54-3.16
			c2.32,0,4.32,0.92,4.32,3.4c0,1.36-0.78,2.52-2.18,3.1c2,0.62,2.56,1.94,2.56,3.34c0,2.7-2.3,4-4.84,4c-2.7,0-4.14-1.44-4.6-3.26
			L77.14,318.43z"/>
	</g>
	<g>
		<path class="st51" d="M110.65,317.05l6.62-8.48h1.7v8.48h2.44v1.58h-2.44v3.3h-1.68v-3.3h-6.64V317.05z M117.29,317.05v-6.18
			l-4.82,6.18H117.29z"/>
		<path class="st51" d="M123.43,317.05l6.62-8.48h1.7v8.48h2.44v1.58h-2.44v3.3h-1.68v-3.3h-6.64V317.05z M130.07,317.05v-6.18
			l-4.82,6.18H130.07z"/>
	</g>
	<g>
		<path class="st51" d="M159.27,317.05l6.62-8.48h1.7v8.48h2.44v1.58h-2.44v3.3h-1.68v-3.3h-6.64V317.05z M165.91,317.05v-6.18
			l-4.82,6.18H165.91z"/>
		<path class="st51" d="M174.39,318.43c0.32,1.46,1.22,2.34,2.96,2.34c1.6,0,2.98-1.16,2.98-3.22c0-2.22-1.56-3.18-3-3.18
			c-1.38,0-2.3,0.82-2.58,1.48l-1.64-0.48l0.82-6.8h7.66v1.62h-6.3l-0.46,3.74c0.7-0.68,1.78-1,2.88-1c2.34,0,4.38,1.66,4.38,4.6
			c0,3.06-2.26,4.64-4.74,4.64c-2.7,0-4.1-1.46-4.6-3.26L174.39,318.43z"/>
	</g>
	<g>
		<path class="st51" d="M207.88,317.05l6.62-8.48h1.7v8.48h2.44v1.58h-2.44v3.3h-1.68v-3.3h-6.64V317.05z M214.52,317.05v-6.18
			l-4.82,6.18H214.52z"/>
		<path class="st51" d="M221.26,315.73c0-3.78,1.34-7.4,5.22-7.4c1.98,0,3.18,0.94,3.76,2.14l-1.7,0.5c-0.4-0.78-1.2-1.24-2.26-1.24
			c-2.08,0-3.2,2.06-3.28,5.16c0.6-1.04,1.74-1.86,3.52-1.86c2.48,0,4.3,1.86,4.3,4.54c0,2.48-1.84,4.6-4.7,4.6
			C222.78,322.17,221.26,319.85,221.26,315.73z M226.12,320.75c1.76,0,2.9-1.28,2.9-3.12c0-1.84-1.14-3.12-2.9-3.12
			c-1.78,0-2.92,1.28-2.92,3.12C223.2,319.47,224.34,320.75,226.12,320.75z"/>
	</g>
	<g>
		<path class="st51" d="M256.5,317.05l6.62-8.48h1.7v8.48h2.44v1.58h-2.44v3.3h-1.68v-3.3h-6.64V317.05z M263.14,317.05v-6.18
			l-4.82,6.18H263.14z"/>
		<path class="st51" d="M277.4,310.19h-7.36v-1.62h9.22v1.62l-5.56,11.74h-2.1L277.4,310.19z"/>
	</g>
	<g>
		<path class="st51" d="M305.11,317.05l6.62-8.48h1.7v8.48h2.44v1.58h-2.44v3.3h-1.68v-3.3h-6.64V317.05z M311.76,317.05v-6.18
			l-4.82,6.18H311.76z"/>
		<path class="st51" d="M320.78,314.61c-0.7-0.66-1.14-1.6-1.14-2.66c0-2,1.62-3.62,3.62-3.62c2.02,0,3.64,1.62,3.64,3.62
			c0,1.06-0.44,2-1.14,2.66c1.48,0.6,2.46,1.84,2.46,3.56c0,2.56-2.16,4-4.96,4c-2.78,0-4.94-1.44-4.94-4
			C318.32,316.45,319.29,315.21,320.78,314.61z M323.26,320.69c1.92,0,3.14-0.96,3.14-2.52s-1.22-2.58-3.14-2.58
			c-1.9,0-3.12,1.02-3.12,2.58S321.36,320.69,323.26,320.69z M323.26,314.11c1.18,0,2.14-0.96,2.14-2.18c0-1.18-0.96-2.12-2.14-2.12
			c-1.18,0-2.14,0.94-2.14,2.12C321.11,313.15,322.08,314.11,323.26,314.11z"/>
	</g>
</g>
<g>
</g>
<g>
</g>
<g>
</g>
<g>
</g>
<g>
</g>
<g>
</g>
</svg>
