<?xml version="1.0" encoding="utf-8"?>
<!-- Generator: Adobe Illustrator 28.1.0, SVG Export Plug-In . SVG Version: 6.00 Build 0)  -->
<svg version="1.1" id="Layer_1" xmlns="http://www.w3.org/2000/svg" xmlns:xlink="http://www.w3.org/1999/xlink" x="0px" y="0px"
	 viewBox="0 0 873.93 48.71" style="enable-background:new 0 0 873.93 48.71;" xml:space="preserve">
<style type="text/css">
	.st0{fill:#CEB88E;stroke:#221F20;stroke-width:0.25;stroke-miterlimit:10;}
	.st1{fill:#CDB98D;stroke:#221F20;stroke-width:0.25;stroke-miterlimit:10;}
	.st2{fill:#C4B388;stroke:#221F20;stroke-width:0.25;stroke-miterlimit:10;}
	.st3{fill:#D6B996;stroke:#221F20;stroke-width:0.25;stroke-miterlimit:10;}
	.st4{fill:#CBB28F;stroke:#221F20;stroke-width:0.25;stroke-miterlimit:10;}
	.st5{fill:#CDBA97;stroke:#221F20;stroke-width:0.25;stroke-miterlimit:10;}
	.st6{fill:#B99878;stroke:#221F20;stroke-width:0.25;stroke-miterlimit:10;}
	.st7{fill:#D7BB9B;stroke:#221F20;stroke-width:0.25;stroke-miterlimit:10;}
	.st8{fill:#C7B192;stroke:#221F20;stroke-width:0.25;stroke-miterlimit:10;}
	.st9{fill:#B5926F;stroke:#221F20;stroke-width:0.25;stroke-miterlimit:10;}
	.st10{fill:#B99A7C;stroke:#221F20;stroke-width:0.25;stroke-miterlimit:10;}
	.st11{fill:#9A7651;stroke:#221F20;stroke-width:0.25;stroke-miterlimit:10;}
	.st12{fill:#BE9D81;stroke:#221F20;stroke-width:0.25;stroke-miterlimit:10;}
	.st13{fill:#573519;stroke:#221F20;stroke-width:0.25;stroke-miterlimit:10;}
	.st14{fill:#967258;stroke:#221F20;stroke-width:0.25;stroke-miterlimit:10;}
	.st15{fill:#A17D57;stroke:#221F20;stroke-width:0.25;stroke-miterlimit:10;}
	.st16{fill:#2E1410;stroke:#221F20;stroke-width:0.25;stroke-miterlimit:10;}
	.st17{opacity:0.31;}
	.st18{stroke:#000000;stroke-width:2;stroke-linecap:round;stroke-linejoin:round;stroke-miterlimit:10;}
	.st19{fill:#FFFFFF;}
	.st20{fill:#636363;}
</style>
<rect class="st0" width="48.71" height="48.71"/>
<rect x="340.97" class="st1" width="48.71" height="48.71"/>
<rect x="681.93" class="st2" width="48.71" height="48.71"/>
<rect x="48.71" class="st3" width="48.71" height="48.71"/>
<rect x="389.67" class="st4" width="48.71" height="48.71"/>
<rect x="730.64" class="st5" width="48.71" height="48.71"/>
<rect x="97.42" class="st6" width="48.71" height="48.71"/>
<rect x="438.38" class="st7" width="48.71" height="48.71"/>
<rect x="779.35" class="st8" width="48.71" height="48.71"/>
<rect x="146.13" class="st9" width="48.71" height="48.71"/>
<rect x="487.09" class="st10" width="48.71" height="48.71"/>
<rect x="194.84" class="st11" width="48.71" height="48.71"/>
<rect x="535.8" class="st12" width="48.71" height="48.71"/>
<rect x="243.55" class="st13" width="48.71" height="48.71"/>
<rect x="584.51" class="st14" width="48.71" height="48.71"/>
<rect x="292.26" class="st15" width="48.71" height="48.71"/>
<rect x="633.22" class="st16" width="48.71" height="48.71"/>
<g class="st17">
	<path class="st18" d="M19.91,24.61c0-4.44,1.84-6.9,5.28-6.9s5.28,2.46,5.28,6.9c0,4.48-1.84,6.94-5.28,6.94
		S19.91,29.1,19.91,24.61z M25.19,30.08c0.94,0,1.68-0.32,2.22-0.9l-5.28-7.58c-0.28,0.82-0.4,1.84-0.4,3.02
		C21.73,28.12,22.83,30.08,25.19,30.08z M23.05,19.99l5.26,7.52c0.22-0.78,0.34-1.76,0.34-2.9c0-3.48-1.12-5.42-3.46-5.42
		C24.31,19.19,23.59,19.47,23.05,19.99z"/>
</g>
<g class="st17">
	<path class="st18" d="M73.15,29.78v-8.54h-3.56v-1.34c1.92,0,3.52-0.3,4.1-1.94h1.12v11.82h3.2v1.54h-8.42v-1.54H73.15z"/>
</g>
<g class="st17">
	<path class="st18" d="M117.6,31.32v-1.5c4.72-3.48,7.48-6.02,7.48-8.38c0-1.38-0.92-2.32-2.5-2.32c-1.26,0-2.48,0.62-2.8,2.24
		l-1.68-0.48c0.48-1.94,2.16-3.16,4.52-3.16c2.46,0,4.24,1.26,4.24,3.5c0,3.1-3.26,5.86-7,8.56h7.36v1.54H117.6z"/>
</g>
<g class="st17">
	<path class="st18" d="M167.98,27.82c0.3,1.4,1.26,2.34,2.96,2.34c1.76,0,3.02-0.92,3.02-2.58c0-2.56-3.06-2.54-4.12-2.54v-1.52
		c1.5,0,3.78-0.12,3.78-2.22c0-1.44-1.18-2.18-2.6-2.18c-1.64,0-2.6,0.92-2.86,2.24l-1.64-0.48c0.48-1.9,2.08-3.16,4.54-3.16
		c2.32,0,4.32,0.92,4.32,3.4c0,1.36-0.78,2.52-2.18,3.1c2,0.62,2.56,1.94,2.56,3.34c0,2.7-2.3,4-4.84,4c-2.7,0-4.14-1.44-4.6-3.26
		L167.98,27.82z"/>
</g>
<g class="st17">
	<path class="st18" d="M214.27,26.44l6.62-8.48h1.7v8.48h2.44v1.58h-2.44v3.3h-1.68v-3.3h-6.64V26.44z M220.91,26.44v-6.18
		l-4.82,6.18H220.91z"/>
</g>
<g class="st17">
	<path class="st18" d="M265.23,27.82c0.32,1.46,1.22,2.34,2.96,2.34c1.6,0,2.98-1.16,2.98-3.22c0-2.22-1.56-3.18-3-3.18
		c-1.38,0-2.3,0.82-2.58,1.48l-1.64-0.48l0.82-6.8h7.66v1.62h-6.3l-0.46,3.74c0.7-0.68,1.78-1,2.88-1c2.34,0,4.38,1.66,4.38,4.6
		c0,3.06-2.26,4.64-4.74,4.64c-2.7,0-4.1-1.46-4.6-3.26L265.23,27.82z"/>
</g>
<g class="st17">
	<path class="st18" d="M312.1,25.11c0-3.78,1.34-7.4,5.22-7.4c1.98,0,3.18,0.94,3.76,2.14l-1.7,0.5c-0.4-0.78-1.2-1.24-2.26-1.24
		c-2.08,0-3.2,2.06-3.28,5.16c0.6-1.04,1.74-1.86,3.52-1.86c2.48,0,4.3,1.86,4.3,4.54c0,2.48-1.84,4.6-4.7,4.6
		C313.62,31.56,312.1,29.24,312.1,25.11z M316.97,30.14c1.76,0,2.9-1.28,2.9-3.12s-1.14-3.12-2.9-3.12c-1.78,0-2.92,1.28-2.92,3.12
		S315.19,30.14,316.97,30.14z"/>
</g>
<g class="st17">
	<path class="st18" d="M368.9,19.38h-7.36v-1.62h9.22v1.62l-5.56,11.74h-2.1L368.9,19.38z"/>
</g>
<g class="st17">
	<path class="st18" d="M412.27,23.8c-0.7-0.66-1.14-1.6-1.14-2.66c0-2,1.62-3.62,3.62-3.62c2.02,0,3.64,1.62,3.64,3.62
		c0,1.06-0.44,2-1.14,2.66c1.48,0.6,2.46,1.84,2.46,3.56c0,2.56-2.16,4-4.96,4c-2.78,0-4.94-1.44-4.94-4
		C409.81,25.64,410.79,24.4,412.27,23.8z M414.75,29.89c1.92,0,3.14-0.96,3.14-2.52c0-1.56-1.22-2.58-3.14-2.58
		c-1.9,0-3.12,1.02-3.12,2.58C411.63,28.92,412.85,29.89,414.75,29.89z M414.75,23.3c1.18,0,2.14-0.96,2.14-2.18
		c0-1.18-0.96-2.12-2.14-2.12c-1.18,0-2.14,0.94-2.14,2.12C412.61,22.34,413.57,23.3,414.75,23.3z"/>
</g>
<g class="st17">
	<path class="st18" d="M458.61,22.3c0-2.62,2.12-4.76,4.78-4.76c2.66,0,4.78,2.1,4.78,4.8c0,0.6-0.12,1.22-0.36,1.82
		c-0.26,0.66-2.02,3.96-4.06,6.96h-2.08c0,0,1.68-2.32,2.78-4.14c-0.34,0.08-0.68,0.12-1.06,0.12
		C460.77,27.1,458.61,24.96,458.61,22.3z M460.33,22.3c0,1.7,1.36,3.08,3.06,3.08c1.72,0,3.1-1.38,3.1-3.08
		c0-1.68-1.38-3.06-3.1-3.06C461.69,19.24,460.33,20.62,460.33,22.3z"/>
</g>
<g class="st17">
	<path class="st18" d="M504.95,29.59v-8.54h-3.56V19.7c1.92,0,3.52-0.3,4.1-1.94h1.12v11.82h3.2v1.54h-8.42v-1.54H504.95z"/>
	<path class="st18" d="M513.11,24.42c0-4.44,1.84-6.9,5.28-6.9c3.44,0,5.28,2.46,5.28,6.9c0,4.48-1.84,6.94-5.28,6.94
		C514.95,31.37,513.11,28.9,513.11,24.42z M518.39,29.89c0.94,0,1.68-0.32,2.22-0.9l-5.28-7.58c-0.28,0.82-0.4,1.84-0.4,3.02
		C514.93,27.92,516.03,29.89,518.39,29.89z M516.25,19.8l5.26,7.52c0.22-0.78,0.34-1.76,0.34-2.9c0-3.48-1.12-5.42-3.46-5.42
		C517.51,19,516.79,19.28,516.25,19.8z"/>
</g>
<g class="st17">
	<path class="st18" d="M553.57,29.59v-8.54h-3.56V19.7c1.92,0,3.52-0.3,4.1-1.94h1.12v11.82h3.2v1.54h-8.42v-1.54H553.57z"/>
	<path class="st18" d="M566.35,29.59v-8.54h-3.56V19.7c1.92,0,3.52-0.3,4.1-1.94h1.12v11.82h3.2v1.54h-8.42v-1.54H566.35z"/>
</g>
<g class="st17">
	<path class="st18" d="M602.19,29.59v-8.54h-3.56V19.7c1.92,0,3.52-0.3,4.1-1.94h1.12v11.82h3.2v1.54h-8.42v-1.54H602.19z"/>
	<path class="st18" d="M610.8,31.13v-1.5c4.72-3.48,7.48-6.02,7.48-8.38c0-1.38-0.92-2.32-2.5-2.32c-1.26,0-2.48,0.62-2.8,2.24
		l-1.68-0.48c0.48-1.94,2.16-3.16,4.52-3.16c2.46,0,4.24,1.26,4.24,3.5c0,3.1-3.26,5.86-7,8.56h7.36v1.54H610.8z"/>
</g>
<g class="st17">
	<path class="st18" d="M650.8,29.59v-8.54h-3.56V19.7c1.92,0,3.52-0.3,4.1-1.94h1.12v11.82h3.2v1.54h-8.42v-1.54H650.8z"/>
	<path class="st18" d="M661.18,27.62c0.3,1.4,1.26,2.34,2.96,2.34c1.76,0,3.02-0.92,3.02-2.58c0-2.56-3.06-2.54-4.12-2.54v-1.52
		c1.5,0,3.78-0.12,3.78-2.22c0-1.44-1.18-2.18-2.6-2.18c-1.64,0-2.6,0.92-2.86,2.24l-1.64-0.48c0.48-1.9,2.08-3.16,4.54-3.16
		c2.32,0,4.32,0.92,4.32,3.4c0,1.36-0.78,2.52-2.18,3.1c2,0.62,2.56,1.94,2.56,3.34c0,2.7-2.3,4-4.84,4c-2.7,0-4.14-1.44-4.6-3.26
		L661.18,27.62z"/>
</g>
<g class="st17">
	<path class="st18" d="M700.07,29.39v-8.54h-3.56v-1.34c1.92,0,3.52-0.3,4.1-1.94h1.12v11.82h3.2v1.54h-8.42v-1.54H700.07z"/>
	<path class="st18" d="M708.13,26.05l6.62-8.48h1.7v8.48h2.44v1.58h-2.44v3.3h-1.68v-3.3h-6.64V26.05z M714.77,26.05v-6.18
		l-4.82,6.18H714.77z"/>
</g>
<g class="st17">
	<path class="st18" d="M748.69,29.39v-8.54h-3.56v-1.34c1.92,0,3.52-0.3,4.1-1.94h1.12v11.82h3.2v1.54h-8.42v-1.54H748.69z"/>
	<path class="st18" d="M759.09,27.43c0.32,1.46,1.22,2.34,2.96,2.34c1.6,0,2.98-1.16,2.98-3.22c0-2.22-1.56-3.18-3-3.18
		c-1.38,0-2.3,0.82-2.58,1.48l-1.64-0.48l0.82-6.8h7.66v1.62h-6.3l-0.46,3.74c0.7-0.68,1.78-1,2.88-1c2.34,0,4.38,1.66,4.38,4.6
		c0,3.06-2.26,4.64-4.74,4.64c-2.7,0-4.1-1.46-4.6-3.26L759.09,27.43z"/>
</g>
<g class="st17">
	<path class="st18" d="M797.3,29.39v-8.54h-3.56v-1.34c1.92,0,3.52-0.3,4.1-1.94h1.12v11.82h3.2v1.54h-8.42v-1.54H797.3z"/>
	<path class="st18" d="M805.96,24.73c0-3.78,1.34-7.4,5.22-7.4c1.98,0,3.18,0.94,3.76,2.14l-1.7,0.5c-0.4-0.78-1.2-1.24-2.26-1.24
		c-2.08,0-3.2,2.06-3.28,5.16c0.6-1.04,1.74-1.86,3.52-1.86c2.48,0,4.3,1.86,4.3,4.54c0,2.48-1.84,4.6-4.7,4.6
		C807.48,31.18,805.96,28.85,805.96,24.73z M810.82,29.75c1.76,0,2.9-1.28,2.9-3.12s-1.14-3.12-2.9-3.12
		c-1.78,0-2.92,1.28-2.92,3.12S809.04,29.75,810.82,29.75z"/>
</g>
<g>
	<path class="st19" d="M19.91,24.11c0-4.44,1.84-6.9,5.28-6.9s5.28,2.46,5.28,6.9c0,4.48-1.84,6.94-5.28,6.94
		S19.91,28.6,19.91,24.11z M25.19,29.58c0.94,0,1.68-0.32,2.22-0.9l-5.28-7.58c-0.28,0.82-0.4,1.84-0.4,3.02
		C21.73,27.62,22.83,29.58,25.19,29.58z M23.05,19.49l5.26,7.52c0.22-0.78,0.34-1.76,0.34-2.9c0-3.48-1.12-5.42-3.46-5.42
		C24.31,18.69,23.59,18.97,23.05,19.49z"/>
</g>
<g>
	<path class="st19" d="M73.15,29.28v-8.54h-3.56v-1.34c1.92,0,3.52-0.3,4.1-1.94h1.12v11.82h3.2v1.54h-8.42v-1.54H73.15z"/>
</g>
<g>
	<path class="st19" d="M117.6,30.82v-1.5c4.72-3.48,7.48-6.02,7.48-8.38c0-1.38-0.92-2.32-2.5-2.32c-1.26,0-2.48,0.62-2.8,2.24
		l-1.68-0.48c0.48-1.94,2.16-3.16,4.52-3.16c2.46,0,4.24,1.26,4.24,3.5c0,3.1-3.26,5.86-7,8.56h7.36v1.54H117.6z"/>
</g>
<g>
	<path class="st19" d="M167.98,27.32c0.3,1.4,1.26,2.34,2.96,2.34c1.76,0,3.02-0.92,3.02-2.58c0-2.56-3.06-2.54-4.12-2.54v-1.52
		c1.5,0,3.78-0.12,3.78-2.22c0-1.44-1.18-2.18-2.6-2.18c-1.64,0-2.6,0.92-2.86,2.24l-1.64-0.48c0.48-1.9,2.08-3.16,4.54-3.16
		c2.32,0,4.32,0.92,4.32,3.4c0,1.36-0.78,2.52-2.18,3.1c2,0.62,2.56,1.94,2.56,3.34c0,2.7-2.3,4-4.84,4c-2.7,0-4.14-1.44-4.6-3.26
		L167.98,27.32z"/>
</g>
<g>
	<path class="st19" d="M214.27,25.94l6.62-8.48h1.7v8.48h2.44v1.58h-2.44v3.3h-1.68v-3.3h-6.64V25.94z M220.91,25.94v-6.18
		l-4.82,6.18H220.91z"/>
</g>
<g>
	<path class="st19" d="M265.23,27.32c0.32,1.46,1.22,2.34,2.96,2.34c1.6,0,2.98-1.16,2.98-3.22c0-2.22-1.56-3.18-3-3.18
		c-1.38,0-2.3,0.82-2.58,1.48l-1.64-0.48l0.82-6.8h7.66v1.62h-6.3l-0.46,3.74c0.7-0.68,1.78-1,2.88-1c2.34,0,4.38,1.66,4.38,4.6
		c0,3.06-2.26,4.64-4.74,4.64c-2.7,0-4.1-1.46-4.6-3.26L265.23,27.32z"/>
</g>
<g>
	<path class="st19" d="M312.1,24.61c0-3.78,1.34-7.4,5.22-7.4c1.98,0,3.18,0.94,3.76,2.14l-1.7,0.5c-0.4-0.78-1.2-1.24-2.26-1.24
		c-2.08,0-3.2,2.06-3.28,5.16c0.6-1.04,1.74-1.86,3.52-1.86c2.48,0,4.3,1.86,4.3,4.54c0,2.48-1.84,4.6-4.7,4.6
		C313.62,31.06,312.1,28.74,312.1,24.61z M316.97,29.64c1.76,0,2.9-1.28,2.9-3.12s-1.14-3.12-2.9-3.12c-1.78,0-2.92,1.28-2.92,3.12
		S315.19,29.64,316.97,29.64z"/>
</g>
<g>
	<path class="st19" d="M368.9,18.88h-7.36v-1.62h9.22v1.62l-5.56,11.74h-2.1L368.9,18.88z"/>
</g>
<g>
	<path class="st19" d="M412.27,23.3c-0.7-0.66-1.14-1.6-1.14-2.66c0-2,1.62-3.62,3.62-3.62c2.02,0,3.64,1.62,3.64,3.62
		c0,1.06-0.44,2-1.14,2.66c1.48,0.6,2.46,1.84,2.46,3.56c0,2.56-2.16,4-4.96,4c-2.78,0-4.94-1.44-4.94-4
		C409.81,25.14,410.79,23.9,412.27,23.3z M414.75,29.39c1.92,0,3.14-0.96,3.14-2.52c0-1.56-1.22-2.58-3.14-2.58
		c-1.9,0-3.12,1.02-3.12,2.58C411.63,28.42,412.85,29.39,414.75,29.39z M414.75,22.8c1.18,0,2.14-0.96,2.14-2.18
		c0-1.18-0.96-2.12-2.14-2.12c-1.18,0-2.14,0.94-2.14,2.12C412.61,21.84,413.57,22.8,414.75,22.8z"/>
</g>
<g>
	<path class="st19" d="M458.61,21.8c0-2.62,2.12-4.76,4.78-4.76c2.66,0,4.78,2.1,4.78,4.8c0,0.6-0.12,1.22-0.36,1.82
		c-0.26,0.66-2.02,3.96-4.06,6.96h-2.08c0,0,1.68-2.32,2.78-4.14c-0.34,0.08-0.68,0.12-1.06,0.12
		C460.77,26.6,458.61,24.46,458.61,21.8z M460.33,21.8c0,1.7,1.36,3.08,3.06,3.08c1.72,0,3.1-1.38,3.1-3.08
		c0-1.68-1.38-3.06-3.1-3.06C461.69,18.74,460.33,20.12,460.33,21.8z"/>
</g>
<g>
	<path class="st19" d="M504.95,29.09v-8.54h-3.56V19.2c1.92,0,3.52-0.3,4.1-1.94h1.12v11.82h3.2v1.54h-8.42v-1.54H504.95z"/>
	<path class="st19" d="M513.11,23.92c0-4.44,1.84-6.9,5.28-6.9c3.44,0,5.28,2.46,5.28,6.9c0,4.48-1.84,6.94-5.28,6.94
		C514.95,30.87,513.11,28.4,513.11,23.92z M518.39,29.39c0.94,0,1.68-0.32,2.22-0.9l-5.28-7.58c-0.28,0.82-0.4,1.84-0.4,3.02
		C514.93,27.42,516.03,29.39,518.39,29.39z M516.25,19.3l5.26,7.52c0.22-0.78,0.34-1.76,0.34-2.9c0-3.48-1.12-5.42-3.46-5.42
		C517.51,18.5,516.79,18.78,516.25,19.3z"/>
</g>
<g>
	<path class="st19" d="M553.57,29.09v-8.54h-3.56V19.2c1.92,0,3.52-0.3,4.1-1.94h1.12v11.82h3.2v1.54h-8.42v-1.54H553.57z"/>
	<path class="st19" d="M566.35,29.09v-8.54h-3.56V19.2c1.92,0,3.52-0.3,4.1-1.94h1.12v11.82h3.2v1.54h-8.42v-1.54H566.35z"/>
</g>
<g>
	<path class="st19" d="M602.19,29.09v-8.54h-3.56V19.2c1.92,0,3.52-0.3,4.1-1.94h1.12v11.82h3.2v1.54h-8.42v-1.54H602.19z"/>
	<path class="st19" d="M610.8,30.63v-1.5c4.72-3.48,7.48-6.02,7.48-8.38c0-1.38-0.92-2.32-2.5-2.32c-1.26,0-2.48,0.62-2.8,2.24
		l-1.68-0.48c0.48-1.94,2.16-3.16,4.52-3.16c2.46,0,4.24,1.26,4.24,3.5c0,3.1-3.26,5.86-7,8.56h7.36v1.54H610.8z"/>
</g>
<g>
	<path class="st19" d="M650.8,29.09v-8.54h-3.56V19.2c1.92,0,3.52-0.3,4.1-1.94h1.12v11.82h3.2v1.54h-8.42v-1.54H650.8z"/>
	<path class="st19" d="M661.18,27.12c0.3,1.4,1.26,2.34,2.96,2.34c1.76,0,3.02-0.92,3.02-2.58c0-2.56-3.06-2.54-4.12-2.54v-1.52
		c1.5,0,3.78-0.12,3.78-2.22c0-1.44-1.18-2.18-2.6-2.18c-1.64,0-2.6,0.92-2.86,2.24l-1.64-0.48c0.48-1.9,2.08-3.16,4.54-3.16
		c2.32,0,4.32,0.92,4.32,3.4c0,1.36-0.78,2.52-2.18,3.1c2,0.62,2.56,1.94,2.56,3.34c0,2.7-2.3,4-4.84,4c-2.7,0-4.14-1.44-4.6-3.26
		L661.18,27.12z"/>
</g>
<g>
	<path class="st19" d="M700.07,28.89v-8.54h-3.56v-1.34c1.92,0,3.52-0.3,4.1-1.94h1.12v11.82h3.2v1.54h-8.42v-1.54H700.07z"/>
	<path class="st19" d="M708.13,25.55l6.62-8.48h1.7v8.48h2.44v1.58h-2.44v3.3h-1.68v-3.3h-6.64V25.55z M714.77,25.55v-6.18
		l-4.82,6.18H714.77z"/>
</g>
<g>
	<path class="st19" d="M748.69,28.89v-8.54h-3.56v-1.34c1.92,0,3.52-0.3,4.1-1.94h1.12v11.82h3.2v1.54h-8.42v-1.54H748.69z"/>
	<path class="st19" d="M759.09,26.93c0.32,1.46,1.22,2.34,2.96,2.34c1.6,0,2.98-1.16,2.98-3.22c0-2.22-1.56-3.18-3-3.18
		c-1.38,0-2.3,0.82-2.58,1.48l-1.64-0.48l0.82-6.8h7.66v1.62h-6.3l-0.46,3.74c0.7-0.68,1.78-1,2.88-1c2.34,0,4.38,1.66,4.38,4.6
		c0,3.06-2.26,4.64-4.74,4.64c-2.7,0-4.1-1.46-4.6-3.26L759.09,26.93z"/>
</g>
<g>
	<path class="st19" d="M797.3,28.89v-8.54h-3.56v-1.34c1.92,0,3.52-0.3,4.1-1.94h1.12v11.82h3.2v1.54h-8.42v-1.54H797.3z"/>
	<path class="st19" d="M805.96,24.23c0-3.78,1.34-7.4,5.22-7.4c1.98,0,3.18,0.94,3.76,2.14l-1.7,0.5c-0.4-0.78-1.2-1.24-2.26-1.24
		c-2.08,0-3.2,2.06-3.28,5.16c0.6-1.04,1.74-1.86,3.52-1.86c2.48,0,4.3,1.86,4.3,4.54c0,2.48-1.84,4.6-4.7,4.6
		C807.48,30.68,805.96,28.35,805.96,24.23z M810.82,29.25c1.76,0,2.9-1.28,2.9-3.12s-1.14-3.12-2.9-3.12
		c-1.78,0-2.92,1.28-2.92,3.12S809.04,29.25,810.82,29.25z"/>
</g>
<circle class="st20" cx="840.13" cy="24.35" r="3.66"/>
<circle class="st20" cx="855.2" cy="24.35" r="3.66"/>
<circle class="st20" cx="870.27" cy="24.35" r="3.66"/>
<g>
</g>
<g>
</g>
<g>
</g>
<g>
</g>
<g>
</g>
<g>
</g>
</svg>
