<?xml version="1.0" encoding="UTF-8"?><svg id="a" xmlns="http://www.w3.org/2000/svg" viewBox="0 0 423.0013 239.4264"><rect x="109.1951" y=".5376" width="166.6032" height="89.5087" rx="9" ry="9" style="fill:#ffffeb; stroke:#221f20; stroke-miterlimit:10;"/><path d="M129.8382,28.935h-7.4414V11.6615h7.4414c1.0703.0156,1.9609.1406,2.6719.375,1.2109.3984,2.1914,1.1289,2.9414,2.1914.6016.8594,1.0117,1.7891,1.2305,2.7891s.3281,1.9531.3281,2.8594c0,2.2969-.4609,4.2422-1.3828,5.8359-1.25,2.1484-3.1797,3.2227-5.7891,3.2227ZM132.5218,16.0678c-.5547-.9375-1.6523-1.4062-3.293-1.4062h-3.3281v11.2734h3.3281c1.7031,0,2.8906-.8398,3.5625-2.5195.3672-.9219.5508-2.0195.5508-3.293,0-1.7578-.2734-3.1094-.8203-4.0547Z" style="fill:#221f20; stroke-width:0px;"/><path d="M150.1116,17.7787c1.0781,1.3516,1.6172,2.9492,1.6172,4.793,0,1.875-.5391,3.4785-1.6172,4.8105s-2.7148,1.998-4.9102,1.998-3.832-.666-4.9102-1.998-1.6172-2.9355-1.6172-4.8105c0-1.8438.5391-3.4414,1.6172-4.793s2.7148-2.0273,4.9102-2.0273,3.832.6758,4.9102,2.0273ZM145.1897,18.5756c-.9766,0-1.7285.3457-2.2559,1.0371s-.791,1.6777-.791,2.959.2637,2.2695.791,2.9648,1.2793,1.043,2.2559,1.043,1.7266-.3477,2.25-1.043.7852-1.6836.7852-2.9648-.2617-2.2676-.7852-2.959-1.2734-1.0371-2.25-1.0371Z" style="fill:#221f20; stroke-width:0px;"/><path d="M164.7718,17.7787c1.0781,1.3516,1.6172,2.9492,1.6172,4.793,0,1.875-.5391,3.4785-1.6172,4.8105s-2.7148,1.998-4.9102,1.998-3.832-.666-4.9102-1.998-1.6172-2.9355-1.6172-4.8105c0-1.8438.5391-3.4414,1.6172-4.793s2.7148-2.0273,4.9102-2.0273,3.832.6758,4.9102,2.0273ZM159.8499,18.5756c-.9766,0-1.7285.3457-2.2559,1.0371s-.791,1.6777-.791,2.959.2637,2.2695.791,2.9648,1.2793,1.043,2.2559,1.043,1.7266-.3477,2.25-1.043.7852-1.6836.7852-2.9648-.2617-2.2676-.7852-2.959-1.2734-1.0371-2.25-1.0371Z" style="fill:#221f20; stroke-width:0px;"/><path d="M175.2014,19.2436c-1.3438,0-2.2461.4375-2.707,1.3125-.2578.4922-.3867,1.25-.3867,2.2734v6.1055h-3.3633v-12.7734h3.1875v2.2266c.5156-.8516.9648-1.4336,1.3477-1.7461.625-.5234,1.4375-.7852,2.4375-.7852.0625,0,.1152.002.1582.0059s.1387.0098.2871.0176v3.4219c-.2109-.0234-.3984-.0391-.5625-.0469s-.2969-.0117-.3984-.0117Z" style="fill:#221f20; stroke-width:0px;"/><path d="M121.4807,51.807c.2021-.5381.4902-.9971.8638-1.376s.8213-.6719,1.3442-.8799c.5225-.208,1.1094-.3125,1.7598-.3125s1.2402.1045,1.7681.3125.9785.501,1.3521.8799c.373.3789.6611.8379.8638,1.376.2026.5391.3042,1.1387.3042,1.7998,0,.6621-.1016,1.2588-.3042,1.792s-.4907.9893-.8638,1.3682c-.3735.3789-.8242.6699-1.3521.8721s-1.1177.3037-1.7681.3037-1.2373-.1016-1.7598-.3037c-.5229-.2021-.9707-.4932-1.3442-.8721s-.6616-.835-.8638-1.3682c-.2026-.5332-.3042-1.1299-.3042-1.792,0-.6611.1016-1.2607.3042-1.7998ZM123.5447,54.5746c.064.3154.1733.5977.3281.8486.1543.251.3599.4502.6157.5996s.5762.2246.96.2246c.3843,0,.7065-.0752.9683-.2246.2612-.1494.4692-.3486.624-.5996.1543-.251.2637-.5332.3276-.8486.064-.3145.0962-.6367.0962-.9678,0-.3301-.0322-.6562-.0962-.9756-.064-.3203-.1733-.6025-.3276-.8486-.1548-.2451-.3628-.4453-.624-.5996-.2617-.1543-.584-.2324-.9683-.2324-.3838,0-.7041.0781-.96.2324s-.4614.3545-.6157.5996c-.1548.2461-.2642.5283-.3281.8486-.064.3193-.0962.6455-.0962.9756,0,.3311.0322.6533.0962.9678Z" style="fill:#221f20; stroke-width:0px;"/><path d="M133.3684,49.4633v1.0557h.0322c.2769-.4482.6289-.7734,1.0557-.9756.4268-.2031.896-.3047,1.4082-.3047.6504,0,1.2104.123,1.6802.3682.4692.2461.8584.5713,1.168.9766.3091.4053.5386.877.688,1.416.1489.5381.2236,1.1016.2236,1.6875,0,.5547-.0747,1.0879-.2236,1.5996-.1494.5127-.376.9658-.6802,1.3604s-.6826.71-1.1357.9443c-.4536.2344-.9844.3516-1.5923.3516-.5117,0-.9839-.1035-1.416-.3115s-.7866-.5146-1.064-.9199h-.0317v3.9199h-2.2725v-11.168h2.1602ZM136.3206,56.0228c.2505-.1494.4531-.3438.6079-.584.1543-.2402.2642-.5195.3281-.8398s.0957-.6455.0957-.9756c0-.3311-.0347-.6562-.104-.9766s-.1836-.6055-.3438-.8555c-.1602-.251-.3657-.4541-.6162-.6084s-.5571-.2324-.9199-.2324c-.3735,0-.6855.0781-.936.2324s-.4536.3545-.6079.5996c-.1548.2461-.2642.5283-.3281.8486-.064.3193-.0957.6504-.0957.9922,0,.3301.0342.6553.104.9756.0693.3203.1812.5996.3359.8398.1543.2402.3599.4346.6157.584.2563.1494.5654.2246.9282.2246.373,0,.6851-.0752.936-.2246Z" style="fill:#221f20; stroke-width:0px;"/><path d="M143.4163,55.7514c.3413.3301.832.4961,1.4722.4961.4585,0,.853-.1152,1.1841-.3447.3306-.2285.5332-.4717.6079-.7275h2c-.3198.9922-.811,1.7012-1.4722,2.1279-.6616.4268-1.4614.6396-2.3999.6396-.6509,0-1.2373-.1035-1.7598-.3115-.5229-.208-.9658-.5039-1.3281-.8887-.3628-.3838-.6431-.8418-.8403-1.376-.1973-.5332-.2959-1.1191-.2959-1.7598,0-.6182.1016-1.1943.3042-1.7275s.4902-.9951.8638-1.3848c.3735-.3887.8188-.6953,1.3359-.9199.5176-.2236,1.0908-.3359,1.7202-.3359.7041,0,1.3174.1367,1.8398.4082.5225.2725.9521.6377,1.2881,1.0957.3359.459.5786.9814.728,1.5684s.2026,1.2002.1602,1.8398h-5.9683c.0322.7363.2188,1.2695.5601,1.6006ZM145.9842,51.3988c-.272-.2979-.6851-.4482-1.2397-.4482-.3628,0-.6641.0615-.9038.1846-.2402.123-.4321.2744-.5762.4561s-.2456.373-.3042.5762c-.0586.2021-.0933.3838-.104.5439h3.6963c-.1069-.5762-.2959-1.0137-.5684-1.3125Z" style="fill:#221f20; stroke-width:0px;"/><path d="M152.3279,49.4633v1.1514h.0479c.2881-.4795.6616-.8291,1.1201-1.0479s.9282-.3281,1.4082-.3281c.6079,0,1.1064.083,1.4961.248.3892.166.6958.3955.9199.6885s.3813.6504.4717,1.0723c.0908.4209.1362.8877.1362,1.3994v5.0879h-2.272v-4.6719c0-.6826-.1069-1.1914-.3198-1.5283-.2139-.3359-.5923-.5039-1.1362-.5039-.6187,0-1.0669.1846-1.3442.5527-.2773.3672-.4155.9727-.4155,1.8154v4.3359h-2.2725v-8.2715h2.1602Z" style="fill:#221f20; stroke-width:0px;"/><path d="M162.3123,49.5668c-.2773,1.2217-.416,2.4619-.416,3.7197,0,1.2803.1362,2.5342.4082,3.7607s.7119,2.4209,1.3198,3.584h-1.8882c-.6719-1.0986-1.1919-2.2559-1.5601-3.4727-.3677-1.2158-.5518-2.4531-.5518-3.7119,0-.5967.0454-1.2236.1357-1.8799.0908-.6562.2241-1.3086.4004-1.96.1758-.6504.3945-1.2803.6558-1.8877.2612-.6084.5679-1.168.9199-1.6797h1.9043c-.6079,1.1299-1.0508,2.3066-1.3281,3.5273Z" style="fill:#221f20; stroke-width:0px;"/><path d="M164.7356,57.1186c.2827-1.21.4238-2.4443.4238-3.7031,0-1.2803-.1387-2.5391-.416-3.7764s-.7095-2.4375-1.2959-3.5996h1.8721c.6719,1.0986,1.1919,2.2607,1.5601,3.4873s.5518,2.4697.5518,3.7285c0,.5977-.0425,1.2236-.1279,1.8799s-.2158,1.3066-.3921,1.9521c-.1758.6455-.3975,1.2715-.6636,1.8799-.2671.6074-.5762,1.1621-.9282,1.6641h-1.8882c.5869-1.1309,1.0215-2.3018,1.3042-3.5127Z" style="fill:#221f20; stroke-width:0px;"/><path d="M127.9363,67.7436c.1602-.6885.4683-1.1797.9243-1.4766.4561-.2959,1.0317-.4434,1.728-.4434.1519,0,.3379.0176.5576.0537.2202.0361.4302.1084.6304.2158.1997.1084.3696.2568.5098.4443s.21.4375.21.75c0,.1357-.02.3135-.0601.5342-.04.2197-.084.4375-.1318.6533-.0479.2168-.0942.4121-.1382.5889-.0439.1758-.0698.2871-.0776.3359-.04.1602-.084.3359-.1323.5273-.0479.1924-.0918.3799-.1318.5645-.04.1836-.0742.3535-.1021.5098s-.042.2783-.042.3662c0,.1123.0278.2061.084.2822s.1401.1133.252.1133c.064,0,.1323-.0078.2041-.0234.0718-.0166.1401-.0322.2041-.0479l-.0723.4072c-.0879.0244-.1777.04-.27.0488-.0918.0078-.1777.0117-.2578.0117-.208,0-.3599-.0723-.4561-.2158-.0957-.1445-.144-.2842-.144-.4199,0-.0645.0122-.1465.0361-.2461.0239-.1006.0439-.1904.0601-.2705h-.0239c-.1201.2246-.272.416-.4561.5762s-.3804.292-.5879.3965c-.2085.1035-.4243.1797-.6484.2275-.2236.0479-.436.0723-.6357.0723-.2642,0-.5122-.0303-.7441-.0898-.2319-.0605-.4341-.1562-.606-.2881-.1719-.1328-.3081-.3018-.4077-.5107-.1001-.208-.1504-.4639-.1504-.7676,0-.3916.0762-.7119.228-.96s.354-.4404.606-.5762.54-.2295.8643-.2822c.3237-.0518.6616-.082,1.0142-.0898.4316-.0156.792-.0459,1.0796-.0898.2881-.0439.52-.1123.6963-.2041.1758-.0918.3018-.2139.3779-.3662.0757-.1514.1138-.3438.1138-.5752,0-.3848-.1182-.6904-.354-.9189-.2358-.2275-.6338-.3418-1.1938-.3418-.5518,0-1.0039.1221-1.356.3662s-.5962.6299-.7319,1.1582h-.4683ZM131.8006,68.6557h-.0239c-.0884.0879-.2124.1582-.3721.21-.1602.0518-.332.0957-.5161.1318s-.3701.0615-.5581.0781c-.188.0156-.3462.0283-.4736.0361-.2881.0078-.5723.0273-.8521.0596-.2803.0322-.5303.1006-.75.2041-.2202.1045-.3984.2539-.5342.4502-.1362.1963-.2041.4619-.2041.7979,0,.2324.0439.4277.1323.5879.0879.1602.2036.29.3477.3896.144.1006.3101.1729.498.2168s.3857.0654.5942.0654c.3677,0,.6899-.0635.9658-.1914s.5117-.3027.708-.5225c.1958-.2197.3599-.4736.4922-.7617.1318-.2881.2417-.5918.3301-.9121l.2158-.8398Z" style="fill:#221f20; stroke-width:0px;"/><path d="M134.9807,63.5678h.4556l-.7798,3.5996h.0239c.0962-.1836.2222-.3584.3779-.5225.1562-.1631.3359-.3057.54-.4258s.4238-.2158.6602-.2881c.2358-.0713.4819-.1074.7378-.1074.4082,0,.7563.0654,1.0439.1982.2881.1318.5264.3115.7144.5391.1875.2285.3237.498.4077.8105.084.3115.126.6475.126,1.0078,0,.4561-.0698.916-.21,1.3799s-.3462.8818-.6177,1.2539c-.2725.3721-.6064.6768-1.0024.9121-.396.2363-.8501.3545-1.3618.3545-.5361,0-.9883-.1582-1.356-.4746-.3682-.3154-.6201-.7373-.7559-1.2656h-.0239l-.3481,1.5957h-.4561l1.8242-8.5674ZM136.1204,71.8832c.4561,0,.8521-.1113,1.188-.3359.3359-.2236.6182-.5078.8462-.8516s.3979-.7246.5098-1.1406c.1123-.416.168-.8115.168-1.1875,0-.3125-.04-.5977-.1196-.8584-.0801-.2598-.1982-.4854-.354-.6777-.1562-.1924-.3521-.3418-.5884-.4502-.2358-.1074-.5137-.1621-.834-.1621-.4478,0-.8438.1182-1.188.3545-.3438.2354-.6299.5322-.8579.8877-.228.3564-.3999.7402-.5161,1.1523-.1157.4121-.1738.7979-.1738,1.1582,0,.2393.0439.4854.1318.7373.0884.252.2144.4805.3784.6846.1636.2041.3638.3701.5996.498s.5059.1914.8101.1914Z" style="fill:#221f20; stroke-width:0px;"/><path d="M140.3445,70.0355c0,.0479-.002.0957-.0063.1436-.0039.0479-.0059.0967-.0059.1445,0,.5762.186.9795.5581,1.2119s.8818.3477,1.5298.3477c.168,0,.3481-.0273.54-.084.1924-.0557.3721-.1396.54-.252.168-.1113.3062-.25.4141-.4141s.1621-.3535.1621-.5693c-.0083-.2959-.0981-.5303-.27-.7021-.1724-.1719-.3843-.3164-.6362-.4326-.252-.1152-.5259-.2178-.8218-.3057s-.5684-.1982-.8159-.3301c-.248-.1318-.4561-.2979-.624-.498s-.248-.4678-.2402-.8037c0-.2881.064-.5381.1924-.75.1274-.2119.2954-.3857.5039-.5225.208-.1357.4419-.2354.7017-.2998.2603-.0635.522-.0957.7861-.0957.2881,0,.5601.0342.8159.1016.2559.0684.48.166.6724.2939.1919.1279.3438.29.4556.4863.1123.1963.168.418.168.666,0,.0723-.002.1396-.0059.2041-.0039.0635-.0103.1475-.0181.252h-.4561c.0083-.0723.0142-.1396.0181-.2041s.0063-.1279.0063-.1924c0-.1992-.0444-.376-.1323-.5273-.0879-.1523-.208-.2783-.3599-.3779-.1519-.1006-.3281-.1758-.5278-.2285-.2002-.0518-.4121-.0781-.6362-.0781-.1841,0-.376.0205-.5762.0605-.1997.04-.3857.1074-.5576.2041-.1724.0957-.3145.2217-.4263.3779-.1118.1553-.168.3496-.168.582,0,.2002.0498.3701.1499.5098s.23.2617.3901.3662c.1602.1035.3423.1934.5459.2695.2041.0762.4102.1504.6182.2217.2158.0723.4258.1523.6299.2402s.3857.1943.5459.3184.2881.2715.3843.4443c.0957.1719.144.3779.144.6172,0,.3047-.0659.5723-.1982.8047-.1318.2314-.3057.4258-.522.582-.2158.1553-.46.2715-.7319.3477s-.5518.1143-.8398.1143c-.3281,0-.6362-.0322-.9243-.0967-.2876-.0635-.5381-.168-.75-.3115-.2119-.1445-.3799-.334-.5039-.5703-.124-.2354-.186-.5254-.186-.8701v-.2881c0-.0312.0044-.0674.0122-.1074h.4561Z" style="fill:#221f20; stroke-width:0px;"/><path d="M145.7928,65.9672h1.1396l.4199-1.9316h.4561l-.4199,1.9316h1.3203l-.0962.3965h-1.2959l-.936,4.2959c-.0083.0156-.0161.0498-.0239.1016-.0083.0527-.0181.1084-.0303.168-.0117.0605-.022.1182-.0298.1738-.0083.0566-.0122.0967-.0122.1201,0,.1768.0542.3066.1621.3906s.2861.126.5342.126c.2236,0,.4517-.0127.6836-.0361l-.084.3955c-.0801,0-.188.0068-.3237.0186-.1362.0117-.2759.0176-.4199.0176-.3604,0-.6182-.0801-.7739-.2402-.1562-.1592-.2344-.3877-.2344-.6836,0-.0801.0122-.1758.0361-.2881.0239-.1113.0439-.2119.0601-.2998l.936-4.2598h-1.1641l.0962-.3965Z" style="fill:#221f20; stroke-width:0px;"/><path d="M149.7522,65.9672h.4561l-.3359,1.4766h.0239c.2241-.4639.5303-.8506.918-1.1582.3882-.3076.8584-.4619,1.4102-.4619.064,0,.1279.002.1919.0059s.1279.0098.1924.0176l-.1323.4805c-.1201-.0322-.2441-.0479-.3721-.0479-.4478,0-.8262.1162-1.1338.3477-.3081.2324-.5659.5186-.7739.8584s-.3721.7061-.4922,1.0977-.2158.7441-.2881,1.0557l-.54,2.4961h-.4556l1.3315-6.168Z" style="fill:#221f20; stroke-width:0px;"/><path d="M152.4641,67.7436c.1602-.6885.4683-1.1797.9243-1.4766.4561-.2959,1.0317-.4434,1.728-.4434.1519,0,.3379.0176.5576.0537.2202.0361.4302.1084.6304.2158.1997.1084.3696.2568.5098.4443s.21.4375.21.75c0,.1357-.02.3135-.0601.5342-.04.2197-.084.4375-.1318.6533-.0479.2168-.0942.4121-.1382.5889-.0439.1758-.0698.2871-.0776.3359-.04.1602-.084.3359-.1323.5273-.0479.1924-.0918.3799-.1318.5645-.04.1836-.0742.3535-.1021.5098s-.042.2783-.042.3662c0,.1123.0278.2061.084.2822s.1401.1133.252.1133c.064,0,.1323-.0078.2041-.0234.0718-.0166.1401-.0322.2041-.0479l-.0723.4072c-.0879.0244-.1777.04-.27.0488-.0918.0078-.1777.0117-.2578.0117-.208,0-.3599-.0723-.4561-.2158-.0957-.1445-.144-.2842-.144-.4199,0-.0645.0122-.1465.0361-.2461.0239-.1006.0439-.1904.0601-.2705h-.0239c-.1201.2246-.272.416-.4561.5762s-.3804.292-.5879.3965c-.2085.1035-.4243.1797-.6484.2275-.2236.0479-.436.0723-.6357.0723-.2642,0-.5122-.0303-.7441-.0898-.2319-.0605-.4341-.1562-.606-.2881-.1719-.1328-.3081-.3018-.4077-.5107-.1001-.208-.1504-.4639-.1504-.7676,0-.3916.0762-.7119.228-.96s.354-.4404.606-.5762.54-.2295.8643-.2822c.3237-.0518.6616-.082,1.0142-.0898.4316-.0156.792-.0459,1.0796-.0898.2881-.0439.52-.1123.6963-.2041.1758-.0918.3018-.2139.3779-.3662.0757-.1514.1138-.3438.1138-.5752,0-.3848-.1182-.6904-.354-.9189-.2358-.2275-.6338-.3418-1.1938-.3418-.5518,0-1.0039.1221-1.356.3662s-.5962.6299-.7319,1.1582h-.4683ZM156.3284,68.6557h-.0239c-.0884.0879-.2124.1582-.3721.21-.1602.0518-.332.0957-.5161.1318s-.3701.0615-.5581.0781c-.188.0156-.3462.0283-.4736.0361-.2881.0078-.5723.0273-.8521.0596-.2803.0322-.5303.1006-.75.2041-.2202.1045-.3984.2539-.5342.4502-.1362.1963-.2041.4619-.2041.7979,0,.2324.0439.4277.1323.5879.0879.1602.2036.29.3477.3896.144.1006.3101.1729.498.2168s.3857.0654.5942.0654c.3677,0,.6899-.0635.9658-.1914s.5117-.3027.708-.5225c.1958-.2197.3599-.4736.4922-.7617.1318-.2881.2417-.5918.3301-.9121l.2158-.8398Z" style="fill:#221f20; stroke-width:0px;"/><path d="M163.2166,70.1195c-.2402.6396-.5942,1.1602-1.062,1.5596-.4683.4004-1.0542.6006-1.7583.6006-.4238,0-.7861-.0664-1.0859-.1982s-.5459-.3164-.7378-.5518c-.1924-.2363-.332-.5146-.4204-.834-.0879-.3203-.1318-.6719-.1318-1.0566,0-.4795.0801-.9473.2402-1.4033.1597-.4561.3857-.8643.6777-1.2246.292-.3594.644-.6475,1.0562-.8633.4116-.2168.8657-.3242,1.3618-.3242.3198,0,.6182.0498.894.1494.2759.1006.5142.2402.7139.4199.2002.1807.3521.3965.4561.6484s.144.5342.1201.8457h-.4561c0-.5273-.1538-.9375-.4619-1.2295s-.73-.4385-1.2661-.4385c-.4482,0-.8501.1025-1.2061.3066s-.6582.4697-.9058.7979c-.248.3281-.438.6943-.5703,1.0977-.1318.4043-.1978.8018-.1978,1.1943,0,.2959.0361.5801.1079.8516.0723.2725.1841.5146.3359.7266s.3462.3799.582.5039.5181.1855.8462.1855c.5757,0,1.062-.1621,1.458-.4854.396-.3242.6978-.75.9058-1.2783h.5044Z" style="fill:#221f20; stroke-width:0px;"/><path d="M164.3206,65.9672h1.1396l.4199-1.9316h.4561l-.4199,1.9316h1.3203l-.0962.3965h-1.2959l-.936,4.2959c-.0083.0156-.0161.0498-.0239.1016-.0083.0527-.0181.1084-.0303.168-.0117.0605-.022.1182-.0298.1738-.0083.0566-.0122.0967-.0122.1201,0,.1768.0542.3066.1621.3906s.2861.126.5342.126c.2236,0,.4517-.0127.6836-.0361l-.084.3955c-.0801,0-.188.0068-.3237.0186-.1362.0117-.2759.0176-.4199.0176-.3604,0-.6182-.0801-.7739-.2402-.1562-.1592-.2344-.3877-.2344-.6836,0-.0801.0122-.1758.0361-.2881.0239-.1113.0439-.2119.0601-.2998l.936-4.2598h-1.1641l.0962-.3965Z" style="fill:#221f20; stroke-width:0px;"/><path d="M167.5481,72.1352l.2764-1.2354h.5996l-.2759,1.2354h-.6001ZM168.6521,67.2035l.2764-1.2363h.5996l-.2759,1.2363h-.6001Z" style="fill:#221f20; stroke-width:0px;"/><path d="M175.0003,65.9672h.4561l-.3003,1.3438h.0239c.272-.4551.6162-.8174,1.0322-1.0859.416-.2676.9038-.4014,1.4639-.4014.2319,0,.4541.0381.666.1133.2119.0762.3979.1885.5581.3369.1602.1475.2881.3281.3838.54.0962.2119.144.4492.144.7139,0,.0713-.0059.1641-.0181.2754-.0117.1123-.0278.2285-.0479.3486s-.04.2334-.0601.3418c-.02.1074-.0381.1982-.0537.2695l-.7563,3.3721h-.4561l.7563-3.3594c.0078-.0566.022-.1367.042-.2402.0195-.1045.04-.2139.0601-.3301.0195-.1162.0376-.2344.0537-.3545.0161-.1191.0239-.2236.0239-.3115,0-.3916-.126-.71-.3779-.9541s-.6099-.3662-1.0737-.3662c-.3921,0-.7422.0928-1.0503.2764s-.5757.4219-.8037.7139-.4185.6162-.5703.9717c-.1519.3564-.2637.7061-.3359,1.0508l-.6118,2.9033h-.4561l1.3081-6.168Z" style="fill:#221f20; stroke-width:0px;"/><path d="M183.4964,65.8236c.7676,0,1.3657.2119,1.7939.6357.4277.4238.6421,1.0205.6421,1.7881,0,.4717-.0703.9482-.2104,1.4277-.1396.4805-.3477.9121-.6235,1.2959-.2764.3848-.6201.6982-1.0322.9424s-.8862.3662-1.4219.3662c-.4243,0-.79-.0625-1.0981-.1865s-.564-.2998-.7681-.5273c-.2041-.2285-.356-.5-.4561-.8164s-.1499-.6699-.1499-1.0625c0-.4639.0762-.9277.228-1.3916s.3701-.8779.6538-1.2422c.2842-.3633.6318-.6602,1.0444-.8877.4116-.2285.8774-.3418,1.3979-.3418ZM183.5921,66.2191c-.4722-.0078-.8921.0898-1.2598.2939-.3682.2041-.6782.4707-.9302.7979-.252.3281-.4438.6982-.5762,1.1104-.1318.4121-.1978.8223-.1978,1.2305,0,.3115.0381.6016.1138.8701.0762.2676.1963.5039.3604.708.1636.2031.3721.3633.624.4795s.5537.1738.9058.1738c.4722,0,.8862-.1143,1.2422-.3418s.6519-.5176.8877-.8701c.2358-.3516.4141-.7422.5342-1.1699s.1802-.8418.1802-1.2422c0-.6074-.1523-1.0957-.4561-1.4639-.3042-.3682-.7803-.5596-1.4282-.5762Z" style="fill:#221f20; stroke-width:0px;"/><path d="M190.9842,65.9672h.4556l-1.2837,6.168h-.4561l1.2842-6.168ZM191.4881,63.5678h.4561l-.252,1.2354h-.4561l.252-1.2354Z" style="fill:#221f20; stroke-width:0px;"/><path d="M193.0359,65.9672h.4561l-.2759,1.2842.0239.0244c.1118-.2002.2417-.3887.3896-.5645s.314-.3301.498-.4619.3843-.2363.6001-.3125c.2158-.0752.4478-.1133.6963-.1133.4878,0,.8618.1357,1.1216.4082.2603.2715.3901.6475.3901,1.1279h.0361c.1997-.4561.498-.8262.894-1.1104s.8457-.4258,1.3501-.4258c.2158,0,.4238.0322.6235.0957.2002.0645.3784.1602.5342.2881.1562.1279.2798.2822.3721.4619.0918.1797.1382.3896.1382.6299,0,.1924-.0161.3818-.0483.5703-.0317.1875-.0718.3896-.1196.6055l-.7803,3.6602h-.4561l.7803-3.6357c.0239-.1123.0576-.2715.1021-.4805.0435-.207.0659-.415.0659-.624,0-.2158-.04-.3994-.1201-.5518-.0801-.1514-.1841-.2734-.312-.3662-.1279-.0918-.2739-.1572-.438-.1973s-.334-.0605-.5103-.0605c-.2559,0-.5059.0762-.75.2285-.2437.1514-.4678.3457-.6719.582-.2041.2354-.3779.4941-.522.7734-.144.2803-.2441.5527-.2998.8164l-.7563,3.5156h-.4556l.7559-3.5156c.04-.1602.0718-.3477.0957-.5645.0244-.2158.0361-.4199.0361-.6113,0-.3926-.1079-.6943-.3237-.9062-.2163-.2119-.5083-.3184-.876-.3184-.3281,0-.6284.0947-.9004.2822-.272.1885-.5142.4238-.7256.708-.2124.2842-.3882.5918-.5283.9238s-.2422.6465-.3057.9424l-.6602,3.0596h-.4561l1.332-6.168Z" style="fill:#221f20; stroke-width:0px;"/><path d="M202.5642,65.9672h.4561l-.2642,1.2002h.0239c.0962-.1836.2222-.3584.3779-.5225.1562-.1631.3359-.3057.54-.4258s.4238-.2158.6602-.2881c.2358-.0713.4819-.1074.7378-.1074.4082,0,.7563.0654,1.0439.1982.2881.1318.5264.3115.7144.5391.1875.2285.3237.498.4077.8105.084.3115.126.6475.126,1.0078,0,.4561-.0698.916-.21,1.3799s-.3462.8818-.6177,1.2539c-.2725.3721-.6064.6768-1.0024.9121-.396.2363-.8501.3545-1.3618.3545-.5361,0-.9883-.1582-1.356-.4746-.3682-.3154-.6201-.7373-.7559-1.2656h-.0239l-.8403,3.8037h-.4561l1.8003-8.376ZM204.22,71.8832c.4561,0,.8521-.1113,1.188-.3359.3359-.2236.6182-.5078.8462-.8516s.3979-.7246.5098-1.1406c.1123-.416.168-.8115.168-1.1875,0-.3125-.04-.5977-.1196-.8584-.0801-.2598-.1982-.4854-.354-.6777-.1562-.1924-.3521-.3418-.5884-.4502-.2358-.1074-.5137-.1621-.834-.1621-.4478,0-.8438.1182-1.188.3545-.3438.2354-.6299.5322-.8579.8877-.228.3564-.3999.7402-.5161,1.1523-.1157.4121-.1738.7979-.1738,1.1582,0,.2393.0439.4854.1318.7373.0884.252.2144.4805.3784.6846.1636.2041.3638.3701.5996.498s.5059.1914.8101.1914Z" style="fill:#221f20; stroke-width:0px;"/><path d="M209.7161,63.5678h.4561l-1.7881,8.5674h-.4561l1.7881-8.5674Z" style="fill:#221f20; stroke-width:0px;"/><path d="M210.7,69.1117c-.0161.1113-.0303.2236-.042.3359-.0122.1123-.0181.2236-.0181.3359,0,.2803.0439.5479.1318.8037s.2139.4805.3779.6719c.1641.1924.3682.3447.6123.4561.2437.1123.522.168.834.168.2881,0,.562-.0498.8218-.1494.2603-.1006.4922-.2324.6963-.3965.2036-.1641.376-.3535.5156-.5703.1401-.2158.2383-.4434.2944-.6836h.4556c-.0879.3203-.2158.6143-.3838.8818-.168.2686-.3721.5-.6118.6963-.2402.1963-.5142.3477-.8223.4561-.3081.1074-.646.1621-1.0137.1621-.3921,0-.7363-.0645-1.0322-.1924s-.542-.3037-.7378-.5283c-.1963-.2236-.3442-.4834-.4443-.7793s-.1499-.6084-.1499-.9365c0-.5762.0762-1.1074.228-1.5957s.3677-.9121.6479-1.2725c.2798-.3594.624-.6416,1.0322-.8457.4077-.2041.8638-.3057,1.3677-.3057.3604,0,.6802.0596.96.1797.2803.1201.5161.2861.708.498.1924.2119.3379.4639.438.7559s.1504.6064.1504.9424c0,.1602-.0083.3135-.0244.4619s-.0356.2979-.0596.4502h-4.9321ZM215.2,68.7152c.0156-.1035.0298-.1953.042-.2754.0117-.0801.0181-.1602.0181-.2402,0-.2646-.0381-.5166-.1143-.7559-.0762-.2402-.1899-.4502-.3418-.6299-.1523-.1807-.3481-.3242-.5879-.4326-.2402-.1074-.5205-.1621-.8403-.1621-.3599,0-.686.0684-.978.2041-.292.1367-.5459.3203-.7617.5518-.2163.2324-.396.498-.54.7988-.144.2998-.252.6133-.3242.9414h4.4282Z" style="fill:#221f20; stroke-width:0px;"/><path d="M217.492,65.9672h.4561l-.2759,1.2842.0239.0244c.1118-.2002.2417-.3887.3896-.5645s.314-.3301.498-.4619.3843-.2363.6001-.3125c.2158-.0752.4478-.1133.6963-.1133.4878,0,.8618.1357,1.1216.4082.2603.2715.3901.6475.3901,1.1279h.0361c.1997-.4561.498-.8262.894-1.1104s.8457-.4258,1.3501-.4258c.2158,0,.4238.0322.6235.0957.2002.0645.3784.1602.5342.2881.1562.1279.2798.2822.3721.4619.0918.1797.1382.3896.1382.6299,0,.1924-.0161.3818-.0483.5703-.0317.1875-.0718.3896-.1196.6055l-.7803,3.6602h-.4561l.7803-3.6357c.0239-.1123.0576-.2715.1021-.4805.0435-.207.0659-.415.0659-.624,0-.2158-.04-.3994-.1201-.5518-.0801-.1514-.1841-.2734-.312-.3662-.1279-.0918-.2739-.1572-.438-.1973s-.334-.0605-.5103-.0605c-.2559,0-.5059.0762-.75.2285-.2437.1514-.4678.3457-.6719.582-.2041.2354-.3779.4941-.522.7734-.144.2803-.2441.5527-.2998.8164l-.7563,3.5156h-.4556l.7559-3.5156c.04-.1602.0718-.3477.0957-.5645.0244-.2158.0361-.4199.0361-.6113,0-.3926-.1079-.6943-.3237-.9062-.2163-.2119-.5083-.3184-.876-.3184-.3281,0-.6284.0947-.9004.2822-.272.1885-.5142.4238-.7256.708-.2124.2842-.3882.5918-.5283.9238s-.2422.6465-.3057.9424l-.6602,3.0596h-.4561l1.332-6.168Z" style="fill:#221f20; stroke-width:0px;"/><path d="M226.4798,69.1117c-.0161.1113-.0303.2236-.042.3359-.0122.1123-.0181.2236-.0181.3359,0,.2803.0439.5479.1318.8037s.2139.4805.3779.6719c.1641.1924.3682.3447.6123.4561.2437.1123.522.168.834.168.2881,0,.562-.0498.8218-.1494.2603-.1006.4922-.2324.6963-.3965.2036-.1641.376-.3535.5156-.5703.1401-.2158.2383-.4434.2944-.6836h.4556c-.0879.3203-.2158.6143-.3838.8818-.168.2686-.3721.5-.6118.6963-.2402.1963-.5142.3477-.8223.4561-.3081.1074-.646.1621-1.0137.1621-.3921,0-.7363-.0645-1.0322-.1924s-.542-.3037-.7378-.5283c-.1963-.2236-.3442-.4834-.4443-.7793s-.1499-.6084-.1499-.9365c0-.5762.0762-1.1074.228-1.5957s.3677-.9121.6479-1.2725c.2798-.3594.624-.6416,1.0322-.8457.4077-.2041.8638-.3057,1.3677-.3057.3604,0,.6802.0596.96.1797.2803.1201.5161.2861.708.498.1924.2119.3379.4639.438.7559s.1504.6064.1504.9424c0,.1602-.0083.3135-.0244.4619s-.0356.2979-.0596.4502h-4.9321ZM230.9798,68.7152c.0156-.1035.0298-.1953.042-.2754.0117-.0801.0181-.1602.0181-.2402,0-.2646-.0381-.5166-.1143-.7559-.0762-.2402-.1899-.4502-.3418-.6299-.1523-.1807-.3481-.3242-.5879-.4326-.2402-.1074-.5205-.1621-.8403-.1621-.3599,0-.686.0684-.978.2041-.292.1367-.5459.3203-.7617.5518-.2163.2324-.396.498-.54.7988-.144.2998-.252.6133-.3242.9414h4.4282Z" style="fill:#221f20; stroke-width:0px;"/><path d="M233.2478,65.9672h.4561l-.3003,1.3438h.0239c.272-.4551.6162-.8174,1.0322-1.0859.416-.2676.9038-.4014,1.4639-.4014.2319,0,.4541.0381.666.1133.2119.0762.3979.1885.5581.3369.1602.1475.2881.3281.3838.54.0962.2119.144.4492.144.7139,0,.0713-.0059.1641-.0181.2754-.0117.1123-.0278.2285-.0479.3486s-.04.2334-.0601.3418c-.02.1074-.0381.1982-.0537.2695l-.7563,3.3721h-.4561l.7563-3.3594c.0078-.0566.022-.1367.042-.2402.0195-.1045.04-.2139.0601-.3301.0195-.1162.0376-.2344.0537-.3545.0161-.1191.0239-.2236.0239-.3115,0-.3916-.126-.71-.3779-.9541s-.6099-.3662-1.0737-.3662c-.3921,0-.7422.0928-1.0503.2764s-.5757.4219-.8037.7139-.4185.6162-.5703.9717c-.1519.3564-.2637.7061-.3359,1.0508l-.6118,2.9033h-.4561l1.3081-6.168Z" style="fill:#221f20; stroke-width:0px;"/><path d="M238.576,65.9672h1.1396l.4199-1.9316h.4561l-.4199,1.9316h1.3203l-.0962.3965h-1.2959l-.936,4.2959c-.0083.0156-.0161.0498-.0239.1016-.0083.0527-.0181.1084-.0303.168-.0117.0605-.022.1182-.0298.1738-.0083.0566-.0122.0967-.0122.1201,0,.1768.0542.3066.1621.3906s.2861.126.5342.126c.2236,0,.4517-.0127.6836-.0361l-.084.3955c-.0801,0-.188.0068-.3237.0186-.1362.0117-.2759.0176-.4199.0176-.3604,0-.6182-.0801-.7739-.2402-.1562-.1592-.2344-.3877-.2344-.6836,0-.0801.0122-.1758.0361-.2881.0239-.1113.0439-.2119.0601-.2998l.936-4.2598h-1.1641l.0962-.3965Z" style="fill:#221f20; stroke-width:0px;"/><path d="M242.0555,67.7436c.1602-.6885.4683-1.1797.9243-1.4766.4561-.2959,1.0317-.4434,1.728-.4434.1523,0,.3379.0176.5576.0537.2207.0361.4307.1084.6309.2158.1992.1084.3691.2568.5098.4443.1396.1875.21.4375.21.75,0,.1357-.0205.3135-.0605.5342-.04.2197-.084.4375-.1318.6533-.0479.2168-.0938.4121-.1377.5889-.0439.1758-.0703.2871-.0781.3359l-.1318.5273c-.0479.1924-.0918.3799-.1318.5645-.04.1836-.0742.3535-.1025.5098-.0273.1562-.042.2783-.042.3662,0,.1123.0283.2061.084.2822.0566.0762.1406.1133.252.1133.0645,0,.1328-.0078.2041-.0234.0723-.0166.1406-.0322.2041-.0479l-.0723.4072c-.0879.0244-.1777.04-.2695.0488-.0918.0078-.1777.0117-.2578.0117-.208,0-.3604-.0723-.4561-.2158-.0957-.1445-.1445-.2842-.1445-.4199,0-.0645.0127-.1465.0361-.2461.0244-.1006.0439-.1904.0605-.2705h-.0244c-.1201.2246-.2715.416-.4561.5762-.1836.1602-.3799.292-.5879.3965-.2085.1035-.4243.1797-.6484.2275-.2236.0479-.436.0723-.6357.0723-.2642,0-.5122-.0303-.7441-.0898-.2319-.0605-.4341-.1562-.606-.2881-.1719-.1328-.3081-.3018-.4077-.5107-.1001-.208-.1504-.4639-.1504-.7676,0-.3916.0762-.7119.228-.96s.354-.4404.606-.5762.54-.2295.8643-.2822c.3237-.0518.6616-.082,1.0142-.0898.4316-.0156.7925-.0459,1.0796-.0898.2881-.0439.5205-.1123.6963-.2041s.3018-.2139.3779-.3662c.0762-.1514.1143-.3438.1143-.5752,0-.3848-.1182-.6904-.3545-.9189-.2354-.2275-.6338-.3418-1.1934-.3418-.5522,0-1.0044.1221-1.3564.3662s-.5962.6299-.7319,1.1582h-.4683ZM245.9197,68.6557h-.0234c-.0889.0879-.2129.1582-.3721.21-.1602.0518-.332.0957-.5166.1318-.1836.0361-.3701.0615-.5581.0781-.188.0156-.3462.0283-.4736.0361-.2881.0078-.5723.0273-.8521.0596-.2803.0322-.5303.1006-.75.2041-.2202.1045-.3984.2539-.5342.4502-.1362.1963-.2041.4619-.2041.7979,0,.2324.0439.4277.1323.5879.0879.1602.2036.29.3477.3896.144.1006.3101.1729.498.2168s.3857.0654.5942.0654c.3677,0,.6899-.0635.9658-.1914s.5117-.3027.708-.5225.3604-.4736.4922-.7617.2422-.5918.3301-.9121l.2158-.8398Z" style="fill:#221f20; stroke-width:0px;"/><path d="M247.6844,65.9672h1.1396l.4199-1.9316h.4561l-.4199,1.9316h1.3203l-.0967.3965h-1.2959l-.9355,4.2959c-.0088.0156-.0166.0498-.0244.1016-.0078.0527-.0176.1084-.0303.168-.0117.0605-.0215.1182-.0293.1738-.0088.0566-.0127.0967-.0127.1201,0,.1768.0547.3066.1621.3906.1084.084.2861.126.5342.126.2236,0,.4521-.0127.6836-.0361l-.084.3955c-.0801,0-.1875.0068-.3232.0186-.1367.0117-.2764.0176-.4199.0176-.3604,0-.6182-.0801-.7744-.2402-.1562-.1592-.2344-.3877-.2344-.6836,0-.0801.0127-.1758.0361-.2881.0244-.1113.0439-.2119.0605-.2998l.9355-4.2598h-1.1641l.0967-.3965Z" style="fill:#221f20; stroke-width:0px;"/><path d="M251.6678,65.9672h.4551l-1.2832,6.168h-.4561l1.2842-6.168ZM252.1717,63.5678h.4561l-.252,1.2354h-.4561l.252-1.2354Z" style="fill:#221f20; stroke-width:0px;"/><path d="M255.9637,65.8236c.7676,0,1.3652.2119,1.7939.6357.4277.4238.6416,1.0205.6416,1.7881,0,.4717-.0703.9482-.21,1.4277-.1396.4805-.3477.9121-.624,1.2959-.2764.3848-.6201.6982-1.0322.9424s-.8857.3662-1.4219.3662c-.4238,0-.79-.0625-1.0977-.1865-.3086-.124-.5645-.2998-.7686-.5273-.2041-.2285-.3555-.5-.4561-.8164-.0996-.3164-.1494-.6699-.1494-1.0625,0-.4639.0762-.9277.2275-1.3916.1523-.4639.3701-.8779.6543-1.2422.2842-.3633.6318-.6602,1.0439-.8877.4121-.2285.8779-.3418,1.3984-.3418ZM256.0594,66.2191c-.4727-.0078-.8926.0898-1.2598.2939-.3682.2041-.6787.4707-.9307.7979-.252.3281-.4434.6982-.5762,1.1104-.1318.4121-.1973.8223-.1973,1.2305,0,.3115.0381.6016.1133.8701.0762.2676.1963.5039.3604.708.1641.2031.3721.3633.624.4795s.5537.1738.9062.1738c.4717,0,.8857-.1143,1.2422-.3418.3555-.2275.6514-.5176.8877-.8701.2354-.3516.4141-.7422.5342-1.1699s.1797-.8418.1797-1.2422c0-.6074-.1523-1.0957-.4561-1.4639s-.7803-.5596-1.4277-.5762Z" style="fill:#221f20; stroke-width:0px;"/><path d="M260.1394,65.9672h.4561l-.2998,1.3438h.0234c.2725-.4551.6162-.8174,1.0322-1.0859.416-.2676.9043-.4014,1.4639-.4014.2324,0,.4541.0381.666.1133.2119.0762.3984.1885.5586.3369.1602.1475.2881.3281.3838.54s.1436.4492.1436.7139c0,.0713-.0059.1641-.0176.2754-.0117.1123-.0283.2285-.0479.3486-.0205.1201-.04.2334-.0605.3418-.0195.1074-.0381.1982-.0537.2695l-.7559,3.3721h-.4561l.7559-3.3594c.0078-.0566.0225-.1367.042-.2402.0195-.1045.04-.2139.0605-.3301.0195-.1162.0371-.2344.0537-.3545.0156-.1191.0234-.2236.0234-.3115,0-.3916-.126-.71-.3779-.9541s-.6094-.3662-1.0732-.3662c-.3926,0-.7422.0928-1.0508.2764-.3076.1836-.5752.4219-.8037.7139-.2275.292-.418.6162-.5703.9717-.1514.3564-.2637.7061-.3359,1.0508l-.6113,2.9033h-.4561l1.3076-6.168Z" style="fill:#221f20; stroke-width:0px;"/><rect x="1.1176" y="149.2648" width="166.6032" height="89.5087" rx="9" ry="9" style="fill:#ffebeb; stroke:#221f20; stroke-miterlimit:10;"/><path d="M24.6204,177.6625v-7.7109h-6.75v7.7109h-3.5742v-17.2734h3.5742v6.5859h6.75v-6.5859h3.5859v17.2734h-3.5859Z" style="fill:#221f20; stroke-width:0px;"/><path d="M31.8626,166.2719c.8828-1.125,2.3984-1.6875,4.5469-1.6875,1.3984,0,2.6406.2773,3.7266.832s1.6289,1.6016,1.6289,3.1406v5.8594c0,.4062.0078.8984.0234,1.4766.0234.4375.0898.7344.1992.8906s.2734.2852.4922.3867v.4922h-3.6328c-.1016-.2578-.1719-.5-.2109-.7266s-.0703-.4844-.0938-.7734c-.4609.5-.9922.9258-1.5938,1.2773-.7188.4141-1.5312.6211-2.4375.6211-1.1562,0-2.1113-.3301-2.8652-.9902s-1.1309-1.5957-1.1309-2.8066c0-1.5703.6055-2.707,1.8164-3.4102.6641-.3828,1.6406-.6562,2.9297-.8203l1.1367-.1406c.6172-.0781,1.0586-.1758,1.3242-.293.4766-.2031.7148-.5195.7148-.9492,0-.5234-.1816-.8848-.5449-1.084s-.8965-.2988-1.5996-.2988c-.7891,0-1.3477.1953-1.6758.5859-.2344.2891-.3906.6797-.4688,1.1719h-3.2227c.0703-1.1172.3828-2.0352.9375-2.7539ZM34.347,175.2484c.3125.2578.6953.3867,1.1484.3867.7188,0,1.3809-.2109,1.9863-.6328s.9199-1.1914.9434-2.3086v-1.2422c-.2109.1328-.4238.2402-.6387.3223s-.5098.1582-.8848.2285l-.75.1406c-.7031.125-1.207.2773-1.5117.457-.5156.3047-.7734.7773-.7734,1.418,0,.5703.1602.9805.4805,1.2305Z" style="fill:#221f20; stroke-width:0px;"/><path d="M50.7415,167.3617c-1.1328,0-1.9102.4805-2.332,1.4414-.2188.5078-.3281,1.1562-.3281,1.9453v6.9141h-3.3281v-12.75h3.2227v1.8633c.4297-.6562.8359-1.1289,1.2188-1.418.6875-.5156,1.5586-.7734,2.6133-.7734,1.3203,0,2.4004.3457,3.2402,1.0371s1.2598,1.8379,1.2598,3.4395v8.6016h-3.4219v-7.7695c0-.6719-.0898-1.1875-.2695-1.5469-.3281-.6562-.9531-.9844-1.875-.9844Z" style="fill:#221f20; stroke-width:0px;"/><path d="M71.0149,160.4125v17.25h-3.2461v-1.7695c-.4766.7578-1.0195,1.3086-1.6289,1.6523s-1.3672.5156-2.2734.5156c-1.4922,0-2.748-.6035-3.7676-1.8105s-1.5293-2.7559-1.5293-4.6465c0-2.1797.502-3.8945,1.5059-5.1445s2.3457-1.875,4.0254-1.875c.7734,0,1.4609.1699,2.0625.5098s1.0898.8105,1.4648,1.4121v-6.0938h3.3867ZM62.0149,171.3578c0,1.1797.2344,2.1211.7031,2.8242.4609.7109,1.1641,1.0664,2.1094,1.0664s1.6641-.3516,2.1562-1.0547.7383-1.6133.7383-2.7305c0-1.5625-.3945-2.6797-1.1836-3.3516-.4844-.4062-1.0469-.6094-1.6875-.6094-.9766,0-1.6934.3691-2.1504,1.1074s-.6855,1.6543-.6855,2.748Z" style="fill:#221f20; stroke-width:0px;"/><path d="M74.1204,160.3891h3.3398v17.2734h-3.3398v-17.2734Z" style="fill:#221f20; stroke-width:0px;"/><path d="M91.6516,173.9125c-.0859.7578-.4805,1.5273-1.1836,2.3086-1.0938,1.2422-2.625,1.8633-4.5938,1.8633-1.625,0-3.0586-.5234-4.3008-1.5703s-1.8633-2.75-1.8633-5.1094c0-2.2109.5605-3.9062,1.6816-5.0859s2.5762-1.7695,4.3652-1.7695c1.0625,0,2.0195.1992,2.8711.5977s1.5547,1.0273,2.1094,1.8867c.5.7578.8242,1.6367.9727,2.6367.0859.5859.1211,1.4297.1055,2.5312h-8.7422c.0469,1.2812.4492,2.1797,1.207,2.6953.4609.3203,1.0156.4805,1.6641.4805.6875,0,1.2461-.1953,1.6758-.5859.2344-.2109.4414-.5039.6211-.8789h3.4102ZM88.347,169.9984c-.0547-.8828-.3223-1.5527-.8027-2.0098s-1.0762-.6855-1.7871-.6855c-.7734,0-1.373.2422-1.7988.7266s-.6934,1.1406-.8027,1.9688h5.1914Z" style="fill:#221f20; stroke-width:0px;"/><path d="M101.7766,177.6625h-7.4414v-17.2734h7.4414c1.0703.0156,1.9609.1406,2.6719.375,1.2109.3984,2.1914,1.1289,2.9414,2.1914.6016.8594,1.0117,1.7891,1.2305,2.7891s.3281,1.9531.3281,2.8594c0,2.2969-.4609,4.2422-1.3828,5.8359-1.25,2.1484-3.1797,3.2227-5.7891,3.2227ZM104.4602,164.7953c-.5547-.9375-1.6523-1.4062-3.293-1.4062h-3.3281v11.2734h3.3281c1.7031,0,2.8906-.8398,3.5625-2.5195.3672-.9219.5508-2.0195.5508-3.293,0-1.7578-.2734-3.1094-.8203-4.0547Z" style="fill:#221f20; stroke-width:0px;"/><path d="M122.0501,166.5062c1.0781,1.3516,1.6172,2.9492,1.6172,4.793,0,1.875-.5391,3.4785-1.6172,4.8105s-2.7148,1.998-4.9102,1.998-3.832-.666-4.9102-1.998-1.6172-2.9355-1.6172-4.8105c0-1.8438.5391-3.4414,1.6172-4.793s2.7148-2.0273,4.9102-2.0273,3.832.6758,4.9102,2.0273ZM117.1282,167.3031c-.9766,0-1.7285.3457-2.2559,1.0371s-.791,1.6777-.791,2.959.2637,2.2695.791,2.9648,1.2793,1.043,2.2559,1.043,1.7266-.3477,2.25-1.043.7852-1.6836.7852-2.9648-.2617-2.2676-.7852-2.959-1.2734-1.0371-2.25-1.0371Z" style="fill:#221f20; stroke-width:0px;"/><path d="M136.7102,166.5062c1.0781,1.3516,1.6172,2.9492,1.6172,4.793,0,1.875-.5391,3.4785-1.6172,4.8105s-2.7148,1.998-4.9102,1.998-3.832-.666-4.9102-1.998-1.6172-2.9355-1.6172-4.8105c0-1.8438.5391-3.4414,1.6172-4.793s2.7148-2.0273,4.9102-2.0273,3.832.6758,4.9102,2.0273ZM131.7884,167.3031c-.9766,0-1.7285.3457-2.2559,1.0371s-.791,1.6777-.791,2.959.2637,2.2695.791,2.9648,1.2793,1.043,2.2559,1.043,1.7266-.3477,2.25-1.043.7852-1.6836.7852-2.9648-.2617-2.2676-.7852-2.959-1.2734-1.0371-2.25-1.0371Z" style="fill:#221f20; stroke-width:0px;"/><path d="M147.1399,167.9711c-1.3438,0-2.2461.4375-2.707,1.3125-.2578.4922-.3867,1.25-.3867,2.2734v6.1055h-3.3633v-12.7734h3.1875v2.2266c.5156-.8516.9648-1.4336,1.3477-1.7461.625-.5234,1.4375-.7852,2.4375-.7852.0625,0,.1152.002.1582.0059s.1387.0098.2871.0176v3.4219c-.2109-.0234-.3984-.0391-.5625-.0469s-.2969-.0117-.3984-.0117Z" style="fill:#221f20; stroke-width:0px;"/><path d="M13.4036,200.5336c.2021-.5381.4902-.9971.8638-1.376.3735-.3779.8213-.6719,1.3442-.8799.5225-.208,1.1094-.3115,1.7598-.3115s1.2402.1035,1.7681.3115.9785.502,1.3521.8799c.373.3789.6611.8379.8638,1.376.2026.5391.3042,1.1396.3042,1.8008s-.1016,1.2588-.3042,1.792-.4907.9893-.8638,1.3682c-.3735.3779-.8242.6689-1.3521.8711-.5278.2031-1.1177.3047-1.7681.3047s-1.2373-.1016-1.7598-.3047c-.5229-.2021-.9707-.4932-1.3442-.8711-.3735-.3789-.6616-.835-.8638-1.3682-.2026-.5332-.3042-1.1309-.3042-1.792s.1016-1.2617.3042-1.8008ZM15.4676,203.3021c.064.3145.1733.5977.3281.8477.1543.251.3599.4512.6157.6006s.5762.2236.96.2236c.3843,0,.7065-.0742.9683-.2236.2612-.1494.4692-.3496.624-.6006.1543-.25.2637-.5332.3276-.8477s.0962-.6377.0962-.9678c0-.3311-.0322-.6562-.0962-.9766-.064-.3193-.1733-.6025-.3276-.8477-.1548-.2451-.3628-.4453-.624-.5996-.2617-.1553-.584-.2324-.9683-.2324-.3838,0-.7041.0771-.96.2324-.2559.1543-.4614.3545-.6157.5996-.1548.2451-.2642.5283-.3281.8477-.064.3203-.0962.6455-.0962.9766,0,.3301.0322.6533.0962.9678Z" style="fill:#221f20; stroke-width:0px;"/><path d="M25.2913,198.1898v1.0566h.0322c.2769-.4482.6289-.7734,1.0557-.9766.4268-.2021.896-.3037,1.4082-.3037.6504,0,1.2104.123,1.6802.3682.4692.2451.8584.5703,1.168.9756.3091.4053.5386.8779.688,1.416.1489.5391.2236,1.1016.2236,1.6885,0,.5547-.0747,1.0879-.2236,1.5996-.1494.5117-.376.9658-.6802,1.3604s-.6826.709-1.1357.9434c-.4536.2344-.9844.3525-1.5923.3525-.5117,0-.9839-.1045-1.416-.3125s-.7866-.5146-1.064-.9199h-.0317v3.9199h-2.2725v-11.168h2.1602ZM28.2434,204.7504c.2505-.1494.4531-.3447.6079-.584.1543-.2402.2642-.5205.3281-.8408.064-.3193.0957-.6445.0957-.9756,0-.3301-.0347-.6562-.104-.9756-.0693-.3203-.1836-.6055-.3438-.8564-.1602-.25-.3657-.4531-.6162-.6074-.2505-.1553-.5571-.2324-.9199-.2324-.3735,0-.6855.0771-.936.2324-.2505.1543-.4536.3545-.6079.5996-.1548.2451-.2642.5283-.3281.8477-.064.3203-.0957.6514-.0957.9922,0,.3311.0342.6562.104.9756.0693.3203.1812.6006.3359.8408.1543.2393.3599.4346.6157.584.2563.1494.5654.2236.9282.2236.373,0,.6851-.0742.936-.2236Z" style="fill:#221f20; stroke-width:0px;"/><path d="M35.3391,204.4779c.3413.3311.832.4961,1.4722.4961.4585,0,.853-.1143,1.1841-.3438.3306-.2295.5332-.4727.6079-.7285h2c-.3198.9922-.811,1.7021-1.4722,2.1279-.6616.4268-1.4614.6406-2.3999.6406-.6509,0-1.2373-.1045-1.7598-.3125-.5229-.208-.9658-.5039-1.3281-.8877-.3628-.3838-.6431-.8428-.8403-1.376s-.2959-1.1201-.2959-1.7598c0-.6191.1016-1.1943.3042-1.7285.2026-.5332.4902-.9941.8638-1.3838s.8188-.6963,1.3359-.9199c.5176-.2236,1.0908-.3359,1.7202-.3359.7041,0,1.3174.1357,1.8398.4082.5225.2715.9521.6367,1.2881,1.0957s.5786.9814.728,1.5684c.1494.5859.2026,1.1992.1602,1.8398h-5.9683c.0322.7354.2188,1.2695.5601,1.5996ZM37.907,200.1264c-.272-.2988-.6851-.4482-1.2397-.4482-.3628,0-.6641.0615-.9038.1836-.2402.123-.4321.2754-.5762.4561-.144.1816-.2456.374-.3042.5762-.0586.2031-.0933.3838-.104.5439h3.6963c-.1069-.5762-.2959-1.0127-.5684-1.3115Z" style="fill:#221f20; stroke-width:0px;"/><path d="M44.2508,198.1898v1.1523h.0479c.2881-.4805.6616-.8291,1.1201-1.0479s.9282-.3281,1.4082-.3281c.6079,0,1.1064.083,1.4961.248.3892.165.6958.3945.9199.6875.2241.2939.3813.6514.4717,1.0723.0908.4219.1362.8877.1362,1.4004v5.0879h-2.272v-4.6719c0-.6826-.1069-1.1924-.3198-1.5283-.2139-.3359-.5923-.5039-1.1362-.5039-.6187,0-1.0669.1836-1.3442.5518s-.4155.9736-.4155,1.8164v4.3359h-2.2725v-8.2725h2.1602Z" style="fill:#221f20; stroke-width:0px;"/><path d="M54.2351,198.2943c-.2773,1.2217-.416,2.4609-.416,3.7197,0,1.2803.1362,2.5332.4082,3.7598s.7119,2.4219,1.3198,3.584h-1.8882c-.6719-1.0986-1.1919-2.2559-1.5601-3.4717-.3677-1.2158-.5518-2.4531-.5518-3.7119,0-.5977.0454-1.2246.1357-1.8799.0908-.6562.2241-1.3096.4004-1.96.1758-.6504.3945-1.2803.6558-1.8887.2612-.6074.5679-1.168.9199-1.6797h1.9043c-.6079,1.1309-1.0508,2.3066-1.3281,3.5283Z" style="fill:#221f20; stroke-width:0px;"/><path d="M56.6585,205.8461c.2827-1.2109.4238-2.4453.4238-3.7041,0-1.2803-.1387-2.5381-.416-3.7764-.2773-1.2363-.7095-2.4365-1.2959-3.5996h1.8721c.6719,1.0986,1.1919,2.2617,1.5601,3.4883s.5518,2.4697.5518,3.7275c0,.5977-.0425,1.2246-.1279,1.8799-.0854.6562-.2158,1.3066-.3921,1.9521-.1758.6455-.3975,1.2725-.6636,1.8799-.2671.6084-.5762,1.1631-.9282,1.6641h-1.8882c.5869-1.1309,1.0215-2.3008,1.3042-3.5117Z" style="fill:#221f20; stroke-width:0px;"/><path d="M20.3391,214.6947h.4561l-.3359,1.4756h.0239c.2241-.4639.5303-.8496.918-1.1582.3882-.3076.8584-.4619,1.4102-.4619.064,0,.1279.002.1919.0059.064.0049.1279.0107.1924.0186l-.1323.4795c-.1201-.0312-.2441-.0479-.3721-.0479-.4478,0-.8262.1162-1.1338.3486-.3081.2314-.5659.5176-.7739.8574s-.3721.7061-.4922,1.0986c-.1201.3916-.2158.7432-.2881,1.0557l-.54,2.4961h-.4556l1.3315-6.168Z" style="fill:#221f20; stroke-width:0px;"/><path d="M25.9197,214.5502c.7676,0,1.3657.2119,1.7939.6367.4277.4238.6421,1.0195.6421,1.7871,0,.4727-.0703.9482-.2104,1.4287-.1396.4795-.3477.9121-.6235,1.2959-.2764.3838-.6201.6982-1.0322.9414-.4121.2441-.8862.3662-1.4219.3662-.4243,0-.79-.0615-1.0981-.1855s-.564-.2998-.7681-.5283c-.2041-.2275-.356-.5-.4561-.8164-.1001-.3154-.1499-.6699-.1499-1.0615,0-.4639.0762-.9277.228-1.3916s.3701-.8779.6538-1.2422c.2842-.3643.6318-.6602,1.0444-.8887.4116-.2275.8774-.3418,1.3979-.3418ZM26.0154,214.9467c-.4722-.0078-.8921.0898-1.2598.2939-.3682.2041-.6782.4697-.9302.7979s-.4438.6982-.5762,1.1104c-.1318.4121-.1978.8213-.1978,1.2295,0,.3125.0381.6025.1138.8701.0762.2686.1963.5039.3604.708.1636.2041.3721.3643.624.4805.252.1152.5537.1738.9058.1738.4722,0,.8862-.1143,1.2422-.3428.356-.2275.6519-.5176.8877-.8691.2358-.3525.4141-.7422.5342-1.1699.1201-.4287.1802-.8428.1802-1.2422,0-.6084-.1523-1.0967-.4561-1.4639-.3042-.3682-.7803-.5605-1.4282-.5762Z" style="fill:#221f20; stroke-width:0px;"/><path d="M29.1956,214.6947h1.1396l.4199-1.9326h.4561l-.4199,1.9326h1.3203l-.0962.3955h-1.2959l-.936,4.2959c-.0083.0166-.0161.0508-.0239.1025-.0083.0518-.0181.1074-.0303.168-.0117.0596-.022.1182-.0298.1738-.0083.0557-.0122.0957-.0122.1201,0,.1758.0542.3057.1621.3896s.2861.126.5342.126c.2236,0,.4517-.0117.6836-.0361l-.084.3965c-.0801,0-.188.0059-.3237.0176-.1362.0127-.2759.0186-.4199.0186-.3604,0-.6182-.0801-.7739-.2402-.1562-.1602-.2344-.3877-.2344-.6836,0-.0801.0122-.1768.0361-.2881.0239-.1123.0439-.2119.0601-.3008l.936-4.2598h-1.1641l.0962-.3955Z" style="fill:#221f20; stroke-width:0px;"/><path d="M32.6751,216.4701c.1602-.6875.4683-1.1797.9243-1.4756s1.0317-.4443,1.728-.4443c.1519,0,.3379.0186.5576.0547.2202.0352.4302.1074.6304.2158.1997.1074.3696.2559.5098.4434.1401.1885.21.4385.21.75,0,.1367-.02.3145-.0601.5342-.04.2207-.084.4385-.1318.6543s-.0942.4121-.1382.5879-.0698.2881-.0776.3359c-.04.1602-.084.3359-.1323.5283-.0479.1914-.0918.3799-.1318.5635-.04.1846-.0742.3545-.1021.5107-.0278.1553-.042.2773-.042.3652,0,.1123.0278.2061.084.2822s.1401.1143.252.1143c.064,0,.1323-.0078.2041-.0244.0718-.0156.1401-.0312.2041-.0479l-.0723.4082c-.0879.0234-.1777.04-.27.0479-.0918.0078-.1777.0117-.2578.0117-.208,0-.3599-.0713-.4561-.2158-.0957-.1436-.144-.2842-.144-.4199,0-.0635.0122-.1455.0361-.2461.0239-.0996.0439-.1895.0601-.2695h-.0239c-.1201.2236-.272.416-.4561.5762-.1841.1592-.3804.292-.5879.3955-.2085.1045-.4243.1797-.6484.2275-.2236.0488-.436.0723-.6357.0723-.2642,0-.5122-.0303-.7441-.0898s-.4341-.1562-.606-.2881-.3081-.3018-.4077-.5098c-.1001-.208-.1504-.4639-.1504-.7686,0-.3916.0762-.7119.228-.96.1519-.2471.354-.4395.606-.5752.252-.1367.54-.2305.8643-.2822.3237-.0518.6616-.082,1.0142-.0898.4316-.0166.792-.0459,1.0796-.0898.2881-.0439.52-.1123.6963-.2041.1758-.0918.3018-.2139.3779-.3662.0757-.1523.1138-.3438.1138-.5762,0-.3838-.1182-.6904-.354-.918s-.6338-.3418-1.1938-.3418c-.5518,0-1.0039.1221-1.356.3662s-.5962.6299-.7319,1.1572h-.4683ZM36.5393,217.3822h-.0239c-.0884.0879-.2124.1582-.3721.21-.1602.0527-.332.0967-.5161.1318-.1841.0361-.3701.0625-.5581.0781-.188.0166-.3462.0283-.4736.0361-.2881.0078-.5723.0283-.8521.0605-.2803.0312-.5303.0996-.75.2041-.2202.1035-.3984.2539-.5342.4492-.1362.1963-.2041.4619-.2041.7979,0,.2324.0439.4287.1323.5889.0879.1602.2036.29.3477.3896s.3101.1719.498.2158.3857.0664.5942.0664c.3677,0,.6899-.0645.9658-.1924s.5117-.3018.708-.5215c.1958-.2207.3599-.4746.4922-.7627.1318-.2881.2417-.5918.3301-.9121l.2158-.8398Z" style="fill:#221f20; stroke-width:0px;"/><path d="M38.3035,214.6947h1.1396l.4199-1.9326h.4561l-.4199,1.9326h1.3203l-.0962.3955h-1.2959l-.936,4.2959c-.0083.0166-.0161.0508-.0239.1025-.0083.0518-.0181.1074-.0303.168-.0117.0596-.022.1182-.0298.1738-.0083.0557-.0122.0957-.0122.1201,0,.1758.0542.3057.1621.3896s.2861.126.5342.126c.2236,0,.4517-.0117.6836-.0361l-.084.3965c-.0801,0-.188.0059-.3237.0176-.1362.0127-.2759.0186-.4199.0186-.3604,0-.6182-.0801-.7739-.2402-.1562-.1602-.2344-.3877-.2344-.6836,0-.0801.0122-.1768.0361-.2881.0239-.1123.0439-.2119.0601-.3008l.936-4.2598h-1.1641l.0962-.3955Z" style="fill:#221f20; stroke-width:0px;"/><path d="M41.6033,217.8383c-.0161.1123-.0303.2246-.042.3359-.0122.1123-.0181.2246-.0181.3359,0,.2803.0439.5488.1318.8047s.2139.4795.3779.6719c.1641.1914.3682.3438.6123.4561.2437.1113.522.168.834.168.2881,0,.562-.0498.8218-.1504.2603-.0996.4922-.2314.6963-.3955.2036-.1641.376-.3545.5156-.5703.1401-.2158.2383-.4443.2944-.6836h.4556c-.0879.3193-.2158.6133-.3838.8818-.168.2676-.3721.5-.6118.6953-.2402.1963-.5142.3486-.8223.4561-.3081.1084-.646.1621-1.0137.1621-.3921,0-.7363-.0635-1.0322-.1914s-.542-.3047-.7378-.5283c-.1963-.2236-.3442-.4844-.4443-.7803s-.1499-.6074-.1499-.9355c0-.5762.0762-1.1084.228-1.5967.1519-.4873.3677-.9111.6479-1.2715.2798-.3604.624-.6416,1.0322-.8457.4077-.2041.8638-.3066,1.3677-.3066.3604,0,.6802.0605.96.1807.2803.1191.5161.2861.708.498.1924.2119.3379.4639.438.7559s.1504.6055.1504.9414c0,.1602-.0083.3145-.0244.4619-.0161.1484-.0356.2988-.0596.4502h-4.9321ZM46.1033,217.4428c.0156-.1045.0298-.1963.042-.2764.0117-.0801.0181-.1602.0181-.2402,0-.2637-.0381-.5156-.1143-.7559s-.1899-.4502-.3418-.6299c-.1523-.1797-.3481-.3242-.5879-.4316-.2402-.1084-.5205-.1621-.8403-.1621-.3599,0-.686.0674-.978.2041-.292.1357-.5459.3193-.7617.5518-.2163.2324-.396.498-.54.7979s-.252.6143-.3242.9424h4.4282Z" style="fill:#221f20; stroke-width:0px;"/><path d="M47.5794,218.7621c0,.0488-.002.0967-.0063.1445-.0039.0479-.0059.0957-.0059.1436,0,.5762.186.9805.5581,1.2119.3721.2324.8818.3486,1.5298.3486.168,0,.3481-.0283.54-.084.1924-.0566.3721-.1406.54-.252.168-.1123.3062-.25.4141-.4141s.1621-.3545.1621-.5703c-.0083-.2959-.0981-.5303-.27-.7021-.1724-.1719-.3843-.3154-.6362-.4316s-.5259-.2178-.8218-.3066c-.2959-.0879-.5684-.1973-.8159-.3291-.248-.1328-.4561-.2988-.624-.498-.168-.2002-.248-.4688-.2402-.8047,0-.2881.064-.5381.1924-.75.1274-.2119.2954-.3857.5039-.5215.208-.1357.4419-.2363.7017-.2998.2603-.0645.522-.0967.7861-.0967.2881,0,.5601.0342.8159.1025.2559.0674.48.166.6724.2939.1919.1279.3438.29.4556.4854.1123.1963.168.4189.168.666,0,.0723-.002.1406-.0059.2041-.0039.0645-.0103.1484-.0181.252h-.4561c.0083-.0713.0142-.1396.0181-.2041.0039-.0635.0063-.127.0063-.1914,0-.2002-.0444-.376-.1323-.5283-.0879-.1514-.208-.2773-.3599-.3779-.1519-.0996-.3281-.1758-.5278-.2275-.2002-.0527-.4121-.0781-.6362-.0781-.1841,0-.376.0195-.5762.0596-.1997.04-.3857.1084-.5576.2041-.1724.0957-.3145.2217-.4263.3779s-.168.3506-.168.582c0,.2002.0498.3701.1499.5098.1001.1406.23.2627.3901.3662.1602.1045.3423.1943.5459.2705.2041.0762.4102.1494.6182.2217.2158.0723.4258.1523.6299.2402s.3857.1934.5459.3174.2881.2725.3843.4443c.0957.1719.144.3779.144.6182,0,.3037-.0659.5723-.1982.8037-.1318.2324-.3057.4258-.522.582-.2158.1562-.46.2725-.7319.3477-.272.0762-.5518.1143-.8398.1143-.3281,0-.6362-.0322-.9243-.0957-.2876-.0645-.5381-.168-.75-.3125-.2119-.1436-.3799-.334-.5039-.5693-.124-.2363-.186-.5264-.186-.8701v-.2881c0-.0322.0044-.0684.0122-.1084h.4561Z" style="fill:#221f20; stroke-width:0px;"/><path d="M57.7674,212.2943h.4561l-.792,3.6963h.0239c.272-.4326.6157-.7803,1.0322-1.0439.4155-.2646.8999-.3965,1.4517-.3965.2319,0,.4541.0381.666.1143s.3979.1885.5581.3359c.1602.1484.2881.3281.3838.54.0962.2119.144.4502.144.7139,0,.0723-.0059.1641-.0181.2764-.0117.1123-.0278.2275-.0479.3477s-.04.2344-.0601.3418c-.02.1084-.0381.1982-.0537.2705l-.7563,3.3721h-.4561l.7563-3.3604c.0078-.0557.022-.1357.042-.2402.0195-.1035.04-.2139.0601-.3301.0195-.1152.0376-.2334.0537-.3535s.0239-.2236.0239-.3125c0-.3916-.126-.709-.3779-.9531s-.6099-.3662-1.0737-.3662c-.3921,0-.7422.0918-1.0503.2754-.3081.1846-.5757.4229-.8037.7148s-.4185.6152-.5703.9717c-.1519.3555-.2637.7061-.3359,1.0498l-.6118,2.9043h-.4561l1.812-8.5684Z" style="fill:#221f20; stroke-width:0px;"/><path d="M62.9627,216.4701c.1602-.6875.4683-1.1797.9243-1.4756s1.0317-.4443,1.728-.4443c.1519,0,.3379.0186.5576.0547.2202.0352.4302.1074.6304.2158.1997.1074.3696.2559.5098.4434.1401.1885.21.4385.21.75,0,.1367-.02.3145-.0601.5342-.04.2207-.084.4385-.1318.6543s-.0942.4121-.1382.5879-.0698.2881-.0776.3359c-.04.1602-.084.3359-.1323.5283-.0479.1914-.0918.3799-.1318.5635-.04.1846-.0742.3545-.1021.5107-.0278.1553-.042.2773-.042.3652,0,.1123.0278.2061.084.2822s.1401.1143.252.1143c.064,0,.1323-.0078.2041-.0244.0718-.0156.1401-.0312.2041-.0479l-.0723.4082c-.0879.0234-.1777.04-.27.0479-.0918.0078-.1777.0117-.2578.0117-.208,0-.3599-.0713-.4561-.2158-.0957-.1436-.144-.2842-.144-.4199,0-.0635.0122-.1455.0361-.2461.0239-.0996.0439-.1895.0601-.2695h-.0239c-.1201.2236-.272.416-.4561.5762-.1841.1592-.3804.292-.5879.3955-.2085.1045-.4243.1797-.6484.2275-.2236.0488-.436.0723-.6357.0723-.2642,0-.5122-.0303-.7441-.0898s-.4341-.1562-.606-.2881-.3081-.3018-.4077-.5098c-.1001-.208-.1504-.4639-.1504-.7686,0-.3916.0762-.7119.228-.96.1519-.2471.354-.4395.606-.5752.252-.1367.54-.2305.8643-.2822.3237-.0518.6616-.082,1.0142-.0898.4316-.0166.792-.0459,1.0796-.0898.2881-.0439.52-.1123.6963-.2041.1758-.0918.3018-.2139.3779-.3662.0757-.1523.1138-.3438.1138-.5762,0-.3838-.1182-.6904-.354-.918s-.6338-.3418-1.1938-.3418c-.5518,0-1.0039.1221-1.356.3662s-.5962.6299-.7319,1.1572h-.4683ZM66.8269,217.3822h-.0239c-.0884.0879-.2124.1582-.3721.21-.1602.0527-.332.0967-.5161.1318-.1841.0361-.3701.0625-.5581.0781-.188.0166-.3462.0283-.4736.0361-.2881.0078-.5723.0283-.8521.0605-.2803.0312-.5303.0996-.75.2041-.2202.1035-.3984.2539-.5342.4492-.1362.1963-.2041.4619-.2041.7979,0,.2324.0439.4287.1323.5889.0879.1602.2036.29.3477.3896s.3101.1719.498.2158.3857.0664.5942.0664c.3677,0,.6899-.0645.9658-.1924s.5117-.3018.708-.5215c.1958-.2207.3599-.4746.4922-.7627.1318-.2881.2417-.5918.3301-.9121l.2158-.8398Z" style="fill:#221f20; stroke-width:0px;"/><path d="M69.491,214.6947h.4561l-.3003,1.3438h.0239c.272-.4561.6162-.8184,1.0322-1.0859s.9038-.4023,1.4639-.4023c.2319,0,.4541.0381.666.1143s.3979.1885.5581.3359c.1602.1484.2881.3281.3838.54.0962.2119.144.4502.144.7139,0,.0723-.0059.1641-.0181.2764-.0117.1123-.0278.2275-.0479.3477s-.04.2344-.0601.3418c-.02.1084-.0381.1982-.0537.2705l-.7563,3.3721h-.4561l.7563-3.3604c.0078-.0557.022-.1357.042-.2402.0195-.1035.04-.2139.0601-.3301.0195-.1152.0376-.2334.0537-.3535s.0239-.2236.0239-.3125c0-.3916-.126-.709-.3779-.9531s-.6099-.3662-1.0737-.3662c-.3921,0-.7422.0918-1.0503.2754-.3081.1846-.5757.4229-.8037.7148s-.4185.6152-.5703.9717c-.1519.3555-.2637.7061-.3359,1.0498l-.6118,2.9043h-.4561l1.3081-6.168Z" style="fill:#221f20; stroke-width:0px;"/><path d="M81.3108,212.2943l-1.8237,8.5684h-.4561l.3237-1.3799-.0239-.0244c-.2319.4805-.542.8584-.9302,1.1338-.3877.2764-.8579.4141-1.4097.4141-.3843,0-.7222-.0635-1.0142-.1914s-.5361-.3047-.7319-.5283c-.1963-.2236-.3418-.4824-.438-.7744s-.144-.6016-.144-.9297c0-.4639.0698-.9355.21-1.416.1401-.4795.3521-.9141.6362-1.3018.2837-.3877.6357-.7041,1.0557-.9482.4204-.2441.9102-.3662,1.4702-.3662.5278,0,.9736.1445,1.3379.4326.3638.2881.5742.6875.6299,1.1992h.0244l.8276-3.8877h.4561ZM77.0867,220.6107c.4399,0,.8301-.126,1.1704-.3779.3398-.252.6216-.5703.8457-.9541s.394-.7998.5103-1.248c.1157-.4482.1738-.8682.1738-1.2598,0-.2246-.0381-.4463-.1138-.666-.0762-.2207-.186-.416-.3301-.5889-.144-.1719-.3223-.3096-.5342-.4131-.2119-.1045-.4502-.1562-.7139-.1562-.4883,0-.916.1123-1.2842.3359s-.6777.5078-.9297.8516c-.2524.3447-.4424.7266-.5703,1.1465s-.1919.8223-.1919,1.2061c0,.2715.0278.5361.084.792.0557.2559.1577.4814.3062.6777.1479.1963.3477.3545.5996.4736.2524.1201.5781.1807.978.1807Z" style="fill:#221f20; stroke-width:0px;"/><path d="M82.8714,212.2943h.4561l-1.7881,8.5684h-.4561l1.7881-8.5684Z" style="fill:#221f20; stroke-width:0px;"/><path d="M83.8553,217.8383c-.0161.1123-.0303.2246-.042.3359-.0122.1123-.0181.2246-.0181.3359,0,.2803.0439.5488.1318.8047s.2139.4795.3779.6719c.1641.1914.3682.3438.6123.4561.2437.1113.522.168.834.168.2881,0,.562-.0498.8218-.1504.2603-.0996.4922-.2314.6963-.3955.2036-.1641.376-.3545.5156-.5703.1401-.2158.2383-.4443.2944-.6836h.4556c-.0879.3193-.2158.6133-.3838.8818-.168.2676-.3721.5-.6118.6953-.2402.1963-.5142.3486-.8223.4561-.3081.1084-.646.1621-1.0137.1621-.3921,0-.7363-.0635-1.0322-.1914s-.542-.3047-.7378-.5283c-.1963-.2236-.3442-.4844-.4443-.7803s-.1499-.6074-.1499-.9355c0-.5762.0762-1.1084.228-1.5967.1519-.4873.3677-.9111.6479-1.2715.2798-.3604.624-.6416,1.0322-.8457.4077-.2041.8638-.3066,1.3677-.3066.3604,0,.6802.0605.96.1807.2803.1191.5161.2861.708.498.1924.2119.3379.4639.438.7559s.1504.6055.1504.9414c0,.1602-.0083.3145-.0244.4619-.0161.1484-.0356.2988-.0596.4502h-4.9321ZM88.3553,217.4428c.0156-.1045.0298-.1963.042-.2764.0117-.0801.0181-.1602.0181-.2402,0-.2637-.0381-.5156-.1143-.7559s-.1899-.4502-.3418-.6299c-.1523-.1797-.3481-.3242-.5879-.4316-.2402-.1084-.5205-.1621-.8403-.1621-.3599,0-.686.0674-.978.2041-.292.1357-.5459.3193-.7617.5518-.2163.2324-.396.498-.54.7979s-.252.6143-.3242.9424h4.4282Z" style="fill:#221f20; stroke-width:0px;"/><rect x="189.8867" y="149.2648" width="232.6064" height="89.5087" rx="9" ry="9" style="fill:#ecebff; stroke:#221f20; stroke-miterlimit:10;"/><path d="M210.4246,171.4516h-3.668v6.2109h-3.5859v-17.2734h7.5234c1.7344,0,3.1172.4453,4.1484,1.3359s1.5469,2.2695,1.5469,4.1367c0,2.0391-.5156,3.4805-1.5469,4.3242s-2.5039,1.2656-4.418,1.2656ZM212.1121,167.8539c.4688-.4141.7031-1.0703.7031-1.9688s-.2363-1.5391-.709-1.9219-1.1348-.5742-1.9863-.5742h-3.3633v5.0859h3.3633c.8516,0,1.5156-.207,1.9922-.6211Z" style="fill:#221f20; stroke-width:0px;"/><path d="M227.0183,175.8578c-.0312.0391-.1094.1562-.2344.3516s-.2734.3672-.4453.5156c-.5234.4688-1.0293.7891-1.5176.9609s-1.0605.2578-1.7168.2578c-1.8906,0-3.1641-.6797-3.8203-2.0391-.3672-.75-.5508-1.8555-.5508-3.3164v-7.6992h3.4219v7.6992c0,.7266.0859,1.2734.2578,1.6406.3047.6484.9023.9727,1.793.9727,1.1406,0,1.9219-.4609,2.3438-1.3828.2188-.5.3281-1.1602.3281-1.9805v-6.9492h3.3867v12.7734h-3.2461v-1.8047Z" style="fill:#221f20; stroke-width:0px;"/><path d="M242.2879,165.475c1,.6406,1.5742,1.7422,1.7227,3.3047h-3.3398c-.0469-.4297-.168-.7695-.3633-1.0195-.3672-.4531-.9922-.6797-1.875-.6797-.7266,0-1.2441.1133-1.5527.3398s-.4629.4922-.4629.7969c0,.3828.1641.6602.4922.832.3281.1797,1.4883.4883,3.4805.9258,1.3281.3125,2.3242.7852,2.9883,1.418.6562.6406.9844,1.4414.9844,2.4023,0,1.2656-.4707,2.2988-1.4121,3.0996s-2.3965,1.2012-4.3652,1.2012c-2.0078,0-3.4902-.4238-4.4473-1.2715s-1.4355-1.9277-1.4355-3.2402h3.3867c.0703.5938.2227,1.0156.457,1.2656.4141.4453,1.1797.668,2.2969.668.6562,0,1.1777-.0977,1.5645-.293s.5801-.4883.5801-.8789c0-.375-.1562-.6602-.4688-.8555s-1.4727-.5312-3.4805-1.0078c-1.4453-.3594-2.4648-.8086-3.0586-1.3477-.5938-.5312-.8906-1.2969-.8906-2.2969,0-1.1797.4629-2.1934,1.3887-3.041s2.2285-1.2715,3.9082-1.2715c1.5938,0,2.8945.3164,3.9023.9492Z" style="fill:#221f20; stroke-width:0px;"/><path d="M258.3777,170.1625v7.5h-3.4102v-7.7695c0-.6875-.1172-1.2422-.3516-1.6641-.3047-.5938-.8828-.8906-1.7344-.8906-.8828,0-1.5527.2949-2.0098.8848s-.6855,1.4316-.6855,2.5254v6.9141h-3.3281v-17.2148h3.3281v6.1055c.4844-.7422,1.0449-1.2598,1.6816-1.5527s1.3066-.4395,2.0098-.4395c.7891,0,1.5059.1367,2.1504.4102s1.1738.6914,1.5879,1.2539c.3516.4766.5664.9668.6445,1.4707s.1172,1.3262.1172,2.4668Z" style="fill:#221f20; stroke-width:0px;"/><path d="M269.6512,177.6625h-7.8281v-17.2734h8.3906c2.1172.0312,3.6172.6445,4.5,1.8398.5312.7344.7969,1.6133.7969,2.6367,0,1.0547-.2656,1.9023-.7969,2.543-.2969.3594-.7344.6875-1.3125.9844.8828.3203,1.5488.8281,1.998,1.5234s.6738,1.5391.6738,2.5312c0,1.0234-.2578,1.9414-.7734,2.7539-.3281.5391-.7383.9922-1.2305,1.3594-.5547.4219-1.209.7109-1.9629.8672s-1.5723.2344-2.4551.2344ZM271.3621,166.7641c.4688-.2812.7031-.7852.7031-1.5117,0-.8047-.3125-1.3359-.9375-1.5938-.5391-.1797-1.2266-.2695-2.0625-.2695h-3.7969v3.8086h4.2422c.7578,0,1.375-.1445,1.8516-.4336ZM269.5691,170.057h-4.3008v4.6055h4.2422c.7578,0,1.3477-.1016,1.7695-.3047.7656-.375,1.1484-1.0938,1.1484-2.1562,0-.8984-.3711-1.5156-1.1133-1.8516-.4141-.1875-.9961-.2852-1.7461-.293Z" style="fill:#221f20; stroke-width:0px;"/><path d="M279.3074,166.2719c.8828-1.125,2.3984-1.6875,4.5469-1.6875,1.3984,0,2.6406.2773,3.7266.832s1.6289,1.6016,1.6289,3.1406v5.8594c0,.4062.0078.8984.0234,1.4766.0234.4375.0898.7344.1992.8906s.2734.2852.4922.3867v.4922h-3.6328c-.1016-.2578-.1719-.5-.2109-.7266s-.0703-.4844-.0938-.7734c-.4609.5-.9922.9258-1.5938,1.2773-.7188.4141-1.5312.6211-2.4375.6211-1.1562,0-2.1113-.3301-2.8652-.9902s-1.1309-1.5957-1.1309-2.8066c0-1.5703.6055-2.707,1.8164-3.4102.6641-.3828,1.6406-.6562,2.9297-.8203l1.1367-.1406c.6172-.0781,1.0586-.1758,1.3242-.293.4766-.2031.7148-.5195.7148-.9492,0-.5234-.1816-.8848-.5449-1.084s-.8965-.2988-1.5996-.2988c-.7891,0-1.3477.1953-1.6758.5859-.2344.2891-.3906.6797-.4688,1.1719h-3.2227c.0703-1.1172.3828-2.0352.9375-2.7539ZM281.7918,175.2484c.3125.2578.6953.3867,1.1484.3867.7188,0,1.3809-.2109,1.9863-.6328s.9199-1.1914.9434-2.3086v-1.2422c-.2109.1328-.4238.2402-.6387.3223s-.5098.1582-.8848.2285l-.75.1406c-.7031.125-1.207.2773-1.5117.457-.5156.3047-.7734.7773-.7734,1.418,0,.5703.1602.9805.4805,1.2305Z" style="fill:#221f20; stroke-width:0px;"/><path d="M298.5965,167.9711c-1.3438,0-2.2461.4375-2.707,1.3125-.2578.4922-.3867,1.25-.3867,2.2734v6.1055h-3.3633v-12.7734h3.1875v2.2266c.5156-.8516.9648-1.4336,1.3477-1.7461.625-.5234,1.4375-.7852,2.4375-.7852.0625,0,.1152.002.1582.0059s.1387.0098.2871.0176v3.4219c-.2109-.0234-.3984-.0391-.5625-.0469s-.2969-.0117-.3984-.0117Z" style="fill:#221f20; stroke-width:0px;"/><path d="M309.2254,177.6625h-7.4414v-17.2734h7.4414c1.0703.0156,1.9609.1406,2.6719.375,1.2109.3984,2.1914,1.1289,2.9414,2.1914.6016.8594,1.0117,1.7891,1.2305,2.7891s.3281,1.9531.3281,2.8594c0,2.2969-.4609,4.2422-1.3828,5.8359-1.25,2.1484-3.1797,3.2227-5.7891,3.2227ZM311.909,164.7953c-.5547-.9375-1.6523-1.4062-3.293-1.4062h-3.3281v11.2734h3.3281c1.7031,0,2.8906-.8398,3.5625-2.5195.3672-.9219.5508-2.0195.5508-3.293,0-1.7578-.2734-3.1094-.8203-4.0547Z" style="fill:#221f20; stroke-width:0px;"/><path d="M329.4988,166.5062c1.0781,1.3516,1.6172,2.9492,1.6172,4.793,0,1.875-.5391,3.4785-1.6172,4.8105s-2.7148,1.998-4.9102,1.998-3.832-.666-4.9102-1.998-1.6172-2.9355-1.6172-4.8105c0-1.8438.5391-3.4414,1.6172-4.793s2.7148-2.0273,4.9102-2.0273,3.832.6758,4.9102,2.0273ZM324.5769,167.3031c-.9766,0-1.7285.3457-2.2559,1.0371s-.791,1.6777-.791,2.959.2637,2.2695.791,2.9648,1.2793,1.043,2.2559,1.043,1.7266-.3477,2.25-1.043.7852-1.6836.7852-2.9648-.2617-2.2676-.7852-2.959-1.2734-1.0371-2.25-1.0371Z" style="fill:#221f20; stroke-width:0px;"/><path d="M344.159,166.5062c1.0781,1.3516,1.6172,2.9492,1.6172,4.793,0,1.875-.5391,3.4785-1.6172,4.8105s-2.7148,1.998-4.9102,1.998-3.832-.666-4.9102-1.998-1.6172-2.9355-1.6172-4.8105c0-1.8438.5391-3.4414,1.6172-4.793s2.7148-2.0273,4.9102-2.0273,3.832.6758,4.9102,2.0273ZM339.2371,167.3031c-.9766,0-1.7285.3457-2.2559,1.0371s-.791,1.6777-.791,2.959.2637,2.2695.791,2.9648,1.2793,1.043,2.2559,1.043,1.7266-.3477,2.25-1.043.7852-1.6836.7852-2.9648-.2617-2.2676-.7852-2.959-1.2734-1.0371-2.25-1.0371Z" style="fill:#221f20; stroke-width:0px;"/><path d="M354.5887,167.9711c-1.3438,0-2.2461.4375-2.707,1.3125-.2578.4922-.3867,1.25-.3867,2.2734v6.1055h-3.3633v-12.7734h3.1875v2.2266c.5156-.8516.9648-1.4336,1.3477-1.7461.625-.5234,1.4375-.7852,2.4375-.7852.0625,0,.1152.002.1582.0059s.1387.0098.2871.0176v3.4219c-.2109-.0234-.3984-.0391-.5625-.0469s-.2969-.0117-.3984-.0117Z" style="fill:#221f20; stroke-width:0px;"/><path d="M202.1726,200.5336c.2021-.5381.4902-.9971.8638-1.376.3735-.3779.8213-.6719,1.3442-.8799.5225-.208,1.1094-.3115,1.7598-.3115s1.2402.1035,1.7681.3115.9785.502,1.3521.8799c.373.3789.6611.8379.8638,1.376.2026.5391.3042,1.1396.3042,1.8008s-.1016,1.2588-.3042,1.792-.4907.9893-.8638,1.3682c-.3735.3779-.8242.6689-1.3521.8711-.5278.2031-1.1177.3047-1.7681.3047s-1.2373-.1016-1.7598-.3047c-.5229-.2021-.9707-.4932-1.3442-.8711-.3735-.3789-.6616-.835-.8638-1.3682-.2026-.5332-.3042-1.1309-.3042-1.792s.1016-1.2617.3042-1.8008ZM204.2366,203.3021c.064.3145.1733.5977.3281.8477.1543.251.3599.4512.6157.6006s.5762.2236.96.2236c.3843,0,.7065-.0742.9683-.2236.2612-.1494.4692-.3496.624-.6006.1543-.25.2637-.5332.3276-.8477s.0962-.6377.0962-.9678c0-.3311-.0322-.6562-.0962-.9766-.064-.3193-.1733-.6025-.3276-.8477-.1548-.2451-.3628-.4453-.624-.5996-.2617-.1553-.584-.2324-.9683-.2324-.3838,0-.7041.0771-.96.2324-.2559.1543-.4614.3545-.6157.5996-.1548.2451-.2642.5283-.3281.8477-.064.3203-.0962.6455-.0962.9766,0,.3301.0322.6533.0962.9678Z" style="fill:#221f20; stroke-width:0px;"/><path d="M214.0603,198.1898v1.0566h.0322c.2769-.4482.6289-.7734,1.0557-.9766.4268-.2021.896-.3037,1.4082-.3037.6504,0,1.2104.123,1.6802.3682.4692.2451.8584.5703,1.168.9756.3091.4053.5386.8779.688,1.416.1489.5391.2236,1.1016.2236,1.6885,0,.5547-.0747,1.0879-.2236,1.5996-.1494.5117-.376.9658-.6802,1.3604s-.6826.709-1.1357.9434c-.4536.2344-.9844.3525-1.5923.3525-.5117,0-.9839-.1045-1.416-.3125s-.7866-.5146-1.064-.9199h-.0317v3.9199h-2.2725v-11.168h2.1602ZM217.0125,204.7504c.2505-.1494.4531-.3447.6079-.584.1543-.2402.2642-.5205.3281-.8408.064-.3193.0957-.6445.0957-.9756,0-.3301-.0347-.6562-.104-.9756-.0693-.3203-.1836-.6055-.3438-.8564-.1602-.25-.3657-.4531-.6162-.6074-.2505-.1553-.5571-.2324-.9199-.2324-.3735,0-.6855.0771-.936.2324-.2505.1543-.4536.3545-.6079.5996-.1548.2451-.2642.5283-.3281.8477-.064.3203-.0957.6514-.0957.9922,0,.3311.0342.6562.104.9756.0693.3203.1812.6006.3359.8408.1543.2393.3599.4346.6157.584.2563.1494.5654.2236.9282.2236.373,0,.6851-.0742.936-.2236Z" style="fill:#221f20; stroke-width:0px;"/><path d="M224.1082,204.4779c.3413.3311.832.4961,1.4722.4961.4585,0,.853-.1143,1.1841-.3438.3306-.2295.5332-.4727.6079-.7285h2c-.3198.9922-.811,1.7021-1.4722,2.1279-.6616.4268-1.4614.6406-2.3999.6406-.6509,0-1.2373-.1045-1.7598-.3125-.5229-.208-.9658-.5039-1.3281-.8877-.3628-.3838-.6431-.8428-.8403-1.376s-.2959-1.1201-.2959-1.7598c0-.6191.1016-1.1943.3042-1.7285.2026-.5332.4902-.9941.8638-1.3838s.8188-.6963,1.3359-.9199c.5176-.2236,1.0908-.3359,1.7202-.3359.7041,0,1.3174.1357,1.8398.4082.5225.2715.9521.6367,1.2881,1.0957s.5786.9814.728,1.5684c.1494.5859.2026,1.1992.1602,1.8398h-5.9683c.0322.7354.2188,1.2695.5601,1.5996ZM226.6761,200.1264c-.272-.2988-.6851-.4482-1.2397-.4482-.3628,0-.6641.0615-.9038.1836-.2402.123-.4321.2754-.5762.4561-.144.1816-.2456.374-.3042.5762-.0586.2031-.0933.3838-.104.5439h3.6963c-.1069-.5762-.2959-1.0127-.5684-1.3115Z" style="fill:#221f20; stroke-width:0px;"/><path d="M233.0198,198.1898v1.1523h.0479c.2881-.4805.6616-.8291,1.1201-1.0479s.9282-.3281,1.4082-.3281c.6079,0,1.1064.083,1.4961.248.3892.165.6958.3945.9199.6875.2241.2939.3813.6514.4717,1.0723.0908.4219.1362.8877.1362,1.4004v5.0879h-2.272v-4.6719c0-.6826-.1069-1.1924-.3198-1.5283-.2139-.3359-.5923-.5039-1.1362-.5039-.6187,0-1.0669.1836-1.3442.5518s-.4155.9736-.4155,1.8164v4.3359h-2.2725v-8.2725h2.1602Z" style="fill:#221f20; stroke-width:0px;"/><path d="M243.0042,198.2943c-.2773,1.2217-.416,2.4609-.416,3.7197,0,1.2803.1362,2.5332.4082,3.7598s.7119,2.4219,1.3198,3.584h-1.8882c-.6719-1.0986-1.1919-2.2559-1.5601-3.4717-.3677-1.2158-.5518-2.4531-.5518-3.7119,0-.5977.0454-1.2246.1357-1.8799.0908-.6562.2241-1.3096.4004-1.96.1758-.6504.3945-1.2803.6558-1.8887.2612-.6074.5679-1.168.9199-1.6797h1.9043c-.6079,1.1309-1.0508,2.3066-1.3281,3.5283Z" style="fill:#221f20; stroke-width:0px;"/><path d="M245.4275,205.8461c.2822-1.2109.4238-2.4453.4238-3.7041,0-1.2803-.1387-2.5381-.416-3.7764-.2773-1.2363-.71-2.4365-1.2959-3.5996h1.8721c.6719,1.0986,1.1914,2.2617,1.5596,3.4883s.5518,2.4697.5518,3.7275c0,.5977-.042,1.2246-.1279,1.8799-.085.6562-.2158,1.3066-.3916,1.9521s-.3975,1.2725-.6641,1.8799c-.2666.6084-.5762,1.1631-.9277,1.6641h-1.8882c.5864-1.1309,1.021-2.3008,1.3042-3.5117Z" style="fill:#221f20; stroke-width:0px;"/><path d="M209.1565,214.6947h.4561l-.2642,1.2002h.0239c.0962-.1846.2222-.3584.3779-.5225.1562-.1641.3359-.3057.54-.4258s.4238-.2158.6602-.2881c.2358-.0723.4819-.1084.7378-.1084.4082,0,.7563.0664,1.0439.1982.2881.1318.5264.3125.7144.54.1875.2275.3237.498.4077.8096.084.3125.126.6484.126,1.0088,0,.4561-.0698.916-.21,1.3799s-.3462.8818-.6177,1.2539c-.2725.3721-.6064.6758-1.0024.9121-.396.2354-.8501.3535-1.3618.3535-.5361,0-.9883-.1572-1.356-.4736-.3682-.3164-.6201-.7383-.7559-1.2666h-.0239l-.8403,3.8047h-.4561l1.8003-8.376ZM210.8123,220.6107c.4561,0,.8521-.1123,1.188-.3359.3359-.2246.6182-.5078.8462-.8525.228-.3438.3979-.7236.5098-1.1396.1123-.416.168-.8125.168-1.1885,0-.3115-.04-.5977-.1196-.8574-.0801-.2598-.1982-.4863-.354-.6787-.1562-.1914-.3521-.3418-.5884-.4492-.2358-.1084-.5137-.1621-.834-.1621-.4478,0-.8438.1182-1.188.3535-.3438.2363-.6299.5322-.8579.8887-.228.3555-.3999.7393-.5161,1.1514-.1157.4121-.1738.7979-.1738,1.1582,0,.2402.0439.4863.1318.7383.0884.252.2144.4795.3784.6836.1636.2041.3638.3701.5996.498s.5059.1924.8101.1924Z" style="fill:#221f20; stroke-width:0px;"/><path d="M219.1404,220.8627h-.4561l.2881-1.2959-.0239-.0244c-.1362.2324-.2803.4385-.4321.6182-.1523.1797-.3242.334-.5161.4619s-.4062.2236-.6421.2881c-.2358.0635-.5098.0957-.8218.0957-.2324,0-.4541-.0381-.666-.1143-.2124-.0752-.3979-.1875-.5581-.3359-.1602-.1475-.2881-.3271-.3838-.54-.0962-.2119-.144-.4492-.144-.7139,0-.0713.0059-.1631.0181-.2754.0117-.1123.0278-.2285.0479-.3486s.04-.2334.0601-.3418c.0195-.1074.0376-.1982.0537-.2695l.7563-3.3721h.4556l-.7559,3.3594c-.0161.0566-.0342.1367-.0537.2402-.0205.1045-.0405.2158-.0601.3359-.02.1201-.0361.2383-.0483.3545-.0117.1162-.0176.2178-.0176.3057,0,.3916.126.71.3779.9541s.6099.3662,1.0737.3662c.3682,0,.7021-.0918,1.002-.2764.3003-.1836.564-.4219.792-.7139s.416-.6162.564-.9717c.1479-.3564.2583-.7061.3301-1.0508l.6123-2.9033h.4561l-1.3081,6.168Z" style="fill:#221f20; stroke-width:0px;"/><path d="M221.2644,218.7621c0,.0488-.002.0967-.0063.1445-.0039.0479-.0059.0957-.0059.1436,0,.5762.186.9805.5581,1.2119.3721.2324.8818.3486,1.5298.3486.168,0,.3481-.0283.54-.084.1924-.0566.3721-.1406.54-.252.168-.1123.3062-.25.4141-.4141s.1621-.3545.1621-.5703c-.0083-.2959-.0981-.5303-.27-.7021-.1724-.1719-.3843-.3154-.6362-.4316s-.5259-.2178-.8218-.3066c-.2959-.0879-.5684-.1973-.8159-.3291-.248-.1328-.4561-.2988-.624-.498-.168-.2002-.248-.4688-.2402-.8047,0-.2881.064-.5381.1924-.75.1274-.2119.2954-.3857.5039-.5215.208-.1357.4419-.2363.7017-.2998.2603-.0645.522-.0967.7861-.0967.2881,0,.5601.0342.8159.1025.2559.0674.48.166.6724.2939.1919.1279.3438.29.4556.4854.1123.1963.168.4189.168.666,0,.0723-.002.1406-.0059.2041-.0039.0645-.0103.1484-.0181.252h-.4561c.0083-.0713.0142-.1396.0181-.2041.0039-.0635.0063-.127.0063-.1914,0-.2002-.0444-.376-.1323-.5283-.0879-.1514-.208-.2773-.3599-.3779-.1519-.0996-.3281-.1758-.5278-.2275-.2002-.0527-.4121-.0781-.6362-.0781-.1841,0-.376.0195-.5762.0596-.1997.04-.3857.1084-.5576.2041-.1724.0957-.3145.2217-.4263.3779s-.168.3506-.168.582c0,.2002.0498.3701.1499.5098.1001.1406.23.2627.3901.3662.1602.1045.3423.1943.5459.2705.2041.0762.4102.1494.6182.2217.2158.0723.4258.1523.6299.2402s.3857.1934.5459.3174.2881.2725.3843.4443c.0957.1719.144.3779.144.6182,0,.3037-.0659.5723-.1982.8037-.1318.2324-.3057.4258-.522.582-.2158.1562-.46.2725-.7319.3477-.272.0762-.5518.1143-.8398.1143-.3281,0-.6362-.0322-.9243-.0957-.2876-.0645-.5381-.168-.75-.3125-.2119-.1436-.3799-.334-.5039-.5693-.124-.2363-.186-.5264-.186-.8701v-.2881c0-.0322.0044-.0684.0122-.1084h.4561Z" style="fill:#221f20; stroke-width:0px;"/><path d="M228.1165,212.2943h.4561l-.792,3.6963h.0239c.272-.4326.6157-.7803,1.0322-1.0439.4155-.2646.8999-.3965,1.4517-.3965.2319,0,.4541.0381.666.1143s.3979.1885.5581.3359c.1602.1484.2881.3281.3838.54.0962.2119.144.4502.144.7139,0,.0723-.0059.1641-.0181.2764-.0117.1123-.0278.2275-.0479.3477s-.04.2344-.0601.3418c-.02.1084-.0381.1982-.0537.2705l-.7563,3.3721h-.4561l.7563-3.3604c.0078-.0557.022-.1357.042-.2402.0195-.1035.04-.2139.0601-.3301.0195-.1152.0376-.2334.0537-.3535s.0239-.2236.0239-.3125c0-.3916-.126-.709-.3779-.9531s-.6099-.3662-1.0737-.3662c-.3921,0-.7422.0918-1.0503.2754-.3081.1846-.5757.4229-.8037.7148s-.4185.6152-.5703.9717c-.1519.3555-.2637.7061-.3359,1.0498l-.6118,2.9043h-.4561l1.812-8.5684Z" style="fill:#221f20; stroke-width:0px;"/><path d="M233.3006,217.8383c-.0161.1123-.0303.2246-.042.3359-.0122.1123-.0181.2246-.0181.3359,0,.2803.0439.5488.1318.8047s.2139.4795.3779.6719c.1641.1914.3682.3438.6123.4561.2437.1113.522.168.834.168.2881,0,.562-.0498.8218-.1504.2603-.0996.4922-.2314.6963-.3955.2036-.1641.376-.3545.5156-.5703.1401-.2158.2383-.4443.2944-.6836h.4556c-.0879.3193-.2158.6133-.3838.8818-.168.2676-.3721.5-.6118.6953-.2402.1963-.5142.3486-.8223.4561-.3081.1084-.646.1621-1.0137.1621-.3921,0-.7363-.0635-1.0322-.1914s-.542-.3047-.7378-.5283c-.1963-.2236-.3442-.4844-.4443-.7803s-.1499-.6074-.1499-.9355c0-.5762.0762-1.1084.228-1.5967.1519-.4873.3677-.9111.6479-1.2715.2798-.3604.624-.6416,1.0322-.8457.4077-.2041.8638-.3066,1.3677-.3066.3604,0,.6802.0605.96.1807.2803.1191.5161.2861.708.498.1924.2119.3379.4639.438.7559s.1504.6055.1504.9414c0,.1602-.0083.3145-.0244.4619-.0161.1484-.0356.2988-.0596.4502h-4.9321ZM237.8006,217.4428c.0156-.1045.0298-.1963.042-.2764.0117-.0801.0181-.1602.0181-.2402,0-.2637-.0381-.5156-.1143-.7559s-.1899-.4502-.3418-.6299c-.1523-.1797-.3481-.3242-.5879-.4316-.2402-.1084-.5205-.1621-.8403-.1621-.3599,0-.686.0674-.978.2041-.292.1357-.5459.3193-.7617.5518-.2163.2324-.396.498-.54.7979s-.252.6143-.3242.9424h4.4282Z" style="fill:#221f20; stroke-width:0px;"/><path d="M239.2766,218.7621c0,.0488-.002.0967-.0063.1445-.0039.0479-.0059.0957-.0059.1436,0,.5762.186.9805.5581,1.2119.3721.2324.8818.3486,1.5298.3486.168,0,.3481-.0283.54-.084.1924-.0566.3721-.1406.54-.252.168-.1123.3062-.25.4141-.4141s.1621-.3545.1621-.5703c-.0083-.2959-.0981-.5303-.27-.7021-.1724-.1719-.3843-.3154-.6362-.4316s-.5259-.2178-.8218-.3066c-.2959-.0879-.5684-.1973-.8159-.3291-.248-.1328-.4561-.2988-.624-.498-.168-.2002-.248-.4688-.2402-.8047,0-.2881.064-.5381.1924-.75.1274-.2119.2954-.3857.5039-.5215.208-.1357.4419-.2363.7017-.2998.2603-.0645.522-.0967.7861-.0967.2881,0,.5601.0342.8159.1025.2559.0674.48.166.6724.2939.1919.1279.3438.29.4556.4854.1123.1963.168.4189.168.666,0,.0723-.002.1406-.0059.2041-.0039.0645-.0103.1484-.0181.252h-.4561c.0083-.0713.0142-.1396.0181-.2041.0039-.0635.0063-.127.0063-.1914,0-.2002-.0444-.376-.1323-.5283-.0879-.1514-.208-.2773-.3599-.3779-.1519-.0996-.3281-.1758-.5278-.2275-.2002-.0527-.4121-.0781-.6362-.0781-.1841,0-.376.0195-.5762.0596-.1997.04-.3857.1084-.5576.2041-.1724.0957-.3145.2217-.4263.3779s-.168.3506-.168.582c0,.2002.0498.3701.1499.5098.1001.1406.23.2627.3901.3662.1602.1045.3423.1943.5459.2705.2041.0762.4102.1494.6182.2217.2158.0723.4258.1523.6299.2402s.3857.1934.5459.3174.2881.2725.3843.4443c.0957.1719.144.3779.144.6182,0,.3037-.0659.5723-.1982.8037-.1318.2324-.3057.4258-.522.582-.2158.1562-.46.2725-.7319.3477-.272.0762-.5518.1143-.8398.1143-.3281,0-.6362-.0322-.9243-.0957-.2876-.0645-.5381-.168-.75-.3125-.2119-.1436-.3799-.334-.5039-.5693-.124-.2363-.186-.5264-.186-.8701v-.2881c0-.0322.0044-.0684.0122-.1084h.4561Z" style="fill:#221f20; stroke-width:0px;"/><path d="M248.9363,214.6947h.4551l-1.2832,6.168h-.4561l1.2842-6.168ZM249.4402,212.2943h.4561l-.252,1.2363h-.4561l.252-1.2363Z" style="fill:#221f20; stroke-width:0px;"/><path d="M250.9637,214.6947h.4561l-.2998,1.3438h.0234c.2725-.4561.6162-.8184,1.0322-1.0859s.9043-.4023,1.4639-.4023c.2324,0,.4541.0381.666.1143s.3984.1885.5586.3359c.1602.1484.2881.3281.3838.54s.1436.4502.1436.7139c0,.0723-.0059.1641-.0176.2764s-.0283.2275-.0479.3477c-.0205.1201-.04.2344-.0605.3418-.0195.1084-.0381.1982-.0537.2705l-.7559,3.3721h-.4561l.7559-3.3604c.0078-.0557.0225-.1357.042-.2402.0195-.1035.04-.2139.0605-.3301.0195-.1152.0371-.2334.0537-.3535.0156-.1201.0234-.2236.0234-.3125,0-.3916-.126-.709-.3779-.9531s-.6094-.3662-1.0732-.3662c-.3926,0-.7422.0918-1.0508.2754-.3076.1846-.5752.4229-.8037.7148-.2275.292-.418.6152-.5703.9717-.1514.3555-.2637.7061-.3359,1.0498l-.6113,2.9043h-.4561l1.3076-6.168Z" style="fill:#221f20; stroke-width:0px;"/><path d="M259.6287,214.6947h1.1396l.4199-1.9326h.4561l-.4199,1.9326h1.3203l-.0967.3955h-1.2959l-.9355,4.2959c-.0088.0166-.0166.0508-.0244.1025s-.0176.1074-.0303.168c-.0117.0596-.0215.1182-.0293.1738-.0088.0557-.0127.0957-.0127.1201,0,.1758.0547.3057.1621.3896.1084.084.2861.126.5342.126.2236,0,.4521-.0117.6836-.0361l-.084.3965c-.0801,0-.1875.0059-.3232.0176-.1367.0127-.2764.0186-.4199.0186-.3604,0-.6182-.0801-.7744-.2402s-.2344-.3877-.2344-.6836c0-.0801.0127-.1768.0361-.2881.0244-.1123.0439-.2119.0605-.3008l.9355-4.2598h-1.1641l.0967-.3955Z" style="fill:#221f20; stroke-width:0px;"/><path d="M264.1394,212.2943h.4561l-.792,3.6963h.0244c.2715-.4326.6152-.7803,1.0322-1.0439.415-.2646.8994-.3965,1.4512-.3965.2324,0,.4541.0381.666.1143s.3984.1885.5586.3359c.1602.1484.2881.3281.3838.54s.1436.4502.1436.7139c0,.0723-.0059.1641-.0176.2764s-.0283.2275-.0479.3477c-.0205.1201-.04.2344-.0605.3418-.0195.1084-.0381.1982-.0537.2705l-.7559,3.3721h-.4561l.7559-3.3604c.0078-.0557.0225-.1357.042-.2402.0195-.1035.04-.2139.0605-.3301.0195-.1152.0371-.2334.0537-.3535.0156-.1201.0234-.2236.0234-.3125,0-.3916-.126-.709-.3779-.9531s-.6094-.3662-1.0732-.3662c-.3926,0-.7422.0918-1.0508.2754-.3076.1846-.5752.4229-.8037.7148-.2275.292-.418.6152-.5703.9717-.1514.3555-.2637.7061-.3359,1.0498l-.6113,2.9043h-.4561l1.8115-8.5684Z" style="fill:#221f20; stroke-width:0px;"/><path d="M269.324,217.8383c-.0166.1123-.0303.2246-.042.3359-.0127.1123-.0186.2246-.0186.3359,0,.2803.0439.5488.1318.8047s.2139.4795.3779.6719c.1641.1914.3682.3438.6123.4561.2441.1113.5225.168.834.168.2881,0,.5625-.0498.8223-.1504.2598-.0996.4922-.2314.6963-.3955.2031-.1641.376-.3545.5156-.5703s.2383-.4443.2939-.6836h.4561c-.0879.3193-.2158.6133-.3838.8818-.168.2676-.3721.5-.6123.6953-.2402.1963-.5137.3486-.8223.4561-.3076.1084-.6455.1621-1.0137.1621-.3916,0-.7363-.0635-1.0322-.1914s-.542-.3047-.7373-.5283c-.1963-.2236-.3447-.4844-.4443-.7803-.1006-.2959-.1504-.6074-.1504-.9355,0-.5762.0762-1.1084.2285-1.5967.1514-.4873.3672-.9111.6475-1.2715s.624-.6416,1.0322-.8457.8643-.3066,1.3682-.3066c.3604,0,.6797.0605.96.1807.2803.1191.5156.2861.708.498s.3379.4639.4375.7559c.1006.292.1504.6055.1504.9414,0,.1602-.0078.3145-.0244.4619-.0156.1484-.0352.2988-.0596.4502h-4.9316ZM273.824,217.4428c.0156-.1045.0293-.1963.042-.2764.0117-.0801.0176-.1602.0176-.2402,0-.2637-.0381-.5156-.1143-.7559s-.1895-.4502-.3418-.6299-.3477-.3242-.5879-.4316c-.2402-.1084-.5205-.1621-.8398-.1621-.3604,0-.6865.0674-.9785.2041-.292.1357-.5459.3193-.7617.5518s-.3955.498-.54.7979c-.1436.2998-.252.6143-.3242.9424h4.4287Z" style="fill:#221f20; stroke-width:0px;"/><path d="M279.9441,212.2943h.4551l-.7793,3.6006h.0234c.0967-.1846.2227-.3584.3779-.5225.1562-.1641.3359-.3057.54-.4258s.4238-.2158.6602-.2881.4824-.1084.7383-.1084c.4082,0,.7559.0664,1.0439.1982s.5264.3125.7139.54.3242.498.4082.8096c.084.3125.126.6484.126,1.0088,0,.4561-.0703.916-.21,1.3799-.1406.4639-.3467.8818-.6182,1.2539-.2725.3721-.6064.6758-1.002.9121-.3965.2354-.8506.3535-1.3623.3535-.5361,0-.9883-.1572-1.3555-.4736-.3682-.3164-.6201-.7383-.7559-1.2666h-.0244l-.3477,1.5967h-.4561l1.8242-8.5684ZM281.0838,220.6107c.4561,0,.8516-.1123,1.1875-.3359.3359-.2246.6182-.5078.8467-.8525.2275-.3438.3975-.7236.5098-1.1396s.168-.8125.168-1.1885c0-.3115-.04-.5977-.1201-.8574s-.1982-.4863-.3535-.6787c-.1562-.1914-.3525-.3418-.5889-.4492-.2354-.1084-.5137-.1621-.834-.1621-.4473,0-.8438.1182-1.1875.3535-.3438.2363-.6299.5322-.8584.8887-.2275.3555-.3994.7393-.5156,1.1514s-.1738.7979-.1738,1.1582c0,.2402.0439.4863.1318.7383s.2139.4795.3779.6836.3643.3701.5996.498c.2363.1279.5059.1924.8105.1924Z" style="fill:#221f20; stroke-width:0px;"/><path d="M285.5711,216.4701c.1602-.6875.4688-1.1797.9248-1.4756s1.0312-.4443,1.7275-.4443c.1523,0,.3379.0186.5576.0547.2207.0352.4307.1074.6309.2158.1992.1074.3691.2559.5098.4434.1396.1885.21.4385.21.75,0,.1367-.0205.3145-.0605.5342-.04.2207-.084.4385-.1318.6543s-.0938.4121-.1377.5879-.0703.2881-.0781.3359c-.04.1602-.084.3359-.1318.5283-.0479.1914-.0918.3799-.1318.5635-.04.1846-.0742.3545-.1025.5107-.0273.1553-.042.2773-.042.3652,0,.1123.0283.2061.084.2822.0566.0762.1406.1143.252.1143.0645,0,.1328-.0078.2041-.0244.0723-.0156.1406-.0312.2041-.0479l-.0723.4082c-.0879.0234-.1777.04-.2695.0479s-.1777.0117-.2578.0117c-.208,0-.3604-.0713-.4561-.2158-.0957-.1436-.1445-.2842-.1445-.4199,0-.0635.0127-.1455.0361-.2461.0244-.0996.0439-.1895.0605-.2695h-.0244c-.1201.2236-.2715.416-.4561.5762-.1836.1592-.3799.292-.5879.3955-.208.1045-.4238.1797-.6484.2275-.2236.0488-.4355.0723-.6357.0723-.2637,0-.5117-.0303-.7441-.0898-.2314-.0596-.4336-.1562-.6055-.2881s-.3086-.3018-.4082-.5098-.1504-.4639-.1504-.7686c0-.3916.0762-.7119.2285-.96.1514-.2471.3535-.4395.6055-.5752.252-.1367.54-.2305.8643-.2822s.6621-.082,1.0146-.0898c.4316-.0166.792-.0459,1.0791-.0898.2881-.0439.5205-.1123.6963-.2041s.3018-.2139.3779-.3662.1143-.3438.1143-.5762c0-.3838-.1182-.6904-.3545-.918-.2354-.2275-.6338-.3418-1.1934-.3418-.5518,0-1.0039.1221-1.3564.3662-.3516.2441-.5957.6299-.7314,1.1572h-.4688ZM289.4353,217.3822h-.0234c-.0889.0879-.2129.1582-.3721.21-.1602.0527-.332.0967-.5166.1318-.1836.0361-.3701.0625-.5576.0781-.1885.0166-.3467.0283-.4736.0361-.2881.0078-.5723.0283-.8525.0605-.2803.0312-.5303.0996-.75.2041-.2197.1035-.3984.2539-.5342.4492-.1357.1963-.2041.4619-.2041.7979,0,.2324.0439.4287.1328.5889.0879.1602.2031.29.3477.3896.1436.0996.3096.1719.498.2158.1875.0439.3857.0664.5938.0664.3682,0,.6904-.0645.9658-.1924.2764-.1279.5117-.3018.708-.5215.1963-.2207.3604-.4746.4922-.7627s.2422-.5918.3301-.9121l.2158-.8398Z" style="fill:#221f20; stroke-width:0px;"/><path d="M292.0515,214.6947h.4561l-.3359,1.4756h.0234c.2246-.4639.5303-.8496.918-1.1582.3887-.3076.8584-.4619,1.4102-.4619.0645,0,.1279.002.1924.0059.0635.0049.1279.0107.1924.0186l-.1328.4795c-.1201-.0312-.2441-.0479-.3721-.0479-.4473,0-.8262.1162-1.1338.3486-.3076.2314-.5654.5176-.7734.8574s-.3721.7061-.4922,1.0986c-.1201.3916-.2158.7432-.2881,1.0557l-.54,2.4961h-.4561l1.332-6.168Z" style="fill:#221f20; stroke-width:0px;"/><path d="M78.5138,149.2647c0-14.8685,82.3362-20.3597,82.3362-44.4387v-10.8859" style="fill:none; stroke:#221f20; stroke-miterlimit:10;"/><polygon points="165.8363 98.6815 160.85 90.0463 155.8637 98.6815 165.8363 98.6815" style="fill:#221f20; stroke-width:0px;"/><path d="M306.1899,149.2647c0-14.8685-104.6205-20.3597-104.6205-44.4387v-10.8859" style="fill:none; stroke:#221f20; stroke-miterlimit:10;"/><polygon points="206.5557 98.6815 201.5694 90.0463 196.5831 98.6815 206.5557 98.6815" style="fill:#221f20; stroke-width:0px;"/></svg>