<?xml version="1.0" encoding="UTF-8"?><svg id="a" xmlns="http://www.w3.org/2000/svg" viewBox="0 0 422.4813 239.2749"><rect x="108.7409" y=".4423" width="166.6032" height="89.5087" rx="9" ry="9" style="fill:#ffffeb; stroke:#221f20; stroke-miterlimit:10;"/><path d="M129.384,28.8399h-7.4414V11.5664h7.4414c1.0703.0156,1.9609.1406,2.6719.375,1.2109.3984,2.1914,1.1289,2.9414,2.1914.6016.8594,1.0117,1.7891,1.2305,2.7891s.3281,1.9531.3281,2.8594c0,2.2969-.4609,4.2422-1.3828,5.8359-1.25,2.1484-3.1797,3.2227-5.7891,3.2227ZM132.0676,15.9727c-.5547-.9375-1.6523-1.4062-3.293-1.4062h-3.3281v11.2734h3.3281c1.7031,0,2.8906-.8398,3.5625-2.5195.3672-.9219.5508-2.0195.5508-3.293,0-1.7578-.2734-3.1094-.8203-4.0547Z" style="fill:#221f20; stroke-width:0px;"/><path d="M149.6575,17.6836c1.0781,1.3516,1.6172,2.9492,1.6172,4.793,0,1.875-.5391,3.4785-1.6172,4.8105s-2.7148,1.998-4.9102,1.998-3.832-.666-4.9102-1.998-1.6172-2.9355-1.6172-4.8105c0-1.8438.5391-3.4414,1.6172-4.793s2.7148-2.0273,4.9102-2.0273,3.832.6758,4.9102,2.0273ZM144.7356,18.4805c-.9766,0-1.7285.3457-2.2559,1.0371s-.791,1.6777-.791,2.959.2637,2.2695.791,2.9648,1.2793,1.043,2.2559,1.043,1.7266-.3477,2.25-1.043.7852-1.6836.7852-2.9648-.2617-2.2676-.7852-2.959-1.2734-1.0371-2.25-1.0371Z" style="fill:#221f20; stroke-width:0px;"/><path d="M164.3176,17.6836c1.0781,1.3516,1.6172,2.9492,1.6172,4.793,0,1.875-.5391,3.4785-1.6172,4.8105s-2.7148,1.998-4.9102,1.998-3.832-.666-4.9102-1.998-1.6172-2.9355-1.6172-4.8105c0-1.8438.5391-3.4414,1.6172-4.793s2.7148-2.0273,4.9102-2.0273,3.832.6758,4.9102,2.0273ZM159.3958,18.4805c-.9766,0-1.7285.3457-2.2559,1.0371s-.791,1.6777-.791,2.959.2637,2.2695.791,2.9648,1.2793,1.043,2.2559,1.043,1.7266-.3477,2.25-1.043.7852-1.6836.7852-2.9648-.2617-2.2676-.7852-2.959-1.2734-1.0371-2.25-1.0371Z" style="fill:#221f20; stroke-width:0px;"/><path d="M174.7473,19.1485c-1.3438,0-2.2461.4375-2.707,1.3125-.2578.4922-.3867,1.25-.3867,2.2734v6.1055h-3.3633v-12.7734h3.1875v2.2266c.5156-.8516.9648-1.4336,1.3477-1.7461.625-.5234,1.4375-.7852,2.4375-.7852.0625,0,.1152.002.1582.0059s.1387.0098.2871.0176v3.4219c-.2109-.0234-.3984-.0391-.5625-.0469s-.2969-.0117-.3984-.0117Z" style="fill:#221f20; stroke-width:0px;"/><path d="M126.5784,57.6397v-1.1519h-.0479c-.2881.48-.6616.8267-1.1201,1.04-.4585.2129-.9277.3198-1.4077.3198-.6084,0-1.1069-.0801-1.4961-.2402-.3896-.1597-.6963-.3862-.9199-.6797-.2241-.2935-.3818-.6504-.4722-1.0723-.0908-.4209-.1362-.8877-.1362-1.3999v-5.0879h2.2725v4.6719c0,.6826.1064,1.1919.3198,1.5283.2134.3359.5918.5039,1.1357.5039.6187,0,1.0669-.1841,1.3442-.5522.2773-.3677.416-.9731.416-1.8159v-4.3359h2.272v8.272h-2.1602Z" style="fill:#221f20; stroke-width:0px;"/><path d="M132.6262,49.3677v1.1519h.0479c.2881-.48.6616-.8291,1.1201-1.0479s.9282-.3281,1.4082-.3281c.6079,0,1.1064.083,1.4961.248.3892.1655.6958.395.9199.688.2241.2935.3813.6509.4717,1.0723.0908.4214.1362.8877.1362,1.3999v5.0879h-2.272v-4.6719c0-.6826-.1069-1.1919-.3198-1.5283-.2139-.3359-.5923-.5039-1.1362-.5039-.6187,0-1.0669.1841-1.3442.5522-.2773.3677-.4155.9731-.4155,1.8159v4.3359h-2.2725v-8.272h2.1602Z" style="fill:#221f20; stroke-width:0px;"/><path d="M142.2903,46.2158v11.4238h-2.272v-11.4238h2.272Z" style="fill:#221f20; stroke-width:0px;"/><path d="M144.1301,51.7114c.2021-.5381.4902-.9971.8638-1.376.3735-.3784.8213-.6719,1.3442-.8799.5225-.208,1.1094-.312,1.7598-.312s1.2402.104,1.7681.312.9785.5015,1.3521.8799c.373.3789.6611.8379.8638,1.376.2026.5391.3042,1.1392.3042,1.8003,0,.6616-.1016,1.2588-.3042,1.792s-.4907.9893-.8638,1.3682c-.3735.3784-.8242.6694-1.3521.8716-.5278.2026-1.1177.3042-1.7681.3042s-1.2373-.1016-1.7598-.3042c-.5229-.2021-.9707-.4932-1.3442-.8716-.3735-.3789-.6616-.835-.8638-1.3682-.2026-.5332-.3042-1.1304-.3042-1.792,0-.6611.1016-1.2612.3042-1.8003ZM146.1941,54.4795c.064.3149.1733.5977.3281.8481.1543.251.3599.4507.6157.6001s.5762.2241.96.2241c.3843,0,.7065-.0747.9683-.2241.2612-.1494.4692-.3491.624-.6001.1543-.2505.2637-.5332.3276-.8481.064-.3145.0962-.6372.0962-.9678s-.0322-.6562-.0962-.9761-.1733-.6025-.3276-.8481c-.1548-.2451-.3628-.4453-.624-.5996-.2617-.1548-.584-.2324-.9683-.2324-.3838,0-.7041.0776-.96.2324-.2559.1543-.4614.3545-.6157.5996-.1548.2456-.2642.5283-.3281.8481s-.0962.6455-.0962.9761.0322.6533.0962.9678Z" style="fill:#221f20; stroke-width:0px;"/><path d="M157.8098,50.8555c-.3628,0-.6665.083-.9121.248-.2451.1655-.4453.3789-.5996.6401-.1548.2617-.2642.5493-.3281.8638-.064.3149-.0962.627-.0962.936,0,.2988.0322.603.0962.9121.064.3096.168.5894.312.8398.144.251.3384.4561.584.6162.2451.1602.5439.2402.896.2402.5439,0,.9624-.1523,1.2559-.4561.2935-.3042.4775-.7119.5522-1.2241h2.1919c-.1494,1.0986-.5762,1.936-1.2803,2.5122-.7036.5757-1.6055.8638-2.7036.8638-.6191,0-1.187-.104-1.7041-.312-.5176-.208-.9575-.4985-1.3203-.8721-.3623-.373-.6455-.8184-.8477-1.3359-.2026-.5171-.3042-1.0854-.3042-1.7041,0-.6396.0933-1.2344.2803-1.7837.1865-.5493.4609-1.0244.8237-1.4243s.8052-.7119,1.3281-.936c.5225-.2236,1.1201-.3359,1.792-.3359.4902,0,.9624.064,1.416.1919.4531.1284.8584.3228,1.2158.584.3574.2617.6479.5869.8721.9761.2241.3896.3521.8511.3843,1.3843h-2.2241c-.1494-.9492-.7095-1.4243-1.6802-1.4243Z" style="fill:#221f20; stroke-width:0px;"/><path d="M165.5222,46.2158v6.1279l2.8638-2.9761h2.688l-3.1201,3.04,3.4722,5.2319h-2.752l-2.272-3.6958-.8799.8477v2.8481h-2.2725v-11.4238h2.2725Z" style="fill:#221f20; stroke-width:0px;"/><path d="M174.8816,49.4717c-.2773,1.2217-.416,2.4614-.416,3.7197,0,1.2803.1362,2.5337.4082,3.7603s.7119,2.4214,1.3198,3.584h-1.8882c-.6719-1.0986-1.1919-2.2559-1.5601-3.4722-.3677-1.2158-.5518-2.4531-.5518-3.7119,0-.5972.0454-1.2241.1357-1.8799.0908-.6562.2241-1.3091.4004-1.96.1758-.6504.3945-1.2803.6558-1.8882s.5679-1.168.9199-1.6797h1.9043c-.6079,1.1304-1.0508,2.3066-1.3281,3.5278Z" style="fill:#221f20; stroke-width:0px;"/><path d="M177.3054,57.0235c.2827-1.2104.4238-2.4448.4238-3.7036,0-1.2803-.1387-2.5386-.416-3.7764-.2773-1.2368-.7095-2.437-1.2959-3.5996h1.8721c.6719,1.0986,1.1919,2.2612,1.5601,3.4878s.5518,2.4697.5518,3.728c0,.5977-.0425,1.2241-.1279,1.8799-.0854.6562-.2158,1.3066-.3921,1.9521-.1758.6455-.3975,1.272-.6636,1.8799-.2671.6079-.5762,1.1626-.9282,1.6641h-1.8882c.5869-1.1309,1.0215-2.3013,1.3042-3.5122Z" style="fill:#221f20; stroke-width:0px;"/><path d="M127.4822,67.648c.1602-.688.4683-1.1797.9243-1.4761.4561-.2959,1.0317-.4438,1.728-.4438.1519,0,.3379.0181.5576.0542.2202.0356.4302.1079.6304.2158.1997.1079.3696.2563.5098.4438.1401.188.21.438.21.75,0,.1362-.02.314-.0601.5342s-.084.438-.1318.6538c-.0479.2163-.0942.4121-.1382.5884-.0439.1758-.0698.2876-.0776.3359-.04.1602-.084.3359-.1323.5278-.0479.1919-.0918.3799-.1318.564s-.0742.354-.1021.5103c-.0278.1558-.042.2778-.042.3657,0,.1123.0278.2061.084.2822s.1401.1138.252.1138c.064,0,.1323-.0078.2041-.0239s.1401-.0317.2041-.0479l-.0723.4077c-.0879.0239-.1777.04-.27.0483-.0918.0078-.1777.0117-.2578.0117-.208,0-.3599-.0718-.4561-.2158-.0957-.144-.144-.2842-.144-.4199,0-.064.0122-.146.0361-.2461s.0439-.1899.0601-.27h-.0239c-.1201.2241-.272.416-.4561.5762-.1841.1597-.3804.292-.5879.396-.2085.104-.4243.1797-.6484.2275-.2236.0483-.436.0723-.6357.0723-.2642,0-.5122-.0303-.7441-.0898-.2319-.0601-.4341-.1562-.606-.2881-.1719-.1323-.3081-.3018-.4077-.5103-.1001-.208-.1504-.4639-.1504-.7681,0-.3916.0762-.7119.228-.96.1519-.2476.354-.4399.606-.5757.252-.1362.54-.23.8643-.2822.3237-.0518.6616-.082,1.0142-.0898.4316-.0161.792-.0459,1.0796-.0898.2881-.0439.52-.1123.6963-.2041.1758-.0918.3018-.2139.3779-.3662.0757-.1519.1138-.3438.1138-.5757,0-.3843-.1182-.6904-.354-.9185-.2358-.2275-.6338-.3418-1.1938-.3418-.5518,0-1.0039.1221-1.356.3662s-.5962.6299-.7319,1.1577h-.4683ZM131.3464,68.5601h-.0239c-.0884.0879-.2124.1582-.3721.21-.1602.0522-.332.0962-.5161.1318-.1841.0361-.3701.062-.5581.0781s-.3462.0283-.4736.0361c-.2881.0078-.5723.0278-.8521.0601-.2803.0317-.5303.1001-.75.2041-.2202.104-.3984.2539-.5342.4497-.1362.1963-.2041.4619-.2041.7979,0,.2324.0439.4282.1323.5884.0879.1602.2036.29.3477.3896.144.1001.3101.1724.498.2163s.3857.0659.5942.0659c.3677,0,.6899-.064.9658-.1919s.5117-.3022.708-.522c.1958-.2202.3599-.4741.4922-.7622.1318-.2881.2417-.5918.3301-.9121l.2158-.8398Z" style="fill:#221f20; stroke-width:0px;"/><path d="M134.5266,63.4722h.4556l-.7798,3.6001h.0239c.0962-.1841.2222-.3584.3779-.5225.1562-.1636.3359-.3057.54-.4258s.4238-.2158.6602-.2881c.2358-.0718.4819-.1079.7378-.1079.4082,0,.7563.0659,1.0439.1982.2881.1318.5264.312.7144.5396.1875.228.3237.498.4077.8101s.126.6479.126,1.0083c0,.4561-.0698.916-.21,1.3799s-.3462.8818-.6177,1.2539c-.2725.3721-.6064.6763-1.0024.9121s-.8501.354-1.3618.354c-.5361,0-.9883-.1577-1.356-.4741-.3682-.3159-.6201-.7378-.7559-1.2661h-.0239l-.3481,1.5962h-.4561l1.8242-8.5679ZM135.6663,71.7881c.4561,0,.8521-.1118,1.188-.3359s.6182-.5078.8462-.8521c.228-.3438.3979-.7241.5098-1.1401.1123-.416.168-.812.168-1.188,0-.312-.04-.5977-.1196-.8579-.0801-.2598-.1982-.4858-.354-.6782-.1562-.1919-.3521-.3418-.5884-.4497-.2358-.1079-.5137-.1621-.834-.1621-.4478,0-.8438.1182-1.188.354-.3438.2358-.6299.5322-.8579.8882s-.3999.7397-.5161,1.1519c-.1157.4121-.1738.7979-.1738,1.1582,0,.2397.0439.4858.1318.7378.0884.252.2144.48.3784.6841.1636.2041.3638.3701.5996.498s.5059.1919.8101.1919Z" style="fill:#221f20; stroke-width:0px;"/><path d="M139.8904,69.94c0,.0483-.002.0962-.0063.144-.0039.0479-.0059.0962-.0059.144,0,.5762.186.98.5581,1.2119.3721.2324.8818.3481,1.5298.3481.168,0,.3481-.0278.54-.084.1924-.0562.3721-.1401.54-.252s.3062-.25.4141-.4141.1621-.354.1621-.5698c-.0083-.2959-.0981-.5303-.27-.7021-.1724-.1719-.3843-.3159-.6362-.4321-.252-.1157-.5259-.2178-.8218-.3062-.2959-.0879-.5684-.1978-.8159-.3296-.248-.1323-.4561-.2983-.624-.498-.168-.2002-.248-.4683-.2402-.8042,0-.2881.064-.5381.1924-.75.1274-.2119.2954-.3857.5039-.522.208-.1357.4419-.2358.7017-.2998.2603-.064.522-.0962.7861-.0962.2881,0,.5601.0342.8159.1021s.48.166.6724.2939c.1919.1279.3438.29.4556.4858.1123.1963.168.4185.168.666,0,.0723-.002.1401-.0059.2041s-.0103.1479-.0181.252h-.4561c.0083-.0718.0142-.1396.0181-.2041.0039-.064.0063-.1274.0063-.1919,0-.1997-.0444-.376-.1323-.5278s-.208-.2778-.3599-.3779-.3281-.1758-.5278-.228c-.2002-.0522-.4121-.0781-.6362-.0781-.1841,0-.376.02-.5762.0601-.1997.04-.3857.1079-.5576.2041-.1724.0957-.3145.2217-.4263.3779-.1118.1558-.168.3501-.168.582,0,.2002.0498.3701.1499.5098.1001.1401.23.2622.3901.3662s.3423.1938.5459.27c.2041.0762.4102.1499.6182.2217.2158.0723.4258.1523.6299.2402s.3857.1938.5459.3179.2881.272.3843.4443c.0957.1719.144.3779.144.6177,0,.3042-.0659.5723-.1982.8042-.1318.2319-.3057.4258-.522.582-.2158.1558-.46.272-.7319.3477-.272.0762-.5518.1143-.8398.1143-.3281,0-.6362-.0322-.9243-.0962-.2876-.064-.5381-.168-.75-.312s-.3799-.334-.5039-.5698-.186-.5259-.186-.8701v-.2881c0-.0317.0044-.0679.0122-.1079h.4561Z" style="fill:#221f20; stroke-width:0px;"/><path d="M145.3386,65.8721h1.1396l.4199-1.9321h.4561l-.4199,1.9321h1.3203l-.0962.396h-1.2959l-.936,4.2959c-.0083.0161-.0161.0503-.0239.1021-.0083.0522-.0181.1079-.0303.168-.0117.0601-.022.1182-.0298.1738-.0083.0562-.0122.0962-.0122.1201,0,.1763.0542.3062.1621.3901s.2861.126.5342.126c.2236,0,.4517-.0122.6836-.0361l-.084.396c-.0801,0-.188.0063-.3237.0181-.1362.0122-.2759.0181-.4199.0181-.3604,0-.6182-.0801-.7739-.2402-.1562-.1597-.2344-.3877-.2344-.6836,0-.0801.0122-.1763.0361-.2881s.0439-.2119.0601-.3003l.936-4.2598h-1.1641l.0962-.396Z" style="fill:#221f20; stroke-width:0px;"/><path d="M149.2981,65.8721h.4561l-.3359,1.4761h.0239c.2241-.4639.5303-.8501.918-1.1582.3882-.3076.8584-.4619,1.4102-.4619.064,0,.1279.002.1919.0059.064.0044.1279.0103.1924.0181l-.1323.48c-.1201-.0317-.2441-.0479-.3721-.0479-.4478,0-.8262.1162-1.1338.3481-.3081.2319-.5659.5181-.7739.8579s-.3721.7061-.4922,1.0981c-.1201.3916-.2158.7437-.2881,1.0557l-.54,2.4961h-.4556l1.3315-6.168Z" style="fill:#221f20; stroke-width:0px;"/><path d="M152.01,67.648c.1602-.688.4683-1.1797.9243-1.4761.4561-.2959,1.0317-.4438,1.728-.4438.1519,0,.3379.0181.5576.0542.2202.0356.4302.1079.6304.2158.1997.1079.3696.2563.5098.4438.1401.188.21.438.21.75,0,.1362-.02.314-.0601.5342s-.084.438-.1318.6538c-.0479.2163-.0942.4121-.1382.5884-.0439.1758-.0698.2876-.0776.3359-.04.1602-.084.3359-.1323.5278-.0479.1919-.0918.3799-.1318.564s-.0742.354-.1021.5103c-.0278.1558-.042.2778-.042.3657,0,.1123.0278.2061.084.2822s.1401.1138.252.1138c.064,0,.1323-.0078.2041-.0239s.1401-.0317.2041-.0479l-.0723.4077c-.0879.0239-.1777.04-.27.0483-.0918.0078-.1777.0117-.2578.0117-.208,0-.3599-.0718-.4561-.2158-.0957-.144-.144-.2842-.144-.4199,0-.064.0122-.146.0361-.2461s.0439-.1899.0601-.27h-.0239c-.1201.2241-.272.416-.4561.5762-.1841.1597-.3804.292-.5879.396-.2085.104-.4243.1797-.6484.2275-.2236.0483-.436.0723-.6357.0723-.2642,0-.5122-.0303-.7441-.0898-.2319-.0601-.4341-.1562-.606-.2881-.1719-.1323-.3081-.3018-.4077-.5103-.1001-.208-.1504-.4639-.1504-.7681,0-.3916.0762-.7119.228-.96.1519-.2476.354-.4399.606-.5757.252-.1362.54-.23.8643-.2822.3237-.0518.6616-.082,1.0142-.0898.4316-.0161.792-.0459,1.0796-.0898.2881-.0439.52-.1123.6963-.2041.1758-.0918.3018-.2139.3779-.3662.0757-.1519.1138-.3438.1138-.5757,0-.3843-.1182-.6904-.354-.9185-.2358-.2275-.6338-.3418-1.1938-.3418-.5518,0-1.0039.1221-1.356.3662s-.5962.6299-.7319,1.1577h-.4683ZM155.8743,68.5601h-.0239c-.0884.0879-.2124.1582-.3721.21-.1602.0522-.332.0962-.5161.1318-.1841.0361-.3701.062-.5581.0781s-.3462.0283-.4736.0361c-.2881.0078-.5723.0278-.8521.0601-.2803.0317-.5303.1001-.75.2041-.2202.104-.3984.2539-.5342.4497-.1362.1963-.2041.4619-.2041.7979,0,.2324.0439.4282.1323.5884.0879.1602.2036.29.3477.3896.144.1001.3101.1724.498.2163s.3857.0659.5942.0659c.3677,0,.6899-.064.9658-.1919s.5117-.3022.708-.522c.1958-.2202.3599-.4741.4922-.7622.1318-.2881.2417-.5918.3301-.9121l.2158-.8398Z" style="fill:#221f20; stroke-width:0px;"/><path d="M162.7625,70.0239c-.2402.6401-.5942,1.1602-1.062,1.5601-.4683.4004-1.0542.6001-1.7583.6001-.4238,0-.7861-.0659-1.0859-.1982-.2998-.1318-.5459-.3159-.7378-.5518-.1924-.2358-.332-.5142-.4204-.834-.0879-.3198-.1318-.6719-.1318-1.0562,0-.48.0801-.9478.2402-1.4038.1597-.4561.3857-.8643.6777-1.2241s.644-.6479,1.0562-.8638c.4116-.2163.8657-.3242,1.3618-.3242.3198,0,.6182.0503.894.1499.2759.1001.5142.2402.7139.4199.2002.1802.3521.396.4561.6479.104.2524.144.5342.1201.8462h-.4561c0-.5278-.1538-.938-.4619-1.23s-.73-.438-1.2661-.438c-.4482,0-.8501.1021-1.2061.3062s-.6582.4697-.9058.7979c-.248.3281-.438.6943-.5703,1.0981-.1318.4038-.1978.8018-.1978,1.1938,0,.2959.0361.5801.1079.8521.0723.272.1841.5142.3359.7261s.3462.3799.582.5039.5181.186.8462.186c.5757,0,1.062-.1621,1.458-.4858.396-.3242.6978-.75.9058-1.2783h.5044Z" style="fill:#221f20; stroke-width:0px;"/><path d="M163.8665,65.8721h1.1396l.4199-1.9321h.4561l-.4199,1.9321h1.3203l-.0962.396h-1.2959l-.936,4.2959c-.0083.0161-.0161.0503-.0239.1021-.0083.0522-.0181.1079-.0303.168-.0117.0601-.022.1182-.0298.1738-.0083.0562-.0122.0962-.0122.1201,0,.1763.0542.3062.1621.3901s.2861.126.5342.126c.2236,0,.4517-.0122.6836-.0361l-.084.396c-.0801,0-.188.0063-.3237.0181-.1362.0122-.2759.0181-.4199.0181-.3604,0-.6182-.0801-.7739-.2402-.1562-.1597-.2344-.3877-.2344-.6836,0-.0801.0122-.1763.0361-.2881s.0439-.2119.0601-.3003l.936-4.2598h-1.1641l.0962-.396Z" style="fill:#221f20; stroke-width:0px;"/><path d="M167.094,72.0401l.2764-1.2358h.5996l-.2759,1.2358h-.6001ZM168.198,67.1079l.2764-1.2358h.5996l-.2759,1.2358h-.6001Z" style="fill:#221f20; stroke-width:0px;"/><path d="M174.5462,65.8721h.4561l-.3003,1.3438h.0239c.272-.4556.6162-.8179,1.0322-1.0859.416-.2676.9038-.4019,1.4639-.4019.2319,0,.4541.0381.666.1138.2119.0762.3979.1885.5581.3364s.2881.3281.3838.54c.0962.2119.144.4497.144.7139,0,.0718-.0059.1641-.0181.2759-.0117.1123-.0278.228-.0479.3481s-.04.2339-.0601.3418-.0381.1982-.0537.27l-.7563,3.3721h-.4561l.7563-3.3599c.0078-.0562.022-.1362.042-.2402.0195-.104.04-.2139.0601-.3301.0195-.1157.0376-.2339.0537-.354.0161-.1196.0239-.2236.0239-.312,0-.3916-.126-.7095-.3779-.9536s-.6099-.3662-1.0737-.3662c-.3921,0-.7422.0923-1.0503.2759-.3081.1841-.5757.4224-.8037.7144s-.4185.6157-.5703.9717-.2637.7061-.3359,1.0503l-.6118,2.9038h-.4561l1.3081-6.168Z" style="fill:#221f20; stroke-width:0px;"/><path d="M183.0422,65.728c.7676,0,1.3657.2119,1.7939.6362.4277.4238.6421,1.02.6421,1.7876,0,.4722-.0703.9482-.2104,1.4282-.1396.48-.3477.9121-.6235,1.2959-.2764.3843-.6201.6982-1.0322.9419-.4121.2441-.8862.3662-1.4219.3662-.4243,0-.79-.062-1.0981-.186s-.564-.2998-.7681-.5278-.356-.5-.4561-.8164c-.1001-.3159-.1499-.6699-.1499-1.062,0-.4639.0762-.9277.228-1.3916s.3701-.8779.6538-1.2422c.2842-.3638.6318-.6602,1.0444-.8882.4116-.228.8774-.3418,1.3979-.3418ZM183.1379,66.124c-.4722-.0078-.8921.0898-1.2598.2939-.3682.2041-.6782.4702-.9302.7979-.252.3281-.4438.6982-.5762,1.1104-.1318.4121-.1978.8218-.1978,1.23,0,.312.0381.6021.1138.8701.0762.2681.1963.5039.3604.708.1636.2036.3721.3638.624.48.252.1157.5537.1738.9058.1738.4722,0,.8862-.1143,1.2422-.3423.356-.2275.6519-.5176.8877-.8696s.4141-.7422.5342-1.1699c.1201-.4282.1802-.8423.1802-1.2422,0-.6079-.1523-1.0962-.4561-1.4639-.3042-.3682-.7803-.5601-1.4282-.5762Z" style="fill:#221f20; stroke-width:0px;"/><path d="M190.53,65.8721h.4556l-1.2837,6.168h-.4561l1.2842-6.168ZM191.0339,63.4722h.4561l-.252,1.2358h-.4561l.252-1.2358Z" style="fill:#221f20; stroke-width:0px;"/><path d="M192.5818,65.8721h.4561l-.2759,1.2842.0239.0239c.1118-.2002.2417-.3882.3896-.564.1479-.1763.314-.3301.498-.4624.1841-.1318.3843-.2358.6001-.312.2158-.0757.4478-.1138.6963-.1138.4878,0,.8618.1362,1.1216.4082.2603.272.3901.6479.3901,1.1279h.0361c.1997-.4561.498-.8262.894-1.1104.396-.2837.8457-.4258,1.3501-.4258.2158,0,.4238.0322.6235.0962.2002.064.3784.1602.5342.2876.1562.1284.2798.2822.3721.4624.0918.1797.1382.3896.1382.6299,0,.1919-.0161.3818-.0483.5698-.0317.188-.0718.3901-.1196.606l-.7803,3.6602h-.4561l.7803-3.6362c.0239-.1118.0576-.2715.1021-.48.0435-.2075.0659-.4155.0659-.624,0-.2158-.04-.3999-.1201-.5518s-.1841-.2739-.312-.3662c-.1279-.0918-.2739-.1577-.438-.1978s-.334-.0601-.5103-.0601c-.2559,0-.5059.0762-.75.228-.2437.1519-.4678.3462-.6719.582s-.3779.4941-.522.7739c-.144.2803-.2441.5522-.2998.8159l-.7563,3.5161h-.4556l.7559-3.5161c.04-.1597.0718-.3477.0957-.564.0244-.2158.0361-.4199.0361-.6118,0-.3921-.1079-.6938-.3237-.9062-.2163-.2119-.5083-.3179-.876-.3179-.3281,0-.6284.0942-.9004.2822s-.5142.4238-.7256.708c-.2124.2837-.3882.5918-.5283.9238s-.2422.646-.3057.9419l-.6602,3.0601h-.4561l1.332-6.168Z" style="fill:#221f20; stroke-width:0px;"/><path d="M202.1101,65.8721h.4561l-.2642,1.2002h.0239c.0962-.1841.2222-.3584.3779-.5225.1562-.1636.3359-.3057.54-.4258s.4238-.2158.6602-.2881c.2358-.0718.4819-.1079.7378-.1079.4082,0,.7563.0659,1.0439.1982.2881.1318.5264.312.7144.5396.1875.228.3237.498.4077.8101s.126.6479.126,1.0083c0,.4561-.0698.916-.21,1.3799s-.3462.8818-.6177,1.2539c-.2725.3721-.6064.6763-1.0024.9121s-.8501.354-1.3618.354c-.5361,0-.9883-.1577-1.356-.4741-.3682-.3159-.6201-.7378-.7559-1.2661h-.0239l-.8403,3.8042h-.4561l1.8003-8.376ZM203.7659,71.7881c.4561,0,.8521-.1118,1.188-.3359s.6182-.5078.8462-.8521c.228-.3438.3979-.7241.5098-1.1401.1123-.416.168-.812.168-1.188,0-.312-.04-.5977-.1196-.8579-.0801-.2598-.1982-.4858-.354-.6782-.1562-.1919-.3521-.3418-.5884-.4497-.2358-.1079-.5137-.1621-.834-.1621-.4478,0-.8438.1182-1.188.354-.3438.2358-.6299.5322-.8579.8882s-.3999.7397-.5161,1.1519c-.1157.4121-.1738.7979-.1738,1.1582,0,.2397.0439.4858.1318.7378.0884.252.2144.48.3784.6841.1636.2041.3638.3701.5996.498s.5059.1919.8101.1919Z" style="fill:#221f20; stroke-width:0px;"/><path d="M209.262,63.4722h.4561l-1.7881,8.5679h-.4561l1.7881-8.5679Z" style="fill:#221f20; stroke-width:0px;"/><path d="M210.2459,69.0161c-.0161.1118-.0303.2241-.042.3359-.0122.1123-.0181.2241-.0181.3359,0,.2803.0439.5483.1318.8042s.2139.48.3779.6719.3682.3442.6123.4561c.2437.1118.522.168.834.168.2881,0,.562-.0498.8218-.1499.2603-.1001.4922-.2319.6963-.396.2036-.1641.376-.354.5156-.5703.1401-.2158.2383-.4438.2944-.6836h.4556c-.0879.3198-.2158.6138-.3838.8818s-.3721.5-.6118.6958c-.2402.1963-.5142.3481-.8223.4561s-.646.1621-1.0137.1621c-.3921,0-.7363-.064-1.0322-.1919s-.542-.3042-.7378-.5283c-.1963-.2236-.3442-.4839-.4443-.7798s-.1499-.6079-.1499-.936c0-.5762.0762-1.1079.228-1.5962.1519-.4878.3677-.9116.6479-1.272.2798-.3599.624-.6416,1.0322-.8457.4077-.2041.8638-.3062,1.3677-.3062.3604,0,.6802.0601.96.1802.2803.1196.5161.2861.708.498.1924.2119.3379.4639.438.7559s.1504.606.1504.9419c0,.1602-.0083.314-.0244.4619-.0161.1484-.0356.2983-.0596.4502h-4.9321ZM214.7459,68.6201c.0156-.104.0298-.1958.042-.2759.0117-.0801.0181-.1602.0181-.2402,0-.2642-.0381-.5161-.1143-.7559-.0762-.2402-.1899-.4502-.3418-.6299-.1523-.1802-.3481-.3242-.5879-.4321-.2402-.1079-.5205-.1621-.8403-.1621-.3599,0-.686.0679-.978.2041s-.5459.3198-.7617.5518c-.2163.2324-.396.498-.54.7983-.144.2998-.252.6138-.3242.9419h4.4282Z" style="fill:#221f20; stroke-width:0px;"/><path d="M217.0378,65.8721h.4561l-.2759,1.2842.0239.0239c.1118-.2002.2417-.3882.3896-.564.1479-.1763.314-.3301.498-.4624.1841-.1318.3843-.2358.6001-.312.2158-.0757.4478-.1138.6963-.1138.4878,0,.8618.1362,1.1216.4082.2603.272.3901.6479.3901,1.1279h.0361c.1997-.4561.498-.8262.894-1.1104.396-.2837.8457-.4258,1.3501-.4258.2158,0,.4238.0322.6235.0962.2002.064.3784.1602.5342.2876.1562.1284.2798.2822.3721.4624.0918.1797.1382.3896.1382.6299,0,.1919-.0161.3818-.0483.5698-.0317.188-.0718.3901-.1196.606l-.7803,3.6602h-.4561l.7803-3.6362c.0239-.1118.0576-.2715.1021-.48.0435-.2075.0659-.4155.0659-.624,0-.2158-.04-.3999-.1201-.5518s-.1841-.2739-.312-.3662c-.1279-.0918-.2739-.1577-.438-.1978s-.334-.0601-.5103-.0601c-.2559,0-.5059.0762-.75.228-.2437.1519-.4678.3462-.6719.582s-.3779.4941-.522.7739c-.144.2803-.2441.5522-.2998.8159l-.7563,3.5161h-.4556l.7559-3.5161c.04-.1597.0718-.3477.0957-.564.0244-.2158.0361-.4199.0361-.6118,0-.3921-.1079-.6938-.3237-.9062-.2163-.2119-.5083-.3179-.876-.3179-.3281,0-.6284.0942-.9004.2822s-.5142.4238-.7256.708c-.2124.2837-.3882.5918-.5283.9238s-.2422.646-.3057.9419l-.6602,3.0601h-.4561l1.332-6.168Z" style="fill:#221f20; stroke-width:0px;"/><path d="M226.0256,69.0161c-.0161.1118-.0303.2241-.042.3359-.0122.1123-.0181.2241-.0181.3359,0,.2803.0439.5483.1318.8042s.2139.48.3779.6719.3682.3442.6123.4561c.2437.1118.522.168.834.168.2881,0,.562-.0498.8218-.1499.2603-.1001.4922-.2319.6963-.396.2036-.1641.376-.354.5156-.5703.1401-.2158.2383-.4438.2944-.6836h.4556c-.0879.3198-.2158.6138-.3838.8818s-.3721.5-.6118.6958c-.2402.1963-.5142.3481-.8223.4561s-.646.1621-1.0137.1621c-.3921,0-.7363-.064-1.0322-.1919s-.542-.3042-.7378-.5283c-.1963-.2236-.3442-.4839-.4443-.7798s-.1499-.6079-.1499-.936c0-.5762.0762-1.1079.228-1.5962.1519-.4878.3677-.9116.6479-1.272.2798-.3599.624-.6416,1.0322-.8457.4077-.2041.8638-.3062,1.3677-.3062.3604,0,.6802.0601.96.1802.2803.1196.5161.2861.708.498.1924.2119.3379.4639.438.7559s.1504.606.1504.9419c0,.1602-.0083.314-.0244.4619-.0161.1484-.0356.2983-.0596.4502h-4.9321ZM230.5256,68.6201c.0156-.104.0298-.1958.042-.2759.0117-.0801.0181-.1602.0181-.2402,0-.2642-.0381-.5161-.1143-.7559-.0762-.2402-.1899-.4502-.3418-.6299-.1523-.1802-.3481-.3242-.5879-.4321-.2402-.1079-.5205-.1621-.8403-.1621-.3599,0-.686.0679-.978.2041s-.5459.3198-.7617.5518c-.2163.2324-.396.498-.54.7983-.144.2998-.252.6138-.3242.9419h4.4282Z" style="fill:#221f20; stroke-width:0px;"/><path d="M232.7937,65.8721h.4561l-.3003,1.3438h.0239c.272-.4556.6162-.8179,1.0322-1.0859.416-.2676.9038-.4019,1.4639-.4019.2319,0,.4541.0381.666.1138.2119.0762.3979.1885.5581.3364s.2881.3281.3838.54c.0962.2119.144.4497.144.7139,0,.0718-.0059.1641-.0181.2759-.0117.1123-.0278.228-.0479.3481s-.04.2339-.0601.3418-.0381.1982-.0537.27l-.7563,3.3721h-.4561l.7563-3.3599c.0078-.0562.022-.1362.042-.2402.0195-.104.04-.2139.0601-.3301.0195-.1157.0376-.2339.0537-.354.0161-.1196.0239-.2236.0239-.312,0-.3916-.126-.7095-.3779-.9536s-.6099-.3662-1.0737-.3662c-.3921,0-.7422.0923-1.0503.2759-.3081.1841-.5757.4224-.8037.7144s-.4185.6157-.5703.9717-.2637.7061-.3359,1.0503l-.6118,2.9038h-.4561l1.3081-6.168Z" style="fill:#221f20; stroke-width:0px;"/><path d="M238.1218,65.8721h1.1396l.4199-1.9321h.4561l-.4199,1.9321h1.3203l-.0962.396h-1.2959l-.936,4.2959c-.0083.0161-.0161.0503-.0239.1021-.0083.0522-.0181.1079-.0303.168-.0117.0601-.022.1182-.0298.1738-.0083.0562-.0122.0962-.0122.1201,0,.1763.0542.3062.1621.3901s.2861.126.5342.126c.2236,0,.4517-.0122.6836-.0361l-.084.396c-.0801,0-.188.0063-.3237.0181-.1362.0122-.2759.0181-.4199.0181-.3604,0-.6182-.0801-.7739-.2402-.1562-.1597-.2344-.3877-.2344-.6836,0-.0801.0122-.1763.0361-.2881s.0439-.2119.0601-.3003l.936-4.2598h-1.1641l.0962-.396Z" style="fill:#221f20; stroke-width:0px;"/><path d="M241.6013,67.648c.1602-.688.4683-1.1797.9243-1.4761.4561-.2959,1.0317-.4438,1.728-.4438.1523,0,.3379.0181.5576.0542.2207.0356.4307.1079.6309.2158.1992.1079.3691.2563.5098.4438.1396.188.21.438.21.75,0,.1362-.0205.314-.0605.5342s-.084.438-.1318.6538c-.0479.2163-.0938.4121-.1377.5884-.0439.1758-.0703.2876-.0781.3359-.04.1602-.084.3359-.1318.5278s-.0918.3799-.1318.564-.0742.354-.1025.5103c-.0273.1558-.042.2778-.042.3657,0,.1123.0283.2061.084.2822.0566.0762.1406.1138.252.1138.0645,0,.1328-.0078.2041-.0239.0723-.0161.1406-.0317.2041-.0479l-.0723.4077c-.0879.0239-.1777.04-.2695.0483-.0918.0078-.1777.0117-.2578.0117-.208,0-.3604-.0718-.4561-.2158s-.1445-.2842-.1445-.4199c0-.064.0127-.146.0361-.2461.0244-.1001.0439-.1899.0605-.27h-.0244c-.1201.2241-.2715.416-.4561.5762-.1836.1597-.3799.292-.5879.396-.2085.104-.4243.1797-.6484.2275-.2236.0483-.436.0723-.6357.0723-.2642,0-.5122-.0303-.7441-.0898-.2319-.0601-.4341-.1562-.606-.2881-.1719-.1323-.3081-.3018-.4077-.5103-.1001-.208-.1504-.4639-.1504-.7681,0-.3916.0762-.7119.228-.96.1519-.2476.354-.4399.606-.5757.252-.1362.54-.23.8643-.2822.3237-.0518.6616-.082,1.0142-.0898.4316-.0161.7925-.0459,1.0796-.0898.2881-.0439.5205-.1123.6963-.2041s.3018-.2139.3779-.3662c.0762-.1519.1143-.3438.1143-.5757,0-.3843-.1182-.6904-.3545-.9185-.2354-.2275-.6338-.3418-1.1934-.3418-.5522,0-1.0044.1221-1.3564.3662s-.5962.6299-.7319,1.1577h-.4683ZM245.4656,68.5601h-.0234c-.0889.0879-.2129.1582-.3721.21-.1602.0522-.332.0962-.5166.1318-.1836.0361-.3701.062-.5581.0781s-.3462.0283-.4736.0361c-.2881.0078-.5723.0278-.8521.0601-.2803.0317-.5303.1001-.75.2041-.2202.104-.3984.2539-.5342.4497-.1362.1963-.2041.4619-.2041.7979,0,.2324.0439.4282.1323.5884.0879.1602.2036.29.3477.3896.144.1001.3101.1724.498.2163s.3857.0659.5942.0659c.3677,0,.6899-.064.9658-.1919s.5117-.3022.708-.522c.1963-.2202.3604-.4741.4922-.7622s.2422-.5918.3301-.9121l.2158-.8398Z" style="fill:#221f20; stroke-width:0px;"/><path d="M247.2302,65.8721h1.1396l.4199-1.9321h.4561l-.4199,1.9321h1.3203l-.0967.396h-1.2959l-.9355,4.2959c-.0088.0161-.0166.0503-.0244.1021-.0078.0522-.0176.1079-.0303.168-.0117.0601-.0215.1182-.0293.1738-.0088.0562-.0127.0962-.0127.1201,0,.1763.0547.3062.1621.3901.1084.084.2861.126.5342.126.2236,0,.4521-.0122.6836-.0361l-.084.396c-.0801,0-.1875.0063-.3232.0181-.1367.0122-.2764.0181-.4199.0181-.3604,0-.6182-.0801-.7744-.2402-.1562-.1597-.2344-.3877-.2344-.6836,0-.0801.0127-.1763.0361-.2881.0244-.1118.0439-.2119.0605-.3003l.9355-4.2598h-1.1641l.0967-.396Z" style="fill:#221f20; stroke-width:0px;"/><path d="M251.2136,65.8721h.4551l-1.2832,6.168h-.4561l1.2842-6.168ZM251.7175,63.4722h.4561l-.252,1.2358h-.4561l.252-1.2358Z" style="fill:#221f20; stroke-width:0px;"/><path d="M255.5095,65.728c.7676,0,1.3652.2119,1.7939.6362.4277.4238.6416,1.02.6416,1.7876,0,.4722-.0703.9482-.21,1.4282s-.3477.9121-.624,1.2959c-.2764.3843-.6201.6982-1.0322.9419-.4121.2441-.8857.3662-1.4219.3662-.4238,0-.79-.062-1.0977-.186-.3086-.124-.5645-.2998-.7686-.5278s-.3555-.5-.4561-.8164c-.0996-.3159-.1494-.6699-.1494-1.062,0-.4639.0762-.9277.2275-1.3916.1523-.4639.3701-.8779.6543-1.2422.2842-.3638.6318-.6602,1.0439-.8882s.8779-.3418,1.3984-.3418ZM255.6052,66.124c-.4727-.0078-.8926.0898-1.2598.2939-.3682.2041-.6787.4702-.9307.7979-.252.3281-.4434.6982-.5762,1.1104-.1318.4121-.1973.8218-.1973,1.23,0,.312.0381.6021.1133.8701.0762.2681.1963.5039.3604.708.1641.2036.3721.3638.624.48.252.1157.5537.1738.9062.1738.4717,0,.8857-.1143,1.2422-.3423.3555-.2275.6514-.5176.8877-.8696.2354-.3521.4141-.7422.5342-1.1699.1201-.4282.1797-.8423.1797-1.2422,0-.6079-.1523-1.0962-.4561-1.4639-.3037-.3682-.7803-.5601-1.4277-.5762Z" style="fill:#221f20; stroke-width:0px;"/><path d="M259.6853,65.8721h.4561l-.2998,1.3438h.0234c.2725-.4556.6162-.8179,1.0322-1.0859.416-.2676.9043-.4019,1.4639-.4019.2324,0,.4541.0381.666.1138.2119.0762.3984.1885.5586.3364s.2881.3281.3838.54.1436.4497.1436.7139c0,.0718-.0059.1641-.0176.2759-.0117.1123-.0283.228-.0479.3481-.0205.1201-.04.2339-.0605.3418-.0195.1079-.0381.1982-.0537.27l-.7559,3.3721h-.4561l.7559-3.3599c.0078-.0562.0225-.1362.042-.2402s.04-.2139.0605-.3301c.0195-.1157.0371-.2339.0537-.354.0156-.1196.0234-.2236.0234-.312,0-.3916-.126-.7095-.3779-.9536s-.6094-.3662-1.0732-.3662c-.3926,0-.7422.0923-1.0508.2759-.3076.1841-.5752.4224-.8037.7144-.2275.292-.418.6157-.5703.9717-.1514.356-.2637.7061-.3359,1.0503l-.6113,2.9038h-.4561l1.3076-6.168Z" style="fill:#221f20; stroke-width:0px;"/><rect x=".6635" y="149.1695" width="166.6032" height="89.5087" rx="9" ry="9" style="fill:#ebffff; stroke:#221f20; stroke-miterlimit:10;"/><path d="M29.1702,177.5669h-4.6406l-5.332-7.5469-1.7227,1.7695v5.7773h-3.5508v-17.2734h3.5508v7.1133l6.668-7.1133h4.6641l-7.0781,7.1133,7.4414,10.1602Z" style="fill:#221f20; stroke-width:0px;"/><path d="M41.8616,173.8169c-.0859.7578-.4805,1.5273-1.1836,2.3086-1.0938,1.2422-2.625,1.8633-4.5938,1.8633-1.625,0-3.0586-.5234-4.3008-1.5703s-1.8633-2.75-1.8633-5.1094c0-2.2109.5605-3.9062,1.6816-5.0859s2.5762-1.7695,4.3652-1.7695c1.0625,0,2.0195.1992,2.8711.5977s1.5547,1.0273,2.1094,1.8867c.5.7578.8242,1.6367.9727,2.6367.0859.5859.1211,1.4297.1055,2.5312h-8.7422c.0469,1.2812.4492,2.1797,1.207,2.6953.4609.3203,1.0156.4805,1.6641.4805.6875,0,1.2461-.1953,1.6758-.5859.2344-.2109.4414-.5039.6211-.8789h3.4102ZM38.5569,169.9029c-.0547-.8828-.3223-1.5527-.8027-2.0098s-1.0762-.6855-1.7871-.6855c-.7734,0-1.373.2422-1.7988.7266s-.6934,1.1406-.8027,1.9688h5.1914Z" style="fill:#221f20; stroke-width:0px;"/><path d="M49.467,174.2154l2.6367-9.4219h3.5508l-4.3828,12.5625c-.8438,2.4219-1.5117,3.9238-2.0039,4.5059s-1.4766.873-2.9531.873c-.2969,0-.5352-.002-.7148-.0059s-.4492-.0176-.8086-.041v-2.6719l.4219.0234c.3281.0156.6406.0039.9375-.0352s.5469-.1289.75-.2695c.1953-.1328.377-.4102.5449-.832s.2363-.6797.2051-.7734l-4.6875-13.3359h3.7148l2.7891,9.4219Z" style="fill:#221f20; stroke-width:0px;"/><path d="M68.5569,173.8169c-.0859.7578-.4805,1.5273-1.1836,2.3086-1.0938,1.2422-2.625,1.8633-4.5938,1.8633-1.625,0-3.0586-.5234-4.3008-1.5703s-1.8633-2.75-1.8633-5.1094c0-2.2109.5605-3.9062,1.6816-5.0859s2.5762-1.7695,4.3652-1.7695c1.0625,0,2.0195.1992,2.8711.5977s1.5547,1.0273,2.1094,1.8867c.5.7578.8242,1.6367.9727,2.6367.0859.5859.1211,1.4297.1055,2.5312h-8.7422c.0469,1.2812.4492,2.1797,1.207,2.6953.4609.3203,1.0156.4805,1.6641.4805.6875,0,1.2461-.1953,1.6758-.5859.2344-.2109.4414-.5039.6211-.8789h3.4102ZM65.2522,169.9029c-.0547-.8828-.3223-1.5527-.8027-2.0098s-1.0762-.6855-1.7871-.6855c-.7734,0-1.373.2422-1.7988.7266s-.6934,1.1406-.8027,1.9688h5.1914Z" style="fill:#221f20; stroke-width:0px;"/><path d="M82.596,160.3169v17.25h-3.2461v-1.7695c-.4766.7578-1.0195,1.3086-1.6289,1.6523s-1.3672.5156-2.2734.5156c-1.4922,0-2.748-.6035-3.7676-1.8105s-1.5293-2.7559-1.5293-4.6465c0-2.1797.502-3.8945,1.5059-5.1445s2.3457-1.875,4.0254-1.875c.7734,0,1.4609.1699,2.0625.5098s1.0898.8105,1.4648,1.4121v-6.0938h3.3867ZM73.596,171.2622c0,1.1797.2344,2.1211.7031,2.8242.4609.7109,1.1641,1.0664,2.1094,1.0664s1.6641-.3516,2.1562-1.0547.7383-1.6133.7383-2.7305c0-1.5625-.3945-2.6797-1.1836-3.3516-.4844-.4062-1.0469-.6094-1.6875-.6094-.9766,0-1.6934.3691-2.1504,1.1074s-.6855,1.6543-.6855,2.748Z" style="fill:#221f20; stroke-width:0px;"/><path d="M93.342,177.5669h-7.4414v-17.2734h7.4414c1.0703.0156,1.9609.1406,2.6719.375,1.2109.3984,2.1914,1.1289,2.9414,2.1914.6016.8594,1.0117,1.7891,1.2305,2.7891s.3281,1.9531.3281,2.8594c0,2.2969-.4609,4.2422-1.3828,5.8359-1.25,2.1484-3.1797,3.2227-5.7891,3.2227ZM96.0256,164.6997c-.5547-.9375-1.6523-1.4062-3.293-1.4062h-3.3281v11.2734h3.3281c1.7031,0,2.8906-.8398,3.5625-2.5195.3672-.9219.5508-2.0195.5508-3.293,0-1.7578-.2734-3.1094-.8203-4.0547Z" style="fill:#221f20; stroke-width:0px;"/><path d="M113.6155,166.4107c1.0781,1.3516,1.6172,2.9492,1.6172,4.793,0,1.875-.5391,3.4785-1.6172,4.8105s-2.7148,1.998-4.9102,1.998-3.832-.666-4.9102-1.998-1.6172-2.9355-1.6172-4.8105c0-1.8438.5391-3.4414,1.6172-4.793s2.7148-2.0273,4.9102-2.0273,3.832.6758,4.9102,2.0273ZM108.6936,167.2075c-.9766,0-1.7285.3457-2.2559,1.0371s-.791,1.6777-.791,2.959.2637,2.2695.791,2.9648,1.2793,1.043,2.2559,1.043,1.7266-.3477,2.25-1.043.7852-1.6836.7852-2.9648-.2617-2.2676-.7852-2.959-1.2734-1.0371-2.25-1.0371Z" style="fill:#221f20; stroke-width:0px;"/><path d="M128.2756,166.4107c1.0781,1.3516,1.6172,2.9492,1.6172,4.793,0,1.875-.5391,3.4785-1.6172,4.8105s-2.7148,1.998-4.9102,1.998-3.832-.666-4.9102-1.998-1.6172-2.9355-1.6172-4.8105c0-1.8438.5391-3.4414,1.6172-4.793s2.7148-2.0273,4.9102-2.0273,3.832.6758,4.9102,2.0273ZM123.3538,167.2075c-.9766,0-1.7285.3457-2.2559,1.0371s-.791,1.6777-.791,2.959.2637,2.2695.791,2.9648,1.2793,1.043,2.2559,1.043,1.7266-.3477,2.25-1.043.7852-1.6836.7852-2.9648-.2617-2.2676-.7852-2.959-1.2734-1.0371-2.25-1.0371Z" style="fill:#221f20; stroke-width:0px;"/><path d="M138.7053,167.8755c-1.3438,0-2.2461.4375-2.707,1.3125-.2578.4922-.3867,1.25-.3867,2.2734v6.1055h-3.3633v-12.7734h3.1875v2.2266c.5156-.8516.9648-1.4336,1.3477-1.7461.625-.5234,1.4375-.7852,2.4375-.7852.0625,0,.1152.002.1582.0059s.1387.0098.2871.0176v3.4219c-.2109-.0234-.3984-.0391-.5625-.0469s-.2969-.0117-.3984-.0117Z" style="fill:#221f20; stroke-width:0px;"/><path d="M18.5012,206.3667v-1.1514h-.0479c-.2881.4795-.6616.8262-1.1201,1.04-.4585.2129-.9277.3193-1.4077.3193-.6084,0-1.1069-.0801-1.4961-.2402-.3896-.1592-.6963-.3857-.9199-.6797-.2241-.293-.3818-.6504-.4722-1.0723-.0908-.4209-.1362-.8877-.1362-1.3994v-5.0879h2.2725v4.6719c0,.6826.1064,1.1914.3198,1.5283.2134.3359.5918.5039,1.1357.5039.6187,0,1.0669-.1846,1.3442-.5527.2773-.3672.416-.9727.416-1.8154v-4.3359h2.272v8.2715h-2.1602Z" style="fill:#221f20; stroke-width:0px;"/><path d="M24.5491,198.0952v1.1514h.0479c.2881-.4795.6616-.8291,1.1201-1.0479s.9282-.3281,1.4082-.3281c.6079,0,1.1064.083,1.4961.248.3892.166.6958.3955.9199.6885s.3813.6504.4717,1.0723c.0908.4209.1362.8877.1362,1.3994v5.0879h-2.272v-4.6719c0-.6826-.1069-1.1914-.3198-1.5283-.2139-.3359-.5923-.5039-1.1362-.5039-.6187,0-1.0669.1846-1.3442.5527-.2773.3672-.4155.9727-.4155,1.8154v4.3359h-2.2725v-8.2715h2.1602Z" style="fill:#221f20; stroke-width:0px;"/><path d="M34.2131,194.9429v11.4238h-2.272v-11.4238h2.272Z" style="fill:#221f20; stroke-width:0px;"/><path d="M36.053,200.439c.2021-.5381.4902-.9971.8638-1.376s.8213-.6719,1.3442-.8799c.5225-.208,1.1094-.3125,1.7598-.3125s1.2402.1045,1.7681.3125.9785.501,1.3521.8799c.373.3789.6611.8379.8638,1.376.2026.5391.3042,1.1387.3042,1.7998,0,.6621-.1016,1.2588-.3042,1.792s-.4907.9893-.8638,1.3682c-.3735.3789-.8242.6699-1.3521.8721s-1.1177.3037-1.7681.3037-1.2373-.1016-1.7598-.3037c-.5229-.2021-.9707-.4932-1.3442-.8721s-.6616-.835-.8638-1.3682c-.2026-.5332-.3042-1.1299-.3042-1.792,0-.6611.1016-1.2607.3042-1.7998ZM38.117,203.2066c.064.3154.1733.5977.3281.8486.1543.251.3599.4502.6157.5996s.5762.2246.96.2246c.3843,0,.7065-.0752.9683-.2246.2612-.1494.4692-.3486.624-.5996.1543-.251.2637-.5332.3276-.8486.064-.3145.0962-.6367.0962-.9678,0-.3301-.0322-.6562-.0962-.9756-.064-.3203-.1733-.6025-.3276-.8486-.1548-.2451-.3628-.4453-.624-.5996-.2617-.1543-.584-.2324-.9683-.2324-.3838,0-.7041.0781-.96.2324s-.4614.3545-.6157.5996c-.1548.2461-.2642.5283-.3281.8486-.064.3193-.0962.6455-.0962.9756,0,.3311.0322.6533.0962.9678Z" style="fill:#221f20; stroke-width:0px;"/><path d="M49.7327,199.5825c-.3628,0-.6665.083-.9121.248-.2451.166-.4453.3789-.5996.6406-.1548.2617-.2642.5488-.3281.8633-.064.3154-.0962.627-.0962.9365,0,.2988.0322.6025.0962.9121s.168.5889.312.8398.3384.4561.584.6162c.2451.1602.5439.2402.896.2402.5439,0,.9624-.1523,1.2559-.4561.2935-.3047.4775-.7119.5522-1.2246h2.1919c-.1494,1.0986-.5762,1.9365-1.2803,2.5127-.7036.5752-1.6055.8633-2.7036.8633-.6191,0-1.187-.1035-1.7041-.3115-.5176-.208-.9575-.499-1.3203-.8721-.3623-.373-.6455-.8184-.8477-1.3359-.2026-.5176-.3042-1.0859-.3042-1.7041,0-.6396.0933-1.2344.2803-1.7842.1865-.5488.4609-1.0244.8237-1.4238.3628-.4004.8052-.7119,1.3281-.9365.5225-.2236,1.1201-.3359,1.792-.3359.4902,0,.9624.0645,1.416.1924.4531.1279.8584.3223,1.2158.584s.6479.5869.8721.9756c.2241.3896.3521.8516.3843,1.3848h-2.2241c-.1494-.9492-.7095-1.4248-1.6802-1.4248Z" style="fill:#221f20; stroke-width:0px;"/><path d="M57.4451,194.9429v6.1279l2.8638-2.9756h2.688l-3.1201,3.04,3.4722,5.2314h-2.752l-2.272-3.6953-.8799.8477v2.8477h-2.2725v-11.4238h2.2725Z" style="fill:#221f20; stroke-width:0px;"/><path d="M66.8045,198.1987c-.2773,1.2217-.416,2.4619-.416,3.7197,0,1.2803.1362,2.5342.4082,3.7607s.7119,2.4209,1.3198,3.584h-1.8882c-.6719-1.0986-1.1919-2.2559-1.5601-3.4727-.3677-1.2158-.5518-2.4531-.5518-3.7119,0-.5967.0454-1.2236.1357-1.8799.0908-.6562.2241-1.3086.4004-1.96.1758-.6504.3945-1.2803.6558-1.8877.2612-.6084.5679-1.168.9199-1.6797h1.9043c-.6079,1.1299-1.0508,2.3066-1.3281,3.5273Z" style="fill:#221f20; stroke-width:0px;"/><path d="M69.2283,205.7505c.2827-1.21.4238-2.4443.4238-3.7031,0-1.2803-.1387-2.5391-.416-3.7764s-.7095-2.4375-1.2959-3.5996h1.8721c.6719,1.0986,1.1919,2.2607,1.5601,3.4873s.5518,2.4697.5518,3.7285c0,.5977-.0425,1.2236-.1279,1.8799s-.2158,1.3066-.3921,1.9521c-.1758.6455-.3975,1.2715-.6636,1.8799-.2671.6074-.5762,1.1621-.9282,1.6641h-1.8882c.5869-1.1309,1.0215-2.3018,1.3042-3.5127Z" style="fill:#221f20; stroke-width:0px;"/><path d="M25.5252,212.1997l-1.8237,8.5674h-.4561l.3237-1.3799-.0239-.0234c-.2319.4795-.542.8574-.9302,1.1338-.3877.2754-.8579.4141-1.4097.4141-.3843,0-.7222-.0645-1.0142-.1924s-.5361-.3037-.7319-.5283c-.1963-.2236-.3418-.4814-.438-.7734s-.144-.6016-.144-.9297c0-.4639.0698-.9365.21-1.416.1401-.4805.3521-.9141.6362-1.3027.2837-.3877.6357-.7031,1.0557-.9473.4204-.2441.9102-.3662,1.4702-.3662.5278,0,.9736.1436,1.3379.4316.3638.2881.5742.6885.6299,1.2002h.0244l.8276-3.8877h.4561ZM21.301,220.5152c.4399,0,.8301-.126,1.1704-.3779.3398-.252.6216-.5703.8457-.9541s.394-.7998.5103-1.248c.1157-.4473.1738-.8672.1738-1.2598,0-.2236-.0381-.4463-.1138-.666-.0762-.2197-.186-.416-.3301-.5879s-.3223-.3096-.5342-.4141c-.2119-.1035-.4502-.1562-.7139-.1562-.4883,0-.916.1123-1.2842.3359-.3682.2246-.6777.5088-.9297.8525-.2524.3438-.4424.7256-.5703,1.1455s-.1919.8223-.1919,1.2061c0,.2725.0278.5361.084.792.0557.2568.1577.4824.3062.6787.1479.1953.3477.3535.5996.4736.2524.1201.5781.1797.978.1797Z" style="fill:#221f20; stroke-width:0px;"/><path d="M28.8733,214.4556c.7676,0,1.3657.2119,1.7939.6357.4277.4238.6421,1.0205.6421,1.7881,0,.4717-.0703.9482-.2104,1.4277-.1396.4805-.3477.9121-.6235,1.2959-.2764.3848-.6201.6982-1.0322.9424s-.8862.3662-1.4219.3662c-.4243,0-.79-.0625-1.0981-.1865s-.564-.2998-.7681-.5273c-.2041-.2285-.356-.5-.4561-.8164s-.1499-.6699-.1499-1.0625c0-.4639.0762-.9277.228-1.3916s.3701-.8779.6538-1.2422c.2842-.3633.6318-.6602,1.0444-.8877.4116-.2285.8774-.3418,1.3979-.3418ZM28.969,214.8511c-.4722-.0078-.8921.0898-1.2598.2939-.3682.2041-.6782.4707-.9302.7979-.252.3281-.4438.6982-.5762,1.1104-.1318.4121-.1978.8223-.1978,1.2305,0,.3115.0381.6016.1138.8701.0762.2676.1963.5039.3604.708.1636.2031.3721.3633.624.4795s.5537.1738.9058.1738c.4722,0,.8862-.1143,1.2422-.3418s.6519-.5176.8877-.8701c.2358-.3516.4141-.7422.5342-1.1699s.1802-.8418.1802-1.2422c0-.6074-.1523-1.0957-.4561-1.4639-.3042-.3682-.7803-.5596-1.4282-.5762Z" style="fill:#221f20; stroke-width:0px;"/><path d="M32.5095,217.7437c-.0161.1113-.0303.2236-.042.3359-.0122.1123-.0181.2236-.0181.3359,0,.2803.0439.5479.1318.8037s.2139.4805.3779.6719c.1641.1924.3682.3447.6123.4561.2437.1123.522.168.834.168.2881,0,.562-.0498.8218-.1494.2603-.1006.4922-.2324.6963-.3965.2036-.1641.376-.3535.5156-.5703.1401-.2158.2383-.4434.2944-.6836h.4556c-.0879.3203-.2158.6143-.3838.8818-.168.2686-.3721.5-.6118.6963-.2402.1963-.5142.3477-.8223.4561-.3081.1074-.646.1621-1.0137.1621-.3921,0-.7363-.0645-1.0322-.1924s-.542-.3037-.7378-.5283c-.1963-.2236-.3442-.4834-.4443-.7793s-.1499-.6084-.1499-.9365c0-.5762.0762-1.1074.228-1.5957s.3677-.9121.6479-1.2725c.2798-.3594.624-.6416,1.0322-.8457.4077-.2041.8638-.3057,1.3677-.3057.3604,0,.6802.0596.96.1797.2803.1201.5161.2861.708.498.1924.2119.3379.4639.438.7559s.1504.6064.1504.9424c0,.1602-.0083.3135-.0244.4619s-.0356.2979-.0596.4502h-4.9321ZM37.0095,217.3472c.0156-.1035.0298-.1953.042-.2754.0117-.0801.0181-.1602.0181-.2402,0-.2646-.0381-.5166-.1143-.7559-.0762-.2402-.1899-.4502-.3418-.6299-.1523-.1807-.3481-.3242-.5879-.4326-.2402-.1074-.5205-.1621-.8403-.1621-.3599,0-.686.0684-.978.2041-.292.1367-.5459.3203-.7617.5518-.2163.2324-.396.498-.54.7988-.144.2998-.252.6133-.3242.9414h4.4282Z" style="fill:#221f20; stroke-width:0px;"/><path d="M38.4851,218.6675c0,.0479-.002.0957-.0063.1436-.0039.0479-.0059.0967-.0059.1445,0,.5762.186.9795.5581,1.2119s.8818.3477,1.5298.3477c.168,0,.3481-.0273.54-.084.1924-.0557.3721-.1396.54-.252.168-.1113.3062-.25.4141-.4141s.1621-.3535.1621-.5693c-.0083-.2959-.0981-.5303-.27-.7021-.1724-.1719-.3843-.3164-.6362-.4326-.252-.1152-.5259-.2178-.8218-.3057s-.5684-.1982-.8159-.3301c-.248-.1318-.4561-.2979-.624-.498s-.248-.4678-.2402-.8037c0-.2881.064-.5381.1924-.75.1274-.2119.2954-.3857.5039-.5225.208-.1357.4419-.2354.7017-.2998.2603-.0635.522-.0957.7861-.0957.2881,0,.5601.0342.8159.1016.2559.0684.48.166.6724.2939.1919.1279.3438.29.4556.4863.1123.1963.168.418.168.666,0,.0723-.002.1396-.0059.2041-.0039.0635-.0103.1475-.0181.252h-.4561c.0083-.0723.0142-.1396.0181-.2041s.0063-.1279.0063-.1924c0-.1992-.0444-.376-.1323-.5273-.0879-.1523-.208-.2783-.3599-.3779-.1519-.1006-.3281-.1758-.5278-.2285-.2002-.0518-.4121-.0781-.6362-.0781-.1841,0-.376.0205-.5762.0605-.1997.04-.3857.1074-.5576.2041-.1724.0957-.3145.2217-.4263.3779-.1118.1553-.168.3496-.168.582,0,.2002.0498.3701.1499.5098s.23.2617.3901.3662c.1602.1035.3423.1934.5459.2695.2041.0762.4102.1504.6182.2217.2158.0723.4258.1523.6299.2402s.3857.1943.5459.3184.2881.2715.3843.4443c.0957.1719.144.3779.144.6172,0,.3047-.0659.5723-.1982.8047-.1318.2314-.3057.4258-.522.582-.2158.1553-.46.2715-.7319.3477s-.5518.1143-.8398.1143c-.3281,0-.6362-.0322-.9243-.0967-.2876-.0635-.5381-.168-.75-.3115-.2119-.1445-.3799-.334-.5039-.5703-.124-.2354-.186-.5254-.186-.8701v-.2881c0-.0312.0044-.0674.0122-.1074h.4561Z" style="fill:#221f20; stroke-width:0px;"/><path d="M47.3772,218.6675c0,.0479-.002.0957-.0063.1436-.0039.0479-.0059.0967-.0059.1445,0,.5762.186.9795.5581,1.2119s.8818.3477,1.5298.3477c.168,0,.3481-.0273.54-.084.1924-.0557.3721-.1396.54-.252.168-.1113.3062-.25.4141-.4141s.1621-.3535.1621-.5693c-.0083-.2959-.0981-.5303-.27-.7021-.1724-.1719-.3843-.3164-.6362-.4326-.252-.1152-.5259-.2178-.8218-.3057s-.5684-.1982-.8159-.3301c-.248-.1318-.4561-.2979-.624-.498s-.248-.4678-.2402-.8037c0-.2881.064-.5381.1924-.75.1274-.2119.2954-.3857.5039-.5225.208-.1357.4419-.2354.7017-.2998.2603-.0635.522-.0957.7861-.0957.2881,0,.5601.0342.8159.1016.2559.0684.48.166.6724.2939.1919.1279.3438.29.4556.4863.1123.1963.168.418.168.666,0,.0723-.002.1396-.0059.2041-.0039.0635-.0103.1475-.0181.252h-.4561c.0083-.0723.0142-.1396.0181-.2041s.0063-.1279.0063-.1924c0-.1992-.0444-.376-.1323-.5273-.0879-.1523-.208-.2783-.3599-.3779-.1519-.1006-.3281-.1758-.5278-.2285-.2002-.0518-.4121-.0781-.6362-.0781-.1841,0-.376.0205-.5762.0605-.1997.04-.3857.1074-.5576.2041-.1724.0957-.3145.2217-.4263.3779-.1118.1553-.168.3496-.168.582,0,.2002.0498.3701.1499.5098s.23.2617.3901.3662c.1602.1035.3423.1934.5459.2695.2041.0762.4102.1504.6182.2217.2158.0723.4258.1523.6299.2402s.3857.1943.5459.3184.2881.2715.3843.4443c.0957.1719.144.3779.144.6172,0,.3047-.0659.5723-.1982.8047-.1318.2314-.3057.4258-.522.582-.2158.1553-.46.2715-.7319.3477s-.5518.1143-.8398.1143c-.3281,0-.6362-.0322-.9243-.0967-.2876-.0635-.5381-.168-.75-.3115-.2119-.1445-.3799-.334-.5039-.5703-.124-.2354-.186-.5254-.186-.8701v-.2881c0-.0312.0044-.0674.0122-.1074h.4561Z" style="fill:#221f20; stroke-width:0px;"/><path d="M52.8254,214.5991h1.1396l.4199-1.9316h.4561l-.4199,1.9316h1.3203l-.0962.3965h-1.2959l-.936,4.2959c-.0083.0156-.0161.0498-.0239.1016-.0083.0527-.0181.1084-.0303.168-.0117.0605-.022.1182-.0298.1738-.0083.0566-.0122.0967-.0122.1201,0,.1768.0542.3066.1621.3906s.2861.126.5342.126c.2236,0,.4517-.0127.6836-.0361l-.084.3955c-.0801,0-.188.0068-.3237.0186-.1362.0117-.2759.0176-.4199.0176-.3604,0-.6182-.0801-.7739-.2402-.1562-.1592-.2344-.3877-.2344-.6836,0-.0801.0122-.1758.0361-.2881.0239-.1113.0439-.2119.0601-.2998l.936-4.2598h-1.1641l.0962-.3965Z" style="fill:#221f20; stroke-width:0px;"/><path d="M60.1453,220.7671h-.4561l.2881-1.2959-.0239-.0234c-.1362.2314-.2803.4375-.4321.6172-.1523.1807-.3242.335-.5161.4619-.1919.1289-.4062.2246-.6421.2881-.2358.0645-.5098.0967-.8218.0967-.2324,0-.4541-.0381-.666-.1143-.2124-.0762-.3979-.1875-.5581-.3359s-.2881-.3281-.3838-.54c-.0962-.2119-.144-.4502-.144-.7139,0-.0723.0059-.1641.0181-.2764.0117-.1113.0278-.2275.0479-.3477s.04-.2344.0601-.3418c.0195-.1084.0376-.1982.0537-.2705l.7563-3.3721h.4556l-.7559,3.3604c-.0161.0557-.0342.1357-.0537.2402-.0205.1035-.0405.2158-.0601.3359-.02.1201-.0361.2383-.0483.3535-.0117.1162-.0176.2178-.0176.3066,0,.3916.126.71.3779.9531.252.2441.6099.3662,1.0737.3662.3682,0,.7021-.0918,1.002-.2754.3003-.1846.564-.4219.792-.7148.228-.292.416-.6152.564-.9717.1479-.3555.2583-.7061.3301-1.0498l.6123-2.9043h.4561l-1.3081,6.168Z" style="fill:#221f20; stroke-width:0px;"/><path d="M63.3372,214.5991l.1079-.4795c.0479-.2158.1021-.4443.1621-.6846.0601-.2393.1479-.458.2642-.6533.1157-.1963.2739-.3584.4736-.4863.2002-.1279.4639-.1924.792-.1924.1362,0,.2642.0059.3843.0186.1201.0117.208.0254.2642.042l-.0845.3955c-.1597-.04-.3198-.0596-.48-.0596-.2559,0-.46.0498-.6118.1494-.1519.1006-.2739.2285-.3662.3848-.0918.1553-.1616.3301-.21.5215-.0479.1924-.0918.3799-.1318.5645l-.1079.4795h1.3081l-.084.3965h-1.3081l-1.2358,5.7715h-.4561l1.2236-5.7715h-1.0557l.084-.3965h1.0679Z" style="fill:#221f20; stroke-width:0px;"/><path d="M66.2288,214.5991l.1079-.4795c.0479-.2158.1021-.4443.1621-.6846.0601-.2393.1479-.458.2642-.6533.1157-.1963.2739-.3584.4736-.4863.2002-.1279.4639-.1924.792-.1924.1362,0,.2642.0059.3843.0186.1201.0117.208.0254.2642.042l-.0845.3955c-.1597-.04-.3198-.0596-.48-.0596-.2559,0-.46.0498-.6118.1494-.1519.1006-.2739.2285-.3662.3848-.0918.1553-.1616.3301-.21.5215-.0479.1924-.0918.3799-.1318.5645l-.1079.4795h1.3081l-.084.3965h-1.3081l-1.2358,5.7715h-.4561l1.2236-5.7715h-1.0557l.084-.3965h1.0679Z" style="fill:#221f20; stroke-width:0px;"/><path d="M71.281,214.5991h.4556l.6123,5.6406h.0239l2.856-5.6406h.6118l.5645,5.6406h.0239l2.9038-5.6406h.5278l-3.2876,6.168h-.5522l-.5518-5.5918h-.0244l-2.8916,5.5918h-.564l-.708-6.168Z" style="fill:#221f20; stroke-width:0px;"/><path d="M80.6047,214.5991h.4556l-1.2837,6.168h-.4561l1.2842-6.168ZM81.1087,212.1997h.4561l-.252,1.2354h-.4561l.252-1.2354Z" style="fill:#221f20; stroke-width:0px;"/><path d="M81.7327,214.5991h1.1396l.4199-1.9316h.4561l-.4199,1.9316h1.3203l-.0962.3965h-1.2959l-.936,4.2959c-.0083.0156-.0161.0498-.0239.1016-.0083.0527-.0181.1084-.0303.168-.0117.0605-.022.1182-.0298.1738-.0083.0566-.0122.0967-.0122.1201,0,.1768.0542.3066.1621.3906s.2861.126.5342.126c.2236,0,.4517-.0127.6836-.0361l-.084.3955c-.0801,0-.188.0068-.3237.0186-.1362.0117-.2759.0176-.4199.0176-.3604,0-.6182-.0801-.7739-.2402-.1562-.1592-.2344-.3877-.2344-.6836,0-.0801.0122-.1758.0361-.2881.0239-.1113.0439-.2119.0601-.2998l.936-4.2598h-1.1641l.0962-.3965Z" style="fill:#221f20; stroke-width:0px;"/><path d="M86.2444,212.1997h.4561l-.792,3.6953h.0239c.272-.4316.6157-.7793,1.0322-1.0439.4155-.2637.8999-.3955,1.4517-.3955.2319,0,.4541.0381.666.1133.2119.0762.3979.1885.5581.3369.1602.1475.2881.3281.3838.54.0962.2119.144.4492.144.7139,0,.0713-.0059.1641-.0181.2754-.0117.1123-.0278.2285-.0479.3486s-.04.2334-.0601.3418c-.02.1074-.0381.1982-.0537.2695l-.7563,3.3721h-.4561l.7563-3.3594c.0078-.0566.022-.1367.042-.2402.0195-.1045.04-.2139.0601-.3301.0195-.1162.0376-.2344.0537-.3545.0161-.1191.0239-.2236.0239-.3115,0-.3916-.126-.71-.3779-.9541s-.6099-.3662-1.0737-.3662c-.3921,0-.7422.0928-1.0503.2764s-.5757.4219-.8037.7139-.4185.6162-.5703.9717c-.1519.3564-.2637.7061-.3359,1.0508l-.6118,2.9033h-.4561l1.812-8.5674Z" style="fill:#221f20; stroke-width:0px;"/><path d="M95.8323,212.1997h.4561l-1.2241,5.6641.0239.0234,4.1401-3.2881h.6841l-3.1318,2.46,2.208,3.708h-.5762l-2.0161-3.4199-1.4639,1.1406-.48,2.2793h-.4561l1.8359-8.5674Z" style="fill:#221f20; stroke-width:0px;"/><path d="M100.1765,217.7437c-.0161.1113-.0303.2236-.042.3359-.0122.1123-.0181.2236-.0181.3359,0,.2803.0439.5479.1318.8037s.2139.4805.3779.6719c.1641.1924.3682.3447.6123.4561.2437.1123.522.168.834.168.2881,0,.562-.0498.8218-.1494.2603-.1006.4922-.2324.6963-.3965.2036-.1641.376-.3535.5156-.5703.1401-.2158.2383-.4434.2944-.6836h.4556c-.0879.3203-.2158.6143-.3838.8818-.168.2686-.3721.5-.6118.6963-.2402.1963-.5142.3477-.8223.4561-.3081.1074-.646.1621-1.0137.1621-.3921,0-.7363-.0645-1.0322-.1924s-.542-.3037-.7378-.5283c-.1963-.2236-.3442-.4834-.4443-.7793s-.1499-.6084-.1499-.9365c0-.5762.0762-1.1074.228-1.5957s.3677-.9121.6479-1.2725c.2798-.3594.624-.6416,1.0322-.8457.4077-.2041.8638-.3057,1.3677-.3057.3604,0,.6802.0596.96.1797.2803.1201.5161.2861.708.498.1924.2119.3379.4639.438.7559s.1504.6064.1504.9424c0,.1602-.0083.3135-.0244.4619s-.0356.2979-.0596.4502h-4.9321ZM104.6765,217.3472c.0156-.1035.0298-.1953.042-.2754.0117-.0801.0181-.1602.0181-.2402,0-.2646-.0381-.5166-.1143-.7559-.0762-.2402-.1899-.4502-.3418-.6299-.1523-.1807-.3481-.3242-.5879-.4326-.2402-.1074-.5205-.1621-.8403-.1621-.3599,0-.686.0684-.978.2041-.292.1367-.5459.3203-.7617.5518-.2163.2324-.396.498-.54.7988-.144.2998-.252.6133-.3242.9414h4.4282Z" style="fill:#221f20; stroke-width:0px;"/><path d="M105.0125,222.5435c.1519.0234.2959.0361.4321.0361.2959,0,.5317-.084.708-.252.1758-.168.3359-.3682.48-.6006l.6001-.96-1.2124-6.168h.5283l1.0317,5.5566,3.144-5.5566h.54l-4.188,7.248c-.104.1846-.208.3457-.312.4863-.104.1396-.2202.2578-.3481.3535-.1279.0967-.272.168-.4316.2168-.1602.0479-.3521.0713-.5762.0713-.0962,0-.186-.0039-.27-.0117s-.1577-.0166-.2222-.0244l.0962-.3955Z" style="fill:#221f20; stroke-width:0px;"/><rect x="189.4326" y="149.1695" width="232.6064" height="89.5087" rx="9" ry="9" style="fill:#ffebff; stroke:#221f20; stroke-miterlimit:10;"/><path d="M214.822,176.2779c-1.2891,1.1797-2.9375,1.7695-4.9453,1.7695-2.4844,0-4.4375-.7969-5.8594-2.3906-1.4219-1.6016-2.1328-3.7969-2.1328-6.5859,0-3.0156.8086-5.3398,2.4258-6.9727,1.4062-1.4219,3.1953-2.1328,5.3672-2.1328,2.9062,0,5.0312.9531,6.375,2.8594.7422,1.0703,1.1406,2.1445,1.1953,3.2227h-3.6094c-.2344-.8281-.5352-1.4531-.9023-1.875-.6562-.75-1.6289-1.125-2.918-1.125-1.3125,0-2.3477.5293-3.1055,1.5879s-1.1367,2.5566-1.1367,4.4941.4004,3.3887,1.2012,4.3535,1.8184,1.4473,3.0527,1.4473c1.2656,0,2.2305-.4141,2.8945-1.2422.3672-.4453.6719-1.1133.9141-2.0039h3.5742c-.3125,1.8828-1.1094,3.4141-2.3906,4.5938Z" style="fill:#221f20; stroke-width:0px;"/><path d="M220.1775,166.1763c.8828-1.125,2.3984-1.6875,4.5469-1.6875,1.3984,0,2.6406.2773,3.7266.832s1.6289,1.6016,1.6289,3.1406v5.8594c0,.4062.0078.8984.0234,1.4766.0234.4375.0898.7344.1992.8906s.2734.2852.4922.3867v.4922h-3.6328c-.1016-.2578-.1719-.5-.2109-.7266s-.0703-.4844-.0938-.7734c-.4609.5-.9922.9258-1.5938,1.2773-.7188.4141-1.5312.6211-2.4375.6211-1.1562,0-2.1113-.3301-2.8652-.9902s-1.1309-1.5957-1.1309-2.8066c0-1.5703.6055-2.707,1.8164-3.4102.6641-.3828,1.6406-.6562,2.9297-.8203l1.1367-.1406c.6172-.0781,1.0586-.1758,1.3242-.293.4766-.2031.7148-.5195.7148-.9492,0-.5234-.1816-.8848-.5449-1.084s-.8965-.2988-1.5996-.2988c-.7891,0-1.3477.1953-1.6758.5859-.2344.2891-.3906.6797-.4688,1.1719h-3.2227c.0703-1.1172.3828-2.0352.9375-2.7539ZM222.6619,175.1529c.3125.2578.6953.3867,1.1484.3867.7188,0,1.3809-.2109,1.9863-.6328s.9199-1.1914.9434-2.3086v-1.2422c-.2109.1328-.4238.2402-.6387.3223s-.5098.1582-.8848.2285l-.75.1406c-.7031.125-1.207.2773-1.5117.457-.5156.3047-.7734.7773-.7734,1.418,0,.5703.1602.9805.4805,1.2305Z" style="fill:#221f20; stroke-width:0px;"/><path d="M239.4666,167.8755c-1.3438,0-2.2461.4375-2.707,1.3125-.2578.4922-.3867,1.25-.3867,2.2734v6.1055h-3.3633v-12.7734h3.1875v2.2266c.5156-.8516.9648-1.4336,1.3477-1.7461.625-.5234,1.4375-.7852,2.4375-.7852.0625,0,.1152.002.1582.0059s.1387.0098.2871.0176v3.4219c-.2109-.0234-.3984-.0391-.5625-.0469s-.2969-.0117-.3984-.0117Z" style="fill:#221f20; stroke-width:0px;"/><path d="M254.0095,160.3169v17.25h-3.2461v-1.7695c-.4766.7578-1.0195,1.3086-1.6289,1.6523s-1.3672.5156-2.2734.5156c-1.4922,0-2.748-.6035-3.7676-1.8105s-1.5293-2.7559-1.5293-4.6465c0-2.1797.502-3.8945,1.5059-5.1445s2.3457-1.875,4.0254-1.875c.7734,0,1.4609.1699,2.0625.5098s1.0898.8105,1.4648,1.4121v-6.0938h3.3867ZM245.0095,171.2622c0,1.1797.2344,2.1211.7031,2.8242.4609.7109,1.1641,1.0664,2.1094,1.0664s1.6641-.3516,2.1562-1.0547.7383-1.6133.7383-2.7305c0-1.5625-.3945-2.6797-1.1836-3.3516-.4844-.4062-1.0469-.6094-1.6875-.6094-.9766,0-1.6934.3691-2.1504,1.1074s-.6855,1.6543-.6855,2.748Z" style="fill:#221f20; stroke-width:0px;"/><path d="M267.4275,174.0161h-6.3633l-1.1953,3.5508h-3.7734l6.1641-17.2734h4.0781l6.1172,17.2734h-3.9141l-1.1133-3.5508ZM266.4197,171.0396l-2.1562-6.7969-2.2266,6.7969h4.3828Z" style="fill:#221f20; stroke-width:0px;"/><path d="M285.4275,169.3755h-3.4219c-.0625-.4766-.2227-.9062-.4805-1.2891-.375-.5156-.957-.7734-1.7461-.7734-1.125,0-1.8945.5586-2.3086,1.6758-.2188.5938-.3281,1.3828-.3281,2.3672,0,.9375.1094,1.6914.3281,2.2617.3984,1.0625,1.1484,1.5938,2.25,1.5938.7812,0,1.3359-.2109,1.6641-.6328s.5273-.9688.5977-1.6406h3.4102c-.0781,1.0156-.4453,1.9766-1.1016,2.8828-1.0469,1.4609-2.5977,2.1914-4.6523,2.1914s-3.5664-.6094-4.5352-1.8281-1.4531-2.8008-1.4531-4.7461c0-2.1953.5352-3.9023,1.6055-5.1211s2.5469-1.8281,4.4297-1.8281c1.6016,0,2.9121.3594,3.9316,1.0781s1.623,1.9883,1.8105,3.8086Z" style="fill:#221f20; stroke-width:0px;"/><path d="M298.7752,169.3755h-3.4219c-.0625-.4766-.2227-.9062-.4805-1.2891-.375-.5156-.957-.7734-1.7461-.7734-1.125,0-1.8945.5586-2.3086,1.6758-.2188.5938-.3281,1.3828-.3281,2.3672,0,.9375.1094,1.6914.3281,2.2617.3984,1.0625,1.1484,1.5938,2.25,1.5938.7812,0,1.3359-.2109,1.6641-.6328s.5273-.9688.5977-1.6406h3.4102c-.0781,1.0156-.4453,1.9766-1.1016,2.8828-1.0469,1.4609-2.5977,2.1914-4.6523,2.1914s-3.5664-.6094-4.5352-1.8281-1.4531-2.8008-1.4531-4.7461c0-2.1953.5352-3.9023,1.6055-5.1211s2.5469-1.8281,4.4297-1.8281c1.6016,0,2.9121.3594,3.9316,1.0781s1.623,1.9883,1.8105,3.8086Z" style="fill:#221f20; stroke-width:0px;"/><path d="M312.0056,173.8169c-.0859.7578-.4805,1.5273-1.1836,2.3086-1.0938,1.2422-2.625,1.8633-4.5938,1.8633-1.625,0-3.0586-.5234-4.3008-1.5703s-1.8633-2.75-1.8633-5.1094c0-2.2109.5605-3.9062,1.6816-5.0859s2.5762-1.7695,4.3652-1.7695c1.0625,0,2.0195.1992,2.8711.5977s1.5547,1.0273,2.1094,1.8867c.5.7578.8242,1.6367.9727,2.6367.0859.5859.1211,1.4297.1055,2.5312h-8.7422c.0469,1.2812.4492,2.1797,1.207,2.6953.4609.3203,1.0156.4805,1.6641.4805.6875,0,1.2461-.1953,1.6758-.5859.2344-.2109.4414-.5039.6211-.8789h3.4102ZM308.7009,169.9029c-.0547-.8828-.3223-1.5527-.8027-2.0098s-1.0762-.6855-1.7871-.6855c-.7734,0-1.373.2422-1.7988.7266s-.6934,1.1406-.8027,1.9688h5.1914Z" style="fill:#221f20; stroke-width:0px;"/><path d="M323.2205,165.3794c1,.6406,1.5742,1.7422,1.7227,3.3047h-3.3398c-.0469-.4297-.168-.7695-.3633-1.0195-.3672-.4531-.9922-.6797-1.875-.6797-.7266,0-1.2441.1133-1.5527.3398s-.4629.4922-.4629.7969c0,.3828.1641.6602.4922.832.3281.1797,1.4883.4883,3.4805.9258,1.3281.3125,2.3242.7852,2.9883,1.418.6562.6406.9844,1.4414.9844,2.4023,0,1.2656-.4707,2.2988-1.4121,3.0996s-2.3965,1.2012-4.3652,1.2012c-2.0078,0-3.4902-.4238-4.4473-1.2715s-1.4355-1.9277-1.4355-3.2402h3.3867c.0703.5938.2227,1.0156.457,1.2656.4141.4453,1.1797.668,2.2969.668.6562,0,1.1777-.0977,1.5645-.293s.5801-.4883.5801-.8789c0-.375-.1562-.6602-.4688-.8555s-1.4727-.5312-3.4805-1.0078c-1.4453-.3594-2.4648-.8086-3.0586-1.3477-.5938-.5312-.8906-1.2969-.8906-2.2969,0-1.1797.4629-2.1934,1.3887-3.041s2.2285-1.2715,3.9082-1.2715c1.5938,0,2.8945.3164,3.9023.9492Z" style="fill:#221f20; stroke-width:0px;"/><path d="M336.5681,165.3794c1,.6406,1.5742,1.7422,1.7227,3.3047h-3.3398c-.0469-.4297-.168-.7695-.3633-1.0195-.3672-.4531-.9922-.6797-1.875-.6797-.7266,0-1.2441.1133-1.5527.3398s-.4629.4922-.4629.7969c0,.3828.1641.6602.4922.832.3281.1797,1.4883.4883,3.4805.9258,1.3281.3125,2.3242.7852,2.9883,1.418.6562.6406.9844,1.4414.9844,2.4023,0,1.2656-.4707,2.2988-1.4121,3.0996s-2.3965,1.2012-4.3652,1.2012c-2.0078,0-3.4902-.4238-4.4473-1.2715s-1.4355-1.9277-1.4355-3.2402h3.3867c.0703.5938.2227,1.0156.457,1.2656.4141.4453,1.1797.668,2.2969.668.6562,0,1.1777-.0977,1.5645-.293s.5801-.4883.5801-.8789c0-.375-.1562-.6602-.4688-.8555s-1.4727-.5312-3.4805-1.0078c-1.4453-.3594-2.4648-.8086-3.0586-1.3477-.5938-.5312-.8906-1.2969-.8906-2.2969,0-1.1797.4629-2.1934,1.3887-3.041s2.2285-1.2715,3.9082-1.2715c1.5938,0,2.8945.3164,3.9023.9492Z" style="fill:#221f20; stroke-width:0px;"/><path d="M348.8259,177.5669h-7.4414v-17.2734h7.4414c1.0703.0156,1.9609.1406,2.6719.375,1.2109.3984,2.1914,1.1289,2.9414,2.1914.6016.8594,1.0117,1.7891,1.2305,2.7891s.3281,1.9531.3281,2.8594c0,2.2969-.4609,4.2422-1.3828,5.8359-1.25,2.1484-3.1797,3.2227-5.7891,3.2227ZM351.5095,164.6997c-.5547-.9375-1.6523-1.4062-3.293-1.4062h-3.3281v11.2734h3.3281c1.7031,0,2.8906-.8398,3.5625-2.5195.3672-.9219.5508-2.0195.5508-3.293,0-1.7578-.2734-3.1094-.8203-4.0547Z" style="fill:#221f20; stroke-width:0px;"/><path d="M369.0994,166.4107c1.0781,1.3516,1.6172,2.9492,1.6172,4.793,0,1.875-.5391,3.4785-1.6172,4.8105s-2.7148,1.998-4.9102,1.998-3.832-.666-4.9102-1.998-1.6172-2.9355-1.6172-4.8105c0-1.8438.5391-3.4414,1.6172-4.793s2.7148-2.0273,4.9102-2.0273,3.832.6758,4.9102,2.0273ZM364.1775,167.2075c-.9766,0-1.7285.3457-2.2559,1.0371s-.791,1.6777-.791,2.959.2637,2.2695.791,2.9648,1.2793,1.043,2.2559,1.043,1.7266-.3477,2.25-1.043.7852-1.6836.7852-2.9648-.2617-2.2676-.7852-2.959-1.2734-1.0371-2.25-1.0371Z" style="fill:#221f20; stroke-width:0px;"/><path d="M383.7595,166.4107c1.0781,1.3516,1.6172,2.9492,1.6172,4.793,0,1.875-.5391,3.4785-1.6172,4.8105s-2.7148,1.998-4.9102,1.998-3.832-.666-4.9102-1.998-1.6172-2.9355-1.6172-4.8105c0-1.8438.5391-3.4414,1.6172-4.793s2.7148-2.0273,4.9102-2.0273,3.832.6758,4.9102,2.0273ZM378.8377,167.2075c-.9766,0-1.7285.3457-2.2559,1.0371s-.791,1.6777-.791,2.959.2637,2.2695.791,2.9648,1.2793,1.043,2.2559,1.043,1.7266-.3477,2.25-1.043.7852-1.6836.7852-2.9648-.2617-2.2676-.7852-2.959-1.2734-1.0371-2.25-1.0371Z" style="fill:#221f20; stroke-width:0px;"/><path d="M394.1892,167.8755c-1.3438,0-2.2461.4375-2.707,1.3125-.2578.4922-.3867,1.25-.3867,2.2734v6.1055h-3.3633v-12.7734h3.1875v2.2266c.5156-.8516.9648-1.4336,1.3477-1.7461.625-.5234,1.4375-.7852,2.4375-.7852.0625,0,.1152.002.1582.0059s.1387.0098.2871.0176v3.4219c-.2109-.0234-.3984-.0391-.5625-.0469s-.2969-.0117-.3984-.0117Z" style="fill:#221f20; stroke-width:0px;"/><path d="M207.2703,206.3667v-1.1514h-.0479c-.2881.4795-.6616.8262-1.1201,1.04-.4585.2129-.9277.3193-1.4077.3193-.6084,0-1.1069-.0801-1.4961-.2402-.3896-.1592-.6963-.3857-.9199-.6797-.2241-.293-.3818-.6504-.4722-1.0723-.0908-.4209-.1362-.8877-.1362-1.3994v-5.0879h2.2725v4.6719c0,.6826.1064,1.1914.3198,1.5283.2134.3359.5918.5039,1.1357.5039.6187,0,1.0669-.1846,1.3442-.5527.2773-.3672.416-.9727.416-1.8154v-4.3359h2.272v8.2715h-2.1602Z" style="fill:#221f20; stroke-width:0px;"/><path d="M213.3181,198.0952v1.1514h.0479c.2881-.4795.6616-.8291,1.1201-1.0479s.9282-.3281,1.4082-.3281c.6079,0,1.1064.083,1.4961.248.3892.166.6958.3955.9199.6885s.3813.6504.4717,1.0723c.0908.4209.1362.8877.1362,1.3994v5.0879h-2.272v-4.6719c0-.6826-.1069-1.1914-.3198-1.5283-.2139-.3359-.5923-.5039-1.1362-.5039-.6187,0-1.0669.1846-1.3442.5527-.2773.3672-.4155.9727-.4155,1.8154v4.3359h-2.2725v-8.2715h2.1602Z" style="fill:#221f20; stroke-width:0px;"/><path d="M222.9822,194.9429v11.4238h-2.272v-11.4238h2.272Z" style="fill:#221f20; stroke-width:0px;"/><path d="M224.822,200.439c.2021-.5381.4902-.9971.8638-1.376s.8213-.6719,1.3442-.8799c.5225-.208,1.1094-.3125,1.7598-.3125s1.2402.1045,1.7681.3125.9785.501,1.3521.8799c.373.3789.6611.8379.8638,1.376.2026.5391.3042,1.1387.3042,1.7998,0,.6621-.1016,1.2588-.3042,1.792s-.4907.9893-.8638,1.3682c-.3735.3789-.8242.6699-1.3521.8721s-1.1177.3037-1.7681.3037-1.2373-.1016-1.7598-.3037c-.5229-.2021-.9707-.4932-1.3442-.8721s-.6616-.835-.8638-1.3682c-.2026-.5332-.3042-1.1299-.3042-1.792,0-.6611.1016-1.2607.3042-1.7998ZM226.886,203.2066c.064.3154.1733.5977.3281.8486.1543.251.3599.4502.6157.5996s.5762.2246.96.2246c.3843,0,.7065-.0752.9683-.2246.2612-.1494.4692-.3486.624-.5996.1543-.251.2637-.5332.3276-.8486.064-.3145.0962-.6367.0962-.9678,0-.3301-.0322-.6562-.0962-.9756-.064-.3203-.1733-.6025-.3276-.8486-.1548-.2451-.3628-.4453-.624-.5996-.2617-.1543-.584-.2324-.9683-.2324-.3838,0-.7041.0781-.96.2324s-.4614.3545-.6157.5996c-.1548.2461-.2642.5283-.3281.8486-.064.3193-.0962.6455-.0962.9756,0,.3311.0322.6533.0962.9678Z" style="fill:#221f20; stroke-width:0px;"/><path d="M238.5017,199.5825c-.3628,0-.6665.083-.9121.248-.2451.166-.4453.3789-.5996.6406-.1548.2617-.2642.5488-.3281.8633-.064.3154-.0962.627-.0962.9365,0,.2988.0322.6025.0962.9121s.168.5889.312.8398.3384.4561.584.6162c.2451.1602.5439.2402.896.2402.5439,0,.9624-.1523,1.2559-.4561.2935-.3047.4775-.7119.5522-1.2246h2.1919c-.1494,1.0986-.5762,1.9365-1.2803,2.5127-.7036.5752-1.6055.8633-2.7036.8633-.6191,0-1.187-.1035-1.7041-.3115-.5176-.208-.9575-.499-1.3203-.8721-.3623-.373-.6455-.8184-.8477-1.3359-.2026-.5176-.3042-1.0859-.3042-1.7041,0-.6396.0933-1.2344.2803-1.7842.1865-.5488.4609-1.0244.8237-1.4238.3628-.4004.8052-.7119,1.3281-.9365.5225-.2236,1.1201-.3359,1.792-.3359.4902,0,.9624.0645,1.416.1924.4531.1279.8584.3223,1.2158.584s.6479.5869.8721.9756c.2241.3896.3521.8516.3843,1.3848h-2.2241c-.1494-.9492-.7095-1.4248-1.6802-1.4248Z" style="fill:#221f20; stroke-width:0px;"/><path d="M246.2136,194.9429v6.1279l2.8643-2.9756h2.6875l-3.1201,3.04,3.4727,5.2314h-2.752l-2.2725-3.6953-.8799.8477v2.8477h-2.272v-11.4238h2.272Z" style="fill:#221f20; stroke-width:0px;"/><path d="M255.573,198.1987c-.2773,1.2217-.416,2.4619-.416,3.7197,0,1.2803.1367,2.5342.4082,3.7607.2725,1.2266.7119,2.4209,1.3203,3.584h-1.8887c-.6719-1.0986-1.1914-2.2559-1.5596-3.4727-.3682-1.2158-.5518-2.4531-.5518-3.7119,0-.5967.0449-1.2236.1357-1.8799s.2236-1.3086.4004-1.96c.1758-.6504.3945-1.2803.6553-1.8877.2617-.6084.5684-1.168.9199-1.6797h1.9043c-.6074,1.1299-1.0508,2.3066-1.3281,3.5273Z" style="fill:#221f20; stroke-width:0px;"/><path d="M257.9968,205.7505c.2832-1.21.4238-2.4443.4238-3.7031,0-1.2803-.1387-2.5391-.416-3.7764s-.709-2.4375-1.2959-3.5996h1.8721c.6719,1.0986,1.1924,2.2607,1.5605,3.4873s.5518,2.4697.5518,3.7285c0,.5977-.043,1.2236-.1279,1.8799-.0859.6562-.2158,1.3066-.3926,1.9521-.1758.6455-.3975,1.2715-.6631,1.8799-.2676.6074-.5762,1.1621-.9287,1.6641h-1.8877c.5869-1.1309,1.0215-2.3018,1.3037-3.5127Z" style="fill:#221f20; stroke-width:0px;"/><path d="M214.2942,212.1997l-1.8237,8.5674h-.4561l.3237-1.3799-.0239-.0234c-.2319.4795-.542.8574-.9302,1.1338-.3877.2754-.8579.4141-1.4097.4141-.3843,0-.7222-.0645-1.0142-.1924s-.5361-.3037-.7319-.5283c-.1963-.2236-.3418-.4814-.438-.7734s-.144-.6016-.144-.9297c0-.4639.0698-.9365.21-1.416.1401-.4805.3521-.9141.6362-1.3027.2837-.3877.6357-.7031,1.0557-.9473.4204-.2441.9102-.3662,1.4702-.3662.5278,0,.9736.1436,1.3379.4316.3638.2881.5742.6885.6299,1.2002h.0244l.8276-3.8877h.4561ZM210.0701,220.5152c.4399,0,.8301-.126,1.1704-.3779.3398-.252.6216-.5703.8457-.9541s.394-.7998.5103-1.248c.1157-.4473.1738-.8672.1738-1.2598,0-.2236-.0381-.4463-.1138-.666-.0762-.2197-.186-.416-.3301-.5879s-.3223-.3096-.5342-.4141c-.2119-.1035-.4502-.1562-.7139-.1562-.4883,0-.916.1123-1.2842.3359-.3682.2246-.6777.5088-.9297.8525-.2524.3438-.4424.7256-.5703,1.1455s-.1919.8223-.1919,1.2061c0,.2725.0278.5361.084.792.0557.2568.1577.4824.3062.6787.1479.1953.3477.3535.5996.4736.2524.1201.5781.1797.978.1797Z" style="fill:#221f20; stroke-width:0px;"/><path d="M217.6423,214.4556c.7676,0,1.3657.2119,1.7939.6357.4277.4238.6421,1.0205.6421,1.7881,0,.4717-.0703.9482-.2104,1.4277-.1396.4805-.3477.9121-.6235,1.2959-.2764.3848-.6201.6982-1.0322.9424s-.8862.3662-1.4219.3662c-.4243,0-.79-.0625-1.0981-.1865s-.564-.2998-.7681-.5273c-.2041-.2285-.356-.5-.4561-.8164s-.1499-.6699-.1499-1.0625c0-.4639.0762-.9277.228-1.3916s.3701-.8779.6538-1.2422c.2842-.3633.6318-.6602,1.0444-.8877.4116-.2285.8774-.3418,1.3979-.3418ZM217.738,214.8511c-.4722-.0078-.8921.0898-1.2598.2939-.3682.2041-.6782.4707-.9302.7979-.252.3281-.4438.6982-.5762,1.1104-.1318.4121-.1978.8223-.1978,1.2305,0,.3115.0381.6016.1138.8701.0762.2676.1963.5039.3604.708.1636.2031.3721.3633.624.4795s.5537.1738.9058.1738c.4722,0,.8862-.1143,1.2422-.3418s.6519-.5176.8877-.8701c.2358-.3516.4141-.7422.5342-1.1699s.1802-.8418.1802-1.2422c0-.6074-.1523-1.0957-.4561-1.4639-.3042-.3682-.7803-.5596-1.4282-.5762Z" style="fill:#221f20; stroke-width:0px;"/><path d="M221.2786,217.7437c-.0161.1113-.0303.2236-.042.3359-.0122.1123-.0181.2236-.0181.3359,0,.2803.0439.5479.1318.8037s.2139.4805.3779.6719c.1641.1924.3682.3447.6123.4561.2437.1123.522.168.834.168.2881,0,.562-.0498.8218-.1494.2603-.1006.4922-.2324.6963-.3965.2036-.1641.376-.3535.5156-.5703.1401-.2158.2383-.4434.2944-.6836h.4556c-.0879.3203-.2158.6143-.3838.8818-.168.2686-.3721.5-.6118.6963-.2402.1963-.5142.3477-.8223.4561-.3081.1074-.646.1621-1.0137.1621-.3921,0-.7363-.0645-1.0322-.1924s-.542-.3037-.7378-.5283c-.1963-.2236-.3442-.4834-.4443-.7793s-.1499-.6084-.1499-.9365c0-.5762.0762-1.1074.228-1.5957s.3677-.9121.6479-1.2725c.2798-.3594.624-.6416,1.0322-.8457.4077-.2041.8638-.3057,1.3677-.3057.3604,0,.6802.0596.96.1797.2803.1201.5161.2861.708.498.1924.2119.3379.4639.438.7559s.1504.6064.1504.9424c0,.1602-.0083.3135-.0244.4619s-.0356.2979-.0596.4502h-4.9321ZM225.7786,217.3472c.0156-.1035.0298-.1953.042-.2754.0117-.0801.0181-.1602.0181-.2402,0-.2646-.0381-.5166-.1143-.7559-.0762-.2402-.1899-.4502-.3418-.6299-.1523-.1807-.3481-.3242-.5879-.4326-.2402-.1074-.5205-.1621-.8403-.1621-.3599,0-.686.0684-.978.2041-.292.1367-.5459.3203-.7617.5518-.2163.2324-.396.498-.54.7988-.144.2998-.252.6133-.3242.9414h4.4282Z" style="fill:#221f20; stroke-width:0px;"/><path d="M227.2542,218.6675c0,.0479-.002.0957-.0063.1436-.0039.0479-.0059.0967-.0059.1445,0,.5762.186.9795.5581,1.2119s.8818.3477,1.5298.3477c.168,0,.3481-.0273.54-.084.1924-.0557.3721-.1396.54-.252.168-.1113.3062-.25.4141-.4141s.1621-.3535.1621-.5693c-.0083-.2959-.0981-.5303-.27-.7021-.1724-.1719-.3843-.3164-.6362-.4326-.252-.1152-.5259-.2178-.8218-.3057s-.5684-.1982-.8159-.3301c-.248-.1318-.4561-.2979-.624-.498s-.248-.4678-.2402-.8037c0-.2881.064-.5381.1924-.75.1274-.2119.2954-.3857.5039-.5225.208-.1357.4419-.2354.7017-.2998.2603-.0635.522-.0957.7861-.0957.2881,0,.5601.0342.8159.1016.2559.0684.48.166.6724.2939.1919.1279.3438.29.4556.4863.1123.1963.168.418.168.666,0,.0723-.002.1396-.0059.2041-.0039.0635-.0103.1475-.0181.252h-.4561c.0083-.0723.0142-.1396.0181-.2041s.0063-.1279.0063-.1924c0-.1992-.0444-.376-.1323-.5273-.0879-.1523-.208-.2783-.3599-.3779-.1519-.1006-.3281-.1758-.5278-.2285-.2002-.0518-.4121-.0781-.6362-.0781-.1841,0-.376.0205-.5762.0605-.1997.04-.3857.1074-.5576.2041-.1724.0957-.3145.2217-.4263.3779-.1118.1553-.168.3496-.168.582,0,.2002.0498.3701.1499.5098s.23.2617.3901.3662c.1602.1035.3423.1934.5459.2695.2041.0762.4102.1504.6182.2217.2158.0723.4258.1523.6299.2402s.3857.1943.5459.3184.2881.2715.3843.4443c.0957.1719.144.3779.144.6172,0,.3047-.0659.5723-.1982.8047-.1318.2314-.3057.4258-.522.582-.2158.1553-.46.2715-.7319.3477s-.5518.1143-.8398.1143c-.3281,0-.6362-.0322-.9243-.0967-.2876-.0635-.5381-.168-.75-.3115-.2119-.1445-.3799-.334-.5039-.5703-.124-.2354-.186-.5254-.186-.8701v-.2881c0-.0312.0044-.0674.0122-.1074h.4561Z" style="fill:#221f20; stroke-width:0px;"/><path d="M236.1462,218.6675c0,.0479-.002.0957-.0063.1436-.0039.0479-.0059.0967-.0059.1445,0,.5762.186.9795.5581,1.2119s.8818.3477,1.5298.3477c.168,0,.3481-.0273.54-.084.1924-.0557.3721-.1396.54-.252.168-.1113.3062-.25.4141-.4141s.1621-.3535.1621-.5693c-.0083-.2959-.0981-.5303-.27-.7021-.1724-.1719-.3843-.3164-.6362-.4326-.252-.1152-.5259-.2178-.8218-.3057s-.5684-.1982-.8159-.3301c-.248-.1318-.4561-.2979-.624-.498s-.248-.4678-.2402-.8037c0-.2881.064-.5381.1924-.75.1274-.2119.2954-.3857.5039-.5225.208-.1357.4419-.2354.7017-.2998.2603-.0635.522-.0957.7861-.0957.2881,0,.5601.0342.8159.1016.2559.0684.48.166.6724.2939.1919.1279.3438.29.4556.4863.1123.1963.168.418.168.666,0,.0723-.002.1396-.0059.2041-.0039.0635-.0103.1475-.0181.252h-.4561c.0083-.0723.0142-.1396.0181-.2041s.0063-.1279.0063-.1924c0-.1992-.0444-.376-.1323-.5273-.0879-.1523-.208-.2783-.3599-.3779-.1519-.1006-.3281-.1758-.5278-.2285-.2002-.0518-.4121-.0781-.6362-.0781-.1841,0-.376.0205-.5762.0605-.1997.04-.3857.1074-.5576.2041-.1724.0957-.3145.2217-.4263.3779-.1118.1553-.168.3496-.168.582,0,.2002.0498.3701.1499.5098s.23.2617.3901.3662c.1602.1035.3423.1934.5459.2695.2041.0762.4102.1504.6182.2217.2158.0723.4258.1523.6299.2402s.3857.1943.5459.3184.2881.2715.3843.4443c.0957.1719.144.3779.144.6172,0,.3047-.0659.5723-.1982.8047-.1318.2314-.3057.4258-.522.582-.2158.1553-.46.2715-.7319.3477s-.5518.1143-.8398.1143c-.3281,0-.6362-.0322-.9243-.0967-.2876-.0635-.5381-.168-.75-.3115-.2119-.1445-.3799-.334-.5039-.5703-.124-.2354-.186-.5254-.186-.8701v-.2881c0-.0312.0044-.0674.0122-.1074h.4561Z" style="fill:#221f20; stroke-width:0px;"/><path d="M241.5945,214.5991h1.1396l.4199-1.9316h.4561l-.4199,1.9316h1.3203l-.0967.3965h-1.2954l-.936,4.2959c-.0083.0156-.0161.0498-.0239.1016-.0083.0527-.0181.1084-.0303.168-.0117.0605-.022.1182-.0298.1738-.0083.0566-.0122.0967-.0122.1201,0,.1768.0542.3066.1621.3906s.2861.126.5342.126c.2236,0,.4517-.0127.6836-.0361l-.084.3955c-.0801,0-.188.0068-.3237.0186-.1362.0117-.2759.0176-.4199.0176-.3604,0-.6182-.0801-.7739-.2402-.1562-.1592-.2344-.3877-.2344-.6836,0-.0801.0122-.1758.0361-.2881.0239-.1113.0439-.2119.0601-.2998l.936-4.2598h-1.1641l.0962-.3965Z" style="fill:#221f20; stroke-width:0px;"/><path d="M248.9138,220.7671h-.4561l.2881-1.2959-.0234-.0234c-.1367.2314-.2803.4375-.4326.6172-.1523.1807-.3242.335-.5156.4619-.1924.1289-.4062.2246-.6426.2881-.2354.0645-.5098.0967-.8213.0967-.2324,0-.4541-.0381-.666-.1143-.2129-.0762-.3984-.1875-.5586-.3359s-.2881-.3281-.3838-.54-.1436-.4502-.1436-.7139c0-.0723.0059-.1641.0176-.2764.0117-.1113.0283-.2275.0479-.3477.0205-.1201.04-.2344.0605-.3418.0195-.1084.0371-.1982.0537-.2705l.7559-3.3721h.4561l-.7559,3.3604c-.0166.0557-.0342.1357-.0537.2402-.0205.1035-.041.2158-.0605.3359s-.0361.2383-.0479.3535c-.0117.1162-.0176.2178-.0176.3066,0,.3916.126.71.3779.9531.252.2441.6094.3662,1.0732.3662.3682,0,.7021-.0918,1.002-.2754.3008-.1846.5645-.4219.792-.7148.2285-.292.416-.6152.5645-.9717.1475-.3555.2578-.7061.3301-1.0498l.6123-2.9043h.4561l-1.3086,6.168Z" style="fill:#221f20; stroke-width:0px;"/><path d="M252.1062,214.5991l.1074-.4795c.0479-.2158.1025-.4443.1621-.6846.0605-.2393.1484-.458.2646-.6533.1152-.1963.2734-.3584.4736-.4863s.4639-.1924.792-.1924c.1357,0,.2637.0059.3838.0186.1201.0117.208.0254.2646.042l-.085.3955c-.1592-.04-.3193-.0596-.4795-.0596-.2559,0-.46.0498-.6123.1494-.1514.1006-.2734.2285-.3662.3848-.0918.1553-.1611.3301-.21.5215-.0479.1924-.0918.3799-.1318.5645l-.1074.4795h1.3076l-.084.3965h-1.3076l-1.2363,5.7715h-.4561l1.2236-5.7715h-1.0557l.084-.3965h1.0684Z" style="fill:#221f20; stroke-width:0px;"/><path d="M254.9978,214.5991l.1074-.4795c.0479-.2158.1025-.4443.1621-.6846.0605-.2393.1484-.458.2646-.6533.1152-.1963.2734-.3584.4736-.4863s.4639-.1924.792-.1924c.1357,0,.2637.0059.3838.0186.1201.0117.208.0254.2646.042l-.085.3955c-.1592-.04-.3193-.0596-.4795-.0596-.2559,0-.46.0498-.6123.1494-.1514.1006-.2734.2285-.3662.3848-.0918.1553-.1611.3301-.21.5215-.0479.1924-.0918.3799-.1318.5645l-.1074.4795h1.3076l-.084.3965h-1.3076l-1.2363,5.7715h-.4561l1.2236-5.7715h-1.0557l.084-.3965h1.0684Z" style="fill:#221f20; stroke-width:0px;"/><path d="M260.0496,214.5991h.4561l.6123,5.6406h.0234l2.8564-5.6406h.6113l.5645,5.6406h.0244l2.9033-5.6406h.5283l-3.2881,6.168h-.5518l-.5518-5.5918h-.0244l-2.8916,5.5918h-.5645l-.708-6.168Z" style="fill:#221f20; stroke-width:0px;"/><path d="M269.3738,214.5991h.4551l-1.2832,6.168h-.4561l1.2842-6.168ZM269.8777,212.1997h.4561l-.252,1.2354h-.4561l.252-1.2354Z" style="fill:#221f20; stroke-width:0px;"/><path d="M270.5017,214.5991h1.1396l.4199-1.9316h.4561l-.4199,1.9316h1.3203l-.0967.3965h-1.2959l-.9355,4.2959c-.0088.0156-.0166.0498-.0244.1016-.0078.0527-.0176.1084-.0303.168-.0117.0605-.0215.1182-.0293.1738-.0088.0566-.0127.0967-.0127.1201,0,.1768.0547.3066.1621.3906.1084.084.2861.126.5342.126.2236,0,.4521-.0127.6836-.0361l-.084.3955c-.0801,0-.1875.0068-.3232.0186-.1367.0117-.2764.0176-.4199.0176-.3604,0-.6182-.0801-.7744-.2402-.1562-.1592-.2344-.3877-.2344-.6836,0-.0801.0127-.1758.0361-.2881.0244-.1113.0439-.2119.0605-.2998l.9355-4.2598h-1.1641l.0967-.3965Z" style="fill:#221f20; stroke-width:0px;"/><path d="M275.0134,212.1997h.4561l-.792,3.6953h.0234c.2725-.4316.6162-.7793,1.0322-1.0439.416-.2637.9004-.3955,1.4521-.3955.2314,0,.4541.0381.666.1133.2119.0762.3975.1885.5576.3369.1602.1475.2881.3281.3838.54.0967.2119.1445.4492.1445.7139,0,.0713-.0059.1641-.0186.2754-.0117.1123-.0273.2285-.0479.3486-.0195.1201-.04.2334-.0596.3418-.0205.1074-.0381.1982-.0537.2695l-.7568,3.3721h-.4561l.7568-3.3594c.0078-.0566.0215-.1367.042-.2402.0195-.1045.04-.2139.0596-.3301s.0381-.2344.0537-.3545c.0166-.1191.0244-.2236.0244-.3115,0-.3916-.126-.71-.3779-.9541s-.6104-.3662-1.0742-.3662c-.3916,0-.7422.0928-1.0498.2764-.3086.1836-.5762.4219-.8037.7139-.2285.292-.4189.6162-.5703.9717-.1523.3564-.2637.7061-.3359,1.0508l-.6123,2.9033h-.4561l1.8125-8.5674Z" style="fill:#221f20; stroke-width:0px;"/><path d="M284.6013,212.1997h.4561l-1.2246,5.6641.0244.0234,4.1396-3.2881h.6846l-3.1318,2.46,2.208,3.708h-.5762l-2.0166-3.4199-1.4639,1.1406-.4795,2.2793h-.4561l1.8359-8.5674Z" style="fill:#221f20; stroke-width:0px;"/><path d="M288.9451,217.7437c-.0156.1113-.0303.2236-.042.3359s-.0176.2236-.0176.3359c0,.2803.0439.5479.1318.8037s.2139.4805.3779.6719c.1641.1924.3682.3447.6123.4561.2432.1123.5215.168.834.168.2881,0,.5615-.0498.8213-.1494.2607-.1006.4922-.2324.6963-.3965s.376-.3535.5156-.5703c.1406-.2158.2383-.4434.2949-.6836h.4551c-.0879.3203-.2158.6143-.3838.8818-.168.2686-.3721.5-.6113.6963-.2402.1963-.5146.3477-.8223.4561-.3086.1074-.6465.1621-1.0137.1621-.3926,0-.7363-.0645-1.0322-.1924s-.542-.3037-.7383-.5283c-.1963-.2236-.3438-.4834-.4443-.7793-.0996-.2959-.1494-.6084-.1494-.9365,0-.5762.0762-1.1074.2275-1.5957.1523-.4883.3682-.9121.6484-1.2725.2793-.3594.624-.6416,1.0322-.8457.4072-.2041.8633-.3057,1.3672-.3057.3604,0,.6807.0596.96.1797.2803.1201.5166.2861.708.498.1924.2119.3379.4639.4385.7559.0996.292.1504.6064.1504.9424,0,.1602-.0088.3135-.0244.4619-.0166.1484-.0361.2979-.0596.4502h-4.9326ZM293.4451,217.3472c.0156-.1035.0303-.1953.042-.2754s.0186-.1602.0186-.2402c0-.2646-.0381-.5166-.1143-.7559-.0762-.2402-.1904-.4502-.3418-.6299-.1523-.1807-.3486-.3242-.5879-.4326-.2402-.1074-.5205-.1621-.8408-.1621-.3594,0-.6855.0684-.9775.2041-.292.1367-.5459.3203-.7617.5518-.2168.2324-.3965.498-.54.7988-.1445.2998-.252.6133-.3242.9414h4.4277Z" style="fill:#221f20; stroke-width:0px;"/><path d="M293.781,222.5435c.1523.0234.2959.0361.4326.0361.2959,0,.5312-.084.708-.252.1758-.168.3359-.3682.4795-.6006l.6006-.96-1.2129-6.168h.5283l1.0322,5.5566,3.1436-5.5566h.54l-4.1875,7.248c-.1045.1846-.208.3457-.3125.4863-.1035.1396-.2197.2578-.3477.3535-.1279.0967-.2725.168-.4316.2168-.1602.0479-.3525.0713-.5762.0713-.0967,0-.1865-.0039-.2705-.0117s-.1572-.0166-.2217-.0244l.0957-.3955Z" style="fill:#221f20; stroke-width:0px;"/><path d="M308.3855,218.7515c-.2402.6396-.5947,1.1602-1.0625,1.5596-.4678.4004-1.0537.6006-1.7578.6006-.4238,0-.7861-.0664-1.0859-.1982s-.5459-.3164-.7383-.5518c-.1924-.2363-.332-.5146-.4199-.834-.0879-.3203-.1318-.6719-.1318-1.0566,0-.4795.0801-.9473.2402-1.4033.1592-.4561.3857-.8643.6777-1.2246.292-.3594.6436-.6475,1.0557-.8633.4121-.2168.8662-.3242,1.3623-.3242.3193,0,.6182.0498.8936.1494.2764.1006.5146.2402.7139.4199.2002.1807.3525.3965.4561.6484.1045.252.1445.5342.1201.8457h-.4561c0-.5273-.1533-.9375-.4619-1.2295-.3076-.292-.7295-.4385-1.2656-.4385-.4482,0-.8506.1025-1.2061.3066-.3564.2041-.6582.4697-.9062.7979s-.4375.6943-.5703,1.0977c-.1318.4043-.1973.8018-.1973,1.1943,0,.2959.0361.5801.1074.8516.0723.2725.1846.5146.3359.7266.1523.2119.3467.3799.582.5039.2363.124.5186.1855.8467.1855.5752,0,1.0615-.1621,1.458-.4854.3955-.3242.6973-.75.9053-1.2783h.5049Z" style="fill:#221f20; stroke-width:0px;"/><path d="M309.8611,216.3755c.1602-.6885.4678-1.1797.9238-1.4766.4561-.2959,1.0322-.4434,1.7285-.4434.1514,0,.3379.0176.5576.0537s.4297.1084.6299.2158c.2002.1084.3701.2568.5098.4443.1406.1875.21.4375.21.75,0,.1357-.0195.3135-.0596.5342-.04.2197-.084.4375-.1318.6533-.0479.2168-.0947.4121-.1387.5889-.0439.1758-.0693.2871-.0771.3359-.04.1602-.084.3359-.1328.5273-.0479.1924-.0918.3799-.1318.5645-.04.1836-.0742.3535-.1016.5098-.0283.1562-.042.2783-.042.3662,0,.1123.0273.2061.084.2822.0557.0762.1396.1133.252.1133.0635,0,.1318-.0078.2041-.0234.0713-.0166.1396-.0322.2041-.0479l-.0723.4072c-.0879.0244-.1777.04-.2705.0488-.0918.0078-.1777.0117-.2578.0117-.208,0-.3594-.0723-.4561-.2158-.0957-.1445-.1436-.2842-.1436-.4199,0-.0645.0117-.1465.0361-.2461.0234-.1006.0439-.1904.0596-.2705h-.0234c-.1201.2246-.2725.416-.4561.5762-.1846.1602-.3809.292-.5879.3965-.209.1035-.4248.1797-.6484.2275s-.4365.0723-.6357.0723c-.2646,0-.5127-.0303-.7441-.0898-.2324-.0605-.4346-.1562-.6064-.2881-.1719-.1328-.3076-.3018-.4072-.5107-.1006-.208-.1504-.4639-.1504-.7676,0-.3916.0762-.7119.2275-.96.1523-.248.3545-.4404.6064-.5762s.54-.2295.8643-.2822c.3232-.0518.6611-.082,1.0137-.0898.4316-.0156.792-.0459,1.0801-.0898s.5195-.1123.6963-.2041c.1758-.0918.3018-.2139.3779-.3662.0752-.1514.1133-.3438.1133-.5752,0-.3848-.1182-.6904-.3535-.9189-.2363-.2275-.6338-.3418-1.1943-.3418-.5518,0-1.0039.1221-1.3555.3662-.3525.2441-.5967.6299-.7324,1.1582h-.4678ZM313.7253,217.2876h-.0244c-.0879.0879-.2119.1582-.3721.21s-.332.0957-.5156.1318c-.1846.0361-.3701.0615-.5586.0781-.1875.0156-.3457.0283-.4736.0361-.2881.0078-.5723.0273-.8516.0596-.2803.0322-.5303.1006-.75.2041-.2207.1045-.3984.2539-.5342.4502-.1367.1963-.2041.4619-.2041.7979,0,.2324.0439.4277.1318.5879s.2041.29.3477.3896c.1445.1006.3105.1729.498.2168.1885.0439.3857.0654.5947.0654.3672,0,.6895-.0635.9658-.1914.2754-.1279.5117-.3027.708-.5225.1953-.2197.3594-.4736.4922-.7617.1318-.2881.2412-.5918.3301-.9121l.2158-.8398Z" style="fill:#221f20; stroke-width:0px;"/><path d="M316.3406,214.5991h.4561l-.3359,1.4766h.0244c.2236-.4639.5303-.8506.918-1.1582s.8584-.4619,1.4102-.4619c.0635,0,.1279.002.1914.0059.0645.0039.1279.0098.1924.0176l-.1318.4805c-.1201-.0322-.2441-.0479-.3721-.0479-.4482,0-.8262.1162-1.1338.3477-.3086.2324-.5664.5186-.7744.8584s-.3721.7061-.4922,1.0977-.2158.7441-.2881,1.0557l-.54,2.4961h-.4551l1.3311-6.168Z" style="fill:#221f20; stroke-width:0px;"/><path d="M325.2449,212.1997l-1.8232,8.5674h-.4561l.3232-1.3799-.0234-.0234c-.2324.4795-.542.8574-.9307,1.1338-.3877.2754-.8574.4141-1.4092.4141-.3848,0-.7227-.0645-1.0146-.1924s-.5361-.3037-.7314-.5283c-.1963-.2236-.3418-.4814-.4385-.7734-.0957-.292-.1436-.6016-.1436-.9297,0-.4639.0693-.9365.21-1.416.1396-.4805.3516-.9141.6357-1.3027.2842-.3877.6357-.7031,1.0557-.9473.4209-.2441.9102-.3662,1.4707-.3662.5273,0,.9736.1436,1.3379.4316.3633.2881.5742.6885.6299,1.2002h.0244l.8271-3.8877h.4561ZM321.0212,220.5152c.4395,0,.8301-.126,1.1699-.3779s.6221-.5703.8457-.9541c.2246-.3838.3945-.7998.5107-1.248.1152-.4473.1738-.8672.1738-1.2598,0-.2236-.0381-.4463-.1143-.666s-.1855-.416-.3301-.5879c-.1436-.1719-.3223-.3096-.5342-.4141-.2119-.1035-.4502-.1562-.7139-.1562-.4883,0-.916.1123-1.2842.3359-.3682.2246-.6777.5088-.9297.8525s-.4424.7256-.5703,1.1455-.1914.8223-.1914,1.2061c0,.2725.0273.5361.084.792.0557.2568.1572.4824.3057.6787.1484.1953.3477.3535.5996.4736.2529.1201.5781.1797.9785.1797Z" style="fill:#221f20; stroke-width:0px;"/><path d="M328.8689,218.6675c0,.0479-.002.0957-.0059.1436s-.0059.0967-.0059.1445c0,.5762.1855.9795.5576,1.2119s.8818.3477,1.5303.3477c.168,0,.3477-.0273.54-.084.1924-.0557.3721-.1396.54-.252.168-.1113.3057-.25.4141-.4141.1074-.1641.1621-.3535.1621-.5693-.0088-.2959-.0986-.5303-.2705-.7021s-.3838-.3164-.6357-.4326c-.252-.1152-.5264-.2178-.8223-.3057s-.5684-.1982-.8154-.3301c-.248-.1318-.4561-.2979-.624-.498s-.248-.4678-.2402-.8037c0-.2881.0635-.5381.1924-.75.127-.2119.2949-.3857.5039-.5225.208-.1357.4414-.2354.7012-.2998.2607-.0635.5225-.0957.7861-.0957.2881,0,.5605.0342.8164.1016.2559.0684.4795.166.6719.2939s.3438.29.4561.4863.168.418.168.666c0,.0723-.002.1396-.0059.2041-.0039.0635-.0107.1475-.0186.252h-.4561c.0088-.0723.0146-.1396.0186-.2041s.0059-.1279.0059-.1924c0-.1992-.0439-.376-.1318-.5273-.0879-.1523-.208-.2783-.3604-.3779-.1514-.1006-.3281-.1758-.5273-.2285-.2002-.0518-.4121-.0781-.6367-.0781-.1836,0-.376.0205-.5762.0605-.1992.04-.3857.1074-.5576.2041-.1719.0957-.3145.2217-.4258.3779-.1123.1553-.168.3496-.168.582,0,.2002.0498.3701.1494.5098.1006.1396.2305.2617.3906.3662.1602.1035.3418.1934.5459.2695s.4102.1504.6182.2217c.2158.0723.4258.1523.6299.2402s.3857.1943.5459.3184.2881.2715.3838.4443c.0957.1719.1445.3779.1445.6172,0,.3047-.0664.5723-.1982.8047-.1318.2314-.3057.4258-.5225.582-.2158.1553-.46.2715-.7314.3477-.2725.0762-.5518.1143-.8398.1143-.3281,0-.6367-.0322-.9248-.0967-.2871-.0635-.5381-.168-.75-.3115-.2119-.1445-.3799-.334-.5039-.5703-.124-.2354-.1855-.5254-.1855-.8701v-.2881c0-.0312.0039-.0674.0117-.1074h.4561Z" style="fill:#221f20; stroke-width:0px;"/><path d="M334.6775,217.7437c-.0166.1113-.0303.2236-.042.3359-.0127.1123-.0186.2236-.0186.3359,0,.2803.0439.5479.1318.8037s.2139.4805.3779.6719c.1641.1924.3682.3447.6123.4561.2441.1123.5225.168.834.168.2881,0,.5625-.0498.8223-.1494.2598-.1006.4922-.2324.6963-.3965.2031-.1641.376-.3535.5156-.5703.1396-.2158.2383-.4434.2939-.6836h.4561c-.0879.3203-.2158.6143-.3838.8818-.168.2686-.3721.5-.6123.6963s-.5137.3477-.8223.4561c-.3076.1074-.6455.1621-1.0137.1621-.3916,0-.7363-.0645-1.0322-.1924s-.542-.3037-.7373-.5283c-.1963-.2236-.3447-.4834-.4443-.7793-.1006-.2959-.1504-.6084-.1504-.9365,0-.5762.0762-1.1074.2285-1.5957.1514-.4883.3672-.9121.6475-1.2725.2803-.3594.624-.6416,1.0322-.8457s.8643-.3057,1.3682-.3057c.3604,0,.6797.0596.96.1797s.5156.2861.708.498.3379.4639.4375.7559c.1006.292.1504.6064.1504.9424,0,.1602-.0078.3135-.0244.4619-.0156.1484-.0352.2979-.0596.4502h-4.9316ZM339.1775,217.3472c.0156-.1035.0293-.1953.042-.2754.0117-.0801.0176-.1602.0176-.2402,0-.2646-.0381-.5166-.1143-.7559-.0762-.2402-.1895-.4502-.3418-.6299-.1523-.1807-.3477-.3242-.5879-.4326-.2402-.1074-.5205-.1621-.8398-.1621-.3604,0-.6865.0684-.9785.2041-.292.1367-.5459.3203-.7617.5518-.2158.2324-.3955.498-.54.7988-.1436.2998-.252.6133-.3242.9414h4.4287Z" style="fill:#221f20; stroke-width:0px;"/><path d="M341.4451,214.5991h.4561l-.2998,1.3438h.0234c.2725-.4551.6162-.8174,1.0322-1.0859.416-.2676.9043-.4014,1.4639-.4014.2324,0,.4541.0381.666.1133.2119.0762.3984.1885.5586.3369.1602.1475.2881.3281.3838.54s.1436.4492.1436.7139c0,.0713-.0059.1641-.0176.2754-.0117.1123-.0283.2285-.0479.3486-.0205.1201-.04.2334-.0605.3418-.0195.1074-.0381.1982-.0537.2695l-.7559,3.3721h-.4561l.7559-3.3594c.0078-.0566.0225-.1367.042-.2402.0195-.1045.04-.2139.0605-.3301.0195-.1162.0371-.2344.0537-.3545.0156-.1191.0234-.2236.0234-.3115,0-.3916-.126-.71-.3779-.9541s-.6094-.3662-1.0732-.3662c-.3926,0-.7422.0928-1.0508.2764-.3076.1836-.5752.4219-.8037.7139-.2275.292-.418.6162-.5703.9717-.1514.3564-.2637.7061-.3359,1.0508l-.6113,2.9033h-.4561l1.3076-6.168Z" style="fill:#221f20; stroke-width:0px;"/><path d="M346.8816,218.6675c0,.0479-.002.0957-.0068.1436-.0039.0479-.0059.0967-.0059.1445,0,.5762.1865.9795.5586,1.2119s.8818.3477,1.5293.3477c.168,0,.3486-.0273.54-.084.1924-.0557.3721-.1396.54-.252.168-.1113.3066-.25.4141-.4141.1084-.1641.1621-.3535.1621-.5693-.0078-.2959-.0977-.5303-.2695-.7021-.1729-.1719-.3848-.3164-.6367-.4326-.252-.1152-.5254-.2178-.8213-.3057s-.5684-.1982-.8164-.3301-.4561-.2979-.624-.498-.248-.4678-.2402-.8037c0-.2881.0645-.5381.1924-.75s.2959-.3857.5039-.5225c.208-.1357.4424-.2354.7021-.2998.2598-.0635.5215-.0957.7861-.0957.2881,0,.5596.0342.8154.1016.2559.0684.4805.166.6729.2939.1914.1279.3438.29.4551.4863.1123.1963.168.418.168.666,0,.0723-.002.1396-.0059.2041-.0039.0635-.0098.1475-.0176.252h-.4561c.0078-.0723.0137-.1396.0176-.2041s.0068-.1279.0068-.1924c0-.1992-.0449-.376-.1328-.5273-.0879-.1523-.208-.2783-.3594-.3779-.1523-.1006-.3281-.1758-.5283-.2285-.2002-.0518-.4121-.0781-.6357-.0781-.1846,0-.376.0205-.5762.0605s-.3857.1074-.5576.2041c-.1729.0957-.3145.2217-.4268.3779-.1113.1553-.168.3496-.168.582,0,.2002.0498.3701.1504.5098.0996.1396.2295.2617.3896.3662.1602.1035.3428.1934.5459.2695.2041.0762.4102.1504.6182.2217.2158.0723.4258.1523.6299.2402s.3857.1943.5459.3184.2881.2715.3848.4443c.0957.1719.1436.3779.1436.6172,0,.3047-.0654.5723-.1982.8047-.1318.2314-.3057.4258-.5215.582-.2158.1553-.46.2715-.7324.3477-.2715.0762-.5518.1143-.8398.1143-.3281,0-.6357-.0322-.9238-.0967-.2881-.0635-.5381-.168-.75-.3115-.2119-.1445-.3799-.334-.5039-.5703-.124-.2354-.1865-.5254-.1865-.8701v-.2881c0-.0312.0049-.0674.0127-.1074h.4561Z" style="fill:#221f20; stroke-width:0px;"/><path d="M355.4978,214.4556c.7676,0,1.3652.2119,1.7939.6357.4277.4238.6416,1.0205.6416,1.7881,0,.4717-.0703.9482-.21,1.4277-.1396.4805-.3477.9121-.624,1.2959-.2764.3848-.6201.6982-1.0322.9424s-.8857.3662-1.4219.3662c-.4238,0-.79-.0625-1.0977-.1865-.3086-.124-.5645-.2998-.7686-.5273-.2041-.2285-.3555-.5-.4561-.8164-.0996-.3164-.1494-.6699-.1494-1.0625,0-.4639.0762-.9277.2275-1.3916.1523-.4639.3701-.8779.6543-1.2422.2842-.3633.6318-.6602,1.0439-.8877.4121-.2285.8779-.3418,1.3984-.3418ZM355.5935,214.8511c-.4727-.0078-.8926.0898-1.2598.2939-.3682.2041-.6787.4707-.9307.7979-.252.3281-.4434.6982-.5762,1.1104-.1318.4121-.1973.8223-.1973,1.2305,0,.3115.0381.6016.1133.8701.0762.2676.1963.5039.3604.708.1641.2031.3721.3633.624.4795s.5537.1738.9062.1738c.4717,0,.8857-.1143,1.2422-.3418.3555-.2275.6514-.5176.8877-.8701.2354-.3516.4141-.7422.5342-1.1699s.1797-.8418.1797-1.2422c0-.6074-.1523-1.0957-.4561-1.4639s-.7803-.5596-1.4277-.5762Z" style="fill:#221f20; stroke-width:0px;"/><path d="M359.6248,214.5991h.4561l-.3359,1.4766h.0234c.2246-.4639.5303-.8506.918-1.1582.3887-.3076.8584-.4619,1.4102-.4619.0645,0,.1279.002.1924.0059.0635.0039.1279.0098.1924.0176l-.1328.4805c-.1201-.0322-.2441-.0479-.3721-.0479-.4473,0-.8262.1162-1.1338.3477-.3076.2324-.5654.5186-.7734.8584s-.3721.7061-.4922,1.0977-.2158.7441-.2881,1.0557l-.54,2.4961h-.4561l1.332-6.168Z" style="fill:#221f20; stroke-width:0px;"/><path d="M78.0597,149.1695c0-14.8685,82.3362-20.3598,82.3362-44.4387v-10.8859" style="fill:none; stroke:#221f20; stroke-miterlimit:10;"/><polygon points="165.3822 98.5862 160.3959 89.951 155.4096 98.5862 165.3822 98.5862" style="fill:#221f20; stroke-width:0px;"/><path d="M305.7358,149.1695c0-14.8685-104.6205-20.3598-104.6205-44.4387v-10.8859" style="fill:none; stroke:#221f20; stroke-miterlimit:10;"/><polygon points="206.1016 98.5862 201.1153 89.951 196.1289 98.5862 206.1016 98.5862" style="fill:#221f20; stroke-width:0px;"/></svg>