<?xml version="1.0" encoding="UTF-8"?><svg xmlns="http://www.w3.org/2000/svg" viewBox="0 0 447.4567 195.1678"><g id="a"><rect x=".5" y="46.6363" width="446.4567" height="148.0315" rx="9" ry="9" style="fill:#ebf7ff; stroke:#221f20; stroke-miterlimit:10;"/><rect x="17.6217" y="93.8291" width="160.2527" height="85.5626" rx="9" ry="9" style="fill:#f7fcff; stroke:#221f20; stroke-miterlimit:10;"/><rect x="212.6057" y="93.8291" width="217.2293" height="85.5626" rx="9" ry="9" style="fill:#f7fcff; stroke:#221f20; stroke-miterlimit:10;"/><path d="M24.2954,74.6121c-.9531.5859-2.125.8789-3.5156.8789-2.2891,0-4.1641-.793-5.625-2.3789-1.5234-1.5938-2.2852-3.7734-2.2852-6.5391,0-2.7969.7695-5.0391,2.3086-6.7266s3.5742-2.5312,6.1055-2.5312c2.1953,0,3.959.5566,5.291,1.6699s2.0957,2.502,2.291,4.166h-3.5508c-.2734-1.1797-.9414-2.0039-2.0039-2.4727-.5938-.2578-1.2539-.3867-1.9805-.3867-1.3906,0-2.5332.5254-3.4277,1.5762s-1.3418,2.6309-1.3418,4.7402c0,2.125.4844,3.6289,1.4531,4.5117s2.0703,1.3242,3.3047,1.3242c1.2109,0,2.2031-.3496,2.9766-1.0488s1.25-1.6152,1.4297-2.748h-3.9961v-2.8828h7.1953v9.2695h-2.3906l-.3633-2.1562c-.6953.8203-1.3203,1.3984-1.875,1.7344Z" style="fill:#221f20; stroke-width:0px;"/><path d="M38.5219,65.3426c-1.3438,0-2.2461.4375-2.707,1.3125-.2578.4922-.3867,1.25-.3867,2.2734v6.1055h-3.3633v-12.7734h3.1875v2.2266c.5156-.8516.9648-1.4336,1.3477-1.7461.625-.5234,1.4375-.7852,2.4375-.7852.0625,0,.1152.002.1582.0059s.1387.0098.2871.0176v3.4219c-.2109-.0234-.3984-.0391-.5625-.0469s-.2969-.0117-.3984-.0117Z" style="fill:#221f20; stroke-width:0px;"/><path d="M41.9204,63.6433c.8828-1.125,2.3984-1.6875,4.5469-1.6875,1.3984,0,2.6406.2773,3.7266.832s1.6289,1.6016,1.6289,3.1406v5.8594c0,.4062.0078.8984.0234,1.4766.0234.4375.0898.7344.1992.8906s.2734.2852.4922.3867v.4922h-3.6328c-.1016-.2578-.1719-.5-.2109-.7266s-.0703-.4844-.0938-.7734c-.4609.5-.9922.9258-1.5938,1.2773-.7188.4141-1.5312.6211-2.4375.6211-1.1562,0-2.1113-.3301-2.8652-.9902s-1.1309-1.5957-1.1309-2.8066c0-1.5703.6055-2.707,1.8164-3.4102.6641-.3828,1.6406-.6562,2.9297-.8203l1.1367-.1406c.6172-.0781,1.0586-.1758,1.3242-.293.4766-.2031.7148-.5195.7148-.9492,0-.5234-.1816-.8848-.5449-1.084s-.8965-.2988-1.5996-.2988c-.7891,0-1.3477.1953-1.6758.5859-.2344.2891-.3906.6797-.4688,1.1719h-3.2227c.0703-1.1172.3828-2.0352.9375-2.7539ZM44.4047,72.6199c.3125.2578.6953.3867,1.1484.3867.7188,0,1.3809-.2109,1.9863-.6328s.9199-1.1914.9434-2.3086v-1.2422c-.2109.1328-.4238.2402-.6387.3223s-.5098.1582-.8848.2285l-.75.1406c-.7031.125-1.207.2773-1.5117.457-.5156.3047-.7734.7773-.7734,1.418,0,.5703.1602.9805.4805,1.2305Z" style="fill:#221f20; stroke-width:0px;"/><path d="M65.4868,63.6316c1.0312,1.1016,1.5469,2.7188,1.5469,4.8516,0,2.25-.5059,3.9648-1.5176,5.1445s-2.3145,1.7695-3.9082,1.7695c-1.0156,0-1.8594-.2539-2.5312-.7617-.3672-.2812-.7266-.6914-1.0781-1.2305v6.6562h-3.3047v-17.8008h3.1992v1.8867c.3594-.5547.7422-.9922,1.1484-1.3125.7422-.5703,1.625-.8555,2.6484-.8555,1.4922,0,2.7578.5508,3.7969,1.6523ZM63.5883,68.6473c0-.9844-.2246-1.8555-.6738-2.6133s-1.1777-1.1367-2.1855-1.1367c-1.2109,0-2.043.5742-2.4961,1.7227-.2344.6094-.3516,1.3828-.3516,2.3203,0,1.4844.3945,2.5273,1.1836,3.1289.4688.3516,1.0234.5273,1.6641.5273.9297,0,1.6387-.3594,2.127-1.0781s.7324-1.6758.7324-2.8711Z" style="fill:#221f20; stroke-width:0px;"/><path d="M80.9907,67.534v7.5h-3.4102v-7.7695c0-.6875-.1172-1.2422-.3516-1.6641-.3047-.5938-.8828-.8906-1.7344-.8906-.8828,0-1.5527.2949-2.0098.8848s-.6855,1.4316-.6855,2.5254v6.9141h-3.3281v-17.2148h3.3281v6.1055c.4844-.7422,1.0449-1.2598,1.6816-1.5527s1.3066-.4395,2.0098-.4395c.7891,0,1.5059.1367,2.1504.4102s1.1738.6914,1.5879,1.2539c.3516.4766.5664.9668.6445,1.4707s.1172,1.3262.1172,2.4668Z" style="fill:#221f20; stroke-width:0px;"/><path d="M87.5415,57.6551v3.082h-3.3867v-3.082h3.3867ZM87.5415,62.2605v12.7734h-3.3867v-12.7734h3.3867Z" style="fill:#221f20; stroke-width:0px;"/><path d="M101.8266,66.8426h-3.4219c-.0625-.4766-.2227-.9062-.4805-1.2891-.375-.5156-.957-.7734-1.7461-.7734-1.125,0-1.8945.5586-2.3086,1.6758-.2188.5938-.3281,1.3828-.3281,2.3672,0,.9375.1094,1.6914.3281,2.2617.3984,1.0625,1.1484,1.5938,2.25,1.5938.7812,0,1.3359-.2109,1.6641-.6328s.5273-.9688.5977-1.6406h3.4102c-.0781,1.0156-.4453,1.9766-1.1016,2.8828-1.0469,1.4609-2.5977,2.1914-4.6523,2.1914s-3.5664-.6094-4.5352-1.8281-1.4531-2.8008-1.4531-4.7461c0-2.1953.5352-3.9023,1.6055-5.1211s2.5469-1.8281,4.4297-1.8281c1.6016,0,2.9121.3594,3.9316,1.0781s1.623,1.9883,1.8105,3.8086Z" style="fill:#221f20; stroke-width:0px;"/><path d="M112.9243,62.8465c1,.6406,1.5742,1.7422,1.7227,3.3047h-3.3398c-.0469-.4297-.168-.7695-.3633-1.0195-.3672-.4531-.9922-.6797-1.875-.6797-.7266,0-1.2441.1133-1.5527.3398s-.4629.4922-.4629.7969c0,.3828.1641.6602.4922.832.3281.1797,1.4883.4883,3.4805.9258,1.3281.3125,2.3242.7852,2.9883,1.418.6562.6406.9844,1.4414.9844,2.4023,0,1.2656-.4707,2.2988-1.4121,3.0996s-2.3965,1.2012-4.3652,1.2012c-2.0078,0-3.4902-.4238-4.4473-1.2715s-1.4355-1.9277-1.4355-3.2402h3.3867c.0703.5938.2227,1.0156.457,1.2656.4141.4453,1.1797.668,2.2969.668.6562,0,1.1777-.0977,1.5645-.293s.5801-.4883.5801-.8789c0-.375-.1562-.6602-.4688-.8555s-1.4727-.5312-3.4805-1.0078c-1.4453-.3594-2.4648-.8086-3.0586-1.3477-.5938-.5312-.8906-1.2969-.8906-2.2969,0-1.1797.4629-2.1934,1.3887-3.041s2.2285-1.2715,3.9082-1.2715c1.5938,0,2.8945.3164,3.9023.9492Z" style="fill:#221f20; stroke-width:0px;"/><path d="M128.3344,74.6121c-.9531.5859-2.125.8789-3.5156.8789-2.2891,0-4.1641-.793-5.625-2.3789-1.5234-1.5938-2.2852-3.7734-2.2852-6.5391,0-2.7969.7695-5.0391,2.3086-6.7266s3.5742-2.5312,6.1055-2.5312c2.1953,0,3.959.5566,5.291,1.6699s2.0957,2.502,2.291,4.166h-3.5508c-.2734-1.1797-.9414-2.0039-2.0039-2.4727-.5938-.2578-1.2539-.3867-1.9805-.3867-1.3906,0-2.5332.5254-3.4277,1.5762s-1.3418,2.6309-1.3418,4.7402c0,2.125.4844,3.6289,1.4531,4.5117s2.0703,1.3242,3.3047,1.3242c1.2109,0,2.2031-.3496,2.9766-1.0488s1.25-1.6152,1.4297-2.748h-3.9961v-2.8828h7.1953v9.2695h-2.3906l-.3633-2.1562c-.6953.8203-1.3203,1.3984-1.875,1.7344Z" style="fill:#221f20; stroke-width:0px;"/><path d="M142.561,65.3426c-1.3438,0-2.2461.4375-2.707,1.3125-.2578.4922-.3867,1.25-.3867,2.2734v6.1055h-3.3633v-12.7734h3.1875v2.2266c.5156-.8516.9648-1.4336,1.3477-1.7461.625-.5234,1.4375-.7852,2.4375-.7852.0625,0,.1152.002.1582.0059s.1387.0098.2871.0176v3.4219c-.2109-.0234-.3984-.0391-.5625-.0469s-.2969-.0117-.3984-.0117Z" style="fill:#221f20; stroke-width:0px;"/><path d="M156.1313,63.8777c1.0781,1.3516,1.6172,2.9492,1.6172,4.793,0,1.875-.5391,3.4785-1.6172,4.8105s-2.7148,1.998-4.9102,1.998-3.832-.666-4.9102-1.998-1.6172-2.9355-1.6172-4.8105c0-1.8438.5391-3.4414,1.6172-4.793s2.7148-2.0273,4.9102-2.0273,3.832.6758,4.9102,2.0273ZM151.2094,64.6746c-.9766,0-1.7285.3457-2.2559,1.0371s-.791,1.6777-.791,2.959.2637,2.2695.791,2.9648,1.2793,1.043,2.2559,1.043,1.7266-.3477,2.25-1.043.7852-1.6836.7852-2.9648-.2617-2.2676-.7852-2.959-1.2734-1.0371-2.25-1.0371Z" style="fill:#221f20; stroke-width:0px;"/><path d="M168.3305,73.2293c-.0312.0391-.1094.1562-.2344.3516s-.2734.3672-.4453.5156c-.5234.4688-1.0293.7891-1.5176.9609s-1.0605.2578-1.7168.2578c-1.8906,0-3.1641-.6797-3.8203-2.0391-.3672-.75-.5508-1.8555-.5508-3.3164v-7.6992h3.4219v7.6992c0,.7266.0859,1.2734.2578,1.6406.3047.6484.9023.9727,1.793.9727,1.1406,0,1.9219-.4609,2.3438-1.3828.2188-.5.3281-1.1602.3281-1.9805v-6.9492h3.3867v12.7734h-3.2461v-1.8047Z" style="fill:#221f20; stroke-width:0px;"/><path d="M185.4985,63.6316c1.0312,1.1016,1.5469,2.7188,1.5469,4.8516,0,2.25-.5059,3.9648-1.5176,5.1445s-2.3145,1.7695-3.9082,1.7695c-1.0156,0-1.8594-.2539-2.5312-.7617-.3672-.2812-.7266-.6914-1.0781-1.2305v6.6562h-3.3047v-17.8008h3.1992v1.8867c.3594-.5547.7422-.9922,1.1484-1.3125.7422-.5703,1.625-.8555,2.6484-.8555,1.4922,0,2.7578.5508,3.7969,1.6523ZM183.6001,68.6473c0-.9844-.2246-1.8555-.6738-2.6133s-1.1777-1.1367-2.1855-1.1367c-1.2109,0-2.043.5742-2.4961,1.7227-.2344.6094-.3516,1.3828-.3516,2.3203,0,1.4844.3945,2.5273,1.1836,3.1289.4688.3516,1.0234.5273,1.6641.5273.9297,0,1.6387-.3594,2.127-1.0781s.7324-1.6758.7324-2.8711Z" style="fill:#221f20; stroke-width:0px;"/><path d="M27.7094,109.7337c.5884-.75,1.5986-1.125,3.0312-1.125.9321,0,1.7603.1851,2.4844.5547.7236.3701,1.0859,1.0679,1.0859,2.0938v3.9062c0,.271.0049.5991.0156.9844.0156.292.0596.4897.1328.5938.0728.1045.1821.1904.3281.2578v.3281h-2.4219c-.0679-.1719-.1147-.333-.1406-.4844-.0264-.1509-.0469-.3228-.0625-.5156-.3076.3335-.6616.6172-1.0625.8516-.4795.2759-1.021.4141-1.625.4141-.771,0-1.4077-.2202-1.9102-.6602-.5029-.4399-.7539-1.0635-.7539-1.8711,0-1.0469.4033-1.8047,1.2109-2.2734.4424-.2549,1.0938-.4375,1.9531-.5469l.7578-.0938c.4111-.0518.7056-.1172.8828-.1953.3174-.1353.4766-.3462.4766-.6328,0-.3486-.1211-.5898-.3633-.7227s-.5977-.1992-1.0664-.1992c-.5264,0-.8984.1304-1.1172.3906-.1562.1929-.2607.4531-.3125.7812h-2.1484c.0469-.7446.2549-1.3564.625-1.8359ZM29.3657,115.7181c.208.1719.4634.2578.7656.2578.479,0,.9204-.1406,1.3242-.4219.4033-.2812.6133-.7939.6289-1.5391v-.8281c-.1406.0889-.2827.1602-.4258.2148-.1436.0547-.3398.1055-.5898.1523l-.5.0938c-.4688.0835-.8047.1851-1.0078.3047-.3438.2031-.5156.5186-.5156.9453,0,.3804.1064.6538.3203.8203Z" style="fill:#221f20; stroke-width:0px;"/><path d="M44.0376,105.8274v11.5h-2.1641v-1.1797c-.3179.5054-.6797.8726-1.0859,1.1016s-.9116.3438-1.5156.3438c-.9951,0-1.832-.4023-2.5117-1.207s-1.0195-1.8369-1.0195-3.0977c0-1.4531.3345-2.5962,1.0039-3.4297.6689-.833,1.5635-1.25,2.6836-1.25.5156,0,.9736.1133,1.375.3398.4009.2266.7266.5405.9766.9414v-4.0625h2.2578ZM38.0376,113.1243c0,.7866.1562,1.4141.4688,1.8828.3071.4741.7759.7109,1.4062.7109.6299,0,1.1094-.2344,1.4375-.7031s.4922-1.0752.4922-1.8203c0-1.0415-.2632-1.7861-.7891-2.2344-.3232-.2705-.6982-.4062-1.125-.4062-.6514,0-1.1289.2461-1.4336.7383s-.457,1.103-.457,1.832Z" style="fill:#221f20; stroke-width:0px;"/><path d="M53.811,105.8274v11.5h-2.1641v-1.1797c-.3179.5054-.6797.8726-1.0859,1.1016s-.9116.3438-1.5156.3438c-.9951,0-1.832-.4023-2.5117-1.207s-1.0195-1.8369-1.0195-3.0977c0-1.4531.3345-2.5962,1.0039-3.4297.6689-.833,1.5635-1.25,2.6836-1.25.5156,0,.9736.1133,1.375.3398.4009.2266.7266.5405.9766.9414v-4.0625h2.2578ZM47.811,113.1243c0,.7866.1562,1.4141.4688,1.8828.3071.4741.7759.7109,1.4062.7109.6299,0,1.1094-.2344,1.4375-.7031s.4922-1.0752.4922-1.8203c0-1.0415-.2632-1.7861-.7891-2.2344-.3232-.2705-.6982-.4062-1.125-.4062-.6514,0-1.1289.2461-1.4336.7383s-.457,1.103-.457,1.832Z" style="fill:#221f20; stroke-width:0px;"/><path d="M58.2797,120.554l-.5547-.7578c-.3594-.4585-.7422-1.1406-1.1484-2.0469-.7241-1.6196-1.0859-3.2134-1.0859-4.7812,0-1.4268.3047-2.8438.9141-4.25.4111-.958,1.0127-1.9893,1.8047-3.0938h1.6797l-.4766.875c-.6562,1.2031-1.1123,2.4639-1.3672,3.7812-.167.8647-.25,1.8076-.25,2.8281,0,1.5938.2314,3.0601.6953,4.3984.2705.7915.75,1.8071,1.4375,3.0469h-1.6484Z" style="fill:#221f20; stroke-width:0px;"/><path d="M63.5688,118.8196c.2393.2031.6431.3047,1.2109.3047.8018,0,1.3384-.2686,1.6094-.8047.1768-.3438.2656-.9219.2656-1.7344v-.5469c-.2139.3647-.4429.6382-.6875.8203-.4429.3389-1.0186.5078-1.7266.5078-1.0938,0-1.9678-.3838-2.6211-1.1523-.6538-.7681-.9805-1.8086-.9805-3.1211,0-1.2656.3149-2.3291.9453-3.1914.6299-.8618,1.5234-1.293,2.6797-1.293.4268,0,.7993.0654,1.1172.1953.5415.2241.979.6357,1.3125,1.2344v-1.2266h2.1641v8.0781c0,1.0986-.1851,1.9268-.5547,2.4844-.6357.958-1.8545,1.4375-3.6562,1.4375-1.0889,0-1.9766-.2139-2.6641-.6406-.6875-.4272-1.0679-1.0654-1.1406-1.9141h2.4219c.0625.2603.1641.4478.3047.5625ZM63.1938,114.4212c.3018.7188.8438,1.0781,1.625,1.0781.5205,0,.9609-.1963,1.3203-.5898.3594-.3931.5391-1.0195.5391-1.8789,0-.8071-.1709-1.4219-.5117-1.8438-.3413-.4219-.7983-.6328-1.3711-.6328-.7812,0-1.3203.3672-1.6172,1.1016-.1562.3906-.2344.8726-.2344,1.4453,0,.4951.083.9351.25,1.3203Z" style="fill:#221f20; stroke-width:0px;"/><path d="M76.2094,117.6477c-1.646,0-2.9038-.4478-3.7734-1.3438-1.167-1.0986-1.75-2.6821-1.75-4.75,0-2.1094.583-3.6924,1.75-4.75.8696-.8955,2.1274-1.3438,3.7734-1.3438s2.9033.4482,3.7734,1.3438c1.1611,1.0576,1.7422,2.6406,1.7422,4.75,0,2.0679-.5811,3.6514-1.7422,4.75-.8701.896-2.1279,1.3438-3.7734,1.3438ZM78.4829,114.554c.5571-.7031.8359-1.7031.8359-3,0-1.2915-.2803-2.29-.8398-2.9961-.5601-.7056-1.3164-1.0586-2.2695-1.0586s-1.7139.3516-2.2812,1.0547c-.5679.7031-.8516,1.7031-.8516,3s.2837,2.2969.8516,3c.5674.7031,1.3281,1.0547,2.2812,1.0547s1.7109-.3516,2.2734-1.0547Z" style="fill:#221f20; stroke-width:0px;"/><path d="M88.0063,117.554c-.7031,0-1.2686-.1406-1.6953-.4219-.2554-.1665-.5312-.458-.8281-.875v1.0703h-2.1797v-11.5h2.2188v4.0938c.2812-.3955.5908-.6978.9297-.9062.4009-.2603.9111-.3906,1.5312-.3906,1.1196,0,1.9961.4038,2.6289,1.2109.6328.8076.9492,1.8491.9492,3.125,0,1.3232-.3125,2.4194-.9375,3.2891-.625.8701-1.4976,1.3047-2.6172,1.3047ZM89.2251,113.1946c0-.604-.0781-1.104-.2344-1.5-.2969-.75-.8438-1.125-1.6406-1.125-.8076,0-1.3623.3672-1.6641,1.1016-.1562.3906-.2344.896-.2344,1.5156,0,.7295.1611,1.3335.4844,1.8125.3228.4795.8149.7188,1.4766.7188.5728,0,1.0181-.2314,1.3359-.6953.3174-.4634.4766-1.0728.4766-1.8281Z" style="fill:#221f20; stroke-width:0px;"/><path d="M93.2563,108.8509h2.2266v9.3906c0,.8594-.1694,1.4946-.5078,1.9062-.3389.4111-1.0029.6172-1.9922.6172-.0679,0-.168-.0029-.3008-.0078-.1328-.0054-.2983-.0107-.4961-.0156v-1.7812c.125.0103.2134.0166.2656.0195.0518.0024.0986.0039.1406.0039.2188,0,.3838-.0537.4961-.1602.1118-.1069.168-.314.168-.6211v-9.3516ZM93.2563,105.7415h2.2266v2.0547h-2.2266v-2.0547Z" style="fill:#221f20; stroke-width:0px;"/><path d="M104.8891,114.8274c-.0576.5054-.3203,1.0186-.7891,1.5391-.7295.8281-1.75,1.2422-3.0625,1.2422-1.0835,0-2.0391-.3486-2.8672-1.0469-.8281-.6978-1.2422-1.833-1.2422-3.4062,0-1.4736.3735-2.604,1.1211-3.3906.7471-.7861,1.7173-1.1797,2.9102-1.1797.708,0,1.3462.1328,1.9141.3984.5674.2656,1.0361.6851,1.4062,1.2578.333.5054.5493,1.0913.6484,1.7578.0571.3906.0806.9531.0703,1.6875h-5.8281c.0312.8545.2993,1.4531.8047,1.7969.3071.2139.6768.3203,1.1094.3203.458,0,.8306-.1299,1.1172-.3906.1562-.1406.2939-.3359.4141-.5859h2.2734ZM102.686,112.2181c-.0366-.5884-.2148-1.0352-.5352-1.3398s-.7178-.457-1.1914-.457c-.5156,0-.9155.1616-1.1992.4844-.2842.3232-.4624.7607-.5352,1.3125h3.4609Z" style="fill:#221f20; stroke-width:0px;"/><path d="M113.8657,111.8665h-2.2812c-.042-.3174-.1484-.604-.3203-.8594-.25-.3438-.6382-.5156-1.1641-.5156-.75,0-1.2632.3726-1.5391,1.1172-.146.396-.2188.9219-.2188,1.5781,0,.625.0728,1.1279.2188,1.5078.2656.7085.7656,1.0625,1.5,1.0625.5205,0,.8906-.1406,1.1094-.4219s.3516-.6455.3984-1.0938h2.2734c-.0522.6772-.2969,1.3179-.7344,1.9219-.6982.9741-1.7319,1.4609-3.1016,1.4609s-2.3779-.4062-3.0234-1.2188c-.646-.8125-.9688-1.8672-.9688-3.1641,0-1.4634.3564-2.6016,1.0703-3.4141.7134-.8125,1.6978-1.2188,2.9531-1.2188,1.0674,0,1.9414.2397,2.6211.7188.6797.4795,1.082,1.3257,1.207,2.5391Z" style="fill:#221f20; stroke-width:0px;"/><path d="M119.2954,115.7415v1.6641l-1.0547.0391c-1.0522.0361-1.771-.1455-2.1562-.5469-.25-.2549-.375-.6484-.375-1.1797v-5.2422h-1.1875v-1.5859h1.1875v-2.375h2.2031v2.375h1.3828v1.5859h-1.3828v4.5c0,.3491.0439.5664.1328.6523.0884.0859.3594.1289.8125.1289.0674,0,.1392-.001.2148-.0039.0752-.0024.1494-.0063.2227-.0117Z" style="fill:#221f20; stroke-width:0px;"/><path d="M122.0532,119.7962l-.5547.7578h-1.6484c.6875-1.2397,1.1665-2.2554,1.4375-3.0469.4634-1.3384.6953-2.8047.6953-4.3984,0-1.0205-.0835-1.9634-.25-2.8281-.2554-1.3174-.7109-2.5781-1.3672-3.7812l-.4766-.875h1.6797c.7915,1.1045,1.3931,2.1357,1.8047,3.0938.6094,1.4062.9141,2.8232.9141,4.25,0,1.5679-.3623,3.1616-1.0859,4.7812-.4062.9062-.7891,1.5884-1.1484,2.0469Z" style="fill:#221f20; stroke-width:0px;"/><path d="M227.2392,109.7337c.5884-.75,1.5991-1.125,3.0317-1.125.9316,0,1.7598.1851,2.4844.5547.7236.3701,1.0859,1.0679,1.0859,2.0938v3.9062c0,.271.0049.5991.0156.9844.0156.292.0596.4897.1328.5938.0723.1045.1816.1904.3281.2578v.3281h-2.4219c-.0684-.1719-.1152-.333-.1406-.4844-.0264-.1509-.0469-.3228-.0625-.5156-.3076.3335-.6621.6172-1.0625.8516-.4795.2759-1.0215.4141-1.625.4141-.7715,0-1.4082-.2202-1.9106-.6602-.5029-.4399-.7539-1.0635-.7539-1.8711,0-1.0469.4033-1.8047,1.2109-2.2734.4424-.2549,1.0938-.4375,1.9536-.5469l.7578-.0938c.4111-.0518.7051-.1172.8828-.1953.3174-.1353.4766-.3462.4766-.6328,0-.3486-.1211-.5898-.3633-.7227s-.5977-.1992-1.0664-.1992c-.5264,0-.8984.1304-1.1172.3906-.1562.1929-.2607.4531-.313.7812h-2.1484c.0469-.7446.2549-1.3564.625-1.8359ZM228.896,115.7181c.208.1719.4629.2578.7656.2578.4785,0,.9199-.1406,1.3242-.4219.4033-.2812.6133-.7939.6289-1.5391v-.8281c-.1406.0889-.2832.1602-.4258.2148-.1436.0547-.3398.1055-.5898.1523l-.5.0938c-.4688.0835-.8047.1851-1.0078.3047-.3442.2031-.5161.5186-.5161.9453,0,.3804.1064.6538.3208.8203Z" style="fill:#221f20; stroke-width:0px;"/><path d="M243.5678,105.8274v11.5h-2.1641v-1.1797c-.3184.5054-.6797.8726-1.0859,1.1016s-.9121.3438-1.5156.3438c-.9951,0-1.832-.4023-2.5117-1.207s-1.0195-1.8369-1.0195-3.0977c0-1.4531.334-2.5962,1.0039-3.4297.6689-.833,1.5635-1.25,2.6836-1.25.5156,0,.9736.1133,1.375.3398.4004.2266.7266.5405.9766.9414v-4.0625h2.2578ZM237.5678,113.1243c0,.7866.1562,1.4141.4688,1.8828.3066.4741.7754.7109,1.4062.7109.6299,0,1.1094-.2344,1.4375-.7031s.4922-1.0752.4922-1.8203c0-1.0415-.2637-1.7861-.7891-2.2344-.3232-.2705-.6982-.4062-1.125-.4062-.6514,0-1.1289.2461-1.4336.7383s-.457,1.103-.457,1.832Z" style="fill:#221f20; stroke-width:0px;"/><path d="M253.3413,105.8274v11.5h-2.1641v-1.1797c-.3184.5054-.6797.8726-1.0859,1.1016s-.9121.3438-1.5156.3438c-.9951,0-1.832-.4023-2.5117-1.207s-1.0195-1.8369-1.0195-3.0977c0-1.4531.334-2.5962,1.0039-3.4297.6689-.833,1.5635-1.25,2.6836-1.25.5156,0,.9736.1133,1.375.3398.4004.2266.7266.5405.9766.9414v-4.0625h2.2578ZM247.3413,113.1243c0,.7866.1562,1.4141.4688,1.8828.3066.4741.7754.7109,1.4062.7109.6299,0,1.1094-.2344,1.4375-.7031s.4922-1.0752.4922-1.8203c0-1.0415-.2637-1.7861-.7891-2.2344-.3232-.2705-.6982-.4062-1.125-.4062-.6514,0-1.1289.2461-1.4336.7383s-.457,1.103-.457,1.832Z" style="fill:#221f20; stroke-width:0px;"/><path d="M257.81,120.554l-.5547-.7578c-.3594-.4585-.7422-1.1406-1.1484-2.0469-.7246-1.6196-1.0859-3.2134-1.0859-4.7812,0-1.4268.3047-2.8438.9141-4.25.4111-.958,1.0127-1.9893,1.8047-3.0938h1.6797l-.4766.875c-.6562,1.2031-1.1123,2.4639-1.3672,3.7812-.167.8647-.25,1.8076-.25,2.8281,0,1.5938.2314,3.0601.6953,4.3984.2705.7915.75,1.8071,1.4375,3.0469h-1.6484Z" style="fill:#221f20; stroke-width:0px;"/><path d="M263.0991,118.8196c.2393.2031.6426.3047,1.2109.3047.8018,0,1.3379-.2686,1.6094-.8047.1768-.3438.2656-.9219.2656-1.7344v-.5469c-.2139.3647-.4434.6382-.6875.8203-.4434.3389-1.0186.5078-1.7266.5078-1.0938,0-1.9678-.3838-2.6211-1.1523-.6543-.7681-.9805-1.8086-.9805-3.1211,0-1.2656.3145-2.3291.9453-3.1914.6299-.8618,1.5234-1.293,2.6797-1.293.4268,0,.7988.0654,1.1172.1953.541.2241.9785.6357,1.3125,1.2344v-1.2266h2.1641v8.0781c0,1.0986-.1855,1.9268-.5547,2.4844-.6357.958-1.8545,1.4375-3.6562,1.4375-1.0889,0-1.9766-.2139-2.6641-.6406-.6875-.4272-1.0684-1.0654-1.1406-1.9141h2.4219c.0625.2603.1641.4478.3047.5625ZM262.7241,114.4212c.3018.7188.8438,1.0781,1.625,1.0781.5205,0,.9609-.1963,1.3203-.5898.3594-.3931.5391-1.0195.5391-1.8789,0-.8071-.1709-1.4219-.5117-1.8438-.3418-.4219-.7988-.6328-1.3711-.6328-.7812,0-1.3203.3672-1.6172,1.1016-.1562.3906-.2344.8726-.2344,1.4453,0,.4951.083.9351.25,1.3203Z" style="fill:#221f20; stroke-width:0px;"/><path d="M275.7397,117.6477c-1.6465,0-2.9043-.4478-3.7734-1.3438-1.167-1.0986-1.75-2.6821-1.75-4.75,0-2.1094.583-3.6924,1.75-4.75.8691-.8955,2.127-1.3438,3.7734-1.3438,1.6455,0,2.9033.4482,3.7734,1.3438,1.1611,1.0576,1.7422,2.6406,1.7422,4.75,0,2.0679-.5811,3.6514-1.7422,4.75-.8701.896-2.1279,1.3438-3.7734,1.3438ZM278.0131,114.554c.5566-.7031.8359-1.7031.8359-3,0-1.2915-.2803-2.29-.8398-2.9961-.5605-.7056-1.3164-1.0586-2.2695-1.0586s-1.7139.3516-2.2812,1.0547c-.5684.7031-.8516,1.7031-.8516,3s.2832,2.2969.8516,3c.5674.7031,1.3281,1.0547,2.2812,1.0547s1.7109-.3516,2.2734-1.0547Z" style="fill:#221f20; stroke-width:0px;"/><path d="M287.5366,117.554c-.7031,0-1.2686-.1406-1.6953-.4219-.2559-.1665-.5312-.458-.8281-.875v1.0703h-2.1797v-11.5h2.2188v4.0938c.2812-.3955.5908-.6978.9297-.9062.4004-.2603.9111-.3906,1.5312-.3906,1.1191,0,1.9961.4038,2.6289,1.2109.6328.8076.9492,1.8491.9492,3.125,0,1.3232-.3125,2.4194-.9375,3.2891-.625.8701-1.498,1.3047-2.6172,1.3047ZM288.7553,113.1946c0-.604-.0781-1.104-.2344-1.5-.2969-.75-.8438-1.125-1.6406-1.125-.8076,0-1.3623.3672-1.6641,1.1016-.1562.3906-.2344.896-.2344,1.5156,0,.7295.1611,1.3335.4844,1.8125.3223.4795.8145.7188,1.4766.7188.5723,0,1.0176-.2314,1.3359-.6953.3174-.4634.4766-1.0728.4766-1.8281Z" style="fill:#221f20; stroke-width:0px;"/><path d="M292.7866,108.8509h2.2266v9.3906c0,.8594-.1699,1.4946-.5078,1.9062-.3389.4111-1.0029.6172-1.9922.6172-.0684,0-.168-.0029-.3008-.0078-.1328-.0054-.2988-.0107-.4961-.0156v-1.7812c.125.0103.2129.0166.2656.0195.0518.0024.0986.0039.1406.0039.2188,0,.3838-.0537.4961-.1602.1113-.1069.168-.314.168-.6211v-9.3516ZM292.7866,105.7415h2.2266v2.0547h-2.2266v-2.0547Z" style="fill:#221f20; stroke-width:0px;"/><path d="M304.4194,114.8274c-.0576.5054-.3203,1.0186-.7891,1.5391-.7295.8281-1.75,1.2422-3.0625,1.2422-1.084,0-2.0391-.3486-2.8672-1.0469-.8281-.6978-1.2422-1.833-1.2422-3.4062,0-1.4736.373-2.604,1.1211-3.3906.7471-.7861,1.7168-1.1797,2.9102-1.1797.708,0,1.3457.1328,1.9141.3984.5674.2656,1.0361.6851,1.4062,1.2578.333.5054.5488,1.0913.6484,1.7578.0566.3906.0801.9531.0703,1.6875h-5.8281c.0312.8545.2988,1.4531.8047,1.7969.3066.2139.6768.3203,1.1094.3203.458,0,.8301-.1299,1.1172-.3906.1562-.1406.2939-.3359.4141-.5859h2.2734ZM302.2163,112.2181c-.0371-.5884-.2148-1.0352-.5352-1.3398s-.7178-.457-1.1914-.457c-.5156,0-.916.1616-1.1992.4844-.2842.3232-.4629.7607-.5352,1.3125h3.4609Z" style="fill:#221f20; stroke-width:0px;"/><path d="M313.396,111.8665h-2.2812c-.042-.3174-.1484-.604-.3203-.8594-.25-.3438-.6387-.5156-1.1641-.5156-.75,0-1.2637.3726-1.5391,1.1172-.1465.396-.2188.9219-.2188,1.5781,0,.625.0723,1.1279.2188,1.5078.2656.7085.7656,1.0625,1.5,1.0625.5205,0,.8906-.1406,1.1094-.4219s.3516-.6455.3984-1.0938h2.2734c-.0527.6772-.2969,1.3179-.7344,1.9219-.6982.9741-1.7324,1.4609-3.1016,1.4609-1.3701,0-2.3779-.4062-3.0234-1.2188-.6465-.8125-.9688-1.8672-.9688-3.1641,0-1.4634.3564-2.6016,1.0703-3.4141.7129-.8125,1.6973-1.2188,2.9531-1.2188,1.0674,0,1.9414.2397,2.6211.7188.6797.4795,1.082,1.3257,1.207,2.5391Z" style="fill:#221f20; stroke-width:0px;"/><path d="M318.8256,115.7415v1.6641l-1.0547.0391c-1.0527.0361-1.7715-.1455-2.1562-.5469-.25-.2549-.375-.6484-.375-1.1797v-5.2422h-1.1875v-1.5859h1.1875v-2.375h2.2031v2.375h1.3828v1.5859h-1.3828v4.5c0,.3491.0439.5664.1328.6523.0879.0859.3594.1289.8125.1289.0674,0,.1387-.001.2148-.0039.0752-.0024.1494-.0063.2227-.0117Z" style="fill:#221f20; stroke-width:0px;"/><path d="M322.4038,118.1243c-.0938.3853-.2686.7188-.5234,1-.2764.3018-.6006.5298-.9727.6836-.373.1533-.6289.2305-.7695.2305v-.8594c.4473-.125.7773-.3335.9883-.625.2109-.292.332-.7007.3633-1.2266h-1.3516v-2.3281h2.4062v2.0156c0,.354-.0469.7236-.1406,1.1094Z" style="fill:#221f20; stroke-width:0px;"/><path d="M336.7319,117.3274h-2.7734l-1.4688-2.5547-1.4766,2.5547h-2.7031l2.9062-4.3125-2.7812-4.1875h2.7266l1.4219,2.4688,1.3906-2.4688h2.6484l-2.7969,4.1484,2.9062,4.3516Z" style="fill:#221f20; stroke-width:0px;"/><path d="M340.1928,118.1243c-.0938.3853-.2686.7188-.5234,1-.2764.3018-.6006.5298-.9727.6836-.373.1533-.6289.2305-.7695.2305v-.8594c.4473-.125.7773-.3335.9883-.625.2109-.292.332-.7007.3633-1.2266h-1.3516v-2.3281h2.4062v2.0156c0,.354-.0469.7236-.1406,1.1094Z" style="fill:#221f20; stroke-width:0px;"/><path d="M350.396,115.0931l1.7578-6.2812h2.3672l-2.9219,8.375c-.5625,1.6143-1.0078,2.6157-1.3359,3.0039-.3281.3877-.9844.582-1.9688.582-.1982,0-.3574-.0015-.4766-.0039-.1201-.0029-.2998-.0117-.5391-.0273v-1.7812l.2812.0156c.2188.0103.4268.0024.625-.0234.1973-.0264.3643-.0859.5-.1797.1299-.0889.251-.2734.3633-.5547.1113-.2812.1572-.4531.1367-.5156l-3.125-8.8906h2.4766l1.8594,6.2812Z" style="fill:#221f20; stroke-width:0px;"/><path d="M357.1616,119.7962l-.5547.7578h-1.6484c.6875-1.2397,1.166-2.2554,1.4375-3.0469.4629-1.3384.6953-2.8047.6953-4.3984,0-1.0205-.084-1.9634-.25-2.8281-.2559-1.3174-.7109-2.5781-1.3672-3.7812l-.4766-.875h1.6797c.791,1.1045,1.3926,2.1357,1.8047,3.0938.6094,1.4062.9141,2.8232.9141,4.25,0,1.5679-.3623,3.1616-1.0859,4.7812-.4062.9062-.7891,1.5884-1.1484,2.0469Z" style="fill:#221f20; stroke-width:0px;"/><path d="M227.7353,145.0667h1.1606c.123.498.7266.8203,1.5352.8203,1.0547,0,1.6348-.5273,1.6348-1.4883v-1.0664h-.1113c-.252.6855-.9727,1.1133-1.9102,1.1133-1.4712,0-2.4204-1.0547-2.4204-2.7188v-1.0898c0-1.6699.9551-2.7188,2.4614-2.7188.9258,0,1.6289.4219,1.8867,1.1191h.1113v-1.0137h1.1602v6.3809c0,1.5-1.0605,2.4023-2.8301,2.4023-1.5352,0-2.5552-.6621-2.6782-1.7402ZM230.4428,143.4085c.9844,0,1.623-.7031,1.623-1.793v-.8848c0-1.0957-.6387-1.793-1.623-1.793-.9902,0-1.623.7031-1.623,1.793v.8848c0,1.0898.6328,1.793,1.623,1.793Z" style="fill:#221f20; stroke-width:0px;"/><path d="M238.0131,144.5862c-1.9512,0-3.1406-1.3887-3.1406-3.7324v-1.3418c0-2.3438,1.1895-3.7324,3.1406-3.7324s3.1406,1.3887,3.1406,3.7324v1.3418c0,2.3438-1.1895,3.7324-3.1406,3.7324ZM239.9233,140.8479v-1.3301c0-1.6992-.7031-2.625-1.9102-2.625s-1.9102.9258-1.9102,2.625v1.3301c0,1.6992.7031,2.625,1.9102,2.625s1.9102-.9258,1.9102-2.625Z" style="fill:#221f20; stroke-width:0px;"/><path d="M244.0483,143.4026h-.1113v1.0078h-1.1836v-8.877h1.207v3.5039h.1172c.2578-.7148.9258-1.1191,1.8457-1.1191,1.4707,0,2.4082,1.0488,2.4082,2.7188v1.1602c0,1.6699-.9375,2.7188-2.4082,2.7188-.9199,0-1.5762-.3926-1.875-1.1133ZM247.142,141.6858v-.9551c0-1.0957-.6211-1.793-1.6055-1.793-.9785,0-1.6055.6914-1.6055,1.793v.9551c0,1.0957.627,1.7871,1.6055,1.7871.9844,0,1.6055-.6914,1.6055-1.7871Z" style="fill:#221f20; stroke-width:0px;"/><path d="M254.3139,144.3167c0,1.4883-.7148,2.0684-2.5254,2.0684-.3691,0-1.2305-.0117-1.5762-.041v-1.0254c.252.0234,1.2129.0352,1.5352.0352,1.0723,0,1.418-.2812,1.418-1.1191v-5.2617h-2.8301v-.9492h3.9785v6.293ZM252.7495,135.6624c0-.5098.3809-.873.9082-.873.5215,0,.9023.3633.9023.873,0,.5039-.3809.8672-.9023.8672-.5273,0-.9082-.3633-.9082-.8672Z" style="fill:#221f20; stroke-width:0px;"/><path d="M263.0151,142.7229c-.1699,1.0723-1.2246,1.8105-2.6016,1.8105-1.793,0-2.8184-1.0547-2.8184-2.8711v-.9727c0-1.6816,1.0957-2.7891,2.7539-2.7891,1.6699,0,2.6836,1.1016,2.6836,2.918v.6914h-4.2832v.2871c0,1.0781.6504,1.7695,1.6582,1.7695.7559,0,1.3242-.3223,1.4824-.8438h1.125ZM258.7495,140.6839h3.1289c0-1.1367-.5742-1.8223-1.541-1.8223-.9902,0-1.5879.6797-1.5879,1.8223Z" style="fill:#221f20; stroke-width:0px;"/><path d="M269.2553,140.0804c-.1113-.7383-.6855-1.1777-1.4648-1.1777-1.0371,0-1.6113.7266-1.6113,2.0391v.5391c0,1.3125.5742,2.0391,1.6113,2.0391.7852,0,1.3477-.4277,1.4648-1.1484h1.1602c-.1582,1.3594-1.125,2.1621-2.6133,2.1621-1.7754,0-2.8008-1.0664-2.8008-2.9297v-.7852c0-1.8633,1.0254-2.9238,2.8008-2.9238,1.4883,0,2.4551.8027,2.6133,2.1855h-1.1602Z" style="fill:#221f20; stroke-width:0px;"/><path d="M275.103,136.2776v1.7812h2.5254v.9668h-2.5078v3.4512c0,.6328.4395.9785,1.2539.9785.2988,0,1.0781-.0117,1.2188-.0293v.9609c-.1289.0234-1.0547.0469-1.3008.0469-1.6348,0-2.3496-.5859-2.3496-1.957v-3.4512h-1.6875v-.9668h1.6875v-1.7812h1.1602Z" style="fill:#221f20; stroke-width:0px;"/><path d="M281.396,143.3206c0-.6328.5039-1.1484,1.125-1.1484s1.125.5156,1.125,1.1484c0,.627-.5039,1.1484-1.125,1.1484s-1.125-.5215-1.125-1.1484Z" style="fill:#221f20; stroke-width:0px;"/><path d="M289.9565,137.8948c1.3945,0,2.3086.668,2.4141,1.7754h-1.125c-.1055-.5215-.6035-.8438-1.3066-.8438-.75,0-1.2363.3516-1.2363.8789,0,.457.3105.709,1.0547.873l.9258.2051c1.2598.2812,1.8281.8203,1.8281,1.7578,0,1.2129-1.002,1.9863-2.5605,1.9863-1.5059,0-2.4785-.6738-2.584-1.7988h1.1836c.1289.5449.6562.8555,1.4297.8555.8027,0,1.3184-.3574,1.3184-.9141,0-.4688-.2871-.709-1.0605-.8848l-.9551-.2168c-1.166-.2637-1.7461-.8496-1.7461-1.7812,0-1.1426.9551-1.8926,2.4199-1.8926Z" style="fill:#221f20; stroke-width:0px;"/><path d="M300.1049,142.7229c-.1699,1.0723-1.2246,1.8105-2.6016,1.8105-1.793,0-2.8184-1.0547-2.8184-2.8711v-.9727c0-1.6816,1.0957-2.7891,2.7539-2.7891,1.6699,0,2.6836,1.1016,2.6836,2.918v.6914h-4.2832v.2871c0,1.0781.6504,1.7695,1.6582,1.7695.7559,0,1.3242-.3223,1.4824-.8438h1.125ZM295.8393,140.6839h3.1289c0-1.1367-.5742-1.8223-1.541-1.8223-.9902,0-1.5879.6797-1.5879,1.8223Z" style="fill:#221f20; stroke-width:0px;"/><path d="M304.7749,136.2776v1.7812h2.5254v.9668h-2.5078v3.4512c0,.6328.4395.9785,1.2539.9785.2988,0,1.0781-.0117,1.2188-.0293v.9609c-.1289.0234-1.0547.0469-1.3008.0469-1.6348,0-2.3496-.5859-2.3496-1.957v-3.4512h-1.6875v-.9668h1.6875v-1.7812h1.1602Z" style="fill:#221f20; stroke-width:0px;"/><path d="M312.4506,135.9554c1.6816,0,2.7773,1.084,2.7773,2.7598,0,1.6699-1.1133,2.7539-2.8125,2.7539h-1.6348v2.9414h-1.2246v-8.4551h2.8945ZM310.7807,140.4319h1.3711c1.1895,0,1.834-.6035,1.834-1.7168,0-1.1191-.6445-1.7168-1.834-1.7168h-1.3711v3.4336Z" style="fill:#221f20; stroke-width:0px;"/><path d="M316.7924,141.7034v-.9668c0-1.7344,1.0957-2.8301,2.8184-2.8301s2.8184,1.0957,2.8184,2.8301v.9668c0,1.7285-1.0957,2.8301-2.8184,2.8301s-2.8184-1.1016-2.8184-2.8301ZM317.9526,140.8186v.8027c0,1.1836.6387,1.916,1.6582,1.916s1.6582-.7324,1.6582-1.916v-.8027c0-1.1836-.6387-1.916-1.6582-1.916s-1.6582.7324-1.6582,1.916Z" style="fill:#221f20; stroke-width:0px;"/><path d="M327.0463,137.8948c1.3945,0,2.3086.668,2.4141,1.7754h-1.125c-.1055-.5215-.6035-.8438-1.3066-.8438-.75,0-1.2363.3516-1.2363.8789,0,.457.3105.709,1.0547.873l.9258.2051c1.2598.2812,1.8281.8203,1.8281,1.7578,0,1.2129-1.002,1.9863-2.5605,1.9863-1.5059,0-2.4785-.6738-2.584-1.7988h1.1836c.1289.5449.6562.8555,1.4297.8555.8027,0,1.3184-.3574,1.3184-.9141,0-.4688-.2871-.709-1.0605-.8848l-.9551-.2168c-1.166-.2637-1.7461-.8496-1.7461-1.7812,0-1.1426.9551-1.8926,2.4199-1.8926Z" style="fill:#221f20; stroke-width:0px;"/><path d="M331.8862,144.4104v-.9492h2.1504v-4.4883h-2.1035v-.9492h3.252v5.4375h2.0625v.9492h-5.3613ZM333.644,135.6624c0-.5098.3867-.873.9082-.873.5273,0,.9082.3633.9082.873,0,.5039-.3809.8672-.9082.8672-.5215,0-.9082-.3633-.9082-.8672Z" style="fill:#221f20; stroke-width:0px;"/><path d="M341.8647,136.2776v1.7812h2.5254v.9668h-2.5078v3.4512c0,.6328.4395.9785,1.2539.9785.2988,0,1.0781-.0117,1.2188-.0293v.9609c-.1289.0234-1.0547.0469-1.3008.0469-1.6348,0-2.3496-.5859-2.3496-1.957v-3.4512h-1.6875v-.9668h1.6875v-1.7812h1.1602Z" style="fill:#221f20; stroke-width:0px;"/><path d="M346.7221,144.4104v-.9492h2.1504v-4.4883h-2.1035v-.9492h3.252v5.4375h2.0625v.9492h-5.3613ZM348.4799,135.6624c0-.5098.3867-.873.9082-.873.5273,0,.9082.3633.9082.873,0,.5039-.3809.8672-.9082.8672-.5215,0-.9082-.3633-.9082-.8672Z" style="fill:#221f20; stroke-width:0px;"/><path d="M353.8823,141.7034v-.9668c0-1.7344,1.0957-2.8301,2.8184-2.8301s2.8184,1.0957,2.8184,2.8301v.9668c0,1.7285-1.0957,2.8301-2.8184,2.8301s-2.8184-1.1016-2.8184-2.8301ZM355.0424,140.8186v.8027c0,1.1836.6387,1.916,1.6582,1.916s1.6582-.7324,1.6582-1.916v-.8027c0-1.1836-.6387-1.916-1.6582-1.916s-1.6582.7324-1.6582,1.916Z" style="fill:#221f20; stroke-width:0px;"/><path d="M361.435,138.0237h1.1367v1.1133h.082c.334-.791,1.0547-1.2363,2.0098-1.2363,1.3887,0,2.1387.832,2.1387,2.3672v4.1426h-1.1777v-3.8496c0-1.0957-.4395-1.6113-1.3828-1.6113-.9785,0-1.6348.6855-1.6348,1.7168v3.7441h-1.1719v-6.3867Z" style="fill:#221f20; stroke-width:0px;"/><path d="M371.9467,135.0296h1.1895c-1.2305,1.7637-1.7402,3.2754-1.7402,5.1504,0,1.8809.5098,3.3867,1.7402,5.1504h-1.1895c-1.1836-1.3359-1.8047-3.1113-1.8047-5.1504s.6211-3.8145,1.8047-5.1504Z" style="fill:#221f20; stroke-width:0px;"/><path d="M378.896,142.0374l-1.5117,2.373h-1.2832l2.1445-3.1875-2.1562-3.1992h1.3711l1.4824,2.3496h.082l1.4707-2.3496h1.3125l-2.1387,3.1523,2.1562,3.2344h-1.3418l-1.5059-2.373h-.082Z" style="fill:#221f20; stroke-width:0px;"/><path d="M384.9428,146.3733l.7676-4.248h1.5059l-1.0781,4.248h-1.1953Z" style="fill:#221f20; stroke-width:0px;"/><path d="M398.9057,146.678v-.9902c.0645.0117.2578.0176.3516.0176.6152,0,.9492-.2578,1.1836-.9316l.0996-.3164-2.3262-6.4336h1.2891l1.6816,5.2266h.082l1.6699-5.2266h1.248l-2.3438,6.5801c-.5566,1.5879-1.1543,2.0918-2.4551,2.0918-.1816,0-.4043-.0117-.4805-.0176Z" style="fill:#221f20; stroke-width:0px;"/><path d="M408.2163,135.0296c1.1836,1.3359,1.8047,3.1113,1.8047,5.1504s-.6211,3.8145-1.8047,5.1504h-1.1895c1.2305-1.7637,1.7402-3.2695,1.7402-5.1504,0-1.875-.5098-3.3867-1.7402-5.1504h1.1895Z" style="fill:#221f20; stroke-width:0px;"/><path d="M414.6147,146.344l.7676-4.2188h1.5059l-1.0781,4.2188h-1.1953ZM414.9194,138.8382c0-.6328.5098-1.1484,1.125-1.1484.6211,0,1.125.5156,1.125,1.1484,0,.627-.5039,1.1426-1.125,1.1426-.6152,0-1.125-.5156-1.125-1.1426Z" style="fill:#221f20; stroke-width:0px;"/><path d="M230.5952,152.2776v1.7812h2.5254v.9668h-2.5078v3.4512c0,.6328.4395.9785,1.2539.9785.2988,0,1.0781-.0117,1.2188-.0293v.9609c-.1289.0234-1.0547.0469-1.3008.0469-1.6348,0-2.3496-.5859-2.3496-1.957v-3.4512h-1.688v-.9668h1.688v-1.7812h1.1602Z" style="fill:#221f20; stroke-width:0px;"/><path d="M235.3178,151.5335h1.1367v3.6094h.0879c.3281-.7852,1.0547-1.2305,2.0215-1.2305,1.3887,0,2.1445.8379,2.1445,2.3672v4.1309h-1.1719v-3.8438c0-1.084-.4512-1.6055-1.3945-1.6055-.9902,0-1.6465.6855-1.6465,1.7168v3.7324h-1.1777v-8.877Z" style="fill:#221f20; stroke-width:0px;"/><path d="M242.8706,160.4104v-.9492h2.1504v-4.4883h-2.1035v-.9492h3.252v5.4375h2.0625v.9492h-5.3613ZM244.6284,151.6624c0-.5098.3867-.873.9082-.873.5273,0,.9082.3633.9082.873,0,.5039-.3809.8672-.9082.8672-.5215,0-.9082-.3633-.9082-.8672Z" style="fill:#221f20; stroke-width:0px;"/><path d="M252.8667,153.8948c1.3945,0,2.3086.668,2.4141,1.7754h-1.125c-.1055-.5215-.6035-.8438-1.3066-.8438-.75,0-1.2363.3516-1.2363.8789,0,.457.3105.709,1.0547.873l.9258.2051c1.2598.2812,1.8281.8203,1.8281,1.7578,0,1.2129-1.002,1.9863-2.5605,1.9863-1.5059,0-2.4785-.6738-2.584-1.7988h1.1836c.1289.5449.6562.8555,1.4297.8555.8027,0,1.3184-.3574,1.3184-.9141,0-.4688-.2871-.709-1.0605-.8848l-.9551-.2168c-1.166-.2637-1.7461-.8496-1.7461-1.7812,0-1.1426.9551-1.8926,2.4199-1.8926Z" style="fill:#221f20; stroke-width:0px;"/><path d="M259.142,159.3206c0-.6328.5039-1.1484,1.125-1.1484s1.125.5156,1.125,1.1484c0,.627-.5039,1.1484-1.125,1.1484s-1.125-.5215-1.125-1.1484Z" style="fill:#221f20; stroke-width:0px;"/><path d="M264.9487,158.594c0-1.1367.8203-1.8047,2.3086-1.8926l1.6758-.0879v-.5625c0-.7324-.457-1.1426-1.2773-1.1426-.6797,0-1.166.293-1.3184.7969h-1.1484c.1172-1.0547,1.1191-1.7695,2.4902-1.7695,1.541,0,2.4199.7734,2.4199,2.1152v4.3652h-1.1191v-.9316h-.1113c-.3047.6562-.9902,1.0312-1.8926,1.0312-1.2188,0-2.0273-.7676-2.0273-1.9219ZM268.9331,158.1194v-.6738l-1.5176.0762c-.8496.0469-1.2949.3984-1.2949,1.0195,0,.6152.4688.9961,1.2188.9961.9141,0,1.5938-.6035,1.5938-1.418Z" style="fill:#221f20; stroke-width:0px;"/><path d="M276.4917,159.4026c-.3047.7207-.9609,1.1133-1.8809,1.1133-1.4707,0-2.4082-1.0488-2.4082-2.7188v-1.1602c0-1.6699.9375-2.7188,2.4082-2.7188.9199,0,1.5938.4043,1.8516,1.1191h.1113v-3.5039h1.207v8.877h-1.1777v-1.0078h-.1113ZM273.392,157.6858c0,1.0957.6211,1.7871,1.6055,1.7871s1.6055-.6914,1.6055-1.7871v-.9551c0-1.1016-.6211-1.793-1.6055-1.793s-1.6055.6973-1.6055,1.793v.9551Z" style="fill:#221f20; stroke-width:0px;"/><path d="M283.9096,159.4026c-.3047.7207-.9609,1.1133-1.8809,1.1133-1.4707,0-2.4082-1.0488-2.4082-2.7188v-1.1602c0-1.6699.9375-2.7188,2.4082-2.7188.9199,0,1.5938.4043,1.8516,1.1191h.1113v-3.5039h1.207v8.877h-1.1777v-1.0078h-.1113ZM280.81,157.6858c0,1.0957.6211,1.7871,1.6055,1.7871s1.6055-.6914,1.6055-1.7871v-.9551c0-1.1016-.6211-1.793-1.6055-1.793s-1.6055.6973-1.6055,1.793v.9551Z" style="fill:#221f20; stroke-width:0px;"/><path d="M290.3491,151.0296h1.1895c-1.2305,1.7637-1.7402,3.2754-1.7402,5.1504,0,1.8809.5098,3.3867,1.7402,5.1504h-1.1895c-1.1836-1.3359-1.8047-3.1113-1.8047-5.1504s.6211-3.8145,1.8047-5.1504Z" style="fill:#221f20; stroke-width:0px;"/><path d="M294.4975,161.0667h1.1602c.123.498.7266.8203,1.5352.8203,1.0547,0,1.6348-.5273,1.6348-1.4883v-1.0664h-.1113c-.252.6855-.9727,1.1133-1.9102,1.1133-1.4707,0-2.4199-1.0547-2.4199-2.7188v-1.0898c0-1.6699.9551-2.7188,2.4609-2.7188.9258,0,1.6289.4219,1.8867,1.1191h.1113v-1.0137h1.1602v6.3809c0,1.5-1.0605,2.4023-2.8301,2.4023-1.5352,0-2.5547-.6621-2.6777-1.7402ZM297.2045,159.4085c.9844,0,1.623-.7031,1.623-1.793v-.8848c0-1.0957-.6387-1.793-1.623-1.793-.9902,0-1.623.7031-1.623,1.793v.8848c0,1.0898.6328,1.793,1.623,1.793Z" style="fill:#221f20; stroke-width:0px;"/><path d="M304.7749,160.5862c-1.9512,0-3.1406-1.3887-3.1406-3.7324v-1.3418c0-2.3438,1.1895-3.7324,3.1406-3.7324s3.1406,1.3887,3.1406,3.7324v1.3418c0,2.3438-1.1895,3.7324-3.1406,3.7324ZM306.685,156.8479v-1.3301c0-1.6992-.7031-2.625-1.9102-2.625s-1.9102.9258-1.9102,2.625v1.3301c0,1.6992.7031,2.625,1.9102,2.625s1.9102-.9258,1.9102-2.625Z" style="fill:#221f20; stroke-width:0px;"/><path d="M310.81,159.4026h-.1113v1.0078h-1.1836v-8.877h1.207v3.5039h.1172c.2578-.7148.9258-1.1191,1.8457-1.1191,1.4707,0,2.4082,1.0488,2.4082,2.7188v1.1602c0,1.6699-.9375,2.7188-2.4082,2.7188-.9199,0-1.5762-.3926-1.875-1.1133ZM313.9038,157.6858v-.9551c0-1.0957-.6211-1.793-1.6055-1.793-.9785,0-1.6055.6914-1.6055,1.793v.9551c0,1.0957.627,1.7871,1.6055,1.7871.9844,0,1.6055-.6914,1.6055-1.7871Z" style="fill:#221f20; stroke-width:0px;"/><path d="M321.0756,160.3167c0,1.4883-.7148,2.0684-2.5254,2.0684-.3691,0-1.2305-.0117-1.5762-.041v-1.0254c.252.0234,1.2129.0352,1.5352.0352,1.0723,0,1.418-.2812,1.418-1.1191v-5.2617h-2.8301v-.9492h3.9785v6.293ZM319.5112,151.6624c0-.5098.3809-.873.9082-.873.5215,0,.9023.3633.9023.873,0,.5039-.3809.8672-.9023.8672-.5273,0-.9082-.3633-.9082-.8672Z" style="fill:#221f20; stroke-width:0px;"/><path d="M329.7768,158.7229c-.1699,1.0723-1.2246,1.8105-2.6016,1.8105-1.793,0-2.8184-1.0547-2.8184-2.8711v-.9727c0-1.6816,1.0957-2.7891,2.7539-2.7891,1.6699,0,2.6836,1.1016,2.6836,2.918v.6914h-4.2832v.2871c0,1.0781.6504,1.7695,1.6582,1.7695.7559,0,1.3242-.3223,1.4824-.8438h1.125ZM325.5112,156.6839h3.1289c0-1.1367-.5742-1.8223-1.541-1.8223-.9902,0-1.5879.6797-1.5879,1.8223Z" style="fill:#221f20; stroke-width:0px;"/><path d="M336.017,156.0804c-.1113-.7383-.6855-1.1777-1.4648-1.1777-1.0371,0-1.6113.7266-1.6113,2.0391v.5391c0,1.3125.5742,2.0391,1.6113,2.0391.7852,0,1.3477-.4277,1.4648-1.1484h1.1602c-.1582,1.3594-1.125,2.1621-2.6133,2.1621-1.7754,0-2.8008-1.0664-2.8008-2.9297v-.7852c0-1.8633,1.0254-2.9238,2.8008-2.9238,1.4883,0,2.4551.8027,2.6133,2.1855h-1.1602Z" style="fill:#221f20; stroke-width:0px;"/><path d="M341.8647,152.2776v1.7812h2.5254v.9668h-2.5078v3.4512c0,.6328.4395.9785,1.2539.9785.2988,0,1.0781-.0117,1.2188-.0293v.9609c-.1289.0234-1.0547.0469-1.3008.0469-1.6348,0-2.3496-.5859-2.3496-1.957v-3.4512h-1.6875v-.9668h1.6875v-1.7812h1.1602Z" style="fill:#221f20; stroke-width:0px;"/><path d="M348.8725,151.0296c1.1836,1.3359,1.8047,3.1113,1.8047,5.1504s-.6211,3.8145-1.8047,5.1504h-1.1895c1.2305-1.7637,1.7402-3.2695,1.7402-5.1504,0-1.875-.5098-3.3867-1.7402-5.1504h1.1895Z" style="fill:#221f20; stroke-width:0px;"/><path d="M355.271,162.344l.7676-4.2188h1.5059l-1.0781,4.2188h-1.1953ZM355.5756,154.8382c0-.6328.5098-1.1484,1.125-1.1484.6211,0,1.125.5156,1.125,1.1484,0,.627-.5039,1.1426-1.125,1.1426-.6152,0-1.125-.5156-1.125-1.1426Z" style="fill:#221f20; stroke-width:0px;"/><path d="M29.146,149.3543v.0996l3.9434,2.0977v1.3125l-5.1621-2.9531v-1.0137l5.1621-2.9531v1.3066l-3.9434,2.1035Z" style="fill:#221f20; stroke-width:0px;"/><path d="M36.5639,149.3543v.0996l3.9434,2.0977v1.3125l-5.1621-2.9531v-1.0137l5.1621-2.9531v1.3066l-3.9434,2.1035Z" style="fill:#221f20; stroke-width:0px;"/><path d="M42.6049,151.3406c0-1.1367.8203-1.8047,2.3086-1.8926l1.6758-.0879v-.5625c0-.7324-.457-1.1426-1.2773-1.1426-.6797,0-1.166.293-1.3184.7969h-1.1484c.1172-1.0547,1.1191-1.7695,2.4902-1.7695,1.541,0,2.4199.7734,2.4199,2.1152v4.3652h-1.1191v-.9316h-.1113c-.3047.6562-.9902,1.0312-1.8926,1.0312-1.2188,0-2.0273-.7676-2.0273-1.9219ZM46.5893,150.866v-.6738l-1.5176.0762c-.8496.0469-1.2949.3984-1.2949,1.0195,0,.6152.4688.9961,1.2188.9961.9141,0,1.5938-.6035,1.5938-1.418Z" style="fill:#221f20; stroke-width:0px;"/><path d="M54.3295,148.8269c-.1113-.7383-.6855-1.1777-1.4648-1.1777-1.0371,0-1.6113.7266-1.6113,2.0391v.5391c0,1.3125.5742,2.0391,1.6113,2.0391.7852,0,1.3477-.4277,1.4648-1.1484h1.1602c-.1582,1.3594-1.125,2.1621-2.6133,2.1621-1.7754,0-2.8008-1.0664-2.8008-2.9297v-.7852c0-1.8633,1.0254-2.9238,2.8008-2.9238,1.4883,0,2.4551.8027,2.6133,2.1855h-1.1602Z" style="fill:#221f20; stroke-width:0px;"/><path d="M60.1772,145.0242v1.7812h2.5254v.9668h-2.5078v3.4512c0,.6328.4395.9785,1.2539.9785.2988,0,1.0781-.0117,1.2188-.0293v.9609c-.1289.0234-1.0547.0469-1.3008.0469-1.6348,0-2.3496-.5859-2.3496-1.957v-3.4512h-1.6875v-.9668h1.6875v-1.7812h1.1602Z" style="fill:#221f20; stroke-width:0px;"/><path d="M70.2788,153.157h-1.1367v-1.1074h-.082c-.334.7852-1.0547,1.2305-2.0098,1.2305-1.3887,0-2.1387-.832-2.1387-2.3672v-4.1426h1.1777v3.8555c0,1.0898.4395,1.6055,1.3828,1.6055.9785,0,1.6348-.6855,1.6348-1.7168v-3.7441h1.1719v6.3867Z" style="fill:#221f20; stroke-width:0px;"/><path d="M72.2768,151.3406c0-1.1367.8203-1.8047,2.3086-1.8926l1.6758-.0879v-.5625c0-.7324-.457-1.1426-1.2773-1.1426-.6797,0-1.166.293-1.3184.7969h-1.1484c.1172-1.0547,1.1191-1.7695,2.4902-1.7695,1.541,0,2.4199.7734,2.4199,2.1152v4.3652h-1.1191v-.9316h-.1113c-.3047.6562-.9902,1.0312-1.8926,1.0312-1.2188,0-2.0273-.7676-2.0273-1.9219ZM76.2612,150.866v-.6738l-1.5176.0762c-.8496.0469-1.2949.3984-1.2949,1.0195,0,.6152.4688.9961,1.2188.9961.9141,0,1.5938-.6035,1.5938-1.418Z" style="fill:#221f20; stroke-width:0px;"/><path d="M79.8706,153.157v-.9492h2.1387v-6.9727h-2.0918v-.9551h3.2637v7.9277h2.0508v.9492h-5.3613Z" style="fill:#221f20; stroke-width:0px;"/><path d="M87.2885,153.157v-.9492h2.1387v-6.9727h-2.0918v-.9551h3.2637v7.9277h2.0508v.9492h-5.3613Z" style="fill:#221f20; stroke-width:0px;"/><path d="M94.9643,155.4246v-.9902c.0645.0117.2578.0176.3516.0176.6152,0,.9492-.2578,1.1836-.9316l.0996-.3164-2.3262-6.4336h1.2891l1.6816,5.2266h.082l1.6699-5.2266h1.248l-2.3438,6.5801c-.5566,1.5879-1.1543,2.0918-2.4551,2.0918-.1816,0-.4043-.0117-.4805-.0176Z" style="fill:#221f20; stroke-width:0px;"/><path d="M109.3667,151.3406c0-1.1367.8203-1.8047,2.3086-1.8926l1.6758-.0879v-.5625c0-.7324-.457-1.1426-1.2773-1.1426-.6797,0-1.166.293-1.3184.7969h-1.1484c.1172-1.0547,1.1191-1.7695,2.4902-1.7695,1.541,0,2.4199.7734,2.4199,2.1152v4.3652h-1.1191v-.9316h-.1113c-.3047.6562-.9902,1.0312-1.8926,1.0312-1.2188,0-2.0273-.7676-2.0273-1.9219ZM113.351,150.866v-.6738l-1.5176.0762c-.8496.0469-1.2949.3984-1.2949,1.0195,0,.6152.4688.9961,1.2188.9961.9141,0,1.5938-.6035,1.5938-1.418Z" style="fill:#221f20; stroke-width:0px;"/><path d="M120.9096,152.1492c-.3047.7207-.9609,1.1133-1.8809,1.1133-1.4707,0-2.4082-1.0488-2.4082-2.7188v-1.1602c0-1.6699.9375-2.7188,2.4082-2.7188.9199,0,1.5938.4043,1.8516,1.1191h.1113v-3.5039h1.207v8.877h-1.1777v-1.0078h-.1113ZM117.81,150.4324c0,1.0957.6211,1.7871,1.6055,1.7871s1.6055-.6914,1.6055-1.7871v-.9551c0-1.1016-.6211-1.793-1.6055-1.793s-1.6055.6973-1.6055,1.793v.9551Z" style="fill:#221f20; stroke-width:0px;"/><path d="M128.3276,152.1492c-.3047.7207-.9609,1.1133-1.8809,1.1133-1.4707,0-2.4082-1.0488-2.4082-2.7188v-1.1602c0-1.6699.9375-2.7188,2.4082-2.7188.9199,0,1.5938.4043,1.8516,1.1191h.1113v-3.5039h1.207v8.877h-1.1777v-1.0078h-.1113ZM125.228,150.4324c0,1.0957.6211,1.7871,1.6055,1.7871s1.6055-.6914,1.6055-1.7871v-.9551c0-1.1016-.6211-1.793-1.6055-1.793s-1.6055.6973-1.6055,1.793v.9551Z" style="fill:#221f20; stroke-width:0px;"/><path d="M139.2143,153.157v-.9492h2.1504v-4.4883h-2.1035v-.9492h3.252v5.4375h2.0625v.9492h-5.3613ZM140.9721,144.409c0-.5098.3867-.873.9082-.873.5273,0,.9082.3633.9082.873,0,.5039-.3809.8672-.9082.8672-.5215,0-.9082-.3633-.9082-.8672Z" style="fill:#221f20; stroke-width:0px;"/><path d="M149.1928,145.0242v1.7812h2.5254v.9668h-2.5078v3.4512c0,.6328.4395.9785,1.2539.9785.2988,0,1.0781-.0117,1.2188-.0293v.9609c-.1289.0234-1.0547.0469-1.3008.0469-1.6348,0-2.3496-.5859-2.3496-1.957v-3.4512h-1.6875v-.9668h1.6875v-1.7812h1.1602Z" style="fill:#221f20; stroke-width:0px;"/><path d="M154.0327,147.2508v-1.3066l5.1621,2.9531v1.0137l-5.1621,2.9531v-1.3125l3.9375-2.0977v-.0996l-3.9375-2.1035Z" style="fill:#221f20; stroke-width:0px;"/><path d="M161.4506,147.2508v-1.3066l5.1621,2.9531v1.0137l-5.1621,2.9531v-1.3125l3.9375-2.0977v-.0996l-3.9375-2.1035Z" style="fill:#221f20; stroke-width:0px;"/></g><g id="b"><path d="M225.9306,156.7471c-26.7196,3.3003-16.1107-40.9752-47.3747-45.9009" style="fill:none; stroke:#d0f; stroke-linecap:round; stroke-linejoin:round; stroke-width:2px;"/><polygon points="184.4038 103.9406 181.0152 111.2392 183.9162 118.745 166.6129 110.7649 184.4038 103.9406" style="fill:#d0f; stroke-width:0px;"/><line x1="227.8071" y1="15.3903" x2="227.8071" y2="87.9349" style="fill:none; stroke:#d0f; stroke-linecap:round; stroke-linejoin:round; stroke-width:2px;"/><polygon points="220.4008 82.3177 227.8071 85.4642 235.2133 82.3177 227.8071 99.8744 220.4008 82.3177" style="fill:#d0f; stroke-width:0px;"/><path d="M170.9858,10.2771h1.1602c.123.498.7266.8203,1.5352.8203,1.0547,0,1.6348-.5273,1.6348-1.4883v-1.0664h-.1113c-.252.6855-.9727,1.1133-1.9102,1.1133-1.4707,0-2.4199-1.0547-2.4199-2.7188v-1.0898c0-1.6699.9551-2.7188,2.4609-2.7188.9258,0,1.6289.4219,1.8867,1.1191h.1113v-1.0137h1.1602v6.3809c0,1.5-1.0605,2.4023-2.8301,2.4023-1.5352,0-2.5547-.6621-2.6777-1.7402ZM173.6928,8.6189c.9844,0,1.623-.7031,1.623-1.793v-.8848c0-1.0957-.6387-1.793-1.623-1.793-.9902,0-1.623.7031-1.623,1.793v.8848c0,1.0898.6328,1.793,1.623,1.793Z" style="fill:#d0f; stroke-width:0px;"/><path d="M181.2104,4.8631c.252-1.2012.9961-1.793,2.2207-1.793.3633,0,.709.0469.9199.1348v1.2891c-.2871-.1055-.7031-.1816-1.0547-.1816-1.4414,0-2.2441.8965-2.2441,2.4609v1.9453h1.9395v.9023h-4.3477v-.9023h1.2656v-4.582h-1.3887v-.9023h2.5254v1.6289h.1641Z" style="fill:#d0f; stroke-width:0px;"/><path d="M185.8628,6.9139v-.9668c0-1.7344,1.0957-2.8301,2.8184-2.8301s2.8188,1.0957,2.8188,2.8301v.9668c0,1.7285-1.0962,2.8301-2.8188,2.8301s-2.8184-1.1016-2.8184-2.8301ZM187.0229,6.0291v.8027c0,1.1836.6387,1.916,1.6582,1.916s1.6582-.7324,1.6582-1.916v-.8027c0-1.1836-.6387-1.916-1.6582-1.916s-1.6582.7324-1.6582,1.916Z" style="fill:#d0f; stroke-width:0px;"/><path d="M198.7832,9.6209h-1.1367v-1.1074h-.082c-.334.7852-1.0547,1.2305-2.0098,1.2305-1.3887,0-2.1387-.832-2.1387-2.3672V3.2342h1.1777v3.8555c0,1.0898.4395,1.6055,1.3828,1.6055.9785,0,1.6348-.6855,1.6348-1.7168v-3.7441h1.1719v6.3867Z" style="fill:#d0f; stroke-width:0px;"/><path d="M206.4238,5.8475v1.166c0,1.6641-.9375,2.7129-2.4082,2.7129-.9258,0-1.5938-.4043-1.8516-1.1191h-.1113v3.1582h-1.207V3.2342h1.1777v1.0137h.1113c.2988-.7266.9551-1.1133,1.8809-1.1133,1.4707,0,2.4082,1.0488,2.4082,2.7129ZM202.0234,5.9646v.9551c0,1.1016.6211,1.793,1.5996,1.793.9844,0,1.6113-.6973,1.6113-1.793v-.9551c0-1.0957-.627-1.7871-1.6113-1.7871-.9785,0-1.5996.6914-1.5996,1.7871Z" style="fill:#d0f; stroke-width:0px;"/><path d="M209.8105,8.531c0-.6328.5039-1.1484,1.125-1.1484s1.125.5156,1.125,1.1484c0,.627-.5039,1.1484-1.125,1.1484s-1.125-.5215-1.125-1.1484Z" style="fill:#d0f; stroke-width:0px;"/><path d="M215.6171,7.8045c0-1.1367.8203-1.8047,2.3086-1.8926l1.6758-.0879v-.5625c0-.7324-.457-1.1426-1.2773-1.1426-.6797,0-1.166.293-1.3184.7969h-1.1484c.1172-1.0547,1.1191-1.7695,2.4902-1.7695,1.541,0,2.4199.7734,2.4199,2.1152v4.3652h-1.1191v-.9316h-.1113c-.3047.6562-.9902,1.0312-1.8926,1.0312-1.2188,0-2.0273-.7676-2.0273-1.9219ZM219.6015,7.3299v-.6738l-1.5176.0762c-.8496.0469-1.2949.3984-1.2949,1.0195,0,.6152.4688.9961,1.2188.9961.9141,0,1.5938-.6035,1.5938-1.418Z" style="fill:#d0f; stroke-width:0px;"/><path d="M227.1601,8.6131c-.3047.7207-.9609,1.1133-1.8809,1.1133-1.4707,0-2.4082-1.0488-2.4082-2.7188v-1.1602c0-1.6699.9375-2.7188,2.4082-2.7188.9199,0,1.5938.4043,1.8516,1.1191h.1113V.7439h1.207v8.877h-1.1777v-1.0078h-.1113ZM224.0605,6.8963c0,1.0957.6211,1.7871,1.6055,1.7871s1.6055-.6914,1.6055-1.7871v-.9551c0-1.1016-.6211-1.793-1.6055-1.793s-1.6055.6973-1.6055,1.793v.9551Z" style="fill:#d0f; stroke-width:0px;"/><path d="M234.5776,8.6131c-.3047.7207-.9609,1.1133-1.8809,1.1133-1.4707,0-2.4082-1.0488-2.4082-2.7188v-1.1602c0-1.6699.9375-2.7188,2.4082-2.7188.9199,0,1.5938.4043,1.8516,1.1191h.1113V.7439h1.207v8.877h-1.1777v-1.0078h-.1113ZM231.478,6.8963c0,1.0957.6211,1.7871,1.6055,1.7871s1.6055-.6914,1.6055-1.7871v-.9551c0-1.1016-.6211-1.793-1.6055-1.793s-1.6055.6973-1.6055,1.793v.9551Z" style="fill:#d0f; stroke-width:0px;"/><path d="M241.017.24h1.1895c-1.2305,1.7637-1.7402,3.2754-1.7402,5.1504,0,1.8809.5098,3.3867,1.7402,5.1504h-1.1895c-1.1836-1.3359-1.8047-3.1113-1.8047-5.1504s.6211-3.8145,1.8047-5.1504Z" style="fill:#d0f; stroke-width:0px;"/><path d="M250.7729,7.9334c-.1699,1.0723-1.2246,1.8105-2.6016,1.8105-1.793,0-2.8184-1.0547-2.8184-2.8711v-.9727c0-1.6816,1.0957-2.7891,2.7539-2.7891,1.6699,0,2.6836,1.1016,2.6836,2.918v.6914h-4.2832v.2871c0,1.0781.6504,1.7695,1.6582,1.7695.7559,0,1.3242-.3223,1.4824-.8438h1.125ZM246.5073,5.8943h3.1289c0-1.1367-.5742-1.8223-1.541-1.8223-.9902,0-1.5879.6797-1.5879,1.8223Z" style="fill:#d0f; stroke-width:0px;"/><path d="M252.8823,9.6209v-.9492h2.1387V1.699h-2.0918v-.9551h3.2637v7.9277h2.0508v.9492h-5.3613Z" style="fill:#d0f; stroke-width:0px;"/><path d="M260.3003,9.6209v-.9492h2.1387V1.699h-2.0918v-.9551h3.2637v7.9277h2.0508v.9492h-5.3613Z" style="fill:#d0f; stroke-width:0px;"/><path d="M267.7182,9.6209v-.9492h2.1504v-4.4883h-2.1035v-.9492h3.252v5.4375h2.0625v.9492h-5.3613ZM269.476.8728c0-.5098.3867-.873.9082-.873.5273,0,.9082.3633.9082.873,0,.5039-.3809.8672-.9082.8672-.5215,0-.9082-.3633-.9082-.8672Z" style="fill:#d0f; stroke-width:0px;"/><path d="M280.603,5.8475v1.166c0,1.6641-.9375,2.7129-2.4082,2.7129-.9258,0-1.5938-.4043-1.8516-1.1191h-.1113v3.1582h-1.207V3.2342h1.1777v1.0137h.1113c.2988-.7266.9551-1.1133,1.8809-1.1133,1.4707,0,2.4082,1.0488,2.4082,2.7129ZM276.2026,5.9646v.9551c0,1.1016.6211,1.793,1.5996,1.793.9844,0,1.6113-.6973,1.6113-1.793v-.9551c0-1.0957-.627-1.7871-1.6113-1.7871-.9785,0-1.5996.6914-1.5996,1.7871Z" style="fill:#d0f; stroke-width:0px;"/><path d="M285.1323,3.1053c1.3945,0,2.3086.668,2.4141,1.7754h-1.125c-.1055-.5215-.6035-.8438-1.3066-.8438-.75,0-1.2363.3516-1.2363.8789,0,.457.3105.709,1.0547.873l.9258.2051c1.2598.2812,1.8281.8203,1.8281,1.7578,0,1.2129-1.002,1.9863-2.5605,1.9863-1.5059,0-2.4785-.6738-2.584-1.7988h1.1836c.1289.5449.6562.8555,1.4297.8555.8027,0,1.3184-.3574,1.3184-.9141,0-.4688-.2871-.709-1.0605-.8848l-.9551-.2168c-1.166-.2637-1.7461-.8496-1.7461-1.7812,0-1.1426.9551-1.8926,2.4199-1.8926Z" style="fill:#d0f; stroke-width:0px;"/><path d="M295.2807,7.9334c-.1699,1.0723-1.2246,1.8105-2.6016,1.8105-1.793,0-2.8184-1.0547-2.8184-2.8711v-.9727c0-1.6816,1.0957-2.7891,2.7539-2.7891,1.6699,0,2.6836,1.1016,2.6836,2.918v.6914h-4.2832v.2871c0,1.0781.6504,1.7695,1.6582,1.7695.7559,0,1.3242-.3223,1.4824-.8438h1.125ZM291.0151,5.8943h3.1289c0-1.1367-.5742-1.8223-1.541-1.8223-.9902,0-1.5879.6797-1.5879,1.8223Z" style="fill:#d0f; stroke-width:0px;"/><path d="M298.521,11.5838l.7676-4.248h1.5059l-1.0781,4.248h-1.1953Z" style="fill:#d0f; stroke-width:0px;"/><path d="M318.0034,8.5838v1.0371h-5.9414v-1.0371h2.4258V2.4725h-.0938l-2.3496,1.5293v-1.2305l2.4492-1.6055h1.1953v7.418h2.3145Z" style="fill:#d0f; stroke-width:0px;"/><path d="M325.1577,5.3963c0,2.8359-1.0547,4.4121-2.9473,4.4121s-2.9473-1.5762-2.9473-4.4121c0-2.8418,1.0547-4.418,2.9473-4.418s2.9473,1.5762,2.9473,4.418ZM323.7514,3.5447c-.2578-1.002-.7793-1.5234-1.541-1.5234-1.1426,0-1.7461,1.166-1.7461,3.375,0,.252.0059.4922.0234.7207l3.2637-2.5723ZM320.6635,7.2537c.2637.9961.7852,1.5176,1.5469,1.5176,1.1367,0,1.7402-1.1719,1.7402-3.375,0-.2578-.0059-.5039-.0234-.7383l-3.2637,2.5957Z" style="fill:#d0f; stroke-width:0px;"/><path d="M328.1928,11.5838l.7676-4.248h1.5059l-1.0781,4.248h-1.1953Z" style="fill:#d0f; stroke-width:0px;"/><path d="M344.4116.99c1.6113,0,2.707.9727,2.707,2.3965,0,.8906-.4219,1.6172-1.7988,3.0586l-1.8867,2.0098v.0996h3.8203v1.0664h-5.5312v-.8379l2.8301-3.0586c1.0957-1.1895,1.3652-1.6348,1.3652-2.2734,0-.8672-.6094-1.4297-1.541-1.4297-.9375,0-1.5586.627-1.5586,1.5703v.0352h-1.1543v-.0352c0-1.5234,1.1367-2.6016,2.748-2.6016Z" style="fill:#d0f; stroke-width:0px;"/><path d="M354.8295,5.3963c0,2.8359-1.0547,4.4121-2.9473,4.4121s-2.9473-1.5762-2.9473-4.4121c0-2.8418,1.0547-4.418,2.9473-4.418s2.9473,1.5762,2.9473,4.418ZM353.4233,3.5447c-.2578-1.002-.7793-1.5234-1.541-1.5234-1.1426,0-1.7461,1.166-1.7461,3.375,0,.252.0059.4922.0234.7207l3.2637-2.5723ZM350.3354,7.2537c.2637.9961.7852,1.5176,1.5469,1.5176,1.1367,0,1.7402-1.1719,1.7402-3.375,0-.2578-.0059-.5039-.0234-.7383l-3.2637,2.5957Z" style="fill:#d0f; stroke-width:0px;"/><path d="M358.8842.24c1.1836,1.3359,1.8047,3.1113,1.8047,5.1504s-.6211,3.8145-1.8047,5.1504h-1.1895c1.2305-1.7637,1.7402-3.2695,1.7402-5.1504,0-1.875-.5098-3.3867-1.7402-5.1504h1.1895Z" style="fill:#d0f; stroke-width:0px;"/></g></svg>