<?xml version="1.0" encoding="UTF-8"?><svg id="a" xmlns="http://www.w3.org/2000/svg" viewBox="0 0 386.9165 59.4507"><path d="M5.2734,8.293h-3.1182c.0039.3936.0762.7407.2188,1.041.1416.3003.3311.5269.5664.6792s.4951.2285.7793.2285c.1914,0,.3652-.0244.5225-.0732.1582-.0483.3105-.1245.459-.2285.1475-.1035.2842-.2144.4082-.333.125-.1187.2871-.2793.4854-.4824.082-.0762.1982-.1143.3506-.1143.1631,0,.2959.0488.3965.146.1016.0972.1523.2349.1523.4126,0,.1567-.0566.3398-.1699.5488-.1123.21-.2832.4106-.5107.6035-.2275.1924-.5137.3521-.8584.479-.3447.1274-.7402.1899-1.1885.1899-1.0234,0-1.8203-.3169-2.3887-.9517s-.8525-1.4961-.8525-2.5835c0-.5122.0703-.9873.21-1.4248.1406-.4385.3447-.814.6133-1.127s.5996-.5532.9932-.7207c.3936-.167.8291-.2505,1.3076-.2505.623,0,1.1572.1431,1.6035.4282.4453.2861.7793.6553,1.002,1.1079.2217.4526.332.9141.332,1.3838,0,.436-.1143.7183-.3438.8472-.2305.1294-.5537.1938-.9697.1938ZM2.1553,7.3091h2.8906c-.0391-.5923-.1865-1.0356-.4414-1.3301-.2549-.2939-.5908-.4409-1.0068-.4409-.3975,0-.7236.1489-.9785.4478-.2549.2979-.4102.7393-.4639,1.3232Z" style="fill:#221f20; stroke-width:0px;"/><path d="M11.2295,10.6733l-1.1562-1.8472-1.1855,1.8472c-.1709.2583-.3164.4424-.4346.5522-.1191.1099-.2695.1646-.4531.1646-.2021,0-.374-.0684-.5166-.2061-.1416-.1372-.2129-.2949-.2129-.4727,0-.1821.1084-.4424.3271-.7808l1.4424-2.2471-1.2793-1.8726c-.2217-.3091-.333-.5776-.333-.8062,0-.1777.0664-.332.1992-.4634.1318-.1313.3057-.1968.5195-.1968.1865,0,.3418.0571.4639.1714.123.1143.2656.2939.4297.5396l1.0332,1.5361,1.0049-1.5361c.167-.2539.3125-.436.4346-.5459.123-.1099.2754-.165.459-.165.21,0,.3838.0645.5225.1938.1377.1289.207.2842.207.4663,0,.1313-.0283.2573-.084.3774-.0566.1211-.1436.2637-.2607.4287l-1.2783,1.8726,1.4424,2.2471c.2256.3511.3389.6157.3389.7935,0,.1821-.0703.3384-.2109.4697-.1396.1309-.3125.1963-.5195.1963-.1826,0-.3379-.0566-.4639-.1709-.127-.1143-.2715-.2964-.4355-.5459Z" style="fill:#221f20; stroke-width:0px;"/><path d="M15.4756,5.3159v.2095c.2998-.4019.6113-.6973.9346-.8853.3232-.1885.6895-.2827,1.0977-.2827.4902,0,.9424.1377,1.3555.4126.4121.2749.7383.6772.9775,1.2061s.3594,1.1553.3594,1.8789c0,.5332-.0693,1.0229-.207,1.4697-.1387.4463-.3281.8208-.5693,1.123-.2422.3027-.5273.5356-.8555.6982-.3291.1631-.6826.2441-1.0605.2441-.4551,0-.8379-.0986-1.1475-.2979-.3096-.1987-.6045-.4907-.8848-.876v2.6025c0,.7617-.2549,1.1426-.7646,1.1426-.2998,0-.499-.0986-.5957-.2949-.0977-.1973-.1465-.4834-.1465-.8604v-7.4775c0-.3301.0664-.5767.1992-.7393.1318-.1631.3125-.2446.543-.2446.2256,0,.4092.0835.5518.2505.1416.1675.2129.4077.2129.7207ZM18.5996,7.8359c0-.457-.0635-.8496-.1924-1.1772-.1279-.3281-.3066-.5801-.5342-.7559-.2275-.1753-.4795-.2632-.7559-.2632-.4404,0-.8115.1885-1.1133.5649s-.4521.9312-.4521,1.6631c0,.6899.1494,1.2261.4492,1.6094.2998.3828.6719.5742,1.1162.5742.2646,0,.5098-.0835.7354-.251.2256-.167.4072-.4175.543-.752.1367-.3345.2041-.7383.2041-1.2124Z" style="fill:#221f20; stroke-width:0px;"/><path d="M27.4473,7.8677c0,.5161-.0742.9922-.2227,1.4282-.1475.436-.3613.8105-.6416,1.1235s-.6152.5532-1.0049.7207c-.3896.167-.8271.25-1.3135.25-.4834,0-.917-.084-1.3027-.2534s-.7188-.4116-1.001-.7271c-.2832-.3149-.4971-.6875-.6426-1.1172-.1465-.4292-.2197-.9043-.2197-1.4248,0-.5249.0742-1.0049.2227-1.4409.1475-.436.3594-.8081.6367-1.1172.2764-.3091.6104-.5469,1.0039-.7144.3936-.167.8271-.2505,1.3027-.2505.4824,0,.9199.0845,1.3135.2539s.7305.4106,1.0107.7236.4932.6855.6387,1.1172c.1465.4316.2197.9077.2197,1.4282ZM25.8467,7.8677c0-.7065-.1426-1.2568-.4287-1.6504s-.6709-.5903-1.1533-.5903c-.3115,0-.5859.0879-.8242.2632-.2373.1758-.4199.4351-.5488.7778-.1279.3428-.1924.7427-.1924,1.1997,0,.4526.0635.8486.1895,1.187.127.3384.3076.5977.543.7778.2363.1797.5137.2695.833.2695.4824,0,.8672-.1978,1.1533-.5938.2861-.3955.4287-.9424.4287-1.6406Z" style="fill:#221f20; stroke-width:0px;"/><path d="M33.8359,9.1245c0,.478-.1074.8877-.3213,1.2285-.2148.3403-.5312.5986-.9492.7744-.4189.1758-.9277.2627-1.5273.2627-.5723,0-1.0625-.0947-1.4717-.2852-.4082-.1904-.71-.4287-.9053-.7139-.1943-.2861-.292-.5728-.292-.8604,0-.1904.0625-.3535.1875-.4888.124-.1353.2822-.2031.4727-.2031.167,0,.2959.0444.3857.1333.0889.0889.1748.2139.2568.3745.1631.3091.3594.5396.5869.6919s.5381.2285.9316.2285c.3193,0,.5811-.0771.7852-.2314.2041-.1548.3066-.3315.3066-.5303,0-.3047-.1064-.5269-.3184-.6665s-.5615-.2729-1.0479-.3999c-.5498-.1479-.9961-.3037-1.3408-.4668-.3447-.1626-.6201-.3774-.8262-.644s-.3096-.5947-.3096-.9839c0-.3472.0957-.6748.2861-.9839s.4717-.5552.8438-.7397c.3721-.1836.8203-.2759,1.3467-.2759.4121,0,.7832.0464,1.1123.1396s.6035.2178.8232.3745.3877.3301.502.5205c.1152.1904.1729.3765.1729.5586,0,.1987-.0615.3618-.1846.4888-.1221.127-.2969.1904-.5225.1904-.1631,0-.3027-.0508-.417-.1523-.1152-.1016-.2471-.2539-.3945-.457-.1211-.1694-.2627-.3047-.4268-.4062-.1631-.1016-.3848-.1523-.665-.1523-.2881,0-.5283.0669-.7188.1997-.1904.1338-.2861.2998-.2861.4985,0,.1821.0703.3311.21.4478.1406.1162.3291.2124.5664.2886.2383.0762.5645.1694.9814.2793.4941.1313.8984.2876,1.2119.4697s.5508.397.7119.644c.1621.248.2432.5303.2432.8477Z" style="fill:#221f20; stroke-width:0px;"/><path d="M39.3252,10.4131v-.2222c-.1904.2622-.3916.4824-.6016.6602s-.4395.3101-.6895.3965c-.249.0869-.5332.1309-.8525.1309-.3848,0-.7305-.0869-1.0361-.2607-.3057-.1733-.542-.4126-.71-.7173-.1982-.3682-.2979-.897-.2979-1.5869v-3.4341c0-.3472.0723-.6064.2168-.7773.1436-.1719.334-.2573.5723-.2573.2412,0,.4355.0869.584.2603.1475.1733.2217.4316.2217.7744v2.7739c0,.4019.0312.7397.0938,1.0122.0615.2734.1738.4868.335.6416.1621.1543.3809.2314.6572.2314.2686,0,.5215-.0869.7598-.2603.2373-.1733.4102-.3999.5195-.6792.0889-.2456.1338-.7827.1338-1.6123v-2.1074c0-.3428.0742-.6011.2227-.7744.1475-.1733.3398-.2603.5781-.2603.2373,0,.4277.0854.5723.2573.1436.1709.2158.4302.2158.7773v5.021c0,.3301-.0693.5776-.207.7427-.1387.165-.3164.2471-.5352.2471-.2178,0-.3975-.085-.54-.2568-.1416-.1709-.2129-.4111-.2129-.7202Z" style="fill:#221f20; stroke-width:0px;"/><path d="M43.9922,8.8896v1.4473c0,.3511-.0762.6147-.2275.7905-.1523.1758-.3447.2627-.5781.2627-.2305,0-.4189-.0879-.5674-.2661-.1475-.1777-.2217-.4399-.2217-.7871v-4.8242c0-.7788.2588-1.168.7773-1.168.2646,0,.4551.0908.5723.2729.1162.1821.1807.4507.1924.8062.1904-.3555.3867-.624.5869-.8062s.4678-.2729.8027-.2729.6602.0908.9756.2729.4727.4233.4727.7236c0,.2114-.0674.3862-.2012.5234-.1348.1377-.2793.2065-.4355.2065-.0576,0-.1992-.0391-.4229-.1177-.2236-.0781-.4219-.1172-.5928-.1172-.2334,0-.4248.0664-.5723.2002-.1484.1328-.2627.3311-.3447.5933s-.1387.5747-.1689.936c-.0312.3623-.0469.8032-.0469,1.3237Z" style="fill:#221f20; stroke-width:0px;"/><path d="M51.7998,8.293h-3.1182c.0039.3936.0762.7407.2188,1.041.1416.3003.3311.5269.5664.6792s.4951.2285.7793.2285c.1914,0,.3652-.0244.5225-.0732.1582-.0483.3105-.1245.459-.2285.1475-.1035.2842-.2144.4082-.333.125-.1187.2871-.2793.4854-.4824.082-.0762.1982-.1143.3506-.1143.1631,0,.2959.0488.3965.146.1016.0972.1523.2349.1523.4126,0,.1567-.0566.3398-.1699.5488-.1123.21-.2832.4106-.5107.6035-.2275.1924-.5137.3521-.8584.479-.3447.1274-.7402.1899-1.1885.1899-1.0234,0-1.8203-.3169-2.3887-.9517s-.8525-1.4961-.8525-2.5835c0-.5122.0703-.9873.21-1.4248.1406-.4385.3447-.814.6133-1.127s.5996-.5532.9932-.7207c.3936-.167.8291-.2505,1.3076-.2505.623,0,1.1572.1431,1.6035.4282.4453.2861.7793.6553,1.002,1.1079.2217.4526.332.9141.332,1.3838,0,.436-.1143.7183-.3438.8472-.2305.1294-.5537.1938-.9697.1938ZM48.6816,7.3091h2.8906c-.0391-.5923-.1865-1.0356-.4414-1.3301-.2549-.2939-.5908-.4409-1.0068-.4409-.3975,0-.7236.1489-.9785.4478-.2549.2979-.4102.7393-.4639,1.3232Z" style="fill:#221f20; stroke-width:0px;"/><path d="M88.6997,4.4971h.3789v-.5205c0-.5415.0635-.9722.1904-1.2915.126-.3198.3398-.5527.6416-.6982.3018-.1465.7158-.2192,1.2412-.2192.9307,0,1.3955.2476,1.3955.7427,0,.1606-.0479.2983-.1455.4126s-.2119.1714-.3447.1714c-.0625,0-.1689-.0127-.3213-.0381-.1514-.0254-.2803-.0381-.3848-.0381-.2891,0-.4736.0918-.5557.2764-.0811.1836-.1221.4473-.1221.79v.4126h.3916c.6064,0,.9102.1987.9102.5967,0,.2837-.0801.4634-.2422.5396-.1611.0762-.3848.1143-.668.1143h-.3916v4.5894c0,.3428-.0752.604-.2246.7837-.1504.1797-.3438.2695-.5811.2695-.2266,0-.4141-.0898-.5635-.2695-.1504-.1797-.2256-.4409-.2256-.7837v-4.5894h-.4375c-.2373,0-.4209-.0581-.5488-.1748-.1289-.1162-.1929-.2676-.1929-.4536,0-.4146.2661-.6221.8003-.6221Z" style="fill:#221f20; stroke-width:0px;"/><path d="M96.6821,10.4131c-.3848.3257-.7578.5703-1.1182.7329-.3604.1631-.7637.2441-1.2119.2441-.4082,0-.7676-.0869-1.0771-.2627s-.5479-.4141-.7158-.7144c-.167-.3003-.251-.6265-.251-.9775,0-.4741.1387-.8779.415-1.2124s.6562-.5586,1.1387-.6729c.1016-.0254.3525-.0825.7529-.1714.4014-.0889.7451-.1704,1.0312-.2446.2861-.0737.5967-.1636.9316-.2695-.0195-.457-.1045-.7925-.2539-1.0059-.1504-.2139-.4609-.3208-.9316-.3208-.4053,0-.71.0615-.9141.1841s-.3799.3066-.5254.5522c-.1465.2456-.249.4072-.3096.4858-.0605.0781-.1904.1172-.3887.1172-.1787,0-.334-.0625-.4639-.1875-.1309-.1245-.1963-.2842-.1963-.479,0-.3047.0996-.6011.2979-.8887.1992-.2876.5088-.5249.9287-.7109.4209-.186.9443-.2793,1.5713-.2793.7002,0,1.251.0898,1.6523.27.4014.1797.6846.4644.8496.8535.166.3892.248.9058.248,1.5488,0,.4062-.001.751-.0029,1.0347s-.0049.5986-.0088.9458c0,.3257.0498.6655.1494,1.0186.0996.3535.1484.5811.1484.6826,0,.1777-.0762.3398-.2305.4854-.1533.1465-.3281.2188-.5225.2188-.1631,0-.3252-.083-.4844-.25-.1602-.1675-.3291-.4097-.5088-.7271ZM96.5776,7.9058c-.2334.0933-.5732.1914-1.0195.2949-.4453.104-.7539.1802-.9258.2285-.1709.0488-.335.144-.4902.2861-.1553.1416-.2334.3394-.2334.5933,0,.2622.0918.4858.2744.6694.1826.1846.4219.2764.7178.2764.3154,0,.6064-.0752.873-.2256.2676-.1499.4629-.3438.5869-.5806.1445-.2622.2168-.6938.2168-1.2949v-.2476Z" style="fill:#221f20; stroke-width:0px;"/><path d="M105.063,7.9946v2.3042c0,.3638-.0762.6367-.2275.8188-.1523.1816-.3525.2725-.6016.2725-.2412,0-.4375-.0908-.5869-.2725-.1504-.1821-.2246-.4551-.2246-.8188v-2.7612c0-.436-.0137-.7744-.041-1.0156s-.1016-.439-.2217-.5938c-.1211-.1543-.3115-.2314-.5732-.2314-.5215,0-.8652.1948-1.0303.584s-.248.9478-.248,1.6758v2.3423c0,.3599-.0752.6313-.2246.8159-.1504.1836-.3477.2754-.5928.2754-.2422,0-.4395-.0918-.5928-.2754-.1543-.1846-.2314-.4561-.2314-.8159v-4.9575c0-.3257.0693-.5732.208-.7427.1377-.1694.3203-.2539.5459-.2539.2178,0,.4004.0796.5459.2378.1465.1592.2188.3779.2188.6572v.165c.2764-.3599.5723-.624.8877-.7935s.666-.2539,1.0518-.2539c.4004,0,.7451.0869,1.0332.2603s.5254.436.7129.7871c.2686-.3555.5566-.6191.8643-.79.3076-.1719.6475-.2573,1.0215-.2573.4365,0,.8115.0933,1.127.2793s.5508.4526.707.7998c.1357.313.2041.8062.2041,1.479v3.3833c0,.3638-.0762.6367-.2275.8188-.1514.1816-.3525.2725-.6016.2725-.2412,0-.4385-.0918-.5928-.2754-.1533-.1846-.2305-.4561-.2305-.8159v-2.9136c0-.3726-.0146-.6709-.0439-.895s-.1084-.4126-.2363-.5649c-.1289-.1523-.3232-.2285-.584-.2285-.21,0-.4102.0679-.5986.2031-.1895.1353-.3359.3174-.4414.5459-.1162.292-.1748.8081-.1748,1.5488Z" style="fill:#221f20; stroke-width:0px;"/><path d="M111.147,3.5386c-.2217,0-.4111-.0742-.5693-.2222-.1572-.1479-.2363-.3574-.2363-.6284,0-.2456.0811-.4473.2422-.6064.1621-.1582.3496-.2378.5635-.2378.207,0,.3896.0718.5498.2158.1592.144.2393.3535.2393.6284,0,.2666-.0781.4751-.2334.625-.1562.1504-.3408.2256-.5557.2256ZM111.936,5.3286v5.0083c0,.3472-.0762.6094-.2285.7871-.1514.1782-.3438.2661-.5781.2661-.2334,0-.4229-.0908-.5693-.2725-.1455-.1821-.2188-.4424-.2188-.7808v-4.9575c0-.3428.0732-.6011.2188-.7744.1465-.1733.3359-.2603.5693-.2603.2344,0,.4268.0869.5781.2603.1523.1733.2285.4146.2285.7236Z" style="fill:#221f20; stroke-width:0px;"/><path d="M113.5825,10.3369V2.8213c0-.3472.0713-.6094.2129-.7871.1426-.1777.334-.2666.5752-.2666.2422,0,.4365.0879.584.2632.1484.1758.2227.4395.2227.7905v7.5156c0,.3511-.0752.6147-.2256.7905-.1494.1758-.3428.2627-.5811.2627-.2334,0-.4229-.0908-.5693-.2725-.1455-.1821-.2188-.4424-.2188-.7808Z" style="fill:#221f20; stroke-width:0px;"/><path d="M117.6294,3.5386c-.2217,0-.4111-.0742-.5693-.2222-.1572-.1479-.2363-.3574-.2363-.6284,0-.2456.0811-.4473.2422-.6064.1621-.1582.3496-.2378.5635-.2378.207,0,.3896.0718.5498.2158.1592.144.2393.3535.2393.6284,0,.2666-.0781.4751-.2334.625-.1562.1504-.3408.2256-.5557.2256ZM118.4185,5.3286v5.0083c0,.3472-.0762.6094-.2285.7871-.1514.1782-.3438.2661-.5781.2661-.2334,0-.4229-.0908-.5693-.2725-.1455-.1821-.2188-.4424-.2188-.7808v-4.9575c0-.3428.0732-.6011.2188-.7744.1465-.1733.3359-.2603.5693-.2603.2344,0,.4268.0869.5781.2603.1523.1733.2285.4146.2285.7236Z" style="fill:#221f20; stroke-width:0px;"/><path d="M124.0942,10.4131c-.3848.3257-.7578.5703-1.1182.7329-.3604.1631-.7637.2441-1.2119.2441-.4082,0-.7676-.0869-1.0771-.2627s-.5479-.4141-.7158-.7144c-.167-.3003-.251-.6265-.251-.9775,0-.4741.1387-.8779.415-1.2124s.6562-.5586,1.1387-.6729c.1016-.0254.3525-.0825.7529-.1714.4014-.0889.7451-.1704,1.0312-.2446.2861-.0737.5967-.1636.9316-.2695-.0195-.457-.1045-.7925-.2539-1.0059-.1504-.2139-.4609-.3208-.9316-.3208-.4053,0-.71.0615-.9141.1841s-.3799.3066-.5254.5522c-.1465.2456-.249.4072-.3096.4858-.0605.0781-.1904.1172-.3887.1172-.1787,0-.334-.0625-.4639-.1875-.1309-.1245-.1963-.2842-.1963-.479,0-.3047.0996-.6011.2979-.8887.1992-.2876.5088-.5249.9287-.7109.4209-.186.9443-.2793,1.5713-.2793.7002,0,1.251.0898,1.6523.27.4014.1797.6846.4644.8496.8535.166.3892.248.9058.248,1.5488,0,.4062-.001.751-.0029,1.0347s-.0049.5986-.0088.9458c0,.3257.0498.6655.1494,1.0186.0996.3535.1484.5811.1484.6826,0,.1777-.0762.3398-.2305.4854-.1533.1465-.3281.2188-.5225.2188-.1631,0-.3252-.083-.4844-.25-.1602-.1675-.3291-.4097-.5088-.7271ZM123.9897,7.9058c-.2334.0933-.5732.1914-1.0195.2949-.4453.104-.7539.1802-.9258.2285-.1709.0488-.335.144-.4902.2861-.1553.1416-.2334.3394-.2334.5933,0,.2622.0918.4858.2744.6694.1826.1846.4219.2764.7178.2764.3154,0,.6064-.0752.873-.2256.2676-.1499.4629-.3438.5869-.5806.1445-.2622.2168-.6938.2168-1.2949v-.2476Z" style="fill:#221f20; stroke-width:0px;"/><path d="M128.7554,8.8896v1.4473c0,.3511-.0762.6147-.2275.7905-.1523.1758-.3447.2627-.5781.2627-.2305,0-.4189-.0879-.5674-.2661-.1475-.1777-.2217-.4399-.2217-.7871v-4.8242c0-.7788.2588-1.168.7773-1.168.2646,0,.4551.0908.5723.2729.1162.1821.1807.4507.1924.8062.1904-.3555.3867-.624.5869-.8062s.4678-.2729.8027-.2729.6602.0908.9756.2729.4727.4233.4727.7236c0,.2114-.0674.3862-.2012.5234-.1348.1377-.2793.2065-.4355.2065-.0576,0-.1992-.0391-.4229-.1177-.2236-.0781-.4219-.1172-.5928-.1172-.2334,0-.4248.0664-.5723.2002-.1484.1328-.2627.3311-.3447.5933s-.1387.5747-.1689.936c-.0312.3623-.0469.8032-.0469,1.3237Z" style="fill:#221f20; stroke-width:0px;"/><path d="M133.2163,3.5386c-.2217,0-.4111-.0742-.5693-.2222-.1572-.1479-.2363-.3574-.2363-.6284,0-.2456.0811-.4473.2422-.6064.1621-.1582.3496-.2378.5635-.2378.207,0,.3896.0718.5498.2158.1592.144.2393.3535.2393.6284,0,.2666-.0781.4751-.2334.625-.1562.1504-.3408.2256-.5557.2256ZM134.0054,5.3286v5.0083c0,.3472-.0762.6094-.2285.7871-.1514.1782-.3438.2661-.5781.2661-.2334,0-.4229-.0908-.5693-.2725-.1455-.1821-.2188-.4424-.2188-.7808v-4.9575c0-.3428.0732-.6011.2188-.7744.1465-.1733.3359-.2603.5693-.2603.2344,0,.4268.0869.5781.2603.1523.1733.2285.4146.2285.7236Z" style="fill:#221f20; stroke-width:0px;"/><path d="M135.7397,4.4971h.1748v-1.041c0-.2793.0068-.4985.0205-.6567.0137-.1592.0518-.2954.1143-.4097.0625-.1187.1514-.2148.2686-.2886.1162-.0742.2471-.1113.3916-.1113.2021,0,.3848.0825.5488.2476.1084.1099.1777.2446.207.4028.0293.1592.0439.3843.0439.6763v1.1807h.584c.2256,0,.3975.0581.5166.1743.1191.1167.1777.2656.1777.4478,0,.2329-.084.3955-.2539.4888-.1689.0933-.4111.1396-.7266.1396h-.2979v3.1865c0,.271.0088.4795.0264.625.0176.1465.0645.2646.1396.3555.0762.0913.2002.1367.3711.1367.0938,0,.2197-.0181.3799-.0537.1592-.0361.2842-.0542.373-.0542.1289,0,.2451.0562.3477.1685.1035.1118.1553.2505.1553.4155,0,.2793-.1406.4932-.4209.6411-.2803.1484-.6836.2217-1.209.2217-.498,0-.876-.0908-1.1328-.2725-.2568-.1821-.4248-.4336-.5049-.7554s-.1201-.751-.1201-1.2886v-3.3262h-.21c-.2295,0-.4053-.0591-.5254-.1777-.1211-.1187-.1816-.2686-.1816-.4507s.0635-.3311.1904-.4478c.126-.1162.3105-.1743.5518-.1743Z" style="fill:#221f20; stroke-width:0px;"/><path d="M141.3569,11.6069l.1465-.3877-1.9629-5.3701c-.1201-.3091-.1807-.5332-.1807-.6729,0-.1479.0352-.2856.1055-.4126.0693-.127.166-.2285.2891-.3047.1221-.0762.25-.1143.3818-.1143.2305,0,.4033.0796.5205.2378.1162.1592.2197.3862.3086.6826l1.3496,4.2656,1.2783-3.9673c.1016-.3218.1934-.5732.2754-.7554.0811-.1821.168-.3047.2598-.3682.0908-.0635.2207-.0952.3877-.0952.1211,0,.2373.0347.3477.105.1113.0693.1963.1636.2568.2822s.0908.2432.0908.3745c-.0156.0806-.041.1948-.0762.3428s-.0781.2983-.1279.4507l-2.0791,5.916c-.1797.5205-.3545.9287-.5254,1.2246-.1719.2969-.3984.5244-.6807.6826-.2822.1592-.6631.2383-1.1416.2383-.4678,0-.8174-.0547-1.0518-.165-.2334-.1104-.3496-.3105-.3496-.6035,0-.1982.0547-.3516.166-.46.1113-.1074.2754-.1611.4932-.1611.0859,0,.1699.0117.251.0371.1016.0254.1895.0391.2637.0391.1826,0,.3262-.0303.4316-.0898.1055-.0586.1992-.1611.2832-.3076.084-.1455.1797-.3604.2891-.6436Z" style="fill:#221f20; stroke-width:0px;"/><path d="M186.354,9.2451c0,.2158-.0596.4463-.1787.6919-.1182.2456-.2998.4795-.543.7012-.2432.2227-.5498.4014-.9199.5366s-.7861.2036-1.25.2036c-.9844,0-1.7539-.3125-2.3066-.9365-.5527-.6245-.8291-1.4614-.8291-2.5107,0-.7109.127-1.3394.3799-1.8853s.6191-.9683,1.0977-1.2661c.4795-.2988,1.0518-.4478,1.7168-.4478.4131,0,.792.0654,1.1357.1968.3447.1313.6367.3003.876.5078.2402.2075.4229.4287.5498.6631.126.2354.1895.4541.1895.6572,0,.2075-.0713.3828-.2129.5269-.1426.144-.3145.2158-.5176.2158-.1318,0-.2422-.0371-.3291-.1108-.0879-.0742-.1865-.1938-.2949-.3589-.1953-.3218-.3984-.563-.6104-.7236-.2129-.1606-.4824-.2412-.8096-.2412-.4707,0-.8506.1997-1.1387.6001-.2881.3994-.4316.9468-.4316,1.6406,0,.3257.0371.625.1104.8984.0742.2725.1816.5054.3213.6982.1406.1924.3096.3384.5088.4375.1982.0996.416.1494.6533.1494.3193,0,.5928-.0806.8203-.2412.2285-.1606.4297-.4062.6045-.7363.0977-.1948.2031-.3472.3154-.457.1133-.1099.251-.165.415-.165.1943,0,.3564.0806.4844.2412.1289.1606.1934.332.1934.5142Z" style="fill:#221f20; stroke-width:0px;"/><path d="M193.7124,7.8677c0,.5161-.0742.9922-.2227,1.4282-.1475.436-.3613.8105-.6416,1.1235s-.6152.5532-1.0049.7207c-.3896.167-.8271.25-1.3135.25-.4834,0-.917-.084-1.3027-.2534s-.7188-.4116-1.001-.7271c-.2832-.3149-.4971-.6875-.6426-1.1172-.1465-.4292-.2197-.9043-.2197-1.4248,0-.5249.0742-1.0049.2227-1.4409.1475-.436.3594-.8081.6367-1.1172.2764-.3091.6104-.5469,1.0039-.7144.3936-.167.8271-.2505,1.3027-.2505.4824,0,.9199.0845,1.3135.2539s.7305.4106,1.0107.7236.4932.6855.6387,1.1172c.1465.4316.2197.9077.2197,1.4282ZM192.1118,7.8677c0-.7065-.1426-1.2568-.4287-1.6504s-.6709-.5903-1.1533-.5903c-.3115,0-.5859.0879-.8242.2632-.2373.1758-.4199.4351-.5488.7778-.1279.3428-.1924.7427-.1924,1.1997,0,.4526.0635.8486.1895,1.187.127.3384.3076.5977.543.7778.2363.1797.5137.2695.833.2695.4824,0,.8672-.1978,1.1533-.5938.2861-.3955.4287-.9424.4287-1.6406Z" style="fill:#221f20; stroke-width:0px;"/><path d="M200.27,7.9946v2.3042c0,.3638-.0762.6367-.2275.8188-.1523.1816-.3525.2725-.6016.2725-.2412,0-.4375-.0908-.5869-.2725-.1504-.1821-.2246-.4551-.2246-.8188v-2.7612c0-.436-.0137-.7744-.041-1.0156s-.1016-.439-.2217-.5938c-.1211-.1543-.3115-.2314-.5732-.2314-.5215,0-.8652.1948-1.0303.584s-.248.9478-.248,1.6758v2.3423c0,.3599-.0752.6313-.2246.8159-.1504.1836-.3477.2754-.5928.2754-.2422,0-.4395-.0918-.5928-.2754-.1543-.1846-.2314-.4561-.2314-.8159v-4.9575c0-.3257.0693-.5732.208-.7427.1377-.1694.3203-.2539.5459-.2539.2178,0,.4004.0796.5459.2378.1465.1592.2188.3779.2188.6572v.165c.2764-.3599.5723-.624.8877-.7935s.666-.2539,1.0518-.2539c.4004,0,.7451.0869,1.0332.2603s.5254.436.7129.7871c.2686-.3555.5566-.6191.8643-.79.3076-.1719.6475-.2573,1.0215-.2573.4365,0,.8115.0933,1.127.2793s.5508.4526.707.7998c.1357.313.2041.8062.2041,1.479v3.3833c0,.3638-.0762.6367-.2275.8188-.1514.1816-.3525.2725-.6016.2725-.2412,0-.4385-.0918-.5928-.2754-.1533-.1846-.2305-.4561-.2305-.8159v-2.9136c0-.3726-.0146-.6709-.0439-.895s-.1084-.4126-.2363-.5649c-.1289-.1523-.3232-.2285-.584-.2285-.21,0-.4102.0679-.5986.2031-.1895.1353-.3359.3174-.4414.5459-.1162.292-.1748.8081-.1748,1.5488Z" style="fill:#221f20; stroke-width:0px;"/><path d="M205.4214,4.4971h.3789v-.5205c0-.5415.0635-.9722.1904-1.2915.126-.3198.3398-.5527.6416-.6982.3018-.1465.7158-.2192,1.2412-.2192.9307,0,1.3955.2476,1.3955.7427,0,.1606-.0479.2983-.1455.4126s-.2119.1714-.3447.1714c-.0625,0-.1689-.0127-.3213-.0381-.1514-.0254-.2803-.0381-.3848-.0381-.2891,0-.4736.0918-.5557.2764-.0811.1836-.1221.4473-.1221.79v.4126h.3916c.6064,0,.9102.1987.9102.5967,0,.2837-.0801.4634-.2422.5396-.1611.0762-.3848.1143-.668.1143h-.3916v4.5894c0,.3428-.0752.604-.2246.7837-.1504.1797-.3438.2695-.5811.2695-.2266,0-.4141-.0898-.5635-.2695-.1504-.1797-.2256-.4409-.2256-.7837v-4.5894h-.4375c-.2373,0-.4209-.0581-.5488-.1748-.1289-.1162-.1934-.2676-.1934-.4536,0-.4146.2666-.6221.8008-.6221Z" style="fill:#221f20; stroke-width:0px;"/><path d="M215.3433,7.8677c0,.5161-.0742.9922-.2227,1.4282-.1475.436-.3613.8105-.6416,1.1235s-.6152.5532-1.0049.7207c-.3896.167-.8271.25-1.3135.25-.4834,0-.917-.084-1.3027-.2534s-.7188-.4116-1.001-.7271c-.2832-.3149-.4971-.6875-.6426-1.1172-.1465-.4292-.2197-.9043-.2197-1.4248,0-.5249.0742-1.0049.2227-1.4409.1475-.436.3594-.8081.6367-1.1172.2764-.3091.6104-.5469,1.0039-.7144.3936-.167.8271-.2505,1.3027-.2505.4824,0,.9199.0845,1.3135.2539s.7305.4106,1.0107.7236.4932.6855.6387,1.1172c.1465.4316.2197.9077.2197,1.4282ZM213.7427,7.8677c0-.7065-.1426-1.2568-.4287-1.6504s-.6709-.5903-1.1533-.5903c-.3115,0-.5859.0879-.8242.2632-.2373.1758-.4199.4351-.5488.7778-.1279.3428-.1924.7427-.1924,1.1997,0,.4526.0635.8486.1895,1.187.127.3384.3076.5977.543.7778.2363.1797.5137.2695.833.2695.4824,0,.8672-.1978,1.1533-.5938.2861-.3955.4287-.9424.4287-1.6406Z" style="fill:#221f20; stroke-width:0px;"/><path d="M218.1812,8.8896v1.4473c0,.3511-.0762.6147-.2275.7905-.1523.1758-.3447.2627-.5781.2627-.2305,0-.4189-.0879-.5674-.2661-.1475-.1777-.2217-.4399-.2217-.7871v-4.8242c0-.7788.2588-1.168.7773-1.168.2646,0,.4551.0908.5723.2729.1162.1821.1807.4507.1924.8062.1904-.3555.3867-.624.5869-.8062s.4678-.2729.8027-.2729.6602.0908.9756.2729.4727.4233.4727.7236c0,.2114-.0674.3862-.2012.5234-.1348.1377-.2793.2065-.4355.2065-.0576,0-.1992-.0391-.4229-.1177-.2236-.0781-.4219-.1172-.5928-.1172-.2334,0-.4248.0664-.5723.2002-.1484.1328-.2627.3311-.3447.5933s-.1387.5747-.1689.936c-.0312.3623-.0469.8032-.0469,1.3237Z" style="fill:#221f20; stroke-width:0px;"/><path d="M222.0698,4.4971h.1748v-1.041c0-.2793.0068-.4985.0205-.6567.0137-.1592.0518-.2954.1143-.4097.0625-.1187.1514-.2148.2686-.2886.1162-.0742.2471-.1113.3916-.1113.2021,0,.3848.0825.5488.2476.1084.1099.1777.2446.207.4028.0293.1592.0439.3843.0439.6763v1.1807h.584c.2256,0,.3975.0581.5166.1743.1191.1167.1777.2656.1777.4478,0,.2329-.084.3955-.2539.4888-.1689.0933-.4111.1396-.7266.1396h-.2979v3.1865c0,.271.0088.4795.0264.625.0176.1465.0645.2646.1396.3555.0762.0913.2002.1367.3711.1367.0938,0,.2197-.0181.3799-.0537.1592-.0361.2842-.0542.373-.0542.1289,0,.2451.0562.3477.1685.1035.1118.1553.2505.1553.4155,0,.2793-.1406.4932-.4209.6411-.2803.1484-.6836.2217-1.209.2217-.498,0-.876-.0908-1.1328-.2725-.2568-.1821-.4248-.4336-.5049-.7554s-.1201-.751-.1201-1.2886v-3.3262h-.21c-.2295,0-.4053-.0591-.5254-.1777-.1211-.1187-.1816-.2686-.1816-.4507s.0635-.3311.1904-.4478c.126-.1162.3105-.1743.5518-.1743Z" style="fill:#221f20; stroke-width:0px;"/><path d="M266.4399,9.2451c0,.2158-.0596.4463-.1787.6919-.1182.2456-.2998.4795-.543.7012-.2432.2227-.5498.4014-.9199.5366s-.7861.2036-1.25.2036c-.9844,0-1.7539-.3125-2.3066-.9365-.5527-.6245-.8291-1.4614-.8291-2.5107,0-.7109.127-1.3394.3799-1.8853s.6191-.9683,1.0977-1.2661c.4795-.2988,1.0518-.4478,1.7168-.4478.4131,0,.792.0654,1.1357.1968.3447.1313.6367.3003.876.5078.2402.2075.4229.4287.5498.6631.126.2354.1895.4541.1895.6572,0,.2075-.0713.3828-.2129.5269-.1426.144-.3145.2158-.5176.2158-.1318,0-.2422-.0371-.3291-.1108-.0879-.0742-.1865-.1938-.2949-.3589-.1953-.3218-.3984-.563-.6104-.7236-.2129-.1606-.4824-.2412-.8096-.2412-.4707,0-.8506.1997-1.1387.6001-.2881.3994-.4316.9468-.4316,1.6406,0,.3257.0371.625.1104.8984.0742.2725.1816.5054.3213.6982.1406.1924.3096.3384.5088.4375.1982.0996.416.1494.6533.1494.3193,0,.5928-.0806.8203-.2412.2285-.1606.4297-.4062.6045-.7363.0977-.1948.2031-.3472.3154-.457.1133-.1099.251-.165.415-.165.1943,0,.3564.0806.4844.2412.1289.1606.1934.332.1934.5142Z" style="fill:#221f20; stroke-width:0px;"/><path d="M273.7983,7.8677c0,.5161-.0742.9922-.2227,1.4282-.1475.436-.3613.8105-.6416,1.1235s-.6152.5532-1.0049.7207c-.3896.167-.8271.25-1.3135.25-.4834,0-.917-.084-1.3027-.2534s-.7188-.4116-1.001-.7271c-.2832-.3149-.4971-.6875-.6426-1.1172-.1465-.4292-.2197-.9043-.2197-1.4248,0-.5249.0742-1.0049.2227-1.4409.1475-.436.3594-.8081.6367-1.1172.2764-.3091.6104-.5469,1.0039-.7144.3936-.167.8271-.2505,1.3027-.2505.4824,0,.9199.0845,1.3135.2539s.7305.4106,1.0107.7236.4932.6855.6387,1.1172c.1465.4316.2197.9077.2197,1.4282ZM272.1978,7.8677c0-.7065-.1426-1.2568-.4287-1.6504s-.6709-.5903-1.1533-.5903c-.3115,0-.5859.0879-.8242.2632-.2373.1758-.4199.4351-.5488.7778-.1279.3428-.1924.7427-.1924,1.1997,0,.4526.0635.8486.1895,1.187.127.3384.3076.5977.543.7778.2363.1797.5137.2695.833.2695.4824,0,.8672-.1978,1.1533-.5938.2861-.3955.4287-.9424.4287-1.6406Z" style="fill:#221f20; stroke-width:0px;"/><path d="M276.5015,5.3032v.2095c.2803-.4019.5869-.6973.9199-.8853.333-.1885.7158-.2827,1.1475-.2827.4209,0,.7959.0996,1.127.2983s.5781.4805.7422.8442c.1045.2114.1729.4399.2041.6855s.0469.5586.0469.9395v3.2246c0,.3472-.0732.6094-.2188.7871-.1465.1782-.3359.2661-.5693.2661-.2383,0-.4307-.0908-.5781-.2725-.1484-.1821-.2227-.4424-.2227-.7808v-2.8882c0-.5713-.0723-1.0083-.2188-1.3105-.1455-.3027-.4365-.4541-.873-.4541-.2842,0-.543.0918-.7764.2764-.2334.1836-.4053.4365-.5146.7583-.0771.2583-.1162.7407-.1162,1.4473v2.1709c0,.3511-.0752.6147-.2246.7905-.1504.1758-.3438.2627-.5811.2627-.2305,0-.4189-.0908-.5664-.2725-.1484-.1821-.2227-.4424-.2227-.7808v-5.0083c0-.3301.0664-.5767.1992-.7393.1318-.1631.3135-.2446.543-.2446.1396,0,.2666.0361.3789.1079.1133.0718.2041.1797.2725.3237.0674.144.1016.3193.1016.5269Z" style="fill:#221f20; stroke-width:0px;"/><path d="M282.1489,4.4971h.3789v-.5205c0-.5415.0635-.9722.1904-1.2915.126-.3198.3398-.5527.6416-.6982.3018-.1465.7158-.2192,1.2412-.2192.9307,0,1.3955.2476,1.3955.7427,0,.1606-.0479.2983-.1455.4126s-.2119.1714-.3447.1714c-.0625,0-.1689-.0127-.3213-.0381-.1514-.0254-.2803-.0381-.3848-.0381-.2891,0-.4736.0918-.5557.2764-.0811.1836-.1221.4473-.1221.79v.4126h.3916c.6064,0,.9102.1987.9102.5967,0,.2837-.0801.4634-.2422.5396-.1611.0762-.3848.1143-.668.1143h-.3916v4.5894c0,.3428-.0752.604-.2246.7837-.1504.1797-.3438.2695-.5811.2695-.2266,0-.4141-.0898-.5635-.2695-.1504-.1797-.2256-.4409-.2256-.7837v-4.5894h-.4375c-.2373,0-.4209-.0581-.5488-.1748-.1289-.1162-.1934-.2676-.1934-.4536,0-.4146.2666-.6221.8008-.6221Z" style="fill:#221f20; stroke-width:0px;"/><path d="M287.2114,3.5386c-.2217,0-.4111-.0742-.5693-.2222-.1572-.1479-.2363-.3574-.2363-.6284,0-.2456.0811-.4473.2422-.6064.1621-.1582.3496-.2378.5635-.2378.207,0,.3896.0718.5498.2158.1592.144.2393.3535.2393.6284,0,.2666-.0781.4751-.2334.625-.1562.1504-.3408.2256-.5557.2256ZM288.0005,5.3286v5.0083c0,.3472-.0762.6094-.2285.7871-.1514.1782-.3438.2661-.5781.2661-.2334,0-.4229-.0908-.5693-.2725-.1455-.1821-.2188-.4424-.2188-.7808v-4.9575c0-.3428.0732-.6011.2188-.7744.1465-.1733.3359-.2603.5693-.2603.2344,0,.4268.0869.5781.2603.1523.1733.2285.4146.2285.7236Z" style="fill:#221f20; stroke-width:0px;"/><path d="M294.0151,10.4004v-.1714c-.2139.2666-.4248.4834-.6338.6504-.208.1675-.4336.2944-.6768.3809-.2432.0869-.5098.1299-.7979.1299-.3809,0-.7344-.0869-1.0596-.2627s-.6064-.4268-.8438-.7524-.418-.709-.54-1.1489c-.123-.4399-.1846-.916-.1846-1.4282,0-1.0835.2441-1.9277.7305-2.5327s1.127-.9077,1.9209-.9077c.46,0,.8467.0854,1.1621.2573.3154.1709.623.4346.9229.79v-2.5581c0-.3555.0654-.624.1963-.8062.1299-.1821.3154-.2729.5576-.2729.2412,0,.4268.0835.5576.2505.1299.1675.1953.4141.1953.7397v7.6426c0,.3301-.0703.5776-.21.7427-.1406.165-.3213.2471-.543.2471-.2188,0-.3984-.085-.541-.2568-.1416-.1709-.2129-.4155-.2129-.7329ZM290.8794,7.855c0,.4697.0674.8696.2012,1.1997.1348.3301.3184.5786.5518.7456.2344.1675.4893.251.7656.251.2803,0,.5361-.0791.7676-.2383.2314-.1582.417-.4019.5547-.7295.1387-.3281.208-.7378.208-1.2285,0-.4614-.0693-.8579-.208-1.1904-.1377-.332-.3252-.5859-.5605-.7617-.2354-.1753-.4932-.2632-.7734-.2632-.292,0-.5527.0898-.7832.27-.2295.1797-.4072.4375-.5342.7744-.126.3359-.1895.7266-.1895,1.1709Z" style="fill:#221f20; stroke-width:0px;"/><path d="M301.5718,8.293h-3.1182c.0039.3936.0762.7407.2188,1.041.1416.3003.3311.5269.5664.6792s.4951.2285.7793.2285c.1914,0,.3652-.0244.5225-.0732.1582-.0483.3105-.1245.459-.2285.1475-.1035.2842-.2144.4082-.333.125-.1187.2871-.2793.4854-.4824.082-.0762.1982-.1143.3506-.1143.1631,0,.2959.0488.3965.146.1016.0972.1523.2349.1523.4126,0,.1567-.0566.3398-.1699.5488-.1123.21-.2832.4106-.5107.6035-.2275.1924-.5137.3521-.8584.479-.3447.1274-.7402.1899-1.1885.1899-1.0234,0-1.8203-.3169-2.3887-.9517s-.8525-1.4961-.8525-2.5835c0-.5122.0703-.9873.21-1.4248.1406-.4385.3447-.814.6133-1.127s.5996-.5532.9932-.7207c.3936-.167.8291-.2505,1.3076-.2505.623,0,1.1572.1431,1.6035.4282.4453.2861.7793.6553,1.002,1.1079.2217.4526.332.9141.332,1.3838,0,.436-.1143.7183-.3438.8472-.2305.1294-.5537.1938-.9697.1938ZM298.4536,7.3091h2.8906c-.0391-.5923-.1865-1.0356-.4414-1.3301-.2549-.2939-.5908-.4409-1.0068-.4409-.3975,0-.7236.1489-.9785.4478-.2549.2979-.4102.7393-.4639,1.3232Z" style="fill:#221f20; stroke-width:0px;"/><path d="M305.6772,5.3032v.2095c.2803-.4019.5869-.6973.9199-.8853.333-.1885.7158-.2827,1.1475-.2827.4209,0,.7959.0996,1.127.2983s.5781.4805.7422.8442c.1045.2114.1729.4399.2041.6855s.0469.5586.0469.9395v3.2246c0,.3472-.0732.6094-.2188.7871-.1465.1782-.3359.2661-.5693.2661-.2383,0-.4307-.0908-.5781-.2725-.1484-.1821-.2227-.4424-.2227-.7808v-2.8882c0-.5713-.0723-1.0083-.2188-1.3105-.1455-.3027-.4365-.4541-.873-.4541-.2842,0-.543.0918-.7764.2764-.2334.1836-.4053.4365-.5146.7583-.0771.2583-.1162.7407-.1162,1.4473v2.1709c0,.3511-.0752.6147-.2246.7905-.1504.1758-.3438.2627-.5811.2627-.2305,0-.4189-.0908-.5664-.2725-.1484-.1821-.2227-.4424-.2227-.7808v-5.0083c0-.3301.0664-.5767.1992-.7393.1318-.1631.3135-.2446.543-.2446.1396,0,.2666.0361.3789.1079.1133.0718.2041.1797.2725.3237.0674.144.1016.3193.1016.5269Z" style="fill:#221f20; stroke-width:0px;"/><path d="M317.1704,9.2451c0,.2158-.0596.4463-.1787.6919-.1182.2456-.2998.4795-.543.7012-.2432.2227-.5498.4014-.9199.5366s-.7861.2036-1.25.2036c-.9844,0-1.7539-.3125-2.3066-.9365-.5527-.6245-.8291-1.4614-.8291-2.5107,0-.7109.127-1.3394.3799-1.8853s.6191-.9683,1.0977-1.2661c.4795-.2988,1.0518-.4478,1.7168-.4478.4131,0,.792.0654,1.1357.1968.3447.1313.6367.3003.876.5078.2402.2075.4229.4287.5498.6631.126.2354.1895.4541.1895.6572,0,.2075-.0713.3828-.2129.5269-.1426.144-.3145.2158-.5176.2158-.1318,0-.2422-.0371-.3291-.1108-.0879-.0742-.1865-.1938-.2949-.3589-.1953-.3218-.3984-.563-.6104-.7236-.2129-.1606-.4824-.2412-.8096-.2412-.4707,0-.8506.1997-1.1387.6001-.2881.3994-.4316.9468-.4316,1.6406,0,.3257.0371.625.1104.8984.0742.2725.1816.5054.3213.6982.1406.1924.3096.3384.5088.4375.1982.0996.416.1494.6533.1494.3193,0,.5928-.0806.8203-.2412.2285-.1606.4297-.4062.6045-.7363.0977-.1948.2031-.3472.3154-.457.1133-.1099.251-.165.415-.165.1943,0,.3564.0806.4844.2412.1289.1606.1934.332.1934.5142Z" style="fill:#221f20; stroke-width:0px;"/><path d="M323.0103,8.293h-3.1182c.0039.3936.0762.7407.2188,1.041.1416.3003.3311.5269.5664.6792s.4951.2285.7793.2285c.1914,0,.3652-.0244.5225-.0732.1582-.0483.3105-.1245.459-.2285.1475-.1035.2842-.2144.4082-.333.125-.1187.2871-.2793.4854-.4824.082-.0762.1982-.1143.3506-.1143.1631,0,.2959.0488.3965.146.1016.0972.1523.2349.1523.4126,0,.1567-.0566.3398-.1699.5488-.1123.21-.2832.4106-.5107.6035-.2275.1924-.5137.3521-.8584.479-.3447.1274-.7402.1899-1.1885.1899-1.0234,0-1.8203-.3169-2.3887-.9517s-.8525-1.4961-.8525-2.5835c0-.5122.0703-.9873.21-1.4248.1406-.4385.3447-.814.6133-1.127s.5996-.5532.9932-.7207c.3936-.167.8291-.2505,1.3076-.2505.623,0,1.1572.1431,1.6035.4282.4453.2861.7793.6553,1.002,1.1079.2217.4526.332.9141.332,1.3838,0,.436-.1143.7183-.3438.8472-.2305.1294-.5537.1938-.9697.1938ZM319.8921,7.3091h2.8906c-.0391-.5923-.1865-1.0356-.4414-1.3301-.2549-.2939-.5908-.4409-1.0068-.4409-.3975,0-.7236.1489-.9785.4478-.2549.2979-.4102.7393-.4639,1.3232Z" style="fill:#221f20; stroke-width:0px;"/><path d="M364.3862,8.293h-3.1182c.0039.3936.0762.7407.2188,1.041.1416.3003.3311.5269.5664.6792s.4951.2285.7793.2285c.1914,0,.3652-.0244.5225-.0732.1582-.0483.3105-.1245.459-.2285.1475-.1035.2842-.2144.4082-.333.125-.1187.2871-.2793.4854-.4824.082-.0762.1982-.1143.3506-.1143.1631,0,.2959.0488.3965.146.1016.0972.1523.2349.1523.4126,0,.1567-.0566.3398-.1699.5488-.1123.21-.2832.4106-.5107.6035-.2275.1924-.5137.3521-.8584.479-.3447.1274-.7402.1899-1.1885.1899-1.0234,0-1.8203-.3169-2.3887-.9517s-.8525-1.4961-.8525-2.5835c0-.5122.0703-.9873.21-1.4248.1406-.4385.3447-.814.6133-1.127s.5996-.5532.9932-.7207c.3936-.167.8291-.2505,1.3076-.2505.623,0,1.1572.1431,1.6035.4282.4453.2861.7793.6553,1.002,1.1079.2217.4526.332.9141.332,1.3838,0,.436-.1143.7183-.3438.8472-.2305.1294-.5537.1938-.9697.1938ZM361.2681,7.3091h2.8906c-.0391-.5923-.1865-1.0356-.4414-1.3301-.2549-.2939-.5908-.4409-1.0068-.4409-.3975,0-.7236.1489-.9785.4478-.2549.2979-.4102.7393-.4639,1.3232Z" style="fill:#221f20; stroke-width:0px;"/><path d="M371.0728,10.4131c-.3848.3257-.7578.5703-1.1182.7329-.3604.1631-.7637.2441-1.2119.2441-.4082,0-.7676-.0869-1.0771-.2627s-.5479-.4141-.7158-.7144c-.167-.3003-.251-.6265-.251-.9775,0-.4741.1387-.8779.415-1.2124s.6562-.5586,1.1387-.6729c.1016-.0254.3525-.0825.7529-.1714.4014-.0889.7451-.1704,1.0312-.2446.2861-.0737.5967-.1636.9316-.2695-.0195-.457-.1045-.7925-.2539-1.0059-.1504-.2139-.4609-.3208-.9316-.3208-.4053,0-.71.0615-.9141.1841s-.3799.3066-.5254.5522c-.1465.2456-.249.4072-.3096.4858-.0605.0781-.1904.1172-.3887.1172-.1787,0-.334-.0625-.4639-.1875-.1309-.1245-.1963-.2842-.1963-.479,0-.3047.0996-.6011.2979-.8887.1992-.2876.5088-.5249.9287-.7109.4209-.186.9443-.2793,1.5713-.2793.7002,0,1.251.0898,1.6523.27.4014.1797.6846.4644.8496.8535.166.3892.248.9058.248,1.5488,0,.4062-.001.751-.0029,1.0347s-.0049.5986-.0088.9458c0,.3257.0498.6655.1494,1.0186.0996.3535.1484.5811.1484.6826,0,.1777-.0762.3398-.2305.4854-.1533.1465-.3281.2188-.5225.2188-.1631,0-.3252-.083-.4844-.25-.1602-.1675-.3291-.4097-.5088-.7271ZM370.9683,7.9058c-.2334.0933-.5732.1914-1.0195.2949-.4453.104-.7539.1802-.9258.2285-.1709.0488-.335.144-.4902.2861-.1553.1416-.2334.3394-.2334.5933,0,.2622.0918.4858.2744.6694.1826.1846.4219.2764.7178.2764.3154,0,.6064-.0752.873-.2256.2676-.1499.4629-.3438.5869-.5806.1445-.2622.2168-.6938.2168-1.2949v-.2476Z" style="fill:#221f20; stroke-width:0px;"/><path d="M379.2837,9.1245c0,.478-.1074.8877-.3213,1.2285-.2148.3403-.5312.5986-.9492.7744-.4189.1758-.9277.2627-1.5273.2627-.5723,0-1.0625-.0947-1.4717-.2852-.4082-.1904-.71-.4287-.9053-.7139-.1943-.2861-.292-.5728-.292-.8604,0-.1904.0625-.3535.1875-.4888.124-.1353.2822-.2031.4727-.2031.167,0,.2959.0444.3857.1333.0889.0889.1748.2139.2568.3745.1631.3091.3594.5396.5869.6919s.5381.2285.9316.2285c.3193,0,.5811-.0771.7852-.2314.2041-.1548.3066-.3315.3066-.5303,0-.3047-.1064-.5269-.3184-.6665s-.5615-.2729-1.0479-.3999c-.5498-.1479-.9961-.3037-1.3408-.4668-.3447-.1626-.6201-.3774-.8262-.644s-.3096-.5947-.3096-.9839c0-.3472.0957-.6748.2861-.9839s.4717-.5552.8438-.7397c.3721-.1836.8203-.2759,1.3467-.2759.4121,0,.7832.0464,1.1123.1396s.6035.2178.8232.3745.3877.3301.502.5205c.1152.1904.1729.3765.1729.5586,0,.1987-.0615.3618-.1846.4888-.1221.127-.2969.1904-.5225.1904-.1631,0-.3027-.0508-.417-.1523-.1152-.1016-.2471-.2539-.3945-.457-.1211-.1694-.2627-.3047-.4268-.4062-.1631-.1016-.3848-.1523-.665-.1523-.2881,0-.5283.0669-.7188.1997-.1904.1338-.2861.2998-.2861.4985,0,.1821.0703.3311.21.4478.1406.1162.3291.2124.5664.2886.2383.0762.5645.1694.9814.2793.4941.1313.8984.2876,1.2119.4697s.5508.397.7119.644c.1621.248.2432.5303.2432.8477Z" style="fill:#221f20; stroke-width:0px;"/><path d="M385.0825,8.293h-3.1182c.0039.3936.0762.7407.2188,1.041.1416.3003.3311.5269.5664.6792s.4951.2285.7793.2285c.1914,0,.3652-.0244.5225-.0732.1582-.0483.3105-.1245.459-.2285.1475-.1035.2842-.2144.4082-.333.125-.1187.2871-.2793.4854-.4824.082-.0762.1982-.1143.3506-.1143.1631,0,.2959.0488.3965.146.1016.0972.1523.2349.1523.4126,0,.1567-.0566.3398-.1699.5488-.1123.21-.2832.4106-.5107.6035-.2275.1924-.5137.3521-.8584.479-.3447.1274-.7402.1899-1.1885.1899-1.0234,0-1.8203-.3169-2.3887-.9517s-.8525-1.4961-.8525-2.5835c0-.5122.0703-.9873.21-1.4248.1406-.4385.3447-.814.6133-1.127s.5996-.5532.9932-.7207c.3936-.167.8291-.2505,1.3076-.2505.623,0,1.1572.1431,1.6035.4282.4453.2861.7793.6553,1.002,1.1079.2217.4526.332.9141.332,1.3838,0,.436-.1143.7183-.3438.8472-.2305.1294-.5537.1938-.9697.1938ZM381.9644,7.3091h2.8906c-.0391-.5923-.1865-1.0356-.4414-1.3301-.2549-.2939-.5908-.4409-1.0068-.4409-.3975,0-.7236.1489-.9785.4478-.2549.2979-.4102.7393-.4639,1.3232Z" style="fill:#221f20; stroke-width:0px;"/><path d="M214.6782,50.7793v.2095c.2803-.4019.5869-.6973.9199-.8853.333-.1885.7158-.2827,1.1475-.2827.4209,0,.7959.0996,1.127.2983s.5781.4805.7422.8442c.1045.2114.1729.4399.2041.6855s.0469.5586.0469.9395v3.2246c0,.3472-.0732.6094-.2188.7871-.1465.1782-.3359.2661-.5693.2661-.2383,0-.4307-.0908-.5781-.2725-.1484-.1821-.2227-.4424-.2227-.7808v-2.8882c0-.5713-.0723-1.0083-.2188-1.3105-.1455-.3027-.4365-.4541-.873-.4541-.2842,0-.543.0918-.7764.2764-.2334.1836-.4053.4365-.5146.7583-.0771.2583-.1162.7407-.1162,1.4473v2.1709c0,.3511-.0752.6147-.2246.7905-.1504.1758-.3438.2627-.5811.2627-.2305,0-.4189-.0908-.5664-.2725-.1484-.1821-.2227-.4424-.2227-.7808v-5.0083c0-.3301.0664-.5767.1992-.7393.1318-.1631.3135-.2446.543-.2446.1396,0,.2666.0361.3789.1079.1133.0718.2041.1797.2725.3237.0674.144.1016.3193.1016.5269Z" style="fill:#221f20; stroke-width:0px;"/><path d="M224.9038,53.769h-3.1182c.0039.3936.0762.7407.2188,1.041.1416.3003.3311.5269.5664.6792s.4951.2285.7793.2285c.1914,0,.3652-.0244.5225-.0732.1582-.0483.3105-.1245.459-.2285.1475-.1035.2842-.2144.4082-.333.125-.1187.2871-.2793.4854-.4824.082-.0762.1982-.1143.3506-.1143.1631,0,.2959.0488.3965.146.1016.0972.1523.2349.1523.4126,0,.1567-.0566.3398-.1699.5488-.1123.21-.2832.4106-.5107.6035-.2275.1924-.5137.3521-.8584.479-.3447.1274-.7402.1899-1.1885.1899-1.0234,0-1.8203-.3169-2.3887-.9517s-.8525-1.4961-.8525-2.5835c0-.5122.0703-.9873.21-1.4248.1406-.4385.3447-.814.6133-1.127s.5996-.5532.9932-.7207c.3936-.167.8291-.2505,1.3076-.2505.623,0,1.1572.1431,1.6035.4282.4453.2861.7793.6553,1.002,1.1079.2217.4526.332.9141.332,1.3838,0,.436-.1143.7183-.3438.8472-.2305.1294-.5537.1938-.9697.1938ZM221.7856,52.7852h2.8906c-.0391-.5923-.1865-1.0356-.4414-1.3301-.2549-.2939-.5908-.4409-1.0068-.4409-.3975,0-.7236.1489-.9785.4478-.2549.2979-.4102.7393-.4639,1.3232Z" style="fill:#221f20; stroke-width:0px;"/><path d="M228.396,50.8999l1.0391,3.8721.9463-3.5991c.1016-.3765.1758-.6338.2246-.7715.0488-.1372.1406-.2686.2744-.3936.1348-.1245.3184-.187.5518-.187.2383,0,.4238.0625.5576.187.1348.125.2295.2607.2832.4062.0547.1465.1309.3989.2285.7588l.9453,3.5991,1.0518-3.8721c.0703-.2793.126-.4814.1689-.606.043-.125.1152-.2354.2168-.3301.1006-.0957.2471-.1431.4375-.1431s.3564.0718.4961.2158c.1406.144.2109.313.2109.5078,0,.1777-.0605.4463-.1816.8062l-1.3018,4.1514c-.1133.3511-.2012.605-.2627.7617-.0625.1567-.1611.2964-.2949.4189-.1348.123-.3184.1836-.5518.1836-.2422,0-.4316-.0654-.5703-.1963-.1377-.1313-.2402-.292-.3057-.4824-.0664-.1904-.1387-.438-.2168-.7427l-.9111-3.377-.8818,3.377c-.1162.4697-.2432.8242-.3789,1.063-.1367.2393-.376.3584-.7188.3584-.1748,0-.3242-.0361-.4463-.1104-.123-.0742-.2256-.1802-.3066-.3174-.082-.1377-.1543-.3008-.2168-.4893-.0615-.188-.1104-.3374-.1455-.4473l-1.291-4.1514c-.1279-.3892-.1924-.6582-.1924-.8062,0-.186.0684-.3535.2041-.5015.1367-.1479.3037-.2222.5029-.2222.2646,0,.4434.0815.5371.2446.0928.1626.1924.4409.2979.8345Z" style="fill:#221f20; stroke-width:0px;"/><path d="M241.5884,50.792v.2095c.2998-.4019.6113-.6973.9346-.8853.3232-.1885.6895-.2827,1.0977-.2827.4902,0,.9424.1377,1.3555.4126.4121.2749.7383.6772.9775,1.2061s.3594,1.1553.3594,1.8789c0,.5332-.0693,1.0229-.207,1.4697-.1387.4463-.3281.8208-.5693,1.123-.2422.3027-.5273.5356-.8555.6982-.3291.1631-.6826.2441-1.0605.2441-.4551,0-.8379-.0986-1.1475-.2979-.3096-.1987-.6045-.4907-.8848-.876v2.6025c0,.7617-.2549,1.1426-.7646,1.1426-.2998,0-.499-.0986-.5957-.2949-.0977-.1973-.1465-.4834-.1465-.8604v-7.4775c0-.3301.0664-.5767.1992-.7393.1318-.1631.3125-.2446.543-.2446.2256,0,.4092.0835.5518.2505.1416.1675.2129.4077.2129.7207ZM244.7124,53.312c0-.457-.0635-.8496-.1924-1.1772-.1279-.3281-.3066-.5801-.5342-.7559-.2275-.1753-.4795-.2632-.7559-.2632-.4404,0-.8115.1885-1.1133.5649s-.4521.9312-.4521,1.6631c0,.6899.1494,1.2261.4492,1.6094.2998.3828.6719.5742,1.1162.5742.2646,0,.5098-.0835.7354-.251.2256-.167.4072-.4175.543-.752.1367-.3345.2041-.7383.2041-1.2124Z" style="fill:#221f20; stroke-width:0px;"/><path d="M252.0415,53.769h-3.1182c.0039.3936.0762.7407.2188,1.041.1416.3003.3311.5269.5664.6792s.4951.2285.7793.2285c.1914,0,.3652-.0244.5225-.0732.1582-.0483.3105-.1245.459-.2285.1475-.1035.2842-.2144.4082-.333.125-.1187.2871-.2793.4854-.4824.082-.0762.1982-.1143.3506-.1143.1631,0,.2959.0488.3965.146.1016.0972.1523.2349.1523.4126,0,.1567-.0566.3398-.1699.5488-.1123.21-.2832.4106-.5107.6035-.2275.1924-.5137.3521-.8584.479-.3447.1274-.7402.1899-1.1885.1899-1.0234,0-1.8203-.3169-2.3887-.9517s-.8525-1.4961-.8525-2.5835c0-.5122.0703-.9873.21-1.4248.1406-.4385.3447-.814.6133-1.127s.5996-.5532.9932-.7207c.3936-.167.8291-.2505,1.3076-.2505.623,0,1.1572.1431,1.6035.4282.4453.2861.7793.6553,1.002,1.1079.2217.4526.332.9141.332,1.3838,0,.436-.1143.7183-.3438.8472-.2305.1294-.5537.1938-.9697.1938ZM248.9233,52.7852h2.8906c-.0391-.5923-.1865-1.0356-.4414-1.3301-.2549-.2939-.5908-.4409-1.0068-.4409-.3975,0-.7236.1489-.9785.4478-.2549.2979-.4102.7393-.4639,1.3232Z" style="fill:#221f20; stroke-width:0px;"/><path d="M256.2817,54.3657v1.4473c0,.3511-.0762.6147-.2275.7905-.1523.1758-.3447.2627-.5781.2627-.2305,0-.4189-.0879-.5674-.2661-.1475-.1777-.2217-.4399-.2217-.7871v-4.8242c0-.7788.2588-1.168.7773-1.168.2646,0,.4551.0908.5723.2729.1162.1821.1807.4507.1924.8062.1904-.3555.3867-.624.5869-.8062s.4678-.2729.8027-.2729.6602.0908.9756.2729.4727.4233.4727.7236c0,.2114-.0674.3862-.2012.5234-.1348.1377-.2793.2065-.4355.2065-.0576,0-.1992-.0391-.4229-.1177-.2236-.0781-.4219-.1172-.5928-.1172-.2334,0-.4248.0664-.5723.2002-.1484.1328-.2627.3311-.3447.5933s-.1387.5747-.1689.936c-.0312.3623-.0469.8032-.0469,1.3237Z" style="fill:#221f20; stroke-width:0px;"/><path d="M264.7729,54.6006c0,.478-.1074.8877-.3213,1.2285-.2148.3403-.5312.5986-.9492.7744-.4189.1758-.9277.2627-1.5273.2627-.5723,0-1.0625-.0947-1.4717-.2852-.4082-.1904-.71-.4287-.9053-.7139-.1943-.2861-.292-.5728-.292-.8604,0-.1904.0625-.3535.1875-.4888.124-.1353.2822-.2031.4727-.2031.167,0,.2959.0444.3857.1333.0889.0889.1748.2139.2568.3745.1631.3091.3594.5396.5869.6919s.5381.2285.9316.2285c.3193,0,.5811-.0771.7852-.2314.2041-.1548.3066-.3315.3066-.5303,0-.3047-.1064-.5269-.3184-.6665s-.5615-.2729-1.0479-.3999c-.5498-.1479-.9961-.3037-1.3408-.4668-.3447-.1626-.6201-.3774-.8262-.644s-.3096-.5947-.3096-.9839c0-.3472.0957-.6748.2861-.9839s.4717-.5552.8438-.7397c.3721-.1836.8203-.2759,1.3467-.2759.4121,0,.7832.0464,1.1123.1396s.6035.2178.8232.3745.3877.3301.502.5205c.1152.1904.1729.3765.1729.5586,0,.1987-.0615.3618-.1846.4888-.1221.127-.2969.1904-.5225.1904-.1631,0-.3027-.0508-.417-.1523-.1152-.1016-.2471-.2539-.3945-.457-.1211-.1694-.2627-.3047-.4268-.4062-.1631-.1016-.3848-.1523-.665-.1523-.2881,0-.5283.0669-.7188.1997-.1904.1338-.2861.2998-.2861.4985,0,.1821.0703.3311.21.4478.1406.1162.3291.2124.5664.2886.2383.0762.5645.1694.9814.2793.4941.1313.8984.2876,1.2119.4697s.5508.397.7119.644c.1621.248.2432.5303.2432.8477Z" style="fill:#221f20; stroke-width:0px;"/><path d="M267.5933,50.792v.2095c.2998-.4019.6113-.6973.9346-.8853.3232-.1885.6895-.2827,1.0977-.2827.4902,0,.9424.1377,1.3555.4126.4121.2749.7383.6772.9775,1.2061s.3594,1.1553.3594,1.8789c0,.5332-.0693,1.0229-.207,1.4697-.1387.4463-.3281.8208-.5693,1.123-.2422.3027-.5273.5356-.8555.6982-.3291.1631-.6826.2441-1.0605.2441-.4551,0-.8379-.0986-1.1475-.2979-.3096-.1987-.6045-.4907-.8848-.876v2.6025c0,.7617-.2549,1.1426-.7646,1.1426-.2998,0-.499-.0986-.5957-.2949-.0977-.1973-.1465-.4834-.1465-.8604v-7.4775c0-.3301.0664-.5767.1992-.7393.1318-.1631.3125-.2446.543-.2446.2256,0,.4092.0835.5518.2505.1416.1675.2129.4077.2129.7207ZM270.7173,53.312c0-.457-.0635-.8496-.1924-1.1772-.1279-.3281-.3066-.5801-.5342-.7559-.2275-.1753-.4795-.2632-.7559-.2632-.4404,0-.8115.1885-1.1133.5649s-.4521.9312-.4521,1.6631c0,.6899.1494,1.2261.4492,1.6094.2998.3828.6719.5742,1.1162.5742.2646,0,.5098-.0835.7354-.251.2256-.167.4072-.4175.543-.752.1367-.3345.2041-.7383.2041-1.2124Z" style="fill:#221f20; stroke-width:0px;"/><path d="M278.0464,53.769h-3.1182c.0039.3936.0762.7407.2188,1.041.1416.3003.3311.5269.5664.6792s.4951.2285.7793.2285c.1914,0,.3652-.0244.5225-.0732.1582-.0483.3105-.1245.459-.2285.1475-.1035.2842-.2144.4082-.333.125-.1187.2871-.2793.4854-.4824.082-.0762.1982-.1143.3506-.1143.1631,0,.2959.0488.3965.146.1016.0972.1523.2349.1523.4126,0,.1567-.0566.3398-.1699.5488-.1123.21-.2832.4106-.5107.6035-.2275.1924-.5137.3521-.8584.479-.3447.1274-.7402.1899-1.1885.1899-1.0234,0-1.8203-.3169-2.3887-.9517s-.8525-1.4961-.8525-2.5835c0-.5122.0703-.9873.21-1.4248.1406-.4385.3447-.814.6133-1.127s.5996-.5532.9932-.7207c.3936-.167.8291-.2505,1.3076-.2505.623,0,1.1572.1431,1.6035.4282.4453.2861.7793.6553,1.002,1.1079.2217.4526.332.9141.332,1.3838,0,.436-.1143.7183-.3438.8472-.2305.1294-.5537.1938-.9697.1938ZM274.9282,52.7852h2.8906c-.0391-.5923-.1865-1.0356-.4414-1.3301-.2549-.2939-.5908-.4409-1.0068-.4409-.3975,0-.7236.1489-.9785.4478-.2549.2979-.4102.7393-.4639,1.3232Z" style="fill:#221f20; stroke-width:0px;"/><path d="M286.4214,54.7212c0,.2158-.0596.4463-.1787.6919-.1182.2456-.2998.4795-.543.7012-.2432.2227-.5498.4014-.9199.5366s-.7861.2036-1.25.2036c-.9844,0-1.7539-.3125-2.3066-.9365-.5527-.6245-.8291-1.4614-.8291-2.5107,0-.7109.127-1.3394.3799-1.8853s.6191-.9683,1.0977-1.2661c.4795-.2988,1.0518-.4478,1.7168-.4478.4131,0,.792.0654,1.1357.1968.3447.1313.6367.3003.876.5078.2402.2075.4229.4287.5498.6631.126.2354.1895.4541.1895.6572,0,.2075-.0713.3828-.2129.5269-.1426.144-.3145.2158-.5176.2158-.1318,0-.2422-.0371-.3291-.1108-.0879-.0742-.1865-.1938-.2949-.3589-.1953-.3218-.3984-.563-.6104-.7236-.2129-.1606-.4824-.2412-.8096-.2412-.4707,0-.8506.1997-1.1387.6001-.2881.3994-.4316.9468-.4316,1.6406,0,.3257.0371.625.1104.8984.0742.2725.1816.5054.3213.6982.1406.1924.3096.3384.5088.4375.1982.0996.416.1494.6533.1494.3193,0,.5928-.0806.8203-.2412.2285-.1606.4297-.4062.6045-.7363.0977-.1948.2031-.3472.3154-.457.1133-.1099.251-.165.415-.165.1943,0,.3564.0806.4844.2412.1289.1606.1934.332.1934.5142Z" style="fill:#221f20; stroke-width:0px;"/><path d="M287.8989,49.9731h.1748v-1.041c0-.2793.0068-.4985.0205-.6567.0137-.1592.0518-.2954.1143-.4097.0625-.1187.1514-.2148.2686-.2886.1162-.0742.2471-.1113.3916-.1113.2021,0,.3848.0825.5488.2476.1084.1099.1777.2446.207.4028.0293.1592.0439.3843.0439.6763v1.1807h.584c.2256,0,.3975.0581.5166.1743.1191.1167.1777.2656.1777.4478,0,.2329-.084.3955-.2539.4888-.1689.0933-.4111.1396-.7266.1396h-.2979v3.1865c0,.271.0088.4795.0264.625.0176.1465.0645.2646.1396.3555.0762.0913.2002.1367.3711.1367.0938,0,.2197-.0181.3799-.0537.1592-.0361.2842-.0542.373-.0542.1289,0,.2451.0562.3477.1685.1035.1118.1553.2505.1553.4155,0,.2793-.1406.4932-.4209.6411-.2803.1484-.6836.2217-1.209.2217-.498,0-.876-.0908-1.1328-.2725-.2568-.1821-.4248-.4336-.5049-.7554s-.1201-.751-.1201-1.2886v-3.3262h-.21c-.2295,0-.4053-.0591-.5254-.1777-.1211-.1187-.1816-.2686-.1816-.4507s.0635-.3311.1904-.4478c.126-.1162.3105-.1743.5518-.1743Z" style="fill:#221f20; stroke-width:0px;"/><path d="M292.8501,49.0146c-.2217,0-.4111-.0742-.5693-.2222-.1572-.1479-.2363-.3574-.2363-.6284,0-.2456.0811-.4473.2422-.6064.1621-.1582.3496-.2378.5635-.2378.207,0,.3896.0718.5498.2158.1592.144.2393.3535.2393.6284,0,.2666-.0781.4751-.2334.625-.1562.1504-.3408.2256-.5557.2256ZM293.6392,50.8047v5.0083c0,.3472-.0762.6094-.2285.7871-.1514.1782-.3438.2661-.5781.2661-.2334,0-.4229-.0908-.5693-.2725-.1455-.1821-.2188-.4424-.2188-.7808v-4.9575c0-.3428.0732-.6011.2188-.7744.1465-.1733.3359-.2603.5693-.2603.2344,0,.4268.0869.5781.2603.1523.1733.2285.4146.2285.7236Z" style="fill:#221f20; stroke-width:0px;"/><path d="M296.4126,50.8999l1.291,3.9355,1.3896-4.1069c.1094-.3301.2158-.564.3213-.7012.1055-.1377.2646-.2065.4785-.2065.2031,0,.375.0742.5176.2222.1416.1479.2129.3193.2129.5142,0,.0762-.0127.165-.0381.2666s-.0547.1968-.0879.2856-.0703.1904-.1133.3047l-1.5303,4.126c-.043.1187-.0986.2686-.166.4507-.0684.1821-.1445.3374-.2285.4663-.083.1294-.1865.23-.3096.3018-.1221.0723-.2715.1074-.4463.1074-.2256,0-.4062-.0557-.54-.168-.1348-.1118-.2334-.2344-.2979-.3682-.0645-.1328-.1729-.3965-.3242-.79l-1.5186-4.0815c-.0352-.1016-.0713-.2031-.1084-.3047-.0361-.1016-.0674-.2051-.0928-.311s-.0381-.1968-.0381-.2729c0-.1187.0332-.2358.0996-.3521.0654-.1167.1572-.2119.2744-.2861.1162-.0737.2432-.1108.3789-.1108.2646,0,.4473.0825.5459.2476.0996.165.21.4424.3301.8315Z" style="fill:#221f20; stroke-width:0px;"/><path d="M306.0601,53.769h-3.1182c.0039.3936.0762.7407.2188,1.041.1416.3003.3311.5269.5664.6792s.4951.2285.7793.2285c.1914,0,.3652-.0244.5225-.0732.1582-.0483.3105-.1245.459-.2285.1475-.1035.2842-.2144.4082-.333.125-.1187.2871-.2793.4854-.4824.082-.0762.1982-.1143.3506-.1143.1631,0,.2959.0488.3965.146.1016.0972.1523.2349.1523.4126,0,.1567-.0566.3398-.1699.5488-.1123.21-.2832.4106-.5107.6035-.2275.1924-.5137.3521-.8584.479-.3447.1274-.7402.1899-1.1885.1899-1.0234,0-1.8203-.3169-2.3887-.9517s-.8525-1.4961-.8525-2.5835c0-.5122.0703-.9873.21-1.4248.1406-.4385.3447-.814.6133-1.127s.5996-.5532.9932-.7207c.3936-.167.8291-.2505,1.3076-.2505.623,0,1.1572.1431,1.6035.4282.4453.2861.7793.6553,1.002,1.1079.2217.4526.332.9141.332,1.3838,0,.436-.1143.7183-.3438.8472-.2305.1294-.5537.1938-.9697.1938ZM302.9419,52.7852h2.8906c-.0391-.5923-.1865-1.0356-.4414-1.3301-.2549-.2939-.5908-.4409-1.0068-.4409-.3975,0-.7236.1489-.9785.4478-.2549.2979-.4102.7393-.4639,1.3232Z" style="fill:#221f20; stroke-width:0px;"/><path d="M105.248,55.877v-.1714c-.2139.2666-.4248.4834-.6338.6504-.208.1675-.4336.2944-.6768.3809-.2432.0869-.5098.1299-.7979.1299-.3809,0-.7344-.0869-1.0596-.2627s-.6064-.4268-.8438-.7524-.418-.709-.54-1.1489c-.123-.4399-.1846-.916-.1846-1.4282,0-1.0835.2441-1.9277.7305-2.5327s1.127-.9077,1.9209-.9077c.46,0,.8467.0854,1.1621.2573.3154.1709.623.4346.9229.79v-2.5581c0-.3555.0654-.624.1963-.8062.1299-.1821.3154-.2729.5576-.2729.2412,0,.4268.0835.5576.2505.1299.1675.1953.4141.1953.7397v7.6426c0,.3301-.0703.5776-.21.7427-.1406.165-.3213.2471-.543.2471-.2188,0-.3984-.085-.541-.2568-.1416-.1709-.2129-.4155-.2129-.7329ZM102.1123,53.3315c0,.4697.0674.8696.2012,1.1997.1348.3301.3184.5786.5518.7456.2344.1675.4893.251.7656.251.2803,0,.5361-.0791.7676-.2383.2314-.1582.417-.4019.5547-.7295.1387-.3281.208-.7378.208-1.2285,0-.4614-.0693-.8579-.208-1.1904-.1377-.332-.3252-.5859-.5605-.7617-.2354-.1753-.4932-.2632-.7734-.2632-.292,0-.5527.0898-.7832.27-.2295.1797-.4072.4375-.5342.7744-.126.3359-.1895.7266-.1895,1.1709Z" style="fill:#221f20; stroke-width:0px;"/><path d="M109.1602,49.0151c-.2217,0-.4111-.0742-.5693-.2222-.1572-.1479-.2363-.3574-.2363-.6284,0-.2456.0811-.4473.2422-.6064.1621-.1582.3496-.2378.5635-.2378.207,0,.3896.0718.5498.2158.1592.144.2393.3535.2393.6284,0,.2666-.0781.4751-.2334.625-.1562.1504-.3408.2256-.5557.2256ZM109.9492,50.8052v5.0083c0,.3472-.0762.6094-.2285.7871-.1514.1782-.3438.2661-.5781.2661-.2334,0-.4229-.0908-.5693-.2725-.1455-.1821-.2188-.4424-.2188-.7808v-4.9575c0-.3428.0732-.6011.2188-.7744.1465-.1733.3359-.2603.5693-.2603.2344,0,.4268.0869.5781.2603.1523.1733.2285.4146.2285.7236Z" style="fill:#221f20; stroke-width:0px;"/><path d="M116.7295,54.6011c0,.478-.1074.8877-.3213,1.2285-.2148.3403-.5312.5986-.9492.7744-.4189.1758-.9277.2627-1.5273.2627-.5723,0-1.0625-.0947-1.4717-.2852-.4082-.1904-.71-.4287-.9053-.7139-.1943-.2861-.292-.5728-.292-.8604,0-.1904.0625-.3535.1875-.4888.124-.1353.2822-.2031.4727-.2031.167,0,.2959.0444.3857.1333.0889.0889.1748.2139.2568.3745.1631.3091.3594.5396.5869.6919s.5381.2285.9316.2285c.3193,0,.5811-.0771.7852-.2314.2041-.1548.3066-.3315.3066-.5303,0-.3047-.1064-.5269-.3184-.6665s-.5615-.2729-1.0479-.3999c-.5498-.1479-.9961-.3037-1.3408-.4668-.3447-.1626-.6201-.3774-.8262-.644s-.3096-.5947-.3096-.9839c0-.3472.0957-.6748.2861-.9839s.4717-.5552.8438-.7397c.3721-.1836.8203-.2759,1.3467-.2759.4121,0,.7832.0464,1.1123.1396s.6035.2178.8232.3745.3877.3301.502.5205c.1152.1904.1729.3765.1729.5586,0,.1987-.0615.3618-.1846.4888-.1221.127-.2969.1904-.5225.1904-.1631,0-.3027-.0508-.417-.1523-.1152-.1016-.2471-.2539-.3945-.457-.1211-.1694-.2627-.3047-.4268-.4062-.1631-.1016-.3848-.1523-.665-.1523-.2881,0-.5283.0669-.7188.1997-.1904.1338-.2861.2998-.2861.4985,0,.1821.0703.3311.21.4478.1406.1162.3291.2124.5664.2886.2383.0762.5645.1694.9814.2793.4941.1313.8984.2876,1.2119.4697s.5508.397.7119.644c.1621.248.2432.5303.2432.8477Z" style="fill:#221f20; stroke-width:0px;"/><path d="M123.7959,54.7217c0,.2158-.0596.4463-.1787.6919-.1182.2456-.2998.4795-.543.7012-.2432.2227-.5498.4014-.9199.5366s-.7861.2036-1.25.2036c-.9844,0-1.7539-.3125-2.3066-.9365-.5527-.6245-.8291-1.4614-.8291-2.5107,0-.7109.127-1.3394.3799-1.8853s.6191-.9683,1.0977-1.2661c.4795-.2988,1.0518-.4478,1.7168-.4478.4131,0,.792.0654,1.1357.1968.3447.1313.6367.3003.876.5078.2402.2075.4229.4287.5498.6631.126.2354.1895.4541.1895.6572,0,.2075-.0713.3828-.2129.5269-.1426.144-.3145.2158-.5176.2158-.1318,0-.2422-.0371-.3291-.1108-.0879-.0742-.1865-.1938-.2949-.3589-.1953-.3218-.3984-.563-.6104-.7236-.2129-.1606-.4824-.2412-.8096-.2412-.4707,0-.8506.1997-1.1387.6001-.2881.3994-.4316.9468-.4316,1.6406,0,.3257.0371.625.1104.8984.0742.2725.1816.5054.3213.6982.1406.1924.3096.3384.5088.4375.1982.0996.416.1494.6533.1494.3193,0,.5928-.0806.8203-.2412.2285-.1606.4297-.4062.6045-.7363.0977-.1948.2031-.3472.3154-.457.1133-.1099.251-.165.415-.165.1943,0,.3564.0806.4844.2412.1289.1606.1934.332.1934.5142Z" style="fill:#221f20; stroke-width:0px;"/><path d="M131.1543,53.3442c0,.5161-.0742.9922-.2227,1.4282-.1475.436-.3613.8105-.6416,1.1235s-.6152.5532-1.0049.7207c-.3896.167-.8271.25-1.3135.25-.4834,0-.917-.084-1.3027-.2534s-.7188-.4116-1.001-.7271c-.2832-.3149-.4971-.6875-.6426-1.1172-.1465-.4292-.2197-.9043-.2197-1.4248,0-.5249.0742-1.0049.2227-1.4409.1475-.436.3594-.8081.6367-1.1172.2764-.3091.6104-.5469,1.0039-.7144.3936-.167.8271-.2505,1.3027-.2505.4824,0,.9199.0845,1.3135.2539s.7305.4106,1.0107.7236.4932.6855.6387,1.1172c.1465.4316.2197.9077.2197,1.4282ZM129.5537,53.3442c0-.7065-.1426-1.2568-.4287-1.6504s-.6709-.5903-1.1533-.5903c-.3115,0-.5859.0879-.8242.2632-.2373.1758-.4199.4351-.5488.7778-.1279.3428-.1924.7427-.1924,1.1997,0,.4526.0635.8486.1895,1.187.127.3384.3076.5977.543.7778.2363.1797.5137.2695.833.2695.4824,0,.8672-.1978,1.1533-.5938.2861-.3955.4287-.9424.4287-1.6406Z" style="fill:#221f20; stroke-width:0px;"/><path d="M137.7119,53.4712v2.3042c0,.3638-.0762.6367-.2275.8188-.1523.1816-.3525.2725-.6016.2725-.2412,0-.4375-.0908-.5869-.2725-.1504-.1821-.2246-.4551-.2246-.8188v-2.7612c0-.436-.0137-.7744-.041-1.0156s-.1016-.439-.2217-.5938c-.1211-.1543-.3115-.2314-.5732-.2314-.5215,0-.8652.1948-1.0303.584s-.248.9478-.248,1.6758v2.3423c0,.3599-.0752.6313-.2246.8159-.1504.1836-.3477.2754-.5928.2754-.2422,0-.4395-.0918-.5928-.2754-.1543-.1846-.2314-.4561-.2314-.8159v-4.9575c0-.3257.0693-.5732.208-.7427.1377-.1694.3203-.2539.5459-.2539.2178,0,.4004.0796.5459.2378.1465.1592.2188.3779.2188.6572v.165c.2764-.3599.5723-.624.8877-.7935s.666-.2539,1.0518-.2539c.4004,0,.7451.0869,1.0332.2603s.5254.436.7129.7871c.2686-.3555.5566-.6191.8643-.79.3076-.1719.6475-.2573,1.0215-.2573.4365,0,.8115.0933,1.127.2793s.5508.4526.707.7998c.1357.313.2041.8062.2041,1.479v3.3833c0,.3638-.0762.6367-.2275.8188-.1514.1816-.3525.2725-.6016.2725-.2412,0-.4385-.0918-.5928-.2754-.1533-.1846-.2305-.4561-.2305-.8159v-2.9136c0-.3726-.0146-.6709-.0439-.895s-.1084-.4126-.2363-.5649c-.1289-.1523-.3232-.2285-.584-.2285-.21,0-.4102.0679-.5986.2031-.1895.1353-.3359.3174-.4414.5459-.1162.292-.1748.8081-.1748,1.5488Z" style="fill:#221f20; stroke-width:0px;"/><path d="M142.8633,49.9736h.3789v-.5205c0-.5415.0635-.9722.1904-1.2915.126-.3198.3398-.5527.6416-.6982.3018-.1465.7158-.2192,1.2412-.2192.9307,0,1.3955.2476,1.3955.7427,0,.1606-.0479.2983-.1455.4126s-.2119.1714-.3447.1714c-.0625,0-.1689-.0127-.3213-.0381-.1514-.0254-.2803-.0381-.3848-.0381-.2891,0-.4736.0918-.5557.2764-.0811.1836-.1221.4473-.1221.79v.4126h.3916c.6064,0,.9102.1987.9102.5967,0,.2837-.0801.4634-.2422.5396-.1611.0762-.3848.1143-.668.1143h-.3916v4.5894c0,.3428-.0752.604-.2246.7837-.1504.1797-.3438.2695-.5811.2695-.2266,0-.4141-.0898-.5635-.2695-.1504-.1797-.2256-.4409-.2256-.7837v-4.5894h-.4375c-.2373,0-.4209-.0581-.5488-.1748-.1289-.1162-.1934-.2676-.1934-.4536,0-.4146.2666-.6221.8008-.6221Z" style="fill:#221f20; stroke-width:0px;"/><path d="M152.7852,53.3442c0,.5161-.0742.9922-.2227,1.4282-.1475.436-.3613.8105-.6416,1.1235s-.6152.5532-1.0049.7207c-.3896.167-.8271.25-1.3135.25-.4834,0-.917-.084-1.3027-.2534s-.7188-.4116-1.001-.7271c-.2832-.3149-.4971-.6875-.6426-1.1172-.1465-.4292-.2197-.9043-.2197-1.4248,0-.5249.0742-1.0049.2227-1.4409.1475-.436.3594-.8081.6367-1.1172.2764-.3091.6104-.5469,1.0039-.7144.3936-.167.8271-.2505,1.3027-.2505.4824,0,.9199.0845,1.3135.2539s.7305.4106,1.0107.7236.4932.6855.6387,1.1172c.1465.4316.2197.9077.2197,1.4282ZM151.1846,53.3442c0-.7065-.1426-1.2568-.4287-1.6504s-.6709-.5903-1.1533-.5903c-.3115,0-.5859.0879-.8242.2632-.2373.1758-.4199.4351-.5488.7778-.1279.3428-.1924.7427-.1924,1.1997,0,.4526.0635.8486.1895,1.187.127.3384.3076.5977.543.7778.2363.1797.5137.2695.833.2695.4824,0,.8672-.1978,1.1533-.5938.2861-.3955.4287-.9424.4287-1.6406Z" style="fill:#221f20; stroke-width:0px;"/><path d="M155.623,54.3662v1.4473c0,.3511-.0762.6147-.2275.7905-.1523.1758-.3447.2627-.5781.2627-.2305,0-.4189-.0879-.5674-.2661-.1475-.1777-.2217-.4399-.2217-.7871v-4.8242c0-.7788.2588-1.168.7773-1.168.2646,0,.4551.0908.5723.2729.1162.1821.1807.4507.1924.8062.1904-.3555.3867-.624.5869-.8062s.4678-.2729.8027-.2729.6602.0908.9756.2729.4727.4233.4727.7236c0,.2114-.0674.3862-.2012.5234-.1348.1377-.2793.2065-.4355.2065-.0576,0-.1992-.0391-.4229-.1177-.2236-.0781-.4219-.1172-.5928-.1172-.2334,0-.4248.0664-.5723.2002-.1484.1328-.2627.3311-.3447.5933s-.1387.5747-.1689.936c-.0312.3623-.0469.8032-.0469,1.3237Z" style="fill:#221f20; stroke-width:0px;"/><path d="M159.5117,49.9736h.1748v-1.041c0-.2793.0068-.4985.0205-.6567.0137-.1592.0518-.2954.1143-.4097.0625-.1187.1514-.2148.2686-.2886.1162-.0742.2471-.1113.3916-.1113.2021,0,.3848.0825.5488.2476.1084.1099.1777.2446.207.4028.0293.1592.0439.3843.0439.6763v1.1807h.584c.2256,0,.3975.0581.5166.1743.1191.1167.1777.2656.1777.4478,0,.2329-.084.3955-.2539.4888-.1689.0933-.4111.1396-.7266.1396h-.2979v3.1865c0,.271.0088.4795.0264.625.0176.1465.0645.2646.1396.3555.0762.0913.2002.1367.3711.1367.0938,0,.2197-.0181.3799-.0537.1592-.0361.2842-.0542.373-.0542.1289,0,.2451.0562.3477.1685.1035.1118.1553.2505.1553.4155,0,.2793-.1406.4932-.4209.6411-.2803.1484-.6836.2217-1.209.2217-.498,0-.876-.0908-1.1328-.2725-.2568-.1821-.4248-.4336-.5049-.7554s-.1201-.751-.1201-1.2886v-3.3262h-.21c-.2295,0-.4053-.0591-.5254-.1777-.1211-.1187-.1816-.2686-.1816-.4507s.0635-.3311.1904-.4478c.126-.1162.3105-.1743.5518-.1743Z" style="fill:#221f20; stroke-width:0px;"/><line x1="61.7348" y1="6.9871" x2="73.8296" y2="6.9871" style="fill:none; stroke:#4d97ff; stroke-miterlimit:10;"/><polygon points="71.021 10.6902 72.5942 6.9871 71.021 3.2839 79.7993 6.9871 71.021 10.6902" style="fill:#4d97ff; stroke-width:0px;"/><line x1="153.6463" y1="6.9871" x2="165.7411" y2="6.9871" style="fill:none; stroke:#4d97ff; stroke-miterlimit:10;"/><polygon points="162.9325 10.6902 164.5057 6.9871 162.9325 3.2839 171.7108 6.9871 162.9325 10.6902" style="fill:#4d97ff; stroke-width:0px;"/><line x1="233.7326" y1="6.9871" x2="245.8274" y2="6.9871" style="fill:none; stroke:#4d97ff; stroke-miterlimit:10;"/><polygon points="243.0188 10.6902 244.592 6.9871 243.0188 3.2839 251.7971 6.9871 243.0188 10.6902" style="fill:#4d97ff; stroke-width:0px;"/><line x1="332.9463" y1="6.9871" x2="345.0411" y2="6.9871" style="fill:none; stroke:#4d97ff; stroke-miterlimit:10;"/><polygon points="342.2325 10.6902 343.8058 6.9871 342.2325 3.2839 351.0108 6.9871 342.2325 10.6902" style="fill:#4d97ff; stroke-width:0px;"/><line x1="206.8097" y1="52.4634" x2="174.6391" y2="52.4634" style="fill:none; stroke:#4d97ff; stroke-miterlimit:10;"/><polygon points="177.4477 48.7603 175.8744 52.4634 177.4477 56.1665 168.6693 52.4634 177.4477 48.7603" style="fill:#4d97ff; stroke-width:0px;"/><path d="M374.5041,13.9612c0,17.8802-20.0239,35.4476-53.4343,37.326" style="fill:none; stroke:#4d97ff; stroke-miterlimit:10;"/><polygon points="323.754 47.465 322.3025 51.2175 323.9958 54.8673 315.1013 51.4527 323.754 47.465" style="fill:#4d97ff; stroke-width:0px;"/><path d="M34.8894,19.8875c4.136,16.689,25.5726,31.5652,58.6706,31.5652" style="fill:none; stroke:#4d97ff; stroke-miterlimit:10;"/><polygon points="31.7369 23.1761 35.1794 21.0934 39.0683 22.1254 34.1572 13.9612 31.7369 23.1761" style="fill:#4d97ff; stroke-width:0px;"/></svg>