<?xml version="1.0" encoding="utf-8"?>
<!-- Generator: Adobe Illustrator 28.1.0, SVG Export Plug-In . SVG Version: 6.00 Build 0)  -->
<svg version="1.1" id="Layer_1" xmlns="http://www.w3.org/2000/svg" xmlns:xlink="http://www.w3.org/1999/xlink" x="0px" y="0px"
	 viewBox="0 0 320.69 271.9" style="enable-background:new 0 0 320.69 271.9;" xml:space="preserve">
<style type="text/css">
	.st0{fill:#79008A;}
	.st1{fill:#733C00;}
	.st2{fill:#004040;}
	.st3{fill:none;stroke:#ABABAB;stroke-linecap:round;stroke-miterlimit:10;}
	.st4{fill:#ABABAB;}
	.st5{fill:#FFFFFF;}
	.st6{fill:none;stroke:#D000EC;stroke-miterlimit:10;}
	.st7{fill:#D000EC;}
	.st8{fill:none;stroke:#EC7B00;stroke-miterlimit:10;}
	.st9{fill:#EC7B00;}
	.st10{fill:none;stroke:#A3A3A3;stroke-width:0.5;stroke-miterlimit:10;}
	.st11{fill:#A3A3A3;}
	.st12{fill:#006666;}
	.st13{fill:none;stroke:#00CCCC;stroke-miterlimit:10;}
	.st14{fill:#005E5E;}
</style>
<g>
	<path class="st0" d="M35.96,12.45v-1.59c0-2.83,1.82-4.62,4.69-4.62c2.87,0,4.69,1.79,4.69,4.62v1.59c0,2.83-1.82,4.62-4.69,4.62
		C37.77,17.07,35.96,15.28,35.96,12.45z M38.14,10.99v1.34c0,1.8,0.96,2.91,2.5,2.91s2.5-1.11,2.5-2.91v-1.34
		c0-1.8-0.96-2.91-2.5-2.91S38.14,9.19,38.14,10.99z"/>
	<path class="st0" d="M51,8.31h-2.79V6.52H51V5.65c0-2.21,1.16-3.13,3.88-3.13c0.39,0,2.42,0.04,2.64,0.07v1.66
		c-0.29-0.03-2.21-0.06-2.6-0.06c-1.16,0-1.76,0.46-1.76,1.34v0.98h4.35v1.79h-4.32v8.56H51V8.31z"/>
	<path class="st0" d="M63.05,8.31h-2.79V6.52h2.79V5.65c0-2.21,1.16-3.13,3.88-3.13c0.39,0,2.42,0.04,2.64,0.07v1.66
		c-0.29-0.03-2.21-0.06-2.6-0.06c-1.16,0-1.76,0.46-1.76,1.34v0.98h4.35v1.79h-4.32v8.56h-2.21V8.31z"/>
	<path class="st0" d="M76.78,6.22c2.39,0,3.9,1.1,4.04,2.98h-2.09c-0.15-0.78-0.9-1.26-1.98-1.26c-1.11,0-1.84,0.51-1.84,1.29
		c0,0.67,0.48,1.05,1.61,1.29l1.55,0.33c2.08,0.45,3,1.33,3,2.89c0,2.02-1.66,3.33-4.28,3.33c-2.55,0-4.16-1.13-4.32-3.01h2.2
		c0.19,0.82,0.98,1.28,2.16,1.28c1.21,0,1.97-0.53,1.97-1.34c0-0.68-0.44-1.04-1.63-1.29l-1.56-0.34c-1.92-0.43-2.89-1.42-2.89-2.97
		C72.72,7.46,74.32,6.22,76.78,6.22z"/>
	<path class="st0" d="M93.39,14.04c-0.25,1.79-2.02,3.03-4.34,3.03c-2.97,0-4.68-1.7-4.68-4.67v-1.63c0-2.73,1.83-4.53,4.6-4.53
		c2.74,0,4.44,1.8,4.44,4.69v1.26h-6.86v0.5c0,1.59,0.98,2.61,2.49,2.61c1.15,0,2.03-0.5,2.25-1.27H93.39z M86.54,10.71h4.71
		c0-1.69-0.87-2.72-2.33-2.72C87.44,7.99,86.54,9.01,86.54,10.71z"/>
	<path class="st0" d="M101.02,3.54v2.98h4.02v1.79h-3.98v5.35c0,0.92,0.66,1.44,1.83,1.44c0.38,0,1.88-0.01,2.06-0.03v1.77
		c-0.17,0.03-1.92,0.06-2.23,0.06c-2.74,0-3.87-0.93-3.87-3.24V8.31h-2.74V6.52h2.74V3.54H101.02z"/>
</g>
<g>
	<path class="st1" d="M173.17,15.15c-0.44,1.22-1.49,1.87-3,1.87c-2.39,0-3.87-1.67-3.87-4.45v-1.85c0-2.77,1.48-4.45,3.87-4.45
		c1.5,0,2.58,0.67,2.97,1.88h0.19V2.43h2.28v14.43h-2.24v-1.71H173.17z M168.55,12.44c0,1.64,0.92,2.65,2.41,2.65
		c1.48,0,2.4-1.02,2.4-2.65v-1.63c0-1.64-0.92-2.66-2.4-2.66c-1.49,0-2.41,1.03-2.41,2.66V12.44z"/>
	<path class="st1" d="M187.67,16.86h-2.14v-1.78h-0.15c-0.53,1.27-1.68,1.99-3.21,1.99c-2.26,0-3.49-1.35-3.49-3.88V6.45h2.21v6.21
		c0,1.67,0.68,2.46,2.11,2.46c1.48,0,2.45-1.03,2.45-2.6V6.45h2.21V16.86z"/>
	<path class="st1" d="M195.26,9.11c0.43-2.01,1.59-2.94,3.56-2.94c0.59,0,1.13,0.08,1.49,0.22V8.8c-0.47-0.18-1.15-0.29-1.72-0.29
		c-2.41,0-3.67,1.31-3.67,3.72v2.98h3.1v1.65h-7.25v-1.65h2.02v-7.1h-2.22V6.45h4.36v2.66H195.26z"/>
	<path class="st1" d="M202.69,13.9c0-1.86,1.35-2.97,3.84-3.12l2.6-0.15V9.75c0-1.07-0.69-1.68-1.91-1.68
		c-1.02,0-1.76,0.44-1.99,1.2h-2.17c0.19-1.8,1.87-2.98,4.21-2.98c2.58,0,4.04,1.26,4.04,3.49v7.09h-2.1v-1.45h-0.2
		c-0.5,1.04-1.62,1.63-3.03,1.63C204.01,17.03,202.69,15.78,202.69,13.9z M209.14,13.07v-0.95l-2.27,0.12
		c-1.3,0.08-1.98,0.6-1.98,1.52c0,0.9,0.7,1.46,1.82,1.46C208.11,15.23,209.14,14.32,209.14,13.07z"/>
	<path class="st1" d="M219.46,3.54v2.98h4.02v1.79h-3.98v5.35c0,0.92,0.66,1.44,1.83,1.44c0.38,0,1.88-0.01,2.06-0.03v1.77
		c-0.17,0.03-1.92,0.06-2.23,0.06c-2.74,0-3.87-0.93-3.87-3.24V8.31h-2.74V6.52h2.74V3.54H219.46z"/>
	<path class="st1" d="M227.06,16.86v-1.77h3.43V8.22h-3.32V6.45h5.48v8.64h3.27v1.77H227.06z M229.9,2.63
		c0-0.89,0.67-1.51,1.61-1.51c0.95,0,1.62,0.62,1.62,1.51s-0.67,1.51-1.62,1.51C230.56,4.14,229.9,3.52,229.9,2.63z"/>
	<path class="st1" d="M238.7,12.45v-1.59c0-2.83,1.82-4.62,4.69-4.62c2.87,0,4.69,1.79,4.69,4.62v1.59c0,2.83-1.82,4.62-4.69,4.62
		C240.51,17.07,238.7,15.28,238.7,12.45z M240.88,10.99v1.34c0,1.8,0.96,2.91,2.5,2.91s2.5-1.11,2.5-2.91v-1.34
		c0-1.8-0.96-2.91-2.5-2.91S240.88,9.19,240.88,10.99z"/>
	<path class="st1" d="M250.93,6.45h2.14v1.78h0.15c0.53-1.27,1.68-1.99,3.21-1.99c2.26,0,3.49,1.35,3.49,3.87v6.75h-2.21v-6.21
		c0-1.67-0.68-2.47-2.11-2.47c-1.48,0-2.45,1.04-2.45,2.61v6.06h-2.21V6.45z"/>
</g>
<g>
	<path class="st2" d="M147.28,252.2c2.39,0,3.9,1.1,4.04,2.98h-2.09c-0.15-0.78-0.9-1.26-1.98-1.26c-1.11,0-1.84,0.51-1.84,1.29
		c0,0.67,0.48,1.05,1.61,1.29l1.55,0.33c2.08,0.45,3,1.33,3,2.89c0,2.03-1.66,3.33-4.28,3.33c-2.55,0-4.16-1.13-4.32-3.01h2.2
		c0.19,0.82,0.98,1.28,2.16,1.28c1.21,0,1.97-0.53,1.97-1.34c0-0.68-0.44-1.04-1.63-1.29l-1.56-0.34c-1.92-0.43-2.89-1.42-2.89-2.97
		C143.22,253.43,144.81,252.2,147.28,252.2z"/>
	<path class="st2" d="M154.75,259.87c0-1.86,1.35-2.97,3.84-3.12l2.6-0.15v-0.87c0-1.07-0.69-1.68-1.91-1.68
		c-1.02,0-1.76,0.44-1.99,1.2h-2.17c0.19-1.8,1.87-2.98,4.21-2.98c2.58,0,4.04,1.26,4.04,3.49v7.09h-2.1v-1.45h-0.2
		c-0.5,1.04-1.62,1.62-3.03,1.62C156.07,263,154.75,261.75,154.75,259.87z M161.19,259.04v-0.95l-2.27,0.12
		c-1.3,0.08-1.98,0.6-1.98,1.52c0,0.9,0.7,1.46,1.82,1.46C160.16,261.2,161.19,260.3,161.19,259.04z"/>
	<path class="st2" d="M176.51,262.83h-1.9v-7.21c0-0.95-0.41-1.49-1.11-1.49c-0.73,0-1.19,0.62-1.19,1.6v7.1h-1.89v-7.21
		c0-0.96-0.4-1.49-1.11-1.49c-0.74,0-1.22,0.62-1.22,1.6v7.1h-1.9v-10.41h1.94v1.56h0.24c0.24-1.13,0.97-1.77,1.97-1.77
		c0.97,0,1.63,0.62,1.85,1.71h0.24c0.24-1.06,1.01-1.71,2.02-1.71c1.35,0,2.06,0.94,2.06,2.71V262.83z"/>
	<path class="st2" d="M188.23,256.7v1.85c0,2.78-1.48,4.46-3.88,4.46c-1.5,0-2.57-0.68-2.96-1.88h-0.19v5.19h-2.28v-13.9h2.24v1.71
		h0.19c0.44-1.22,1.49-1.88,2.99-1.88C186.75,252.25,188.23,253.94,188.23,256.7z M181.16,256.84v1.64c0,1.63,0.92,2.65,2.4,2.65
		c1.49,0,2.41-1.03,2.41-2.65v-1.64c0-1.63-0.92-2.65-2.41-2.65C182.08,254.19,181.16,255.21,181.16,256.84z"/>
	<path class="st2" d="M191.16,262.83v-1.77h3.41v-10.89h-3.3v-1.77h5.5v12.66h3.24v1.77H191.16z"/>
	<path class="st2" d="M212.05,260.01c-0.25,1.79-2.02,3.03-4.34,3.03c-2.97,0-4.68-1.7-4.68-4.67v-1.63c0-2.73,1.83-4.53,4.6-4.53
		c2.74,0,4.44,1.8,4.44,4.69v1.26h-6.86v0.5c0,1.59,0.98,2.61,2.49,2.61c1.15,0,2.03-0.5,2.25-1.27H212.05z M205.21,256.68h4.71
		c0-1.69-0.87-2.72-2.33-2.72C206.1,253.96,205.21,254.98,205.21,256.68z"/>
	<path class="st2" d="M219.53,252.2c2.39,0,3.9,1.1,4.04,2.98h-2.09c-0.15-0.78-0.9-1.26-1.98-1.26c-1.11,0-1.84,0.51-1.84,1.29
		c0,0.67,0.48,1.05,1.61,1.29l1.55,0.33c2.08,0.45,3,1.33,3,2.89c0,2.03-1.66,3.33-4.28,3.33c-2.55,0-4.16-1.13-4.32-3.01h2.2
		c0.19,0.82,0.98,1.28,2.16,1.28c1.21,0,1.97-0.53,1.97-1.34c0-0.68-0.44-1.04-1.63-1.29l-1.56-0.34c-1.92-0.43-2.89-1.42-2.89-2.97
		C215.47,253.43,217.07,252.2,219.53,252.2z"/>
</g>
<g>
	<g>
		<g>
			<g>
				<g>
					<line class="st3" x1="146.04" y1="137.15" x2="146.04" y2="164.61"/>
					<g>
						<polygon class="st4" points="142.71,162.08 146.04,163.5 149.37,162.08 146.04,169.98 						"/>
					</g>
				</g>
			</g>
			<g>
				<line class="st3" x1="155.59" y1="137.15" x2="155.59" y2="164.61"/>
				<polygon class="st4" points="152.25,162.08 155.59,163.5 158.92,162.08 155.59,169.98 				"/>
			</g>
			<g>
				<line class="st3" x1="165.13" y1="137.15" x2="165.13" y2="164.61"/>
				<polygon class="st4" points="161.8,162.08 165.13,163.5 168.46,162.08 165.13,169.98 				"/>
			</g>
			<g>
				<line class="st3" x1="174.68" y1="137.15" x2="174.68" y2="164.61"/>
				<polygon class="st4" points="171.34,162.08 174.68,163.5 178.01,162.08 174.68,169.98 				"/>
			</g>
			<g>
				<line class="st3" x1="184.22" y1="137.15" x2="184.22" y2="164.61"/>
				<polygon class="st4" points="180.89,162.08 184.22,163.5 187.56,162.08 184.22,169.98 				"/>
			</g>
			<g>
				<line class="st3" x1="193.77" y1="137.15" x2="193.77" y2="164.61"/>
				<polygon class="st4" points="190.44,162.08 193.77,163.5 197.1,162.08 193.77,169.98 				"/>
			</g>
			<g>
				<line class="st3" x1="203.31" y1="137.15" x2="203.31" y2="164.61"/>
				<polygon class="st4" points="199.98,162.08 203.31,163.5 206.65,162.08 203.31,169.98 				"/>
			</g>
			<g>
				<line class="st3" x1="212.86" y1="137.15" x2="212.86" y2="164.61"/>
				<polygon class="st4" points="209.53,162.08 212.86,163.5 216.19,162.08 212.86,169.98 				"/>
			</g>
			<g>
				<line class="st3" x1="222.41" y1="137.15" x2="222.41" y2="164.61"/>
				<polygon class="st4" points="219.07,162.08 222.41,163.5 225.74,162.08 222.41,169.98 				"/>
			</g>
			<g>
				<line class="st3" x1="231.95" y1="137.15" x2="231.95" y2="164.61"/>
				<polygon class="st4" points="228.62,162.08 231.95,163.5 235.28,162.08 231.95,169.98 				"/>
			</g>
			<g>
				<line class="st3" x1="241.5" y1="137.15" x2="241.5" y2="164.61"/>
				<polygon class="st4" points="238.16,162.08 241.5,163.5 244.83,162.08 241.5,169.98 				"/>
			</g>
			<g>
				<line class="st3" x1="251.04" y1="137.15" x2="251.04" y2="164.61"/>
				<polygon class="st4" points="247.71,162.08 251.04,163.5 254.38,162.08 251.04,169.98 				"/>
			</g>
			<g>
				<line class="st3" x1="260.59" y1="137.15" x2="260.59" y2="164.61"/>
				<polygon class="st4" points="257.26,162.08 260.59,163.5 263.92,162.08 260.59,169.98 				"/>
			</g>
			<g>
				<line class="st3" x1="270.13" y1="137.15" x2="270.13" y2="164.61"/>
				<polygon class="st4" points="266.8,162.08 270.13,163.5 273.47,162.08 270.13,169.98 				"/>
			</g>
			<g>
				<g>
					<line class="st3" x1="279.68" y1="137.15" x2="279.68" y2="164.61"/>
					<g>
						<polygon class="st4" points="276.35,162.08 279.68,163.5 283.01,162.08 279.68,169.98 						"/>
					</g>
				</g>
			</g>
		</g>
	</g>
	<rect x="187.2" y="136.15" class="st5" width="51.16" height="17.72"/>
	<g>
		<path class="st4" d="M198.26,146.67c-0.03,0.13-0.06,0.26-0.09,0.38c-0.03,0.12-0.05,0.23-0.05,0.34c0,0.1,0.02,0.18,0.07,0.24
			c0.05,0.06,0.14,0.08,0.27,0.08c0.09,0,0.19-0.01,0.28-0.04c0.09-0.02,0.19-0.04,0.28-0.05l-0.25,1.15
			c-0.21,0.05-0.41,0.09-0.62,0.13c-0.21,0.04-0.42,0.06-0.63,0.06c-0.27,0-0.49-0.08-0.67-0.25s-0.28-0.39-0.29-0.67
			c-0.32,0.32-0.69,0.55-1.12,0.7c-0.43,0.15-0.87,0.22-1.32,0.22c-0.3,0-0.58-0.04-0.85-0.13s-0.51-0.21-0.72-0.36
			c-0.21-0.16-0.38-0.36-0.5-0.6c-0.12-0.24-0.18-0.52-0.18-0.84c0-0.45,0.08-0.82,0.25-1.13s0.39-0.55,0.67-0.75
			c0.28-0.2,0.6-0.34,0.97-0.43c0.36-0.09,0.75-0.15,1.15-0.18c0.54-0.04,1.07-0.08,1.6-0.13c0.29-0.02,0.5-0.11,0.64-0.29
			c0.14-0.17,0.2-0.39,0.2-0.67c0-0.35-0.12-0.58-0.36-0.69s-0.53-0.17-0.85-0.17c-0.45,0-0.83,0.08-1.15,0.23
			c-0.32,0.15-0.54,0.46-0.65,0.9h-1.51c0.08-0.45,0.23-0.82,0.43-1.13c0.21-0.3,0.46-0.55,0.76-0.74c0.3-0.19,0.64-0.33,1.02-0.41
			c0.38-0.08,0.78-0.12,1.21-0.12c0.65,0,1.16,0.06,1.53,0.19c0.37,0.13,0.64,0.28,0.81,0.46c0.17,0.18,0.28,0.36,0.31,0.55
			c0.04,0.19,0.06,0.35,0.06,0.48c0,0.32-0.05,0.68-0.14,1.09L198.26,146.67z M193.46,146.78c0,0.18,0.04,0.32,0.12,0.44
			s0.18,0.21,0.3,0.28c0.12,0.07,0.26,0.12,0.41,0.15s0.3,0.05,0.45,0.05c0.39,0,0.72-0.07,0.99-0.2c0.27-0.13,0.49-0.31,0.66-0.53
			c0.17-0.22,0.31-0.49,0.41-0.79s0.18-0.63,0.23-0.97l-0.03-0.03c-0.11,0.11-0.26,0.19-0.45,0.24c-0.19,0.05-0.37,0.08-0.55,0.1
			c-0.22,0.02-0.48,0.04-0.78,0.06s-0.57,0.07-0.83,0.15s-0.48,0.2-0.66,0.36C193.55,146.25,193.46,146.48,193.46,146.78z"/>
		<path class="st4" d="M206.32,148.77h-1.53l0.22-0.98l-0.03-0.03c-0.32,0.47-0.67,0.78-1.05,0.95s-0.79,0.25-1.22,0.25
			c-0.21,0-0.47-0.03-0.78-0.08c-0.32-0.06-0.63-0.18-0.93-0.38s-0.56-0.5-0.78-0.89s-0.32-0.93-0.32-1.61
			c0-0.59,0.09-1.16,0.27-1.71s0.43-1.05,0.77-1.49c0.34-0.44,0.75-0.79,1.23-1.06c0.48-0.27,1.04-0.4,1.67-0.4
			c0.48,0,0.92,0.09,1.32,0.27s0.68,0.49,0.87,0.92h0.03l0.8-3.75h1.6L206.32,148.77z M205.64,144.33c0-0.23-0.03-0.46-0.09-0.67
			s-0.15-0.4-0.28-0.55c-0.13-0.15-0.29-0.28-0.5-0.37c-0.21-0.09-0.45-0.14-0.73-0.14c-0.45,0-0.83,0.1-1.15,0.3
			c-0.32,0.2-0.58,0.46-0.78,0.79s-0.36,0.69-0.46,1.1c-0.1,0.41-0.15,0.81-0.15,1.21c0,0.54,0.14,0.96,0.41,1.26
			c0.27,0.3,0.69,0.45,1.25,0.45c0.41,0,0.77-0.11,1.08-0.32c0.31-0.21,0.57-0.49,0.78-0.82c0.21-0.33,0.37-0.7,0.47-1.09
			S205.64,144.69,205.64,144.33z"/>
		<path class="st4" d="M214.88,148.77h-1.53l0.22-0.98l-0.03-0.03c-0.32,0.47-0.67,0.78-1.05,0.95s-0.79,0.25-1.22,0.25
			c-0.21,0-0.47-0.03-0.78-0.08c-0.32-0.06-0.63-0.18-0.93-0.38s-0.56-0.5-0.78-0.89s-0.32-0.93-0.32-1.61
			c0-0.59,0.09-1.16,0.27-1.71s0.43-1.05,0.77-1.49c0.34-0.44,0.75-0.79,1.23-1.06c0.48-0.27,1.04-0.4,1.67-0.4
			c0.48,0,0.92,0.09,1.32,0.27s0.68,0.49,0.87,0.92h0.03l0.8-3.75h1.6L214.88,148.77z M214.19,144.33c0-0.23-0.03-0.46-0.09-0.67
			s-0.15-0.4-0.28-0.55c-0.13-0.15-0.29-0.28-0.5-0.37c-0.21-0.09-0.45-0.14-0.73-0.14c-0.45,0-0.83,0.1-1.15,0.3
			c-0.32,0.2-0.58,0.46-0.78,0.79s-0.36,0.69-0.46,1.1c-0.1,0.41-0.15,0.81-0.15,1.21c0,0.54,0.14,0.96,0.41,1.26
			c0.27,0.3,0.69,0.45,1.25,0.45c0.41,0,0.77-0.11,1.08-0.32c0.31-0.21,0.57-0.49,0.78-0.82c0.21-0.33,0.37-0.7,0.47-1.09
			S214.19,144.69,214.19,144.33z"/>
		<path class="st4" d="M223,139.36h1.55l-0.45,2.17h1.44l-0.25,1.19h-1.44l-0.74,3.54c-0.04,0.16-0.07,0.31-0.1,0.45
			c-0.03,0.14-0.04,0.25-0.04,0.34c0,0.16,0.03,0.29,0.1,0.39c0.07,0.1,0.23,0.15,0.47,0.15c0.12,0,0.25,0,0.4-0.01
			c0.14,0,0.3-0.03,0.46-0.06l-0.27,1.18c-0.21,0.05-0.42,0.08-0.66,0.11c-0.23,0.03-0.45,0.04-0.66,0.04
			c-0.29,0-0.53-0.04-0.71-0.11c-0.19-0.07-0.33-0.17-0.44-0.3c-0.11-0.13-0.18-0.27-0.22-0.43c-0.04-0.16-0.06-0.33-0.06-0.5
			c0-0.14,0.01-0.29,0.04-0.46c0.02-0.17,0.04-0.28,0.06-0.35l0.83-3.96h-1.26l0.25-1.19h1.26L223,139.36z"/>
		<path class="st4" d="M228.76,148.96c-1.01,0-1.79-0.27-2.34-0.82c-0.55-0.55-0.83-1.33-0.83-2.34c0-0.6,0.1-1.16,0.29-1.7
			c0.2-0.54,0.47-1.01,0.83-1.42s0.79-0.74,1.3-0.98c0.51-0.24,1.08-0.36,1.7-0.36c1.01,0,1.79,0.26,2.34,0.79
			c0.55,0.53,0.83,1.3,0.83,2.32c0,0.63-0.09,1.23-0.28,1.78c-0.19,0.55-0.46,1.03-0.82,1.44c-0.36,0.41-0.79,0.73-1.3,0.96
			C229.98,148.85,229.41,148.96,228.76,148.96z M229.63,142.59c-0.41,0-0.77,0.1-1.07,0.31c-0.3,0.21-0.56,0.46-0.76,0.78
			c-0.21,0.31-0.36,0.66-0.46,1.04c-0.1,0.38-0.15,0.76-0.15,1.12c0,0.53,0.13,0.98,0.4,1.33c0.27,0.35,0.69,0.53,1.27,0.53
			c0.41,0,0.77-0.1,1.07-0.3c0.3-0.2,0.56-0.46,0.76-0.77c0.21-0.31,0.36-0.66,0.46-1.05c0.1-0.39,0.15-0.76,0.15-1.13
			c0-0.53-0.13-0.98-0.4-1.33C230.63,142.77,230.21,142.59,229.63,142.59z"/>
	</g>
</g>
<g>
	<g>
		<line class="st6" x1="3.02" y1="24.24" x2="135.4" y2="24.24"/>
		<g>
			<polygon class="st7" points="132.59,27.94 134.16,24.24 132.59,20.53 141.37,24.24 			"/>
		</g>
	</g>
</g>
<g>
	<g>
		<line class="st8" x1="156.68" y1="24.24" x2="269.04" y2="24.24"/>
		<g>
			<polygon class="st9" points="159.49,27.94 157.92,24.24 159.49,20.53 150.71,24.24 			"/>
		</g>
		<g>
			<polygon class="st9" points="266.23,27.94 267.8,24.24 266.23,20.53 275.01,24.24 			"/>
		</g>
	</g>
</g>
<line class="st6" x1="3.02" y1="16.76" x2="3.02" y2="229"/>
<line class="st8" x1="146.04" y1="0" x2="146.04" y2="118.82"/>
<line class="st8" x1="279.68" y1="0" x2="279.68" y2="118.82"/>
<g>
	<g>
		<g>
			<line class="st10" x1="3.02" y1="229" x2="314.08" y2="229"/>
			<g>
				<polygon class="st11" points="313.35,231.49 317.66,229 313.35,226.5 				"/>
			</g>
		</g>
	</g>
	<g>
		<circle class="st12" cx="3.02" cy="221.63" r="3.02"/>
		<circle class="st12" cx="12.56" cy="208.3" r="3.02"/>
		<circle class="st12" cx="22.09" cy="215.59" r="3.02"/>
		<circle class="st12" cx="31.63" cy="225.97" r="3.02"/>
		<circle class="st12" cx="41.16" cy="238.22" r="3.02"/>
		<circle class="st12" cx="50.69" cy="245.94" r="3.02"/>
		<circle class="st12" cx="60.23" cy="239.89" r="3.02"/>
		<circle class="st12" cx="69.76" cy="236.87" r="3.02"/>
		<circle class="st12" cx="79.3" cy="242.92" r="3.02"/>
		<circle class="st12" cx="88.83" cy="250.75" r="3.02"/>
		<circle class="st12" cx="98.37" cy="262.83" r="3.02"/>
		<circle class="st12" cx="107.9" cy="268.88" r="3.02"/>
		<circle class="st12" cx="117.44" cy="261.05" r="3.02"/>
		<circle class="st12" cx="126.97" cy="246.85" r="3.02"/>
		<circle class="st12" cx="136.51" cy="235.2" r="3.02"/>
		<circle class="st12" cx="146.04" cy="222.95" r="3.02"/>
		<circle class="st12" cx="155.58" cy="204.27" r="3.02"/>
		<circle class="st12" cx="165.11" cy="196.94" r="3.02"/>
		<circle class="st12" cx="174.64" cy="207.29" r="3.02"/>
		<circle class="st12" cx="184.18" cy="198.23" r="3.02"/>
		<circle class="st12" cx="193.71" cy="190.9" r="3.02"/>
		<circle class="st12" cx="203.25" cy="199.97" r="3.02"/>
		<circle class="st12" cx="212.78" cy="211.33" r="3.02"/>
		<circle class="st12" cx="222.32" cy="218.61" r="3.02"/>
		<circle class="st12" cx="231.85" cy="238.22" r="3.02"/>
		<circle class="st12" cx="241.39" cy="247.72" r="3.02"/>
		<circle class="st12" cx="250.92" cy="258.03" r="3.02"/>
		<circle class="st12" cx="260.46" cy="247.72" r="3.02"/>
		<circle class="st12" cx="269.99" cy="233.85" r="3.02"/>
		<circle class="st12" cx="279.52" cy="212.56" r="3.02"/>
		<circle class="st12" cx="289.06" cy="219.93" r="3.02"/>
		<circle class="st12" cx="298.59" cy="219.93" r="3.02"/>
		<circle class="st12" cx="308.13" cy="213.34" r="3.02"/>
		<circle class="st12" cx="317.66" cy="201.25" r="3.02"/>
	</g>
</g>
<g>
	<path class="st13" d="M279.68,118.82c-4.62,0-8.93-13.87-14.85-40.68c-5.92-26.81-10.23-40.68-14.85-40.68
		c-4.62,0-8.93,13.87-14.85,40.68s-10.23,40.68-14.85,40.68s-8.93-13.87-14.85-40.68s-10.23-40.68-14.85-40.68
		s-8.93,13.87-14.85,40.68c-5.92,26.81-10.23,40.68-14.85,40.68c-4.62,0-8.93-13.87-14.85-40.68"/>
	<g>
		<path class="st14" d="M185.36,71.81c2.39,0,3.9,1.1,4.04,2.98h-2.09c-0.15-0.78-0.9-1.26-1.98-1.26c-1.11,0-1.84,0.51-1.84,1.29
			c0,0.67,0.48,1.05,1.61,1.29l1.55,0.33c2.08,0.45,3,1.33,3,2.89c0,2.02-1.66,3.33-4.28,3.33c-2.55,0-4.16-1.13-4.32-3.01h2.2
			c0.19,0.82,0.98,1.28,2.16,1.28c1.21,0,1.97-0.53,1.97-1.34c0-0.68-0.44-1.04-1.63-1.29l-1.56-0.34
			c-1.92-0.43-2.89-1.42-2.89-2.97C181.3,73.04,182.89,71.81,185.36,71.81z"/>
		<path class="st14" d="M193.11,82.45v-1.77h3.43v-6.87h-3.32v-1.77h5.48v8.64h3.27v1.77H193.11z M195.94,68.22
			c0-0.89,0.67-1.51,1.61-1.51c0.95,0,1.62,0.62,1.62,1.51s-0.67,1.51-1.62,1.51C196.61,69.73,195.94,69.11,195.94,68.22z"/>
		<path class="st14" d="M204.65,83.45h2.17c0.19,0.75,1.11,1.24,2.35,1.24c1.63,0,2.51-0.78,2.51-2.23v-1.88h-0.19
			c-0.37,1.15-1.57,1.88-3.1,1.88c-2.4,0-3.9-1.7-3.9-4.45v-1.7c0-2.77,1.51-4.45,3.98-4.45c1.51,0,2.67,0.72,3.05,1.88h0.19v-1.7
			h2.18v10.4c0,2.44-1.8,3.93-4.75,3.93C206.55,86.36,204.84,85.25,204.65,83.45z M209.2,80.53c1.49,0,2.45-1.04,2.45-2.66V76.4
			c0-1.63-0.96-2.66-2.45-2.66c-1.5,0-2.46,1.04-2.46,2.66v1.46C206.74,79.49,207.7,80.53,209.2,80.53z"/>
		<path class="st14" d="M216.98,72.04h2.14v1.78h0.15c0.53-1.27,1.68-1.99,3.21-1.99c2.26,0,3.49,1.35,3.49,3.87v6.75h-2.21v-6.21
			c0-1.67-0.68-2.47-2.11-2.47c-1.48,0-2.45,1.04-2.45,2.61v6.06h-2.21V72.04z"/>
		<path class="st14" d="M228.95,79.48c0-1.86,1.35-2.97,3.84-3.12l2.6-0.15v-0.88c0-1.07-0.69-1.68-1.91-1.68
			c-1.02,0-1.76,0.44-1.99,1.2h-2.17c0.19-1.8,1.87-2.98,4.21-2.98c2.58,0,4.04,1.26,4.04,3.49v7.09h-2.1v-1.45h-0.2
			c-0.5,1.04-1.62,1.63-3.03,1.63C230.28,82.62,228.95,81.36,228.95,79.48z M235.4,78.65V77.7l-2.27,0.12
			c-1.3,0.08-1.98,0.6-1.98,1.52c0,0.9,0.7,1.46,1.82,1.46C234.37,80.81,235.4,79.91,235.4,78.65z"/>
		<path class="st14" d="M241.28,82.45v-1.77h3.41V69.78h-3.3v-1.77h5.5v12.66h3.24v1.77H241.28z"/>
	</g>
</g>
<g>
	<path class="st4" d="M3.63,235.86h1.17l-0.34,1.63h1.08l-0.19,0.89H4.27l-0.56,2.66c-0.03,0.12-0.05,0.23-0.07,0.34
		s-0.03,0.19-0.03,0.25c0,0.12,0.03,0.22,0.08,0.29c0.05,0.07,0.17,0.11,0.35,0.11c0.09,0,0.19,0,0.3-0.01
		c0.11,0,0.22-0.02,0.34-0.05l-0.2,0.88c-0.15,0.04-0.32,0.06-0.49,0.08s-0.34,0.03-0.49,0.03c-0.22,0-0.4-0.03-0.54-0.08
		c-0.14-0.06-0.25-0.13-0.33-0.23c-0.08-0.09-0.14-0.2-0.17-0.33c-0.03-0.12-0.05-0.25-0.05-0.37c0-0.1,0.01-0.22,0.03-0.35
		c0.02-0.13,0.03-0.21,0.05-0.26l0.62-2.97H2.16l0.19-0.89h0.94L3.63,235.86z"/>
	<path class="st4" d="M6.45,237.49h1.2l-1.12,5.43h-1.2L6.45,237.49z M6.88,235.42h1.19l-0.23,1.13H6.65L6.88,235.42z"/>
	<path class="st4" d="M9.04,237.49h1.13l-0.16,0.77l0.02,0.02c0.22-0.29,0.5-0.52,0.81-0.69c0.32-0.17,0.67-0.25,1.04-0.25
		c0.34,0,0.63,0.07,0.88,0.21c0.25,0.14,0.42,0.39,0.49,0.75c0.25-0.28,0.52-0.51,0.82-0.69c0.3-0.18,0.64-0.27,1.02-0.27
		c0.52,0,0.91,0.13,1.17,0.39c0.25,0.26,0.38,0.61,0.38,1.05c0,0.1-0.01,0.21-0.03,0.34c-0.02,0.12-0.04,0.24-0.06,0.34l-0.69,3.46
		h-1.2l0.67-3.21c0.01-0.06,0.03-0.15,0.06-0.27c0.02-0.12,0.04-0.24,0.05-0.37c0-0.09-0.01-0.18-0.03-0.28
		c-0.02-0.09-0.05-0.18-0.11-0.25c-0.06-0.07-0.13-0.13-0.23-0.18c-0.1-0.05-0.22-0.07-0.38-0.07c-0.23,0-0.44,0.05-0.61,0.14
		c-0.18,0.09-0.33,0.21-0.46,0.36c-0.13,0.14-0.23,0.3-0.31,0.47c-0.08,0.17-0.13,0.33-0.16,0.49l-0.66,3.17h-1.2l0.62-2.98
		c0.03-0.14,0.06-0.3,0.1-0.47c0.04-0.17,0.06-0.34,0.06-0.5c0-0.18-0.05-0.34-0.14-0.47c-0.09-0.13-0.27-0.2-0.52-0.2
		c-0.23,0-0.43,0.04-0.59,0.13s-0.31,0.19-0.43,0.3c-0.12,0.12-0.24,0.27-0.37,0.46s-0.21,0.39-0.26,0.6l-0.65,3.14h-1.2
		L9.04,237.49z"/>
	<path class="st4" d="M22.41,241.24c-0.19,0.64-0.51,1.1-0.96,1.39c-0.45,0.29-1,0.44-1.66,0.44c-0.34,0-0.66-0.05-0.95-0.16
		c-0.29-0.11-0.54-0.27-0.75-0.47c-0.21-0.21-0.37-0.46-0.49-0.75c-0.12-0.29-0.18-0.62-0.18-0.99c0-0.42,0.07-0.83,0.2-1.23
		c0.13-0.4,0.33-0.76,0.58-1.07c0.26-0.32,0.57-0.57,0.94-0.76s0.8-0.29,1.29-0.29s0.88,0.08,1.18,0.24c0.3,0.16,0.54,0.36,0.7,0.61
		s0.28,0.51,0.34,0.81c0.06,0.29,0.09,0.57,0.09,0.84c0,0.13-0.01,0.26-0.02,0.37c-0.01,0.11-0.03,0.21-0.04,0.3h-4.04
		c-0.01,0.03-0.01,0.07-0.02,0.09c0,0.03-0.01,0.06-0.01,0.08v0.17c0,0.38,0.1,0.68,0.3,0.91c0.2,0.23,0.53,0.35,0.99,0.35
		c0.32,0,0.6-0.07,0.83-0.22c0.23-0.15,0.39-0.37,0.47-0.66H22.41z M21.54,239.72c0.01-0.04,0.01-0.07,0.01-0.09
		c0-0.03,0-0.05,0-0.08v-0.17c0-0.32-0.1-0.59-0.3-0.79c-0.2-0.21-0.48-0.31-0.84-0.31c-0.45,0-0.81,0.13-1.07,0.4
		c-0.27,0.27-0.46,0.61-0.58,1.03H21.54z"/>
</g>
<g>
</g>
<g>
</g>
</svg>
