<?xml version="1.0" encoding="utf-8"?>
<!-- Generator: Adobe Illustrator 28.1.0, SVG Export Plug-In . SVG Version: 6.00 Build 0)  -->
<svg version="1.1" id="Layer_1" xmlns="http://www.w3.org/2000/svg" xmlns:xlink="http://www.w3.org/1999/xlink" x="0px" y="0px"
	 viewBox="0 0 200.04 144.51" style="enable-background:new 0 0 200.04 144.51;" xml:space="preserve">
<style type="text/css">
	.st0{fill:#00D4FF;}
	.st1{fill:#221F20;}
	.st2{opacity:0.5;fill:none;stroke:#5E55E0;stroke-width:2;stroke-miterlimit:10;}
	.st3{fill:#E06837;}
	.st4{fill:#575757;}
</style>
<g>
	<path class="st3" d="M158.29,122.46v2.42h-1.51v-2.42H158.29z M158.29,127.21v12.38h-1.51v-12.38H158.29z"/>
	<path class="st3" d="M162.68,127.21v2.14h0.05c0.29-0.75,0.8-1.36,1.54-1.81c0.74-0.46,1.54-0.68,2.42-0.68
		c0.86,0,1.59,0.11,2.17,0.34c0.58,0.22,1.05,0.54,1.4,0.95c0.35,0.41,0.6,0.91,0.74,1.5s0.22,1.26,0.22,1.99v7.97h-1.51v-7.73
		c0-0.53-0.05-1.02-0.14-1.48c-0.1-0.46-0.26-0.85-0.5-1.19c-0.24-0.34-0.56-0.6-0.97-0.79c-0.41-0.19-0.92-0.29-1.52-0.29
		c-0.61,0-1.15,0.11-1.62,0.32s-0.87,0.51-1.2,0.89c-0.33,0.38-0.58,0.82-0.77,1.34c-0.18,0.52-0.28,1.08-0.3,1.69v7.22h-1.51
		v-12.38H162.68z"/>
	<path class="st3" d="M179,127.21v1.27h-2.52v8.35c0,0.5,0.07,0.88,0.2,1.16c0.14,0.28,0.48,0.44,1.02,0.47
		c0.43,0,0.86-0.02,1.3-0.07v1.27c-0.22,0-0.45,0.01-0.67,0.02s-0.45,0.02-0.67,0.02c-1.01,0-1.71-0.2-2.11-0.59
		c-0.4-0.39-0.59-1.12-0.58-2.17v-8.47h-2.16v-1.27h2.16v-3.72h1.51v3.72H179z"/>
</g>
<g>
	<path class="st3" d="M11,136.16c0.29,0.59,0.68,1.06,1.19,1.42c0.5,0.35,1.1,0.6,1.79,0.76c0.69,0.15,1.42,0.23,2.21,0.23
		c0.45,0,0.94-0.06,1.46-0.19c0.53-0.13,1.02-0.33,1.48-0.61s0.84-0.64,1.14-1.08c0.3-0.44,0.46-0.97,0.46-1.6
		c0-0.48-0.11-0.9-0.32-1.25c-0.22-0.35-0.5-0.65-0.84-0.89c-0.34-0.24-0.72-0.44-1.14-0.59c-0.42-0.15-0.82-0.28-1.22-0.37
		l-3.82-0.94c-0.5-0.13-0.98-0.29-1.45-0.48c-0.47-0.19-0.88-0.45-1.24-0.77s-0.64-0.71-0.85-1.18c-0.22-0.46-0.32-1.03-0.32-1.7
		c0-0.42,0.08-0.9,0.24-1.46c0.16-0.56,0.46-1.09,0.9-1.58c0.44-0.5,1.04-0.92,1.81-1.26c0.77-0.34,1.75-0.52,2.95-0.52
		c0.85,0,1.66,0.11,2.42,0.34c0.77,0.22,1.44,0.56,2.02,1.01c0.58,0.45,1.04,1,1.38,1.67c0.34,0.66,0.52,1.44,0.52,2.32h-1.63
		c-0.03-0.66-0.18-1.23-0.44-1.72s-0.61-0.9-1.03-1.22c-0.42-0.33-0.91-0.58-1.46-0.74c-0.55-0.17-1.13-0.25-1.74-0.25
		c-0.56,0-1.1,0.06-1.62,0.18c-0.52,0.12-0.98,0.31-1.37,0.58c-0.39,0.26-0.71,0.61-0.95,1.04c-0.24,0.43-0.36,0.97-0.36,1.61
		c0,0.4,0.07,0.75,0.2,1.04c0.14,0.3,0.32,0.55,0.56,0.76c0.24,0.21,0.52,0.38,0.83,0.5c0.31,0.13,0.64,0.23,1,0.31l4.18,1.03
		c0.61,0.16,1.18,0.36,1.72,0.59c0.54,0.23,1.01,0.52,1.42,0.86c0.41,0.34,0.73,0.76,0.96,1.26c0.23,0.5,0.35,1.1,0.35,1.8
		c0,0.19-0.02,0.45-0.06,0.77c-0.04,0.32-0.14,0.66-0.29,1.02c-0.15,0.36-0.37,0.72-0.65,1.09s-0.66,0.7-1.15,1
		c-0.49,0.3-1.09,0.54-1.81,0.72c-0.72,0.18-1.58,0.28-2.59,0.28c-1.01,0-1.94-0.12-2.81-0.35c-0.86-0.23-1.6-0.59-2.21-1.07
		c-0.61-0.48-1.08-1.1-1.4-1.85c-0.33-0.75-0.47-1.66-0.42-2.71h1.63C10.58,134.83,10.72,135.57,11,136.16z"/>
	<path class="st3" d="M29.58,127.21v1.27h-2.52v8.35c0,0.5,0.07,0.88,0.2,1.16c0.14,0.28,0.48,0.44,1.02,0.47
		c0.43,0,0.86-0.02,1.3-0.07v1.27c-0.22,0-0.45,0.01-0.67,0.02s-0.45,0.02-0.67,0.02c-1.01,0-1.71-0.2-2.11-0.59
		c-0.4-0.39-0.59-1.12-0.58-2.17v-8.47h-2.16v-1.27h2.16v-3.72h1.51v3.72H29.58z"/>
	<path class="st3" d="M33.16,127.21v2.9h0.05c0.38-1.01,0.98-1.78,1.79-2.33c0.81-0.54,1.77-0.79,2.89-0.74v1.51
		c-0.69-0.03-1.31,0.06-1.87,0.28c-0.56,0.22-1.04,0.52-1.45,0.92c-0.41,0.4-0.72,0.88-0.95,1.43c-0.22,0.55-0.34,1.16-0.34,1.81
		v6.6h-1.51v-12.38H33.16z"/>
	<path class="st3" d="M40.86,122.46v2.42h-1.51v-2.42H40.86z M40.86,127.21v12.38h-1.51v-12.38H40.86z"/>
	<path class="st3" d="M45.25,127.21v2.14h0.05c0.29-0.75,0.8-1.36,1.54-1.81c0.74-0.46,1.54-0.68,2.42-0.68
		c0.86,0,1.59,0.11,2.17,0.34c0.58,0.22,1.05,0.54,1.4,0.95c0.35,0.41,0.6,0.91,0.74,1.5s0.22,1.26,0.22,1.99v7.97h-1.51v-7.73
		c0-0.53-0.05-1.02-0.14-1.48c-0.1-0.46-0.26-0.85-0.5-1.19c-0.24-0.34-0.56-0.6-0.97-0.79c-0.41-0.19-0.92-0.29-1.52-0.29
		c-0.61,0-1.15,0.11-1.62,0.32s-0.87,0.51-1.2,0.89c-0.33,0.38-0.58,0.82-0.77,1.34c-0.18,0.52-0.28,1.08-0.3,1.69v7.22h-1.51
		v-12.38H45.25z"/>
	<path class="st3" d="M66.81,141.06c-0.2,0.74-0.52,1.36-0.95,1.87c-0.43,0.51-1,0.9-1.69,1.18c-0.7,0.27-1.55,0.41-2.56,0.41
		c-0.62,0-1.23-0.07-1.82-0.22c-0.59-0.14-1.12-0.37-1.6-0.67c-0.47-0.3-0.86-0.69-1.18-1.16c-0.31-0.47-0.49-1.04-0.54-1.69h1.51
		c0.08,0.46,0.24,0.85,0.47,1.16c0.23,0.31,0.51,0.56,0.84,0.76s0.69,0.33,1.09,0.42c0.4,0.09,0.81,0.13,1.22,0.13
		c1.41,0,2.42-0.4,3.05-1.2c0.62-0.8,0.94-1.95,0.94-3.46v-1.68h-0.05c-0.35,0.77-0.87,1.38-1.55,1.85s-1.48,0.7-2.39,0.7
		c-0.99,0-1.84-0.16-2.54-0.49c-0.7-0.33-1.28-0.78-1.74-1.36s-0.79-1.25-1-2.03c-0.21-0.78-0.31-1.6-0.31-2.48
		c0-0.85,0.12-1.65,0.37-2.41s0.61-1.42,1.08-1.99c0.47-0.57,1.06-1.02,1.75-1.34s1.49-0.49,2.39-0.49c0.46,0,0.9,0.06,1.31,0.19
		c0.41,0.13,0.78,0.31,1.12,0.54c0.34,0.23,0.64,0.5,0.9,0.8s0.47,0.62,0.61,0.96h0.05v-2.14h1.51v11.38
		C67.11,139.5,67.01,140.32,66.81,141.06z M63.35,137.76c0.5-0.28,0.91-0.65,1.25-1.1c0.34-0.46,0.59-0.98,0.76-1.57
		c0.17-0.59,0.25-1.2,0.25-1.82c0-0.61-0.07-1.22-0.22-1.82c-0.14-0.61-0.38-1.16-0.7-1.66c-0.32-0.5-0.73-0.9-1.24-1.2
		c-0.5-0.3-1.12-0.46-1.84-0.46c-0.72,0-1.34,0.15-1.85,0.44c-0.51,0.3-0.94,0.68-1.27,1.16s-0.58,1.03-0.73,1.64
		c-0.15,0.62-0.23,1.25-0.23,1.88c0,0.62,0.08,1.23,0.24,1.82c0.16,0.59,0.41,1.12,0.74,1.57s0.76,0.82,1.27,1.1
		c0.51,0.28,1.12,0.42,1.82,0.42C62.27,138.18,62.85,138.04,63.35,137.76z"/>
</g>
<g>
	<path class="st1" d="M64.64,13.18v3.7h-3.77v-3.7H64.64z"/>
	<path class="st1" d="M70.64,4.47v2.3h0.05c0.16-0.38,0.38-0.74,0.65-1.07c0.27-0.33,0.58-0.61,0.94-0.84
		c0.35-0.23,0.73-0.41,1.13-0.54s0.82-0.19,1.25-0.19c0.22,0,0.47,0.04,0.74,0.12v3.17c-0.16-0.03-0.35-0.06-0.58-0.08
		S74.37,7.3,74.16,7.3c-0.62,0-1.15,0.1-1.58,0.31c-0.43,0.21-0.78,0.49-1.04,0.85c-0.26,0.36-0.45,0.78-0.56,1.26
		c-0.11,0.48-0.17,1-0.17,1.56v5.59h-3.41V4.47H70.64z"/>
	<path class="st1" d="M79.95,13.9c0.51,0.5,1.25,0.74,2.21,0.74c0.69,0,1.28-0.17,1.78-0.52c0.5-0.34,0.8-0.71,0.91-1.09h3
		c-0.48,1.49-1.22,2.55-2.21,3.19c-0.99,0.64-2.19,0.96-3.6,0.96c-0.98,0-1.86-0.16-2.64-0.47c-0.78-0.31-1.45-0.76-1.99-1.33
		c-0.54-0.58-0.96-1.26-1.26-2.06c-0.3-0.8-0.44-1.68-0.44-2.64c0-0.93,0.15-1.79,0.46-2.59c0.3-0.8,0.74-1.49,1.3-2.08
		c0.56-0.58,1.23-1.04,2-1.38c0.78-0.34,1.64-0.5,2.58-0.5c1.06,0,1.98,0.2,2.76,0.61c0.78,0.41,1.43,0.96,1.93,1.64
		s0.87,1.47,1.09,2.35c0.22,0.88,0.3,1.8,0.24,2.76h-8.95C79.16,12.6,79.43,13.4,79.95,13.9z M83.8,7.37
		c-0.41-0.45-1.03-0.67-1.86-0.67c-0.54,0-1,0.09-1.36,0.28s-0.65,0.41-0.86,0.68c-0.22,0.27-0.37,0.56-0.46,0.86
		c-0.09,0.3-0.14,0.58-0.16,0.82h5.54C84.49,8.48,84.21,7.82,83.8,7.37z"/>
	<path class="st1" d="M93.31,4.47v1.58h0.05c0.42-0.67,0.94-1.16,1.58-1.46c0.64-0.3,1.34-0.46,2.11-0.46
		c0.98,0,1.82,0.18,2.52,0.55s1.29,0.86,1.75,1.46c0.46,0.61,0.81,1.32,1.03,2.12c0.22,0.81,0.34,1.65,0.34,2.53
		c0,0.83-0.11,1.63-0.34,2.4s-0.56,1.45-1.02,2.04s-1.02,1.06-1.7,1.42c-0.68,0.35-1.48,0.53-2.39,0.53c-0.77,0-1.48-0.16-2.12-0.47
		c-0.65-0.31-1.18-0.77-1.6-1.38h-0.05v5.88h-3.41V4.47H93.31z M97.74,14.31c0.38-0.22,0.68-0.52,0.91-0.88
		c0.23-0.36,0.4-0.78,0.49-1.26c0.1-0.48,0.14-0.97,0.14-1.46c0-0.5-0.05-0.98-0.16-1.46s-0.28-0.91-0.52-1.28
		c-0.24-0.38-0.55-0.68-0.92-0.91c-0.38-0.23-0.84-0.35-1.38-0.35c-0.56,0-1.03,0.12-1.4,0.35c-0.38,0.23-0.68,0.53-0.91,0.9
		c-0.23,0.37-0.4,0.79-0.49,1.27c-0.1,0.48-0.14,0.98-0.14,1.49c0,0.5,0.05,0.98,0.16,1.46c0.1,0.48,0.27,0.9,0.5,1.26
		c0.23,0.36,0.54,0.65,0.92,0.88s0.85,0.34,1.39,0.34C96.9,14.64,97.37,14.53,97.74,14.31z"/>
	<path class="st1" d="M108.39,13.9c0.51,0.5,1.25,0.74,2.21,0.74c0.69,0,1.28-0.17,1.78-0.52c0.5-0.34,0.8-0.71,0.91-1.09h3
		c-0.48,1.49-1.22,2.55-2.21,3.19c-0.99,0.64-2.19,0.96-3.6,0.96c-0.98,0-1.86-0.16-2.64-0.47c-0.78-0.31-1.45-0.76-1.99-1.33
		c-0.54-0.58-0.96-1.26-1.26-2.06c-0.3-0.8-0.44-1.68-0.44-2.64c0-0.93,0.15-1.79,0.46-2.59c0.3-0.8,0.74-1.49,1.3-2.08
		c0.56-0.58,1.23-1.04,2-1.38c0.78-0.34,1.64-0.5,2.58-0.5c1.06,0,1.98,0.2,2.76,0.61c0.78,0.41,1.43,0.96,1.93,1.64
		s0.87,1.47,1.09,2.35c0.22,0.88,0.3,1.8,0.24,2.76h-8.95C107.59,12.6,107.87,13.4,108.39,13.9z M112.24,7.37
		c-0.41-0.45-1.03-0.67-1.86-0.67c-0.54,0-1,0.09-1.36,0.28s-0.65,0.41-0.86,0.68c-0.22,0.27-0.37,0.56-0.46,0.86
		c-0.09,0.3-0.14,0.58-0.16,0.82h5.54C112.93,8.48,112.65,7.82,112.24,7.37z"/>
	<path class="st1" d="M118.37,8.28c0.05-0.8,0.25-1.46,0.6-1.99c0.35-0.53,0.8-0.95,1.34-1.27c0.54-0.32,1.16-0.55,1.84-0.68
		c0.68-0.14,1.36-0.2,2.05-0.2c0.62,0,1.26,0.04,1.9,0.13c0.64,0.09,1.22,0.26,1.75,0.52c0.53,0.26,0.96,0.61,1.3,1.07
		c0.34,0.46,0.5,1.06,0.5,1.81v6.46c0,0.56,0.03,1.1,0.1,1.61c0.06,0.51,0.18,0.9,0.34,1.15h-3.46c-0.06-0.19-0.12-0.39-0.16-0.59
		s-0.07-0.4-0.08-0.61c-0.54,0.56-1.18,0.95-1.92,1.18c-0.74,0.22-1.49,0.34-2.26,0.34c-0.59,0-1.14-0.07-1.66-0.22
		c-0.51-0.14-0.96-0.37-1.34-0.67c-0.38-0.3-0.68-0.69-0.9-1.15c-0.22-0.46-0.32-1.02-0.32-1.66c0-0.7,0.12-1.28,0.37-1.74
		c0.25-0.46,0.57-0.82,0.96-1.09c0.39-0.27,0.84-0.48,1.34-0.61c0.5-0.14,1.01-0.24,1.52-0.32s1.02-0.14,1.51-0.19
		c0.5-0.05,0.94-0.12,1.32-0.22c0.38-0.1,0.69-0.24,0.91-0.42c0.22-0.18,0.33-0.45,0.31-0.8c0-0.37-0.06-0.66-0.18-0.88
		c-0.12-0.22-0.28-0.38-0.48-0.5s-0.43-0.2-0.7-0.24s-0.55-0.06-0.85-0.06c-0.67,0-1.2,0.14-1.58,0.43
		c-0.38,0.29-0.61,0.77-0.67,1.44H118.37z M126.24,10.8c-0.14,0.13-0.32,0.23-0.54,0.3c-0.22,0.07-0.45,0.13-0.7,0.18
		c-0.25,0.05-0.51,0.09-0.78,0.12c-0.27,0.03-0.54,0.07-0.82,0.12c-0.26,0.05-0.51,0.11-0.76,0.19c-0.25,0.08-0.46,0.19-0.65,0.32
		c-0.18,0.14-0.33,0.31-0.44,0.52c-0.11,0.21-0.17,0.47-0.17,0.79c0,0.3,0.06,0.56,0.17,0.77c0.11,0.21,0.26,0.37,0.46,0.49
		c0.19,0.12,0.42,0.2,0.67,0.25c0.26,0.05,0.52,0.07,0.79,0.07c0.67,0,1.19-0.11,1.56-0.34c0.37-0.22,0.64-0.49,0.82-0.8
		c0.18-0.31,0.28-0.63,0.32-0.95c0.04-0.32,0.06-0.58,0.06-0.77V10.8z"/>
	<path class="st1" d="M139.11,4.47v2.28h-2.5v6.14c0,0.58,0.1,0.96,0.29,1.15c0.19,0.19,0.58,0.29,1.15,0.29
		c0.19,0,0.38-0.01,0.55-0.02c0.18-0.02,0.34-0.04,0.5-0.07v2.64c-0.29,0.05-0.61,0.08-0.96,0.1c-0.35,0.02-0.7,0.02-1.03,0.02
		c-0.53,0-1.03-0.04-1.5-0.11c-0.47-0.07-0.89-0.21-1.25-0.42c-0.36-0.21-0.64-0.5-0.85-0.89c-0.21-0.38-0.31-0.89-0.31-1.51V6.75
		h-2.06V4.47h2.06V0.75h3.41v3.72H139.11z"/>
</g>
<g>
	<path class="st1" d="M52.58,25.56l-0.31,1.43h0.02c0.24-0.45,0.54-0.81,0.89-1.09c0.35-0.28,0.8-0.42,1.36-0.42h0.2
		c0.04,0,0.08,0,0.11,0c0.03,0,0.06,0,0.1,0.01l-0.17,0.76c-0.07,0-0.14,0-0.22-0.01c-0.07,0-0.14-0.01-0.22-0.01
		c-0.34,0.01-0.63,0.08-0.89,0.2s-0.49,0.3-0.68,0.51c-0.19,0.21-0.35,0.45-0.47,0.73s-0.22,0.55-0.28,0.84l-0.7,3.24h-0.74
		l1.32-6.19H52.58z"/>
	<path class="st1" d="M55.19,29.34c0,0.28,0.04,0.54,0.11,0.78c0.07,0.24,0.18,0.45,0.33,0.62c0.15,0.17,0.34,0.31,0.56,0.41
		c0.23,0.1,0.49,0.15,0.8,0.15c0.5,0,0.93-0.14,1.28-0.43c0.35-0.28,0.6-0.65,0.74-1.11h0.76c-0.21,0.7-0.54,1.24-1.01,1.61
		c-0.46,0.37-1.07,0.55-1.81,0.55c-0.82,0-1.45-0.23-1.88-0.7c-0.43-0.46-0.64-1.1-0.64-1.92c0-0.5,0.07-0.98,0.22-1.45
		c0.15-0.47,0.37-0.89,0.65-1.25s0.64-0.66,1.06-0.89c0.42-0.22,0.89-0.34,1.42-0.34c0.38,0,0.71,0.06,1,0.17
		c0.29,0.12,0.53,0.28,0.74,0.49s0.36,0.47,0.46,0.76s0.16,0.62,0.16,0.98c0,0.18,0,0.35-0.01,0.53c-0.01,0.18-0.02,0.36-0.05,0.54
		h-4.85C55.2,29,55.19,29.16,55.19,29.34z M59.37,27.98c0-0.08,0.01-0.15,0.01-0.23c0-0.53-0.15-0.95-0.45-1.26
		c-0.3-0.31-0.71-0.47-1.24-0.47c-0.31,0-0.6,0.06-0.86,0.19c-0.26,0.12-0.49,0.29-0.7,0.49c-0.2,0.2-0.37,0.44-0.51,0.7
		c-0.14,0.26-0.24,0.54-0.3,0.83h4.04C59.36,28.14,59.37,28.05,59.37,27.98z"/>
	<path class="st1" d="M65.5,26.87c-0.07-0.18-0.17-0.34-0.31-0.46c-0.13-0.12-0.29-0.22-0.48-0.29s-0.39-0.1-0.62-0.1
		c-0.46,0-0.85,0.1-1.18,0.3c-0.33,0.2-0.61,0.46-0.83,0.78c-0.22,0.32-0.39,0.68-0.5,1.08c-0.11,0.4-0.16,0.8-0.16,1.2
		c0,0.27,0.03,0.53,0.1,0.76c0.07,0.24,0.17,0.44,0.32,0.61c0.14,0.17,0.32,0.31,0.54,0.4c0.22,0.1,0.47,0.14,0.77,0.14
		c0.5,0,0.93-0.14,1.28-0.43c0.35-0.29,0.6-0.66,0.76-1.12h0.76c-0.23,0.72-0.58,1.26-1.06,1.63c-0.47,0.36-1.08,0.55-1.84,0.55
		c-0.77,0-1.36-0.23-1.77-0.7c-0.41-0.46-0.62-1.08-0.62-1.85c0-0.48,0.08-0.96,0.23-1.44s0.37-0.91,0.66-1.28
		c0.29-0.38,0.64-0.68,1.06-0.92c0.42-0.24,0.89-0.35,1.42-0.35c0.34,0,0.65,0.04,0.94,0.13s0.54,0.21,0.74,0.39s0.37,0.4,0.48,0.66
		c0.11,0.26,0.16,0.58,0.16,0.94h-0.76C65.6,27.26,65.57,27.05,65.5,26.87z"/>
	<path class="st1" d="M67.64,29.34c0,0.28,0.04,0.54,0.11,0.78c0.07,0.24,0.18,0.45,0.33,0.62c0.15,0.17,0.34,0.31,0.56,0.41
		c0.23,0.1,0.49,0.15,0.8,0.15c0.5,0,0.93-0.14,1.28-0.43c0.35-0.28,0.6-0.65,0.74-1.11h0.76c-0.21,0.7-0.54,1.24-1.01,1.61
		c-0.46,0.37-1.07,0.55-1.81,0.55c-0.82,0-1.45-0.23-1.88-0.7c-0.43-0.46-0.64-1.1-0.64-1.92c0-0.5,0.07-0.98,0.22-1.45
		c0.15-0.47,0.37-0.89,0.65-1.25s0.64-0.66,1.06-0.89c0.42-0.22,0.89-0.34,1.42-0.34c0.38,0,0.71,0.06,1,0.17
		c0.29,0.12,0.53,0.28,0.74,0.49s0.36,0.47,0.46,0.76s0.16,0.62,0.16,0.98c0,0.18,0,0.35-0.01,0.53c-0.01,0.18-0.02,0.36-0.05,0.54
		h-4.85C67.66,29,67.64,29.16,67.64,29.34z M71.83,27.98c0-0.08,0.01-0.15,0.01-0.23c0-0.53-0.15-0.95-0.45-1.26
		c-0.3-0.31-0.71-0.47-1.24-0.47c-0.31,0-0.6,0.06-0.86,0.19c-0.26,0.12-0.49,0.29-0.7,0.49c-0.2,0.2-0.37,0.44-0.51,0.7
		c-0.14,0.26-0.24,0.54-0.3,0.83h4.04C71.82,28.14,71.82,28.05,71.83,27.98z"/>
	<path class="st1" d="M74.9,25.56l-1.33,6.19h-0.74l1.32-6.19H74.9z M75.42,23.18l-0.26,1.21H74.4l0.26-1.21H75.42z"/>
	<path class="st1" d="M76.38,25.56l0.73,5.34h0.02l2.9-5.34h0.83l-3.49,6.19h-0.82l-0.97-6.19H76.38z"/>
	<path class="st1" d="M81.65,29.34c0,0.28,0.04,0.54,0.11,0.78c0.07,0.24,0.18,0.45,0.33,0.62c0.15,0.17,0.34,0.31,0.56,0.41
		c0.23,0.1,0.49,0.15,0.8,0.15c0.5,0,0.93-0.14,1.28-0.43c0.35-0.28,0.6-0.65,0.74-1.11h0.76c-0.21,0.7-0.54,1.24-1.01,1.61
		c-0.46,0.37-1.07,0.55-1.81,0.55c-0.82,0-1.45-0.23-1.88-0.7c-0.43-0.46-0.64-1.1-0.64-1.92c0-0.5,0.07-0.98,0.22-1.45
		c0.15-0.47,0.37-0.89,0.65-1.25s0.64-0.66,1.06-0.89c0.42-0.22,0.89-0.34,1.42-0.34c0.38,0,0.71,0.06,1,0.17
		c0.29,0.12,0.53,0.28,0.74,0.49s0.36,0.47,0.46,0.76s0.16,0.62,0.16,0.98c0,0.18,0,0.35-0.01,0.53c-0.01,0.18-0.02,0.36-0.05,0.54
		h-4.85C81.66,29,81.65,29.16,81.65,29.34z M85.83,27.98c0-0.08,0.01-0.15,0.01-0.23c0-0.53-0.15-0.95-0.45-1.26
		c-0.3-0.31-0.71-0.47-1.24-0.47c-0.31,0-0.6,0.06-0.86,0.19c-0.26,0.12-0.49,0.29-0.7,0.49c-0.2,0.2-0.37,0.44-0.51,0.7
		c-0.14,0.26-0.24,0.54-0.3,0.83h4.04C85.82,28.14,85.83,28.05,85.83,27.98z"/>
	<path class="st1" d="M88.84,25.56l-0.31,1.43h0.02c0.24-0.45,0.54-0.81,0.89-1.09c0.35-0.28,0.8-0.42,1.36-0.42H91
		c0.04,0,0.08,0,0.11,0c0.03,0,0.06,0,0.1,0.01l-0.17,0.76c-0.07,0-0.14,0-0.22-0.01c-0.07,0-0.14-0.01-0.22-0.01
		c-0.34,0.01-0.63,0.08-0.89,0.2s-0.49,0.3-0.68,0.51c-0.19,0.21-0.35,0.45-0.47,0.73s-0.22,0.55-0.28,0.84l-0.7,3.24h-0.74
		l1.32-6.19H88.84z"/>
	<path class="st1" d="M101.79,26.5c0.16-0.26,0.35-0.47,0.58-0.63c0.23-0.16,0.5-0.29,0.79-0.37s0.61-0.12,0.94-0.12
		c0.21,0,0.44,0.02,0.69,0.06s0.49,0.11,0.7,0.22c0.22,0.1,0.4,0.24,0.54,0.42c0.14,0.18,0.22,0.4,0.22,0.68
		c0,0.15-0.01,0.32-0.04,0.5c-0.03,0.18-0.06,0.37-0.1,0.56c-0.04,0.19-0.08,0.37-0.13,0.55c-0.04,0.18-0.08,0.34-0.11,0.47
		c-0.07,0.34-0.13,0.63-0.19,0.86c-0.05,0.23-0.09,0.42-0.13,0.57c-0.03,0.15-0.06,0.28-0.07,0.37c-0.02,0.1-0.02,0.19-0.02,0.29
		c0,0.11,0.04,0.18,0.13,0.21c0.09,0.03,0.18,0.04,0.26,0.04c0.06,0,0.11,0,0.15-0.01c0.04,0,0.09-0.01,0.15-0.02l-0.11,0.59
		c-0.2,0.04-0.41,0.06-0.62,0.06c-0.42,0-0.64-0.22-0.66-0.66c0-0.06,0-0.11,0.01-0.17c0-0.06,0.01-0.11,0.02-0.17l-0.02-0.02
		c-0.22,0.36-0.52,0.64-0.91,0.83s-0.8,0.29-1.24,0.29c-0.29,0-0.55-0.03-0.79-0.1c-0.24-0.06-0.45-0.16-0.62-0.3
		c-0.17-0.14-0.31-0.31-0.41-0.53c-0.1-0.22-0.15-0.48-0.15-0.78c0-0.33,0.06-0.6,0.17-0.83c0.12-0.22,0.27-0.41,0.47-0.55
		c0.2-0.14,0.43-0.26,0.68-0.34s0.52-0.15,0.8-0.2c0.41-0.06,0.78-0.09,1.11-0.09s0.62-0.03,0.86-0.09
		c0.25-0.06,0.43-0.18,0.56-0.35s0.19-0.46,0.19-0.86c0-0.18-0.04-0.33-0.13-0.45c-0.08-0.12-0.19-0.21-0.31-0.27
		s-0.26-0.11-0.42-0.13c-0.16-0.02-0.31-0.04-0.45-0.04c-0.24,0-0.47,0.02-0.68,0.07c-0.22,0.05-0.41,0.13-0.59,0.23
		c-0.18,0.11-0.32,0.25-0.44,0.43c-0.12,0.18-0.19,0.4-0.23,0.65h-0.76C101.53,27.06,101.63,26.75,101.79,26.5z M105.2,28.42
		c-0.06,0.07-0.15,0.13-0.27,0.17c-0.12,0.04-0.24,0.08-0.37,0.1c-0.13,0.02-0.26,0.04-0.39,0.05c-0.13,0.01-0.25,0.02-0.34,0.02
		c-0.23,0.02-0.49,0.04-0.77,0.07c-0.28,0.03-0.55,0.09-0.8,0.18c-0.25,0.09-0.46,0.23-0.62,0.41s-0.25,0.43-0.25,0.76
		c0,0.2,0.04,0.37,0.11,0.51c0.08,0.14,0.18,0.26,0.31,0.35s0.28,0.16,0.44,0.2s0.34,0.06,0.52,0.06c0.61,0,1.1-0.16,1.48-0.49
		c0.38-0.33,0.62-0.77,0.74-1.32l0.24-1.04L105.2,28.42z"/>
	<path class="st1" d="M108.85,25.56l-0.31,1.43h0.02c0.24-0.45,0.54-0.81,0.89-1.09c0.35-0.28,0.8-0.42,1.36-0.42h0.2
		c0.04,0,0.08,0,0.11,0c0.03,0,0.06,0,0.1,0.01l-0.17,0.76c-0.07,0-0.14,0-0.22-0.01c-0.07,0-0.14-0.01-0.22-0.01
		c-0.34,0.01-0.63,0.08-0.89,0.2s-0.49,0.3-0.68,0.51c-0.19,0.21-0.35,0.45-0.47,0.73s-0.22,0.55-0.28,0.84l-0.7,3.24h-0.74
		l1.32-6.19H108.85z"/>
	<path class="st1" d="M115.6,32.5c-0.16,0.39-0.36,0.71-0.6,0.97c-0.24,0.25-0.53,0.44-0.87,0.56s-0.75,0.19-1.23,0.19
		c-0.32,0-0.62-0.04-0.91-0.11c-0.28-0.07-0.53-0.19-0.75-0.34c-0.22-0.16-0.39-0.36-0.52-0.62c-0.13-0.26-0.2-0.57-0.2-0.94h0.74
		c0,0.26,0.05,0.48,0.15,0.66c0.1,0.18,0.23,0.32,0.39,0.42c0.16,0.1,0.34,0.18,0.55,0.22s0.42,0.07,0.65,0.07
		c0.32,0,0.6-0.05,0.83-0.16s0.43-0.24,0.59-0.41c0.16-0.17,0.3-0.36,0.41-0.58c0.11-0.22,0.2-0.44,0.27-0.67
		c0.07-0.22,0.13-0.45,0.18-0.67c0.05-0.22,0.1-0.42,0.14-0.59l-0.02-0.02c-0.21,0.37-0.51,0.65-0.9,0.85
		c-0.39,0.2-0.8,0.29-1.21,0.29c-0.37,0-0.7-0.06-0.98-0.19c-0.29-0.13-0.53-0.31-0.72-0.53c-0.19-0.23-0.34-0.49-0.44-0.8
		c-0.1-0.3-0.15-0.64-0.15-1c0-0.46,0.07-0.91,0.22-1.35c0.14-0.44,0.35-0.84,0.62-1.19s0.6-0.64,1-0.85
		c0.39-0.22,0.84-0.32,1.33-0.32c0.23,0,0.46,0.03,0.68,0.09c0.22,0.06,0.43,0.15,0.62,0.27c0.19,0.12,0.35,0.27,0.47,0.46
		c0.13,0.18,0.21,0.4,0.25,0.64h0.02l0.26-1.27h0.7L116,31.1C115.89,31.64,115.76,32.1,115.6,32.5z M111.85,29.78
		c0.06,0.23,0.17,0.44,0.31,0.62c0.14,0.18,0.31,0.32,0.52,0.43c0.21,0.1,0.46,0.16,0.74,0.16c0.38,0,0.73-0.09,1.03-0.28
		c0.3-0.19,0.56-0.43,0.78-0.73c0.22-0.3,0.38-0.63,0.49-1c0.11-0.36,0.17-0.72,0.17-1.06c0-0.27-0.03-0.52-0.09-0.76
		c-0.06-0.23-0.16-0.43-0.29-0.6c-0.14-0.17-0.31-0.3-0.53-0.4c-0.22-0.1-0.48-0.14-0.78-0.14c-0.38,0-0.73,0.09-1.03,0.28
		c-0.3,0.18-0.56,0.42-0.77,0.71s-0.37,0.62-0.48,0.97s-0.16,0.71-0.16,1.06C111.76,29.3,111.79,29.55,111.85,29.78z"/>
	<path class="st1" d="M121.55,31.75l0.22-1.13h-0.02c-0.23,0.37-0.54,0.68-0.93,0.92c-0.39,0.25-0.81,0.37-1.28,0.37
		c-0.27,0-0.52-0.03-0.75-0.09s-0.43-0.16-0.59-0.29s-0.3-0.3-0.39-0.52s-0.14-0.47-0.14-0.76c0-0.17,0.03-0.41,0.1-0.73l0.85-3.97
		h0.76l-0.86,4c-0.02,0.1-0.04,0.2-0.06,0.31s-0.02,0.21-0.02,0.32c0,0.2,0.04,0.37,0.11,0.52s0.17,0.26,0.29,0.35
		s0.26,0.15,0.41,0.19c0.16,0.04,0.32,0.06,0.49,0.06c0.28,0,0.55-0.06,0.8-0.18c0.25-0.12,0.48-0.29,0.7-0.51
		c0.21-0.22,0.4-0.49,0.56-0.8c0.16-0.32,0.28-0.67,0.37-1.06l0.68-3.18h0.76l-1.33,6.19H121.55z"/>
	<path class="st1" d="M125.76,25.56l-0.24,1.08l0.02,0.02c0.22-0.36,0.53-0.66,0.91-0.91c0.38-0.25,0.81-0.37,1.27-0.37
		c0.43,0,0.78,0.11,1.04,0.33c0.26,0.22,0.42,0.55,0.46,0.99h0.02c0.24-0.38,0.55-0.7,0.92-0.95s0.79-0.37,1.25-0.37
		c0.6,0,1.04,0.15,1.31,0.46c0.27,0.3,0.41,0.7,0.41,1.18c0,0.11-0.01,0.23-0.02,0.34c-0.02,0.12-0.04,0.24-0.06,0.37l-0.86,4.03
		h-0.76l0.88-4.06c0.05-0.22,0.07-0.42,0.07-0.62c0-0.3-0.09-0.56-0.28-0.76c-0.19-0.2-0.49-0.3-0.89-0.3
		c-0.33,0-0.61,0.08-0.86,0.23s-0.46,0.36-0.64,0.62c-0.18,0.26-0.33,0.56-0.45,0.91s-0.22,0.72-0.31,1.12l-0.61,2.86h-0.76
		l0.86-4.03c0.05-0.21,0.07-0.41,0.07-0.6c0-0.3-0.08-0.56-0.25-0.78c-0.16-0.22-0.43-0.32-0.8-0.32c-0.27,0-0.53,0.07-0.78,0.2
		c-0.25,0.14-0.47,0.32-0.67,0.55c-0.2,0.23-0.37,0.51-0.52,0.82c-0.15,0.32-0.26,0.65-0.34,1.01l-0.67,3.14h-0.74l1.32-6.19H125.76
		z"/>
	<path class="st1" d="M134.78,29.34c0,0.28,0.04,0.54,0.11,0.78c0.07,0.24,0.18,0.45,0.33,0.62c0.15,0.17,0.34,0.31,0.56,0.41
		c0.23,0.1,0.49,0.15,0.8,0.15c0.5,0,0.93-0.14,1.28-0.43c0.35-0.28,0.6-0.65,0.74-1.11h0.76c-0.21,0.7-0.54,1.24-1.01,1.61
		c-0.46,0.37-1.07,0.55-1.81,0.55c-0.82,0-1.45-0.23-1.88-0.7c-0.43-0.46-0.64-1.1-0.64-1.92c0-0.5,0.07-0.98,0.22-1.45
		c0.15-0.47,0.37-0.89,0.65-1.25s0.64-0.66,1.06-0.89c0.42-0.22,0.89-0.34,1.42-0.34c0.38,0,0.71,0.06,1,0.17
		c0.29,0.12,0.53,0.28,0.74,0.49s0.36,0.47,0.46,0.76s0.16,0.62,0.16,0.98c0,0.18,0,0.35-0.01,0.53c-0.01,0.18-0.02,0.36-0.05,0.54
		h-4.85C134.8,29,134.78,29.16,134.78,29.34z M138.97,27.98c0-0.08,0.01-0.15,0.01-0.23c0-0.53-0.15-0.95-0.45-1.26
		c-0.3-0.31-0.71-0.47-1.24-0.47c-0.31,0-0.6,0.06-0.86,0.19c-0.26,0.12-0.49,0.29-0.7,0.49c-0.2,0.2-0.37,0.44-0.51,0.7
		c-0.14,0.26-0.24,0.54-0.3,0.83h4.04C138.96,28.14,138.96,28.05,138.97,27.98z"/>
	<path class="st1" d="M141.98,25.56l-0.22,1.13h0.02c0.23-0.37,0.54-0.68,0.93-0.93c0.39-0.25,0.81-0.38,1.28-0.38
		c0.27,0,0.52,0.03,0.75,0.1s0.43,0.16,0.59,0.29s0.3,0.3,0.39,0.52c0.09,0.21,0.14,0.47,0.14,0.76c0,0.17-0.03,0.41-0.1,0.73
		l-0.85,3.97h-0.76l0.86-4c0.02-0.1,0.04-0.2,0.06-0.31c0.02-0.11,0.02-0.21,0.02-0.32c0-0.21-0.04-0.38-0.11-0.52
		c-0.07-0.14-0.17-0.25-0.29-0.34c-0.12-0.09-0.26-0.15-0.41-0.19c-0.16-0.04-0.32-0.06-0.49-0.06c-0.27,0-0.54,0.06-0.79,0.18
		c-0.26,0.12-0.49,0.29-0.71,0.51c-0.22,0.22-0.4,0.49-0.56,0.8c-0.16,0.32-0.28,0.67-0.36,1.06l-0.68,3.18h-0.74l1.32-6.19H141.98z
		"/>
	<path class="st1" d="M148.16,25.56l0.4-1.87h0.76l-0.4,1.87h1.24l-0.12,0.64h-1.26l-0.85,3.97c-0.03,0.14-0.05,0.25-0.07,0.33
		c-0.01,0.08-0.02,0.16-0.02,0.26c0,0.11,0.03,0.21,0.09,0.3c0.06,0.09,0.16,0.13,0.31,0.13c0.3,0,0.59-0.02,0.89-0.07l-0.13,0.65
		c-0.13,0.02-0.26,0.03-0.38,0.04c-0.13,0.01-0.26,0.01-0.38,0.01c-0.14,0-0.28-0.01-0.42-0.03c-0.14-0.02-0.26-0.06-0.37-0.13
		c-0.11-0.06-0.19-0.15-0.26-0.27c-0.06-0.12-0.1-0.27-0.1-0.45c0-0.06,0.01-0.15,0.02-0.26c0.01-0.11,0.03-0.24,0.07-0.37l0.85-4.1
		h-1.12l0.14-0.64H148.16z"/>
	<path class="st1" d="M150.98,30.49c0.1,0.2,0.23,0.36,0.4,0.48c0.16,0.12,0.35,0.2,0.56,0.25c0.21,0.05,0.43,0.07,0.64,0.07
		c0.17,0,0.34-0.02,0.53-0.07s0.35-0.11,0.5-0.2c0.15-0.09,0.28-0.21,0.38-0.35s0.15-0.32,0.15-0.52c0-0.21-0.05-0.38-0.15-0.52
		c-0.1-0.14-0.23-0.25-0.38-0.35c-0.16-0.1-0.33-0.19-0.53-0.26c-0.2-0.08-0.4-0.15-0.6-0.23c-0.2-0.08-0.4-0.17-0.6-0.26
		c-0.2-0.09-0.38-0.2-0.53-0.34c-0.16-0.13-0.28-0.29-0.38-0.47c-0.1-0.18-0.14-0.4-0.14-0.65c0-0.3,0.07-0.56,0.22-0.77
		c0.14-0.21,0.33-0.39,0.55-0.52c0.22-0.14,0.47-0.24,0.74-0.3s0.53-0.1,0.78-0.1c0.33,0,0.63,0.04,0.9,0.11
		c0.27,0.07,0.51,0.19,0.7,0.35c0.2,0.16,0.35,0.37,0.46,0.62s0.16,0.56,0.15,0.92h-0.76c0.02-0.24-0.01-0.44-0.08-0.61
		c-0.07-0.17-0.17-0.31-0.31-0.42c-0.13-0.11-0.29-0.19-0.47-0.25c-0.18-0.05-0.38-0.08-0.59-0.08c-0.17,0-0.34,0.02-0.52,0.05
		c-0.18,0.03-0.34,0.09-0.49,0.16s-0.27,0.18-0.37,0.32c-0.1,0.14-0.15,0.31-0.15,0.53c0,0.14,0.04,0.27,0.11,0.38
		c0.07,0.11,0.17,0.21,0.29,0.3c0.12,0.09,0.26,0.17,0.41,0.24c0.16,0.07,0.32,0.14,0.5,0.22c0.22,0.09,0.44,0.18,0.68,0.27
		c0.24,0.09,0.45,0.21,0.65,0.34c0.2,0.14,0.36,0.3,0.49,0.49c0.13,0.19,0.2,0.43,0.2,0.72c0,0.35-0.07,0.65-0.22,0.89
		c-0.15,0.24-0.34,0.43-0.58,0.58c-0.24,0.15-0.51,0.25-0.8,0.32c-0.3,0.06-0.59,0.1-0.89,0.1c-0.3,0-0.6-0.04-0.88-0.12
		c-0.28-0.08-0.53-0.21-0.75-0.38c-0.22-0.18-0.39-0.4-0.52-0.68c-0.13-0.28-0.18-0.61-0.17-1h0.74
		C150.83,30.04,150.88,30.29,150.98,30.49z"/>
</g>
<g>
	<path class="st1" d="M4.61,103.03v1.68h0.05c0.45-0.64,0.99-1.14,1.62-1.49c0.63-0.35,1.36-0.53,2.17-0.53
		c0.78,0,1.5,0.15,2.15,0.46c0.65,0.3,1.14,0.84,1.48,1.61c0.37-0.54,0.87-1.02,1.5-1.44c0.63-0.42,1.38-0.62,2.24-0.62
		c0.66,0,1.26,0.08,1.82,0.24c0.56,0.16,1.04,0.42,1.44,0.77c0.4,0.35,0.71,0.81,0.94,1.38c0.22,0.57,0.34,1.25,0.34,2.05v8.3h-3.41
		v-7.03c0-0.42-0.02-0.81-0.05-1.18c-0.03-0.37-0.12-0.69-0.26-0.96c-0.14-0.27-0.36-0.49-0.64-0.65c-0.28-0.16-0.66-0.24-1.14-0.24
		s-0.87,0.09-1.16,0.28c-0.3,0.18-0.53,0.42-0.7,0.72s-0.28,0.63-0.34,1.01c-0.06,0.38-0.08,0.76-0.08,1.14v6.91H9.17v-6.96
		c0-0.37-0.01-0.73-0.02-1.09c-0.02-0.36-0.08-0.69-0.2-1c-0.12-0.3-0.32-0.55-0.6-0.73c-0.28-0.18-0.69-0.28-1.24-0.28
		c-0.16,0-0.37,0.04-0.64,0.11c-0.26,0.07-0.52,0.21-0.77,0.41c-0.25,0.2-0.46,0.49-0.64,0.86c-0.18,0.38-0.26,0.87-0.26,1.48v7.2
		H1.39v-12.41H4.61z"/>
	<path class="st1" d="M22.9,106.85c0.05-0.8,0.25-1.46,0.6-1.99c0.35-0.53,0.8-0.95,1.34-1.27c0.54-0.32,1.16-0.55,1.84-0.68
		c0.68-0.14,1.36-0.2,2.05-0.2c0.62,0,1.26,0.04,1.9,0.13c0.64,0.09,1.22,0.26,1.75,0.52c0.53,0.26,0.96,0.61,1.3,1.07
		c0.34,0.46,0.5,1.06,0.5,1.81v6.46c0,0.56,0.03,1.1,0.1,1.61c0.06,0.51,0.18,0.9,0.34,1.15h-3.46c-0.06-0.19-0.12-0.39-0.16-0.59
		s-0.07-0.4-0.08-0.61c-0.54,0.56-1.18,0.95-1.92,1.18c-0.74,0.22-1.49,0.34-2.26,0.34c-0.59,0-1.14-0.07-1.66-0.22
		c-0.51-0.14-0.96-0.37-1.34-0.67c-0.38-0.3-0.68-0.69-0.9-1.15c-0.22-0.46-0.32-1.02-0.32-1.66c0-0.7,0.12-1.28,0.37-1.74
		c0.25-0.46,0.57-0.82,0.96-1.09c0.39-0.27,0.84-0.48,1.34-0.61c0.5-0.14,1.01-0.24,1.52-0.32s1.02-0.14,1.51-0.19
		c0.5-0.05,0.94-0.12,1.32-0.22c0.38-0.1,0.69-0.24,0.91-0.42s0.33-0.45,0.31-0.8c0-0.37-0.06-0.66-0.18-0.88
		c-0.12-0.22-0.28-0.38-0.48-0.5s-0.43-0.2-0.7-0.24s-0.55-0.06-0.85-0.06c-0.67,0-1.2,0.14-1.58,0.43
		c-0.38,0.29-0.61,0.77-0.67,1.44H22.9z M30.77,109.37c-0.14,0.13-0.32,0.23-0.54,0.3c-0.22,0.07-0.45,0.13-0.7,0.18
		c-0.25,0.05-0.51,0.09-0.78,0.12s-0.54,0.07-0.82,0.12c-0.26,0.05-0.51,0.11-0.76,0.19c-0.25,0.08-0.46,0.19-0.65,0.32
		c-0.18,0.14-0.33,0.31-0.44,0.52c-0.11,0.21-0.17,0.47-0.17,0.79c0,0.3,0.06,0.56,0.17,0.77c0.11,0.21,0.26,0.37,0.46,0.49
		c0.19,0.12,0.42,0.2,0.67,0.25c0.26,0.05,0.52,0.07,0.79,0.07c0.67,0,1.19-0.11,1.56-0.34c0.37-0.22,0.64-0.49,0.82-0.8
		c0.18-0.31,0.28-0.63,0.32-0.95c0.04-0.32,0.06-0.58,0.06-0.77V109.37z"/>
	<path class="st1" d="M39.68,112.36c0.15,0.26,0.35,0.48,0.59,0.65c0.24,0.17,0.52,0.29,0.83,0.37s0.64,0.12,0.97,0.12
		c0.24,0,0.49-0.03,0.76-0.08c0.26-0.06,0.5-0.14,0.72-0.26c0.22-0.12,0.4-0.28,0.54-0.48s0.22-0.45,0.22-0.76
		c0-0.51-0.34-0.9-1.02-1.15c-0.68-0.26-1.63-0.51-2.84-0.77c-0.5-0.11-0.98-0.24-1.45-0.4c-0.47-0.15-0.89-0.35-1.26-0.6
		c-0.37-0.25-0.66-0.56-0.89-0.94s-0.34-0.84-0.34-1.38c0-0.8,0.16-1.46,0.47-1.97s0.72-0.92,1.24-1.21c0.51-0.3,1.09-0.5,1.73-0.62
		c0.64-0.12,1.3-0.18,1.97-0.18c0.67,0,1.32,0.06,1.96,0.19c0.63,0.13,1.2,0.34,1.69,0.65c0.5,0.3,0.91,0.71,1.24,1.21
		c0.33,0.5,0.52,1.14,0.59,1.91h-3.24c-0.05-0.66-0.3-1.1-0.74-1.33c-0.45-0.23-0.98-0.35-1.58-0.35c-0.19,0-0.4,0.01-0.62,0.04
		c-0.22,0.02-0.43,0.08-0.61,0.16s-0.34,0.2-0.47,0.35c-0.13,0.15-0.19,0.36-0.19,0.61c0,0.3,0.11,0.55,0.34,0.74
		c0.22,0.19,0.52,0.35,0.88,0.47s0.77,0.23,1.24,0.32c0.46,0.1,0.94,0.2,1.42,0.31c0.5,0.11,0.98,0.25,1.45,0.41
		c0.47,0.16,0.89,0.37,1.26,0.64c0.37,0.26,0.66,0.59,0.89,0.98s0.34,0.88,0.34,1.45c0,0.82-0.16,1.5-0.49,2.05
		c-0.33,0.55-0.76,1-1.28,1.33s-1.13,0.57-1.81,0.71c-0.68,0.14-1.37,0.2-2.08,0.2c-0.72,0-1.42-0.07-2.11-0.22
		c-0.69-0.14-1.3-0.38-1.84-0.72c-0.54-0.34-0.98-0.78-1.32-1.33c-0.34-0.55-0.53-1.24-0.56-2.08h3.24
		C39.46,111.78,39.53,112.09,39.68,112.36z"/>
	<path class="st1" d="M55.63,105.26c-0.54,0-1,0.12-1.37,0.37c-0.37,0.25-0.67,0.57-0.9,0.96c-0.23,0.39-0.4,0.82-0.49,1.3
		c-0.1,0.47-0.14,0.94-0.14,1.4c0,0.45,0.05,0.9,0.14,1.37c0.1,0.46,0.25,0.88,0.47,1.26c0.22,0.38,0.51,0.68,0.88,0.92
		c0.37,0.24,0.82,0.36,1.34,0.36c0.82,0,1.44-0.23,1.88-0.68c0.44-0.46,0.72-1.07,0.83-1.84h3.29c-0.22,1.65-0.86,2.9-1.92,3.77
		c-1.06,0.86-2.41,1.3-4.06,1.3c-0.93,0-1.78-0.16-2.56-0.47c-0.78-0.31-1.44-0.75-1.98-1.31c-0.54-0.56-0.97-1.23-1.27-2
		c-0.3-0.78-0.46-1.63-0.46-2.56c0-0.96,0.14-1.85,0.42-2.68c0.28-0.82,0.69-1.54,1.24-2.14c0.54-0.6,1.21-1.07,1.99-1.4
		c0.78-0.34,1.68-0.5,2.69-0.5c0.74,0,1.44,0.1,2.12,0.29c0.68,0.19,1.29,0.48,1.82,0.88c0.54,0.39,0.97,0.88,1.31,1.46
		c0.34,0.58,0.53,1.28,0.58,2.08h-3.34C57.93,105.98,57.09,105.26,55.63,105.26z"/>
	<path class="st1" d="M63.55,106.55c0.3-0.81,0.74-1.5,1.3-2.06c0.56-0.57,1.23-1.01,2.02-1.32c0.78-0.31,1.66-0.47,2.64-0.47
		s1.86,0.16,2.65,0.47c0.79,0.31,1.47,0.75,2.03,1.32c0.56,0.57,0.99,1.26,1.3,2.06c0.3,0.81,0.46,1.71,0.46,2.7
		s-0.15,1.89-0.46,2.69c-0.3,0.8-0.74,1.48-1.3,2.05c-0.56,0.57-1.24,1-2.03,1.31s-1.68,0.46-2.65,0.46s-1.86-0.15-2.64-0.46
		c-0.78-0.3-1.46-0.74-2.02-1.31c-0.56-0.57-0.99-1.25-1.3-2.05c-0.3-0.8-0.46-1.7-0.46-2.69S63.25,107.36,63.55,106.55z
		 M66.65,110.7c0.1,0.47,0.26,0.9,0.49,1.27c0.23,0.38,0.54,0.68,0.92,0.9c0.38,0.22,0.86,0.34,1.44,0.34
		c0.58,0,1.06-0.11,1.45-0.34c0.39-0.22,0.7-0.52,0.94-0.9s0.4-0.8,0.49-1.27c0.1-0.47,0.14-0.96,0.14-1.45s-0.05-0.98-0.14-1.46
		c-0.1-0.48-0.26-0.9-0.49-1.27s-0.54-0.67-0.94-0.9c-0.39-0.23-0.88-0.35-1.45-0.35c-0.58,0-1.06,0.12-1.44,0.35
		c-0.38,0.23-0.69,0.53-0.92,0.9c-0.23,0.37-0.4,0.79-0.49,1.27c-0.1,0.48-0.14,0.97-0.14,1.46S66.55,110.23,66.65,110.7z"/>
	<path class="st1" d="M84.96,103.03v2.28h-2.5v6.14c0,0.58,0.1,0.96,0.29,1.15c0.19,0.19,0.58,0.29,1.15,0.29
		c0.19,0,0.38-0.01,0.55-0.02c0.18-0.02,0.34-0.04,0.5-0.07v2.64c-0.29,0.05-0.61,0.08-0.96,0.1c-0.35,0.02-0.7,0.02-1.03,0.02
		c-0.53,0-1.03-0.04-1.5-0.11c-0.47-0.07-0.89-0.21-1.25-0.42c-0.36-0.21-0.64-0.5-0.85-0.89c-0.21-0.38-0.31-0.89-0.31-1.51v-7.32
		h-2.06v-2.28h2.06v-3.72h3.41v3.72H84.96z"/>
</g>
<g>
	<path class="st1" d="M162.39,105.43c0.42-0.03,0.8-0.12,1.16-0.28c0.36-0.15,0.66-0.37,0.89-0.66c0.23-0.29,0.35-0.67,0.35-1.15
		c0-0.72-0.24-1.27-0.72-1.66s-1.03-0.58-1.66-0.58c-0.86,0-1.52,0.28-1.96,0.85s-0.65,1.28-0.64,2.15h-3.24
		c0.03-0.86,0.19-1.65,0.47-2.36c0.28-0.71,0.67-1.32,1.18-1.84c0.5-0.51,1.11-0.91,1.81-1.19c0.7-0.28,1.49-0.42,2.35-0.42
		c0.67,0,1.34,0.1,2.02,0.3c0.67,0.2,1.28,0.5,1.81,0.9c0.54,0.4,0.97,0.89,1.31,1.46s0.5,1.24,0.5,1.99c0,0.82-0.2,1.54-0.59,2.16
		c-0.39,0.62-0.98,1.05-1.76,1.27v0.05c0.93,0.21,1.66,0.66,2.18,1.34c0.53,0.69,0.79,1.51,0.79,2.47c0,0.88-0.17,1.66-0.52,2.35
		c-0.34,0.69-0.8,1.26-1.38,1.73c-0.58,0.46-1.24,0.82-1.99,1.06s-1.54,0.36-2.35,0.36c-0.94,0-1.8-0.14-2.58-0.41
		s-1.44-0.67-1.98-1.19c-0.54-0.52-0.96-1.16-1.26-1.91c-0.3-0.75-0.44-1.62-0.42-2.59h3.24c0.02,0.45,0.09,0.88,0.22,1.28
		c0.13,0.41,0.31,0.76,0.55,1.06c0.24,0.3,0.54,0.53,0.9,0.71c0.36,0.18,0.79,0.26,1.28,0.26c0.77,0,1.42-0.24,1.94-0.71
		c0.53-0.47,0.79-1.12,0.79-1.93c0-0.64-0.12-1.13-0.37-1.46s-0.56-0.58-0.95-0.73c-0.38-0.15-0.8-0.24-1.26-0.26
		c-0.46-0.02-0.89-0.04-1.31-0.04v-2.4C161.59,105.46,161.98,105.46,162.39,105.43z"/>
</g>
<line class="st2" x1="123.73" y1="34.21" x2="157.99" y2="95.47"/>
<line class="st2" x1="72.03" y1="34.21" x2="39.59" y2="95.04"/>
</svg>
