<?xml version="1.0" encoding="utf-8"?>
<!-- Generator: Adobe Illustrator 28.1.0, SVG Export Plug-In . SVG Version: 6.00 Build 0)  -->
<svg version="1.1" id="Layer_1" xmlns="http://www.w3.org/2000/svg" xmlns:xlink="http://www.w3.org/1999/xlink" x="0px" y="0px"
	 viewBox="0 0 415.02 202.33" style="enable-background:new 0 0 415.02 202.33;" xml:space="preserve">
<style type="text/css">
	.st0{fill:#00D4FF;}
	.st1{fill:#221F20;}
	.st2{opacity:0.5;fill:none;stroke:#5E55E0;stroke-width:2;stroke-miterlimit:10;}
	.st3{fill:#E06837;}
	.st4{fill:#575757;}
</style>
<g>
	<path class="st0" d="M87.84,0.35v5.83h-1.51V0.35H87.84z M91.03,0.35v5.83h-1.51V0.35H91.03z"/>
	<path class="st0" d="M106.67,3.77c-0.33-0.52-0.73-0.96-1.2-1.31c-0.47-0.35-0.99-0.62-1.56-0.8s-1.16-0.28-1.79-0.28
		c-1.14,0-2.11,0.22-2.93,0.65c-0.82,0.43-1.48,1-2,1.72c-0.52,0.71-0.9,1.52-1.15,2.41c-0.25,0.9-0.37,1.82-0.37,2.76
		c0,0.93,0.12,1.84,0.37,2.75c0.25,0.9,0.63,1.71,1.15,2.42c0.52,0.71,1.19,1.28,2,1.72c0.82,0.43,1.79,0.65,2.93,0.65
		c0.8,0,1.52-0.14,2.16-0.43s1.19-0.68,1.66-1.18c0.46-0.5,0.84-1.08,1.13-1.74s0.47-1.38,0.55-2.15h1.63
		c-0.11,1.06-0.36,2.01-0.74,2.86c-0.38,0.85-0.88,1.57-1.49,2.16c-0.61,0.59-1.32,1.05-2.15,1.37c-0.82,0.32-1.74,0.48-2.75,0.48
		c-1.34,0-2.52-0.24-3.54-0.73c-1.02-0.49-1.86-1.14-2.53-1.96c-0.67-0.82-1.18-1.76-1.51-2.83c-0.34-1.07-0.5-2.2-0.5-3.38
		c0-1.18,0.17-2.31,0.5-3.38s0.84-2.02,1.51-2.84c0.67-0.82,1.52-1.48,2.53-1.97c1.02-0.49,2.2-0.73,3.54-0.73
		c0.82,0,1.61,0.12,2.39,0.36c0.78,0.24,1.48,0.6,2.11,1.07c0.63,0.47,1.16,1.05,1.58,1.74c0.42,0.69,0.69,1.48,0.8,2.38h-1.63
		C107.23,4.88,106.99,4.29,106.67,3.77z"/>
	<path class="st0" d="M119.19,5.27c0.73,0.35,1.34,0.82,1.84,1.42s0.87,1.28,1.13,2.08s0.38,1.64,0.38,2.53
		c0,0.9-0.13,1.74-0.38,2.53s-0.63,1.48-1.13,2.08s-1.11,1.06-1.84,1.4c-0.73,0.34-1.56,0.52-2.51,0.52c-0.94,0-1.78-0.17-2.51-0.52
		c-0.73-0.34-1.34-0.81-1.84-1.4c-0.5-0.59-0.87-1.28-1.13-2.08c-0.26-0.79-0.38-1.64-0.38-2.53c0-0.9,0.13-1.74,0.38-2.53
		c0.25-0.79,0.63-1.48,1.13-2.08c0.5-0.59,1.11-1.06,1.84-1.42c0.73-0.35,1.56-0.53,2.51-0.53C117.63,4.74,118.47,4.92,119.19,5.27z
		 M114.79,6.47c-0.54,0.3-1,0.71-1.36,1.2c-0.36,0.5-0.63,1.06-0.82,1.69s-0.28,1.28-0.28,1.93c0,0.66,0.09,1.3,0.28,1.93
		c0.18,0.63,0.46,1.2,0.82,1.69c0.36,0.5,0.81,0.9,1.36,1.2s1.18,0.46,1.9,0.46s1.35-0.15,1.9-0.46s1-0.7,1.36-1.2
		s0.63-1.06,0.82-1.69c0.18-0.63,0.28-1.28,0.28-1.93c0-0.66-0.09-1.3-0.28-1.93c-0.18-0.63-0.46-1.2-0.82-1.69
		c-0.36-0.5-0.81-0.9-1.36-1.2c-0.54-0.3-1.18-0.46-1.9-0.46S115.33,6.17,114.79,6.47z"/>
	<path class="st0" d="M136.91,3.77c-0.33-0.52-0.73-0.96-1.2-1.31c-0.47-0.35-0.99-0.62-1.56-0.8c-0.57-0.18-1.16-0.28-1.79-0.28
		c-1.14,0-2.11,0.22-2.93,0.65c-0.82,0.43-1.48,1-2,1.72c-0.52,0.71-0.9,1.52-1.15,2.41c-0.25,0.9-0.37,1.82-0.37,2.76
		c0,0.93,0.12,1.84,0.37,2.75c0.25,0.9,0.63,1.71,1.15,2.42c0.52,0.71,1.19,1.28,2,1.72c0.82,0.43,1.79,0.65,2.93,0.65
		c0.8,0,1.52-0.14,2.16-0.43c0.64-0.29,1.19-0.68,1.66-1.18c0.46-0.5,0.84-1.08,1.13-1.74s0.47-1.38,0.55-2.15h1.63
		c-0.11,1.06-0.36,2.01-0.74,2.86c-0.38,0.85-0.88,1.57-1.49,2.16c-0.61,0.59-1.32,1.05-2.15,1.37c-0.82,0.32-1.74,0.48-2.75,0.48
		c-1.34,0-2.52-0.24-3.54-0.73c-1.02-0.49-1.86-1.14-2.53-1.96c-0.67-0.82-1.18-1.76-1.51-2.83c-0.34-1.07-0.5-2.2-0.5-3.38
		c0-1.18,0.17-2.31,0.5-3.38s0.84-2.02,1.51-2.84s1.52-1.48,2.53-1.97c1.02-0.49,2.2-0.73,3.54-0.73c0.82,0,1.61,0.12,2.39,0.36
		c0.78,0.24,1.48,0.6,2.11,1.07c0.63,0.47,1.16,1.05,1.58,1.74c0.42,0.69,0.69,1.48,0.8,2.38h-1.63
		C137.47,4.88,137.23,4.29,136.91,3.77z"/>
	<path class="st0" d="M149.44,5.27c0.73,0.35,1.34,0.82,1.84,1.42c0.5,0.59,0.87,1.28,1.13,2.08c0.26,0.79,0.38,1.64,0.38,2.53
		c0,0.9-0.13,1.74-0.38,2.53c-0.26,0.79-0.63,1.48-1.13,2.08c-0.5,0.59-1.11,1.06-1.84,1.4c-0.73,0.34-1.56,0.52-2.51,0.52
		s-1.78-0.17-2.51-0.52c-0.73-0.34-1.34-0.81-1.84-1.4s-0.87-1.28-1.13-2.08s-0.38-1.64-0.38-2.53c0-0.9,0.13-1.74,0.38-2.53
		s0.63-1.48,1.13-2.08s1.11-1.06,1.84-1.42c0.73-0.35,1.56-0.53,2.51-0.53S148.71,4.92,149.44,5.27z M145.03,6.47
		c-0.54,0.3-1,0.71-1.36,1.2c-0.36,0.5-0.63,1.06-0.82,1.69c-0.18,0.63-0.28,1.28-0.28,1.93c0,0.66,0.09,1.3,0.28,1.93
		c0.18,0.63,0.46,1.2,0.82,1.69c0.36,0.5,0.81,0.9,1.36,1.2s1.18,0.46,1.9,0.46c0.72,0,1.35-0.15,1.9-0.46s1-0.7,1.36-1.2
		c0.36-0.5,0.63-1.06,0.82-1.69c0.18-0.63,0.28-1.28,0.28-1.93c0-0.66-0.09-1.3-0.28-1.93c-0.18-0.63-0.46-1.2-0.82-1.69
		c-0.36-0.5-0.81-0.9-1.36-1.2c-0.54-0.3-1.18-0.46-1.9-0.46C146.21,6.02,145.57,6.17,145.03,6.47z"/>
	<path class="st0" d="M167.15,3.77c-0.33-0.52-0.73-0.96-1.2-1.31c-0.47-0.35-0.99-0.62-1.56-0.8c-0.57-0.18-1.16-0.28-1.79-0.28
		c-1.14,0-2.11,0.22-2.93,0.65c-0.82,0.43-1.48,1-2,1.72c-0.52,0.71-0.9,1.52-1.15,2.41c-0.25,0.9-0.37,1.82-0.37,2.76
		c0,0.93,0.12,1.84,0.37,2.75c0.25,0.9,0.63,1.71,1.15,2.42c0.52,0.71,1.19,1.28,2,1.72c0.82,0.43,1.79,0.65,2.93,0.65
		c0.8,0,1.52-0.14,2.16-0.43c0.64-0.29,1.19-0.68,1.66-1.18c0.46-0.5,0.84-1.08,1.13-1.74s0.47-1.38,0.55-2.15h1.63
		c-0.11,1.06-0.36,2.01-0.74,2.86c-0.38,0.85-0.88,1.57-1.49,2.16c-0.61,0.59-1.32,1.05-2.15,1.37c-0.82,0.32-1.74,0.48-2.75,0.48
		c-1.34,0-2.52-0.24-3.54-0.73c-1.02-0.49-1.86-1.14-2.53-1.96c-0.67-0.82-1.18-1.76-1.51-2.83c-0.34-1.07-0.5-2.2-0.5-3.38
		c0-1.18,0.17-2.31,0.5-3.38s0.84-2.02,1.51-2.84s1.52-1.48,2.53-1.97c1.02-0.49,2.2-0.73,3.54-0.73c0.82,0,1.61,0.12,2.39,0.36
		c0.78,0.24,1.48,0.6,2.11,1.07c0.63,0.47,1.16,1.05,1.58,1.74c0.42,0.69,0.69,1.48,0.8,2.38h-1.63
		C167.71,4.88,167.48,4.29,167.15,3.77z"/>
	<path class="st0" d="M179.67,5.27c0.73,0.35,1.34,0.82,1.84,1.42s0.87,1.28,1.13,2.08s0.38,1.64,0.38,2.53
		c0,0.9-0.13,1.74-0.38,2.53s-0.63,1.48-1.13,2.08s-1.11,1.06-1.84,1.4c-0.73,0.34-1.56,0.52-2.51,0.52c-0.94,0-1.78-0.17-2.51-0.52
		c-0.73-0.34-1.34-0.81-1.84-1.4c-0.5-0.59-0.87-1.28-1.13-2.08c-0.26-0.79-0.38-1.64-0.38-2.53c0-0.9,0.13-1.74,0.38-2.53
		c0.25-0.79,0.63-1.48,1.13-2.08c0.5-0.59,1.11-1.06,1.84-1.42c0.73-0.35,1.56-0.53,2.51-0.53C178.11,4.74,178.95,4.92,179.67,5.27z
		 M175.27,6.47c-0.54,0.3-1,0.71-1.36,1.2c-0.36,0.5-0.63,1.06-0.82,1.69s-0.28,1.28-0.28,1.93c0,0.66,0.09,1.3,0.28,1.93
		c0.18,0.63,0.46,1.2,0.82,1.69c0.36,0.5,0.81,0.9,1.36,1.2s1.18,0.46,1.9,0.46s1.35-0.15,1.9-0.46s1-0.7,1.36-1.2
		s0.63-1.06,0.82-1.69c0.18-0.63,0.28-1.28,0.28-1.93c0-0.66-0.09-1.3-0.28-1.93c-0.18-0.63-0.46-1.2-0.82-1.69
		c-0.36-0.5-0.81-0.9-1.36-1.2c-0.54-0.3-1.18-0.46-1.9-0.46S175.81,6.17,175.27,6.47z"/>
	<path class="st0" d="M197.39,3.77c-0.33-0.52-0.73-0.96-1.2-1.31c-0.47-0.35-0.99-0.62-1.56-0.8s-1.16-0.28-1.79-0.28
		c-1.14,0-2.11,0.22-2.93,0.65c-0.82,0.43-1.48,1-2,1.72c-0.52,0.71-0.9,1.52-1.15,2.41c-0.25,0.9-0.37,1.82-0.37,2.76
		c0,0.93,0.12,1.84,0.37,2.75c0.25,0.9,0.63,1.71,1.15,2.42c0.52,0.71,1.19,1.28,2,1.72c0.82,0.43,1.79,0.65,2.93,0.65
		c0.8,0,1.52-0.14,2.16-0.43s1.19-0.68,1.66-1.18c0.46-0.5,0.84-1.08,1.13-1.74s0.47-1.38,0.55-2.15h1.63
		c-0.11,1.06-0.36,2.01-0.74,2.86c-0.38,0.85-0.88,1.57-1.49,2.16c-0.61,0.59-1.32,1.05-2.15,1.37c-0.82,0.32-1.74,0.48-2.75,0.48
		c-1.34,0-2.52-0.24-3.54-0.73c-1.02-0.49-1.86-1.14-2.53-1.96c-0.67-0.82-1.18-1.76-1.51-2.83c-0.34-1.07-0.5-2.2-0.5-3.38
		c0-1.18,0.17-2.31,0.5-3.38s0.84-2.02,1.51-2.84c0.67-0.82,1.52-1.48,2.53-1.97c1.02-0.49,2.2-0.73,3.54-0.73
		c0.82,0,1.61,0.12,2.39,0.36c0.78,0.24,1.48,0.6,2.11,1.07c0.63,0.47,1.16,1.05,1.58,1.74c0.42,0.69,0.69,1.48,0.8,2.38h-1.63
		C197.95,4.88,197.71,4.29,197.39,3.77z"/>
	<path class="st0" d="M209.91,5.27c0.73,0.35,1.34,0.82,1.84,1.42s0.87,1.28,1.13,2.08s0.38,1.64,0.38,2.53
		c0,0.9-0.13,1.74-0.38,2.53s-0.63,1.48-1.13,2.08s-1.11,1.06-1.84,1.4c-0.73,0.34-1.56,0.52-2.51,0.52c-0.94,0-1.78-0.17-2.51-0.52
		c-0.73-0.34-1.34-0.81-1.84-1.4c-0.5-0.59-0.87-1.28-1.13-2.08c-0.26-0.79-0.38-1.64-0.38-2.53c0-0.9,0.13-1.74,0.38-2.53
		c0.25-0.79,0.63-1.48,1.13-2.08c0.5-0.59,1.11-1.06,1.84-1.42c0.73-0.35,1.56-0.53,2.51-0.53C208.35,4.74,209.19,4.92,209.91,5.27z
		 M205.51,6.47c-0.54,0.3-1,0.71-1.36,1.2c-0.36,0.5-0.63,1.06-0.82,1.69s-0.28,1.28-0.28,1.93c0,0.66,0.09,1.3,0.28,1.93
		c0.18,0.63,0.46,1.2,0.82,1.69c0.36,0.5,0.81,0.9,1.36,1.2s1.18,0.46,1.9,0.46s1.35-0.15,1.9-0.46s1-0.7,1.36-1.2
		s0.63-1.06,0.82-1.69c0.18-0.63,0.28-1.28,0.28-1.93c0-0.66-0.09-1.3-0.28-1.93c-0.18-0.63-0.46-1.2-0.82-1.69
		c-0.36-0.5-0.81-0.9-1.36-1.2c-0.54-0.3-1.18-0.46-1.9-0.46S206.05,6.17,205.51,6.47z"/>
	<path class="st0" d="M227.63,3.77c-0.33-0.52-0.73-0.96-1.2-1.31c-0.47-0.35-0.99-0.62-1.56-0.8c-0.57-0.18-1.16-0.28-1.79-0.28
		c-1.14,0-2.11,0.22-2.93,0.65c-0.82,0.43-1.48,1-2,1.72c-0.52,0.71-0.9,1.52-1.15,2.41c-0.25,0.9-0.37,1.82-0.37,2.76
		c0,0.93,0.12,1.84,0.37,2.75c0.25,0.9,0.63,1.71,1.15,2.42c0.52,0.71,1.19,1.28,2,1.72c0.82,0.43,1.79,0.65,2.93,0.65
		c0.8,0,1.52-0.14,2.16-0.43c0.64-0.29,1.19-0.68,1.66-1.18c0.46-0.5,0.84-1.08,1.13-1.74s0.47-1.38,0.55-2.15h1.63
		c-0.11,1.06-0.36,2.01-0.74,2.86c-0.38,0.85-0.88,1.57-1.49,2.16c-0.61,0.59-1.32,1.05-2.15,1.37c-0.82,0.32-1.74,0.48-2.75,0.48
		c-1.34,0-2.52-0.24-3.54-0.73c-1.02-0.49-1.86-1.14-2.53-1.96c-0.67-0.82-1.18-1.76-1.51-2.83c-0.34-1.07-0.5-2.2-0.5-3.38
		c0-1.18,0.17-2.31,0.5-3.38s0.84-2.02,1.51-2.84s1.52-1.48,2.53-1.97c1.02-0.49,2.2-0.73,3.54-0.73c0.82,0,1.61,0.12,2.39,0.36
		c0.78,0.24,1.48,0.6,2.11,1.07c0.63,0.47,1.16,1.05,1.58,1.74c0.42,0.69,0.69,1.48,0.8,2.38h-1.63
		C228.19,4.88,227.95,4.29,227.63,3.77z"/>
	<path class="st0" d="M240.15,5.27c0.73,0.35,1.34,0.82,1.84,1.42c0.5,0.59,0.87,1.28,1.13,2.08c0.26,0.79,0.38,1.64,0.38,2.53
		c0,0.9-0.13,1.74-0.38,2.53c-0.26,0.79-0.63,1.48-1.13,2.08c-0.5,0.59-1.11,1.06-1.84,1.4c-0.73,0.34-1.56,0.52-2.51,0.52
		s-1.78-0.17-2.51-0.52c-0.73-0.34-1.34-0.81-1.84-1.4s-0.87-1.28-1.13-2.08s-0.38-1.64-0.38-2.53c0-0.9,0.13-1.74,0.38-2.53
		s0.63-1.48,1.13-2.08s1.11-1.06,1.84-1.42c0.73-0.35,1.56-0.53,2.51-0.53S239.43,4.92,240.15,5.27z M235.75,6.47
		c-0.54,0.3-1,0.71-1.36,1.2c-0.36,0.5-0.63,1.06-0.82,1.69c-0.18,0.63-0.28,1.28-0.28,1.93c0,0.66,0.09,1.3,0.28,1.93
		c0.18,0.63,0.46,1.2,0.82,1.69c0.36,0.5,0.81,0.9,1.36,1.2s1.18,0.46,1.9,0.46c0.72,0,1.35-0.15,1.9-0.46s1-0.7,1.36-1.2
		c0.36-0.5,0.63-1.06,0.82-1.69c0.18-0.63,0.28-1.28,0.28-1.93c0-0.66-0.09-1.3-0.28-1.93c-0.18-0.63-0.46-1.2-0.82-1.69
		c-0.36-0.5-0.81-0.9-1.36-1.2c-0.54-0.3-1.18-0.46-1.9-0.46C236.93,6.02,236.29,6.17,235.75,6.47z"/>
	<path class="st0" d="M257.87,3.77c-0.33-0.52-0.73-0.96-1.2-1.31c-0.47-0.35-0.99-0.62-1.56-0.8s-1.16-0.28-1.79-0.28
		c-1.14,0-2.11,0.22-2.93,0.65c-0.82,0.43-1.48,1-2,1.72c-0.52,0.71-0.9,1.52-1.15,2.41c-0.25,0.9-0.37,1.82-0.37,2.76
		c0,0.93,0.12,1.84,0.37,2.75c0.25,0.9,0.63,1.71,1.15,2.42c0.52,0.71,1.19,1.28,2,1.72c0.82,0.43,1.79,0.65,2.93,0.65
		c0.8,0,1.52-0.14,2.16-0.43s1.19-0.68,1.66-1.18c0.46-0.5,0.84-1.08,1.13-1.74s0.47-1.38,0.55-2.15h1.63
		c-0.11,1.06-0.36,2.01-0.74,2.86c-0.38,0.85-0.88,1.57-1.49,2.16c-0.61,0.59-1.32,1.05-2.15,1.37c-0.82,0.32-1.74,0.48-2.75,0.48
		c-1.34,0-2.52-0.24-3.54-0.73c-1.02-0.49-1.86-1.14-2.53-1.96c-0.67-0.82-1.18-1.76-1.51-2.83c-0.34-1.07-0.5-2.2-0.5-3.38
		c0-1.18,0.17-2.31,0.5-3.38s0.84-2.02,1.51-2.84c0.67-0.82,1.52-1.48,2.53-1.97c1.02-0.49,2.2-0.73,3.54-0.73
		c0.82,0,1.61,0.12,2.39,0.36c0.78,0.24,1.48,0.6,2.11,1.07c0.63,0.47,1.16,1.05,1.58,1.74c0.42,0.69,0.69,1.48,0.8,2.38h-1.63
		C258.43,4.88,258.19,4.29,257.87,3.77z"/>
	<path class="st0" d="M270.39,5.27c0.73,0.35,1.34,0.82,1.84,1.42s0.87,1.28,1.13,2.08s0.38,1.64,0.38,2.53
		c0,0.9-0.13,1.74-0.38,2.53s-0.63,1.48-1.13,2.08s-1.11,1.06-1.84,1.4c-0.73,0.34-1.56,0.52-2.51,0.52c-0.94,0-1.78-0.17-2.51-0.52
		c-0.73-0.34-1.34-0.81-1.84-1.4c-0.5-0.59-0.87-1.28-1.13-2.08c-0.26-0.79-0.38-1.64-0.38-2.53c0-0.9,0.13-1.74,0.38-2.53
		c0.25-0.79,0.63-1.48,1.13-2.08c0.5-0.59,1.11-1.06,1.84-1.42c0.73-0.35,1.56-0.53,2.51-0.53C268.83,4.74,269.67,4.92,270.39,5.27z
		 M265.99,6.47c-0.54,0.3-1,0.71-1.36,1.2c-0.36,0.5-0.63,1.06-0.82,1.69s-0.28,1.28-0.28,1.93c0,0.66,0.09,1.3,0.28,1.93
		c0.18,0.63,0.46,1.2,0.82,1.69c0.36,0.5,0.81,0.9,1.36,1.2s1.18,0.46,1.9,0.46s1.35-0.15,1.9-0.46s1-0.7,1.36-1.2
		s0.63-1.06,0.82-1.69c0.18-0.63,0.28-1.28,0.28-1.93c0-0.66-0.09-1.3-0.28-1.93c-0.18-0.63-0.46-1.2-0.82-1.69
		c-0.36-0.5-0.81-0.9-1.36-1.2c-0.54-0.3-1.18-0.46-1.9-0.46S266.53,6.17,265.99,6.47z"/>
	<path class="st0" d="M288.11,3.77c-0.33-0.52-0.73-0.96-1.2-1.31c-0.47-0.35-0.99-0.62-1.56-0.8c-0.57-0.18-1.16-0.28-1.79-0.28
		c-1.14,0-2.11,0.22-2.93,0.65c-0.82,0.43-1.48,1-2,1.72c-0.52,0.71-0.9,1.52-1.15,2.41c-0.25,0.9-0.37,1.82-0.37,2.76
		c0,0.93,0.12,1.84,0.37,2.75c0.25,0.9,0.63,1.71,1.15,2.42c0.52,0.71,1.19,1.28,2,1.72c0.82,0.43,1.79,0.65,2.93,0.65
		c0.8,0,1.52-0.14,2.16-0.43c0.64-0.29,1.19-0.68,1.66-1.18c0.46-0.5,0.84-1.08,1.13-1.74s0.47-1.38,0.55-2.15h1.63
		c-0.11,1.06-0.36,2.01-0.74,2.86c-0.38,0.85-0.88,1.57-1.49,2.16c-0.61,0.59-1.32,1.05-2.15,1.37c-0.82,0.32-1.74,0.48-2.75,0.48
		c-1.34,0-2.52-0.24-3.54-0.73c-1.02-0.49-1.86-1.14-2.53-1.96c-0.67-0.82-1.18-1.76-1.51-2.83c-0.34-1.07-0.5-2.2-0.5-3.38
		c0-1.18,0.17-2.31,0.5-3.38s0.84-2.02,1.51-2.84s1.52-1.48,2.53-1.97c1.02-0.49,2.2-0.73,3.54-0.73c0.82,0,1.61,0.12,2.39,0.36
		c0.78,0.24,1.48,0.6,2.11,1.07c0.63,0.47,1.16,1.05,1.58,1.74c0.42,0.69,0.69,1.48,0.8,2.38h-1.63
		C288.67,4.88,288.43,4.29,288.11,3.77z"/>
	<path class="st0" d="M300.63,5.27c0.73,0.35,1.34,0.82,1.84,1.42c0.5,0.59,0.87,1.28,1.13,2.08c0.26,0.79,0.38,1.64,0.38,2.53
		c0,0.9-0.13,1.74-0.38,2.53c-0.26,0.79-0.63,1.48-1.13,2.08c-0.5,0.59-1.11,1.06-1.84,1.4c-0.73,0.34-1.56,0.52-2.51,0.52
		s-1.78-0.17-2.51-0.52c-0.73-0.34-1.34-0.81-1.84-1.4s-0.87-1.28-1.13-2.08s-0.38-1.64-0.38-2.53c0-0.9,0.13-1.74,0.38-2.53
		s0.63-1.48,1.13-2.08s1.11-1.06,1.84-1.42c0.73-0.35,1.56-0.53,2.51-0.53S299.91,4.92,300.63,5.27z M296.23,6.47
		c-0.54,0.3-1,0.71-1.36,1.2c-0.36,0.5-0.63,1.06-0.82,1.69c-0.18,0.63-0.28,1.28-0.28,1.93c0,0.66,0.09,1.3,0.28,1.93
		c0.18,0.63,0.46,1.2,0.82,1.69c0.36,0.5,0.81,0.9,1.36,1.2s1.18,0.46,1.9,0.46c0.72,0,1.35-0.15,1.9-0.46s1-0.7,1.36-1.2
		c0.36-0.5,0.63-1.06,0.82-1.69c0.18-0.63,0.28-1.28,0.28-1.93c0-0.66-0.09-1.3-0.28-1.93c-0.18-0.63-0.46-1.2-0.82-1.69
		c-0.36-0.5-0.81-0.9-1.36-1.2c-0.54-0.3-1.18-0.46-1.9-0.46C297.41,6.02,296.77,6.17,296.23,6.47z"/>
	<path class="st0" d="M307.8,14.94h2.02v2.54h-2.02V14.94z M315.79,14.94h2.02v2.54h-2.02V14.94z M323.78,14.94h2.02v2.54h-2.02
		V14.94z"/>
	<path class="st0" d="M332.4,0.35v5.83h-1.51V0.35H332.4z M335.59,0.35v5.83h-1.51V0.35H335.59z"/>
</g>
<g>
	<g>
		<path class="st1" d="M173.45,36.72v3.7h-3.77v-3.7H173.45z"/>
		<path class="st1" d="M179.45,28.01v2.3h0.05c0.16-0.38,0.38-0.74,0.65-1.07c0.27-0.33,0.58-0.61,0.94-0.84
			c0.35-0.23,0.73-0.41,1.13-0.54c0.4-0.13,0.82-0.19,1.25-0.19c0.22,0,0.47,0.04,0.74,0.12v3.17c-0.16-0.03-0.35-0.06-0.58-0.08
			c-0.22-0.02-0.44-0.04-0.65-0.04c-0.62,0-1.15,0.1-1.58,0.31c-0.43,0.21-0.78,0.49-1.04,0.85c-0.26,0.36-0.45,0.78-0.56,1.26
			c-0.11,0.48-0.17,1-0.17,1.56v5.59h-3.41V28.01H179.45z"/>
		<path class="st1" d="M188.77,37.44c0.51,0.5,1.25,0.74,2.21,0.74c0.69,0,1.28-0.17,1.78-0.52c0.5-0.34,0.8-0.71,0.91-1.09h3
			c-0.48,1.49-1.22,2.55-2.21,3.19s-2.19,0.96-3.6,0.96c-0.98,0-1.86-0.16-2.64-0.47c-0.78-0.31-1.45-0.76-1.99-1.33
			c-0.54-0.58-0.96-1.26-1.26-2.06c-0.3-0.8-0.44-1.68-0.44-2.64c0-0.93,0.15-1.79,0.46-2.59c0.3-0.8,0.74-1.49,1.3-2.08
			c0.56-0.58,1.23-1.04,2-1.38c0.78-0.34,1.64-0.5,2.58-0.5c1.06,0,1.98,0.2,2.76,0.61s1.43,0.96,1.93,1.64
			c0.5,0.69,0.87,1.47,1.09,2.35c0.22,0.88,0.3,1.8,0.24,2.76h-8.95C187.98,36.15,188.25,36.95,188.77,37.44z M192.62,30.92
			c-0.41-0.45-1.03-0.67-1.86-0.67c-0.54,0-1,0.09-1.36,0.28c-0.36,0.18-0.65,0.41-0.86,0.68c-0.22,0.27-0.37,0.56-0.46,0.86
			s-0.14,0.58-0.16,0.82h5.54C193.31,32.02,193.03,31.36,192.62,30.92z"/>
		<path class="st1" d="M202.13,28.01v1.58h0.05c0.42-0.67,0.94-1.16,1.58-1.46c0.64-0.3,1.34-0.46,2.11-0.46
			c0.98,0,1.82,0.18,2.52,0.55s1.29,0.86,1.75,1.46c0.46,0.61,0.81,1.32,1.03,2.12c0.22,0.81,0.34,1.65,0.34,2.53
			c0,0.83-0.11,1.63-0.34,2.4c-0.22,0.77-0.56,1.45-1.02,2.04s-1.02,1.06-1.7,1.42c-0.68,0.35-1.48,0.53-2.39,0.53
			c-0.77,0-1.48-0.16-2.12-0.47c-0.65-0.31-1.18-0.77-1.6-1.38h-0.05v5.88h-3.41V28.01H202.13z M206.56,37.85
			c0.38-0.22,0.68-0.52,0.91-0.88c0.23-0.36,0.4-0.78,0.49-1.26c0.1-0.48,0.14-0.97,0.14-1.46c0-0.5-0.05-0.98-0.16-1.46
			c-0.1-0.48-0.28-0.91-0.52-1.28c-0.24-0.38-0.55-0.68-0.92-0.91c-0.38-0.23-0.84-0.35-1.38-0.35c-0.56,0-1.03,0.12-1.4,0.35
			c-0.38,0.23-0.68,0.53-0.91,0.9c-0.23,0.37-0.4,0.79-0.49,1.27c-0.1,0.48-0.14,0.98-0.14,1.49c0,0.5,0.05,0.98,0.16,1.46
			c0.1,0.48,0.27,0.9,0.5,1.26c0.23,0.36,0.54,0.65,0.92,0.88c0.38,0.22,0.85,0.34,1.39,0.34
			C205.72,38.19,206.19,38.08,206.56,37.85z"/>
		<path class="st1" d="M217.21,37.44c0.51,0.5,1.25,0.74,2.21,0.74c0.69,0,1.28-0.17,1.78-0.52c0.5-0.34,0.8-0.71,0.91-1.09h3
			c-0.48,1.49-1.22,2.55-2.21,3.19s-2.19,0.96-3.6,0.96c-0.98,0-1.86-0.16-2.64-0.47c-0.78-0.31-1.45-0.76-1.99-1.33
			c-0.54-0.58-0.96-1.26-1.26-2.06c-0.3-0.8-0.44-1.68-0.44-2.64c0-0.93,0.15-1.79,0.46-2.59c0.3-0.8,0.74-1.49,1.3-2.08
			c0.56-0.58,1.23-1.04,2-1.38c0.78-0.34,1.64-0.5,2.58-0.5c1.06,0,1.98,0.2,2.76,0.61s1.43,0.96,1.93,1.64
			c0.5,0.69,0.87,1.47,1.09,2.35c0.22,0.88,0.3,1.8,0.24,2.76h-8.95C216.41,36.15,216.69,36.95,217.21,37.44z M221.06,30.92
			c-0.41-0.45-1.03-0.67-1.86-0.67c-0.54,0-1,0.09-1.36,0.28c-0.36,0.18-0.65,0.41-0.86,0.68c-0.22,0.27-0.37,0.56-0.46,0.86
			s-0.14,0.58-0.16,0.82h5.54C221.75,32.02,221.47,31.36,221.06,30.92z"/>
		<path class="st1" d="M227.19,31.83c0.05-0.8,0.25-1.46,0.6-1.99c0.35-0.53,0.8-0.95,1.34-1.27s1.16-0.55,1.84-0.68
			c0.68-0.14,1.36-0.2,2.05-0.2c0.62,0,1.26,0.04,1.9,0.13c0.64,0.09,1.22,0.26,1.75,0.52s0.96,0.61,1.3,1.07s0.5,1.06,0.5,1.81
			v6.46c0,0.56,0.03,1.1,0.1,1.61c0.06,0.51,0.18,0.9,0.34,1.15h-3.46c-0.06-0.19-0.12-0.39-0.16-0.59s-0.07-0.4-0.08-0.61
			c-0.54,0.56-1.18,0.95-1.92,1.18c-0.74,0.22-1.49,0.34-2.26,0.34c-0.59,0-1.14-0.07-1.66-0.22c-0.51-0.14-0.96-0.37-1.34-0.67
			c-0.38-0.3-0.68-0.69-0.9-1.15s-0.32-1.02-0.32-1.66c0-0.7,0.12-1.28,0.37-1.74s0.57-0.82,0.96-1.09
			c0.39-0.27,0.84-0.48,1.34-0.61c0.5-0.14,1.01-0.24,1.52-0.32c0.51-0.08,1.02-0.14,1.51-0.19s0.94-0.12,1.32-0.22
			s0.69-0.24,0.91-0.42c0.22-0.18,0.33-0.45,0.31-0.8c0-0.37-0.06-0.66-0.18-0.88c-0.12-0.22-0.28-0.38-0.48-0.5s-0.43-0.2-0.7-0.24
			c-0.26-0.04-0.55-0.06-0.85-0.06c-0.67,0-1.2,0.14-1.58,0.43c-0.38,0.29-0.61,0.77-0.67,1.44H227.19z M235.06,34.35
			c-0.14,0.13-0.32,0.23-0.54,0.3c-0.22,0.07-0.45,0.13-0.7,0.18c-0.25,0.05-0.51,0.09-0.78,0.12c-0.27,0.03-0.54,0.07-0.82,0.12
			c-0.26,0.05-0.51,0.11-0.76,0.19c-0.25,0.08-0.46,0.19-0.65,0.32c-0.18,0.14-0.33,0.31-0.44,0.52c-0.11,0.21-0.17,0.47-0.17,0.79
			c0,0.3,0.06,0.56,0.17,0.77c0.11,0.21,0.26,0.37,0.46,0.49s0.42,0.2,0.67,0.25s0.52,0.07,0.79,0.07c0.67,0,1.19-0.11,1.56-0.34
			c0.37-0.22,0.64-0.49,0.82-0.8c0.18-0.31,0.28-0.63,0.32-0.95c0.04-0.32,0.06-0.58,0.06-0.77V34.35z"/>
		<path class="st1" d="M247.93,28.01v2.28h-2.5v6.14c0,0.58,0.1,0.96,0.29,1.15c0.19,0.19,0.58,0.29,1.15,0.29
			c0.19,0,0.38-0.01,0.55-0.02c0.18-0.02,0.34-0.04,0.5-0.07v2.64c-0.29,0.05-0.61,0.08-0.96,0.1c-0.35,0.02-0.7,0.02-1.03,0.02
			c-0.53,0-1.03-0.04-1.5-0.11c-0.47-0.07-0.89-0.21-1.25-0.42c-0.36-0.21-0.64-0.5-0.85-0.89c-0.21-0.38-0.31-0.89-0.31-1.51v-7.32
			h-2.06v-2.28h2.06v-3.72h3.41v3.72H247.93z"/>
	</g>
	<g>
		<path class="st1" d="M161.4,49.1l-0.31,1.43h0.02c0.24-0.45,0.54-0.81,0.89-1.09c0.35-0.28,0.8-0.42,1.36-0.42h0.2
			c0.04,0,0.08,0,0.11,0c0.03,0,0.06,0,0.1,0.01l-0.17,0.76c-0.07,0-0.14,0-0.22-0.01c-0.07,0-0.14-0.01-0.22-0.01
			c-0.34,0.01-0.63,0.08-0.89,0.2s-0.49,0.3-0.68,0.51c-0.19,0.21-0.35,0.45-0.47,0.73c-0.12,0.27-0.22,0.55-0.28,0.84l-0.7,3.24
			h-0.74l1.32-6.19H161.4z"/>
		<path class="st1" d="M164.01,52.88c0,0.28,0.04,0.54,0.11,0.78c0.07,0.24,0.18,0.45,0.33,0.62c0.15,0.17,0.34,0.31,0.56,0.41
			c0.23,0.1,0.49,0.15,0.8,0.15c0.5,0,0.93-0.14,1.28-0.43c0.35-0.28,0.6-0.65,0.74-1.11h0.76c-0.21,0.7-0.54,1.24-1.01,1.61
			c-0.46,0.37-1.07,0.55-1.81,0.55c-0.82,0-1.45-0.23-1.88-0.7c-0.43-0.46-0.64-1.1-0.64-1.92c0-0.5,0.07-0.98,0.22-1.45
			c0.15-0.47,0.37-0.89,0.65-1.25s0.64-0.66,1.06-0.89s0.89-0.34,1.42-0.34c0.38,0,0.71,0.06,1,0.17c0.29,0.12,0.53,0.28,0.74,0.49
			s0.36,0.47,0.46,0.76c0.1,0.3,0.16,0.62,0.16,0.98c0,0.18,0,0.35-0.01,0.53c-0.01,0.18-0.02,0.36-0.05,0.54h-4.85
			C164.02,52.55,164.01,52.71,164.01,52.88z M168.19,51.52c0-0.08,0.01-0.15,0.01-0.23c0-0.53-0.15-0.95-0.45-1.26
			c-0.3-0.31-0.71-0.47-1.24-0.47c-0.31,0-0.6,0.06-0.86,0.19c-0.26,0.12-0.49,0.29-0.7,0.49s-0.37,0.44-0.51,0.7
			c-0.14,0.26-0.24,0.54-0.3,0.83h4.04C168.18,51.68,168.19,51.6,168.19,51.52z"/>
		<path class="st1" d="M174.32,50.41c-0.07-0.18-0.17-0.34-0.31-0.46c-0.13-0.12-0.29-0.22-0.48-0.29c-0.19-0.07-0.39-0.1-0.62-0.1
			c-0.46,0-0.85,0.1-1.18,0.3c-0.33,0.2-0.61,0.46-0.83,0.78c-0.22,0.32-0.39,0.68-0.5,1.08c-0.11,0.4-0.16,0.8-0.16,1.2
			c0,0.27,0.03,0.53,0.1,0.76c0.07,0.24,0.17,0.44,0.32,0.61s0.32,0.31,0.54,0.4c0.22,0.1,0.47,0.14,0.77,0.14
			c0.5,0,0.93-0.14,1.28-0.43c0.35-0.29,0.6-0.66,0.76-1.12h0.76c-0.23,0.72-0.58,1.26-1.06,1.63s-1.08,0.55-1.84,0.55
			c-0.77,0-1.36-0.23-1.77-0.7c-0.41-0.46-0.62-1.08-0.62-1.85c0-0.48,0.08-0.96,0.23-1.44c0.15-0.48,0.37-0.91,0.66-1.28
			c0.29-0.38,0.64-0.68,1.06-0.92c0.42-0.24,0.89-0.35,1.42-0.35c0.34,0,0.65,0.04,0.94,0.13s0.54,0.21,0.74,0.39
			s0.37,0.4,0.48,0.66s0.16,0.58,0.16,0.94h-0.76C174.42,50.8,174.39,50.6,174.32,50.41z"/>
		<path class="st1" d="M176.46,52.88c0,0.28,0.04,0.54,0.11,0.78c0.07,0.24,0.18,0.45,0.33,0.62c0.15,0.17,0.34,0.31,0.56,0.41
			c0.23,0.1,0.49,0.15,0.8,0.15c0.5,0,0.93-0.14,1.28-0.43c0.35-0.28,0.6-0.65,0.74-1.11h0.76c-0.21,0.7-0.54,1.24-1.01,1.61
			c-0.46,0.37-1.07,0.55-1.81,0.55c-0.82,0-1.45-0.23-1.88-0.7c-0.43-0.46-0.64-1.1-0.64-1.92c0-0.5,0.07-0.98,0.22-1.45
			c0.15-0.47,0.37-0.89,0.65-1.25s0.64-0.66,1.06-0.89s0.89-0.34,1.42-0.34c0.38,0,0.71,0.06,1,0.17c0.29,0.12,0.53,0.28,0.74,0.49
			s0.36,0.47,0.46,0.76c0.1,0.3,0.16,0.62,0.16,0.98c0,0.18,0,0.35-0.01,0.53c-0.01,0.18-0.02,0.36-0.05,0.54h-4.85
			C176.48,52.55,176.46,52.71,176.46,52.88z M180.65,51.52c0-0.08,0.01-0.15,0.01-0.23c0-0.53-0.15-0.95-0.45-1.26
			c-0.3-0.31-0.71-0.47-1.24-0.47c-0.31,0-0.6,0.06-0.86,0.19c-0.26,0.12-0.49,0.29-0.7,0.49s-0.37,0.44-0.51,0.7
			c-0.14,0.26-0.24,0.54-0.3,0.83h4.04C180.64,51.68,180.64,51.6,180.65,51.52z"/>
		<path class="st1" d="M183.72,49.1l-1.33,6.19h-0.74l1.32-6.19H183.72z M184.24,46.73l-0.26,1.21h-0.76l0.26-1.21H184.24z"/>
		<path class="st1" d="M185.2,49.1l0.73,5.34h0.02l2.9-5.34h0.83l-3.49,6.19h-0.82l-0.97-6.19H185.2z"/>
		<path class="st1" d="M190.47,52.88c0,0.28,0.04,0.54,0.11,0.78c0.07,0.24,0.18,0.45,0.33,0.62c0.15,0.17,0.34,0.31,0.56,0.41
			c0.23,0.1,0.49,0.15,0.8,0.15c0.5,0,0.93-0.14,1.28-0.43c0.35-0.28,0.6-0.65,0.74-1.11h0.76c-0.21,0.7-0.54,1.24-1.01,1.61
			c-0.46,0.37-1.07,0.55-1.81,0.55c-0.82,0-1.45-0.23-1.88-0.7c-0.43-0.46-0.64-1.1-0.64-1.92c0-0.5,0.07-0.98,0.22-1.45
			c0.15-0.47,0.37-0.89,0.65-1.25s0.64-0.66,1.06-0.89s0.89-0.34,1.42-0.34c0.38,0,0.71,0.06,1,0.17c0.29,0.12,0.53,0.28,0.74,0.49
			s0.36,0.47,0.46,0.76c0.1,0.3,0.16,0.62,0.16,0.98c0,0.18,0,0.35-0.01,0.53c-0.01,0.18-0.02,0.36-0.05,0.54h-4.85
			C190.48,52.55,190.47,52.71,190.47,52.88z M194.65,51.52c0-0.08,0.01-0.15,0.01-0.23c0-0.53-0.15-0.95-0.45-1.26
			c-0.3-0.31-0.71-0.47-1.24-0.47c-0.31,0-0.6,0.06-0.86,0.19c-0.26,0.12-0.49,0.29-0.7,0.49s-0.37,0.44-0.51,0.7
			c-0.14,0.26-0.24,0.54-0.3,0.83h4.04C194.64,51.68,194.65,51.6,194.65,51.52z"/>
		<path class="st1" d="M197.66,49.1l-0.31,1.43h0.02c0.24-0.45,0.54-0.81,0.89-1.09c0.35-0.28,0.8-0.42,1.36-0.42h0.2
			c0.04,0,0.08,0,0.11,0c0.03,0,0.06,0,0.1,0.01l-0.17,0.76c-0.07,0-0.14,0-0.22-0.01c-0.07,0-0.14-0.01-0.22-0.01
			c-0.34,0.01-0.63,0.08-0.89,0.2s-0.49,0.3-0.68,0.51c-0.19,0.21-0.35,0.45-0.47,0.73c-0.12,0.27-0.22,0.55-0.28,0.84l-0.7,3.24
			h-0.74l1.32-6.19H197.66z"/>
		<path class="st1" d="M210.61,50.04c0.16-0.26,0.35-0.47,0.58-0.63c0.23-0.16,0.5-0.29,0.79-0.37s0.61-0.12,0.94-0.12
			c0.21,0,0.44,0.02,0.69,0.06s0.49,0.11,0.7,0.22c0.22,0.1,0.4,0.24,0.54,0.42c0.14,0.18,0.22,0.4,0.22,0.68
			c0,0.15-0.01,0.32-0.04,0.5c-0.03,0.18-0.06,0.37-0.1,0.56c-0.04,0.19-0.08,0.37-0.13,0.55c-0.04,0.18-0.08,0.34-0.11,0.47
			c-0.07,0.34-0.13,0.63-0.19,0.86c-0.05,0.23-0.09,0.42-0.13,0.57c-0.03,0.15-0.06,0.28-0.07,0.37c-0.02,0.1-0.02,0.19-0.02,0.29
			c0,0.11,0.04,0.18,0.13,0.21c0.09,0.03,0.18,0.04,0.26,0.04c0.06,0,0.11,0,0.15-0.01c0.04,0,0.09-0.01,0.15-0.02l-0.11,0.59
			c-0.2,0.04-0.41,0.06-0.62,0.06c-0.42,0-0.64-0.22-0.66-0.66c0-0.06,0-0.11,0.01-0.17c0-0.06,0.01-0.11,0.02-0.17l-0.02-0.02
			c-0.22,0.36-0.52,0.64-0.91,0.83c-0.39,0.2-0.8,0.29-1.24,0.29c-0.29,0-0.55-0.03-0.79-0.1c-0.24-0.06-0.45-0.16-0.62-0.3
			c-0.17-0.14-0.31-0.31-0.41-0.53c-0.1-0.22-0.15-0.48-0.15-0.78c0-0.33,0.06-0.6,0.17-0.83s0.27-0.41,0.47-0.55
			c0.2-0.14,0.43-0.26,0.68-0.34s0.52-0.15,0.8-0.2c0.41-0.06,0.78-0.09,1.11-0.09s0.62-0.03,0.86-0.09
			c0.25-0.06,0.43-0.18,0.56-0.35s0.19-0.46,0.19-0.86c0-0.18-0.04-0.33-0.13-0.45c-0.08-0.12-0.19-0.21-0.31-0.27
			c-0.12-0.06-0.26-0.11-0.42-0.13c-0.16-0.02-0.31-0.04-0.45-0.04c-0.24,0-0.47,0.02-0.68,0.07c-0.22,0.05-0.41,0.13-0.59,0.23
			c-0.18,0.11-0.32,0.25-0.44,0.43c-0.12,0.18-0.19,0.4-0.23,0.65h-0.76C210.35,50.6,210.45,50.3,210.61,50.04z M214.02,51.96
			c-0.06,0.07-0.15,0.13-0.27,0.17s-0.24,0.08-0.37,0.1c-0.13,0.02-0.26,0.04-0.39,0.05c-0.13,0.01-0.25,0.02-0.34,0.02
			c-0.23,0.02-0.49,0.04-0.77,0.07c-0.28,0.03-0.55,0.09-0.8,0.18s-0.46,0.23-0.62,0.41c-0.17,0.18-0.25,0.43-0.25,0.76
			c0,0.2,0.04,0.37,0.11,0.51c0.08,0.14,0.18,0.26,0.31,0.35s0.28,0.16,0.44,0.2s0.34,0.06,0.52,0.06c0.61,0,1.1-0.16,1.48-0.49
			s0.62-0.77,0.74-1.32l0.24-1.04L214.02,51.96z"/>
		<path class="st1" d="M217.67,49.1l-0.31,1.43h0.02c0.24-0.45,0.54-0.81,0.89-1.09c0.35-0.28,0.8-0.42,1.36-0.42h0.2
			c0.04,0,0.08,0,0.11,0c0.03,0,0.06,0,0.1,0.01l-0.17,0.76c-0.07,0-0.14,0-0.22-0.01c-0.07,0-0.14-0.01-0.22-0.01
			c-0.34,0.01-0.63,0.08-0.89,0.2s-0.49,0.3-0.68,0.51c-0.19,0.21-0.35,0.45-0.47,0.73c-0.12,0.27-0.22,0.55-0.28,0.84l-0.7,3.24
			h-0.74l1.32-6.19H217.67z"/>
		<path class="st1" d="M224.42,56.04c-0.16,0.39-0.36,0.71-0.6,0.97s-0.53,0.44-0.87,0.56s-0.75,0.19-1.23,0.19
			c-0.32,0-0.62-0.04-0.91-0.11s-0.53-0.19-0.75-0.34s-0.39-0.36-0.52-0.62s-0.2-0.57-0.2-0.94h0.74c0,0.26,0.05,0.48,0.15,0.66
			c0.1,0.18,0.23,0.32,0.39,0.42c0.16,0.1,0.34,0.18,0.55,0.22s0.42,0.07,0.65,0.07c0.32,0,0.6-0.05,0.83-0.16
			c0.23-0.1,0.43-0.24,0.59-0.41c0.16-0.17,0.3-0.36,0.41-0.58c0.11-0.22,0.2-0.44,0.27-0.67s0.13-0.45,0.18-0.67
			s0.1-0.42,0.14-0.59l-0.02-0.02c-0.21,0.37-0.51,0.65-0.9,0.85c-0.39,0.2-0.8,0.29-1.21,0.29c-0.37,0-0.7-0.06-0.98-0.19
			s-0.53-0.31-0.72-0.53c-0.19-0.23-0.34-0.49-0.44-0.8c-0.1-0.3-0.15-0.64-0.15-1c0-0.46,0.07-0.91,0.22-1.35
			c0.14-0.44,0.35-0.84,0.62-1.19c0.27-0.35,0.6-0.64,1-0.85c0.39-0.22,0.84-0.32,1.33-0.32c0.23,0,0.46,0.03,0.68,0.09
			c0.22,0.06,0.43,0.15,0.62,0.27c0.19,0.12,0.35,0.27,0.47,0.46c0.13,0.18,0.21,0.4,0.25,0.64h0.02l0.26-1.27h0.7l-1.18,5.54
			C224.71,55.18,224.57,55.65,224.42,56.04z M220.67,53.33c0.06,0.23,0.17,0.44,0.31,0.62c0.14,0.18,0.31,0.32,0.52,0.43
			c0.21,0.1,0.46,0.16,0.74,0.16c0.38,0,0.73-0.09,1.03-0.28c0.3-0.19,0.56-0.43,0.78-0.73s0.38-0.63,0.49-1
			c0.11-0.36,0.17-0.72,0.17-1.06c0-0.27-0.03-0.52-0.09-0.76c-0.06-0.23-0.16-0.43-0.29-0.6c-0.14-0.17-0.31-0.3-0.53-0.4
			c-0.22-0.1-0.48-0.14-0.78-0.14c-0.38,0-0.73,0.09-1.03,0.28c-0.3,0.18-0.56,0.42-0.77,0.71s-0.37,0.62-0.48,0.97
			c-0.11,0.36-0.16,0.71-0.16,1.06C220.57,52.85,220.61,53.1,220.67,53.33z"/>
		<path class="st1" d="M230.37,55.3l0.22-1.13h-0.02c-0.23,0.37-0.54,0.68-0.93,0.92c-0.39,0.25-0.81,0.37-1.28,0.37
			c-0.27,0-0.52-0.03-0.75-0.09c-0.23-0.06-0.43-0.16-0.59-0.29s-0.3-0.3-0.39-0.52s-0.14-0.47-0.14-0.76c0-0.17,0.03-0.41,0.1-0.73
			l0.85-3.97h0.76l-0.86,4c-0.02,0.1-0.04,0.2-0.06,0.31c-0.02,0.11-0.02,0.21-0.02,0.32c0,0.2,0.04,0.37,0.11,0.52
			c0.07,0.14,0.17,0.26,0.29,0.35s0.26,0.15,0.41,0.19c0.16,0.04,0.32,0.06,0.49,0.06c0.28,0,0.55-0.06,0.8-0.18
			c0.25-0.12,0.48-0.29,0.7-0.51c0.21-0.22,0.4-0.49,0.56-0.8c0.16-0.32,0.28-0.67,0.37-1.06l0.68-3.18h0.76l-1.33,6.19H230.37z"/>
		<path class="st1" d="M234.58,49.1l-0.24,1.08l0.02,0.02c0.22-0.36,0.53-0.66,0.91-0.91s0.81-0.37,1.27-0.37
			c0.43,0,0.78,0.11,1.04,0.33c0.26,0.22,0.42,0.55,0.46,0.99h0.02c0.24-0.38,0.55-0.7,0.92-0.95s0.79-0.37,1.25-0.37
			c0.6,0,1.04,0.15,1.31,0.46c0.27,0.3,0.41,0.7,0.41,1.18c0,0.11-0.01,0.23-0.02,0.34c-0.02,0.12-0.04,0.24-0.06,0.37l-0.86,4.03
			h-0.76l0.88-4.06c0.05-0.22,0.07-0.42,0.07-0.62c0-0.3-0.09-0.56-0.28-0.76c-0.19-0.2-0.49-0.3-0.89-0.3
			c-0.33,0-0.61,0.08-0.86,0.23c-0.24,0.15-0.46,0.36-0.64,0.62c-0.18,0.26-0.33,0.56-0.45,0.91c-0.12,0.35-0.22,0.72-0.31,1.12
			l-0.61,2.86h-0.76l0.86-4.03c0.05-0.21,0.07-0.41,0.07-0.6c0-0.3-0.08-0.56-0.25-0.78c-0.16-0.22-0.43-0.32-0.8-0.32
			c-0.27,0-0.53,0.07-0.78,0.2s-0.47,0.32-0.67,0.55c-0.2,0.23-0.37,0.51-0.52,0.82s-0.26,0.65-0.34,1.01l-0.67,3.14h-0.74
			l1.32-6.19H234.58z"/>
		<path class="st1" d="M243.6,52.88c0,0.28,0.04,0.54,0.11,0.78c0.07,0.24,0.18,0.45,0.33,0.62c0.15,0.17,0.34,0.31,0.56,0.41
			c0.23,0.1,0.49,0.15,0.8,0.15c0.5,0,0.93-0.14,1.28-0.43c0.35-0.28,0.6-0.65,0.74-1.11h0.76c-0.21,0.7-0.54,1.24-1.01,1.61
			c-0.46,0.37-1.07,0.55-1.81,0.55c-0.82,0-1.45-0.23-1.88-0.7s-0.64-1.1-0.64-1.92c0-0.5,0.07-0.98,0.22-1.45
			c0.15-0.47,0.37-0.89,0.65-1.25s0.64-0.66,1.06-0.89s0.89-0.34,1.42-0.34c0.38,0,0.71,0.06,1,0.17s0.53,0.28,0.74,0.49
			s0.36,0.47,0.46,0.76c0.1,0.3,0.16,0.62,0.16,0.98c0,0.18,0,0.35-0.01,0.53c-0.01,0.18-0.02,0.36-0.05,0.54h-4.85
			C243.61,52.55,243.6,52.71,243.6,52.88z M247.78,51.52c0-0.08,0.01-0.15,0.01-0.23c0-0.53-0.15-0.95-0.45-1.26
			c-0.3-0.31-0.71-0.47-1.24-0.47c-0.31,0-0.6,0.06-0.86,0.19s-0.49,0.29-0.7,0.49c-0.2,0.2-0.38,0.44-0.51,0.7
			c-0.14,0.26-0.24,0.54-0.3,0.83h4.04C247.78,51.68,247.78,51.6,247.78,51.52z"/>
		<path class="st1" d="M250.8,49.1l-0.22,1.13h0.02c0.23-0.37,0.54-0.68,0.93-0.93c0.39-0.25,0.81-0.38,1.28-0.38
			c0.27,0,0.52,0.03,0.75,0.1c0.23,0.06,0.43,0.16,0.59,0.29s0.3,0.3,0.39,0.52c0.09,0.21,0.14,0.47,0.14,0.76
			c0,0.17-0.03,0.41-0.1,0.73l-0.85,3.97h-0.76l0.86-4c0.02-0.1,0.04-0.2,0.06-0.31c0.02-0.11,0.02-0.21,0.02-0.32
			c0-0.21-0.04-0.38-0.11-0.52c-0.07-0.14-0.17-0.25-0.29-0.34c-0.12-0.09-0.26-0.15-0.41-0.19c-0.16-0.04-0.32-0.06-0.49-0.06
			c-0.27,0-0.54,0.06-0.79,0.18c-0.26,0.12-0.49,0.29-0.71,0.51c-0.22,0.22-0.4,0.49-0.56,0.8s-0.28,0.67-0.36,1.06l-0.68,3.18
			h-0.74l1.32-6.19H250.8z"/>
		<path class="st1" d="M256.98,49.1l0.4-1.87h0.76l-0.4,1.87h1.24l-0.12,0.64h-1.26l-0.85,3.97c-0.03,0.14-0.05,0.25-0.07,0.33
			c-0.01,0.08-0.02,0.16-0.02,0.26c0,0.11,0.03,0.21,0.09,0.3c0.06,0.09,0.16,0.13,0.31,0.13c0.3,0,0.59-0.02,0.89-0.07l-0.13,0.65
			c-0.13,0.02-0.26,0.03-0.38,0.04c-0.13,0.01-0.26,0.01-0.38,0.01c-0.14,0-0.28-0.01-0.42-0.03c-0.14-0.02-0.26-0.06-0.37-0.13
			c-0.11-0.06-0.19-0.15-0.26-0.27c-0.06-0.12-0.1-0.27-0.1-0.45c0-0.06,0.01-0.15,0.02-0.26c0.01-0.11,0.03-0.24,0.07-0.37
			l0.85-4.1h-1.12l0.14-0.64H256.98z"/>
		<path class="st1" d="M259.8,54.04c0.1,0.2,0.23,0.36,0.4,0.48s0.35,0.2,0.56,0.25s0.43,0.07,0.64,0.07c0.17,0,0.34-0.02,0.53-0.07
			c0.18-0.04,0.35-0.11,0.5-0.2c0.15-0.09,0.28-0.21,0.38-0.35c0.1-0.14,0.15-0.32,0.15-0.52c0-0.21-0.05-0.38-0.15-0.52
			c-0.1-0.14-0.23-0.25-0.38-0.35c-0.16-0.1-0.33-0.19-0.53-0.26c-0.2-0.08-0.4-0.15-0.6-0.23s-0.4-0.17-0.6-0.26
			c-0.2-0.09-0.38-0.2-0.53-0.34c-0.16-0.13-0.28-0.29-0.38-0.47c-0.1-0.18-0.14-0.4-0.14-0.65c0-0.3,0.07-0.56,0.22-0.77
			c0.14-0.21,0.33-0.39,0.55-0.52c0.22-0.14,0.47-0.24,0.74-0.3c0.27-0.06,0.53-0.1,0.78-0.1c0.33,0,0.63,0.04,0.9,0.11
			c0.27,0.07,0.51,0.19,0.7,0.35c0.2,0.16,0.35,0.37,0.46,0.62c0.11,0.25,0.16,0.56,0.15,0.92h-0.76c0.02-0.24-0.01-0.44-0.08-0.61
			s-0.17-0.31-0.31-0.42s-0.29-0.19-0.47-0.25c-0.18-0.05-0.38-0.08-0.59-0.08c-0.17,0-0.34,0.02-0.52,0.05
			c-0.18,0.03-0.34,0.09-0.49,0.16c-0.15,0.08-0.27,0.18-0.37,0.32s-0.15,0.31-0.15,0.53c0,0.14,0.04,0.27,0.11,0.38
			c0.07,0.11,0.17,0.21,0.29,0.3s0.26,0.17,0.41,0.24c0.16,0.07,0.32,0.14,0.5,0.22c0.22,0.09,0.44,0.18,0.68,0.27
			c0.24,0.09,0.45,0.21,0.65,0.34c0.2,0.14,0.36,0.3,0.49,0.49c0.13,0.19,0.2,0.43,0.2,0.72c0,0.35-0.07,0.65-0.22,0.89
			c-0.15,0.24-0.34,0.43-0.58,0.58s-0.51,0.25-0.8,0.32c-0.3,0.06-0.59,0.1-0.89,0.1c-0.3,0-0.6-0.04-0.88-0.12
			s-0.53-0.21-0.75-0.38s-0.39-0.4-0.52-0.68c-0.13-0.28-0.18-0.61-0.17-1h0.74C259.65,53.58,259.7,53.84,259.8,54.04z"/>
	</g>
	<g>
		<path class="st1" d="M257.22,122.15v-10.9H253v-2.57c0.59,0.02,1.16-0.03,1.72-0.13c0.55-0.1,1.05-0.29,1.49-0.55
			c0.44-0.26,0.81-0.61,1.12-1.04c0.3-0.43,0.5-0.97,0.6-1.61h2.71v16.8H257.22z"/>
		<path class="st1" d="M265.56,109.56c0.33-1.11,0.77-2,1.33-2.68c0.56-0.67,1.21-1.15,1.96-1.44c0.74-0.29,1.53-0.43,2.36-0.43
			c0.85,0,1.64,0.14,2.39,0.43c0.74,0.29,1.4,0.77,1.97,1.44c0.57,0.67,1.02,1.56,1.34,2.68c0.33,1.11,0.49,2.48,0.49,4.12
			c0,1.68-0.16,3.08-0.49,4.21s-0.78,2.03-1.34,2.7c-0.57,0.67-1.22,1.15-1.97,1.44c-0.74,0.29-1.54,0.43-2.39,0.43
			c-0.83,0-1.62-0.14-2.36-0.43c-0.74-0.29-1.4-0.77-1.96-1.44c-0.56-0.67-1-1.57-1.33-2.7c-0.33-1.13-0.49-2.53-0.49-4.21
			C265.07,112.04,265.23,110.67,265.56,109.56z M268.53,115.41c0.03,0.68,0.13,1.34,0.3,1.97s0.44,1.17,0.8,1.62s0.9,0.67,1.58,0.67
			c0.7,0,1.24-0.22,1.62-0.67s0.65-0.99,0.82-1.62s0.27-1.29,0.3-1.97c0.03-0.68,0.05-1.26,0.05-1.74c0-0.29,0-0.64-0.01-1.04
			c-0.01-0.41-0.04-0.83-0.1-1.26c-0.06-0.43-0.14-0.86-0.24-1.28c-0.1-0.42-0.26-0.8-0.47-1.14c-0.21-0.34-0.47-0.61-0.79-0.82
			c-0.32-0.21-0.71-0.31-1.18-0.31s-0.85,0.1-1.16,0.31c-0.31,0.21-0.57,0.48-0.77,0.82c-0.2,0.34-0.36,0.72-0.47,1.14
			c-0.11,0.42-0.19,0.85-0.24,1.28c-0.05,0.43-0.08,0.85-0.08,1.26c-0.01,0.41-0.01,0.76-0.01,1.04
			C268.48,114.15,268.49,114.73,268.53,115.41z"/>
		<path class="st1" d="M278.91,109.56c0.33-1.11,0.77-2,1.33-2.68c0.56-0.67,1.21-1.15,1.96-1.44c0.74-0.29,1.53-0.43,2.36-0.43
			c0.85,0,1.64,0.14,2.39,0.43c0.74,0.29,1.4,0.77,1.97,1.44c0.57,0.67,1.02,1.56,1.34,2.68c0.33,1.11,0.49,2.48,0.49,4.12
			c0,1.68-0.16,3.08-0.49,4.21s-0.78,2.03-1.34,2.7c-0.57,0.67-1.22,1.15-1.97,1.44c-0.74,0.29-1.54,0.43-2.39,0.43
			c-0.83,0-1.62-0.14-2.36-0.43c-0.74-0.29-1.4-0.77-1.96-1.44c-0.56-0.67-1-1.57-1.33-2.7c-0.33-1.13-0.49-2.53-0.49-4.21
			C278.41,112.04,278.58,110.67,278.91,109.56z M281.87,115.41c0.03,0.68,0.13,1.34,0.3,1.97s0.44,1.17,0.8,1.62s0.9,0.67,1.58,0.67
			c0.7,0,1.24-0.22,1.62-0.67s0.65-0.99,0.82-1.62s0.27-1.29,0.3-1.97c0.03-0.68,0.05-1.26,0.05-1.74c0-0.29,0-0.64-0.01-1.04
			c-0.01-0.41-0.04-0.83-0.1-1.26c-0.06-0.43-0.14-0.86-0.24-1.28c-0.1-0.42-0.26-0.8-0.47-1.14c-0.21-0.34-0.47-0.61-0.79-0.82
			c-0.32-0.21-0.71-0.31-1.18-0.31s-0.85,0.1-1.16,0.31c-0.31,0.21-0.57,0.48-0.77,0.82c-0.2,0.34-0.36,0.72-0.47,1.14
			c-0.11,0.42-0.19,0.85-0.24,1.28c-0.05,0.43-0.08,0.85-0.08,1.26c-0.01,0.41-0.01,0.76-0.01,1.04
			C281.82,114.15,281.84,114.73,281.87,115.41z"/>
	</g>
	<line class="st2" x1="232.55" y1="57.76" x2="266.81" y2="102.18"/>
	<line class="st2" x1="180.85" y1="57.76" x2="148.4" y2="101.75"/>
	<g>
		<path class="st1" d="M99.04,116.59v3.7h-3.77v-3.7H99.04z"/>
		<path class="st1" d="M104.67,117.21c0.15,0.26,0.35,0.48,0.59,0.65c0.24,0.17,0.52,0.29,0.83,0.37c0.31,0.08,0.64,0.12,0.97,0.12
			c0.24,0,0.49-0.03,0.76-0.08c0.26-0.06,0.5-0.14,0.72-0.26s0.4-0.28,0.54-0.48c0.14-0.2,0.22-0.45,0.22-0.76
			c0-0.51-0.34-0.9-1.02-1.15c-0.68-0.25-1.63-0.51-2.84-0.77c-0.5-0.11-0.98-0.24-1.45-0.4c-0.47-0.15-0.89-0.35-1.26-0.6
			s-0.66-0.56-0.89-0.94c-0.22-0.38-0.34-0.84-0.34-1.38c0-0.8,0.16-1.46,0.47-1.97c0.31-0.51,0.72-0.92,1.24-1.21
			c0.51-0.3,1.09-0.5,1.73-0.62s1.3-0.18,1.97-0.18c0.67,0,1.32,0.06,1.96,0.19s1.2,0.34,1.69,0.65s0.91,0.71,1.24,1.21
			c0.33,0.5,0.52,1.14,0.59,1.91h-3.24c-0.05-0.66-0.3-1.1-0.74-1.33c-0.45-0.23-0.98-0.35-1.58-0.35c-0.19,0-0.4,0.01-0.62,0.04
			c-0.22,0.02-0.43,0.08-0.61,0.16c-0.18,0.08-0.34,0.2-0.47,0.35c-0.13,0.15-0.19,0.36-0.19,0.61c0,0.3,0.11,0.55,0.34,0.74
			c0.22,0.19,0.52,0.35,0.88,0.47c0.36,0.12,0.77,0.23,1.24,0.32s0.94,0.2,1.42,0.31c0.5,0.11,0.98,0.25,1.45,0.41
			c0.47,0.16,0.89,0.37,1.26,0.64c0.37,0.26,0.66,0.59,0.89,0.98c0.22,0.39,0.34,0.88,0.34,1.45c0,0.82-0.16,1.5-0.49,2.05
			c-0.33,0.55-0.76,1-1.28,1.33c-0.53,0.34-1.13,0.57-1.81,0.71c-0.68,0.14-1.37,0.2-2.08,0.2c-0.72,0-1.42-0.07-2.11-0.22
			c-0.69-0.14-1.3-0.38-1.84-0.72s-0.98-0.78-1.32-1.33c-0.34-0.55-0.53-1.24-0.56-2.08h3.24
			C104.44,116.63,104.52,116.94,104.67,117.21z"/>
		<path class="st1" d="M123.09,120.29v-1.73h-0.07c-0.43,0.72-0.99,1.24-1.68,1.56c-0.69,0.32-1.39,0.48-2.11,0.48
			c-0.91,0-1.66-0.12-2.24-0.36c-0.58-0.24-1.04-0.58-1.38-1.02c-0.34-0.44-0.57-0.98-0.71-1.61c-0.14-0.63-0.2-1.33-0.2-2.1v-7.63
			h3.41v7.01c0,1.02,0.16,1.79,0.48,2.29c0.32,0.5,0.89,0.76,1.7,0.76c0.93,0,1.6-0.28,2.02-0.83c0.42-0.55,0.62-1.46,0.62-2.72
			v-6.5h3.41v12.41H123.09z"/>
		<path class="st1" d="M132.33,103.15v6.24h0.05c0.42-0.64,0.98-1.11,1.69-1.4s1.45-0.44,2.22-0.44c0.62,0,1.24,0.13,1.85,0.38
			s1.16,0.65,1.64,1.18c0.49,0.53,0.88,1.2,1.19,2.03s0.46,1.8,0.46,2.94c0,1.14-0.15,2.12-0.46,2.94s-0.7,1.5-1.19,2.03
			c-0.49,0.53-1.04,0.92-1.64,1.18s-1.22,0.38-1.85,0.38c-0.91,0-1.73-0.14-2.45-0.43s-1.26-0.78-1.63-1.46h-0.05v1.58h-3.24v-17.14
			H132.33z M137.85,112.59c-0.11-0.48-0.29-0.9-0.53-1.27c-0.24-0.37-0.54-0.66-0.9-0.88c-0.36-0.22-0.8-0.32-1.31-0.32
			c-0.5,0-0.93,0.11-1.3,0.32s-0.67,0.51-0.91,0.88c-0.24,0.37-0.42,0.79-0.53,1.27c-0.11,0.48-0.17,0.98-0.17,1.51
			c0,0.51,0.06,1.01,0.17,1.49c0.11,0.48,0.29,0.9,0.53,1.27c0.24,0.37,0.54,0.66,0.91,0.88c0.37,0.22,0.8,0.32,1.3,0.32
			c0.51,0,0.95-0.11,1.31-0.32c0.36-0.22,0.66-0.51,0.9-0.88c0.24-0.37,0.42-0.79,0.53-1.27c0.11-0.48,0.17-0.98,0.17-1.49
			C138.02,113.57,137.96,113.06,137.85,112.59z"/>
		<path class="st1" d="M146.45,117.21c0.15,0.26,0.35,0.48,0.59,0.65c0.24,0.17,0.52,0.29,0.83,0.37c0.31,0.08,0.64,0.12,0.97,0.12
			c0.24,0,0.49-0.03,0.76-0.08c0.26-0.06,0.5-0.14,0.72-0.26s0.4-0.28,0.54-0.48c0.14-0.2,0.22-0.45,0.22-0.76
			c0-0.51-0.34-0.9-1.02-1.15c-0.68-0.25-1.63-0.51-2.84-0.77c-0.5-0.11-0.98-0.24-1.45-0.4c-0.47-0.15-0.89-0.35-1.26-0.6
			s-0.66-0.56-0.89-0.94c-0.22-0.38-0.34-0.84-0.34-1.38c0-0.8,0.16-1.46,0.47-1.97c0.31-0.51,0.72-0.92,1.24-1.21
			c0.51-0.3,1.09-0.5,1.73-0.62s1.3-0.18,1.97-0.18c0.67,0,1.32,0.06,1.96,0.19s1.2,0.34,1.69,0.65s0.91,0.71,1.24,1.21
			c0.33,0.5,0.52,1.14,0.59,1.91h-3.24c-0.05-0.66-0.3-1.1-0.74-1.33c-0.45-0.23-0.98-0.35-1.58-0.35c-0.19,0-0.4,0.01-0.62,0.04
			c-0.22,0.02-0.43,0.08-0.61,0.16c-0.18,0.08-0.34,0.2-0.47,0.35c-0.13,0.15-0.19,0.36-0.19,0.61c0,0.3,0.11,0.55,0.34,0.74
			c0.22,0.19,0.52,0.35,0.88,0.47c0.36,0.12,0.77,0.23,1.24,0.32s0.94,0.2,1.42,0.31c0.5,0.11,0.98,0.25,1.45,0.41
			c0.47,0.16,0.89,0.37,1.26,0.64c0.37,0.26,0.66,0.59,0.89,0.98c0.22,0.39,0.34,0.88,0.34,1.45c0,0.82-0.16,1.5-0.49,2.05
			c-0.33,0.55-0.76,1-1.28,1.33c-0.53,0.34-1.13,0.57-1.81,0.71c-0.68,0.14-1.37,0.2-2.08,0.2c-0.72,0-1.42-0.07-2.11-0.22
			c-0.69-0.14-1.3-0.38-1.84-0.72s-0.98-0.78-1.32-1.33c-0.34-0.55-0.53-1.24-0.56-2.08h3.24
			C146.23,116.63,146.3,116.94,146.45,117.21z"/>
		<path class="st1" d="M163.29,107.88v2.28h-2.5v6.14c0,0.58,0.1,0.96,0.29,1.15c0.19,0.19,0.58,0.29,1.15,0.29
			c0.19,0,0.38-0.01,0.55-0.02c0.18-0.02,0.34-0.04,0.5-0.07v2.64c-0.29,0.05-0.61,0.08-0.96,0.1c-0.35,0.02-0.7,0.02-1.03,0.02
			c-0.53,0-1.03-0.04-1.5-0.11s-0.89-0.21-1.25-0.42c-0.36-0.21-0.64-0.5-0.85-0.89c-0.21-0.38-0.31-0.89-0.31-1.51v-7.32h-2.06
			v-2.28h2.06v-3.72h3.41v3.72H163.29z"/>
		<path class="st1" d="M168.16,107.88v2.3h0.05c0.16-0.38,0.38-0.74,0.65-1.07c0.27-0.33,0.58-0.61,0.94-0.84
			c0.35-0.23,0.73-0.41,1.13-0.54c0.4-0.13,0.82-0.19,1.25-0.19c0.22,0,0.47,0.04,0.74,0.12v3.17c-0.16-0.03-0.35-0.06-0.58-0.08
			c-0.22-0.02-0.44-0.04-0.65-0.04c-0.62,0-1.15,0.1-1.58,0.31c-0.43,0.21-0.78,0.49-1.04,0.85c-0.26,0.36-0.45,0.78-0.56,1.26
			c-0.11,0.48-0.17,1-0.17,1.56v5.59h-3.41v-12.41H168.16z"/>
		<path class="st1" d="M174.35,105.96v-2.81h3.41v2.81H174.35z M177.76,107.88v12.41h-3.41v-12.41H177.76z"/>
		<path class="st1" d="M183.69,107.88v1.73h0.07c0.43-0.72,0.99-1.24,1.68-1.57s1.39-0.49,2.11-0.49c0.91,0,1.66,0.12,2.24,0.37
			c0.58,0.25,1.04,0.59,1.38,1.03c0.34,0.44,0.57,0.98,0.71,1.61c0.14,0.63,0.2,1.33,0.2,2.1v7.63h-3.41v-7.01
			c0-1.02-0.16-1.79-0.48-2.29c-0.32-0.5-0.89-0.76-1.7-0.76c-0.93,0-1.6,0.28-2.02,0.83c-0.42,0.55-0.62,1.46-0.62,2.72v6.5h-3.41
			v-12.41H183.69z"/>
		<path class="st1" d="M206.4,121.2c-0.14,0.64-0.43,1.24-0.88,1.79c-0.45,0.55-1.1,1.02-1.94,1.4c-0.85,0.38-1.98,0.58-3.41,0.58
			c-0.61,0-1.23-0.08-1.86-0.23c-0.63-0.15-1.21-0.39-1.73-0.71c-0.52-0.32-0.95-0.73-1.3-1.24s-0.54-1.11-0.59-1.81h3.38
			c0.16,0.64,0.47,1.08,0.94,1.33c0.46,0.25,1,0.37,1.61,0.37c0.96,0,1.66-0.29,2.1-0.86c0.44-0.58,0.65-1.3,0.64-2.18v-1.63h-0.05
			c-0.37,0.66-0.89,1.14-1.57,1.45c-0.68,0.31-1.4,0.47-2.15,0.47c-0.93,0-1.73-0.16-2.4-0.49c-0.67-0.33-1.22-0.78-1.66-1.34
			c-0.43-0.57-0.75-1.23-0.95-1.99c-0.2-0.76-0.3-1.56-0.3-2.41c0-0.8,0.12-1.57,0.35-2.32c0.23-0.74,0.57-1.4,1.02-1.97
			c0.45-0.57,1-1.02,1.67-1.36s1.43-0.5,2.29-0.5c0.82,0,1.53,0.15,2.15,0.46c0.62,0.3,1.13,0.82,1.55,1.54h0.05v-1.66h3.24v11.62
			C206.61,119.99,206.54,120.56,206.4,121.2z M201.74,117.07c0.37-0.19,0.67-0.45,0.91-0.77c0.24-0.32,0.42-0.68,0.54-1.09
			c0.12-0.41,0.18-0.84,0.18-1.28c0-0.51-0.05-1-0.14-1.45c-0.1-0.46-0.26-0.86-0.48-1.21c-0.22-0.35-0.52-0.63-0.89-0.84
			c-0.37-0.21-0.83-0.31-1.39-0.31c-0.48,0-0.89,0.1-1.24,0.29c-0.34,0.19-0.63,0.45-0.86,0.78c-0.23,0.33-0.4,0.7-0.5,1.13
			c-0.1,0.42-0.16,0.87-0.16,1.33c0,0.45,0.04,0.89,0.13,1.33c0.09,0.44,0.24,0.84,0.46,1.19c0.22,0.35,0.5,0.64,0.85,0.86
			c0.35,0.22,0.79,0.34,1.32,0.34C200.94,117.36,201.37,117.26,201.74,117.07z"/>
	</g>
	<g>
		<path class="st1" d="M97.49,128.97l-0.31,1.43h0.02c0.24-0.45,0.54-0.81,0.89-1.09c0.35-0.28,0.8-0.42,1.36-0.42h0.2
			c0.04,0,0.08,0,0.11,0c0.03,0,0.06,0,0.1,0.01l-0.17,0.76c-0.07,0-0.14,0-0.22-0.01c-0.07,0-0.14-0.01-0.22-0.01
			c-0.34,0.01-0.63,0.08-0.89,0.2s-0.49,0.3-0.68,0.51c-0.19,0.21-0.35,0.45-0.47,0.73c-0.12,0.27-0.22,0.55-0.28,0.84l-0.7,3.24
			h-0.74l1.32-6.19H97.49z"/>
		<path class="st1" d="M100.09,132.75c0,0.28,0.04,0.54,0.11,0.78s0.18,0.45,0.33,0.62c0.15,0.17,0.34,0.31,0.56,0.41
			c0.23,0.1,0.49,0.15,0.8,0.15c0.5,0,0.93-0.14,1.28-0.43c0.35-0.28,0.6-0.65,0.74-1.11h0.76c-0.21,0.7-0.54,1.24-1.01,1.61
			s-1.07,0.55-1.81,0.55c-0.82,0-1.45-0.23-1.88-0.7c-0.43-0.46-0.64-1.1-0.64-1.92c0-0.5,0.07-0.98,0.22-1.45
			c0.15-0.47,0.37-0.89,0.65-1.25s0.64-0.66,1.06-0.89c0.42-0.22,0.89-0.34,1.42-0.34c0.38,0,0.71,0.06,1,0.17
			c0.29,0.12,0.53,0.28,0.74,0.49s0.36,0.47,0.46,0.76c0.1,0.3,0.16,0.62,0.16,0.98c0,0.18,0,0.35-0.01,0.53s-0.02,0.36-0.05,0.54
			h-4.85C100.11,132.42,100.09,132.58,100.09,132.75z M104.28,131.39c0-0.08,0.01-0.15,0.01-0.23c0-0.53-0.15-0.95-0.45-1.26
			c-0.3-0.31-0.71-0.47-1.24-0.47c-0.31,0-0.6,0.06-0.86,0.19c-0.26,0.12-0.49,0.29-0.7,0.49s-0.37,0.44-0.51,0.7
			c-0.14,0.26-0.24,0.54-0.3,0.83h4.04C104.27,131.55,104.27,131.47,104.28,131.39z"/>
		<path class="st1" d="M110.4,130.28c-0.07-0.18-0.17-0.34-0.31-0.46c-0.13-0.12-0.29-0.22-0.48-0.29c-0.19-0.07-0.39-0.1-0.62-0.1
			c-0.46,0-0.85,0.1-1.18,0.3s-0.61,0.46-0.83,0.78c-0.22,0.32-0.39,0.68-0.5,1.08c-0.11,0.4-0.16,0.8-0.16,1.2
			c0,0.27,0.03,0.53,0.1,0.76c0.07,0.24,0.17,0.44,0.32,0.61s0.32,0.31,0.54,0.4s0.47,0.14,0.77,0.14c0.5,0,0.93-0.14,1.28-0.43
			s0.6-0.66,0.76-1.12h0.76c-0.23,0.72-0.58,1.26-1.06,1.63c-0.47,0.36-1.08,0.55-1.84,0.55c-0.77,0-1.36-0.23-1.77-0.7
			c-0.41-0.46-0.62-1.08-0.62-1.85c0-0.48,0.08-0.96,0.23-1.44c0.15-0.48,0.37-0.91,0.66-1.28s0.64-0.68,1.06-0.92
			s0.89-0.35,1.42-0.35c0.34,0,0.65,0.04,0.94,0.13s0.54,0.21,0.74,0.39s0.37,0.4,0.48,0.66c0.11,0.26,0.16,0.58,0.16,0.94h-0.76
			C110.5,130.67,110.48,130.47,110.4,130.28z"/>
		<path class="st1" d="M112.55,132.75c0,0.28,0.04,0.54,0.11,0.78s0.18,0.45,0.33,0.62c0.15,0.17,0.34,0.31,0.56,0.41
			c0.23,0.1,0.49,0.15,0.8,0.15c0.5,0,0.93-0.14,1.28-0.43c0.35-0.28,0.6-0.65,0.74-1.11h0.76c-0.21,0.7-0.54,1.24-1.01,1.61
			s-1.07,0.55-1.81,0.55c-0.82,0-1.45-0.23-1.88-0.7c-0.43-0.46-0.64-1.1-0.64-1.92c0-0.5,0.07-0.98,0.22-1.45
			c0.15-0.47,0.37-0.89,0.65-1.25s0.64-0.66,1.06-0.89c0.42-0.22,0.89-0.34,1.42-0.34c0.38,0,0.71,0.06,1,0.17
			c0.29,0.12,0.53,0.28,0.74,0.49s0.36,0.47,0.46,0.76c0.1,0.3,0.16,0.62,0.16,0.98c0,0.18,0,0.35-0.01,0.53s-0.02,0.36-0.05,0.54
			h-4.85C112.56,132.42,112.55,132.58,112.55,132.75z M116.73,131.39c0-0.08,0.01-0.15,0.01-0.23c0-0.53-0.15-0.95-0.45-1.26
			c-0.3-0.31-0.71-0.47-1.24-0.47c-0.31,0-0.6,0.06-0.86,0.19c-0.26,0.12-0.49,0.29-0.7,0.49s-0.37,0.44-0.51,0.7
			c-0.14,0.26-0.24,0.54-0.3,0.83h4.04C116.73,131.55,116.73,131.47,116.73,131.39z"/>
		<path class="st1" d="M119.81,128.97l-1.33,6.19h-0.74l1.32-6.19H119.81z M120.33,126.6l-0.26,1.21h-0.76l0.26-1.21H120.33z"/>
		<path class="st1" d="M121.29,128.97l0.73,5.34h0.02l2.9-5.34h0.83l-3.49,6.19h-0.82l-0.97-6.19H121.29z"/>
		<path class="st1" d="M126.55,132.75c0,0.28,0.04,0.54,0.11,0.78s0.18,0.45,0.33,0.62c0.15,0.17,0.34,0.31,0.56,0.41
			c0.23,0.1,0.49,0.15,0.8,0.15c0.5,0,0.93-0.14,1.28-0.43c0.35-0.28,0.6-0.65,0.74-1.11h0.76c-0.21,0.7-0.54,1.24-1.01,1.61
			s-1.07,0.55-1.81,0.55c-0.82,0-1.45-0.23-1.88-0.7c-0.43-0.46-0.64-1.1-0.64-1.92c0-0.5,0.07-0.98,0.22-1.45
			c0.15-0.47,0.37-0.89,0.65-1.25s0.64-0.66,1.06-0.89c0.42-0.22,0.89-0.34,1.42-0.34c0.38,0,0.71,0.06,1,0.17
			c0.29,0.12,0.53,0.28,0.74,0.49s0.36,0.47,0.46,0.76c0.1,0.3,0.16,0.62,0.16,0.98c0,0.18,0,0.35-0.01,0.53s-0.02,0.36-0.05,0.54
			h-4.85C126.57,132.42,126.55,132.58,126.55,132.75z M130.74,131.39c0-0.08,0.01-0.15,0.01-0.23c0-0.53-0.15-0.95-0.45-1.26
			c-0.3-0.31-0.71-0.47-1.24-0.47c-0.31,0-0.6,0.06-0.86,0.19c-0.26,0.12-0.49,0.29-0.7,0.49s-0.37,0.44-0.51,0.7
			c-0.14,0.26-0.24,0.54-0.3,0.83h4.04C130.73,131.55,130.73,131.47,130.74,131.39z"/>
		<path class="st1" d="M133.74,128.97l-0.31,1.43h0.02c0.24-0.45,0.54-0.81,0.89-1.09c0.35-0.28,0.8-0.42,1.36-0.42h0.2
			c0.04,0,0.08,0,0.11,0c0.03,0,0.06,0,0.1,0.01l-0.17,0.76c-0.07,0-0.14,0-0.22-0.01c-0.07,0-0.14-0.01-0.22-0.01
			c-0.34,0.01-0.63,0.08-0.89,0.2s-0.49,0.3-0.68,0.51c-0.19,0.21-0.35,0.45-0.47,0.73c-0.12,0.27-0.22,0.55-0.28,0.84l-0.7,3.24
			h-0.74l1.32-6.19H133.74z"/>
		<path class="st1" d="M146.7,129.91c0.16-0.26,0.35-0.47,0.58-0.63c0.23-0.16,0.5-0.29,0.79-0.37s0.61-0.12,0.94-0.12
			c0.21,0,0.44,0.02,0.69,0.06s0.49,0.11,0.7,0.22c0.22,0.1,0.4,0.24,0.54,0.42c0.14,0.18,0.22,0.4,0.22,0.68
			c0,0.15-0.01,0.32-0.04,0.5c-0.03,0.18-0.06,0.37-0.1,0.56c-0.04,0.19-0.08,0.37-0.13,0.55s-0.08,0.34-0.11,0.47
			c-0.07,0.34-0.13,0.63-0.19,0.86c-0.05,0.23-0.09,0.42-0.13,0.57c-0.03,0.15-0.06,0.28-0.07,0.37c-0.02,0.1-0.02,0.19-0.02,0.29
			c0,0.11,0.04,0.18,0.13,0.21c0.09,0.03,0.18,0.04,0.26,0.04c0.06,0,0.11,0,0.15-0.01c0.04,0,0.09-0.01,0.15-0.02l-0.11,0.59
			c-0.2,0.04-0.41,0.06-0.62,0.06c-0.42,0-0.64-0.22-0.66-0.66c0-0.06,0-0.11,0.01-0.17s0.01-0.11,0.02-0.17l-0.02-0.02
			c-0.22,0.36-0.52,0.64-0.91,0.83c-0.39,0.2-0.8,0.29-1.24,0.29c-0.29,0-0.55-0.03-0.79-0.1c-0.24-0.06-0.45-0.16-0.62-0.3
			s-0.31-0.31-0.41-0.53c-0.1-0.22-0.15-0.48-0.15-0.78c0-0.33,0.06-0.6,0.17-0.83c0.12-0.22,0.27-0.41,0.47-0.55
			c0.2-0.14,0.43-0.26,0.68-0.34s0.52-0.15,0.8-0.2c0.41-0.06,0.78-0.09,1.11-0.09s0.62-0.03,0.86-0.09
			c0.25-0.06,0.43-0.18,0.56-0.35s0.19-0.46,0.19-0.86c0-0.18-0.04-0.33-0.13-0.45s-0.19-0.21-0.31-0.27
			c-0.12-0.06-0.26-0.11-0.42-0.13c-0.16-0.02-0.31-0.04-0.45-0.04c-0.24,0-0.47,0.02-0.68,0.07c-0.22,0.05-0.41,0.13-0.59,0.23
			s-0.32,0.25-0.44,0.43c-0.12,0.18-0.19,0.4-0.23,0.65h-0.76C146.44,130.47,146.54,130.17,146.7,129.91z M150.11,131.83
			c-0.06,0.07-0.15,0.13-0.27,0.17s-0.24,0.08-0.37,0.1c-0.13,0.02-0.26,0.04-0.39,0.05s-0.25,0.02-0.34,0.02
			c-0.23,0.02-0.49,0.04-0.77,0.07c-0.28,0.03-0.55,0.09-0.8,0.18c-0.25,0.09-0.46,0.23-0.62,0.41c-0.17,0.18-0.25,0.43-0.25,0.76
			c0,0.2,0.04,0.37,0.11,0.51c0.08,0.14,0.18,0.26,0.31,0.35s0.28,0.16,0.44,0.2s0.34,0.06,0.52,0.06c0.61,0,1.1-0.16,1.48-0.49
			c0.38-0.33,0.62-0.77,0.74-1.32l0.24-1.04L150.11,131.83z"/>
		<path class="st1" d="M153.76,128.97l-0.31,1.43h0.02c0.24-0.45,0.54-0.81,0.89-1.09c0.35-0.28,0.8-0.42,1.36-0.42h0.2
			c0.04,0,0.08,0,0.11,0c0.03,0,0.06,0,0.1,0.01l-0.17,0.76c-0.07,0-0.14,0-0.22-0.01c-0.07,0-0.14-0.01-0.22-0.01
			c-0.34,0.01-0.63,0.08-0.89,0.2s-0.49,0.3-0.68,0.51c-0.19,0.21-0.35,0.45-0.47,0.73c-0.12,0.27-0.22,0.55-0.28,0.84l-0.7,3.24
			h-0.74l1.32-6.19H153.76z"/>
		<path class="st1" d="M160.5,135.91c-0.16,0.39-0.36,0.71-0.6,0.97s-0.53,0.44-0.87,0.56s-0.75,0.19-1.23,0.19
			c-0.32,0-0.62-0.04-0.91-0.11c-0.28-0.07-0.53-0.19-0.75-0.34c-0.22-0.16-0.39-0.36-0.52-0.62c-0.13-0.26-0.2-0.57-0.2-0.94h0.74
			c0,0.26,0.05,0.48,0.15,0.66c0.1,0.18,0.23,0.32,0.39,0.42c0.16,0.1,0.34,0.18,0.55,0.22s0.42,0.07,0.65,0.07
			c0.32,0,0.6-0.05,0.83-0.16c0.23-0.1,0.43-0.24,0.59-0.41c0.16-0.17,0.3-0.36,0.41-0.58c0.11-0.22,0.2-0.44,0.27-0.67
			c0.07-0.22,0.13-0.45,0.18-0.67c0.05-0.22,0.1-0.42,0.14-0.59l-0.02-0.02c-0.21,0.37-0.51,0.65-0.9,0.85
			c-0.39,0.2-0.8,0.29-1.21,0.29c-0.37,0-0.7-0.06-0.98-0.19c-0.29-0.13-0.53-0.31-0.72-0.53c-0.19-0.23-0.34-0.49-0.44-0.8
			c-0.1-0.3-0.15-0.64-0.15-1c0-0.46,0.07-0.91,0.22-1.35c0.14-0.44,0.35-0.84,0.62-1.19c0.27-0.35,0.6-0.64,1-0.85
			c0.39-0.22,0.84-0.32,1.33-0.32c0.23,0,0.46,0.03,0.68,0.09c0.22,0.06,0.43,0.15,0.62,0.27c0.19,0.12,0.35,0.27,0.47,0.46
			s0.21,0.4,0.25,0.64h0.02l0.26-1.27h0.7l-1.18,5.54C160.8,135.05,160.66,135.52,160.5,135.91z M156.76,133.2
			c0.06,0.23,0.17,0.44,0.31,0.62s0.31,0.32,0.52,0.43c0.21,0.1,0.46,0.16,0.74,0.16c0.38,0,0.73-0.09,1.03-0.28
			c0.3-0.19,0.56-0.43,0.78-0.73c0.22-0.3,0.38-0.63,0.49-1c0.11-0.36,0.17-0.72,0.17-1.06c0-0.27-0.03-0.52-0.09-0.76
			c-0.06-0.23-0.16-0.43-0.29-0.6c-0.14-0.17-0.31-0.3-0.53-0.4s-0.48-0.14-0.78-0.14c-0.38,0-0.73,0.09-1.03,0.28
			c-0.3,0.18-0.56,0.42-0.77,0.71s-0.37,0.62-0.48,0.97c-0.11,0.36-0.16,0.71-0.16,1.06C156.66,132.72,156.69,132.97,156.76,133.2z"
			/>
		<path class="st1" d="M166.45,135.17l0.22-1.13h-0.02c-0.23,0.37-0.54,0.68-0.93,0.92c-0.39,0.25-0.81,0.37-1.28,0.37
			c-0.27,0-0.52-0.03-0.75-0.09c-0.23-0.06-0.43-0.16-0.59-0.29s-0.3-0.3-0.39-0.52s-0.14-0.47-0.14-0.76c0-0.17,0.03-0.41,0.1-0.73
			l0.85-3.97h0.76l-0.86,4c-0.02,0.1-0.04,0.2-0.06,0.31c-0.02,0.11-0.02,0.21-0.02,0.32c0,0.2,0.04,0.37,0.11,0.52
			c0.07,0.14,0.17,0.26,0.29,0.35s0.26,0.15,0.41,0.19c0.16,0.04,0.32,0.06,0.49,0.06c0.28,0,0.55-0.06,0.8-0.18s0.48-0.29,0.7-0.51
			s0.4-0.49,0.56-0.8c0.16-0.32,0.28-0.67,0.37-1.06l0.68-3.18h0.76l-1.33,6.19H166.45z"/>
		<path class="st1" d="M170.67,128.97l-0.24,1.08l0.02,0.02c0.22-0.36,0.53-0.66,0.91-0.91s0.81-0.37,1.27-0.37
			c0.43,0,0.78,0.11,1.04,0.33c0.26,0.22,0.42,0.55,0.46,0.99h0.02c0.24-0.38,0.55-0.7,0.92-0.95s0.79-0.37,1.25-0.37
			c0.6,0,1.04,0.15,1.31,0.46c0.27,0.3,0.41,0.7,0.41,1.18c0,0.11-0.01,0.23-0.02,0.34c-0.02,0.12-0.04,0.24-0.06,0.37l-0.86,4.03
			h-0.76l0.88-4.06c0.05-0.22,0.07-0.42,0.07-0.62c0-0.3-0.09-0.56-0.28-0.76c-0.19-0.2-0.49-0.3-0.89-0.3
			c-0.33,0-0.61,0.08-0.86,0.23c-0.24,0.15-0.46,0.36-0.64,0.62s-0.33,0.56-0.45,0.91c-0.12,0.35-0.22,0.72-0.31,1.12l-0.61,2.86
			h-0.76l0.86-4.03c0.05-0.21,0.07-0.41,0.07-0.6c0-0.3-0.08-0.56-0.25-0.78c-0.16-0.22-0.43-0.32-0.8-0.32
			c-0.27,0-0.53,0.07-0.78,0.2c-0.25,0.14-0.47,0.32-0.67,0.55c-0.2,0.23-0.37,0.51-0.52,0.82c-0.15,0.32-0.26,0.65-0.34,1.01
			l-0.67,3.14h-0.74l1.32-6.19H170.67z"/>
		<path class="st1" d="M179.69,132.75c0,0.28,0.04,0.54,0.11,0.78c0.07,0.24,0.18,0.45,0.33,0.62c0.15,0.17,0.34,0.31,0.56,0.41
			c0.23,0.1,0.49,0.15,0.8,0.15c0.5,0,0.93-0.14,1.28-0.43c0.35-0.28,0.6-0.65,0.74-1.11h0.76c-0.21,0.7-0.54,1.24-1.01,1.61
			s-1.07,0.55-1.81,0.55c-0.82,0-1.45-0.23-1.88-0.7s-0.64-1.1-0.64-1.92c0-0.5,0.07-0.98,0.22-1.45s0.37-0.89,0.65-1.25
			s0.64-0.66,1.06-0.89c0.42-0.22,0.89-0.34,1.42-0.34c0.38,0,0.71,0.06,1,0.17c0.29,0.12,0.53,0.28,0.74,0.49s0.36,0.47,0.46,0.76
			c0.1,0.3,0.16,0.62,0.16,0.98c0,0.18,0,0.35-0.01,0.53s-0.02,0.36-0.05,0.54h-4.85C179.7,132.42,179.69,132.58,179.69,132.75z
			 M183.87,131.39c0-0.08,0.01-0.15,0.01-0.23c0-0.53-0.15-0.95-0.45-1.26c-0.3-0.31-0.71-0.47-1.24-0.47
			c-0.31,0-0.6,0.06-0.86,0.19s-0.49,0.29-0.7,0.49c-0.2,0.2-0.38,0.44-0.51,0.7c-0.14,0.26-0.24,0.54-0.3,0.83h4.04
			C183.87,131.55,183.87,131.47,183.87,131.39z"/>
		<path class="st1" d="M186.89,128.97l-0.22,1.13h0.02c0.23-0.37,0.54-0.68,0.93-0.93c0.39-0.25,0.81-0.38,1.28-0.38
			c0.27,0,0.52,0.03,0.75,0.1c0.23,0.06,0.43,0.16,0.59,0.29s0.3,0.3,0.39,0.52c0.09,0.21,0.14,0.47,0.14,0.76
			c0,0.17-0.03,0.41-0.1,0.73l-0.85,3.97h-0.76l0.86-4c0.02-0.1,0.04-0.2,0.06-0.31c0.02-0.11,0.02-0.21,0.02-0.32
			c0-0.21-0.04-0.38-0.11-0.52c-0.07-0.14-0.17-0.25-0.29-0.34c-0.12-0.09-0.26-0.15-0.41-0.19c-0.16-0.04-0.32-0.06-0.49-0.06
			c-0.27,0-0.54,0.06-0.79,0.18s-0.49,0.29-0.71,0.51c-0.22,0.22-0.4,0.49-0.56,0.8c-0.16,0.32-0.28,0.67-0.36,1.06l-0.68,3.18
			h-0.74l1.32-6.19H186.89z"/>
		<path class="st1" d="M193.07,128.97l0.4-1.87h0.76l-0.4,1.87h1.24l-0.12,0.64h-1.26l-0.85,3.97c-0.03,0.14-0.05,0.25-0.07,0.33
			c-0.01,0.08-0.02,0.16-0.02,0.26c0,0.11,0.03,0.21,0.09,0.3c0.06,0.09,0.16,0.13,0.31,0.13c0.3,0,0.59-0.02,0.89-0.07l-0.13,0.65
			c-0.13,0.02-0.26,0.03-0.38,0.04c-0.13,0.01-0.26,0.01-0.38,0.01c-0.14,0-0.28-0.01-0.42-0.03c-0.14-0.02-0.26-0.06-0.37-0.13
			c-0.11-0.06-0.19-0.15-0.26-0.27c-0.06-0.12-0.1-0.27-0.1-0.45c0-0.06,0.01-0.15,0.02-0.26c0.01-0.11,0.03-0.24,0.07-0.37
			l0.85-4.1h-1.12l0.14-0.64H193.07z"/>
		<path class="st1" d="M195.88,133.91c0.1,0.2,0.23,0.36,0.4,0.48c0.16,0.12,0.35,0.2,0.56,0.25c0.21,0.05,0.43,0.07,0.64,0.07
			c0.17,0,0.34-0.02,0.53-0.07c0.18-0.04,0.35-0.11,0.5-0.2c0.15-0.09,0.28-0.21,0.38-0.35c0.1-0.14,0.15-0.32,0.15-0.52
			c0-0.21-0.05-0.38-0.15-0.52c-0.1-0.14-0.23-0.25-0.38-0.35c-0.16-0.1-0.33-0.19-0.53-0.26c-0.2-0.08-0.4-0.15-0.6-0.23
			s-0.4-0.17-0.6-0.26c-0.2-0.09-0.38-0.2-0.53-0.34s-0.28-0.29-0.38-0.47c-0.1-0.18-0.14-0.4-0.14-0.65c0-0.3,0.07-0.56,0.22-0.77
			c0.14-0.21,0.33-0.39,0.55-0.52c0.22-0.14,0.47-0.24,0.74-0.3c0.27-0.06,0.53-0.1,0.78-0.1c0.33,0,0.63,0.04,0.9,0.11
			c0.27,0.07,0.51,0.19,0.7,0.35c0.2,0.16,0.35,0.37,0.46,0.62c0.11,0.25,0.16,0.56,0.15,0.92h-0.76c0.02-0.24-0.01-0.44-0.08-0.61
			s-0.17-0.31-0.31-0.42c-0.13-0.11-0.29-0.19-0.47-0.25c-0.18-0.05-0.38-0.08-0.59-0.08c-0.17,0-0.34,0.02-0.52,0.05
			c-0.18,0.03-0.34,0.09-0.49,0.16c-0.15,0.08-0.27,0.18-0.37,0.32c-0.1,0.14-0.15,0.31-0.15,0.53c0,0.14,0.04,0.27,0.11,0.38
			c0.07,0.11,0.17,0.21,0.29,0.3c0.12,0.09,0.26,0.17,0.41,0.24s0.32,0.14,0.5,0.22c0.22,0.09,0.44,0.18,0.68,0.27
			s0.45,0.21,0.65,0.34c0.2,0.14,0.36,0.3,0.49,0.49c0.13,0.19,0.2,0.43,0.2,0.72c0,0.35-0.07,0.65-0.22,0.89
			c-0.15,0.24-0.34,0.43-0.58,0.58c-0.24,0.15-0.51,0.25-0.8,0.32c-0.3,0.06-0.59,0.1-0.89,0.1c-0.3,0-0.6-0.04-0.88-0.12
			c-0.28-0.08-0.53-0.21-0.75-0.38s-0.39-0.4-0.52-0.68s-0.18-0.61-0.17-1h0.74C195.73,133.45,195.78,133.71,195.88,133.91z"/>
	</g>
	<g>
		<path class="st0" d="M56.72,90.75v5.83h-1.51v-5.83H56.72z M59.92,90.75v5.83H58.4v-5.83H59.92z"/>
		<path class="st0" d="M75.55,94.17c-0.33-0.52-0.73-0.96-1.2-1.31c-0.47-0.35-0.99-0.62-1.56-0.8c-0.57-0.18-1.16-0.28-1.79-0.28
			c-1.14,0-2.11,0.22-2.93,0.65c-0.82,0.43-1.48,1-2,1.72c-0.52,0.71-0.9,1.52-1.15,2.41c-0.25,0.9-0.37,1.82-0.37,2.76
			c0,0.93,0.12,1.84,0.37,2.75c0.25,0.9,0.63,1.71,1.15,2.42c0.52,0.71,1.19,1.28,2,1.72c0.82,0.43,1.79,0.65,2.93,0.65
			c0.8,0,1.52-0.14,2.16-0.43c0.64-0.29,1.19-0.68,1.66-1.18s0.84-1.08,1.13-1.74s0.47-1.38,0.55-2.15h1.63
			c-0.11,1.06-0.36,2.01-0.74,2.86c-0.38,0.85-0.88,1.57-1.49,2.16s-1.32,1.05-2.15,1.37c-0.82,0.32-1.74,0.48-2.75,0.48
			c-1.34,0-2.52-0.24-3.54-0.73c-1.02-0.49-1.86-1.14-2.53-1.96c-0.67-0.82-1.18-1.76-1.51-2.83s-0.5-2.2-0.5-3.38
			c0-1.18,0.17-2.31,0.5-3.38c0.34-1.07,0.84-2.02,1.51-2.84s1.52-1.48,2.53-1.97c1.02-0.49,2.2-0.73,3.54-0.73
			c0.82,0,1.61,0.12,2.39,0.36s1.48,0.6,2.11,1.07c0.63,0.47,1.16,1.05,1.58,1.74c0.42,0.69,0.69,1.48,0.8,2.38h-1.63
			C76.11,95.27,75.88,94.69,75.55,94.17z"/>
		<path class="st0" d="M88.08,95.67c0.73,0.35,1.34,0.82,1.84,1.42c0.5,0.59,0.87,1.28,1.13,2.08c0.26,0.79,0.38,1.64,0.38,2.53
			c0,0.9-0.13,1.74-0.38,2.53c-0.26,0.79-0.63,1.48-1.13,2.08c-0.5,0.59-1.11,1.06-1.84,1.4c-0.73,0.34-1.56,0.52-2.51,0.52
			s-1.78-0.17-2.51-0.52s-1.34-0.81-1.84-1.4c-0.5-0.59-0.87-1.28-1.13-2.08s-0.38-1.64-0.38-2.53c0-0.9,0.13-1.74,0.38-2.53
			s0.63-1.48,1.13-2.08s1.11-1.06,1.84-1.42c0.73-0.35,1.56-0.53,2.51-0.53S87.35,95.31,88.08,95.67z M83.68,96.87
			c-0.54,0.3-1,0.7-1.36,1.2c-0.36,0.5-0.63,1.06-0.82,1.69c-0.18,0.63-0.28,1.28-0.28,1.93s0.09,1.3,0.28,1.93
			c0.18,0.63,0.46,1.2,0.82,1.69c0.36,0.5,0.81,0.9,1.36,1.2c0.54,0.3,1.18,0.46,1.9,0.46c0.72,0,1.35-0.15,1.9-0.46
			c0.54-0.3,1-0.7,1.36-1.2c0.36-0.5,0.63-1.06,0.82-1.69c0.18-0.63,0.28-1.28,0.28-1.93s-0.09-1.3-0.28-1.93
			c-0.18-0.63-0.46-1.2-0.82-1.69c-0.36-0.5-0.81-0.9-1.36-1.2s-1.18-0.46-1.9-0.46C84.85,96.41,84.22,96.56,83.68,96.87z"/>
		<path class="st0" d="M95.84,90.75v5.83h-1.51v-5.83H95.84z M99.03,90.75v5.83h-1.51v-5.83H99.03z"/>
	</g>
	<g>
		<path class="st1" d="M201.88,189c0.26-0.82,0.64-1.54,1.15-2.16c0.51-0.62,1.16-1.1,1.93-1.44s1.67-0.52,2.68-0.52
			c0.77,0,1.5,0.12,2.2,0.36s1.31,0.58,1.84,1.03s0.95,1,1.26,1.66c0.31,0.66,0.47,1.39,0.47,2.21c0,0.85-0.14,1.58-0.41,2.18
			c-0.27,0.61-0.63,1.15-1.08,1.62c-0.45,0.47-0.96,0.9-1.52,1.28c-0.57,0.38-1.14,0.76-1.72,1.14s-1.14,0.78-1.68,1.21
			c-0.54,0.43-1.02,0.94-1.44,1.51h7.94v2.93h-12.34c0-0.98,0.14-1.82,0.42-2.54c0.28-0.72,0.66-1.36,1.14-1.93
			c0.48-0.57,1.04-1.09,1.69-1.57c0.65-0.48,1.33-0.97,2.05-1.46c0.37-0.25,0.76-0.52,1.18-0.78c0.42-0.26,0.8-0.56,1.14-0.88
			c0.34-0.32,0.63-0.68,0.86-1.08c0.23-0.4,0.35-0.86,0.35-1.37c0-0.82-0.24-1.45-0.71-1.91c-0.47-0.46-1.08-0.68-1.81-0.68
			c-0.5,0-0.92,0.12-1.26,0.35c-0.34,0.23-0.62,0.54-0.83,0.91s-0.36,0.79-0.44,1.25c-0.09,0.46-0.13,0.91-0.13,1.36h-3.26
			C201.51,190.71,201.62,189.82,201.88,189z"/>
	</g>
	<line class="st2" x1="168.63" y1="137.63" x2="202.9" y2="182.05"/>
	<g>
		<path class="st1" d="M161.16,189.43c0.33-1.11,0.77-2,1.33-2.68c0.56-0.67,1.21-1.15,1.96-1.44s1.53-0.43,2.36-0.43
			c0.85,0,1.64,0.14,2.39,0.43s1.4,0.77,1.97,1.44c0.57,0.67,1.02,1.56,1.34,2.68c0.33,1.11,0.49,2.48,0.49,4.12
			c0,1.68-0.16,3.08-0.49,4.21c-0.33,1.13-0.78,2.03-1.34,2.7s-1.22,1.15-1.97,1.44s-1.54,0.43-2.39,0.43
			c-0.83,0-1.62-0.14-2.36-0.43s-1.4-0.77-1.96-1.44c-0.56-0.67-1-1.57-1.33-2.7c-0.33-1.13-0.49-2.53-0.49-4.21
			C160.67,191.91,160.83,190.54,161.16,189.43z M164.13,195.28c0.03,0.68,0.13,1.34,0.3,1.97c0.17,0.63,0.44,1.17,0.8,1.62
			c0.37,0.45,0.9,0.67,1.58,0.67c0.71,0,1.24-0.22,1.62-0.67c0.38-0.45,0.65-0.99,0.82-1.62c0.17-0.63,0.27-1.29,0.3-1.97
			c0.03-0.68,0.05-1.26,0.05-1.74c0-0.29,0-0.64-0.01-1.04c-0.01-0.41-0.04-0.83-0.1-1.26c-0.06-0.43-0.14-0.86-0.24-1.28
			c-0.1-0.42-0.26-0.8-0.47-1.14c-0.21-0.34-0.47-0.61-0.79-0.82c-0.32-0.21-0.71-0.31-1.18-0.31c-0.46,0-0.85,0.1-1.16,0.31
			c-0.31,0.21-0.57,0.48-0.77,0.82s-0.36,0.72-0.47,1.14c-0.11,0.42-0.19,0.85-0.24,1.28s-0.08,0.85-0.08,1.26
			c-0.01,0.41-0.01,0.76-0.01,1.04C164.08,194.02,164.09,194.6,164.13,195.28z"/>
	</g>
	<line class="st2" x1="168.63" y1="137.63" x2="162.41" y2="182.05"/>
	<line class="st2" x1="116.93" y1="137.63" x2="84.49" y2="181.62"/>
	<g>
		<path class="st0" d="M1.51,163.78v5.83H0v-5.83H1.51z M4.7,163.78v5.83H3.19v-5.83H4.7z"/>
		<path class="st0" d="M20.34,167.2c-0.33-0.52-0.73-0.96-1.2-1.31c-0.47-0.35-0.99-0.62-1.56-0.8c-0.57-0.18-1.16-0.28-1.79-0.28
			c-1.14,0-2.11,0.22-2.93,0.65c-0.82,0.43-1.48,1-2,1.72c-0.52,0.71-0.9,1.52-1.15,2.41c-0.25,0.9-0.37,1.82-0.37,2.76
			c0,0.93,0.12,1.84,0.37,2.75c0.25,0.9,0.63,1.71,1.15,2.42c0.52,0.71,1.19,1.28,2,1.72c0.82,0.43,1.79,0.65,2.93,0.65
			c0.8,0,1.52-0.14,2.16-0.43c0.64-0.29,1.19-0.68,1.66-1.18s0.84-1.08,1.13-1.74s0.47-1.38,0.55-2.15h1.63
			c-0.11,1.06-0.36,2.01-0.74,2.86c-0.38,0.85-0.88,1.57-1.49,2.16s-1.32,1.05-2.15,1.37c-0.82,0.32-1.74,0.48-2.75,0.48
			c-1.34,0-2.52-0.24-3.54-0.73c-1.02-0.49-1.86-1.14-2.53-1.96c-0.67-0.82-1.18-1.76-1.51-2.83s-0.5-2.2-0.5-3.38
			c0-1.18,0.17-2.31,0.5-3.38c0.34-1.07,0.84-2.02,1.51-2.84s1.52-1.48,2.53-1.97c1.02-0.49,2.2-0.73,3.54-0.73
			c0.82,0,1.61,0.12,2.39,0.36s1.48,0.6,2.11,1.07c0.63,0.47,1.16,1.05,1.58,1.74c0.42,0.69,0.69,1.48,0.8,2.38h-1.63
			C20.9,168.3,20.67,167.72,20.34,167.2z"/>
		<path class="st0" d="M32.87,168.7c0.73,0.35,1.34,0.82,1.84,1.42c0.5,0.59,0.87,1.28,1.13,2.08c0.26,0.79,0.38,1.64,0.38,2.53
			c0,0.9-0.13,1.74-0.38,2.53c-0.26,0.79-0.63,1.48-1.13,2.08c-0.5,0.59-1.11,1.06-1.84,1.4c-0.73,0.34-1.56,0.52-2.51,0.52
			s-1.78-0.17-2.51-0.52s-1.34-0.81-1.84-1.4c-0.5-0.59-0.87-1.28-1.13-2.08s-0.38-1.64-0.38-2.53c0-0.9,0.13-1.74,0.38-2.53
			s0.63-1.48,1.13-2.08s1.11-1.06,1.84-1.42c0.73-0.35,1.56-0.53,2.51-0.53S32.14,168.34,32.87,168.7z M28.46,169.9
			c-0.54,0.3-1,0.7-1.36,1.2c-0.36,0.5-0.63,1.06-0.82,1.69c-0.18,0.63-0.28,1.28-0.28,1.93s0.09,1.3,0.28,1.93
			c0.18,0.63,0.46,1.2,0.82,1.69c0.36,0.5,0.81,0.9,1.36,1.2c0.54,0.3,1.18,0.46,1.9,0.46c0.72,0,1.35-0.15,1.9-0.46
			c0.54-0.3,1-0.7,1.36-1.2c0.36-0.5,0.63-1.06,0.82-1.69c0.18-0.63,0.28-1.28,0.28-1.93s-0.09-1.3-0.28-1.93
			c-0.18-0.63-0.46-1.2-0.82-1.69c-0.36-0.5-0.81-0.9-1.36-1.2c-0.54-0.3-1.18-0.46-1.9-0.46C29.64,169.44,29.01,169.59,28.46,169.9
			z"/>
		<path class="st0" d="M46.21,168.7c0.73,0.35,1.34,0.82,1.84,1.42c0.5,0.59,0.87,1.28,1.13,2.08c0.26,0.79,0.38,1.64,0.38,2.53
			c0,0.9-0.13,1.74-0.38,2.53c-0.26,0.79-0.63,1.48-1.13,2.08c-0.5,0.59-1.11,1.06-1.84,1.4c-0.73,0.34-1.56,0.52-2.51,0.52
			s-1.78-0.17-2.51-0.52s-1.34-0.81-1.84-1.4c-0.5-0.59-0.87-1.28-1.13-2.08s-0.38-1.64-0.38-2.53c0-0.9,0.13-1.74,0.38-2.53
			s0.63-1.48,1.13-2.08s1.11-1.06,1.84-1.42c0.73-0.35,1.56-0.53,2.51-0.53S45.48,168.34,46.21,168.7z M41.81,169.9
			c-0.54,0.3-1,0.7-1.36,1.2c-0.36,0.5-0.63,1.06-0.82,1.69c-0.18,0.63-0.28,1.28-0.28,1.93s0.09,1.3,0.28,1.93
			c0.18,0.63,0.46,1.2,0.82,1.69c0.36,0.5,0.81,0.9,1.36,1.2c0.54,0.3,1.18,0.46,1.9,0.46c0.72,0,1.35-0.15,1.9-0.46
			c0.54-0.3,1-0.7,1.36-1.2c0.36-0.5,0.63-1.06,0.82-1.69c0.18-0.63,0.28-1.28,0.28-1.93s-0.09-1.3-0.28-1.93
			c-0.18-0.63-0.46-1.2-0.82-1.69c-0.36-0.5-0.81-0.9-1.36-1.2s-1.18-0.46-1.9-0.46C42.98,169.44,42.35,169.59,41.81,169.9z"/>
		<path class="st0" d="M53.98,163.78v5.83h-1.51v-5.83H53.98z M57.17,163.78v5.83h-1.51v-5.83H57.17z"/>
	</g>
	<g>
		<path class="st1" d="M46.27,189.92v1.68h0.05c0.45-0.64,0.99-1.14,1.62-1.49c0.63-0.35,1.36-0.53,2.17-0.53
			c0.78,0,1.5,0.15,2.15,0.46c0.65,0.3,1.14,0.84,1.48,1.61c0.37-0.54,0.87-1.02,1.5-1.44c0.63-0.42,1.38-0.62,2.24-0.62
			c0.66,0,1.26,0.08,1.82,0.24c0.56,0.16,1.04,0.42,1.44,0.77c0.4,0.35,0.71,0.81,0.94,1.38c0.22,0.57,0.34,1.25,0.34,2.05v8.3H58.6
			v-7.03c0-0.42-0.02-0.81-0.05-1.18s-0.12-0.69-0.26-0.96c-0.14-0.27-0.36-0.49-0.64-0.65c-0.28-0.16-0.66-0.24-1.14-0.24
			c-0.48,0-0.87,0.09-1.16,0.28c-0.3,0.18-0.53,0.42-0.7,0.72c-0.17,0.3-0.28,0.63-0.34,1.01c-0.06,0.38-0.08,0.76-0.08,1.14v6.91
			h-3.41v-6.96c0-0.37-0.01-0.73-0.02-1.09c-0.02-0.36-0.08-0.69-0.2-1s-0.32-0.55-0.6-0.73c-0.28-0.18-0.69-0.28-1.24-0.28
			c-0.16,0-0.37,0.04-0.64,0.11s-0.52,0.21-0.77,0.41c-0.25,0.2-0.46,0.49-0.64,0.86s-0.26,0.87-0.26,1.48v7.2h-3.41v-12.41H46.27z"
			/>
		<path class="st1" d="M64.56,193.74c0.05-0.8,0.25-1.46,0.6-1.99c0.35-0.53,0.8-0.95,1.34-1.27c0.54-0.32,1.16-0.55,1.84-0.68
			c0.68-0.14,1.36-0.2,2.05-0.2c0.62,0,1.26,0.04,1.9,0.13s1.22,0.26,1.75,0.52c0.53,0.26,0.96,0.61,1.3,1.07
			c0.34,0.46,0.5,1.06,0.5,1.81v6.46c0,0.56,0.03,1.1,0.1,1.61c0.06,0.51,0.18,0.9,0.34,1.15h-3.46c-0.06-0.19-0.12-0.39-0.16-0.59
			s-0.07-0.4-0.08-0.61c-0.54,0.56-1.18,0.95-1.92,1.18s-1.49,0.34-2.26,0.34c-0.59,0-1.14-0.07-1.66-0.22
			c-0.51-0.14-0.96-0.37-1.34-0.67s-0.68-0.69-0.9-1.15c-0.22-0.46-0.32-1.02-0.32-1.66c0-0.7,0.12-1.28,0.37-1.74
			c0.25-0.46,0.57-0.82,0.96-1.09c0.39-0.27,0.84-0.48,1.34-0.61s1.01-0.24,1.52-0.32c0.51-0.08,1.02-0.14,1.51-0.19
			c0.5-0.05,0.94-0.12,1.32-0.22c0.38-0.1,0.69-0.24,0.91-0.42c0.22-0.18,0.33-0.45,0.31-0.8c0-0.37-0.06-0.66-0.18-0.88
			c-0.12-0.22-0.28-0.38-0.48-0.5s-0.43-0.2-0.7-0.24c-0.26-0.04-0.55-0.06-0.85-0.06c-0.67,0-1.2,0.14-1.58,0.43
			s-0.61,0.77-0.67,1.44H64.56z M72.43,196.26c-0.14,0.13-0.32,0.23-0.54,0.3s-0.45,0.13-0.7,0.18c-0.25,0.05-0.51,0.09-0.78,0.12
			c-0.27,0.03-0.54,0.07-0.82,0.12c-0.26,0.05-0.51,0.11-0.76,0.19s-0.46,0.19-0.65,0.32s-0.33,0.31-0.44,0.52
			c-0.11,0.21-0.17,0.47-0.17,0.79c0,0.3,0.06,0.56,0.17,0.77c0.11,0.21,0.26,0.37,0.46,0.49c0.19,0.12,0.42,0.2,0.67,0.25
			c0.25,0.05,0.52,0.07,0.79,0.07c0.67,0,1.19-0.11,1.56-0.34c0.37-0.22,0.64-0.49,0.82-0.8c0.18-0.31,0.28-0.63,0.32-0.95
			s0.06-0.58,0.06-0.77V196.26z"/>
		<path class="st1" d="M81.34,199.24c0.15,0.26,0.35,0.48,0.59,0.65s0.52,0.29,0.83,0.37c0.31,0.08,0.64,0.12,0.97,0.12
			c0.24,0,0.49-0.03,0.76-0.08c0.26-0.06,0.5-0.14,0.72-0.26c0.22-0.12,0.4-0.28,0.54-0.48c0.14-0.2,0.22-0.45,0.22-0.76
			c0-0.51-0.34-0.9-1.02-1.15c-0.68-0.25-1.63-0.51-2.84-0.77c-0.5-0.11-0.98-0.24-1.45-0.4c-0.47-0.15-0.89-0.35-1.26-0.6
			c-0.37-0.25-0.66-0.56-0.89-0.94c-0.22-0.38-0.34-0.84-0.34-1.38c0-0.8,0.16-1.46,0.47-1.97c0.31-0.51,0.72-0.92,1.24-1.21
			c0.51-0.3,1.09-0.5,1.73-0.62c0.64-0.12,1.3-0.18,1.97-0.18s1.32,0.06,1.96,0.19c0.63,0.13,1.2,0.34,1.69,0.65
			c0.5,0.3,0.91,0.71,1.24,1.21s0.52,1.14,0.59,1.91H85.8c-0.05-0.66-0.3-1.1-0.74-1.33c-0.45-0.23-0.98-0.35-1.58-0.35
			c-0.19,0-0.4,0.01-0.62,0.04c-0.22,0.02-0.43,0.08-0.61,0.16c-0.18,0.08-0.34,0.2-0.47,0.35c-0.13,0.15-0.19,0.36-0.19,0.61
			c0,0.3,0.11,0.55,0.34,0.74c0.22,0.19,0.52,0.35,0.88,0.47c0.36,0.12,0.77,0.23,1.24,0.32s0.94,0.2,1.42,0.31
			c0.5,0.11,0.98,0.25,1.45,0.41c0.47,0.16,0.89,0.37,1.26,0.64c0.37,0.26,0.66,0.59,0.89,0.98c0.22,0.39,0.34,0.88,0.34,1.45
			c0,0.82-0.16,1.5-0.49,2.05c-0.33,0.55-0.76,1-1.28,1.33c-0.53,0.34-1.13,0.57-1.81,0.71s-1.37,0.2-2.08,0.2
			c-0.72,0-1.42-0.07-2.11-0.22c-0.69-0.14-1.3-0.38-1.84-0.72c-0.54-0.34-0.98-0.78-1.32-1.33c-0.34-0.55-0.53-1.24-0.56-2.08h3.24
			C81.11,198.66,81.19,198.98,81.34,199.24z"/>
		<path class="st1" d="M97.29,192.15c-0.54,0-1,0.12-1.37,0.37c-0.37,0.25-0.67,0.57-0.9,0.96c-0.23,0.39-0.4,0.83-0.49,1.3
			s-0.14,0.94-0.14,1.4c0,0.45,0.05,0.9,0.14,1.37c0.1,0.46,0.25,0.88,0.47,1.26c0.22,0.38,0.51,0.68,0.88,0.92
			c0.37,0.24,0.82,0.36,1.34,0.36c0.82,0,1.44-0.23,1.88-0.68c0.44-0.46,0.72-1.07,0.83-1.84h3.29c-0.22,1.65-0.86,2.9-1.92,3.77
			c-1.06,0.86-2.41,1.3-4.06,1.3c-0.93,0-1.78-0.16-2.56-0.47c-0.78-0.31-1.44-0.75-1.98-1.31c-0.54-0.56-0.97-1.23-1.27-2
			c-0.3-0.78-0.46-1.63-0.46-2.56c0-0.96,0.14-1.85,0.42-2.68c0.28-0.82,0.69-1.54,1.24-2.14c0.54-0.6,1.21-1.07,1.99-1.4
			s1.68-0.5,2.69-0.5c0.74,0,1.44,0.1,2.12,0.29c0.68,0.19,1.29,0.48,1.82,0.88s0.97,0.88,1.31,1.46s0.53,1.28,0.58,2.08h-3.34
			C99.59,192.86,98.75,192.15,97.29,192.15z"/>
		<path class="st1" d="M105.21,193.43c0.3-0.81,0.74-1.5,1.3-2.06c0.56-0.57,1.23-1.01,2.02-1.32c0.78-0.31,1.66-0.47,2.64-0.47
			c0.98,0,1.86,0.16,2.65,0.47c0.79,0.31,1.47,0.75,2.03,1.32c0.56,0.57,0.99,1.26,1.3,2.06c0.3,0.81,0.46,1.71,0.46,2.7
			s-0.15,1.89-0.46,2.69s-0.74,1.48-1.3,2.05c-0.56,0.57-1.24,1-2.03,1.31s-1.68,0.46-2.65,0.46c-0.98,0-1.86-0.15-2.64-0.46
			c-0.78-0.3-1.46-0.74-2.02-1.31c-0.56-0.57-0.99-1.25-1.3-2.05s-0.46-1.7-0.46-2.69S104.91,194.24,105.21,193.43z M108.31,197.59
			c0.1,0.47,0.26,0.9,0.49,1.27s0.54,0.68,0.92,0.9c0.38,0.22,0.86,0.34,1.44,0.34s1.06-0.11,1.45-0.34c0.39-0.22,0.7-0.52,0.94-0.9
			c0.23-0.38,0.4-0.8,0.49-1.27s0.14-0.96,0.14-1.45s-0.05-0.98-0.14-1.46s-0.26-0.9-0.49-1.27c-0.23-0.37-0.54-0.67-0.94-0.9
			c-0.39-0.23-0.88-0.35-1.45-0.35s-1.06,0.12-1.44,0.35c-0.38,0.23-0.69,0.53-0.92,0.9c-0.23,0.37-0.4,0.79-0.49,1.27
			c-0.1,0.48-0.14,0.97-0.14,1.46S108.21,197.12,108.31,197.59z"/>
		<path class="st1" d="M126.62,189.92v2.28h-2.5v6.14c0,0.58,0.1,0.96,0.29,1.15c0.19,0.19,0.58,0.29,1.15,0.29
			c0.19,0,0.38-0.01,0.55-0.02c0.18-0.02,0.34-0.04,0.5-0.07v2.64c-0.29,0.05-0.61,0.08-0.96,0.1c-0.35,0.02-0.7,0.02-1.03,0.02
			c-0.53,0-1.03-0.04-1.5-0.11c-0.47-0.07-0.89-0.21-1.25-0.42c-0.36-0.21-0.64-0.5-0.85-0.89c-0.21-0.38-0.31-0.89-0.31-1.51v-7.32
			h-2.06v-2.28h2.06v-3.72h3.41v3.72H126.62z"/>
	</g>
</g>
</svg>
