<?xml version="1.0" encoding="utf-8"?>
<!-- Generator: Adobe Illustrator 28.1.0, SVG Export Plug-In . SVG Version: 6.00 Build 0)  -->
<svg version="1.1" id="Layer_1" xmlns="http://www.w3.org/2000/svg" xmlns:xlink="http://www.w3.org/1999/xlink" x="0px" y="0px"
	 viewBox="0 0 367.72 178.85" style="enable-background:new 0 0 367.72 178.85;" xml:space="preserve">
<style type="text/css">
	.st0{fill:#00D4FF;}
	.st1{fill:#221F20;}
	.st2{opacity:0.5;fill:none;stroke:#5E55E0;stroke-width:2;stroke-miterlimit:10;}
	.st3{fill:#E06837;}
	.st4{fill:#575757;}
</style>
<g>
	<path class="st0" d="M106.63,0.36v5.83h-1.51V0.36H106.63z M109.83,0.36v5.83h-1.51V0.36H109.83z"/>
	<path class="st0" d="M125.46,3.78c-0.33-0.52-0.73-0.96-1.2-1.31s-0.99-0.62-1.56-0.8c-0.57-0.18-1.16-0.28-1.79-0.28
		c-1.14,0-2.11,0.22-2.93,0.65c-0.82,0.43-1.48,1-2,1.71c-0.52,0.71-0.9,1.52-1.15,2.41c-0.25,0.9-0.37,1.82-0.37,2.76
		c0,0.93,0.12,1.84,0.37,2.75s0.63,1.71,1.15,2.42c0.52,0.71,1.19,1.28,2,1.72c0.82,0.43,1.79,0.65,2.93,0.65
		c0.8,0,1.52-0.14,2.16-0.43c0.64-0.29,1.19-0.68,1.66-1.18c0.46-0.5,0.84-1.08,1.13-1.74s0.47-1.38,0.55-2.15h1.63
		c-0.11,1.06-0.36,2.01-0.74,2.86c-0.38,0.85-0.88,1.57-1.49,2.16s-1.32,1.05-2.15,1.37c-0.82,0.32-1.74,0.48-2.75,0.48
		c-1.34,0-2.52-0.24-3.54-0.73c-1.02-0.49-1.86-1.14-2.53-1.96s-1.18-1.76-1.51-2.83s-0.5-2.2-0.5-3.38s0.17-2.31,0.5-3.38
		s0.84-2.02,1.51-2.84s1.52-1.48,2.53-1.97c1.02-0.49,2.2-0.73,3.54-0.73c0.82,0,1.61,0.12,2.39,0.36c0.78,0.24,1.48,0.6,2.11,1.07
		c0.63,0.47,1.16,1.05,1.58,1.74c0.42,0.69,0.69,1.48,0.8,2.38h-1.63C126.03,4.89,125.79,4.3,125.46,3.78z"/>
	<path class="st0" d="M137.99,5.28c0.73,0.35,1.34,0.82,1.84,1.42c0.5,0.59,0.87,1.28,1.13,2.08c0.26,0.79,0.38,1.64,0.38,2.53
		s-0.13,1.74-0.38,2.53c-0.26,0.79-0.63,1.48-1.13,2.08c-0.5,0.59-1.11,1.06-1.84,1.4c-0.73,0.34-1.56,0.52-2.51,0.52
		s-1.78-0.17-2.51-0.52s-1.34-0.81-1.84-1.4c-0.5-0.59-0.87-1.28-1.13-2.08c-0.26-0.79-0.38-1.63-0.38-2.53s0.13-1.74,0.38-2.53
		s0.63-1.48,1.13-2.08s1.11-1.06,1.84-1.42c0.73-0.35,1.56-0.53,2.51-0.53S137.26,4.93,137.99,5.28z M133.59,6.48
		c-0.54,0.3-1,0.71-1.36,1.2c-0.36,0.5-0.63,1.06-0.82,1.69c-0.18,0.63-0.28,1.28-0.28,1.93s0.09,1.3,0.28,1.93
		c0.18,0.63,0.46,1.2,0.82,1.69c0.36,0.5,0.81,0.9,1.36,1.2c0.54,0.3,1.18,0.46,1.9,0.46c0.72,0,1.35-0.15,1.9-0.46
		c0.54-0.3,1-0.7,1.36-1.2c0.36-0.5,0.63-1.06,0.82-1.69c0.18-0.63,0.28-1.28,0.28-1.93s-0.09-1.3-0.28-1.93
		c-0.18-0.63-0.46-1.2-0.82-1.69c-0.36-0.5-0.81-0.9-1.36-1.2c-0.54-0.3-1.18-0.46-1.9-0.46C134.76,6.02,134.13,6.18,133.59,6.48z"
		/>
	<path class="st0" d="M151.33,5.28c0.73,0.35,1.34,0.82,1.84,1.42c0.5,0.59,0.87,1.28,1.13,2.08c0.26,0.79,0.38,1.64,0.38,2.53
		s-0.13,1.74-0.38,2.53c-0.26,0.79-0.63,1.48-1.13,2.08c-0.5,0.59-1.11,1.06-1.84,1.4c-0.73,0.34-1.56,0.52-2.51,0.52
		s-1.78-0.17-2.51-0.52s-1.34-0.81-1.84-1.4c-0.5-0.59-0.87-1.28-1.13-2.08c-0.26-0.79-0.38-1.63-0.38-2.53s0.13-1.74,0.38-2.53
		s0.63-1.48,1.13-2.08s1.11-1.06,1.84-1.42c0.73-0.35,1.56-0.53,2.51-0.53S150.61,4.93,151.33,5.28z M146.93,6.48
		c-0.54,0.3-1,0.71-1.36,1.2c-0.36,0.5-0.63,1.06-0.82,1.69c-0.18,0.63-0.28,1.28-0.28,1.93s0.09,1.3,0.28,1.93
		c0.18,0.63,0.46,1.2,0.82,1.69c0.36,0.5,0.81,0.9,1.36,1.2c0.54,0.3,1.18,0.46,1.9,0.46c0.72,0,1.35-0.15,1.9-0.46
		c0.54-0.3,1-0.7,1.36-1.2c0.36-0.5,0.63-1.06,0.82-1.69c0.18-0.63,0.28-1.28,0.28-1.93s-0.09-1.3-0.28-1.93
		c-0.18-0.63-0.46-1.2-0.82-1.69c-0.36-0.5-0.81-0.9-1.36-1.2c-0.54-0.3-1.18-0.46-1.9-0.46C148.11,6.02,147.47,6.18,146.93,6.48z"
		/>
	<path class="st0" d="M157.39,14.95h2.02v2.54h-2.02V14.95z M157.59,0.36h1.63v5.11l-0.36,7.75h-0.91l-0.36-7.75V0.36z"/>
	<path class="st0" d="M174.83,3.78c-0.33-0.52-0.73-0.96-1.2-1.31c-0.47-0.35-0.99-0.62-1.56-0.8c-0.57-0.18-1.16-0.28-1.79-0.28
		c-1.14,0-2.11,0.22-2.93,0.65c-0.82,0.43-1.48,1-2,1.71c-0.52,0.71-0.9,1.52-1.15,2.41c-0.25,0.9-0.37,1.82-0.37,2.76
		c0,0.93,0.12,1.84,0.37,2.75s0.63,1.71,1.15,2.42c0.52,0.71,1.19,1.28,2,1.72s1.79,0.65,2.93,0.65c0.8,0,1.52-0.14,2.16-0.43
		c0.64-0.29,1.19-0.68,1.66-1.18c0.46-0.5,0.84-1.08,1.13-1.74s0.47-1.38,0.55-2.15h1.63c-0.11,1.06-0.36,2.01-0.74,2.86
		c-0.38,0.85-0.88,1.57-1.49,2.16c-0.61,0.59-1.32,1.05-2.15,1.37s-1.74,0.48-2.75,0.48c-1.34,0-2.52-0.24-3.54-0.73
		c-1.02-0.49-1.86-1.14-2.53-1.96c-0.67-0.82-1.18-1.76-1.51-2.83s-0.5-2.2-0.5-3.38s0.17-2.31,0.5-3.38s0.84-2.02,1.51-2.84
		c0.67-0.82,1.52-1.48,2.53-1.97c1.02-0.49,2.2-0.73,3.54-0.73c0.82,0,1.61,0.12,2.39,0.36c0.78,0.24,1.48,0.6,2.11,1.07
		s1.16,1.05,1.58,1.74c0.42,0.69,0.69,1.48,0.8,2.38h-1.63C175.39,4.89,175.16,4.3,174.83,3.78z"/>
	<path class="st0" d="M187.36,5.28c0.73,0.35,1.34,0.82,1.84,1.42s0.87,1.28,1.13,2.08s0.38,1.64,0.38,2.53s-0.13,1.74-0.38,2.53
		c-0.26,0.79-0.63,1.48-1.13,2.08c-0.5,0.59-1.11,1.06-1.84,1.4c-0.73,0.34-1.56,0.52-2.51,0.52c-0.94,0-1.78-0.17-2.51-0.52
		c-0.73-0.34-1.34-0.81-1.84-1.4c-0.5-0.59-0.87-1.28-1.13-2.08c-0.26-0.79-0.38-1.63-0.38-2.53s0.13-1.74,0.38-2.53
		c0.25-0.79,0.63-1.48,1.13-2.08c0.5-0.59,1.11-1.06,1.84-1.42c0.73-0.35,1.56-0.53,2.51-0.53C185.79,4.75,186.63,4.93,187.36,5.28z
		 M182.95,6.48c-0.54,0.3-1,0.71-1.36,1.2c-0.36,0.5-0.63,1.06-0.82,1.69c-0.18,0.63-0.28,1.28-0.28,1.93s0.09,1.3,0.28,1.93
		c0.18,0.63,0.46,1.2,0.82,1.69c0.36,0.5,0.81,0.9,1.36,1.2c0.54,0.3,1.18,0.46,1.9,0.46s1.35-0.15,1.9-0.46
		c0.54-0.3,1-0.7,1.36-1.2s0.63-1.06,0.82-1.69c0.18-0.63,0.28-1.28,0.28-1.93s-0.09-1.3-0.28-1.93c-0.18-0.63-0.46-1.2-0.82-1.69
		c-0.36-0.5-0.81-0.9-1.36-1.2c-0.54-0.3-1.18-0.46-1.9-0.46S183.5,6.18,182.95,6.48z"/>
	<path class="st0" d="M200.7,5.28c0.73,0.35,1.34,0.82,1.84,1.42s0.87,1.28,1.13,2.08s0.38,1.64,0.38,2.53s-0.13,1.74-0.38,2.53
		c-0.26,0.79-0.63,1.48-1.13,2.08c-0.5,0.59-1.11,1.06-1.84,1.4c-0.73,0.34-1.56,0.52-2.51,0.52c-0.94,0-1.78-0.17-2.51-0.52
		c-0.73-0.34-1.34-0.81-1.84-1.4c-0.5-0.59-0.87-1.28-1.13-2.08c-0.26-0.79-0.38-1.63-0.38-2.53s0.13-1.74,0.38-2.53
		c0.25-0.79,0.63-1.48,1.13-2.08c0.5-0.59,1.11-1.06,1.84-1.42c0.73-0.35,1.56-0.53,2.51-0.53C199.14,4.75,199.97,4.93,200.7,5.28z
		 M196.3,6.48c-0.54,0.3-1,0.71-1.36,1.2c-0.36,0.5-0.63,1.06-0.82,1.69c-0.18,0.63-0.28,1.28-0.28,1.93s0.09,1.3,0.28,1.93
		c0.18,0.63,0.46,1.2,0.82,1.69c0.36,0.5,0.81,0.9,1.36,1.2c0.54,0.3,1.18,0.46,1.9,0.46s1.35-0.15,1.9-0.46
		c0.54-0.3,1-0.7,1.36-1.2s0.63-1.06,0.82-1.69c0.18-0.63,0.28-1.28,0.28-1.93s-0.09-1.3-0.28-1.93c-0.18-0.63-0.46-1.2-0.82-1.69
		c-0.36-0.5-0.81-0.9-1.36-1.2c-0.54-0.3-1.18-0.46-1.9-0.46S196.84,6.18,196.3,6.48z"/>
	<path class="st0" d="M206.76,14.95h2.02v2.54h-2.02V14.95z M206.95,0.36h1.63v5.11l-0.36,7.75h-0.91l-0.36-7.75V0.36z"/>
	<path class="st0" d="M224.2,3.78c-0.33-0.52-0.73-0.96-1.2-1.31s-0.99-0.62-1.56-0.8c-0.57-0.18-1.16-0.28-1.79-0.28
		c-1.14,0-2.11,0.22-2.93,0.65c-0.82,0.43-1.48,1-2,1.71c-0.52,0.71-0.9,1.52-1.15,2.41c-0.25,0.9-0.37,1.82-0.37,2.76
		c0,0.93,0.12,1.84,0.37,2.75s0.63,1.71,1.15,2.42c0.52,0.71,1.19,1.28,2,1.72c0.82,0.43,1.79,0.65,2.93,0.65
		c0.8,0,1.52-0.14,2.16-0.43c0.64-0.29,1.19-0.68,1.66-1.18c0.46-0.5,0.84-1.08,1.13-1.74s0.47-1.38,0.55-2.15h1.63
		c-0.11,1.06-0.36,2.01-0.74,2.86c-0.38,0.85-0.88,1.57-1.49,2.16s-1.32,1.05-2.15,1.37c-0.82,0.32-1.74,0.48-2.75,0.48
		c-1.34,0-2.52-0.24-3.54-0.73c-1.02-0.49-1.86-1.14-2.53-1.96s-1.18-1.76-1.51-2.83s-0.5-2.2-0.5-3.38s0.17-2.31,0.5-3.38
		s0.84-2.02,1.51-2.84s1.52-1.48,2.53-1.97c1.02-0.49,2.2-0.73,3.54-0.73c0.82,0,1.61,0.12,2.39,0.36c0.78,0.24,1.48,0.6,2.11,1.07
		c0.63,0.47,1.16,1.05,1.58,1.74c0.42,0.69,0.69,1.48,0.8,2.38h-1.63C224.76,4.89,224.53,4.3,224.2,3.78z"/>
	<path class="st0" d="M236.73,5.28c0.73,0.35,1.34,0.82,1.84,1.42c0.5,0.59,0.87,1.28,1.13,2.08c0.26,0.79,0.38,1.64,0.38,2.53
		s-0.13,1.74-0.38,2.53c-0.26,0.79-0.63,1.48-1.13,2.08c-0.5,0.59-1.11,1.06-1.84,1.4c-0.73,0.34-1.56,0.52-2.51,0.52
		s-1.78-0.17-2.51-0.52s-1.34-0.81-1.84-1.4c-0.5-0.59-0.87-1.28-1.13-2.08c-0.26-0.79-0.38-1.63-0.38-2.53s0.13-1.74,0.38-2.53
		s0.63-1.48,1.13-2.08s1.11-1.06,1.84-1.42c0.73-0.35,1.56-0.53,2.51-0.53S236,4.93,236.73,5.28z M232.32,6.48
		c-0.54,0.3-1,0.71-1.36,1.2c-0.36,0.5-0.63,1.06-0.82,1.69c-0.18,0.63-0.28,1.28-0.28,1.93s0.09,1.3,0.28,1.93
		c0.18,0.63,0.46,1.2,0.82,1.69c0.36,0.5,0.81,0.9,1.36,1.2c0.54,0.3,1.18,0.46,1.9,0.46c0.72,0,1.35-0.15,1.9-0.46
		c0.54-0.3,1-0.7,1.36-1.2c0.36-0.5,0.63-1.06,0.82-1.69c0.18-0.63,0.28-1.28,0.28-1.93s-0.09-1.3-0.28-1.93
		c-0.18-0.63-0.46-1.2-0.82-1.69c-0.36-0.5-0.81-0.9-1.36-1.2c-0.54-0.3-1.18-0.46-1.9-0.46C233.5,6.02,232.87,6.18,232.32,6.48z"/>
	<path class="st0" d="M250.07,5.28c0.73,0.35,1.34,0.82,1.84,1.42s0.87,1.28,1.13,2.08s0.38,1.64,0.38,2.53s-0.13,1.74-0.38,2.53
		c-0.26,0.79-0.63,1.48-1.13,2.08c-0.5,0.59-1.11,1.06-1.84,1.4c-0.73,0.34-1.56,0.52-2.51,0.52c-0.94,0-1.78-0.17-2.51-0.52
		c-0.73-0.34-1.34-0.81-1.84-1.4c-0.5-0.59-0.87-1.28-1.13-2.08c-0.26-0.79-0.38-1.63-0.38-2.53s0.13-1.74,0.38-2.53
		c0.25-0.79,0.63-1.48,1.13-2.08c0.5-0.59,1.11-1.06,1.84-1.42c0.73-0.35,1.56-0.53,2.51-0.53C248.51,4.75,249.34,4.93,250.07,5.28z
		 M245.67,6.48c-0.54,0.3-1,0.71-1.36,1.2c-0.36,0.5-0.63,1.06-0.82,1.69c-0.18,0.63-0.28,1.28-0.28,1.93s0.09,1.3,0.28,1.93
		c0.18,0.63,0.46,1.2,0.82,1.69c0.36,0.5,0.81,0.9,1.36,1.2c0.54,0.3,1.18,0.46,1.9,0.46s1.35-0.15,1.9-0.46
		c0.54-0.3,1-0.7,1.36-1.2s0.63-1.06,0.82-1.69c0.18-0.63,0.28-1.28,0.28-1.93s-0.09-1.3-0.28-1.93c-0.18-0.63-0.46-1.2-0.82-1.69
		c-0.36-0.5-0.81-0.9-1.36-1.2c-0.54-0.3-1.18-0.46-1.9-0.46S246.21,6.18,245.67,6.48z"/>
	<path class="st0" d="M256.13,14.95h2.02v2.54h-2.02V14.95z M256.32,0.36h1.63v5.11l-0.36,7.75h-0.91l-0.36-7.75V0.36z"/>
	<path class="st0" d="M263.62,0.36v5.83h-1.51V0.36H263.62z M266.81,0.36v5.83h-1.51V0.36H266.81z"/>
</g>
<g>
	<g>
		<path class="st0" d="M1.51,139.99v5.83H0v-5.83H1.51z M4.7,139.99v5.83H3.19v-5.83H4.7z"/>
		<path class="st0" d="M20.34,143.41c-0.33-0.52-0.73-0.96-1.2-1.31c-0.47-0.35-0.99-0.62-1.56-0.8c-0.57-0.18-1.16-0.28-1.79-0.28
			c-1.14,0-2.11,0.22-2.93,0.65c-0.82,0.43-1.48,1-2,1.72c-0.52,0.71-0.9,1.52-1.15,2.41c-0.25,0.9-0.37,1.82-0.37,2.76
			c0,0.93,0.12,1.84,0.37,2.75c0.25,0.9,0.63,1.71,1.15,2.42c0.52,0.71,1.19,1.28,2,1.71c0.82,0.43,1.79,0.65,2.93,0.65
			c0.8,0,1.52-0.14,2.16-0.43c0.64-0.29,1.19-0.68,1.66-1.18s0.84-1.08,1.13-1.74s0.47-1.38,0.55-2.15h1.63
			c-0.11,1.06-0.36,2.01-0.74,2.86s-0.88,1.57-1.49,2.16c-0.61,0.59-1.32,1.05-2.15,1.37c-0.82,0.32-1.74,0.48-2.75,0.48
			c-1.34,0-2.52-0.24-3.54-0.73c-1.02-0.49-1.86-1.14-2.53-1.96c-0.67-0.82-1.18-1.76-1.51-2.83c-0.34-1.07-0.5-2.2-0.5-3.38
			c0-1.18,0.17-2.31,0.5-3.38s0.84-2.02,1.51-2.84s1.52-1.48,2.53-1.97c1.02-0.49,2.2-0.73,3.54-0.73c0.82,0,1.61,0.12,2.39,0.36
			s1.48,0.6,2.11,1.07c0.63,0.47,1.16,1.05,1.58,1.74c0.42,0.69,0.69,1.48,0.8,2.38h-1.63C20.9,144.52,20.67,143.93,20.34,143.41z"
			/>
		<path class="st0" d="M32.87,144.91c0.73,0.35,1.34,0.82,1.84,1.42c0.5,0.59,0.87,1.28,1.13,2.08c0.26,0.79,0.38,1.64,0.38,2.53
			c0,0.9-0.13,1.74-0.38,2.53c-0.26,0.79-0.63,1.48-1.13,2.08c-0.5,0.59-1.11,1.06-1.84,1.4c-0.73,0.34-1.56,0.52-2.51,0.52
			s-1.78-0.17-2.51-0.52c-0.73-0.34-1.34-0.81-1.84-1.4c-0.5-0.59-0.87-1.28-1.13-2.08s-0.38-1.64-0.38-2.53
			c0-0.9,0.13-1.74,0.38-2.53c0.26-0.79,0.63-1.48,1.13-2.08s1.11-1.06,1.84-1.42s1.56-0.53,2.51-0.53S32.14,144.56,32.87,144.91z
			 M28.46,146.11c-0.54,0.3-1,0.71-1.36,1.2c-0.36,0.5-0.63,1.06-0.82,1.69c-0.18,0.63-0.28,1.28-0.28,1.93
			c0,0.66,0.09,1.3,0.28,1.93c0.18,0.63,0.46,1.2,0.82,1.69c0.36,0.5,0.81,0.9,1.36,1.2c0.54,0.3,1.18,0.46,1.9,0.46
			c0.72,0,1.35-0.15,1.9-0.46c0.54-0.3,1-0.7,1.36-1.2c0.36-0.5,0.63-1.06,0.82-1.69c0.18-0.63,0.28-1.28,0.28-1.93
			c0-0.66-0.09-1.3-0.28-1.93c-0.18-0.63-0.46-1.2-0.82-1.69c-0.36-0.5-0.81-0.9-1.36-1.2c-0.54-0.3-1.18-0.46-1.9-0.46
			C29.64,145.66,29.01,145.81,28.46,146.11z"/>
		<path class="st0" d="M46.21,144.91c0.73,0.35,1.34,0.82,1.84,1.42c0.5,0.59,0.87,1.28,1.13,2.08c0.26,0.79,0.38,1.64,0.38,2.53
			c0,0.9-0.13,1.74-0.38,2.53c-0.26,0.79-0.63,1.48-1.13,2.08c-0.5,0.59-1.11,1.06-1.84,1.4c-0.73,0.34-1.56,0.52-2.51,0.52
			s-1.78-0.17-2.51-0.52c-0.73-0.34-1.34-0.81-1.84-1.4c-0.5-0.59-0.87-1.28-1.13-2.08s-0.38-1.64-0.38-2.53
			c0-0.9,0.13-1.74,0.38-2.53c0.26-0.79,0.63-1.48,1.13-2.08s1.11-1.06,1.84-1.42s1.56-0.53,2.51-0.53S45.48,144.56,46.21,144.91z
			 M41.81,146.11c-0.54,0.3-1,0.71-1.36,1.2c-0.36,0.5-0.63,1.06-0.82,1.69c-0.18,0.63-0.28,1.28-0.28,1.93
			c0,0.66,0.09,1.3,0.28,1.93c0.18,0.63,0.46,1.2,0.82,1.69c0.36,0.5,0.81,0.9,1.36,1.2c0.54,0.3,1.18,0.46,1.9,0.46
			c0.72,0,1.35-0.15,1.9-0.46c0.54-0.3,1-0.7,1.36-1.2c0.36-0.5,0.63-1.06,0.82-1.69c0.18-0.63,0.28-1.28,0.28-1.93
			c0-0.66-0.09-1.3-0.28-1.93c-0.18-0.63-0.46-1.2-0.82-1.69c-0.36-0.5-0.81-0.9-1.36-1.2c-0.54-0.3-1.18-0.46-1.9-0.46
			C42.98,145.66,42.35,145.81,41.81,146.11z"/>
		<path class="st0" d="M53.98,139.99v5.83h-1.51v-5.83H53.98z M57.17,139.99v5.83h-1.51v-5.83H57.17z"/>
	</g>
	<g>
		<path class="st1" d="M148.46,36.73v3.7h-3.77v-3.7H148.46z"/>
		<path class="st1" d="M154.46,28.02v2.3h0.05c0.16-0.38,0.38-0.74,0.65-1.07c0.27-0.33,0.58-0.61,0.94-0.84
			c0.35-0.23,0.73-0.41,1.13-0.54c0.4-0.13,0.82-0.19,1.25-0.19c0.22,0,0.47,0.04,0.74,0.12v3.17c-0.16-0.03-0.35-0.06-0.58-0.08
			c-0.22-0.02-0.44-0.04-0.65-0.04c-0.62,0-1.15,0.1-1.58,0.31c-0.43,0.21-0.78,0.49-1.04,0.85c-0.26,0.36-0.45,0.78-0.56,1.26
			c-0.11,0.48-0.17,1-0.17,1.56v5.59h-3.41V28.02H154.46z"/>
		<path class="st1" d="M163.77,37.45c0.51,0.5,1.25,0.74,2.21,0.74c0.69,0,1.28-0.17,1.78-0.52c0.5-0.34,0.8-0.71,0.91-1.09h3
			c-0.48,1.49-1.22,2.55-2.21,3.19s-2.19,0.96-3.6,0.96c-0.98,0-1.86-0.16-2.64-0.47c-0.78-0.31-1.45-0.76-1.99-1.33
			c-0.54-0.58-0.96-1.26-1.26-2.06s-0.44-1.68-0.44-2.64c0-0.93,0.15-1.79,0.46-2.59c0.3-0.8,0.74-1.49,1.3-2.08
			c0.56-0.58,1.23-1.04,2-1.38c0.78-0.34,1.64-0.5,2.58-0.5c1.06,0,1.98,0.2,2.76,0.61c0.78,0.41,1.43,0.96,1.93,1.64
			c0.5,0.69,0.87,1.47,1.09,2.35c0.22,0.88,0.3,1.8,0.24,2.76h-8.95C162.98,36.16,163.26,36.96,163.77,37.45z M167.63,30.92
			c-0.41-0.45-1.03-0.67-1.86-0.67c-0.54,0-1,0.09-1.36,0.28c-0.36,0.18-0.65,0.41-0.86,0.68c-0.22,0.27-0.37,0.56-0.46,0.86
			s-0.14,0.58-0.16,0.82h5.54C168.32,32.03,168.04,31.37,167.63,30.92z"/>
		<path class="st1" d="M177.14,28.02v1.58h0.05c0.42-0.67,0.94-1.16,1.58-1.46c0.64-0.3,1.34-0.46,2.11-0.46
			c0.98,0,1.82,0.18,2.52,0.55s1.29,0.86,1.75,1.46s0.81,1.32,1.03,2.12c0.22,0.81,0.34,1.65,0.34,2.53c0,0.83-0.11,1.63-0.34,2.4
			c-0.22,0.77-0.56,1.45-1.02,2.04s-1.02,1.06-1.7,1.42c-0.68,0.35-1.48,0.53-2.39,0.53c-0.77,0-1.48-0.16-2.12-0.47
			c-0.65-0.31-1.18-0.77-1.6-1.38h-0.05v5.88h-3.41V28.02H177.14z M181.57,37.86c0.38-0.22,0.68-0.52,0.91-0.88
			c0.23-0.36,0.4-0.78,0.49-1.26c0.1-0.48,0.14-0.97,0.14-1.46c0-0.5-0.05-0.98-0.16-1.46c-0.1-0.48-0.28-0.91-0.52-1.28
			s-0.55-0.68-0.92-0.91c-0.38-0.23-0.84-0.35-1.38-0.35c-0.56,0-1.03,0.12-1.4,0.35c-0.38,0.23-0.68,0.53-0.91,0.9
			c-0.23,0.37-0.4,0.79-0.49,1.27c-0.1,0.48-0.14,0.98-0.14,1.49c0,0.5,0.05,0.98,0.16,1.46c0.1,0.48,0.27,0.9,0.5,1.26
			c0.23,0.36,0.54,0.65,0.92,0.88c0.38,0.22,0.85,0.34,1.39,0.34C180.73,38.2,181.19,38.08,181.57,37.86z"/>
		<path class="st1" d="M192.21,37.45c0.51,0.5,1.25,0.74,2.21,0.74c0.69,0,1.28-0.17,1.78-0.52c0.5-0.34,0.8-0.71,0.91-1.09h3
			c-0.48,1.49-1.22,2.55-2.21,3.19s-2.19,0.96-3.6,0.96c-0.98,0-1.86-0.16-2.64-0.47c-0.78-0.31-1.45-0.76-1.99-1.33
			c-0.54-0.58-0.96-1.26-1.26-2.06s-0.44-1.68-0.44-2.64c0-0.93,0.15-1.79,0.46-2.59c0.3-0.8,0.74-1.49,1.3-2.08
			c0.56-0.58,1.23-1.04,2-1.38c0.78-0.34,1.64-0.5,2.58-0.5c1.06,0,1.98,0.2,2.76,0.61c0.78,0.41,1.43,0.96,1.93,1.64
			c0.5,0.69,0.87,1.47,1.09,2.35c0.22,0.88,0.3,1.8,0.24,2.76h-8.95C191.42,36.16,191.7,36.96,192.21,37.45z M196.07,30.92
			c-0.41-0.45-1.03-0.67-1.86-0.67c-0.54,0-1,0.09-1.36,0.28c-0.36,0.18-0.65,0.41-0.86,0.68c-0.22,0.27-0.37,0.56-0.46,0.86
			s-0.14,0.58-0.16,0.82h5.54C196.76,32.03,196.47,31.37,196.07,30.92z"/>
		<path class="st1" d="M202.2,31.84c0.05-0.8,0.25-1.46,0.6-1.99c0.35-0.53,0.8-0.95,1.34-1.27c0.54-0.32,1.16-0.55,1.84-0.68
			c0.68-0.14,1.36-0.2,2.05-0.2c0.62,0,1.26,0.04,1.9,0.13s1.22,0.26,1.75,0.52c0.53,0.26,0.96,0.61,1.3,1.07
			c0.34,0.46,0.5,1.06,0.5,1.81v6.46c0,0.56,0.03,1.1,0.1,1.61c0.06,0.51,0.18,0.9,0.34,1.15h-3.46c-0.06-0.19-0.12-0.39-0.16-0.59
			s-0.07-0.4-0.08-0.61c-0.54,0.56-1.18,0.95-1.92,1.18c-0.74,0.22-1.49,0.34-2.26,0.34c-0.59,0-1.14-0.07-1.66-0.22
			c-0.51-0.14-0.96-0.37-1.34-0.67c-0.38-0.3-0.68-0.69-0.9-1.15c-0.22-0.46-0.32-1.02-0.32-1.66c0-0.7,0.12-1.28,0.37-1.74
			c0.25-0.46,0.57-0.82,0.96-1.09c0.39-0.27,0.84-0.48,1.34-0.61c0.5-0.14,1.01-0.24,1.52-0.32c0.51-0.08,1.02-0.14,1.51-0.19
			c0.5-0.05,0.94-0.12,1.32-0.22c0.38-0.1,0.69-0.24,0.91-0.42c0.22-0.18,0.33-0.45,0.31-0.8c0-0.37-0.06-0.66-0.18-0.88
			c-0.12-0.22-0.28-0.38-0.48-0.5s-0.43-0.2-0.7-0.24c-0.26-0.04-0.55-0.06-0.85-0.06c-0.67,0-1.2,0.14-1.58,0.43
			c-0.38,0.29-0.61,0.77-0.67,1.44H202.2z M210.07,34.36c-0.14,0.13-0.32,0.23-0.54,0.3c-0.22,0.07-0.45,0.13-0.7,0.18
			s-0.51,0.09-0.78,0.12c-0.27,0.03-0.54,0.07-0.82,0.12c-0.26,0.05-0.51,0.11-0.76,0.19c-0.25,0.08-0.46,0.19-0.65,0.32
			c-0.18,0.14-0.33,0.31-0.44,0.52c-0.11,0.21-0.17,0.47-0.17,0.79c0,0.3,0.06,0.56,0.17,0.77c0.11,0.21,0.26,0.37,0.46,0.49
			c0.19,0.12,0.42,0.2,0.67,0.25c0.25,0.05,0.52,0.07,0.79,0.07c0.67,0,1.19-0.11,1.56-0.34c0.37-0.22,0.64-0.49,0.82-0.8
			c0.18-0.31,0.28-0.63,0.32-0.95c0.04-0.32,0.06-0.58,0.06-0.77V34.36z"/>
		<path class="st1" d="M222.93,28.02v2.28h-2.5v6.14c0,0.58,0.1,0.96,0.29,1.15c0.19,0.19,0.58,0.29,1.15,0.29
			c0.19,0,0.38-0.01,0.55-0.02c0.18-0.02,0.34-0.04,0.5-0.07v2.64c-0.29,0.05-0.61,0.08-0.96,0.1c-0.35,0.02-0.7,0.02-1.03,0.02
			c-0.53,0-1.03-0.04-1.5-0.11c-0.47-0.07-0.89-0.21-1.25-0.42c-0.36-0.21-0.64-0.5-0.85-0.89s-0.31-0.89-0.31-1.51V30.3h-2.06
			v-2.28h2.06V24.3h3.41v3.72H222.93z"/>
	</g>
	<g>
		<path class="st1" d="M136.41,49.11l-0.31,1.43h0.02c0.24-0.45,0.54-0.81,0.89-1.09c0.35-0.28,0.8-0.42,1.36-0.42h0.2
			c0.04,0,0.08,0,0.11,0c0.03,0,0.06,0,0.1,0.01l-0.17,0.76c-0.07,0-0.14,0-0.22-0.01c-0.07,0-0.14-0.01-0.22-0.01
			c-0.34,0.01-0.63,0.08-0.89,0.2s-0.49,0.3-0.68,0.51c-0.19,0.21-0.35,0.45-0.47,0.73c-0.12,0.27-0.22,0.55-0.28,0.84l-0.7,3.24
			h-0.74l1.32-6.19H136.41z"/>
		<path class="st1" d="M139.01,52.89c0,0.28,0.04,0.54,0.11,0.78c0.07,0.24,0.18,0.45,0.33,0.62c0.15,0.17,0.34,0.31,0.56,0.41
			c0.23,0.1,0.49,0.15,0.8,0.15c0.5,0,0.93-0.14,1.28-0.43c0.35-0.28,0.6-0.65,0.74-1.11h0.76c-0.21,0.7-0.54,1.24-1.01,1.61
			c-0.46,0.37-1.07,0.55-1.81,0.55c-0.82,0-1.45-0.23-1.88-0.7c-0.43-0.46-0.64-1.1-0.64-1.92c0-0.5,0.07-0.98,0.22-1.45
			c0.15-0.47,0.37-0.89,0.65-1.25s0.64-0.66,1.06-0.89s0.89-0.34,1.42-0.34c0.38,0,0.71,0.06,1,0.17c0.29,0.12,0.53,0.28,0.74,0.49
			s0.36,0.47,0.46,0.76c0.1,0.3,0.16,0.62,0.16,0.98c0,0.18,0,0.35-0.01,0.53c-0.01,0.18-0.02,0.36-0.05,0.54h-4.85
			C139.03,52.56,139.01,52.72,139.01,52.89z M143.2,51.53c0-0.08,0.01-0.15,0.01-0.23c0-0.53-0.15-0.95-0.45-1.26
			c-0.3-0.31-0.71-0.47-1.24-0.47c-0.31,0-0.6,0.06-0.86,0.19c-0.26,0.12-0.49,0.29-0.7,0.49s-0.37,0.44-0.51,0.7
			c-0.14,0.26-0.24,0.54-0.3,0.83h4.04C143.19,51.69,143.19,51.61,143.2,51.53z"/>
		<path class="st1" d="M149.32,50.42c-0.07-0.18-0.17-0.34-0.31-0.46c-0.13-0.12-0.29-0.22-0.48-0.29c-0.19-0.07-0.39-0.1-0.62-0.1
			c-0.46,0-0.85,0.1-1.18,0.3c-0.33,0.2-0.61,0.46-0.83,0.78c-0.22,0.32-0.39,0.68-0.5,1.08c-0.11,0.4-0.16,0.8-0.16,1.2
			c0,0.27,0.03,0.53,0.1,0.76c0.07,0.24,0.17,0.44,0.32,0.61s0.32,0.31,0.54,0.4c0.22,0.1,0.47,0.14,0.77,0.14
			c0.5,0,0.93-0.14,1.28-0.43c0.35-0.29,0.6-0.66,0.76-1.12h0.76c-0.23,0.72-0.58,1.26-1.06,1.63s-1.08,0.55-1.84,0.55
			c-0.77,0-1.36-0.23-1.77-0.7c-0.41-0.46-0.62-1.08-0.62-1.85c0-0.48,0.08-0.96,0.23-1.44c0.15-0.48,0.37-0.91,0.66-1.28
			c0.29-0.38,0.64-0.68,1.06-0.92c0.42-0.24,0.89-0.35,1.42-0.35c0.34,0,0.65,0.04,0.94,0.13s0.54,0.21,0.74,0.39
			s0.37,0.4,0.48,0.66s0.16,0.58,0.16,0.94h-0.76C149.42,50.81,149.4,50.6,149.32,50.42z"/>
		<path class="st1" d="M151.47,52.89c0,0.28,0.04,0.54,0.11,0.78c0.07,0.24,0.18,0.45,0.33,0.62c0.15,0.17,0.34,0.31,0.56,0.41
			c0.23,0.1,0.49,0.15,0.8,0.15c0.5,0,0.93-0.14,1.28-0.43c0.35-0.28,0.6-0.65,0.74-1.11h0.76c-0.21,0.7-0.54,1.24-1.01,1.61
			c-0.46,0.37-1.07,0.55-1.81,0.55c-0.82,0-1.45-0.23-1.88-0.7c-0.43-0.46-0.64-1.1-0.64-1.92c0-0.5,0.07-0.98,0.22-1.45
			c0.15-0.47,0.37-0.89,0.65-1.25s0.64-0.66,1.06-0.89s0.89-0.34,1.42-0.34c0.38,0,0.71,0.06,1,0.17c0.29,0.12,0.53,0.28,0.74,0.49
			s0.36,0.47,0.46,0.76c0.1,0.3,0.16,0.62,0.16,0.98c0,0.18,0,0.35-0.01,0.53c-0.01,0.18-0.02,0.36-0.05,0.54h-4.85
			C151.48,52.56,151.47,52.72,151.47,52.89z M155.65,51.53c0-0.08,0.01-0.15,0.01-0.23c0-0.53-0.15-0.95-0.45-1.26
			c-0.3-0.31-0.71-0.47-1.24-0.47c-0.31,0-0.6,0.06-0.86,0.19c-0.26,0.12-0.49,0.29-0.7,0.49s-0.37,0.44-0.51,0.7
			c-0.14,0.26-0.24,0.54-0.3,0.83h4.04C155.65,51.69,155.65,51.61,155.65,51.53z"/>
		<path class="st1" d="M158.73,49.11l-1.33,6.19h-0.74l1.32-6.19H158.73z M159.25,46.74l-0.26,1.21h-0.76l0.26-1.21H159.25z"/>
		<path class="st1" d="M160.21,49.11l0.73,5.34h0.02l2.9-5.34h0.83l-3.49,6.19h-0.82l-0.97-6.19H160.21z"/>
		<path class="st1" d="M165.47,52.89c0,0.28,0.04,0.54,0.11,0.78c0.07,0.24,0.18,0.45,0.33,0.62c0.15,0.17,0.34,0.31,0.56,0.41
			c0.23,0.1,0.49,0.15,0.8,0.15c0.5,0,0.93-0.14,1.28-0.43c0.35-0.28,0.6-0.65,0.74-1.11h0.76c-0.21,0.7-0.54,1.24-1.01,1.61
			c-0.46,0.37-1.07,0.55-1.81,0.55c-0.82,0-1.45-0.23-1.88-0.7c-0.43-0.46-0.64-1.1-0.64-1.92c0-0.5,0.07-0.98,0.22-1.45
			c0.15-0.47,0.37-0.89,0.65-1.25s0.64-0.66,1.06-0.89s0.89-0.34,1.42-0.34c0.38,0,0.71,0.06,1,0.17c0.29,0.12,0.53,0.28,0.74,0.49
			s0.36,0.47,0.46,0.76c0.1,0.3,0.16,0.62,0.16,0.98c0,0.18,0,0.35-0.01,0.53c-0.01,0.18-0.02,0.36-0.05,0.54h-4.85
			C165.49,52.56,165.47,52.72,165.47,52.89z M169.66,51.53c0-0.08,0.01-0.15,0.01-0.23c0-0.53-0.15-0.95-0.45-1.26
			c-0.3-0.31-0.71-0.47-1.24-0.47c-0.31,0-0.6,0.06-0.86,0.19c-0.26,0.12-0.49,0.29-0.7,0.49s-0.37,0.44-0.51,0.7
			c-0.14,0.26-0.24,0.54-0.3,0.83h4.04C169.65,51.69,169.65,51.61,169.66,51.53z"/>
		<path class="st1" d="M172.66,49.11l-0.31,1.43h0.02c0.24-0.45,0.54-0.81,0.89-1.09c0.35-0.28,0.8-0.42,1.36-0.42h0.2
			c0.04,0,0.08,0,0.11,0c0.03,0,0.06,0,0.1,0.01l-0.17,0.76c-0.07,0-0.14,0-0.22-0.01c-0.07,0-0.14-0.01-0.22-0.01
			c-0.34,0.01-0.63,0.08-0.89,0.2s-0.49,0.3-0.68,0.51c-0.19,0.21-0.35,0.45-0.47,0.73c-0.12,0.27-0.22,0.55-0.28,0.84l-0.7,3.24
			h-0.74l1.32-6.19H172.66z"/>
		<path class="st1" d="M185.62,50.05c0.16-0.26,0.35-0.47,0.58-0.63c0.23-0.16,0.5-0.29,0.79-0.37s0.61-0.12,0.94-0.12
			c0.21,0,0.44,0.02,0.69,0.06s0.49,0.11,0.7,0.22c0.22,0.1,0.4,0.24,0.54,0.42c0.14,0.18,0.22,0.4,0.22,0.68
			c0,0.15-0.01,0.32-0.04,0.5c-0.03,0.18-0.06,0.37-0.1,0.56c-0.04,0.19-0.08,0.37-0.13,0.55c-0.04,0.18-0.08,0.34-0.11,0.47
			c-0.07,0.34-0.13,0.63-0.19,0.86c-0.05,0.23-0.09,0.42-0.13,0.57c-0.03,0.15-0.06,0.28-0.07,0.37c-0.02,0.1-0.02,0.19-0.02,0.29
			c0,0.11,0.04,0.18,0.13,0.21c0.09,0.03,0.18,0.04,0.26,0.04c0.06,0,0.11,0,0.15-0.01c0.04,0,0.09-0.01,0.15-0.02l-0.11,0.59
			c-0.2,0.04-0.41,0.06-0.62,0.06c-0.42,0-0.64-0.22-0.66-0.66c0-0.06,0-0.11,0.01-0.17c0-0.06,0.01-0.11,0.02-0.17l-0.02-0.02
			c-0.22,0.36-0.52,0.64-0.91,0.83c-0.39,0.2-0.8,0.29-1.24,0.29c-0.29,0-0.55-0.03-0.79-0.1c-0.24-0.06-0.45-0.16-0.62-0.3
			c-0.17-0.14-0.31-0.31-0.41-0.53c-0.1-0.22-0.15-0.48-0.15-0.78c0-0.33,0.06-0.6,0.17-0.83s0.27-0.41,0.47-0.55
			c0.2-0.14,0.43-0.26,0.68-0.34s0.52-0.15,0.8-0.2c0.41-0.06,0.78-0.09,1.11-0.09s0.62-0.03,0.86-0.09
			c0.25-0.06,0.43-0.18,0.56-0.35s0.19-0.46,0.19-0.86c0-0.18-0.04-0.33-0.13-0.45c-0.08-0.12-0.19-0.21-0.31-0.27
			c-0.12-0.06-0.26-0.11-0.42-0.13c-0.16-0.02-0.31-0.04-0.45-0.04c-0.24,0-0.47,0.02-0.68,0.07c-0.22,0.05-0.41,0.13-0.59,0.23
			c-0.18,0.11-0.32,0.25-0.44,0.43c-0.12,0.18-0.19,0.4-0.23,0.65h-0.76C185.36,50.61,185.46,50.3,185.62,50.05z M189.03,51.97
			c-0.06,0.07-0.15,0.13-0.27,0.17s-0.24,0.08-0.37,0.1c-0.13,0.02-0.26,0.04-0.39,0.05c-0.13,0.01-0.25,0.02-0.34,0.02
			c-0.23,0.02-0.49,0.04-0.77,0.07c-0.28,0.03-0.55,0.09-0.8,0.18s-0.46,0.23-0.62,0.41c-0.17,0.18-0.25,0.43-0.25,0.76
			c0,0.2,0.04,0.37,0.11,0.51c0.08,0.14,0.18,0.26,0.31,0.35s0.28,0.16,0.44,0.2s0.34,0.06,0.52,0.06c0.61,0,1.1-0.16,1.48-0.49
			s0.62-0.77,0.74-1.32l0.24-1.04L189.03,51.97z"/>
		<path class="st1" d="M192.68,49.11l-0.31,1.43h0.02c0.24-0.45,0.54-0.81,0.89-1.09c0.35-0.28,0.8-0.42,1.36-0.42h0.2
			c0.04,0,0.08,0,0.11,0c0.03,0,0.06,0,0.1,0.01l-0.17,0.76c-0.07,0-0.14,0-0.22-0.01c-0.07,0-0.14-0.01-0.22-0.01
			c-0.34,0.01-0.63,0.08-0.89,0.2s-0.49,0.3-0.68,0.51c-0.19,0.21-0.35,0.45-0.47,0.73c-0.12,0.27-0.22,0.55-0.28,0.84l-0.7,3.24
			h-0.74l1.32-6.19H192.68z"/>
		<path class="st1" d="M199.42,56.05c-0.16,0.39-0.36,0.71-0.6,0.97s-0.53,0.44-0.87,0.56s-0.75,0.19-1.23,0.19
			c-0.32,0-0.62-0.04-0.91-0.11s-0.53-0.19-0.75-0.34s-0.39-0.36-0.52-0.62s-0.2-0.57-0.2-0.94h0.74c0,0.26,0.05,0.48,0.15,0.66
			c0.1,0.18,0.23,0.32,0.39,0.42c0.16,0.1,0.34,0.18,0.55,0.22s0.42,0.07,0.65,0.07c0.32,0,0.6-0.05,0.83-0.16
			c0.23-0.1,0.43-0.24,0.59-0.41c0.16-0.17,0.3-0.36,0.41-0.58c0.11-0.22,0.2-0.44,0.27-0.67s0.13-0.45,0.18-0.67
			s0.1-0.42,0.14-0.59l-0.02-0.02c-0.21,0.37-0.51,0.65-0.9,0.85c-0.39,0.2-0.8,0.29-1.21,0.29c-0.37,0-0.7-0.06-0.98-0.19
			s-0.53-0.31-0.72-0.53c-0.19-0.23-0.34-0.49-0.44-0.8c-0.1-0.3-0.15-0.64-0.15-1c0-0.46,0.07-0.91,0.22-1.35
			c0.14-0.44,0.35-0.84,0.62-1.19c0.27-0.35,0.6-0.64,1-0.85c0.39-0.22,0.84-0.32,1.33-0.32c0.23,0,0.46,0.03,0.68,0.09
			c0.22,0.06,0.43,0.15,0.62,0.27c0.19,0.12,0.35,0.27,0.47,0.46c0.13,0.18,0.21,0.4,0.25,0.64h0.02l0.26-1.27h0.7l-1.18,5.54
			C199.72,55.19,199.58,55.66,199.42,56.05z M195.68,53.34c0.06,0.23,0.17,0.44,0.31,0.62c0.14,0.18,0.31,0.32,0.52,0.43
			c0.21,0.1,0.46,0.16,0.74,0.16c0.38,0,0.73-0.09,1.03-0.28c0.3-0.19,0.56-0.43,0.78-0.73s0.38-0.63,0.49-1
			c0.11-0.36,0.17-0.72,0.17-1.06c0-0.27-0.03-0.52-0.09-0.76c-0.06-0.23-0.16-0.43-0.29-0.6c-0.14-0.17-0.31-0.3-0.53-0.4
			c-0.22-0.1-0.48-0.14-0.78-0.14c-0.38,0-0.73,0.09-1.03,0.28c-0.3,0.18-0.56,0.42-0.77,0.71s-0.37,0.62-0.48,0.97
			c-0.11,0.36-0.16,0.71-0.16,1.06C195.58,52.86,195.61,53.1,195.68,53.34z"/>
		<path class="st1" d="M205.37,55.3l0.22-1.13h-0.02c-0.23,0.37-0.54,0.68-0.93,0.92c-0.39,0.25-0.81,0.37-1.28,0.37
			c-0.27,0-0.52-0.03-0.75-0.09c-0.23-0.06-0.43-0.16-0.59-0.29s-0.3-0.3-0.39-0.52s-0.14-0.47-0.14-0.76c0-0.17,0.03-0.41,0.1-0.73
			l0.85-3.97h0.76l-0.86,4c-0.02,0.1-0.04,0.2-0.06,0.31c-0.02,0.11-0.02,0.21-0.02,0.32c0,0.2,0.04,0.37,0.11,0.52
			c0.07,0.14,0.17,0.26,0.29,0.35s0.26,0.15,0.41,0.19c0.16,0.04,0.32,0.06,0.49,0.06c0.28,0,0.55-0.06,0.8-0.18
			c0.25-0.12,0.48-0.29,0.7-0.51c0.21-0.22,0.4-0.49,0.56-0.8c0.16-0.32,0.28-0.67,0.37-1.06l0.68-3.18h0.76l-1.33,6.19H205.37z"/>
		<path class="st1" d="M209.59,49.11l-0.24,1.08l0.02,0.02c0.22-0.36,0.53-0.66,0.91-0.91s0.81-0.37,1.27-0.37
			c0.43,0,0.78,0.11,1.04,0.33c0.26,0.22,0.42,0.55,0.46,0.99h0.02c0.24-0.38,0.55-0.7,0.92-0.95s0.79-0.37,1.25-0.37
			c0.6,0,1.04,0.15,1.31,0.46c0.27,0.3,0.41,0.7,0.41,1.18c0,0.11-0.01,0.23-0.02,0.34c-0.02,0.12-0.04,0.24-0.06,0.37l-0.86,4.03
			h-0.76l0.88-4.06c0.05-0.22,0.07-0.42,0.07-0.62c0-0.3-0.09-0.56-0.28-0.76c-0.19-0.2-0.49-0.3-0.89-0.3
			c-0.33,0-0.61,0.08-0.86,0.23c-0.24,0.15-0.46,0.36-0.64,0.62c-0.18,0.26-0.33,0.56-0.45,0.91c-0.12,0.35-0.22,0.72-0.31,1.12
			l-0.61,2.86h-0.76l0.86-4.03c0.05-0.21,0.07-0.41,0.07-0.6c0-0.3-0.08-0.56-0.25-0.78c-0.16-0.22-0.43-0.32-0.8-0.32
			c-0.27,0-0.53,0.07-0.78,0.2s-0.47,0.32-0.67,0.55c-0.2,0.23-0.37,0.51-0.52,0.82s-0.26,0.65-0.34,1.01l-0.67,3.14h-0.74
			l1.32-6.19H209.59z"/>
		<path class="st1" d="M218.61,52.89c0,0.28,0.04,0.54,0.11,0.78c0.07,0.24,0.18,0.45,0.33,0.62c0.15,0.17,0.34,0.31,0.56,0.41
			c0.23,0.1,0.49,0.15,0.8,0.15c0.5,0,0.93-0.14,1.28-0.43c0.35-0.28,0.6-0.65,0.74-1.11h0.76c-0.21,0.7-0.54,1.24-1.01,1.61
			c-0.46,0.37-1.07,0.55-1.81,0.55c-0.82,0-1.45-0.23-1.88-0.7s-0.64-1.1-0.64-1.92c0-0.5,0.07-0.98,0.22-1.45
			c0.15-0.47,0.37-0.89,0.65-1.25s0.64-0.66,1.06-0.89s0.89-0.34,1.42-0.34c0.38,0,0.71,0.06,1,0.17s0.53,0.28,0.74,0.49
			s0.36,0.47,0.46,0.76c0.1,0.3,0.16,0.62,0.16,0.98c0,0.18,0,0.35-0.01,0.53c-0.01,0.18-0.02,0.36-0.05,0.54h-4.85
			C218.62,52.56,218.61,52.72,218.61,52.89z M222.79,51.53c0-0.08,0.01-0.15,0.01-0.23c0-0.53-0.15-0.95-0.45-1.26
			c-0.3-0.31-0.71-0.47-1.24-0.47c-0.31,0-0.6,0.06-0.86,0.19s-0.49,0.29-0.7,0.49c-0.2,0.2-0.38,0.44-0.51,0.7
			c-0.14,0.26-0.24,0.54-0.3,0.83h4.04C222.79,51.69,222.79,51.61,222.79,51.53z"/>
		<path class="st1" d="M225.81,49.11l-0.22,1.13h0.02c0.23-0.37,0.54-0.68,0.93-0.93c0.39-0.25,0.81-0.38,1.28-0.38
			c0.27,0,0.52,0.03,0.75,0.1c0.23,0.06,0.43,0.16,0.59,0.29s0.3,0.3,0.39,0.52c0.09,0.21,0.14,0.47,0.14,0.76
			c0,0.17-0.03,0.41-0.1,0.73l-0.85,3.97h-0.76l0.86-4c0.02-0.1,0.04-0.2,0.06-0.31c0.02-0.11,0.02-0.21,0.02-0.32
			c0-0.21-0.04-0.38-0.11-0.52c-0.07-0.14-0.17-0.25-0.29-0.34c-0.12-0.09-0.26-0.15-0.41-0.19c-0.16-0.04-0.32-0.06-0.49-0.06
			c-0.27,0-0.54,0.06-0.79,0.18c-0.26,0.12-0.49,0.29-0.71,0.51c-0.22,0.22-0.4,0.49-0.56,0.8s-0.28,0.67-0.36,1.06l-0.68,3.18
			h-0.74l1.32-6.19H225.81z"/>
		<path class="st1" d="M231.99,49.11l0.4-1.87h0.76l-0.4,1.87h1.24l-0.12,0.64h-1.26l-0.85,3.97c-0.03,0.14-0.05,0.25-0.07,0.33
			c-0.01,0.08-0.02,0.16-0.02,0.26c0,0.11,0.03,0.21,0.09,0.3c0.06,0.09,0.16,0.13,0.31,0.13c0.3,0,0.59-0.02,0.89-0.07l-0.13,0.65
			c-0.13,0.02-0.26,0.03-0.38,0.04c-0.13,0.01-0.26,0.01-0.38,0.01c-0.14,0-0.28-0.01-0.42-0.03c-0.14-0.02-0.26-0.06-0.37-0.13
			c-0.11-0.06-0.19-0.15-0.26-0.27c-0.06-0.12-0.1-0.27-0.1-0.45c0-0.06,0.01-0.15,0.02-0.26c0.01-0.11,0.03-0.24,0.07-0.37
			l0.85-4.1h-1.12l0.14-0.64H231.99z"/>
		<path class="st1" d="M234.8,54.04c0.1,0.2,0.23,0.36,0.4,0.48s0.35,0.2,0.56,0.25s0.43,0.07,0.64,0.07c0.17,0,0.34-0.02,0.53-0.07
			c0.18-0.04,0.35-0.11,0.5-0.2c0.15-0.09,0.28-0.21,0.38-0.35c0.1-0.14,0.15-0.32,0.15-0.52c0-0.21-0.05-0.38-0.15-0.52
			c-0.1-0.14-0.23-0.25-0.38-0.35c-0.16-0.1-0.33-0.19-0.53-0.26c-0.2-0.08-0.4-0.15-0.6-0.23s-0.4-0.17-0.6-0.26
			c-0.2-0.09-0.38-0.2-0.53-0.34c-0.16-0.13-0.28-0.29-0.38-0.47c-0.1-0.18-0.14-0.4-0.14-0.65c0-0.3,0.07-0.56,0.22-0.77
			c0.14-0.21,0.33-0.39,0.55-0.52c0.22-0.14,0.47-0.24,0.74-0.3c0.27-0.06,0.53-0.1,0.78-0.1c0.33,0,0.63,0.04,0.9,0.11
			c0.27,0.07,0.51,0.19,0.7,0.35c0.2,0.16,0.35,0.37,0.46,0.62c0.11,0.25,0.16,0.56,0.15,0.92h-0.76c0.02-0.24-0.01-0.44-0.08-0.61
			S238.13,50,238,49.89s-0.29-0.19-0.47-0.25c-0.18-0.05-0.38-0.08-0.59-0.08c-0.17,0-0.34,0.02-0.52,0.05
			c-0.18,0.03-0.34,0.09-0.49,0.16c-0.15,0.08-0.27,0.18-0.37,0.32s-0.15,0.31-0.15,0.53c0,0.14,0.04,0.27,0.11,0.38
			c0.07,0.11,0.17,0.21,0.29,0.3s0.26,0.17,0.41,0.24c0.16,0.07,0.32,0.14,0.5,0.22c0.22,0.09,0.44,0.18,0.68,0.27
			c0.24,0.09,0.45,0.21,0.65,0.34c0.2,0.14,0.36,0.3,0.49,0.49c0.13,0.19,0.2,0.43,0.2,0.72c0,0.35-0.07,0.65-0.22,0.89
			c-0.15,0.24-0.34,0.43-0.58,0.58s-0.51,0.25-0.8,0.32c-0.3,0.06-0.59,0.1-0.89,0.1c-0.3,0-0.6-0.04-0.88-0.12
			s-0.53-0.21-0.75-0.38s-0.39-0.4-0.52-0.68c-0.13-0.28-0.18-0.61-0.17-1h0.74C234.65,53.59,234.7,53.84,234.8,54.04z"/>
	</g>
	<g>
		<path class="st1" d="M246.22,112.15c0.42-0.03,0.8-0.12,1.16-0.28c0.36-0.15,0.66-0.37,0.89-0.66c0.23-0.29,0.35-0.67,0.35-1.15
			c0-0.72-0.24-1.27-0.72-1.66c-0.48-0.38-1.03-0.58-1.66-0.58c-0.86,0-1.52,0.28-1.96,0.85c-0.44,0.57-0.65,1.28-0.64,2.15h-3.24
			c0.03-0.86,0.19-1.65,0.47-2.36c0.28-0.71,0.67-1.32,1.18-1.84c0.5-0.51,1.11-0.91,1.81-1.19c0.7-0.28,1.49-0.42,2.35-0.42
			c0.67,0,1.34,0.1,2.02,0.3c0.67,0.2,1.28,0.5,1.81,0.9c0.54,0.4,0.97,0.89,1.31,1.46s0.5,1.24,0.5,1.99c0,0.82-0.2,1.54-0.59,2.16
			c-0.39,0.62-0.98,1.05-1.76,1.27v0.05c0.93,0.21,1.66,0.66,2.18,1.34c0.53,0.69,0.79,1.51,0.79,2.47c0,0.88-0.17,1.66-0.52,2.35
			c-0.34,0.69-0.8,1.26-1.38,1.73c-0.58,0.46-1.24,0.82-1.99,1.06s-1.54,0.36-2.35,0.36c-0.94,0-1.8-0.14-2.58-0.41
			c-0.78-0.27-1.44-0.67-1.98-1.19c-0.54-0.52-0.96-1.16-1.26-1.91c-0.3-0.75-0.44-1.62-0.42-2.59h3.24
			c0.02,0.45,0.09,0.88,0.22,1.28c0.13,0.41,0.31,0.76,0.55,1.06s0.54,0.53,0.9,0.71c0.36,0.18,0.79,0.26,1.28,0.26
			c0.77,0,1.42-0.24,1.94-0.71s0.79-1.12,0.79-1.93c0-0.64-0.12-1.13-0.37-1.46s-0.56-0.58-0.95-0.73s-0.8-0.24-1.26-0.26
			c-0.46-0.02-0.89-0.04-1.31-0.04v-2.4C245.41,112.18,245.81,112.18,246.22,112.15z"/>
	</g>
	<line class="st2" x1="207.55" y1="57.76" x2="241.82" y2="102.18"/>
	<line class="st2" x1="155.86" y1="57.76" x2="123.41" y2="101.76"/>
	<g>
		<path class="st1" d="M128.28,111.83v2.57h-4.78v4.78h-2.57v-4.78h-4.78v-2.57h4.78v-4.78h2.57v4.78H128.28z"/>
	</g>
	<g>
		<path class="st1" d="M46.27,166.13v1.68h0.05c0.45-0.64,0.99-1.14,1.62-1.49c0.63-0.35,1.36-0.53,2.17-0.53
			c0.78,0,1.5,0.15,2.15,0.46c0.65,0.3,1.14,0.84,1.48,1.61c0.37-0.54,0.87-1.02,1.5-1.44c0.63-0.42,1.38-0.62,2.24-0.62
			c0.66,0,1.26,0.08,1.82,0.24c0.56,0.16,1.04,0.42,1.44,0.77c0.4,0.35,0.71,0.81,0.94,1.38c0.22,0.57,0.34,1.25,0.34,2.05v8.3H58.6
			v-7.03c0-0.42-0.02-0.81-0.05-1.18c-0.03-0.37-0.12-0.69-0.26-0.96c-0.14-0.27-0.36-0.49-0.64-0.65
			c-0.28-0.16-0.66-0.24-1.14-0.24c-0.48,0-0.87,0.09-1.16,0.28c-0.3,0.18-0.53,0.42-0.7,0.72s-0.28,0.63-0.34,1.01
			c-0.06,0.38-0.08,0.76-0.08,1.14v6.91h-3.41v-6.96c0-0.37-0.01-0.73-0.02-1.09s-0.08-0.69-0.2-1c-0.12-0.3-0.32-0.55-0.6-0.73
			c-0.28-0.18-0.69-0.28-1.24-0.28c-0.16,0-0.37,0.04-0.64,0.11c-0.26,0.07-0.52,0.21-0.77,0.41c-0.25,0.2-0.46,0.49-0.64,0.86
			s-0.26,0.87-0.26,1.48v7.2h-3.41v-12.41H46.27z"/>
		<path class="st1" d="M64.55,169.95c0.05-0.8,0.25-1.46,0.6-1.99c0.35-0.53,0.8-0.95,1.34-1.27c0.54-0.32,1.16-0.55,1.84-0.68
			c0.68-0.14,1.36-0.2,2.05-0.2c0.62,0,1.26,0.04,1.9,0.13s1.22,0.26,1.75,0.52c0.53,0.26,0.96,0.61,1.3,1.07
			c0.34,0.46,0.5,1.06,0.5,1.81v6.46c0,0.56,0.03,1.1,0.1,1.61c0.06,0.51,0.18,0.9,0.34,1.15h-3.46c-0.06-0.19-0.12-0.39-0.16-0.59
			s-0.07-0.4-0.08-0.61c-0.54,0.56-1.18,0.95-1.92,1.18c-0.74,0.22-1.49,0.34-2.26,0.34c-0.59,0-1.14-0.07-1.66-0.22
			c-0.51-0.14-0.96-0.37-1.34-0.67c-0.38-0.3-0.68-0.69-0.9-1.15c-0.22-0.46-0.32-1.02-0.32-1.66c0-0.7,0.12-1.28,0.37-1.74
			c0.25-0.46,0.57-0.82,0.96-1.09c0.39-0.27,0.84-0.48,1.34-0.61c0.5-0.14,1.01-0.24,1.52-0.32c0.51-0.08,1.02-0.14,1.51-0.19
			c0.5-0.05,0.94-0.12,1.32-0.22c0.38-0.1,0.69-0.24,0.91-0.42c0.22-0.18,0.33-0.45,0.31-0.8c0-0.37-0.06-0.66-0.18-0.88
			c-0.12-0.22-0.28-0.38-0.48-0.5s-0.43-0.2-0.7-0.24c-0.26-0.04-0.55-0.06-0.85-0.06c-0.67,0-1.2,0.14-1.58,0.43
			c-0.38,0.29-0.61,0.77-0.67,1.44H64.55z M72.43,172.47c-0.14,0.13-0.32,0.23-0.54,0.3c-0.22,0.07-0.45,0.13-0.7,0.18
			s-0.51,0.09-0.78,0.12c-0.27,0.03-0.54,0.07-0.82,0.12c-0.26,0.05-0.51,0.11-0.76,0.19c-0.25,0.08-0.46,0.19-0.65,0.32
			c-0.18,0.14-0.33,0.31-0.44,0.52c-0.11,0.21-0.17,0.47-0.17,0.79c0,0.3,0.06,0.56,0.17,0.77c0.11,0.21,0.26,0.37,0.46,0.49
			c0.19,0.12,0.42,0.2,0.67,0.25c0.25,0.05,0.52,0.07,0.79,0.07c0.67,0,1.19-0.11,1.56-0.34c0.37-0.22,0.64-0.49,0.82-0.8
			c0.18-0.31,0.28-0.63,0.32-0.95c0.04-0.32,0.06-0.58,0.06-0.77V172.47z"/>
		<path class="st1" d="M81.34,175.46c0.15,0.26,0.35,0.48,0.59,0.65s0.52,0.29,0.83,0.37c0.31,0.08,0.64,0.12,0.97,0.12
			c0.24,0,0.49-0.03,0.76-0.08c0.26-0.06,0.5-0.14,0.72-0.26c0.22-0.12,0.4-0.28,0.54-0.48c0.14-0.2,0.22-0.45,0.22-0.76
			c0-0.51-0.34-0.9-1.02-1.15s-1.63-0.51-2.84-0.77c-0.5-0.11-0.98-0.24-1.45-0.4s-0.89-0.35-1.26-0.6
			c-0.37-0.25-0.66-0.56-0.89-0.94c-0.22-0.38-0.34-0.84-0.34-1.38c0-0.8,0.16-1.46,0.47-1.97c0.31-0.51,0.72-0.92,1.24-1.21
			s1.09-0.5,1.73-0.62c0.64-0.12,1.3-0.18,1.97-0.18s1.32,0.06,1.96,0.19c0.63,0.13,1.2,0.34,1.69,0.65c0.5,0.3,0.91,0.71,1.24,1.21
			s0.52,1.14,0.59,1.91H85.8c-0.05-0.66-0.3-1.1-0.74-1.33c-0.45-0.23-0.98-0.35-1.58-0.35c-0.19,0-0.4,0.01-0.62,0.04
			c-0.22,0.02-0.43,0.08-0.61,0.16c-0.18,0.08-0.34,0.2-0.47,0.35c-0.13,0.15-0.19,0.36-0.19,0.61c0,0.3,0.11,0.55,0.34,0.74
			c0.22,0.19,0.52,0.35,0.88,0.47c0.36,0.12,0.77,0.23,1.24,0.32c0.46,0.1,0.94,0.2,1.42,0.31c0.5,0.11,0.98,0.25,1.45,0.41
			c0.47,0.16,0.89,0.37,1.26,0.64c0.37,0.26,0.66,0.59,0.89,0.98c0.22,0.39,0.34,0.88,0.34,1.45c0,0.82-0.16,1.5-0.49,2.05
			c-0.33,0.55-0.76,1-1.28,1.33c-0.53,0.34-1.13,0.57-1.81,0.71s-1.37,0.2-2.08,0.2c-0.72,0-1.42-0.07-2.11-0.22
			c-0.69-0.14-1.3-0.38-1.84-0.72c-0.54-0.34-0.98-0.78-1.32-1.33c-0.34-0.55-0.53-1.24-0.56-2.08h3.24
			C81.11,174.88,81.19,175.19,81.34,175.46z"/>
		<path class="st1" d="M97.29,168.37c-0.54,0-1,0.12-1.37,0.37s-0.67,0.57-0.9,0.96c-0.23,0.39-0.4,0.82-0.49,1.3
			c-0.1,0.47-0.14,0.94-0.14,1.4c0,0.45,0.05,0.9,0.14,1.37s0.25,0.88,0.47,1.26s0.51,0.68,0.88,0.92s0.82,0.36,1.34,0.36
			c0.82,0,1.44-0.23,1.88-0.68c0.44-0.46,0.72-1.07,0.83-1.84h3.29c-0.22,1.65-0.86,2.9-1.92,3.77c-1.06,0.86-2.41,1.3-4.06,1.3
			c-0.93,0-1.78-0.16-2.56-0.47c-0.78-0.31-1.44-0.75-1.98-1.31c-0.54-0.56-0.97-1.23-1.27-2c-0.3-0.78-0.46-1.63-0.46-2.56
			c0-0.96,0.14-1.85,0.42-2.68c0.28-0.82,0.69-1.54,1.24-2.14c0.54-0.6,1.21-1.07,1.99-1.4c0.78-0.34,1.68-0.5,2.69-0.5
			c0.74,0,1.44,0.1,2.12,0.29c0.68,0.19,1.29,0.48,1.82,0.88c0.54,0.39,0.97,0.88,1.31,1.46c0.34,0.58,0.53,1.28,0.58,2.08h-3.34
			C99.59,169.08,98.75,168.37,97.29,168.37z"/>
		<path class="st1" d="M105.21,169.65c0.3-0.81,0.74-1.5,1.3-2.06c0.56-0.57,1.23-1.01,2.02-1.32c0.78-0.31,1.66-0.47,2.64-0.47
			c0.98,0,1.86,0.16,2.65,0.47c0.79,0.31,1.47,0.75,2.03,1.32c0.56,0.57,0.99,1.26,1.3,2.06s0.46,1.71,0.46,2.7
			s-0.15,1.89-0.46,2.69c-0.3,0.8-0.74,1.48-1.3,2.05c-0.56,0.57-1.24,1-2.03,1.31s-1.68,0.46-2.65,0.46
			c-0.98,0-1.86-0.15-2.64-0.46c-0.78-0.3-1.46-0.74-2.02-1.31c-0.56-0.57-0.99-1.25-1.3-2.05c-0.3-0.8-0.46-1.7-0.46-2.69
			S104.91,170.46,105.21,169.65z M108.31,173.8c0.1,0.47,0.26,0.9,0.49,1.27s0.54,0.68,0.92,0.9c0.38,0.22,0.86,0.34,1.44,0.34
			s1.06-0.11,1.45-0.34c0.39-0.22,0.7-0.52,0.94-0.9c0.23-0.38,0.4-0.8,0.49-1.27c0.1-0.47,0.14-0.96,0.14-1.45
			s-0.05-0.98-0.14-1.46c-0.1-0.48-0.26-0.9-0.49-1.27c-0.23-0.37-0.54-0.67-0.94-0.9c-0.39-0.23-0.88-0.35-1.45-0.35
			s-1.06,0.12-1.44,0.35c-0.38,0.23-0.69,0.53-0.92,0.9s-0.4,0.79-0.49,1.27c-0.1,0.48-0.14,0.97-0.14,1.46
			S108.21,173.33,108.31,173.8z"/>
		<path class="st1" d="M126.62,166.13v2.28h-2.5v6.14c0,0.58,0.1,0.96,0.29,1.15c0.19,0.19,0.58,0.29,1.15,0.29
			c0.19,0,0.38-0.01,0.55-0.02c0.18-0.02,0.34-0.04,0.5-0.07v2.64c-0.29,0.05-0.61,0.08-0.96,0.1c-0.35,0.02-0.7,0.02-1.03,0.02
			c-0.53,0-1.03-0.04-1.5-0.11c-0.47-0.07-0.89-0.21-1.25-0.42c-0.36-0.21-0.64-0.5-0.85-0.89s-0.31-0.89-0.31-1.51v-7.32h-2.06
			v-2.28h2.06v-3.72h3.41v3.72H126.62z"/>
	</g>
	<g>
		<path class="st1" d="M151.92,161.41v7.7h-2.57v-7.7H151.92z M156.38,161.41v7.7h-2.57v-7.7H156.38z"/>
		<path class="st1" d="M163.65,174.85v3.7h-3.77v-3.7H163.65z M162.59,173.41h-1.7l-0.91-7.39v-4.61h3.55v4.61L162.59,173.41z"/>
		<path class="st1" d="M169.7,161.41v7.7h-2.57v-7.7H169.7z M174.16,161.41v7.7h-2.57v-7.7H174.16z"/>
	</g>
	<g>
		<path class="st0" d="M59.82,89.97v5.83h-1.51v-5.83H59.82z M63.01,89.97v5.83H61.5v-5.83H63.01z"/>
		<path class="st0" d="M78.65,93.39c-0.33-0.52-0.73-0.96-1.2-1.31s-0.99-0.62-1.56-0.8C75.32,91.09,74.72,91,74.1,91
			c-1.14,0-2.11,0.22-2.93,0.65c-0.82,0.43-1.48,1-2,1.71c-0.52,0.71-0.9,1.52-1.15,2.41c-0.25,0.9-0.37,1.82-0.37,2.76
			c0,0.93,0.12,1.84,0.37,2.75s0.63,1.71,1.15,2.42c0.52,0.71,1.19,1.28,2,1.72c0.82,0.43,1.79,0.65,2.93,0.65
			c0.8,0,1.52-0.14,2.16-0.43c0.64-0.29,1.19-0.68,1.66-1.18c0.46-0.5,0.84-1.08,1.13-1.74s0.47-1.38,0.55-2.15h1.63
			c-0.11,1.06-0.36,2.01-0.74,2.86c-0.38,0.85-0.88,1.57-1.49,2.16s-1.32,1.05-2.15,1.37c-0.82,0.32-1.74,0.48-2.75,0.48
			c-1.34,0-2.52-0.24-3.54-0.73c-1.02-0.49-1.86-1.14-2.53-1.96s-1.18-1.76-1.51-2.83s-0.5-2.2-0.5-3.38s0.17-2.31,0.5-3.38
			s0.84-2.02,1.51-2.84s1.52-1.48,2.53-1.97c1.02-0.49,2.2-0.73,3.54-0.73c0.82,0,1.61,0.12,2.39,0.36c0.78,0.24,1.48,0.6,2.11,1.07
			c0.63,0.47,1.16,1.05,1.58,1.74c0.42,0.69,0.69,1.48,0.8,2.38h-1.63C79.21,94.5,78.97,93.91,78.65,93.39z"/>
		<path class="st0" d="M91.18,94.89c0.73,0.35,1.34,0.82,1.84,1.42c0.5,0.59,0.87,1.28,1.13,2.08c0.26,0.79,0.38,1.64,0.38,2.53
			s-0.13,1.74-0.38,2.53c-0.26,0.79-0.63,1.48-1.13,2.08c-0.5,0.59-1.11,1.06-1.84,1.4c-0.73,0.34-1.56,0.52-2.51,0.52
			s-1.78-0.17-2.51-0.52s-1.34-0.81-1.84-1.4c-0.5-0.59-0.87-1.28-1.13-2.08c-0.26-0.79-0.38-1.63-0.38-2.53s0.13-1.74,0.38-2.53
			s0.63-1.48,1.13-2.08s1.11-1.06,1.84-1.42c0.73-0.35,1.56-0.53,2.51-0.53S90.45,94.54,91.18,94.89z M86.77,96.09
			c-0.54,0.3-1,0.71-1.36,1.2c-0.36,0.5-0.63,1.06-0.82,1.69c-0.18,0.63-0.28,1.28-0.28,1.93s0.09,1.3,0.28,1.93
			c0.18,0.63,0.46,1.2,0.82,1.69c0.36,0.5,0.81,0.9,1.36,1.2c0.54,0.3,1.18,0.46,1.9,0.46c0.72,0,1.35-0.15,1.9-0.46
			c0.54-0.3,1-0.7,1.36-1.2c0.36-0.5,0.63-1.06,0.82-1.69c0.18-0.63,0.28-1.28,0.28-1.93s-0.09-1.3-0.28-1.93
			c-0.18-0.63-0.46-1.2-0.82-1.69c-0.36-0.5-0.81-0.9-1.36-1.2c-0.54-0.3-1.18-0.46-1.9-0.46C87.95,95.63,87.31,95.79,86.77,96.09z"
			/>
		<path class="st0" d="M104.52,94.89c0.73,0.35,1.34,0.82,1.84,1.42c0.5,0.59,0.87,1.28,1.13,2.08c0.26,0.79,0.38,1.64,0.38,2.53
			s-0.13,1.74-0.38,2.53c-0.26,0.79-0.63,1.48-1.13,2.08c-0.5,0.59-1.11,1.06-1.84,1.4c-0.73,0.34-1.56,0.52-2.51,0.52
			s-1.78-0.17-2.51-0.52s-1.34-0.81-1.84-1.4c-0.5-0.59-0.87-1.28-1.13-2.08c-0.26-0.79-0.38-1.63-0.38-2.53s0.13-1.74,0.38-2.53
			s0.63-1.48,1.13-2.08s1.11-1.06,1.84-1.42c0.73-0.35,1.56-0.53,2.51-0.53S103.79,94.54,104.52,94.89z M100.11,96.09
			c-0.54,0.3-1,0.71-1.36,1.2c-0.36,0.5-0.63,1.06-0.82,1.69c-0.18,0.63-0.28,1.28-0.28,1.93s0.09,1.3,0.28,1.93
			c0.18,0.63,0.46,1.2,0.82,1.69c0.36,0.5,0.81,0.9,1.36,1.2c0.54,0.3,1.18,0.46,1.9,0.46c0.72,0,1.35-0.15,1.9-0.46
			c0.54-0.3,1-0.7,1.36-1.2c0.36-0.5,0.63-1.06,0.82-1.69c0.18-0.63,0.28-1.28,0.28-1.93s-0.09-1.3-0.28-1.93
			c-0.18-0.63-0.46-1.2-0.82-1.69c-0.36-0.5-0.81-0.9-1.36-1.2c-0.54-0.3-1.18-0.46-1.9-0.46
			C101.29,95.63,100.66,95.79,100.11,96.09z"/>
		<path class="st0" d="M110.58,104.56h2.02v2.54h-2.02V104.56z M110.77,89.97h1.63v5.11l-0.36,7.75h-0.91l-0.36-7.75V89.97z"/>
		<path class="st0" d="M118.07,89.97v5.83h-1.51v-5.83H118.07z M121.26,89.97v5.83h-1.51v-5.83H121.26z"/>
	</g>
	<line class="st2" x1="115.91" y1="121.8" x2="84.53" y2="156.12"/>
	<line class="st2" x1="127.91" y1="121.8" x2="159.29" y2="156.12"/>
</g>
</svg>
